<?xml version="1.0" encoding="utf-8" standalone="no"?>
<!DOCTYPE svg PUBLIC "-//W3C//DTD SVG 1.1//EN"
  "http://www.w3.org/Graphics/SVG/1.1/DTD/svg11.dtd">
<!-- Created with matplotlib (https://matplotlib.org/) -->
<svg height="288pt" version="1.1" viewBox="0 0 612 288" width="612pt" xmlns="http://www.w3.org/2000/svg" xmlns:xlink="http://www.w3.org/1999/xlink">
 <defs>
  <style type="text/css">
*{stroke-linecap:butt;stroke-linejoin:round;}
  </style>
 </defs>
 <g id="figure_1">
  <g id="patch_1">
   <path d="M 0 288
L 612 288
L 612 0
L 0 0
z
" style="fill:#ffffff;"/>
  </g>
  <g id="axes_1">
   <g id="patch_2">
    <path d="M 60.32 246.04
L 270.595227 246.04
L 270.595227 14.76
L 60.32 14.76
z
" style="fill:#ffffff;"/>
   </g>
   <g id="matplotlib.axis_1">
    <g id="xtick_1">
     <g id="line2d_1">
      <path clip-path="url(#p81bb9a2c8d)" d="M 89.999996 246.04
L 89.999996 14.76
" style="fill:none;stroke:#b0b0b0;stroke-dasharray:0.8,1.32;stroke-dashoffset:0;stroke-width:0.8;"/>
     </g>
     <g id="line2d_2">
      <defs>
       <path d="M 0 0
L 0 3.5
" id="m8143d74c78" style="stroke:#000000;stroke-width:0.8;"/>
      </defs>
      <g>
       <use style="stroke:#000000;stroke-width:0.8;" x="89.999996" xlink:href="#m8143d74c78" y="246.04"/>
      </g>
     </g>
     <g id="text_1">
      <!-- 1 -->
      <defs>
       <path d="M 12.40625 8.296875
L 28.515625 8.296875
L 28.515625 63.921875
L 10.984375 60.40625
L 10.984375 69.390625
L 28.421875 72.90625
L 38.28125 72.90625
L 38.28125 8.296875
L 54.390625 8.296875
L 54.390625 0
L 12.40625 0
z
" id="DejaVuSans-49"/>
      </defs>
      <g transform="translate(86.818746 260.638438)scale(0.1 -0.1)">
       <use xlink:href="#DejaVuSans-49"/>
      </g>
     </g>
    </g>
    <g id="xtick_2">
     <g id="line2d_3">
      <path clip-path="url(#p81bb9a2c8d)" d="M 140.305074 246.04
L 140.305074 14.76
" style="fill:none;stroke:#b0b0b0;stroke-dasharray:0.8,1.32;stroke-dashoffset:0;stroke-width:0.8;"/>
     </g>
     <g id="line2d_4">
      <g>
       <use style="stroke:#000000;stroke-width:0.8;" x="140.305074" xlink:href="#m8143d74c78" y="246.04"/>
      </g>
     </g>
     <g id="text_2">
      <!-- 2 -->
      <defs>
       <path d="M 19.1875 8.296875
L 53.609375 8.296875
L 53.609375 0
L 7.328125 0
L 7.328125 8.296875
Q 12.9375 14.109375 22.625 23.890625
Q 32.328125 33.6875 34.8125 36.53125
Q 39.546875 41.84375 41.421875 45.53125
Q 43.3125 49.21875 43.3125 52.78125
Q 43.3125 58.59375 39.234375 62.25
Q 35.15625 65.921875 28.609375 65.921875
Q 23.96875 65.921875 18.8125 64.3125
Q 13.671875 62.703125 7.8125 59.421875
L 7.8125 69.390625
Q 13.765625 71.78125 18.9375 73
Q 24.125 74.21875 28.421875 74.21875
Q 39.75 74.21875 46.484375 68.546875
Q 53.21875 62.890625 53.21875 53.421875
Q 53.21875 48.921875 51.53125 44.890625
Q 49.859375 40.875 45.40625 35.40625
Q 44.1875 33.984375 37.640625 27.21875
Q 31.109375 20.453125 19.1875 8.296875
z
" id="DejaVuSans-50"/>
      </defs>
      <g transform="translate(137.123824 260.638438)scale(0.1 -0.1)">
       <use xlink:href="#DejaVuSans-50"/>
      </g>
     </g>
    </g>
    <g id="xtick_3">
     <g id="line2d_5">
      <path clip-path="url(#p81bb9a2c8d)" d="M 190.610153 246.04
L 190.610153 14.76
" style="fill:none;stroke:#b0b0b0;stroke-dasharray:0.8,1.32;stroke-dashoffset:0;stroke-width:0.8;"/>
     </g>
     <g id="line2d_6">
      <g>
       <use style="stroke:#000000;stroke-width:0.8;" x="190.610153" xlink:href="#m8143d74c78" y="246.04"/>
      </g>
     </g>
     <g id="text_3">
      <!-- 3 -->
      <defs>
       <path d="M 40.578125 39.3125
Q 47.65625 37.796875 51.625 33
Q 55.609375 28.21875 55.609375 21.1875
Q 55.609375 10.40625 48.1875 4.484375
Q 40.765625 -1.421875 27.09375 -1.421875
Q 22.515625 -1.421875 17.65625 -0.515625
Q 12.796875 0.390625 7.625 2.203125
L 7.625 11.71875
Q 11.71875 9.328125 16.59375 8.109375
Q 21.484375 6.890625 26.8125 6.890625
Q 36.078125 6.890625 40.9375 10.546875
Q 45.796875 14.203125 45.796875 21.1875
Q 45.796875 27.640625 41.28125 31.265625
Q 36.765625 34.90625 28.71875 34.90625
L 20.21875 34.90625
L 20.21875 43.015625
L 29.109375 43.015625
Q 36.375 43.015625 40.234375 45.921875
Q 44.09375 48.828125 44.09375 54.296875
Q 44.09375 59.90625 40.109375 62.90625
Q 36.140625 65.921875 28.71875 65.921875
Q 24.65625 65.921875 20.015625 65.03125
Q 15.375 64.15625 9.8125 62.3125
L 9.8125 71.09375
Q 15.4375 72.65625 20.34375 73.4375
Q 25.25 74.21875 29.59375 74.21875
Q 40.828125 74.21875 47.359375 69.109375
Q 53.90625 64.015625 53.90625 55.328125
Q 53.90625 49.265625 50.4375 45.09375
Q 46.96875 40.921875 40.578125 39.3125
z
" id="DejaVuSans-51"/>
      </defs>
      <g transform="translate(187.428903 260.638438)scale(0.1 -0.1)">
       <use xlink:href="#DejaVuSans-51"/>
      </g>
     </g>
    </g>
    <g id="xtick_4">
     <g id="line2d_7">
      <path clip-path="url(#p81bb9a2c8d)" d="M 240.915231 246.04
L 240.915231 14.76
" style="fill:none;stroke:#b0b0b0;stroke-dasharray:0.8,1.32;stroke-dashoffset:0;stroke-width:0.8;"/>
     </g>
     <g id="line2d_8">
      <g>
       <use style="stroke:#000000;stroke-width:0.8;" x="240.915231" xlink:href="#m8143d74c78" y="246.04"/>
      </g>
     </g>
     <g id="text_4">
      <!-- 4 -->
      <defs>
       <path d="M 37.796875 64.3125
L 12.890625 25.390625
L 37.796875 25.390625
z
M 35.203125 72.90625
L 47.609375 72.90625
L 47.609375 25.390625
L 58.015625 25.390625
L 58.015625 17.1875
L 47.609375 17.1875
L 47.609375 0
L 37.796875 0
L 37.796875 17.1875
L 4.890625 17.1875
L 4.890625 26.703125
z
" id="DejaVuSans-52"/>
      </defs>
      <g transform="translate(237.733981 260.638438)scale(0.1 -0.1)">
       <use xlink:href="#DejaVuSans-52"/>
      </g>
     </g>
    </g>
    <g id="text_5">
     <!-- Task order -->
     <defs>
      <path d="M -0.296875 72.90625
L 61.375 72.90625
L 61.375 64.59375
L 35.5 64.59375
L 35.5 0
L 25.59375 0
L 25.59375 64.59375
L -0.296875 64.59375
z
" id="DejaVuSans-84"/>
      <path d="M 34.28125 27.484375
Q 23.390625 27.484375 19.1875 25
Q 14.984375 22.515625 14.984375 16.5
Q 14.984375 11.71875 18.140625 8.90625
Q 21.296875 6.109375 26.703125 6.109375
Q 34.1875 6.109375 38.703125 11.40625
Q 43.21875 16.703125 43.21875 25.484375
L 43.21875 27.484375
z
M 52.203125 31.203125
L 52.203125 0
L 43.21875 0
L 43.21875 8.296875
Q 40.140625 3.328125 35.546875 0.953125
Q 30.953125 -1.421875 24.3125 -1.421875
Q 15.921875 -1.421875 10.953125 3.296875
Q 6 8.015625 6 15.921875
Q 6 25.140625 12.171875 29.828125
Q 18.359375 34.515625 30.609375 34.515625
L 43.21875 34.515625
L 43.21875 35.40625
Q 43.21875 41.609375 39.140625 45
Q 35.0625 48.390625 27.6875 48.390625
Q 23 48.390625 18.546875 47.265625
Q 14.109375 46.140625 10.015625 43.890625
L 10.015625 52.203125
Q 14.9375 54.109375 19.578125 55.046875
Q 24.21875 56 28.609375 56
Q 40.484375 56 46.34375 49.84375
Q 52.203125 43.703125 52.203125 31.203125
z
" id="DejaVuSans-97"/>
      <path d="M 44.28125 53.078125
L 44.28125 44.578125
Q 40.484375 46.53125 36.375 47.5
Q 32.28125 48.484375 27.875 48.484375
Q 21.1875 48.484375 17.84375 46.4375
Q 14.5 44.390625 14.5 40.28125
Q 14.5 37.15625 16.890625 35.375
Q 19.28125 33.59375 26.515625 31.984375
L 29.59375 31.296875
Q 39.15625 29.25 43.1875 25.515625
Q 47.21875 21.78125 47.21875 15.09375
Q 47.21875 7.46875 41.1875 3.015625
Q 35.15625 -1.421875 24.609375 -1.421875
Q 20.21875 -1.421875 15.453125 -0.5625
Q 10.6875 0.296875 5.421875 2
L 5.421875 11.28125
Q 10.40625 8.6875 15.234375 7.390625
Q 20.0625 6.109375 24.8125 6.109375
Q 31.15625 6.109375 34.5625 8.28125
Q 37.984375 10.453125 37.984375 14.40625
Q 37.984375 18.0625 35.515625 20.015625
Q 33.0625 21.96875 24.703125 23.78125
L 21.578125 24.515625
Q 13.234375 26.265625 9.515625 29.90625
Q 5.8125 33.546875 5.8125 39.890625
Q 5.8125 47.609375 11.28125 51.796875
Q 16.75 56 26.8125 56
Q 31.78125 56 36.171875 55.265625
Q 40.578125 54.546875 44.28125 53.078125
z
" id="DejaVuSans-115"/>
      <path d="M 9.078125 75.984375
L 18.109375 75.984375
L 18.109375 31.109375
L 44.921875 54.6875
L 56.390625 54.6875
L 27.390625 29.109375
L 57.625 0
L 45.90625 0
L 18.109375 26.703125
L 18.109375 0
L 9.078125 0
z
" id="DejaVuSans-107"/>
      <path id="DejaVuSans-32"/>
      <path d="M 30.609375 48.390625
Q 23.390625 48.390625 19.1875 42.75
Q 14.984375 37.109375 14.984375 27.296875
Q 14.984375 17.484375 19.15625 11.84375
Q 23.34375 6.203125 30.609375 6.203125
Q 37.796875 6.203125 41.984375 11.859375
Q 46.1875 17.53125 46.1875 27.296875
Q 46.1875 37.015625 41.984375 42.703125
Q 37.796875 48.390625 30.609375 48.390625
z
M 30.609375 56
Q 42.328125 56 49.015625 48.375
Q 55.71875 40.765625 55.71875 27.296875
Q 55.71875 13.875 49.015625 6.21875
Q 42.328125 -1.421875 30.609375 -1.421875
Q 18.84375 -1.421875 12.171875 6.21875
Q 5.515625 13.875 5.515625 27.296875
Q 5.515625 40.765625 12.171875 48.375
Q 18.84375 56 30.609375 56
z
" id="DejaVuSans-111"/>
      <path d="M 41.109375 46.296875
Q 39.59375 47.171875 37.8125 47.578125
Q 36.03125 48 33.890625 48
Q 26.265625 48 22.1875 43.046875
Q 18.109375 38.09375 18.109375 28.8125
L 18.109375 0
L 9.078125 0
L 9.078125 54.6875
L 18.109375 54.6875
L 18.109375 46.1875
Q 20.953125 51.171875 25.484375 53.578125
Q 30.03125 56 36.53125 56
Q 37.453125 56 38.578125 55.875
Q 39.703125 55.765625 41.0625 55.515625
z
" id="DejaVuSans-114"/>
      <path d="M 45.40625 46.390625
L 45.40625 75.984375
L 54.390625 75.984375
L 54.390625 0
L 45.40625 0
L 45.40625 8.203125
Q 42.578125 3.328125 38.25 0.953125
Q 33.9375 -1.421875 27.875 -1.421875
Q 17.96875 -1.421875 11.734375 6.484375
Q 5.515625 14.40625 5.515625 27.296875
Q 5.515625 40.1875 11.734375 48.09375
Q 17.96875 56 27.875 56
Q 33.9375 56 38.25 53.625
Q 42.578125 51.265625 45.40625 46.390625
z
M 14.796875 27.296875
Q 14.796875 17.390625 18.875 11.75
Q 22.953125 6.109375 30.078125 6.109375
Q 37.203125 6.109375 41.296875 11.75
Q 45.40625 17.390625 45.40625 27.296875
Q 45.40625 37.203125 41.296875 42.84375
Q 37.203125 48.484375 30.078125 48.484375
Q 22.953125 48.484375 18.875 42.84375
Q 14.796875 37.203125 14.796875 27.296875
z
" id="DejaVuSans-100"/>
      <path d="M 56.203125 29.59375
L 56.203125 25.203125
L 14.890625 25.203125
Q 15.484375 15.921875 20.484375 11.0625
Q 25.484375 6.203125 34.421875 6.203125
Q 39.59375 6.203125 44.453125 7.46875
Q 49.3125 8.734375 54.109375 11.28125
L 54.109375 2.78125
Q 49.265625 0.734375 44.1875 -0.34375
Q 39.109375 -1.421875 33.890625 -1.421875
Q 20.796875 -1.421875 13.15625 6.1875
Q 5.515625 13.8125 5.515625 26.8125
Q 5.515625 40.234375 12.765625 48.109375
Q 20.015625 56 32.328125 56
Q 43.359375 56 49.78125 48.890625
Q 56.203125 41.796875 56.203125 29.59375
z
M 47.21875 32.234375
Q 47.125 39.59375 43.09375 43.984375
Q 39.0625 48.390625 32.421875 48.390625
Q 24.90625 48.390625 20.390625 44.140625
Q 15.875 39.890625 15.1875 32.171875
z
" id="DejaVuSans-101"/>
     </defs>
     <g transform="translate(138.84277 274.316562)scale(0.1 -0.1)">
      <use xlink:href="#DejaVuSans-84"/>
      <use x="60.833984" xlink:href="#DejaVuSans-97"/>
      <use x="122.113281" xlink:href="#DejaVuSans-115"/>
      <use x="174.212891" xlink:href="#DejaVuSans-107"/>
      <use x="232.123047" xlink:href="#DejaVuSans-32"/>
      <use x="263.910156" xlink:href="#DejaVuSans-111"/>
      <use x="325.091797" xlink:href="#DejaVuSans-114"/>
      <use x="366.189453" xlink:href="#DejaVuSans-100"/>
      <use x="429.666016" xlink:href="#DejaVuSans-101"/>
      <use x="491.189453" xlink:href="#DejaVuSans-114"/>
     </g>
    </g>
   </g>
   <g id="matplotlib.axis_2">
    <g id="ytick_1">
     <g id="line2d_9">
      <path clip-path="url(#p81bb9a2c8d)" d="M 60.32 246.04
L 270.595227 246.04
" style="fill:none;stroke:#b0b0b0;stroke-dasharray:0.8,1.32;stroke-dashoffset:0;stroke-width:0.8;"/>
     </g>
     <g id="line2d_10">
      <defs>
       <path d="M 0 0
L -3.5 0
" id="m996c2c0bd7" style="stroke:#000000;stroke-width:0.8;"/>
      </defs>
      <g>
       <use style="stroke:#000000;stroke-width:0.8;" x="60.32" xlink:href="#m996c2c0bd7" y="246.04"/>
      </g>
     </g>
     <g id="text_6">
      <!-- 0.500 -->
      <defs>
       <path d="M 31.78125 66.40625
Q 24.171875 66.40625 20.328125 58.90625
Q 16.5 51.421875 16.5 36.375
Q 16.5 21.390625 20.328125 13.890625
Q 24.171875 6.390625 31.78125 6.390625
Q 39.453125 6.390625 43.28125 13.890625
Q 47.125 21.390625 47.125 36.375
Q 47.125 51.421875 43.28125 58.90625
Q 39.453125 66.40625 31.78125 66.40625
z
M 31.78125 74.21875
Q 44.046875 74.21875 50.515625 64.515625
Q 56.984375 54.828125 56.984375 36.375
Q 56.984375 17.96875 50.515625 8.265625
Q 44.046875 -1.421875 31.78125 -1.421875
Q 19.53125 -1.421875 13.0625 8.265625
Q 6.59375 17.96875 6.59375 36.375
Q 6.59375 54.828125 13.0625 64.515625
Q 19.53125 74.21875 31.78125 74.21875
z
" id="DejaVuSans-48"/>
       <path d="M 10.6875 12.40625
L 21 12.40625
L 21 0
L 10.6875 0
z
" id="DejaVuSans-46"/>
       <path d="M 10.796875 72.90625
L 49.515625 72.90625
L 49.515625 64.59375
L 19.828125 64.59375
L 19.828125 46.734375
Q 21.96875 47.46875 24.109375 47.828125
Q 26.265625 48.1875 28.421875 48.1875
Q 40.625 48.1875 47.75 41.5
Q 54.890625 34.8125 54.890625 23.390625
Q 54.890625 11.625 47.5625 5.09375
Q 40.234375 -1.421875 26.90625 -1.421875
Q 22.3125 -1.421875 17.546875 -0.640625
Q 12.796875 0.140625 7.71875 1.703125
L 7.71875 11.625
Q 12.109375 9.234375 16.796875 8.0625
Q 21.484375 6.890625 26.703125 6.890625
Q 35.15625 6.890625 40.078125 11.328125
Q 45.015625 15.765625 45.015625 23.390625
Q 45.015625 31 40.078125 35.4375
Q 35.15625 39.890625 26.703125 39.890625
Q 22.75 39.890625 18.8125 39.015625
Q 14.890625 38.140625 10.796875 36.28125
z
" id="DejaVuSans-53"/>
      </defs>
      <g transform="translate(24.691875 249.839219)scale(0.1 -0.1)">
       <use xlink:href="#DejaVuSans-48"/>
       <use x="63.623047" xlink:href="#DejaVuSans-46"/>
       <use x="95.410156" xlink:href="#DejaVuSans-53"/>
       <use x="159.033203" xlink:href="#DejaVuSans-48"/>
       <use x="222.65625" xlink:href="#DejaVuSans-48"/>
      </g>
     </g>
    </g>
    <g id="ytick_2">
     <g id="line2d_11">
      <path clip-path="url(#p81bb9a2c8d)" d="M 60.32 217.13
L 270.595227 217.13
" style="fill:none;stroke:#b0b0b0;stroke-dasharray:0.8,1.32;stroke-dashoffset:0;stroke-width:0.8;"/>
     </g>
     <g id="line2d_12">
      <g>
       <use style="stroke:#000000;stroke-width:0.8;" x="60.32" xlink:href="#m996c2c0bd7" y="217.13"/>
      </g>
     </g>
     <g id="text_7">
      <!-- 0.525 -->
      <g transform="translate(24.691875 220.929219)scale(0.1 -0.1)">
       <use xlink:href="#DejaVuSans-48"/>
       <use x="63.623047" xlink:href="#DejaVuSans-46"/>
       <use x="95.410156" xlink:href="#DejaVuSans-53"/>
       <use x="159.033203" xlink:href="#DejaVuSans-50"/>
       <use x="222.65625" xlink:href="#DejaVuSans-53"/>
      </g>
     </g>
    </g>
    <g id="ytick_3">
     <g id="line2d_13">
      <path clip-path="url(#p81bb9a2c8d)" d="M 60.32 188.22
L 270.595227 188.22
" style="fill:none;stroke:#b0b0b0;stroke-dasharray:0.8,1.32;stroke-dashoffset:0;stroke-width:0.8;"/>
     </g>
     <g id="line2d_14">
      <g>
       <use style="stroke:#000000;stroke-width:0.8;" x="60.32" xlink:href="#m996c2c0bd7" y="188.22"/>
      </g>
     </g>
     <g id="text_8">
      <!-- 0.550 -->
      <g transform="translate(24.691875 192.019219)scale(0.1 -0.1)">
       <use xlink:href="#DejaVuSans-48"/>
       <use x="63.623047" xlink:href="#DejaVuSans-46"/>
       <use x="95.410156" xlink:href="#DejaVuSans-53"/>
       <use x="159.033203" xlink:href="#DejaVuSans-53"/>
       <use x="222.65625" xlink:href="#DejaVuSans-48"/>
      </g>
     </g>
    </g>
    <g id="ytick_4">
     <g id="line2d_15">
      <path clip-path="url(#p81bb9a2c8d)" d="M 60.32 159.31
L 270.595227 159.31
" style="fill:none;stroke:#b0b0b0;stroke-dasharray:0.8,1.32;stroke-dashoffset:0;stroke-width:0.8;"/>
     </g>
     <g id="line2d_16">
      <g>
       <use style="stroke:#000000;stroke-width:0.8;" x="60.32" xlink:href="#m996c2c0bd7" y="159.31"/>
      </g>
     </g>
     <g id="text_9">
      <!-- 0.575 -->
      <defs>
       <path d="M 8.203125 72.90625
L 55.078125 72.90625
L 55.078125 68.703125
L 28.609375 0
L 18.3125 0
L 43.21875 64.59375
L 8.203125 64.59375
z
" id="DejaVuSans-55"/>
      </defs>
      <g transform="translate(24.691875 163.109219)scale(0.1 -0.1)">
       <use xlink:href="#DejaVuSans-48"/>
       <use x="63.623047" xlink:href="#DejaVuSans-46"/>
       <use x="95.410156" xlink:href="#DejaVuSans-53"/>
       <use x="159.033203" xlink:href="#DejaVuSans-55"/>
       <use x="222.65625" xlink:href="#DejaVuSans-53"/>
      </g>
     </g>
    </g>
    <g id="ytick_5">
     <g id="line2d_17">
      <path clip-path="url(#p81bb9a2c8d)" d="M 60.32 130.4
L 270.595227 130.4
" style="fill:none;stroke:#b0b0b0;stroke-dasharray:0.8,1.32;stroke-dashoffset:0;stroke-width:0.8;"/>
     </g>
     <g id="line2d_18">
      <g>
       <use style="stroke:#000000;stroke-width:0.8;" x="60.32" xlink:href="#m996c2c0bd7" y="130.4"/>
      </g>
     </g>
     <g id="text_10">
      <!-- 0.600 -->
      <defs>
       <path d="M 33.015625 40.375
Q 26.375 40.375 22.484375 35.828125
Q 18.609375 31.296875 18.609375 23.390625
Q 18.609375 15.53125 22.484375 10.953125
Q 26.375 6.390625 33.015625 6.390625
Q 39.65625 6.390625 43.53125 10.953125
Q 47.40625 15.53125 47.40625 23.390625
Q 47.40625 31.296875 43.53125 35.828125
Q 39.65625 40.375 33.015625 40.375
z
M 52.59375 71.296875
L 52.59375 62.3125
Q 48.875 64.0625 45.09375 64.984375
Q 41.3125 65.921875 37.59375 65.921875
Q 27.828125 65.921875 22.671875 59.328125
Q 17.53125 52.734375 16.796875 39.40625
Q 19.671875 43.65625 24.015625 45.921875
Q 28.375 48.1875 33.59375 48.1875
Q 44.578125 48.1875 50.953125 41.515625
Q 57.328125 34.859375 57.328125 23.390625
Q 57.328125 12.15625 50.6875 5.359375
Q 44.046875 -1.421875 33.015625 -1.421875
Q 20.359375 -1.421875 13.671875 8.265625
Q 6.984375 17.96875 6.984375 36.375
Q 6.984375 53.65625 15.1875 63.9375
Q 23.390625 74.21875 37.203125 74.21875
Q 40.921875 74.21875 44.703125 73.484375
Q 48.484375 72.75 52.59375 71.296875
z
" id="DejaVuSans-54"/>
      </defs>
      <g transform="translate(24.691875 134.199219)scale(0.1 -0.1)">
       <use xlink:href="#DejaVuSans-48"/>
       <use x="63.623047" xlink:href="#DejaVuSans-46"/>
       <use x="95.410156" xlink:href="#DejaVuSans-54"/>
       <use x="159.033203" xlink:href="#DejaVuSans-48"/>
       <use x="222.65625" xlink:href="#DejaVuSans-48"/>
      </g>
     </g>
    </g>
    <g id="ytick_6">
     <g id="line2d_19">
      <path clip-path="url(#p81bb9a2c8d)" d="M 60.32 101.49
L 270.595227 101.49
" style="fill:none;stroke:#b0b0b0;stroke-dasharray:0.8,1.32;stroke-dashoffset:0;stroke-width:0.8;"/>
     </g>
     <g id="line2d_20">
      <g>
       <use style="stroke:#000000;stroke-width:0.8;" x="60.32" xlink:href="#m996c2c0bd7" y="101.49"/>
      </g>
     </g>
     <g id="text_11">
      <!-- 0.625 -->
      <g transform="translate(24.691875 105.289219)scale(0.1 -0.1)">
       <use xlink:href="#DejaVuSans-48"/>
       <use x="63.623047" xlink:href="#DejaVuSans-46"/>
       <use x="95.410156" xlink:href="#DejaVuSans-54"/>
       <use x="159.033203" xlink:href="#DejaVuSans-50"/>
       <use x="222.65625" xlink:href="#DejaVuSans-53"/>
      </g>
     </g>
    </g>
    <g id="ytick_7">
     <g id="line2d_21">
      <path clip-path="url(#p81bb9a2c8d)" d="M 60.32 72.58
L 270.595227 72.58
" style="fill:none;stroke:#b0b0b0;stroke-dasharray:0.8,1.32;stroke-dashoffset:0;stroke-width:0.8;"/>
     </g>
     <g id="line2d_22">
      <g>
       <use style="stroke:#000000;stroke-width:0.8;" x="60.32" xlink:href="#m996c2c0bd7" y="72.58"/>
      </g>
     </g>
     <g id="text_12">
      <!-- 0.650 -->
      <g transform="translate(24.691875 76.379219)scale(0.1 -0.1)">
       <use xlink:href="#DejaVuSans-48"/>
       <use x="63.623047" xlink:href="#DejaVuSans-46"/>
       <use x="95.410156" xlink:href="#DejaVuSans-54"/>
       <use x="159.033203" xlink:href="#DejaVuSans-53"/>
       <use x="222.65625" xlink:href="#DejaVuSans-48"/>
      </g>
     </g>
    </g>
    <g id="ytick_8">
     <g id="line2d_23">
      <path clip-path="url(#p81bb9a2c8d)" d="M 60.32 43.67
L 270.595227 43.67
" style="fill:none;stroke:#b0b0b0;stroke-dasharray:0.8,1.32;stroke-dashoffset:0;stroke-width:0.8;"/>
     </g>
     <g id="line2d_24">
      <g>
       <use style="stroke:#000000;stroke-width:0.8;" x="60.32" xlink:href="#m996c2c0bd7" y="43.67"/>
      </g>
     </g>
     <g id="text_13">
      <!-- 0.675 -->
      <g transform="translate(24.691875 47.469219)scale(0.1 -0.1)">
       <use xlink:href="#DejaVuSans-48"/>
       <use x="63.623047" xlink:href="#DejaVuSans-46"/>
       <use x="95.410156" xlink:href="#DejaVuSans-54"/>
       <use x="159.033203" xlink:href="#DejaVuSans-55"/>
       <use x="222.65625" xlink:href="#DejaVuSans-53"/>
      </g>
     </g>
    </g>
    <g id="ytick_9">
     <g id="line2d_25">
      <path clip-path="url(#p81bb9a2c8d)" d="M 60.32 14.76
L 270.595227 14.76
" style="fill:none;stroke:#b0b0b0;stroke-dasharray:0.8,1.32;stroke-dashoffset:0;stroke-width:0.8;"/>
     </g>
     <g id="line2d_26">
      <g>
       <use style="stroke:#000000;stroke-width:0.8;" x="60.32" xlink:href="#m996c2c0bd7" y="14.76"/>
      </g>
     </g>
     <g id="text_14">
      <!-- 0.700 -->
      <g transform="translate(24.691875 18.559219)scale(0.1 -0.1)">
       <use xlink:href="#DejaVuSans-48"/>
       <use x="63.623047" xlink:href="#DejaVuSans-46"/>
       <use x="95.410156" xlink:href="#DejaVuSans-55"/>
       <use x="159.033203" xlink:href="#DejaVuSans-48"/>
       <use x="222.65625" xlink:href="#DejaVuSans-48"/>
      </g>
     </g>
    </g>
    <g id="text_15">
     <!-- Mean performance (% correct) -->
     <defs>
      <path d="M 9.8125 72.90625
L 24.515625 72.90625
L 43.109375 23.296875
L 61.8125 72.90625
L 76.515625 72.90625
L 76.515625 0
L 66.890625 0
L 66.890625 64.015625
L 48.09375 14.015625
L 38.1875 14.015625
L 19.390625 64.015625
L 19.390625 0
L 9.8125 0
z
" id="DejaVuSans-77"/>
      <path d="M 54.890625 33.015625
L 54.890625 0
L 45.90625 0
L 45.90625 32.71875
Q 45.90625 40.484375 42.875 44.328125
Q 39.84375 48.1875 33.796875 48.1875
Q 26.515625 48.1875 22.3125 43.546875
Q 18.109375 38.921875 18.109375 30.90625
L 18.109375 0
L 9.078125 0
L 9.078125 54.6875
L 18.109375 54.6875
L 18.109375 46.1875
Q 21.34375 51.125 25.703125 53.5625
Q 30.078125 56 35.796875 56
Q 45.21875 56 50.046875 50.171875
Q 54.890625 44.34375 54.890625 33.015625
z
" id="DejaVuSans-110"/>
      <path d="M 18.109375 8.203125
L 18.109375 -20.796875
L 9.078125 -20.796875
L 9.078125 54.6875
L 18.109375 54.6875
L 18.109375 46.390625
Q 20.953125 51.265625 25.265625 53.625
Q 29.59375 56 35.59375 56
Q 45.5625 56 51.78125 48.09375
Q 58.015625 40.1875 58.015625 27.296875
Q 58.015625 14.40625 51.78125 6.484375
Q 45.5625 -1.421875 35.59375 -1.421875
Q 29.59375 -1.421875 25.265625 0.953125
Q 20.953125 3.328125 18.109375 8.203125
z
M 48.6875 27.296875
Q 48.6875 37.203125 44.609375 42.84375
Q 40.53125 48.484375 33.40625 48.484375
Q 26.265625 48.484375 22.1875 42.84375
Q 18.109375 37.203125 18.109375 27.296875
Q 18.109375 17.390625 22.1875 11.75
Q 26.265625 6.109375 33.40625 6.109375
Q 40.53125 6.109375 44.609375 11.75
Q 48.6875 17.390625 48.6875 27.296875
z
" id="DejaVuSans-112"/>
      <path d="M 37.109375 75.984375
L 37.109375 68.5
L 28.515625 68.5
Q 23.6875 68.5 21.796875 66.546875
Q 19.921875 64.59375 19.921875 59.515625
L 19.921875 54.6875
L 34.71875 54.6875
L 34.71875 47.703125
L 19.921875 47.703125
L 19.921875 0
L 10.890625 0
L 10.890625 47.703125
L 2.296875 47.703125
L 2.296875 54.6875
L 10.890625 54.6875
L 10.890625 58.5
Q 10.890625 67.625 15.140625 71.796875
Q 19.390625 75.984375 28.609375 75.984375
z
" id="DejaVuSans-102"/>
      <path d="M 52 44.1875
Q 55.375 50.25 60.0625 53.125
Q 64.75 56 71.09375 56
Q 79.640625 56 84.28125 50.015625
Q 88.921875 44.046875 88.921875 33.015625
L 88.921875 0
L 79.890625 0
L 79.890625 32.71875
Q 79.890625 40.578125 77.09375 44.375
Q 74.3125 48.1875 68.609375 48.1875
Q 61.625 48.1875 57.5625 43.546875
Q 53.515625 38.921875 53.515625 30.90625
L 53.515625 0
L 44.484375 0
L 44.484375 32.71875
Q 44.484375 40.625 41.703125 44.40625
Q 38.921875 48.1875 33.109375 48.1875
Q 26.21875 48.1875 22.15625 43.53125
Q 18.109375 38.875 18.109375 30.90625
L 18.109375 0
L 9.078125 0
L 9.078125 54.6875
L 18.109375 54.6875
L 18.109375 46.1875
Q 21.1875 51.21875 25.484375 53.609375
Q 29.78125 56 35.6875 56
Q 41.65625 56 45.828125 52.96875
Q 50 49.953125 52 44.1875
z
" id="DejaVuSans-109"/>
      <path d="M 48.78125 52.59375
L 48.78125 44.1875
Q 44.96875 46.296875 41.140625 47.34375
Q 37.3125 48.390625 33.40625 48.390625
Q 24.65625 48.390625 19.8125 42.84375
Q 14.984375 37.3125 14.984375 27.296875
Q 14.984375 17.28125 19.8125 11.734375
Q 24.65625 6.203125 33.40625 6.203125
Q 37.3125 6.203125 41.140625 7.25
Q 44.96875 8.296875 48.78125 10.40625
L 48.78125 2.09375
Q 45.015625 0.34375 40.984375 -0.53125
Q 36.96875 -1.421875 32.421875 -1.421875
Q 20.0625 -1.421875 12.78125 6.34375
Q 5.515625 14.109375 5.515625 27.296875
Q 5.515625 40.671875 12.859375 48.328125
Q 20.21875 56 33.015625 56
Q 37.15625 56 41.109375 55.140625
Q 45.0625 54.296875 48.78125 52.59375
z
" id="DejaVuSans-99"/>
      <path d="M 31 75.875
Q 24.46875 64.65625 21.28125 53.65625
Q 18.109375 42.671875 18.109375 31.390625
Q 18.109375 20.125 21.3125 9.0625
Q 24.515625 -2 31 -13.1875
L 23.1875 -13.1875
Q 15.875 -1.703125 12.234375 9.375
Q 8.59375 20.453125 8.59375 31.390625
Q 8.59375 42.28125 12.203125 53.3125
Q 15.828125 64.359375 23.1875 75.875
z
" id="DejaVuSans-40"/>
      <path d="M 72.703125 32.078125
Q 68.453125 32.078125 66.03125 28.46875
Q 63.625 24.859375 63.625 18.40625
Q 63.625 12.0625 66.03125 8.421875
Q 68.453125 4.78125 72.703125 4.78125
Q 76.859375 4.78125 79.265625 8.421875
Q 81.6875 12.0625 81.6875 18.40625
Q 81.6875 24.8125 79.265625 28.4375
Q 76.859375 32.078125 72.703125 32.078125
z
M 72.703125 38.28125
Q 80.421875 38.28125 84.953125 32.90625
Q 89.5 27.546875 89.5 18.40625
Q 89.5 9.28125 84.9375 3.921875
Q 80.375 -1.421875 72.703125 -1.421875
Q 64.890625 -1.421875 60.34375 3.921875
Q 55.8125 9.28125 55.8125 18.40625
Q 55.8125 27.59375 60.375 32.9375
Q 64.9375 38.28125 72.703125 38.28125
z
M 22.3125 68.015625
Q 18.109375 68.015625 15.6875 64.375
Q 13.28125 60.75 13.28125 54.390625
Q 13.28125 47.953125 15.671875 44.328125
Q 18.0625 40.71875 22.3125 40.71875
Q 26.5625 40.71875 28.96875 44.328125
Q 31.390625 47.953125 31.390625 54.390625
Q 31.390625 60.6875 28.953125 64.34375
Q 26.515625 68.015625 22.3125 68.015625
z
M 66.40625 74.21875
L 74.21875 74.21875
L 28.609375 -1.421875
L 20.796875 -1.421875
z
M 22.3125 74.21875
Q 30.03125 74.21875 34.609375 68.875
Q 39.203125 63.53125 39.203125 54.390625
Q 39.203125 45.171875 34.640625 39.84375
Q 30.078125 34.515625 22.3125 34.515625
Q 14.546875 34.515625 10.03125 39.859375
Q 5.515625 45.21875 5.515625 54.390625
Q 5.515625 63.484375 10.046875 68.84375
Q 14.59375 74.21875 22.3125 74.21875
z
" id="DejaVuSans-37"/>
      <path d="M 18.3125 70.21875
L 18.3125 54.6875
L 36.8125 54.6875
L 36.8125 47.703125
L 18.3125 47.703125
L 18.3125 18.015625
Q 18.3125 11.328125 20.140625 9.421875
Q 21.96875 7.515625 27.59375 7.515625
L 36.8125 7.515625
L 36.8125 0
L 27.59375 0
Q 17.1875 0 13.234375 3.875
Q 9.28125 7.765625 9.28125 18.015625
L 9.28125 47.703125
L 2.6875 47.703125
L 2.6875 54.6875
L 9.28125 54.6875
L 9.28125 70.21875
z
" id="DejaVuSans-116"/>
      <path d="M 8.015625 75.875
L 15.828125 75.875
Q 23.140625 64.359375 26.78125 53.3125
Q 30.421875 42.28125 30.421875 31.390625
Q 30.421875 20.453125 26.78125 9.375
Q 23.140625 -1.703125 15.828125 -13.1875
L 8.015625 -13.1875
Q 14.5 -2 17.703125 9.0625
Q 20.90625 20.125 20.90625 31.390625
Q 20.90625 42.671875 17.703125 53.65625
Q 14.5 64.65625 8.015625 75.875
z
" id="DejaVuSans-41"/>
     </defs>
     <g transform="translate(18.612188 207.255469)rotate(-90)scale(0.1 -0.1)">
      <use xlink:href="#DejaVuSans-77"/>
      <use x="86.279297" xlink:href="#DejaVuSans-101"/>
      <use x="147.802734" xlink:href="#DejaVuSans-97"/>
      <use x="209.082031" xlink:href="#DejaVuSans-110"/>
      <use x="272.460938" xlink:href="#DejaVuSans-32"/>
      <use x="304.248047" xlink:href="#DejaVuSans-112"/>
      <use x="367.724609" xlink:href="#DejaVuSans-101"/>
      <use x="429.248047" xlink:href="#DejaVuSans-114"/>
      <use x="470.361328" xlink:href="#DejaVuSans-102"/>
      <use x="505.566406" xlink:href="#DejaVuSans-111"/>
      <use x="566.748047" xlink:href="#DejaVuSans-114"/>
      <use x="607.845703" xlink:href="#DejaVuSans-109"/>
      <use x="705.257812" xlink:href="#DejaVuSans-97"/>
      <use x="766.537109" xlink:href="#DejaVuSans-110"/>
      <use x="829.916016" xlink:href="#DejaVuSans-99"/>
      <use x="884.896484" xlink:href="#DejaVuSans-101"/>
      <use x="946.419922" xlink:href="#DejaVuSans-32"/>
      <use x="978.207031" xlink:href="#DejaVuSans-40"/>
      <use x="1017.220703" xlink:href="#DejaVuSans-37"/>
      <use x="1112.240234" xlink:href="#DejaVuSans-32"/>
      <use x="1144.027344" xlink:href="#DejaVuSans-99"/>
      <use x="1199.007812" xlink:href="#DejaVuSans-111"/>
      <use x="1260.189453" xlink:href="#DejaVuSans-114"/>
      <use x="1301.287109" xlink:href="#DejaVuSans-114"/>
      <use x="1342.369141" xlink:href="#DejaVuSans-101"/>
      <use x="1403.892578" xlink:href="#DejaVuSans-99"/>
      <use x="1458.873047" xlink:href="#DejaVuSans-116"/>
      <use x="1498.082031" xlink:href="#DejaVuSans-41"/>
     </g>
    </g>
   </g>
   <g id="patch_3">
    <path clip-path="url(#p81bb9a2c8d)" d="M 69.877965 824.24
L 110.122028 824.24
L 110.122028 126.65078
L 69.877965 126.65078
z
" style="fill:#008fd5;"/>
   </g>
   <g id="patch_4">
    <path clip-path="url(#p81bb9a2c8d)" d="M 120.183043 824.24
L 160.427106 824.24
L 160.427106 112.591206
L 120.183043 112.591206
z
" style="fill:#008fd5;"/>
   </g>
   <g id="patch_5">
    <path clip-path="url(#p81bb9a2c8d)" d="M 170.488121 824.24
L 210.732184 824.24
L 210.732184 95.719716
L 170.488121 95.719716
z
" style="fill:#008fd5;"/>
   </g>
   <g id="patch_6">
    <path clip-path="url(#p81bb9a2c8d)" d="M 220.7932 824.24
L 261.037262 824.24
L 261.037262 107.436028
L 220.7932 107.436028
z
" style="fill:#008fd5;"/>
   </g>
   <g id="patch_7">
    <path d="M 60.32 246.04
L 60.32 14.76
" style="fill:none;stroke:#000000;stroke-linecap:square;stroke-linejoin:miter;stroke-width:0.8;"/>
   </g>
   <g id="patch_8">
    <path d="M 60.32 246.04
L 270.595227 246.04
" style="fill:none;stroke:#000000;stroke-linecap:square;stroke-linejoin:miter;stroke-width:0.8;"/>
   </g>
   <g id="LineCollection_1">
    <path clip-path="url(#p81bb9a2c8d)" d="M 89.999996 137.903886
L 89.999996 115.397675
" style="fill:none;stroke:#000000;stroke-width:2;"/>
    <path clip-path="url(#p81bb9a2c8d)" d="M 140.305074 124.457089
L 140.305074 100.725322
" style="fill:none;stroke:#000000;stroke-width:2;"/>
    <path clip-path="url(#p81bb9a2c8d)" d="M 190.610153 107.1385
L 190.610153 84.300933
" style="fill:none;stroke:#000000;stroke-width:2;"/>
    <path clip-path="url(#p81bb9a2c8d)" d="M 240.915231 118.560131
L 240.915231 96.311926
" style="fill:none;stroke:#000000;stroke-width:2;"/>
   </g>
   <g id="line2d_27"/>
  </g>
  <g id="axes_2">
   <g id="patch_9">
    <path d="M 327.135227 246.04
L 537.410455 246.04
L 537.410455 14.76
L 327.135227 14.76
z
" style="fill:#ffffff;"/>
   </g>
   <g id="matplotlib.axis_3">
    <g id="xtick_5">
     <g id="line2d_28">
      <path clip-path="url(#pdc268bac09)" d="M 336.693192 246.04
L 336.693192 14.76
" style="fill:none;stroke:#b0b0b0;stroke-dasharray:0.8,1.32;stroke-dashoffset:0;stroke-width:0.8;"/>
     </g>
     <g id="line2d_29">
      <g>
       <use style="stroke:#000000;stroke-width:0.8;" x="336.693192" xlink:href="#m8143d74c78" y="246.04"/>
      </g>
     </g>
     <g id="text_16">
      <!-- 1 -->
      <g transform="translate(333.511942 260.638438)scale(0.1 -0.1)">
       <use xlink:href="#DejaVuSans-49"/>
      </g>
     </g>
    </g>
    <g id="xtick_6">
     <g id="line2d_30">
      <path clip-path="url(#pdc268bac09)" d="M 400.412958 246.04
L 400.412958 14.76
" style="fill:none;stroke:#b0b0b0;stroke-dasharray:0.8,1.32;stroke-dashoffset:0;stroke-width:0.8;"/>
     </g>
     <g id="line2d_31">
      <g>
       <use style="stroke:#000000;stroke-width:0.8;" x="400.412958" xlink:href="#m8143d74c78" y="246.04"/>
      </g>
     </g>
     <g id="text_17">
      <!-- 2 -->
      <g transform="translate(397.231708 260.638438)scale(0.1 -0.1)">
       <use xlink:href="#DejaVuSans-50"/>
      </g>
     </g>
    </g>
    <g id="xtick_7">
     <g id="line2d_32">
      <path clip-path="url(#pdc268bac09)" d="M 464.132724 246.04
L 464.132724 14.76
" style="fill:none;stroke:#b0b0b0;stroke-dasharray:0.8,1.32;stroke-dashoffset:0;stroke-width:0.8;"/>
     </g>
     <g id="line2d_33">
      <g>
       <use style="stroke:#000000;stroke-width:0.8;" x="464.132724" xlink:href="#m8143d74c78" y="246.04"/>
      </g>
     </g>
     <g id="text_18">
      <!-- 3 -->
      <g transform="translate(460.951474 260.638438)scale(0.1 -0.1)">
       <use xlink:href="#DejaVuSans-51"/>
      </g>
     </g>
    </g>
    <g id="xtick_8">
     <g id="line2d_34">
      <path clip-path="url(#pdc268bac09)" d="M 527.85249 246.04
L 527.85249 14.76
" style="fill:none;stroke:#b0b0b0;stroke-dasharray:0.8,1.32;stroke-dashoffset:0;stroke-width:0.8;"/>
     </g>
     <g id="line2d_35">
      <g>
       <use style="stroke:#000000;stroke-width:0.8;" x="527.85249" xlink:href="#m8143d74c78" y="246.04"/>
      </g>
     </g>
     <g id="text_19">
      <!-- 4 -->
      <g transform="translate(524.67124 260.638438)scale(0.1 -0.1)">
       <use xlink:href="#DejaVuSans-52"/>
      </g>
     </g>
    </g>
    <g id="text_20">
     <!-- Task order -->
     <g transform="translate(405.657997 274.316562)scale(0.1 -0.1)">
      <use xlink:href="#DejaVuSans-84"/>
      <use x="60.833984" xlink:href="#DejaVuSans-97"/>
      <use x="122.113281" xlink:href="#DejaVuSans-115"/>
      <use x="174.212891" xlink:href="#DejaVuSans-107"/>
      <use x="232.123047" xlink:href="#DejaVuSans-32"/>
      <use x="263.910156" xlink:href="#DejaVuSans-111"/>
      <use x="325.091797" xlink:href="#DejaVuSans-114"/>
      <use x="366.189453" xlink:href="#DejaVuSans-100"/>
      <use x="429.666016" xlink:href="#DejaVuSans-101"/>
      <use x="491.189453" xlink:href="#DejaVuSans-114"/>
     </g>
    </g>
   </g>
   <g id="matplotlib.axis_4">
    <g id="ytick_10">
     <g id="line2d_36">
      <path clip-path="url(#pdc268bac09)" d="M 327.135227 240.855623
L 537.410455 240.855623
" style="fill:none;stroke:#b0b0b0;stroke-dasharray:0.8,1.32;stroke-dashoffset:0;stroke-width:0.8;"/>
     </g>
     <g id="line2d_37">
      <g>
       <use style="stroke:#000000;stroke-width:0.8;" x="327.135227" xlink:href="#m996c2c0bd7" y="240.855623"/>
      </g>
     </g>
     <g id="text_21">
      <!-- 0.45 -->
      <g transform="translate(297.869602 244.654842)scale(0.1 -0.1)">
       <use xlink:href="#DejaVuSans-48"/>
       <use x="63.623047" xlink:href="#DejaVuSans-46"/>
       <use x="95.410156" xlink:href="#DejaVuSans-52"/>
       <use x="159.033203" xlink:href="#DejaVuSans-53"/>
      </g>
     </g>
    </g>
    <g id="ytick_11">
     <g id="line2d_38">
      <path clip-path="url(#pdc268bac09)" d="M 327.135227 206.937279
L 537.410455 206.937279
" style="fill:none;stroke:#b0b0b0;stroke-dasharray:0.8,1.32;stroke-dashoffset:0;stroke-width:0.8;"/>
     </g>
     <g id="line2d_39">
      <g>
       <use style="stroke:#000000;stroke-width:0.8;" x="327.135227" xlink:href="#m996c2c0bd7" y="206.937279"/>
      </g>
     </g>
     <g id="text_22">
      <!-- 0.50 -->
      <g transform="translate(297.869602 210.736498)scale(0.1 -0.1)">
       <use xlink:href="#DejaVuSans-48"/>
       <use x="63.623047" xlink:href="#DejaVuSans-46"/>
       <use x="95.410156" xlink:href="#DejaVuSans-53"/>
       <use x="159.033203" xlink:href="#DejaVuSans-48"/>
      </g>
     </g>
    </g>
    <g id="ytick_12">
     <g id="line2d_40">
      <path clip-path="url(#pdc268bac09)" d="M 327.135227 173.018935
L 537.410455 173.018935
" style="fill:none;stroke:#b0b0b0;stroke-dasharray:0.8,1.32;stroke-dashoffset:0;stroke-width:0.8;"/>
     </g>
     <g id="line2d_41">
      <g>
       <use style="stroke:#000000;stroke-width:0.8;" x="327.135227" xlink:href="#m996c2c0bd7" y="173.018935"/>
      </g>
     </g>
     <g id="text_23">
      <!-- 0.55 -->
      <g transform="translate(297.869602 176.818154)scale(0.1 -0.1)">
       <use xlink:href="#DejaVuSans-48"/>
       <use x="63.623047" xlink:href="#DejaVuSans-46"/>
       <use x="95.410156" xlink:href="#DejaVuSans-53"/>
       <use x="159.033203" xlink:href="#DejaVuSans-53"/>
      </g>
     </g>
    </g>
    <g id="ytick_13">
     <g id="line2d_42">
      <path clip-path="url(#pdc268bac09)" d="M 327.135227 139.100592
L 537.410455 139.100592
" style="fill:none;stroke:#b0b0b0;stroke-dasharray:0.8,1.32;stroke-dashoffset:0;stroke-width:0.8;"/>
     </g>
     <g id="line2d_43">
      <g>
       <use style="stroke:#000000;stroke-width:0.8;" x="327.135227" xlink:href="#m996c2c0bd7" y="139.100592"/>
      </g>
     </g>
     <g id="text_24">
      <!-- 0.60 -->
      <g transform="translate(297.869602 142.89981)scale(0.1 -0.1)">
       <use xlink:href="#DejaVuSans-48"/>
       <use x="63.623047" xlink:href="#DejaVuSans-46"/>
       <use x="95.410156" xlink:href="#DejaVuSans-54"/>
       <use x="159.033203" xlink:href="#DejaVuSans-48"/>
      </g>
     </g>
    </g>
    <g id="ytick_14">
     <g id="line2d_44">
      <path clip-path="url(#pdc268bac09)" d="M 327.135227 105.182248
L 537.410455 105.182248
" style="fill:none;stroke:#b0b0b0;stroke-dasharray:0.8,1.32;stroke-dashoffset:0;stroke-width:0.8;"/>
     </g>
     <g id="line2d_45">
      <g>
       <use style="stroke:#000000;stroke-width:0.8;" x="327.135227" xlink:href="#m996c2c0bd7" y="105.182248"/>
      </g>
     </g>
     <g id="text_25">
      <!-- 0.65 -->
      <g transform="translate(297.869602 108.981467)scale(0.1 -0.1)">
       <use xlink:href="#DejaVuSans-48"/>
       <use x="63.623047" xlink:href="#DejaVuSans-46"/>
       <use x="95.410156" xlink:href="#DejaVuSans-54"/>
       <use x="159.033203" xlink:href="#DejaVuSans-53"/>
      </g>
     </g>
    </g>
    <g id="ytick_15">
     <g id="line2d_46">
      <path clip-path="url(#pdc268bac09)" d="M 327.135227 71.263904
L 537.410455 71.263904
" style="fill:none;stroke:#b0b0b0;stroke-dasharray:0.8,1.32;stroke-dashoffset:0;stroke-width:0.8;"/>
     </g>
     <g id="line2d_47">
      <g>
       <use style="stroke:#000000;stroke-width:0.8;" x="327.135227" xlink:href="#m996c2c0bd7" y="71.263904"/>
      </g>
     </g>
     <g id="text_26">
      <!-- 0.70 -->
      <g transform="translate(297.869602 75.063123)scale(0.1 -0.1)">
       <use xlink:href="#DejaVuSans-48"/>
       <use x="63.623047" xlink:href="#DejaVuSans-46"/>
       <use x="95.410156" xlink:href="#DejaVuSans-55"/>
       <use x="159.033203" xlink:href="#DejaVuSans-48"/>
      </g>
     </g>
    </g>
    <g id="ytick_16">
     <g id="line2d_48">
      <path clip-path="url(#pdc268bac09)" d="M 327.135227 37.34556
L 537.410455 37.34556
" style="fill:none;stroke:#b0b0b0;stroke-dasharray:0.8,1.32;stroke-dashoffset:0;stroke-width:0.8;"/>
     </g>
     <g id="line2d_49">
      <g>
       <use style="stroke:#000000;stroke-width:0.8;" x="327.135227" xlink:href="#m996c2c0bd7" y="37.34556"/>
      </g>
     </g>
     <g id="text_27">
      <!-- 0.75 -->
      <g transform="translate(297.869602 41.144779)scale(0.1 -0.1)">
       <use xlink:href="#DejaVuSans-48"/>
       <use x="63.623047" xlink:href="#DejaVuSans-46"/>
       <use x="95.410156" xlink:href="#DejaVuSans-55"/>
       <use x="159.033203" xlink:href="#DejaVuSans-53"/>
      </g>
     </g>
    </g>
    <g id="text_28">
     <!-- Mean performance (% correct) -->
     <g transform="translate(291.789915 207.255469)rotate(-90)scale(0.1 -0.1)">
      <use xlink:href="#DejaVuSans-77"/>
      <use x="86.279297" xlink:href="#DejaVuSans-101"/>
      <use x="147.802734" xlink:href="#DejaVuSans-97"/>
      <use x="209.082031" xlink:href="#DejaVuSans-110"/>
      <use x="272.460938" xlink:href="#DejaVuSans-32"/>
      <use x="304.248047" xlink:href="#DejaVuSans-112"/>
      <use x="367.724609" xlink:href="#DejaVuSans-101"/>
      <use x="429.248047" xlink:href="#DejaVuSans-114"/>
      <use x="470.361328" xlink:href="#DejaVuSans-102"/>
      <use x="505.566406" xlink:href="#DejaVuSans-111"/>
      <use x="566.748047" xlink:href="#DejaVuSans-114"/>
      <use x="607.845703" xlink:href="#DejaVuSans-109"/>
      <use x="705.257812" xlink:href="#DejaVuSans-97"/>
      <use x="766.537109" xlink:href="#DejaVuSans-110"/>
      <use x="829.916016" xlink:href="#DejaVuSans-99"/>
      <use x="884.896484" xlink:href="#DejaVuSans-101"/>
      <use x="946.419922" xlink:href="#DejaVuSans-32"/>
      <use x="978.207031" xlink:href="#DejaVuSans-40"/>
      <use x="1017.220703" xlink:href="#DejaVuSans-37"/>
      <use x="1112.240234" xlink:href="#DejaVuSans-32"/>
      <use x="1144.027344" xlink:href="#DejaVuSans-99"/>
      <use x="1199.007812" xlink:href="#DejaVuSans-111"/>
      <use x="1260.189453" xlink:href="#DejaVuSans-114"/>
      <use x="1301.287109" xlink:href="#DejaVuSans-114"/>
      <use x="1342.369141" xlink:href="#DejaVuSans-101"/>
      <use x="1403.892578" xlink:href="#DejaVuSans-99"/>
      <use x="1458.873047" xlink:href="#DejaVuSans-116"/>
      <use x="1498.082031" xlink:href="#DejaVuSans-41"/>
     </g>
    </g>
   </g>
   <g id="LineCollection_2">
    <path clip-path="url(#pdc268bac09)" d="M 336.693192 89.919412
L 336.693192 67.344455
" style="fill:none;stroke:#43799d;stroke-opacity:0.7;stroke-width:2;"/>
    <path clip-path="url(#pdc268bac09)" d="M 400.412958 45.359788
L 400.412958 25.272727
" style="fill:none;stroke:#43799d;stroke-opacity:0.7;stroke-width:2;"/>
    <path clip-path="url(#pdc268bac09)" d="M 464.132724 60.097003
L 464.132724 37.206346
" style="fill:none;stroke:#43799d;stroke-opacity:0.7;stroke-width:2;"/>
    <path clip-path="url(#pdc268bac09)" d="M 527.85249 58.369702
L 527.85249 31.068524
" style="fill:none;stroke:#43799d;stroke-opacity:0.7;stroke-width:2;"/>
   </g>
   <g id="LineCollection_3">
    <path clip-path="url(#pdc268bac09)" d="M 336.693192 109.441325
L 336.693192 85.345857
" style="fill:none;stroke:#cc5b46;stroke-opacity:0.7;stroke-width:2;"/>
    <path clip-path="url(#pdc268bac09)" d="M 400.412958 97.886256
L 400.412958 67.899845
" style="fill:none;stroke:#cc5b46;stroke-opacity:0.7;stroke-width:2;"/>
    <path clip-path="url(#pdc268bac09)" d="M 464.132724 115.936562
L 464.132724 89.489631
" style="fill:none;stroke:#cc5b46;stroke-opacity:0.7;stroke-width:2;"/>
    <path clip-path="url(#pdc268bac09)" d="M 527.85249 117.328382
L 527.85249 90.278524
" style="fill:none;stroke:#cc5b46;stroke-opacity:0.7;stroke-width:2;"/>
   </g>
   <g id="LineCollection_4">
    <path clip-path="url(#pdc268bac09)" d="M 336.693192 174.252273
L 336.693192 148.536404
" style="fill:none;stroke:#ffbb00;stroke-opacity:0.7;stroke-width:2;"/>
    <path clip-path="url(#pdc268bac09)" d="M 400.412958 169.183776
L 400.412958 146.261079
" style="fill:none;stroke:#ffbb00;stroke-opacity:0.7;stroke-width:2;"/>
    <path clip-path="url(#pdc268bac09)" d="M 464.132724 151.418616
L 464.132724 130.132527
" style="fill:none;stroke:#ffbb00;stroke-opacity:0.7;stroke-width:2;"/>
    <path clip-path="url(#pdc268bac09)" d="M 527.85249 156.777551
L 527.85249 136.170738
" style="fill:none;stroke:#ffbb00;stroke-opacity:0.7;stroke-width:2;"/>
   </g>
   <g id="LineCollection_5">
    <path clip-path="url(#pdc268bac09)" d="M 336.693192 235.527273
L 336.693192 215.557283
" style="fill:none;stroke:#71bc78;stroke-opacity:0.7;stroke-width:2;"/>
    <path clip-path="url(#pdc268bac09)" d="M 400.412958 222.758465
L 400.412958 201.480032
" style="fill:none;stroke:#71bc78;stroke-opacity:0.7;stroke-width:2;"/>
    <path clip-path="url(#pdc268bac09)" d="M 464.132724 220.476652
L 464.132724 197.388299
" style="fill:none;stroke:#71bc78;stroke-opacity:0.7;stroke-width:2;"/>
    <path clip-path="url(#pdc268bac09)" d="M 527.85249 199.122612
L 527.85249 178.993072
" style="fill:none;stroke:#71bc78;stroke-opacity:0.7;stroke-width:2;"/>
   </g>
   <g id="line2d_50">
    <defs>
     <path d="M 5 0
L -5 -0
" id="m9fd70256fe" style="stroke:#43799d;stroke-opacity:0.7;"/>
    </defs>
    <g clip-path="url(#pdc268bac09)">
     <use style="fill:#43799d;fill-opacity:0.7;stroke:#43799d;stroke-opacity:0.7;" x="336.693192" xlink:href="#m9fd70256fe" y="89.919412"/>
     <use style="fill:#43799d;fill-opacity:0.7;stroke:#43799d;stroke-opacity:0.7;" x="400.412958" xlink:href="#m9fd70256fe" y="45.359788"/>
     <use style="fill:#43799d;fill-opacity:0.7;stroke:#43799d;stroke-opacity:0.7;" x="464.132724" xlink:href="#m9fd70256fe" y="60.097003"/>
     <use style="fill:#43799d;fill-opacity:0.7;stroke:#43799d;stroke-opacity:0.7;" x="527.85249" xlink:href="#m9fd70256fe" y="58.369702"/>
    </g>
   </g>
   <g id="line2d_51">
    <g clip-path="url(#pdc268bac09)">
     <use style="fill:#43799d;fill-opacity:0.7;stroke:#43799d;stroke-opacity:0.7;" x="336.693192" xlink:href="#m9fd70256fe" y="67.344455"/>
     <use style="fill:#43799d;fill-opacity:0.7;stroke:#43799d;stroke-opacity:0.7;" x="400.412958" xlink:href="#m9fd70256fe" y="25.272727"/>
     <use style="fill:#43799d;fill-opacity:0.7;stroke:#43799d;stroke-opacity:0.7;" x="464.132724" xlink:href="#m9fd70256fe" y="37.206346"/>
     <use style="fill:#43799d;fill-opacity:0.7;stroke:#43799d;stroke-opacity:0.7;" x="527.85249" xlink:href="#m9fd70256fe" y="31.068524"/>
    </g>
   </g>
   <g id="line2d_52">
    <defs>
     <path d="M 5 0
L -5 -0
" id="m87ae36ad7f" style="stroke:#cc5b46;stroke-opacity:0.7;"/>
    </defs>
    <g clip-path="url(#pdc268bac09)">
     <use style="fill:#cc5b46;fill-opacity:0.7;stroke:#cc5b46;stroke-opacity:0.7;" x="336.693192" xlink:href="#m87ae36ad7f" y="109.441325"/>
     <use style="fill:#cc5b46;fill-opacity:0.7;stroke:#cc5b46;stroke-opacity:0.7;" x="400.412958" xlink:href="#m87ae36ad7f" y="97.886256"/>
     <use style="fill:#cc5b46;fill-opacity:0.7;stroke:#cc5b46;stroke-opacity:0.7;" x="464.132724" xlink:href="#m87ae36ad7f" y="115.936562"/>
     <use style="fill:#cc5b46;fill-opacity:0.7;stroke:#cc5b46;stroke-opacity:0.7;" x="527.85249" xlink:href="#m87ae36ad7f" y="117.328382"/>
    </g>
   </g>
   <g id="line2d_53">
    <g clip-path="url(#pdc268bac09)">
     <use style="fill:#cc5b46;fill-opacity:0.7;stroke:#cc5b46;stroke-opacity:0.7;" x="336.693192" xlink:href="#m87ae36ad7f" y="85.345857"/>
     <use style="fill:#cc5b46;fill-opacity:0.7;stroke:#cc5b46;stroke-opacity:0.7;" x="400.412958" xlink:href="#m87ae36ad7f" y="67.899845"/>
     <use style="fill:#cc5b46;fill-opacity:0.7;stroke:#cc5b46;stroke-opacity:0.7;" x="464.132724" xlink:href="#m87ae36ad7f" y="89.489631"/>
     <use style="fill:#cc5b46;fill-opacity:0.7;stroke:#cc5b46;stroke-opacity:0.7;" x="527.85249" xlink:href="#m87ae36ad7f" y="90.278524"/>
    </g>
   </g>
   <g id="line2d_54">
    <defs>
     <path d="M 5 0
L -5 -0
" id="mb0edbbaa9c" style="stroke:#ffbb00;stroke-opacity:0.7;"/>
    </defs>
    <g clip-path="url(#pdc268bac09)">
     <use style="fill:#ffbb00;fill-opacity:0.7;stroke:#ffbb00;stroke-opacity:0.7;" x="336.693192" xlink:href="#mb0edbbaa9c" y="174.252273"/>
     <use style="fill:#ffbb00;fill-opacity:0.7;stroke:#ffbb00;stroke-opacity:0.7;" x="400.412958" xlink:href="#mb0edbbaa9c" y="169.183776"/>
     <use style="fill:#ffbb00;fill-opacity:0.7;stroke:#ffbb00;stroke-opacity:0.7;" x="464.132724" xlink:href="#mb0edbbaa9c" y="151.418616"/>
     <use style="fill:#ffbb00;fill-opacity:0.7;stroke:#ffbb00;stroke-opacity:0.7;" x="527.85249" xlink:href="#mb0edbbaa9c" y="156.777551"/>
    </g>
   </g>
   <g id="line2d_55">
    <g clip-path="url(#pdc268bac09)">
     <use style="fill:#ffbb00;fill-opacity:0.7;stroke:#ffbb00;stroke-opacity:0.7;" x="336.693192" xlink:href="#mb0edbbaa9c" y="148.536404"/>
     <use style="fill:#ffbb00;fill-opacity:0.7;stroke:#ffbb00;stroke-opacity:0.7;" x="400.412958" xlink:href="#mb0edbbaa9c" y="146.261079"/>
     <use style="fill:#ffbb00;fill-opacity:0.7;stroke:#ffbb00;stroke-opacity:0.7;" x="464.132724" xlink:href="#mb0edbbaa9c" y="130.132527"/>
     <use style="fill:#ffbb00;fill-opacity:0.7;stroke:#ffbb00;stroke-opacity:0.7;" x="527.85249" xlink:href="#mb0edbbaa9c" y="136.170738"/>
    </g>
   </g>
   <g id="line2d_56">
    <defs>
     <path d="M 5 0
L -5 -0
" id="mf834ab6f00" style="stroke:#71bc78;stroke-opacity:0.7;"/>
    </defs>
    <g clip-path="url(#pdc268bac09)">
     <use style="fill:#71bc78;fill-opacity:0.7;stroke:#71bc78;stroke-opacity:0.7;" x="336.693192" xlink:href="#mf834ab6f00" y="235.527273"/>
     <use style="fill:#71bc78;fill-opacity:0.7;stroke:#71bc78;stroke-opacity:0.7;" x="400.412958" xlink:href="#mf834ab6f00" y="222.758465"/>
     <use style="fill:#71bc78;fill-opacity:0.7;stroke:#71bc78;stroke-opacity:0.7;" x="464.132724" xlink:href="#mf834ab6f00" y="220.476652"/>
     <use style="fill:#71bc78;fill-opacity:0.7;stroke:#71bc78;stroke-opacity:0.7;" x="527.85249" xlink:href="#mf834ab6f00" y="199.122612"/>
    </g>
   </g>
   <g id="line2d_57">
    <g clip-path="url(#pdc268bac09)">
     <use style="fill:#71bc78;fill-opacity:0.7;stroke:#71bc78;stroke-opacity:0.7;" x="336.693192" xlink:href="#mf834ab6f00" y="215.557283"/>
     <use style="fill:#71bc78;fill-opacity:0.7;stroke:#71bc78;stroke-opacity:0.7;" x="400.412958" xlink:href="#mf834ab6f00" y="201.480032"/>
     <use style="fill:#71bc78;fill-opacity:0.7;stroke:#71bc78;stroke-opacity:0.7;" x="464.132724" xlink:href="#mf834ab6f00" y="197.388299"/>
     <use style="fill:#71bc78;fill-opacity:0.7;stroke:#71bc78;stroke-opacity:0.7;" x="527.85249" xlink:href="#mf834ab6f00" y="178.993072"/>
    </g>
   </g>
   <g id="line2d_58">
    <path clip-path="url(#pdc268bac09)" d="M 336.693192 78.631934
L 400.412958 35.316258
L 464.132724 48.651675
L 527.85249 44.719113
" style="fill:none;stroke:#43799d;stroke-linecap:square;stroke-opacity:0.7;stroke-width:2;"/>
    <defs>
     <path d="M 0 2.5
C 0.663008 2.5 1.29895 2.236584 1.767767 1.767767
C 2.236584 1.29895 2.5 0.663008 2.5 0
C 2.5 -0.663008 2.236584 -1.29895 1.767767 -1.767767
C 1.29895 -2.236584 0.663008 -2.5 0 -2.5
C -0.663008 -2.5 -1.29895 -2.236584 -1.767767 -1.767767
C -2.236584 -1.29895 -2.5 -0.663008 -2.5 0
C -2.5 0.663008 -2.236584 1.29895 -1.767767 1.767767
C -1.29895 2.236584 -0.663008 2.5 0 2.5
z
" id="mde4073e7ac" style="stroke:#43799d;stroke-opacity:0.7;"/>
    </defs>
    <g clip-path="url(#pdc268bac09)">
     <use style="fill:#43799d;fill-opacity:0.7;stroke:#43799d;stroke-opacity:0.7;" x="336.693192" xlink:href="#mde4073e7ac" y="78.631934"/>
     <use style="fill:#43799d;fill-opacity:0.7;stroke:#43799d;stroke-opacity:0.7;" x="400.412958" xlink:href="#mde4073e7ac" y="35.316258"/>
     <use style="fill:#43799d;fill-opacity:0.7;stroke:#43799d;stroke-opacity:0.7;" x="464.132724" xlink:href="#mde4073e7ac" y="48.651675"/>
     <use style="fill:#43799d;fill-opacity:0.7;stroke:#43799d;stroke-opacity:0.7;" x="527.85249" xlink:href="#mde4073e7ac" y="44.719113"/>
    </g>
   </g>
   <g id="line2d_59">
    <path clip-path="url(#pdc268bac09)" d="M 336.693192 97.393591
L 400.412958 82.89305
L 464.132724 102.713096
L 527.85249 103.803453
" style="fill:none;stroke:#cc5b46;stroke-linecap:square;stroke-opacity:0.7;stroke-width:2;"/>
    <defs>
     <path d="M 0 -2.5
L -2.5 2.5
L 2.5 2.5
z
" id="m0e2b0e8cea" style="stroke:#cc5b46;stroke-linejoin:miter;stroke-opacity:0.7;"/>
    </defs>
    <g clip-path="url(#pdc268bac09)">
     <use style="fill:#cc5b46;fill-opacity:0.7;stroke:#cc5b46;stroke-linejoin:miter;stroke-opacity:0.7;" x="336.693192" xlink:href="#m0e2b0e8cea" y="97.393591"/>
     <use style="fill:#cc5b46;fill-opacity:0.7;stroke:#cc5b46;stroke-linejoin:miter;stroke-opacity:0.7;" x="400.412958" xlink:href="#m0e2b0e8cea" y="82.89305"/>
     <use style="fill:#cc5b46;fill-opacity:0.7;stroke:#cc5b46;stroke-linejoin:miter;stroke-opacity:0.7;" x="464.132724" xlink:href="#m0e2b0e8cea" y="102.713096"/>
     <use style="fill:#cc5b46;fill-opacity:0.7;stroke:#cc5b46;stroke-linejoin:miter;stroke-opacity:0.7;" x="527.85249" xlink:href="#m0e2b0e8cea" y="103.803453"/>
    </g>
   </g>
   <g id="line2d_60">
    <path clip-path="url(#pdc268bac09)" d="M 336.693192 161.394339
L 400.412958 157.722427
L 464.132724 140.775571
L 527.85249 146.474145
" style="fill:none;stroke:#ffbb00;stroke-linecap:square;stroke-opacity:0.7;stroke-width:2;"/>
    <defs>
     <path d="M -0 2.5
L 2.5 -2.5
L -2.5 -2.5
z
" id="mfdbe7297d5" style="stroke:#ffbb00;stroke-linejoin:miter;stroke-opacity:0.7;"/>
    </defs>
    <g clip-path="url(#pdc268bac09)">
     <use style="fill:#ffbb00;fill-opacity:0.7;stroke:#ffbb00;stroke-linejoin:miter;stroke-opacity:0.7;" x="336.693192" xlink:href="#mfdbe7297d5" y="161.394339"/>
     <use style="fill:#ffbb00;fill-opacity:0.7;stroke:#ffbb00;stroke-linejoin:miter;stroke-opacity:0.7;" x="400.412958" xlink:href="#mfdbe7297d5" y="157.722427"/>
     <use style="fill:#ffbb00;fill-opacity:0.7;stroke:#ffbb00;stroke-linejoin:miter;stroke-opacity:0.7;" x="464.132724" xlink:href="#mfdbe7297d5" y="140.775571"/>
     <use style="fill:#ffbb00;fill-opacity:0.7;stroke:#ffbb00;stroke-linejoin:miter;stroke-opacity:0.7;" x="527.85249" xlink:href="#mfdbe7297d5" y="146.474145"/>
    </g>
   </g>
   <g id="line2d_61">
    <path clip-path="url(#pdc268bac09)" d="M 336.693192 225.542278
L 400.412958 212.119248
L 464.132724 208.932476
L 527.85249 189.057842
" style="fill:none;stroke:#71bc78;stroke-linecap:square;stroke-opacity:0.7;stroke-width:2;"/>
    <defs>
     <path d="M -0 3.535534
L 3.535534 0
L 0 -3.535534
L -3.535534 -0
z
" id="m6e335daab7" style="stroke:#71bc78;stroke-linejoin:miter;stroke-opacity:0.7;"/>
    </defs>
    <g clip-path="url(#pdc268bac09)">
     <use style="fill:#71bc78;fill-opacity:0.7;stroke:#71bc78;stroke-linejoin:miter;stroke-opacity:0.7;" x="336.693192" xlink:href="#m6e335daab7" y="225.542278"/>
     <use style="fill:#71bc78;fill-opacity:0.7;stroke:#71bc78;stroke-linejoin:miter;stroke-opacity:0.7;" x="400.412958" xlink:href="#m6e335daab7" y="212.119248"/>
     <use style="fill:#71bc78;fill-opacity:0.7;stroke:#71bc78;stroke-linejoin:miter;stroke-opacity:0.7;" x="464.132724" xlink:href="#m6e335daab7" y="208.932476"/>
     <use style="fill:#71bc78;fill-opacity:0.7;stroke:#71bc78;stroke-linejoin:miter;stroke-opacity:0.7;" x="527.85249" xlink:href="#m6e335daab7" y="189.057842"/>
    </g>
   </g>
   <g id="patch_10">
    <path d="M 327.135227 246.04
L 327.135227 14.76
" style="fill:none;stroke:#000000;stroke-linecap:square;stroke-linejoin:miter;stroke-width:0.8;"/>
   </g>
   <g id="patch_11">
    <path d="M 327.135227 246.04
L 537.410455 246.04
" style="fill:none;stroke:#000000;stroke-linecap:square;stroke-linejoin:miter;stroke-width:0.8;"/>
   </g>
   <g id="legend_1">
    <g id="patch_12">
     <path d="M 549.924216 76.4725
L 598.936716 76.4725
Q 600.936716 76.4725 600.936716 74.4725
L 600.936716 16.76
Q 600.936716 14.76 598.936716 14.76
L 549.924216 14.76
Q 547.924216 14.76 547.924216 16.76
L 547.924216 74.4725
Q 547.924216 76.4725 549.924216 76.4725
z
" style="fill:#ffffff;opacity:0.8;stroke:#cccccc;stroke-linejoin:miter;"/>
    </g>
    <g id="LineCollection_6">
     <path d="M 561.924216 27.858438
L 561.924216 17.858438
" style="fill:none;stroke:#43799d;stroke-opacity:0.7;stroke-width:2;"/>
    </g>
    <g id="line2d_62">
     <g>
      <use style="fill:#43799d;fill-opacity:0.7;stroke:#43799d;stroke-opacity:0.7;" x="561.924216" xlink:href="#m9fd70256fe" y="27.858438"/>
     </g>
    </g>
    <g id="line2d_63">
     <g>
      <use style="fill:#43799d;fill-opacity:0.7;stroke:#43799d;stroke-opacity:0.7;" x="561.924216" xlink:href="#m9fd70256fe" y="17.858438"/>
     </g>
    </g>
    <g id="line2d_64">
     <path d="M 551.924216 22.858438
L 571.924216 22.858438
" style="fill:none;stroke:#43799d;stroke-linecap:square;stroke-opacity:0.7;stroke-width:2;"/>
    </g>
    <g id="line2d_65">
     <g>
      <use style="fill:#43799d;fill-opacity:0.7;stroke:#43799d;stroke-opacity:0.7;" x="561.924216" xlink:href="#mde4073e7ac" y="22.858438"/>
     </g>
    </g>
    <g id="text_29">
     <!-- 1D -->
     <defs>
      <path d="M 19.671875 64.796875
L 19.671875 8.109375
L 31.59375 8.109375
Q 46.6875 8.109375 53.6875 14.9375
Q 60.6875 21.78125 60.6875 36.53125
Q 60.6875 51.171875 53.6875 57.984375
Q 46.6875 64.796875 31.59375 64.796875
z
M 9.8125 72.90625
L 30.078125 72.90625
Q 51.265625 72.90625 61.171875 64.09375
Q 71.09375 55.28125 71.09375 36.53125
Q 71.09375 17.671875 61.125 8.828125
Q 51.171875 0 30.078125 0
L 9.8125 0
z
" id="DejaVuSans-68"/>
     </defs>
     <g transform="translate(579.924216 26.358438)scale(0.1 -0.1)">
      <use xlink:href="#DejaVuSans-49"/>
      <use x="63.623047" xlink:href="#DejaVuSans-68"/>
     </g>
    </g>
    <g id="LineCollection_7">
     <path d="M 561.924216 42.536563
L 561.924216 32.536563
" style="fill:none;stroke:#cc5b46;stroke-opacity:0.7;stroke-width:2;"/>
    </g>
    <g id="line2d_66">
     <g>
      <use style="fill:#cc5b46;fill-opacity:0.7;stroke:#cc5b46;stroke-opacity:0.7;" x="561.924216" xlink:href="#m87ae36ad7f" y="42.536563"/>
     </g>
    </g>
    <g id="line2d_67">
     <g>
      <use style="fill:#cc5b46;fill-opacity:0.7;stroke:#cc5b46;stroke-opacity:0.7;" x="561.924216" xlink:href="#m87ae36ad7f" y="32.536563"/>
     </g>
    </g>
    <g id="line2d_68">
     <path d="M 551.924216 37.536563
L 571.924216 37.536563
" style="fill:none;stroke:#cc5b46;stroke-linecap:square;stroke-opacity:0.7;stroke-width:2;"/>
    </g>
    <g id="line2d_69">
     <g>
      <use style="fill:#cc5b46;fill-opacity:0.7;stroke:#cc5b46;stroke-linejoin:miter;stroke-opacity:0.7;" x="561.924216" xlink:href="#m0e2b0e8cea" y="37.536563"/>
     </g>
    </g>
    <g id="text_30">
     <!-- I1D -->
     <defs>
      <path d="M 9.8125 72.90625
L 19.671875 72.90625
L 19.671875 0
L 9.8125 0
z
" id="DejaVuSans-73"/>
     </defs>
     <g transform="translate(579.924216 41.036563)scale(0.1 -0.1)">
      <use xlink:href="#DejaVuSans-73"/>
      <use x="29.492188" xlink:href="#DejaVuSans-49"/>
      <use x="93.115234" xlink:href="#DejaVuSans-68"/>
     </g>
    </g>
    <g id="LineCollection_8">
     <path d="M 561.924216 57.214688
L 561.924216 47.214688
" style="fill:none;stroke:#ffbb00;stroke-opacity:0.7;stroke-width:2;"/>
    </g>
    <g id="line2d_70">
     <g>
      <use style="fill:#ffbb00;fill-opacity:0.7;stroke:#ffbb00;stroke-opacity:0.7;" x="561.924216" xlink:href="#mb0edbbaa9c" y="57.214688"/>
     </g>
    </g>
    <g id="line2d_71">
     <g>
      <use style="fill:#ffbb00;fill-opacity:0.7;stroke:#ffbb00;stroke-opacity:0.7;" x="561.924216" xlink:href="#mb0edbbaa9c" y="47.214688"/>
     </g>
    </g>
    <g id="line2d_72">
     <path d="M 551.924216 52.214688
L 571.924216 52.214688
" style="fill:none;stroke:#ffbb00;stroke-linecap:square;stroke-opacity:0.7;stroke-width:2;"/>
    </g>
    <g id="line2d_73">
     <g>
      <use style="fill:#ffbb00;fill-opacity:0.7;stroke:#ffbb00;stroke-linejoin:miter;stroke-opacity:0.7;" x="561.924216" xlink:href="#mfdbe7297d5" y="52.214688"/>
     </g>
    </g>
    <g id="text_31">
     <!-- 2D -->
     <g transform="translate(579.924216 55.714688)scale(0.1 -0.1)">
      <use xlink:href="#DejaVuSans-50"/>
      <use x="63.623047" xlink:href="#DejaVuSans-68"/>
     </g>
    </g>
    <g id="LineCollection_9">
     <path d="M 561.924216 71.892813
L 561.924216 61.892813
" style="fill:none;stroke:#71bc78;stroke-opacity:0.7;stroke-width:2;"/>
    </g>
    <g id="line2d_74">
     <g>
      <use style="fill:#71bc78;fill-opacity:0.7;stroke:#71bc78;stroke-opacity:0.7;" x="561.924216" xlink:href="#mf834ab6f00" y="71.892813"/>
     </g>
    </g>
    <g id="line2d_75">
     <g>
      <use style="fill:#71bc78;fill-opacity:0.7;stroke:#71bc78;stroke-opacity:0.7;" x="561.924216" xlink:href="#mf834ab6f00" y="61.892813"/>
     </g>
    </g>
    <g id="line2d_76">
     <path d="M 551.924216 66.892813
L 571.924216 66.892813
" style="fill:none;stroke:#71bc78;stroke-linecap:square;stroke-opacity:0.7;stroke-width:2;"/>
    </g>
    <g id="line2d_77">
     <g>
      <use style="fill:#71bc78;fill-opacity:0.7;stroke:#71bc78;stroke-linejoin:miter;stroke-opacity:0.7;" x="561.924216" xlink:href="#m6e335daab7" y="66.892813"/>
     </g>
    </g>
    <g id="text_32">
     <!-- R -->
     <defs>
      <path d="M 44.390625 34.1875
Q 47.5625 33.109375 50.5625 29.59375
Q 53.5625 26.078125 56.59375 19.921875
L 66.609375 0
L 56 0
L 46.6875 18.703125
Q 43.0625 26.03125 39.671875 28.421875
Q 36.28125 30.8125 30.421875 30.8125
L 19.671875 30.8125
L 19.671875 0
L 9.8125 0
L 9.8125 72.90625
L 32.078125 72.90625
Q 44.578125 72.90625 50.734375 67.671875
Q 56.890625 62.453125 56.890625 51.90625
Q 56.890625 45.015625 53.6875 40.46875
Q 50.484375 35.9375 44.390625 34.1875
z
M 19.671875 64.796875
L 19.671875 38.921875
L 32.078125 38.921875
Q 39.203125 38.921875 42.84375 42.21875
Q 46.484375 45.515625 46.484375 51.90625
Q 46.484375 58.296875 42.84375 61.546875
Q 39.203125 64.796875 32.078125 64.796875
z
" id="DejaVuSans-82"/>
     </defs>
     <g transform="translate(579.924216 70.392813)scale(0.1 -0.1)">
      <use xlink:href="#DejaVuSans-82"/>
     </g>
    </g>
   </g>
  </g>
 </g>
 <defs>
  <clipPath id="p81bb9a2c8d">
   <rect height="231.28" width="210.275227" x="60.32" y="14.76"/>
  </clipPath>
  <clipPath id="pdc268bac09">
   <rect height="231.28" width="210.275227" x="327.135227" y="14.76"/>
  </clipPath>
 </defs>
</svg>
