<?xml version="1.0" encoding="utf-8" standalone="no"?>
<!DOCTYPE svg PUBLIC "-//W3C//DTD SVG 1.1//EN"
  "http://www.w3.org/Graphics/SVG/1.1/DTD/svg11.dtd">
<!-- Created with matplotlib (https://matplotlib.org/) -->
<svg height="576pt" version="1.1" viewBox="0 0 576 576" width="576pt" xmlns="http://www.w3.org/2000/svg" xmlns:xlink="http://www.w3.org/1999/xlink">
 <defs>
  <style type="text/css">
*{stroke-linecap:butt;stroke-linejoin:round;}
  </style>
 </defs>
 <g id="figure_1">
  <g id="patch_1">
   <path d="M 0 576
L 576 576
L 576 0
L 0 0
z
" style="fill:#ffffff;"/>
  </g>
  <g id="axes_1">
   <g id="patch_2">
    <path d="M 65.684 251.273491
L 287.955 251.273491
L 287.955 13.32
L 65.684 13.32
z
" style="fill:#ffffff;"/>
   </g>
   <g id="matplotlib.axis_1">
    <g id="xtick_1">
     <g id="line2d_1">
      <defs>
       <path d="M 0 0
L 0 3.5
" id="mb15da774ac" style="stroke:#000000;stroke-width:0.8;"/>
      </defs>
      <g>
       <use style="stroke:#000000;stroke-width:0.8;" x="94.344175" xlink:href="#mb15da774ac" y="251.273491"/>
      </g>
     </g>
     <g id="text_1">
      <!-- F -->
      <defs>
       <path d="M 9.8125 72.90625
L 51.703125 72.90625
L 51.703125 64.59375
L 19.671875 64.59375
L 19.671875 43.109375
L 48.578125 43.109375
L 48.578125 34.8125
L 19.671875 34.8125
L 19.671875 0
L 9.8125 0
z
" id="DejaVuSans-70"/>
      </defs>
      <g transform="translate(91.468394 265.871928)scale(0.1 -0.1)">
       <use xlink:href="#DejaVuSans-70"/>
      </g>
     </g>
    </g>
    <g id="xtick_2">
     <g id="line2d_2">
      <g>
       <use style="stroke:#000000;stroke-width:0.8;" x="135.581838" xlink:href="#mb15da774ac" y="251.273491"/>
      </g>
     </g>
     <g id="text_2">
      <!-- S -->
      <defs>
       <path d="M 53.515625 70.515625
L 53.515625 60.890625
Q 47.90625 63.578125 42.921875 64.890625
Q 37.9375 66.21875 33.296875 66.21875
Q 25.25 66.21875 20.875 63.09375
Q 16.5 59.96875 16.5 54.203125
Q 16.5 49.359375 19.40625 46.890625
Q 22.3125 44.4375 30.421875 42.921875
L 36.375 41.703125
Q 47.40625 39.59375 52.65625 34.296875
Q 57.90625 29 57.90625 20.125
Q 57.90625 9.515625 50.796875 4.046875
Q 43.703125 -1.421875 29.984375 -1.421875
Q 24.8125 -1.421875 18.96875 -0.25
Q 13.140625 0.921875 6.890625 3.21875
L 6.890625 13.375
Q 12.890625 10.015625 18.65625 8.296875
Q 24.421875 6.59375 29.984375 6.59375
Q 38.421875 6.59375 43.015625 9.90625
Q 47.609375 13.234375 47.609375 19.390625
Q 47.609375 24.75 44.3125 27.78125
Q 41.015625 30.8125 33.5 32.328125
L 27.484375 33.5
Q 16.453125 35.6875 11.515625 40.375
Q 6.59375 45.0625 6.59375 53.421875
Q 6.59375 63.09375 13.40625 68.65625
Q 20.21875 74.21875 32.171875 74.21875
Q 37.3125 74.21875 42.625 73.28125
Q 47.953125 72.359375 53.515625 70.515625
z
" id="DejaVuSans-83"/>
      </defs>
      <g transform="translate(132.407619 265.871928)scale(0.1 -0.1)">
       <use xlink:href="#DejaVuSans-83"/>
      </g>
     </g>
    </g>
    <g id="xtick_3">
     <g id="line2d_3">
      <g>
       <use style="stroke:#000000;stroke-width:0.8;" x="218.057162" xlink:href="#mb15da774ac" y="251.273491"/>
      </g>
     </g>
     <g id="text_3">
      <!-- i- -->
      <defs>
       <path d="M 9.421875 54.6875
L 18.40625 54.6875
L 18.40625 0
L 9.421875 0
z
M 9.421875 75.984375
L 18.40625 75.984375
L 18.40625 64.59375
L 9.421875 64.59375
z
" id="DejaVuSans-105"/>
       <path d="M 4.890625 31.390625
L 31.203125 31.390625
L 31.203125 23.390625
L 4.890625 23.390625
z
" id="DejaVuSans-45"/>
      </defs>
      <g transform="translate(214.864194 265.871928)scale(0.1 -0.1)">
       <use xlink:href="#DejaVuSans-105"/>
       <use x="27.783203" xlink:href="#DejaVuSans-45"/>
      </g>
     </g>
    </g>
    <g id="xtick_4">
     <g id="line2d_4">
      <g>
       <use style="stroke:#000000;stroke-width:0.8;" x="259.294825" xlink:href="#mb15da774ac" y="251.273491"/>
      </g>
     </g>
     <g id="text_4">
      <!-- i+ -->
      <defs>
       <path d="M 46 62.703125
L 46 35.5
L 73.1875 35.5
L 73.1875 27.203125
L 46 27.203125
L 46 0
L 37.796875 0
L 37.796875 27.203125
L 10.59375 27.203125
L 10.59375 35.5
L 37.796875 35.5
L 37.796875 62.703125
z
" id="DejaVuSans-43"/>
      </defs>
      <g transform="translate(253.715918 265.871928)scale(0.1 -0.1)">
       <use xlink:href="#DejaVuSans-105"/>
       <use x="27.783203" xlink:href="#DejaVuSans-43"/>
      </g>
     </g>
    </g>
    <g id="text_5">
     <!-- Group / Condition -->
     <defs>
      <path d="M 59.515625 10.40625
L 59.515625 29.984375
L 43.40625 29.984375
L 43.40625 38.09375
L 69.28125 38.09375
L 69.28125 6.78125
Q 63.578125 2.734375 56.6875 0.65625
Q 49.8125 -1.421875 42 -1.421875
Q 24.90625 -1.421875 15.25 8.5625
Q 5.609375 18.5625 5.609375 36.375
Q 5.609375 54.25 15.25 64.234375
Q 24.90625 74.21875 42 74.21875
Q 49.125 74.21875 55.546875 72.453125
Q 61.96875 70.703125 67.390625 67.28125
L 67.390625 56.78125
Q 61.921875 61.421875 55.765625 63.765625
Q 49.609375 66.109375 42.828125 66.109375
Q 29.4375 66.109375 22.71875 58.640625
Q 16.015625 51.171875 16.015625 36.375
Q 16.015625 21.625 22.71875 14.15625
Q 29.4375 6.6875 42.828125 6.6875
Q 48.046875 6.6875 52.140625 7.59375
Q 56.25 8.5 59.515625 10.40625
z
" id="DejaVuSans-71"/>
      <path d="M 41.109375 46.296875
Q 39.59375 47.171875 37.8125 47.578125
Q 36.03125 48 33.890625 48
Q 26.265625 48 22.1875 43.046875
Q 18.109375 38.09375 18.109375 28.8125
L 18.109375 0
L 9.078125 0
L 9.078125 54.6875
L 18.109375 54.6875
L 18.109375 46.1875
Q 20.953125 51.171875 25.484375 53.578125
Q 30.03125 56 36.53125 56
Q 37.453125 56 38.578125 55.875
Q 39.703125 55.765625 41.0625 55.515625
z
" id="DejaVuSans-114"/>
      <path d="M 30.609375 48.390625
Q 23.390625 48.390625 19.1875 42.75
Q 14.984375 37.109375 14.984375 27.296875
Q 14.984375 17.484375 19.15625 11.84375
Q 23.34375 6.203125 30.609375 6.203125
Q 37.796875 6.203125 41.984375 11.859375
Q 46.1875 17.53125 46.1875 27.296875
Q 46.1875 37.015625 41.984375 42.703125
Q 37.796875 48.390625 30.609375 48.390625
z
M 30.609375 56
Q 42.328125 56 49.015625 48.375
Q 55.71875 40.765625 55.71875 27.296875
Q 55.71875 13.875 49.015625 6.21875
Q 42.328125 -1.421875 30.609375 -1.421875
Q 18.84375 -1.421875 12.171875 6.21875
Q 5.515625 13.875 5.515625 27.296875
Q 5.515625 40.765625 12.171875 48.375
Q 18.84375 56 30.609375 56
z
" id="DejaVuSans-111"/>
      <path d="M 8.5 21.578125
L 8.5 54.6875
L 17.484375 54.6875
L 17.484375 21.921875
Q 17.484375 14.15625 20.5 10.265625
Q 23.53125 6.390625 29.59375 6.390625
Q 36.859375 6.390625 41.078125 11.03125
Q 45.3125 15.671875 45.3125 23.6875
L 45.3125 54.6875
L 54.296875 54.6875
L 54.296875 0
L 45.3125 0
L 45.3125 8.40625
Q 42.046875 3.421875 37.71875 1
Q 33.40625 -1.421875 27.6875 -1.421875
Q 18.265625 -1.421875 13.375 4.4375
Q 8.5 10.296875 8.5 21.578125
z
M 31.109375 56
z
" id="DejaVuSans-117"/>
      <path d="M 18.109375 8.203125
L 18.109375 -20.796875
L 9.078125 -20.796875
L 9.078125 54.6875
L 18.109375 54.6875
L 18.109375 46.390625
Q 20.953125 51.265625 25.265625 53.625
Q 29.59375 56 35.59375 56
Q 45.5625 56 51.78125 48.09375
Q 58.015625 40.1875 58.015625 27.296875
Q 58.015625 14.40625 51.78125 6.484375
Q 45.5625 -1.421875 35.59375 -1.421875
Q 29.59375 -1.421875 25.265625 0.953125
Q 20.953125 3.328125 18.109375 8.203125
z
M 48.6875 27.296875
Q 48.6875 37.203125 44.609375 42.84375
Q 40.53125 48.484375 33.40625 48.484375
Q 26.265625 48.484375 22.1875 42.84375
Q 18.109375 37.203125 18.109375 27.296875
Q 18.109375 17.390625 22.1875 11.75
Q 26.265625 6.109375 33.40625 6.109375
Q 40.53125 6.109375 44.609375 11.75
Q 48.6875 17.390625 48.6875 27.296875
z
" id="DejaVuSans-112"/>
      <path id="DejaVuSans-32"/>
      <path d="M 25.390625 72.90625
L 33.6875 72.90625
L 8.296875 -9.28125
L 0 -9.28125
z
" id="DejaVuSans-47"/>
      <path d="M 64.40625 67.28125
L 64.40625 56.890625
Q 59.421875 61.53125 53.78125 63.8125
Q 48.140625 66.109375 41.796875 66.109375
Q 29.296875 66.109375 22.65625 58.46875
Q 16.015625 50.828125 16.015625 36.375
Q 16.015625 21.96875 22.65625 14.328125
Q 29.296875 6.6875 41.796875 6.6875
Q 48.140625 6.6875 53.78125 8.984375
Q 59.421875 11.28125 64.40625 15.921875
L 64.40625 5.609375
Q 59.234375 2.09375 53.4375 0.328125
Q 47.65625 -1.421875 41.21875 -1.421875
Q 24.65625 -1.421875 15.125 8.703125
Q 5.609375 18.84375 5.609375 36.375
Q 5.609375 53.953125 15.125 64.078125
Q 24.65625 74.21875 41.21875 74.21875
Q 47.75 74.21875 53.53125 72.484375
Q 59.328125 70.75 64.40625 67.28125
z
" id="DejaVuSans-67"/>
      <path d="M 54.890625 33.015625
L 54.890625 0
L 45.90625 0
L 45.90625 32.71875
Q 45.90625 40.484375 42.875 44.328125
Q 39.84375 48.1875 33.796875 48.1875
Q 26.515625 48.1875 22.3125 43.546875
Q 18.109375 38.921875 18.109375 30.90625
L 18.109375 0
L 9.078125 0
L 9.078125 54.6875
L 18.109375 54.6875
L 18.109375 46.1875
Q 21.34375 51.125 25.703125 53.5625
Q 30.078125 56 35.796875 56
Q 45.21875 56 50.046875 50.171875
Q 54.890625 44.34375 54.890625 33.015625
z
" id="DejaVuSans-110"/>
      <path d="M 45.40625 46.390625
L 45.40625 75.984375
L 54.390625 75.984375
L 54.390625 0
L 45.40625 0
L 45.40625 8.203125
Q 42.578125 3.328125 38.25 0.953125
Q 33.9375 -1.421875 27.875 -1.421875
Q 17.96875 -1.421875 11.734375 6.484375
Q 5.515625 14.40625 5.515625 27.296875
Q 5.515625 40.1875 11.734375 48.09375
Q 17.96875 56 27.875 56
Q 33.9375 56 38.25 53.625
Q 42.578125 51.265625 45.40625 46.390625
z
M 14.796875 27.296875
Q 14.796875 17.390625 18.875 11.75
Q 22.953125 6.109375 30.078125 6.109375
Q 37.203125 6.109375 41.296875 11.75
Q 45.40625 17.390625 45.40625 27.296875
Q 45.40625 37.203125 41.296875 42.84375
Q 37.203125 48.484375 30.078125 48.484375
Q 22.953125 48.484375 18.875 42.84375
Q 14.796875 37.203125 14.796875 27.296875
z
" id="DejaVuSans-100"/>
      <path d="M 18.3125 70.21875
L 18.3125 54.6875
L 36.8125 54.6875
L 36.8125 47.703125
L 18.3125 47.703125
L 18.3125 18.015625
Q 18.3125 11.328125 20.140625 9.421875
Q 21.96875 7.515625 27.59375 7.515625
L 36.8125 7.515625
L 36.8125 0
L 27.59375 0
Q 17.1875 0 13.234375 3.875
Q 9.28125 7.765625 9.28125 18.015625
L 9.28125 47.703125
L 2.6875 47.703125
L 2.6875 54.6875
L 9.28125 54.6875
L 9.28125 70.21875
z
" id="DejaVuSans-116"/>
     </defs>
     <g transform="translate(132.766375 279.550053)scale(0.1 -0.1)">
      <use xlink:href="#DejaVuSans-71"/>
      <use x="77.490234" xlink:href="#DejaVuSans-114"/>
      <use x="118.572266" xlink:href="#DejaVuSans-111"/>
      <use x="179.753906" xlink:href="#DejaVuSans-117"/>
      <use x="243.132812" xlink:href="#DejaVuSans-112"/>
      <use x="306.609375" xlink:href="#DejaVuSans-32"/>
      <use x="338.396484" xlink:href="#DejaVuSans-47"/>
      <use x="372.087891" xlink:href="#DejaVuSans-32"/>
      <use x="403.875" xlink:href="#DejaVuSans-67"/>
      <use x="473.699219" xlink:href="#DejaVuSans-111"/>
      <use x="534.880859" xlink:href="#DejaVuSans-110"/>
      <use x="598.259766" xlink:href="#DejaVuSans-100"/>
      <use x="661.736328" xlink:href="#DejaVuSans-105"/>
      <use x="689.519531" xlink:href="#DejaVuSans-116"/>
      <use x="728.728516" xlink:href="#DejaVuSans-105"/>
      <use x="756.511719" xlink:href="#DejaVuSans-111"/>
      <use x="817.693359" xlink:href="#DejaVuSans-110"/>
     </g>
    </g>
   </g>
   <g id="matplotlib.axis_2">
    <g id="ytick_1">
     <g id="line2d_5">
      <path clip-path="url(#pc5685635ad)" d="M 65.684 226.722207
L 287.955 226.722207
" style="fill:none;stroke:#b0b0b0;stroke-dasharray:0.8,1.32;stroke-dashoffset:0;stroke-width:0.8;"/>
     </g>
     <g id="line2d_6">
      <defs>
       <path d="M 0 0
L -3.5 0
" id="m42db5ef629" style="stroke:#000000;stroke-width:0.8;"/>
      </defs>
      <g>
       <use style="stroke:#000000;stroke-width:0.8;" x="65.684" xlink:href="#m42db5ef629" y="226.722207"/>
      </g>
     </g>
     <g id="text_6">
      <!-- 5.00 -->
      <defs>
       <path d="M 10.796875 72.90625
L 49.515625 72.90625
L 49.515625 64.59375
L 19.828125 64.59375
L 19.828125 46.734375
Q 21.96875 47.46875 24.109375 47.828125
Q 26.265625 48.1875 28.421875 48.1875
Q 40.625 48.1875 47.75 41.5
Q 54.890625 34.8125 54.890625 23.390625
Q 54.890625 11.625 47.5625 5.09375
Q 40.234375 -1.421875 26.90625 -1.421875
Q 22.3125 -1.421875 17.546875 -0.640625
Q 12.796875 0.140625 7.71875 1.703125
L 7.71875 11.625
Q 12.109375 9.234375 16.796875 8.0625
Q 21.484375 6.890625 26.703125 6.890625
Q 35.15625 6.890625 40.078125 11.328125
Q 45.015625 15.765625 45.015625 23.390625
Q 45.015625 31 40.078125 35.4375
Q 35.15625 39.890625 26.703125 39.890625
Q 22.75 39.890625 18.8125 39.015625
Q 14.890625 38.140625 10.796875 36.28125
z
" id="DejaVuSans-53"/>
       <path d="M 10.6875 12.40625
L 21 12.40625
L 21 0
L 10.6875 0
z
" id="DejaVuSans-46"/>
       <path d="M 31.78125 66.40625
Q 24.171875 66.40625 20.328125 58.90625
Q 16.5 51.421875 16.5 36.375
Q 16.5 21.390625 20.328125 13.890625
Q 24.171875 6.390625 31.78125 6.390625
Q 39.453125 6.390625 43.28125 13.890625
Q 47.125 21.390625 47.125 36.375
Q 47.125 51.421875 43.28125 58.90625
Q 39.453125 66.40625 31.78125 66.40625
z
M 31.78125 74.21875
Q 44.046875 74.21875 50.515625 64.515625
Q 56.984375 54.828125 56.984375 36.375
Q 56.984375 17.96875 50.515625 8.265625
Q 44.046875 -1.421875 31.78125 -1.421875
Q 19.53125 -1.421875 13.0625 8.265625
Q 6.59375 17.96875 6.59375 36.375
Q 6.59375 54.828125 13.0625 64.515625
Q 19.53125 74.21875 31.78125 74.21875
z
" id="DejaVuSans-48"/>
      </defs>
      <g transform="translate(36.418375 230.521425)scale(0.1 -0.1)">
       <use xlink:href="#DejaVuSans-53"/>
       <use x="63.623047" xlink:href="#DejaVuSans-46"/>
       <use x="95.410156" xlink:href="#DejaVuSans-48"/>
       <use x="159.033203" xlink:href="#DejaVuSans-48"/>
      </g>
     </g>
    </g>
    <g id="ytick_2">
     <g id="line2d_7">
      <path clip-path="url(#pc5685635ad)" d="M 65.684 195.571442
L 287.955 195.571442
" style="fill:none;stroke:#b0b0b0;stroke-dasharray:0.8,1.32;stroke-dashoffset:0;stroke-width:0.8;"/>
     </g>
     <g id="line2d_8">
      <g>
       <use style="stroke:#000000;stroke-width:0.8;" x="65.684" xlink:href="#m42db5ef629" y="195.571442"/>
      </g>
     </g>
     <g id="text_7">
      <!-- 5.25 -->
      <defs>
       <path d="M 19.1875 8.296875
L 53.609375 8.296875
L 53.609375 0
L 7.328125 0
L 7.328125 8.296875
Q 12.9375 14.109375 22.625 23.890625
Q 32.328125 33.6875 34.8125 36.53125
Q 39.546875 41.84375 41.421875 45.53125
Q 43.3125 49.21875 43.3125 52.78125
Q 43.3125 58.59375 39.234375 62.25
Q 35.15625 65.921875 28.609375 65.921875
Q 23.96875 65.921875 18.8125 64.3125
Q 13.671875 62.703125 7.8125 59.421875
L 7.8125 69.390625
Q 13.765625 71.78125 18.9375 73
Q 24.125 74.21875 28.421875 74.21875
Q 39.75 74.21875 46.484375 68.546875
Q 53.21875 62.890625 53.21875 53.421875
Q 53.21875 48.921875 51.53125 44.890625
Q 49.859375 40.875 45.40625 35.40625
Q 44.1875 33.984375 37.640625 27.21875
Q 31.109375 20.453125 19.1875 8.296875
z
" id="DejaVuSans-50"/>
      </defs>
      <g transform="translate(36.418375 199.370661)scale(0.1 -0.1)">
       <use xlink:href="#DejaVuSans-53"/>
       <use x="63.623047" xlink:href="#DejaVuSans-46"/>
       <use x="95.410156" xlink:href="#DejaVuSans-50"/>
       <use x="159.033203" xlink:href="#DejaVuSans-53"/>
      </g>
     </g>
    </g>
    <g id="ytick_3">
     <g id="line2d_9">
      <path clip-path="url(#pc5685635ad)" d="M 65.684 164.420678
L 287.955 164.420678
" style="fill:none;stroke:#b0b0b0;stroke-dasharray:0.8,1.32;stroke-dashoffset:0;stroke-width:0.8;"/>
     </g>
     <g id="line2d_10">
      <g>
       <use style="stroke:#000000;stroke-width:0.8;" x="65.684" xlink:href="#m42db5ef629" y="164.420678"/>
      </g>
     </g>
     <g id="text_8">
      <!-- 5.50 -->
      <g transform="translate(36.418375 168.219897)scale(0.1 -0.1)">
       <use xlink:href="#DejaVuSans-53"/>
       <use x="63.623047" xlink:href="#DejaVuSans-46"/>
       <use x="95.410156" xlink:href="#DejaVuSans-53"/>
       <use x="159.033203" xlink:href="#DejaVuSans-48"/>
      </g>
     </g>
    </g>
    <g id="ytick_4">
     <g id="line2d_11">
      <path clip-path="url(#pc5685635ad)" d="M 65.684 133.269914
L 287.955 133.269914
" style="fill:none;stroke:#b0b0b0;stroke-dasharray:0.8,1.32;stroke-dashoffset:0;stroke-width:0.8;"/>
     </g>
     <g id="line2d_12">
      <g>
       <use style="stroke:#000000;stroke-width:0.8;" x="65.684" xlink:href="#m42db5ef629" y="133.269914"/>
      </g>
     </g>
     <g id="text_9">
      <!-- 5.75 -->
      <defs>
       <path d="M 8.203125 72.90625
L 55.078125 72.90625
L 55.078125 68.703125
L 28.609375 0
L 18.3125 0
L 43.21875 64.59375
L 8.203125 64.59375
z
" id="DejaVuSans-55"/>
      </defs>
      <g transform="translate(36.418375 137.069132)scale(0.1 -0.1)">
       <use xlink:href="#DejaVuSans-53"/>
       <use x="63.623047" xlink:href="#DejaVuSans-46"/>
       <use x="95.410156" xlink:href="#DejaVuSans-55"/>
       <use x="159.033203" xlink:href="#DejaVuSans-53"/>
      </g>
     </g>
    </g>
    <g id="ytick_5">
     <g id="line2d_13">
      <path clip-path="url(#pc5685635ad)" d="M 65.684 102.119149
L 287.955 102.119149
" style="fill:none;stroke:#b0b0b0;stroke-dasharray:0.8,1.32;stroke-dashoffset:0;stroke-width:0.8;"/>
     </g>
     <g id="line2d_14">
      <g>
       <use style="stroke:#000000;stroke-width:0.8;" x="65.684" xlink:href="#m42db5ef629" y="102.119149"/>
      </g>
     </g>
     <g id="text_10">
      <!-- 6.00 -->
      <defs>
       <path d="M 33.015625 40.375
Q 26.375 40.375 22.484375 35.828125
Q 18.609375 31.296875 18.609375 23.390625
Q 18.609375 15.53125 22.484375 10.953125
Q 26.375 6.390625 33.015625 6.390625
Q 39.65625 6.390625 43.53125 10.953125
Q 47.40625 15.53125 47.40625 23.390625
Q 47.40625 31.296875 43.53125 35.828125
Q 39.65625 40.375 33.015625 40.375
z
M 52.59375 71.296875
L 52.59375 62.3125
Q 48.875 64.0625 45.09375 64.984375
Q 41.3125 65.921875 37.59375 65.921875
Q 27.828125 65.921875 22.671875 59.328125
Q 17.53125 52.734375 16.796875 39.40625
Q 19.671875 43.65625 24.015625 45.921875
Q 28.375 48.1875 33.59375 48.1875
Q 44.578125 48.1875 50.953125 41.515625
Q 57.328125 34.859375 57.328125 23.390625
Q 57.328125 12.15625 50.6875 5.359375
Q 44.046875 -1.421875 33.015625 -1.421875
Q 20.359375 -1.421875 13.671875 8.265625
Q 6.984375 17.96875 6.984375 36.375
Q 6.984375 53.65625 15.1875 63.9375
Q 23.390625 74.21875 37.203125 74.21875
Q 40.921875 74.21875 44.703125 73.484375
Q 48.484375 72.75 52.59375 71.296875
z
" id="DejaVuSans-54"/>
      </defs>
      <g transform="translate(36.418375 105.918368)scale(0.1 -0.1)">
       <use xlink:href="#DejaVuSans-54"/>
       <use x="63.623047" xlink:href="#DejaVuSans-46"/>
       <use x="95.410156" xlink:href="#DejaVuSans-48"/>
       <use x="159.033203" xlink:href="#DejaVuSans-48"/>
      </g>
     </g>
    </g>
    <g id="ytick_6">
     <g id="line2d_15">
      <path clip-path="url(#pc5685635ad)" d="M 65.684 70.968385
L 287.955 70.968385
" style="fill:none;stroke:#b0b0b0;stroke-dasharray:0.8,1.32;stroke-dashoffset:0;stroke-width:0.8;"/>
     </g>
     <g id="line2d_16">
      <g>
       <use style="stroke:#000000;stroke-width:0.8;" x="65.684" xlink:href="#m42db5ef629" y="70.968385"/>
      </g>
     </g>
     <g id="text_11">
      <!-- 6.25 -->
      <g transform="translate(36.418375 74.767604)scale(0.1 -0.1)">
       <use xlink:href="#DejaVuSans-54"/>
       <use x="63.623047" xlink:href="#DejaVuSans-46"/>
       <use x="95.410156" xlink:href="#DejaVuSans-50"/>
       <use x="159.033203" xlink:href="#DejaVuSans-53"/>
      </g>
     </g>
    </g>
    <g id="ytick_7">
     <g id="line2d_17">
      <path clip-path="url(#pc5685635ad)" d="M 65.684 39.817621
L 287.955 39.817621
" style="fill:none;stroke:#b0b0b0;stroke-dasharray:0.8,1.32;stroke-dashoffset:0;stroke-width:0.8;"/>
     </g>
     <g id="line2d_18">
      <g>
       <use style="stroke:#000000;stroke-width:0.8;" x="65.684" xlink:href="#m42db5ef629" y="39.817621"/>
      </g>
     </g>
     <g id="text_12">
      <!-- 6.50 -->
      <g transform="translate(36.418375 43.616839)scale(0.1 -0.1)">
       <use xlink:href="#DejaVuSans-54"/>
       <use x="63.623047" xlink:href="#DejaVuSans-46"/>
       <use x="95.410156" xlink:href="#DejaVuSans-53"/>
       <use x="159.033203" xlink:href="#DejaVuSans-48"/>
      </g>
     </g>
    </g>
    <g id="text_13">
     <!-- Mean rating of -->
     <defs>
      <path d="M 9.8125 72.90625
L 24.515625 72.90625
L 43.109375 23.296875
L 61.8125 72.90625
L 76.515625 72.90625
L 76.515625 0
L 66.890625 0
L 66.890625 64.015625
L 48.09375 14.015625
L 38.1875 14.015625
L 19.390625 64.015625
L 19.390625 0
L 9.8125 0
z
" id="DejaVuSans-77"/>
      <path d="M 56.203125 29.59375
L 56.203125 25.203125
L 14.890625 25.203125
Q 15.484375 15.921875 20.484375 11.0625
Q 25.484375 6.203125 34.421875 6.203125
Q 39.59375 6.203125 44.453125 7.46875
Q 49.3125 8.734375 54.109375 11.28125
L 54.109375 2.78125
Q 49.265625 0.734375 44.1875 -0.34375
Q 39.109375 -1.421875 33.890625 -1.421875
Q 20.796875 -1.421875 13.15625 6.1875
Q 5.515625 13.8125 5.515625 26.8125
Q 5.515625 40.234375 12.765625 48.109375
Q 20.015625 56 32.328125 56
Q 43.359375 56 49.78125 48.890625
Q 56.203125 41.796875 56.203125 29.59375
z
M 47.21875 32.234375
Q 47.125 39.59375 43.09375 43.984375
Q 39.0625 48.390625 32.421875 48.390625
Q 24.90625 48.390625 20.390625 44.140625
Q 15.875 39.890625 15.1875 32.171875
z
" id="DejaVuSans-101"/>
      <path d="M 34.28125 27.484375
Q 23.390625 27.484375 19.1875 25
Q 14.984375 22.515625 14.984375 16.5
Q 14.984375 11.71875 18.140625 8.90625
Q 21.296875 6.109375 26.703125 6.109375
Q 34.1875 6.109375 38.703125 11.40625
Q 43.21875 16.703125 43.21875 25.484375
L 43.21875 27.484375
z
M 52.203125 31.203125
L 52.203125 0
L 43.21875 0
L 43.21875 8.296875
Q 40.140625 3.328125 35.546875 0.953125
Q 30.953125 -1.421875 24.3125 -1.421875
Q 15.921875 -1.421875 10.953125 3.296875
Q 6 8.015625 6 15.921875
Q 6 25.140625 12.171875 29.828125
Q 18.359375 34.515625 30.609375 34.515625
L 43.21875 34.515625
L 43.21875 35.40625
Q 43.21875 41.609375 39.140625 45
Q 35.0625 48.390625 27.6875 48.390625
Q 23 48.390625 18.546875 47.265625
Q 14.109375 46.140625 10.015625 43.890625
L 10.015625 52.203125
Q 14.9375 54.109375 19.578125 55.046875
Q 24.21875 56 28.609375 56
Q 40.484375 56 46.34375 49.84375
Q 52.203125 43.703125 52.203125 31.203125
z
" id="DejaVuSans-97"/>
      <path d="M 45.40625 27.984375
Q 45.40625 37.75 41.375 43.109375
Q 37.359375 48.484375 30.078125 48.484375
Q 22.859375 48.484375 18.828125 43.109375
Q 14.796875 37.75 14.796875 27.984375
Q 14.796875 18.265625 18.828125 12.890625
Q 22.859375 7.515625 30.078125 7.515625
Q 37.359375 7.515625 41.375 12.890625
Q 45.40625 18.265625 45.40625 27.984375
z
M 54.390625 6.78125
Q 54.390625 -7.171875 48.1875 -13.984375
Q 42 -20.796875 29.203125 -20.796875
Q 24.46875 -20.796875 20.265625 -20.09375
Q 16.0625 -19.390625 12.109375 -17.921875
L 12.109375 -9.1875
Q 16.0625 -11.328125 19.921875 -12.34375
Q 23.78125 -13.375 27.78125 -13.375
Q 36.625 -13.375 41.015625 -8.765625
Q 45.40625 -4.15625 45.40625 5.171875
L 45.40625 9.625
Q 42.625 4.78125 38.28125 2.390625
Q 33.9375 0 27.875 0
Q 17.828125 0 11.671875 7.65625
Q 5.515625 15.328125 5.515625 27.984375
Q 5.515625 40.671875 11.671875 48.328125
Q 17.828125 56 27.875 56
Q 33.9375 56 38.28125 53.609375
Q 42.625 51.21875 45.40625 46.390625
L 45.40625 54.6875
L 54.390625 54.6875
z
" id="DejaVuSans-103"/>
      <path d="M 37.109375 75.984375
L 37.109375 68.5
L 28.515625 68.5
Q 23.6875 68.5 21.796875 66.546875
Q 19.921875 64.59375 19.921875 59.515625
L 19.921875 54.6875
L 34.71875 54.6875
L 34.71875 47.703125
L 19.921875 47.703125
L 19.921875 0
L 10.890625 0
L 10.890625 47.703125
L 2.296875 47.703125
L 2.296875 54.6875
L 10.890625 54.6875
L 10.890625 58.5
Q 10.890625 67.625 15.140625 71.796875
Q 19.390625 75.984375 28.609375 75.984375
z
" id="DejaVuSans-102"/>
     </defs>
     <g transform="translate(19.140875 168.729558)rotate(-90)scale(0.1 -0.1)">
      <use xlink:href="#DejaVuSans-77"/>
      <use x="86.279297" xlink:href="#DejaVuSans-101"/>
      <use x="147.802734" xlink:href="#DejaVuSans-97"/>
      <use x="209.082031" xlink:href="#DejaVuSans-110"/>
      <use x="272.460938" xlink:href="#DejaVuSans-32"/>
      <use x="304.248047" xlink:href="#DejaVuSans-114"/>
      <use x="345.361328" xlink:href="#DejaVuSans-97"/>
      <use x="406.640625" xlink:href="#DejaVuSans-116"/>
      <use x="445.849609" xlink:href="#DejaVuSans-105"/>
      <use x="473.632812" xlink:href="#DejaVuSans-110"/>
      <use x="537.011719" xlink:href="#DejaVuSans-103"/>
      <use x="600.488281" xlink:href="#DejaVuSans-32"/>
      <use x="632.275391" xlink:href="#DejaVuSans-111"/>
      <use x="693.457031" xlink:href="#DejaVuSans-102"/>
     </g>
     <!-- complexity -->
     <defs>
      <path d="M 48.78125 52.59375
L 48.78125 44.1875
Q 44.96875 46.296875 41.140625 47.34375
Q 37.3125 48.390625 33.40625 48.390625
Q 24.65625 48.390625 19.8125 42.84375
Q 14.984375 37.3125 14.984375 27.296875
Q 14.984375 17.28125 19.8125 11.734375
Q 24.65625 6.203125 33.40625 6.203125
Q 37.3125 6.203125 41.140625 7.25
Q 44.96875 8.296875 48.78125 10.40625
L 48.78125 2.09375
Q 45.015625 0.34375 40.984375 -0.53125
Q 36.96875 -1.421875 32.421875 -1.421875
Q 20.0625 -1.421875 12.78125 6.34375
Q 5.515625 14.109375 5.515625 27.296875
Q 5.515625 40.671875 12.859375 48.328125
Q 20.21875 56 33.015625 56
Q 37.15625 56 41.109375 55.140625
Q 45.0625 54.296875 48.78125 52.59375
z
" id="DejaVuSans-99"/>
      <path d="M 52 44.1875
Q 55.375 50.25 60.0625 53.125
Q 64.75 56 71.09375 56
Q 79.640625 56 84.28125 50.015625
Q 88.921875 44.046875 88.921875 33.015625
L 88.921875 0
L 79.890625 0
L 79.890625 32.71875
Q 79.890625 40.578125 77.09375 44.375
Q 74.3125 48.1875 68.609375 48.1875
Q 61.625 48.1875 57.5625 43.546875
Q 53.515625 38.921875 53.515625 30.90625
L 53.515625 0
L 44.484375 0
L 44.484375 32.71875
Q 44.484375 40.625 41.703125 44.40625
Q 38.921875 48.1875 33.109375 48.1875
Q 26.21875 48.1875 22.15625 43.53125
Q 18.109375 38.875 18.109375 30.90625
L 18.109375 0
L 9.078125 0
L 9.078125 54.6875
L 18.109375 54.6875
L 18.109375 46.1875
Q 21.1875 51.21875 25.484375 53.609375
Q 29.78125 56 35.6875 56
Q 41.65625 56 45.828125 52.96875
Q 50 49.953125 52 44.1875
z
" id="DejaVuSans-109"/>
      <path d="M 9.421875 75.984375
L 18.40625 75.984375
L 18.40625 0
L 9.421875 0
z
" id="DejaVuSans-108"/>
      <path d="M 54.890625 54.6875
L 35.109375 28.078125
L 55.90625 0
L 45.3125 0
L 29.390625 21.484375
L 13.484375 0
L 2.875 0
L 24.125 28.609375
L 4.6875 54.6875
L 15.28125 54.6875
L 29.78125 35.203125
L 44.28125 54.6875
z
" id="DejaVuSans-120"/>
      <path d="M 32.171875 -5.078125
Q 28.375 -14.84375 24.75 -17.8125
Q 21.140625 -20.796875 15.09375 -20.796875
L 7.90625 -20.796875
L 7.90625 -13.28125
L 13.1875 -13.28125
Q 16.890625 -13.28125 18.9375 -11.515625
Q 21 -9.765625 23.484375 -3.21875
L 25.09375 0.875
L 2.984375 54.6875
L 12.5 54.6875
L 29.59375 11.921875
L 46.6875 54.6875
L 56.203125 54.6875
z
" id="DejaVuSans-121"/>
     </defs>
     <g transform="translate(30.338688 159.882683)rotate(-90)scale(0.1 -0.1)">
      <use xlink:href="#DejaVuSans-99"/>
      <use x="54.980469" xlink:href="#DejaVuSans-111"/>
      <use x="116.162109" xlink:href="#DejaVuSans-109"/>
      <use x="213.574219" xlink:href="#DejaVuSans-112"/>
      <use x="277.050781" xlink:href="#DejaVuSans-108"/>
      <use x="304.833984" xlink:href="#DejaVuSans-101"/>
      <use x="366.341797" xlink:href="#DejaVuSans-120"/>
      <use x="425.521484" xlink:href="#DejaVuSans-105"/>
      <use x="453.304688" xlink:href="#DejaVuSans-116"/>
      <use x="492.513672" xlink:href="#DejaVuSans-121"/>
     </g>
    </g>
   </g>
   <g id="patch_3">
    <path clip-path="url(#pc5685635ad)" d="M 75.787227 849.737493
L 112.901123 849.737493
L 112.901123 134.685857
L 75.787227 134.685857
z
" style="fill:#008fd5;"/>
   </g>
   <g id="patch_4">
    <path clip-path="url(#pc5685635ad)" d="M 117.02489 849.737493
L 154.138786 849.737493
L 154.138786 164.064669
L 117.02489 164.064669
z
" style="fill:#008fd5;"/>
   </g>
   <g id="patch_5">
    <path clip-path="url(#pc5685635ad)" d="M 199.500214 849.737493
L 236.61411 849.737493
L 236.61411 156.769613
L 199.500214 156.769613
z
" style="fill:#008fd5;"/>
   </g>
   <g id="patch_6">
    <path clip-path="url(#pc5685635ad)" d="M 240.737877 849.737493
L 277.851773 849.737493
L 277.851773 143.324907
L 240.737877 143.324907
z
" style="fill:#008fd5;"/>
   </g>
   <g id="patch_7">
    <path d="M 65.684 251.273491
L 65.684 13.32
" style="fill:none;stroke:#000000;stroke-linecap:square;stroke-linejoin:miter;stroke-width:0.8;"/>
   </g>
   <g id="patch_8">
    <path d="M 65.684 251.273491
L 287.955 251.273491
" style="fill:none;stroke:#000000;stroke-linecap:square;stroke-linejoin:miter;stroke-width:0.8;"/>
   </g>
   <g id="LineCollection_1">
    <path clip-path="url(#pc5685635ad)" d="M 94.344175 152.023837
L 94.344175 117.347878
" style="fill:none;stroke:#000000;stroke-width:1.5;"/>
    <path clip-path="url(#pc5685635ad)" d="M 135.581838 180.883726
L 135.581838 147.245613
" style="fill:none;stroke:#000000;stroke-width:1.5;"/>
   </g>
   <g id="LineCollection_2">
    <path clip-path="url(#pc5685635ad)" d="M 218.057162 173.408481
L 218.057162 140.130745
" style="fill:none;stroke:#000000;stroke-width:1.5;"/>
    <path clip-path="url(#pc5685635ad)" d="M 259.294825 160.900032
L 259.294825 125.749782
" style="fill:none;stroke:#000000;stroke-width:1.5;"/>
   </g>
   <g id="line2d_19">
    <defs>
     <path d="M 6 0
L -6 -0
" id="m94cf5bbc6d" style="stroke:#000000;"/>
    </defs>
    <g clip-path="url(#pc5685635ad)">
     <use style="stroke:#000000;" x="94.344175" xlink:href="#m94cf5bbc6d" y="152.023837"/>
     <use style="stroke:#000000;" x="135.581838" xlink:href="#m94cf5bbc6d" y="180.883726"/>
    </g>
   </g>
   <g id="line2d_20">
    <g clip-path="url(#pc5685635ad)">
     <use style="stroke:#000000;" x="94.344175" xlink:href="#m94cf5bbc6d" y="117.347878"/>
     <use style="stroke:#000000;" x="135.581838" xlink:href="#m94cf5bbc6d" y="147.245613"/>
    </g>
   </g>
   <g id="line2d_21">
    <g clip-path="url(#pc5685635ad)">
     <use style="stroke:#000000;" x="218.057162" xlink:href="#m94cf5bbc6d" y="173.408481"/>
     <use style="stroke:#000000;" x="259.294825" xlink:href="#m94cf5bbc6d" y="160.900032"/>
    </g>
   </g>
   <g id="line2d_22">
    <g clip-path="url(#pc5685635ad)">
     <use style="stroke:#000000;" x="218.057162" xlink:href="#m94cf5bbc6d" y="140.130745"/>
     <use style="stroke:#000000;" x="259.294825" xlink:href="#m94cf5bbc6d" y="125.749782"/>
    </g>
   </g>
   <g id="line2d_23"/>
   <g id="line2d_24"/>
  </g>
  <g id="axes_2">
   <g id="patch_9">
    <path d="M 340.409 251.273491
L 562.68 251.273491
L 562.68 13.32
L 340.409 13.32
z
" style="fill:#ffffff;"/>
   </g>
   <g id="matplotlib.axis_3">
    <g id="xtick_5">
     <g id="line2d_25">
      <g>
       <use style="stroke:#000000;stroke-width:0.8;" x="350.512227" xlink:href="#mb15da774ac" y="251.273491"/>
      </g>
     </g>
     <g id="text_14">
      <!-- 1D -->
      <defs>
       <path d="M 12.40625 8.296875
L 28.515625 8.296875
L 28.515625 63.921875
L 10.984375 60.40625
L 10.984375 69.390625
L 28.421875 72.90625
L 38.28125 72.90625
L 38.28125 8.296875
L 54.390625 8.296875
L 54.390625 0
L 12.40625 0
z
" id="DejaVuSans-49"/>
       <path d="M 19.671875 64.796875
L 19.671875 8.109375
L 31.59375 8.109375
Q 46.6875 8.109375 53.6875 14.9375
Q 60.6875 21.78125 60.6875 36.53125
Q 60.6875 51.171875 53.6875 57.984375
Q 46.6875 64.796875 31.59375 64.796875
z
M 9.8125 72.90625
L 30.078125 72.90625
Q 51.265625 72.90625 61.171875 64.09375
Q 71.09375 55.28125 71.09375 36.53125
Q 71.09375 17.671875 61.125 8.828125
Q 51.171875 0 30.078125 0
L 9.8125 0
z
" id="DejaVuSans-68"/>
      </defs>
      <g transform="translate(343.480977 265.871928)scale(0.1 -0.1)">
       <use xlink:href="#DejaVuSans-49"/>
       <use x="63.623047" xlink:href="#DejaVuSans-68"/>
      </g>
     </g>
    </g>
    <g id="xtick_6">
     <g id="line2d_26">
      <g>
       <use style="stroke:#000000;stroke-width:0.8;" x="417.867076" xlink:href="#mb15da774ac" y="251.273491"/>
      </g>
     </g>
     <g id="text_15">
      <!-- I1D -->
      <defs>
       <path d="M 9.8125 72.90625
L 19.671875 72.90625
L 19.671875 0
L 9.8125 0
z
" id="DejaVuSans-73"/>
      </defs>
      <g transform="translate(409.360826 265.871928)scale(0.1 -0.1)">
       <use xlink:href="#DejaVuSans-73"/>
       <use x="29.492188" xlink:href="#DejaVuSans-49"/>
       <use x="93.115234" xlink:href="#DejaVuSans-68"/>
      </g>
     </g>
    </g>
    <g id="xtick_7">
     <g id="line2d_27">
      <g>
       <use style="stroke:#000000;stroke-width:0.8;" x="485.221924" xlink:href="#mb15da774ac" y="251.273491"/>
      </g>
     </g>
     <g id="text_16">
      <!-- 2D -->
      <g transform="translate(478.190674 265.871928)scale(0.1 -0.1)">
       <use xlink:href="#DejaVuSans-50"/>
       <use x="63.623047" xlink:href="#DejaVuSans-68"/>
      </g>
     </g>
    </g>
    <g id="xtick_8">
     <g id="line2d_28">
      <g>
       <use style="stroke:#000000;stroke-width:0.8;" x="552.576773" xlink:href="#mb15da774ac" y="251.273491"/>
      </g>
     </g>
     <g id="text_17">
      <!-- R -->
      <defs>
       <path d="M 44.390625 34.1875
Q 47.5625 33.109375 50.5625 29.59375
Q 53.5625 26.078125 56.59375 19.921875
L 66.609375 0
L 56 0
L 46.6875 18.703125
Q 43.0625 26.03125 39.671875 28.421875
Q 36.28125 30.8125 30.421875 30.8125
L 19.671875 30.8125
L 19.671875 0
L 9.8125 0
L 9.8125 72.90625
L 32.078125 72.90625
Q 44.578125 72.90625 50.734375 67.671875
Q 56.890625 62.453125 56.890625 51.90625
Q 56.890625 45.015625 53.6875 40.46875
Q 50.484375 35.9375 44.390625 34.1875
z
M 19.671875 64.796875
L 19.671875 38.921875
L 32.078125 38.921875
Q 39.203125 38.921875 42.84375 42.21875
Q 46.484375 45.515625 46.484375 51.90625
Q 46.484375 58.296875 42.84375 61.546875
Q 39.203125 64.796875 32.078125 64.796875
z
" id="DejaVuSans-82"/>
      </defs>
      <g transform="translate(549.102554 265.871928)scale(0.1 -0.1)">
       <use xlink:href="#DejaVuSans-82"/>
      </g>
     </g>
    </g>
    <g id="text_18">
     <!-- Task -->
     <defs>
      <path d="M -0.296875 72.90625
L 61.375 72.90625
L 61.375 64.59375
L 35.5 64.59375
L 35.5 0
L 25.59375 0
L 25.59375 64.59375
L -0.296875 64.59375
z
" id="DejaVuSans-84"/>
      <path d="M 44.28125 53.078125
L 44.28125 44.578125
Q 40.484375 46.53125 36.375 47.5
Q 32.28125 48.484375 27.875 48.484375
Q 21.1875 48.484375 17.84375 46.4375
Q 14.5 44.390625 14.5 40.28125
Q 14.5 37.15625 16.890625 35.375
Q 19.28125 33.59375 26.515625 31.984375
L 29.59375 31.296875
Q 39.15625 29.25 43.1875 25.515625
Q 47.21875 21.78125 47.21875 15.09375
Q 47.21875 7.46875 41.1875 3.015625
Q 35.15625 -1.421875 24.609375 -1.421875
Q 20.21875 -1.421875 15.453125 -0.5625
Q 10.6875 0.296875 5.421875 2
L 5.421875 11.28125
Q 10.40625 8.6875 15.234375 7.390625
Q 20.0625 6.109375 24.8125 6.109375
Q 31.15625 6.109375 34.5625 8.28125
Q 37.984375 10.453125 37.984375 14.40625
Q 37.984375 18.0625 35.515625 20.015625
Q 33.0625 21.96875 24.703125 23.78125
L 21.578125 24.515625
Q 13.234375 26.265625 9.515625 29.90625
Q 5.8125 33.546875 5.8125 39.890625
Q 5.8125 47.609375 11.28125 51.796875
Q 16.75 56 26.8125 56
Q 31.78125 56 36.171875 55.265625
Q 40.578125 54.546875 44.28125 53.078125
z
" id="DejaVuSans-115"/>
      <path d="M 9.078125 75.984375
L 18.109375 75.984375
L 18.109375 31.109375
L 44.921875 54.6875
L 56.390625 54.6875
L 27.390625 29.109375
L 57.625 0
L 45.90625 0
L 18.109375 26.703125
L 18.109375 0
L 9.078125 0
z
" id="DejaVuSans-107"/>
     </defs>
     <g transform="translate(439.939031 279.550053)scale(0.1 -0.1)">
      <use xlink:href="#DejaVuSans-84"/>
      <use x="60.833984" xlink:href="#DejaVuSans-97"/>
      <use x="122.113281" xlink:href="#DejaVuSans-115"/>
      <use x="174.212891" xlink:href="#DejaVuSans-107"/>
     </g>
    </g>
   </g>
   <g id="matplotlib.axis_4">
    <g id="ytick_8">
     <g id="line2d_29">
      <path clip-path="url(#p7e7cf7972a)" d="M 340.409 247.905046
L 562.68 247.905046
" style="fill:none;stroke:#b0b0b0;stroke-dasharray:0.8,1.32;stroke-dashoffset:0;stroke-width:0.8;"/>
     </g>
     <g id="line2d_30">
      <g>
       <use style="stroke:#000000;stroke-width:0.8;" x="340.409" xlink:href="#m42db5ef629" y="247.905046"/>
      </g>
     </g>
     <g id="text_19">
      <!-- 2 -->
      <g transform="translate(327.0465 251.704265)scale(0.1 -0.1)">
       <use xlink:href="#DejaVuSans-50"/>
      </g>
     </g>
    </g>
    <g id="ytick_9">
     <g id="line2d_31">
      <path clip-path="url(#p7e7cf7972a)" d="M 340.409 217.330045
L 562.68 217.330045
" style="fill:none;stroke:#b0b0b0;stroke-dasharray:0.8,1.32;stroke-dashoffset:0;stroke-width:0.8;"/>
     </g>
     <g id="line2d_32">
      <g>
       <use style="stroke:#000000;stroke-width:0.8;" x="340.409" xlink:href="#m42db5ef629" y="217.330045"/>
      </g>
     </g>
     <g id="text_20">
      <!-- 3 -->
      <defs>
       <path d="M 40.578125 39.3125
Q 47.65625 37.796875 51.625 33
Q 55.609375 28.21875 55.609375 21.1875
Q 55.609375 10.40625 48.1875 4.484375
Q 40.765625 -1.421875 27.09375 -1.421875
Q 22.515625 -1.421875 17.65625 -0.515625
Q 12.796875 0.390625 7.625 2.203125
L 7.625 11.71875
Q 11.71875 9.328125 16.59375 8.109375
Q 21.484375 6.890625 26.8125 6.890625
Q 36.078125 6.890625 40.9375 10.546875
Q 45.796875 14.203125 45.796875 21.1875
Q 45.796875 27.640625 41.28125 31.265625
Q 36.765625 34.90625 28.71875 34.90625
L 20.21875 34.90625
L 20.21875 43.015625
L 29.109375 43.015625
Q 36.375 43.015625 40.234375 45.921875
Q 44.09375 48.828125 44.09375 54.296875
Q 44.09375 59.90625 40.109375 62.90625
Q 36.140625 65.921875 28.71875 65.921875
Q 24.65625 65.921875 20.015625 65.03125
Q 15.375 64.15625 9.8125 62.3125
L 9.8125 71.09375
Q 15.4375 72.65625 20.34375 73.4375
Q 25.25 74.21875 29.59375 74.21875
Q 40.828125 74.21875 47.359375 69.109375
Q 53.90625 64.015625 53.90625 55.328125
Q 53.90625 49.265625 50.4375 45.09375
Q 46.96875 40.921875 40.578125 39.3125
z
" id="DejaVuSans-51"/>
      </defs>
      <g transform="translate(327.0465 221.129264)scale(0.1 -0.1)">
       <use xlink:href="#DejaVuSans-51"/>
      </g>
     </g>
    </g>
    <g id="ytick_10">
     <g id="line2d_33">
      <path clip-path="url(#p7e7cf7972a)" d="M 340.409 186.755044
L 562.68 186.755044
" style="fill:none;stroke:#b0b0b0;stroke-dasharray:0.8,1.32;stroke-dashoffset:0;stroke-width:0.8;"/>
     </g>
     <g id="line2d_34">
      <g>
       <use style="stroke:#000000;stroke-width:0.8;" x="340.409" xlink:href="#m42db5ef629" y="186.755044"/>
      </g>
     </g>
     <g id="text_21">
      <!-- 4 -->
      <defs>
       <path d="M 37.796875 64.3125
L 12.890625 25.390625
L 37.796875 25.390625
z
M 35.203125 72.90625
L 47.609375 72.90625
L 47.609375 25.390625
L 58.015625 25.390625
L 58.015625 17.1875
L 47.609375 17.1875
L 47.609375 0
L 37.796875 0
L 37.796875 17.1875
L 4.890625 17.1875
L 4.890625 26.703125
z
" id="DejaVuSans-52"/>
      </defs>
      <g transform="translate(327.0465 190.554262)scale(0.1 -0.1)">
       <use xlink:href="#DejaVuSans-52"/>
      </g>
     </g>
    </g>
    <g id="ytick_11">
     <g id="line2d_35">
      <path clip-path="url(#p7e7cf7972a)" d="M 340.409 156.180042
L 562.68 156.180042
" style="fill:none;stroke:#b0b0b0;stroke-dasharray:0.8,1.32;stroke-dashoffset:0;stroke-width:0.8;"/>
     </g>
     <g id="line2d_36">
      <g>
       <use style="stroke:#000000;stroke-width:0.8;" x="340.409" xlink:href="#m42db5ef629" y="156.180042"/>
      </g>
     </g>
     <g id="text_22">
      <!-- 5 -->
      <g transform="translate(327.0465 159.979261)scale(0.1 -0.1)">
       <use xlink:href="#DejaVuSans-53"/>
      </g>
     </g>
    </g>
    <g id="ytick_12">
     <g id="line2d_37">
      <path clip-path="url(#p7e7cf7972a)" d="M 340.409 125.605041
L 562.68 125.605041
" style="fill:none;stroke:#b0b0b0;stroke-dasharray:0.8,1.32;stroke-dashoffset:0;stroke-width:0.8;"/>
     </g>
     <g id="line2d_38">
      <g>
       <use style="stroke:#000000;stroke-width:0.8;" x="340.409" xlink:href="#m42db5ef629" y="125.605041"/>
      </g>
     </g>
     <g id="text_23">
      <!-- 6 -->
      <g transform="translate(327.0465 129.40426)scale(0.1 -0.1)">
       <use xlink:href="#DejaVuSans-54"/>
      </g>
     </g>
    </g>
    <g id="ytick_13">
     <g id="line2d_39">
      <path clip-path="url(#p7e7cf7972a)" d="M 340.409 95.03004
L 562.68 95.03004
" style="fill:none;stroke:#b0b0b0;stroke-dasharray:0.8,1.32;stroke-dashoffset:0;stroke-width:0.8;"/>
     </g>
     <g id="line2d_40">
      <g>
       <use style="stroke:#000000;stroke-width:0.8;" x="340.409" xlink:href="#m42db5ef629" y="95.03004"/>
      </g>
     </g>
     <g id="text_24">
      <!-- 7 -->
      <g transform="translate(327.0465 98.829258)scale(0.1 -0.1)">
       <use xlink:href="#DejaVuSans-55"/>
      </g>
     </g>
    </g>
    <g id="ytick_14">
     <g id="line2d_41">
      <path clip-path="url(#p7e7cf7972a)" d="M 340.409 64.455038
L 562.68 64.455038
" style="fill:none;stroke:#b0b0b0;stroke-dasharray:0.8,1.32;stroke-dashoffset:0;stroke-width:0.8;"/>
     </g>
     <g id="line2d_42">
      <g>
       <use style="stroke:#000000;stroke-width:0.8;" x="340.409" xlink:href="#m42db5ef629" y="64.455038"/>
      </g>
     </g>
     <g id="text_25">
      <!-- 8 -->
      <defs>
       <path d="M 31.78125 34.625
Q 24.75 34.625 20.71875 30.859375
Q 16.703125 27.09375 16.703125 20.515625
Q 16.703125 13.921875 20.71875 10.15625
Q 24.75 6.390625 31.78125 6.390625
Q 38.8125 6.390625 42.859375 10.171875
Q 46.921875 13.96875 46.921875 20.515625
Q 46.921875 27.09375 42.890625 30.859375
Q 38.875 34.625 31.78125 34.625
z
M 21.921875 38.8125
Q 15.578125 40.375 12.03125 44.71875
Q 8.5 49.078125 8.5 55.328125
Q 8.5 64.0625 14.71875 69.140625
Q 20.953125 74.21875 31.78125 74.21875
Q 42.671875 74.21875 48.875 69.140625
Q 55.078125 64.0625 55.078125 55.328125
Q 55.078125 49.078125 51.53125 44.71875
Q 48 40.375 41.703125 38.8125
Q 48.828125 37.15625 52.796875 32.3125
Q 56.78125 27.484375 56.78125 20.515625
Q 56.78125 9.90625 50.3125 4.234375
Q 43.84375 -1.421875 31.78125 -1.421875
Q 19.734375 -1.421875 13.25 4.234375
Q 6.78125 9.90625 6.78125 20.515625
Q 6.78125 27.484375 10.78125 32.3125
Q 14.796875 37.15625 21.921875 38.8125
z
M 18.3125 54.390625
Q 18.3125 48.734375 21.84375 45.5625
Q 25.390625 42.390625 31.78125 42.390625
Q 38.140625 42.390625 41.71875 45.5625
Q 45.3125 48.734375 45.3125 54.390625
Q 45.3125 60.0625 41.71875 63.234375
Q 38.140625 66.40625 31.78125 66.40625
Q 25.390625 66.40625 21.84375 63.234375
Q 18.3125 60.0625 18.3125 54.390625
z
" id="DejaVuSans-56"/>
      </defs>
      <g transform="translate(327.0465 68.254257)scale(0.1 -0.1)">
       <use xlink:href="#DejaVuSans-56"/>
      </g>
     </g>
    </g>
    <g id="ytick_15">
     <g id="line2d_43">
      <path clip-path="url(#p7e7cf7972a)" d="M 340.409 33.880037
L 562.68 33.880037
" style="fill:none;stroke:#b0b0b0;stroke-dasharray:0.8,1.32;stroke-dashoffset:0;stroke-width:0.8;"/>
     </g>
     <g id="line2d_44">
      <g>
       <use style="stroke:#000000;stroke-width:0.8;" x="340.409" xlink:href="#m42db5ef629" y="33.880037"/>
      </g>
     </g>
     <g id="text_26">
      <!-- 9 -->
      <defs>
       <path d="M 10.984375 1.515625
L 10.984375 10.5
Q 14.703125 8.734375 18.5 7.8125
Q 22.3125 6.890625 25.984375 6.890625
Q 35.75 6.890625 40.890625 13.453125
Q 46.046875 20.015625 46.78125 33.40625
Q 43.953125 29.203125 39.59375 26.953125
Q 35.25 24.703125 29.984375 24.703125
Q 19.046875 24.703125 12.671875 31.3125
Q 6.296875 37.9375 6.296875 49.421875
Q 6.296875 60.640625 12.9375 67.421875
Q 19.578125 74.21875 30.609375 74.21875
Q 43.265625 74.21875 49.921875 64.515625
Q 56.59375 54.828125 56.59375 36.375
Q 56.59375 19.140625 48.40625 8.859375
Q 40.234375 -1.421875 26.421875 -1.421875
Q 22.703125 -1.421875 18.890625 -0.6875
Q 15.09375 0.046875 10.984375 1.515625
z
M 30.609375 32.421875
Q 37.25 32.421875 41.125 36.953125
Q 45.015625 41.5 45.015625 49.421875
Q 45.015625 57.28125 41.125 61.84375
Q 37.25 66.40625 30.609375 66.40625
Q 23.96875 66.40625 20.09375 61.84375
Q 16.21875 57.28125 16.21875 49.421875
Q 16.21875 41.5 20.09375 36.953125
Q 23.96875 32.421875 30.609375 32.421875
z
" id="DejaVuSans-57"/>
      </defs>
      <g transform="translate(327.0465 37.679256)scale(0.1 -0.1)">
       <use xlink:href="#DejaVuSans-57"/>
      </g>
     </g>
    </g>
    <g id="text_27">
     <!-- Mean rating of -->
     <g transform="translate(309.769 168.729558)rotate(-90)scale(0.1 -0.1)">
      <use xlink:href="#DejaVuSans-77"/>
      <use x="86.279297" xlink:href="#DejaVuSans-101"/>
      <use x="147.802734" xlink:href="#DejaVuSans-97"/>
      <use x="209.082031" xlink:href="#DejaVuSans-110"/>
      <use x="272.460938" xlink:href="#DejaVuSans-32"/>
      <use x="304.248047" xlink:href="#DejaVuSans-114"/>
      <use x="345.361328" xlink:href="#DejaVuSans-97"/>
      <use x="406.640625" xlink:href="#DejaVuSans-116"/>
      <use x="445.849609" xlink:href="#DejaVuSans-105"/>
      <use x="473.632812" xlink:href="#DejaVuSans-110"/>
      <use x="537.011719" xlink:href="#DejaVuSans-103"/>
      <use x="600.488281" xlink:href="#DejaVuSans-32"/>
      <use x="632.275391" xlink:href="#DejaVuSans-111"/>
      <use x="693.457031" xlink:href="#DejaVuSans-102"/>
     </g>
     <!-- complexity -->
     <g transform="translate(320.966813 159.882683)rotate(-90)scale(0.1 -0.1)">
      <use xlink:href="#DejaVuSans-99"/>
      <use x="54.980469" xlink:href="#DejaVuSans-111"/>
      <use x="116.162109" xlink:href="#DejaVuSans-109"/>
      <use x="213.574219" xlink:href="#DejaVuSans-112"/>
      <use x="277.050781" xlink:href="#DejaVuSans-108"/>
      <use x="304.833984" xlink:href="#DejaVuSans-101"/>
      <use x="366.341797" xlink:href="#DejaVuSans-120"/>
      <use x="425.521484" xlink:href="#DejaVuSans-105"/>
      <use x="453.304688" xlink:href="#DejaVuSans-116"/>
      <use x="492.513672" xlink:href="#DejaVuSans-121"/>
     </g>
    </g>
   </g>
   <g id="LineCollection_3">
    <path clip-path="url(#p7e7cf7972a)" d="M 350.512227 240.457423
L 350.512227 232.862851
" style="fill:none;stroke:#1f77b4;stroke-width:1.5;"/>
    <path clip-path="url(#p7e7cf7972a)" d="M 417.867076 197.581468
L 417.867076 187.824061
" style="fill:none;stroke:#1f77b4;stroke-width:1.5;"/>
    <path clip-path="url(#p7e7cf7972a)" d="M 485.221924 97.893164
L 485.221924 90.122386
" style="fill:none;stroke:#1f77b4;stroke-width:1.5;"/>
    <path clip-path="url(#p7e7cf7972a)" d="M 552.576773 28.568838
L 552.576773 24.136068
" style="fill:none;stroke:#1f77b4;stroke-width:1.5;"/>
   </g>
   <g id="line2d_45">
    <defs>
     <path d="M 5 0
L -5 -0
" id="m8a20b5bed9" style="stroke:#1f77b4;"/>
    </defs>
    <g clip-path="url(#p7e7cf7972a)">
     <use style="fill:#1f77b4;stroke:#1f77b4;" x="350.512227" xlink:href="#m8a20b5bed9" y="240.457423"/>
     <use style="fill:#1f77b4;stroke:#1f77b4;" x="417.867076" xlink:href="#m8a20b5bed9" y="197.581468"/>
     <use style="fill:#1f77b4;stroke:#1f77b4;" x="485.221924" xlink:href="#m8a20b5bed9" y="97.893164"/>
     <use style="fill:#1f77b4;stroke:#1f77b4;" x="552.576773" xlink:href="#m8a20b5bed9" y="28.568838"/>
    </g>
   </g>
   <g id="line2d_46">
    <g clip-path="url(#p7e7cf7972a)">
     <use style="fill:#1f77b4;stroke:#1f77b4;" x="350.512227" xlink:href="#m8a20b5bed9" y="232.862851"/>
     <use style="fill:#1f77b4;stroke:#1f77b4;" x="417.867076" xlink:href="#m8a20b5bed9" y="187.824061"/>
     <use style="fill:#1f77b4;stroke:#1f77b4;" x="485.221924" xlink:href="#m8a20b5bed9" y="90.122386"/>
     <use style="fill:#1f77b4;stroke:#1f77b4;" x="552.576773" xlink:href="#m8a20b5bed9" y="24.136068"/>
    </g>
   </g>
   <g id="line2d_47">
    <path clip-path="url(#p7e7cf7972a)" d="M 350.512227 236.660137
L 417.867076 192.702764
L 485.221924 94.007775
L 552.576773 26.352453
" style="fill:none;stroke:#1f77b4;stroke-linecap:square;stroke-width:1.5;"/>
   </g>
   <g id="patch_10">
    <path d="M 340.409 251.273491
L 340.409 13.32
" style="fill:none;stroke:#000000;stroke-linecap:square;stroke-linejoin:miter;stroke-width:0.8;"/>
   </g>
   <g id="patch_11">
    <path d="M 340.409 251.273491
L 562.68 251.273491
" style="fill:none;stroke:#000000;stroke-linecap:square;stroke-linejoin:miter;stroke-width:0.8;"/>
   </g>
  </g>
  <g id="axes_3">
   <g id="patch_12">
    <path d="M 65.684 534.04
L 562.68 534.04
L 562.68 296.086509
L 65.684 296.086509
z
" style="fill:#ffffff;"/>
   </g>
   <g id="matplotlib.axis_5">
    <g id="xtick_9">
     <g id="line2d_48">
      <g>
       <use style="stroke:#000000;stroke-width:0.8;" x="94.219656" xlink:href="#mb15da774ac" y="534.04"/>
      </g>
     </g>
     <g id="text_28">
      <!-- 1D -->
      <g transform="translate(87.188406 548.638438)scale(0.1 -0.1)">
       <use xlink:href="#DejaVuSans-49"/>
       <use x="63.623047" xlink:href="#DejaVuSans-68"/>
      </g>
     </g>
    </g>
    <g id="xtick_10">
     <g id="line2d_49">
      <g>
       <use style="stroke:#000000;stroke-width:0.8;" x="242.842861" xlink:href="#mb15da774ac" y="534.04"/>
      </g>
     </g>
     <g id="text_29">
      <!-- I1D -->
      <g transform="translate(234.336611 548.638438)scale(0.1 -0.1)">
       <use xlink:href="#DejaVuSans-73"/>
       <use x="29.492188" xlink:href="#DejaVuSans-49"/>
       <use x="93.115234" xlink:href="#DejaVuSans-68"/>
      </g>
     </g>
    </g>
    <g id="xtick_11">
     <g id="line2d_50">
      <g>
       <use style="stroke:#000000;stroke-width:0.8;" x="391.466067" xlink:href="#mb15da774ac" y="534.04"/>
      </g>
     </g>
     <g id="text_30">
      <!-- 2D -->
      <g transform="translate(384.434817 548.638438)scale(0.1 -0.1)">
       <use xlink:href="#DejaVuSans-50"/>
       <use x="63.623047" xlink:href="#DejaVuSans-68"/>
      </g>
     </g>
    </g>
    <g id="xtick_12">
     <g id="line2d_51">
      <g>
       <use style="stroke:#000000;stroke-width:0.8;" x="540.089273" xlink:href="#mb15da774ac" y="534.04"/>
      </g>
     </g>
     <g id="text_31">
      <!-- R -->
      <g transform="translate(536.615054 548.638438)scale(0.1 -0.1)">
       <use xlink:href="#DejaVuSans-82"/>
      </g>
     </g>
    </g>
    <g id="text_32">
     <!-- Task -->
     <g transform="translate(302.576531 562.316562)scale(0.1 -0.1)">
      <use xlink:href="#DejaVuSans-84"/>
      <use x="60.833984" xlink:href="#DejaVuSans-97"/>
      <use x="122.113281" xlink:href="#DejaVuSans-115"/>
      <use x="174.212891" xlink:href="#DejaVuSans-107"/>
     </g>
    </g>
   </g>
   <g id="matplotlib.axis_6">
    <g id="ytick_16">
     <g id="line2d_52">
      <path clip-path="url(#p68db7d7ae5)" d="M 65.684 521.465068
L 562.68 521.465068
" style="fill:none;stroke:#b0b0b0;stroke-dasharray:0.8,1.32;stroke-dashoffset:0;stroke-width:0.8;"/>
     </g>
     <g id="line2d_53">
      <g>
       <use style="stroke:#000000;stroke-width:0.8;" x="65.684" xlink:href="#m42db5ef629" y="521.465068"/>
      </g>
     </g>
     <g id="text_33">
      <!-- 2 -->
      <g transform="translate(52.3215 525.264286)scale(0.1 -0.1)">
       <use xlink:href="#DejaVuSans-50"/>
      </g>
     </g>
    </g>
    <g id="ytick_17">
     <g id="line2d_54">
      <path clip-path="url(#p68db7d7ae5)" d="M 65.684 493.456073
L 562.68 493.456073
" style="fill:none;stroke:#b0b0b0;stroke-dasharray:0.8,1.32;stroke-dashoffset:0;stroke-width:0.8;"/>
     </g>
     <g id="line2d_55">
      <g>
       <use style="stroke:#000000;stroke-width:0.8;" x="65.684" xlink:href="#m42db5ef629" y="493.456073"/>
      </g>
     </g>
     <g id="text_34">
      <!-- 3 -->
      <g transform="translate(52.3215 497.255291)scale(0.1 -0.1)">
       <use xlink:href="#DejaVuSans-51"/>
      </g>
     </g>
    </g>
    <g id="ytick_18">
     <g id="line2d_56">
      <path clip-path="url(#p68db7d7ae5)" d="M 65.684 465.447077
L 562.68 465.447077
" style="fill:none;stroke:#b0b0b0;stroke-dasharray:0.8,1.32;stroke-dashoffset:0;stroke-width:0.8;"/>
     </g>
     <g id="line2d_57">
      <g>
       <use style="stroke:#000000;stroke-width:0.8;" x="65.684" xlink:href="#m42db5ef629" y="465.447077"/>
      </g>
     </g>
     <g id="text_35">
      <!-- 4 -->
      <g transform="translate(52.3215 469.246296)scale(0.1 -0.1)">
       <use xlink:href="#DejaVuSans-52"/>
      </g>
     </g>
    </g>
    <g id="ytick_19">
     <g id="line2d_58">
      <path clip-path="url(#p68db7d7ae5)" d="M 65.684 437.438082
L 562.68 437.438082
" style="fill:none;stroke:#b0b0b0;stroke-dasharray:0.8,1.32;stroke-dashoffset:0;stroke-width:0.8;"/>
     </g>
     <g id="line2d_59">
      <g>
       <use style="stroke:#000000;stroke-width:0.8;" x="65.684" xlink:href="#m42db5ef629" y="437.438082"/>
      </g>
     </g>
     <g id="text_36">
      <!-- 5 -->
      <g transform="translate(52.3215 441.237301)scale(0.1 -0.1)">
       <use xlink:href="#DejaVuSans-53"/>
      </g>
     </g>
    </g>
    <g id="ytick_20">
     <g id="line2d_60">
      <path clip-path="url(#p68db7d7ae5)" d="M 65.684 409.429087
L 562.68 409.429087
" style="fill:none;stroke:#b0b0b0;stroke-dasharray:0.8,1.32;stroke-dashoffset:0;stroke-width:0.8;"/>
     </g>
     <g id="line2d_61">
      <g>
       <use style="stroke:#000000;stroke-width:0.8;" x="65.684" xlink:href="#m42db5ef629" y="409.429087"/>
      </g>
     </g>
     <g id="text_37">
      <!-- 6 -->
      <g transform="translate(52.3215 413.228306)scale(0.1 -0.1)">
       <use xlink:href="#DejaVuSans-54"/>
      </g>
     </g>
    </g>
    <g id="ytick_21">
     <g id="line2d_62">
      <path clip-path="url(#p68db7d7ae5)" d="M 65.684 381.420092
L 562.68 381.420092
" style="fill:none;stroke:#b0b0b0;stroke-dasharray:0.8,1.32;stroke-dashoffset:0;stroke-width:0.8;"/>
     </g>
     <g id="line2d_63">
      <g>
       <use style="stroke:#000000;stroke-width:0.8;" x="65.684" xlink:href="#m42db5ef629" y="381.420092"/>
      </g>
     </g>
     <g id="text_38">
      <!-- 7 -->
      <g transform="translate(52.3215 385.219311)scale(0.1 -0.1)">
       <use xlink:href="#DejaVuSans-55"/>
      </g>
     </g>
    </g>
    <g id="ytick_22">
     <g id="line2d_64">
      <path clip-path="url(#p68db7d7ae5)" d="M 65.684 353.411097
L 562.68 353.411097
" style="fill:none;stroke:#b0b0b0;stroke-dasharray:0.8,1.32;stroke-dashoffset:0;stroke-width:0.8;"/>
     </g>
     <g id="line2d_65">
      <g>
       <use style="stroke:#000000;stroke-width:0.8;" x="65.684" xlink:href="#m42db5ef629" y="353.411097"/>
      </g>
     </g>
     <g id="text_39">
      <!-- 8 -->
      <g transform="translate(52.3215 357.210316)scale(0.1 -0.1)">
       <use xlink:href="#DejaVuSans-56"/>
      </g>
     </g>
    </g>
    <g id="ytick_23">
     <g id="line2d_66">
      <path clip-path="url(#p68db7d7ae5)" d="M 65.684 325.402102
L 562.68 325.402102
" style="fill:none;stroke:#b0b0b0;stroke-dasharray:0.8,1.32;stroke-dashoffset:0;stroke-width:0.8;"/>
     </g>
     <g id="line2d_67">
      <g>
       <use style="stroke:#000000;stroke-width:0.8;" x="65.684" xlink:href="#m42db5ef629" y="325.402102"/>
      </g>
     </g>
     <g id="text_40">
      <!-- 9 -->
      <g transform="translate(52.3215 329.201321)scale(0.1 -0.1)">
       <use xlink:href="#DejaVuSans-57"/>
      </g>
     </g>
    </g>
    <g id="ytick_24">
     <g id="line2d_68">
      <path clip-path="url(#p68db7d7ae5)" d="M 65.684 297.393107
L 562.68 297.393107
" style="fill:none;stroke:#b0b0b0;stroke-dasharray:0.8,1.32;stroke-dashoffset:0;stroke-width:0.8;"/>
     </g>
     <g id="line2d_69">
      <g>
       <use style="stroke:#000000;stroke-width:0.8;" x="65.684" xlink:href="#m42db5ef629" y="297.393107"/>
      </g>
     </g>
     <g id="text_41">
      <!-- 10 -->
      <g transform="translate(45.959 301.192326)scale(0.1 -0.1)">
       <use xlink:href="#DejaVuSans-49"/>
       <use x="63.623047" xlink:href="#DejaVuSans-48"/>
      </g>
     </g>
    </g>
    <g id="text_42">
     <!-- Mean rating of -->
     <g transform="translate(28.6815 451.496067)rotate(-90)scale(0.1 -0.1)">
      <use xlink:href="#DejaVuSans-77"/>
      <use x="86.279297" xlink:href="#DejaVuSans-101"/>
      <use x="147.802734" xlink:href="#DejaVuSans-97"/>
      <use x="209.082031" xlink:href="#DejaVuSans-110"/>
      <use x="272.460938" xlink:href="#DejaVuSans-32"/>
      <use x="304.248047" xlink:href="#DejaVuSans-114"/>
      <use x="345.361328" xlink:href="#DejaVuSans-97"/>
      <use x="406.640625" xlink:href="#DejaVuSans-116"/>
      <use x="445.849609" xlink:href="#DejaVuSans-105"/>
      <use x="473.632812" xlink:href="#DejaVuSans-110"/>
      <use x="537.011719" xlink:href="#DejaVuSans-103"/>
      <use x="600.488281" xlink:href="#DejaVuSans-32"/>
      <use x="632.275391" xlink:href="#DejaVuSans-111"/>
      <use x="693.457031" xlink:href="#DejaVuSans-102"/>
     </g>
     <!-- complexity -->
     <g transform="translate(39.879313 442.649192)rotate(-90)scale(0.1 -0.1)">
      <use xlink:href="#DejaVuSans-99"/>
      <use x="54.980469" xlink:href="#DejaVuSans-111"/>
      <use x="116.162109" xlink:href="#DejaVuSans-109"/>
      <use x="213.574219" xlink:href="#DejaVuSans-112"/>
      <use x="277.050781" xlink:href="#DejaVuSans-108"/>
      <use x="304.833984" xlink:href="#DejaVuSans-101"/>
      <use x="366.341797" xlink:href="#DejaVuSans-120"/>
      <use x="425.521484" xlink:href="#DejaVuSans-105"/>
      <use x="453.304688" xlink:href="#DejaVuSans-116"/>
      <use x="492.513672" xlink:href="#DejaVuSans-121"/>
     </g>
    </g>
   </g>
   <g id="LineCollection_4">
    <path clip-path="url(#p68db7d7ae5)" d="M 88.274727 509.34077
L 88.274727 492.462233
" style="fill:none;stroke:#008fd5;stroke-width:1.5;"/>
    <path clip-path="url(#p68db7d7ae5)" d="M 236.897933 478.445817
L 236.897933 461.666489
" style="fill:none;stroke:#008fd5;stroke-width:1.5;"/>
    <path clip-path="url(#p68db7d7ae5)" d="M 385.521139 374.780493
L 385.521139 361.823418
" style="fill:none;stroke:#008fd5;stroke-width:1.5;"/>
    <path clip-path="url(#p68db7d7ae5)" d="M 534.144344 330.054332
L 534.144344 320.749873
" style="fill:none;stroke:#008fd5;stroke-width:1.5;"/>
   </g>
   <g id="LineCollection_5">
    <path clip-path="url(#p68db7d7ae5)" d="M 91.247191 523.223932
L 91.247191 509.249511
" style="fill:none;stroke:#008fd5;stroke-width:1.5;"/>
    <path clip-path="url(#p68db7d7ae5)" d="M 239.870397 467.858657
L 239.870397 448.097367
" style="fill:none;stroke:#008fd5;stroke-width:1.5;"/>
    <path clip-path="url(#p68db7d7ae5)" d="M 388.493603 379.223856
L 388.493603 364.943665
" style="fill:none;stroke:#008fd5;stroke-width:1.5;"/>
    <path clip-path="url(#p68db7d7ae5)" d="M 537.116809 327.167164
L 537.116809 319.155601
" style="fill:none;stroke:#008fd5;stroke-width:1.5;"/>
   </g>
   <g id="LineCollection_6">
    <path clip-path="url(#p68db7d7ae5)" d="M 91.247191 523.030077
L 91.247191 513.202255
" style="fill:none;stroke:#fc4f30;stroke-width:1.5;"/>
    <path clip-path="url(#p68db7d7ae5)" d="M 239.870397 490.163012
L 239.870397 474.220159
" style="fill:none;stroke:#fc4f30;stroke-width:1.5;"/>
    <path clip-path="url(#p68db7d7ae5)" d="M 388.493603 401.999122
L 388.493603 388.241166
" style="fill:none;stroke:#fc4f30;stroke-width:1.5;"/>
    <path clip-path="url(#p68db7d7ae5)" d="M 537.116809 314.065959
L 537.116809 306.902577
" style="fill:none;stroke:#fc4f30;stroke-width:1.5;"/>
   </g>
   <g id="LineCollection_7">
    <path clip-path="url(#p68db7d7ae5)" d="M 94.219656 516.100083
L 94.219656 501.183262
" style="fill:none;stroke:#fc4f30;stroke-width:1.5;"/>
    <path clip-path="url(#p68db7d7ae5)" d="M 242.842861 480.418609
L 242.842861 461.274195
" style="fill:none;stroke:#fc4f30;stroke-width:1.5;"/>
    <path clip-path="url(#p68db7d7ae5)" d="M 391.466067 391.033202
L 391.466067 375.856476
" style="fill:none;stroke:#fc4f30;stroke-width:1.5;"/>
    <path clip-path="url(#p68db7d7ae5)" d="M 540.089273 320.526727
L 540.089273 312.729673
" style="fill:none;stroke:#fc4f30;stroke-width:1.5;"/>
   </g>
   <g id="line2d_70">
    <defs>
     <path d="M 5 0
L -5 -0
" id="mf6ecd5ece0" style="stroke:#008fd5;"/>
    </defs>
    <g clip-path="url(#p68db7d7ae5)">
     <use style="fill:#008fd5;stroke:#008fd5;" x="88.274727" xlink:href="#mf6ecd5ece0" y="509.34077"/>
     <use style="fill:#008fd5;stroke:#008fd5;" x="236.897933" xlink:href="#mf6ecd5ece0" y="478.445817"/>
     <use style="fill:#008fd5;stroke:#008fd5;" x="385.521139" xlink:href="#mf6ecd5ece0" y="374.780493"/>
     <use style="fill:#008fd5;stroke:#008fd5;" x="534.144344" xlink:href="#mf6ecd5ece0" y="330.054332"/>
    </g>
   </g>
   <g id="line2d_71">
    <g clip-path="url(#p68db7d7ae5)">
     <use style="fill:#008fd5;stroke:#008fd5;" x="88.274727" xlink:href="#mf6ecd5ece0" y="492.462233"/>
     <use style="fill:#008fd5;stroke:#008fd5;" x="236.897933" xlink:href="#mf6ecd5ece0" y="461.666489"/>
     <use style="fill:#008fd5;stroke:#008fd5;" x="385.521139" xlink:href="#mf6ecd5ece0" y="361.823418"/>
     <use style="fill:#008fd5;stroke:#008fd5;" x="534.144344" xlink:href="#mf6ecd5ece0" y="320.749873"/>
    </g>
   </g>
   <g id="line2d_72">
    <g clip-path="url(#p68db7d7ae5)">
     <use style="fill:#008fd5;stroke:#008fd5;" x="91.247191" xlink:href="#mf6ecd5ece0" y="523.223932"/>
     <use style="fill:#008fd5;stroke:#008fd5;" x="239.870397" xlink:href="#mf6ecd5ece0" y="467.858657"/>
     <use style="fill:#008fd5;stroke:#008fd5;" x="388.493603" xlink:href="#mf6ecd5ece0" y="379.223856"/>
     <use style="fill:#008fd5;stroke:#008fd5;" x="537.116809" xlink:href="#mf6ecd5ece0" y="327.167164"/>
    </g>
   </g>
   <g id="line2d_73">
    <g clip-path="url(#p68db7d7ae5)">
     <use style="fill:#008fd5;stroke:#008fd5;" x="91.247191" xlink:href="#mf6ecd5ece0" y="509.249511"/>
     <use style="fill:#008fd5;stroke:#008fd5;" x="239.870397" xlink:href="#mf6ecd5ece0" y="448.097367"/>
     <use style="fill:#008fd5;stroke:#008fd5;" x="388.493603" xlink:href="#mf6ecd5ece0" y="364.943665"/>
     <use style="fill:#008fd5;stroke:#008fd5;" x="537.116809" xlink:href="#mf6ecd5ece0" y="319.155601"/>
    </g>
   </g>
   <g id="line2d_74">
    <defs>
     <path d="M 5 0
L -5 -0
" id="m332fcc3a5e" style="stroke:#fc4f30;"/>
    </defs>
    <g clip-path="url(#p68db7d7ae5)">
     <use style="fill:#fc4f30;stroke:#fc4f30;" x="91.247191" xlink:href="#m332fcc3a5e" y="523.030077"/>
     <use style="fill:#fc4f30;stroke:#fc4f30;" x="239.870397" xlink:href="#m332fcc3a5e" y="490.163012"/>
     <use style="fill:#fc4f30;stroke:#fc4f30;" x="388.493603" xlink:href="#m332fcc3a5e" y="401.999122"/>
     <use style="fill:#fc4f30;stroke:#fc4f30;" x="537.116809" xlink:href="#m332fcc3a5e" y="314.065959"/>
    </g>
   </g>
   <g id="line2d_75">
    <g clip-path="url(#p68db7d7ae5)">
     <use style="fill:#fc4f30;stroke:#fc4f30;" x="91.247191" xlink:href="#m332fcc3a5e" y="513.202255"/>
     <use style="fill:#fc4f30;stroke:#fc4f30;" x="239.870397" xlink:href="#m332fcc3a5e" y="474.220159"/>
     <use style="fill:#fc4f30;stroke:#fc4f30;" x="388.493603" xlink:href="#m332fcc3a5e" y="388.241166"/>
     <use style="fill:#fc4f30;stroke:#fc4f30;" x="537.116809" xlink:href="#m332fcc3a5e" y="306.902577"/>
    </g>
   </g>
   <g id="line2d_76">
    <g clip-path="url(#p68db7d7ae5)">
     <use style="fill:#fc4f30;stroke:#fc4f30;" x="94.219656" xlink:href="#m332fcc3a5e" y="516.100083"/>
     <use style="fill:#fc4f30;stroke:#fc4f30;" x="242.842861" xlink:href="#m332fcc3a5e" y="480.418609"/>
     <use style="fill:#fc4f30;stroke:#fc4f30;" x="391.466067" xlink:href="#m332fcc3a5e" y="391.033202"/>
     <use style="fill:#fc4f30;stroke:#fc4f30;" x="540.089273" xlink:href="#m332fcc3a5e" y="320.526727"/>
    </g>
   </g>
   <g id="line2d_77">
    <g clip-path="url(#p68db7d7ae5)">
     <use style="fill:#fc4f30;stroke:#fc4f30;" x="94.219656" xlink:href="#m332fcc3a5e" y="501.183262"/>
     <use style="fill:#fc4f30;stroke:#fc4f30;" x="242.842861" xlink:href="#m332fcc3a5e" y="461.274195"/>
     <use style="fill:#fc4f30;stroke:#fc4f30;" x="391.466067" xlink:href="#m332fcc3a5e" y="375.856476"/>
     <use style="fill:#fc4f30;stroke:#fc4f30;" x="540.089273" xlink:href="#m332fcc3a5e" y="312.729673"/>
    </g>
   </g>
   <g id="line2d_78">
    <path clip-path="url(#p68db7d7ae5)" d="M 88.274727 500.901502
L 236.897933 470.056153
L 385.521139 368.301955
L 534.144344 325.402102
" style="fill:none;stroke:#008fd5;stroke-dasharray:5.55,2.4;stroke-dashoffset:0;stroke-width:1.5;"/>
   </g>
   <g id="line2d_79">
    <path clip-path="url(#p68db7d7ae5)" d="M 91.247191 516.236722
L 239.870397 457.978012
L 388.493603 372.083761
L 537.116809 323.161383
" style="fill:none;stroke:#008fd5;stroke-linecap:square;stroke-width:1.5;"/>
   </g>
   <g id="line2d_80">
    <path clip-path="url(#p68db7d7ae5)" d="M 91.247191 518.116166
L 239.870397 482.191585
L 388.493603 395.120144
L 537.116809 310.484268
" style="fill:none;stroke:#fc4f30;stroke-dasharray:5.55,2.4;stroke-dashoffset:0;stroke-width:1.5;"/>
   </g>
   <g id="line2d_81">
    <path clip-path="url(#p68db7d7ae5)" d="M 94.219656 508.641672
L 242.842861 470.846402
L 391.466067 383.444839
L 540.089273 316.6282
" style="fill:none;stroke:#fc4f30;stroke-linecap:square;stroke-width:1.5;"/>
   </g>
   <g id="patch_13">
    <path d="M 65.684 534.04
L 65.684 296.086509
" style="fill:none;stroke:#000000;stroke-linecap:square;stroke-linejoin:miter;stroke-width:0.8;"/>
   </g>
   <g id="patch_14">
    <path d="M 65.684 534.04
L 562.68 534.04
" style="fill:none;stroke:#000000;stroke-linecap:square;stroke-linejoin:miter;stroke-width:0.8;"/>
   </g>
   <g id="legend_1">
    <g id="patch_15">
     <path d="M 72.684 362.799009
L 217.3965 362.799009
Q 219.3965 362.799009 219.3965 360.799009
L 219.3965 303.086509
Q 219.3965 301.086509 217.3965 301.086509
L 72.684 301.086509
Q 70.684 301.086509 70.684 303.086509
L 70.684 360.799009
Q 70.684 362.799009 72.684 362.799009
z
" style="fill:#ffffff;opacity:0.8;stroke:#cccccc;stroke-linejoin:miter;"/>
    </g>
    <g id="LineCollection_8">
     <path d="M 84.684 314.184947
L 84.684 304.184947
" style="fill:none;stroke:#008fd5;stroke-width:1.5;"/>
    </g>
    <g id="line2d_82">
     <g>
      <use style="fill:#008fd5;stroke:#008fd5;" x="84.684" xlink:href="#mf6ecd5ece0" y="314.184947"/>
     </g>
    </g>
    <g id="line2d_83">
     <g>
      <use style="fill:#008fd5;stroke:#008fd5;" x="84.684" xlink:href="#mf6ecd5ece0" y="304.184947"/>
     </g>
    </g>
    <g id="line2d_84">
     <path d="M 74.684 309.184947
L 94.684 309.184947
" style="fill:none;stroke:#008fd5;stroke-dasharray:5.55,2.4;stroke-dashoffset:0;stroke-width:1.5;"/>
    </g>
    <g id="line2d_85"/>
    <g id="text_43">
     <!-- Free / uninformed -->
     <g transform="translate(102.684 312.684947)scale(0.1 -0.1)">
      <use xlink:href="#DejaVuSans-70"/>
      <use x="57.410156" xlink:href="#DejaVuSans-114"/>
      <use x="98.492188" xlink:href="#DejaVuSans-101"/>
      <use x="160.015625" xlink:href="#DejaVuSans-101"/>
      <use x="221.539062" xlink:href="#DejaVuSans-32"/>
      <use x="253.326172" xlink:href="#DejaVuSans-47"/>
      <use x="287.017578" xlink:href="#DejaVuSans-32"/>
      <use x="318.804688" xlink:href="#DejaVuSans-117"/>
      <use x="382.183594" xlink:href="#DejaVuSans-110"/>
      <use x="445.5625" xlink:href="#DejaVuSans-105"/>
      <use x="473.345703" xlink:href="#DejaVuSans-110"/>
      <use x="536.724609" xlink:href="#DejaVuSans-102"/>
      <use x="571.929688" xlink:href="#DejaVuSans-111"/>
      <use x="633.111328" xlink:href="#DejaVuSans-114"/>
      <use x="674.208984" xlink:href="#DejaVuSans-109"/>
      <use x="771.621094" xlink:href="#DejaVuSans-101"/>
      <use x="833.144531" xlink:href="#DejaVuSans-100"/>
     </g>
    </g>
    <g id="LineCollection_9">
     <path d="M 84.684 328.863072
L 84.684 318.863072
" style="fill:none;stroke:#008fd5;stroke-width:1.5;"/>
    </g>
    <g id="line2d_86">
     <g>
      <use style="fill:#008fd5;stroke:#008fd5;" x="84.684" xlink:href="#mf6ecd5ece0" y="328.863072"/>
     </g>
    </g>
    <g id="line2d_87">
     <g>
      <use style="fill:#008fd5;stroke:#008fd5;" x="84.684" xlink:href="#mf6ecd5ece0" y="318.863072"/>
     </g>
    </g>
    <g id="line2d_88">
     <path d="M 74.684 323.863072
L 94.684 323.863072
" style="fill:none;stroke:#008fd5;stroke-linecap:square;stroke-width:1.5;"/>
    </g>
    <g id="line2d_89"/>
    <g id="text_44">
     <!-- Free / informed -->
     <g transform="translate(102.684 327.363072)scale(0.1 -0.1)">
      <use xlink:href="#DejaVuSans-70"/>
      <use x="57.410156" xlink:href="#DejaVuSans-114"/>
      <use x="98.492188" xlink:href="#DejaVuSans-101"/>
      <use x="160.015625" xlink:href="#DejaVuSans-101"/>
      <use x="221.539062" xlink:href="#DejaVuSans-32"/>
      <use x="253.326172" xlink:href="#DejaVuSans-47"/>
      <use x="287.017578" xlink:href="#DejaVuSans-32"/>
      <use x="318.804688" xlink:href="#DejaVuSans-105"/>
      <use x="346.587891" xlink:href="#DejaVuSans-110"/>
      <use x="409.966797" xlink:href="#DejaVuSans-102"/>
      <use x="445.171875" xlink:href="#DejaVuSans-111"/>
      <use x="506.353516" xlink:href="#DejaVuSans-114"/>
      <use x="547.451172" xlink:href="#DejaVuSans-109"/>
      <use x="644.863281" xlink:href="#DejaVuSans-101"/>
      <use x="706.386719" xlink:href="#DejaVuSans-100"/>
     </g>
    </g>
    <g id="LineCollection_10">
     <path d="M 84.684 343.541197
L 84.684 333.541197
" style="fill:none;stroke:#fc4f30;stroke-width:1.5;"/>
    </g>
    <g id="line2d_90">
     <g>
      <use style="fill:#fc4f30;stroke:#fc4f30;" x="84.684" xlink:href="#m332fcc3a5e" y="343.541197"/>
     </g>
    </g>
    <g id="line2d_91">
     <g>
      <use style="fill:#fc4f30;stroke:#fc4f30;" x="84.684" xlink:href="#m332fcc3a5e" y="333.541197"/>
     </g>
    </g>
    <g id="line2d_92">
     <path d="M 74.684 338.541197
L 94.684 338.541197
" style="fill:none;stroke:#fc4f30;stroke-dasharray:5.55,2.4;stroke-dashoffset:0;stroke-width:1.5;"/>
    </g>
    <g id="line2d_93"/>
    <g id="text_45">
     <!-- Strategic / uninformed -->
     <g transform="translate(102.684 342.041197)scale(0.1 -0.1)">
      <use xlink:href="#DejaVuSans-83"/>
      <use x="63.476562" xlink:href="#DejaVuSans-116"/>
      <use x="102.685547" xlink:href="#DejaVuSans-114"/>
      <use x="143.798828" xlink:href="#DejaVuSans-97"/>
      <use x="205.078125" xlink:href="#DejaVuSans-116"/>
      <use x="244.287109" xlink:href="#DejaVuSans-101"/>
      <use x="305.810547" xlink:href="#DejaVuSans-103"/>
      <use x="369.287109" xlink:href="#DejaVuSans-105"/>
      <use x="397.070312" xlink:href="#DejaVuSans-99"/>
      <use x="452.050781" xlink:href="#DejaVuSans-32"/>
      <use x="483.837891" xlink:href="#DejaVuSans-47"/>
      <use x="517.529297" xlink:href="#DejaVuSans-32"/>
      <use x="549.316406" xlink:href="#DejaVuSans-117"/>
      <use x="612.695312" xlink:href="#DejaVuSans-110"/>
      <use x="676.074219" xlink:href="#DejaVuSans-105"/>
      <use x="703.857422" xlink:href="#DejaVuSans-110"/>
      <use x="767.236328" xlink:href="#DejaVuSans-102"/>
      <use x="802.441406" xlink:href="#DejaVuSans-111"/>
      <use x="863.623047" xlink:href="#DejaVuSans-114"/>
      <use x="904.720703" xlink:href="#DejaVuSans-109"/>
      <use x="1002.132812" xlink:href="#DejaVuSans-101"/>
      <use x="1063.65625" xlink:href="#DejaVuSans-100"/>
     </g>
    </g>
    <g id="LineCollection_11">
     <path d="M 84.684 358.219322
L 84.684 348.219322
" style="fill:none;stroke:#fc4f30;stroke-width:1.5;"/>
    </g>
    <g id="line2d_94">
     <g>
      <use style="fill:#fc4f30;stroke:#fc4f30;" x="84.684" xlink:href="#m332fcc3a5e" y="358.219322"/>
     </g>
    </g>
    <g id="line2d_95">
     <g>
      <use style="fill:#fc4f30;stroke:#fc4f30;" x="84.684" xlink:href="#m332fcc3a5e" y="348.219322"/>
     </g>
    </g>
    <g id="line2d_96">
     <path d="M 74.684 353.219322
L 94.684 353.219322
" style="fill:none;stroke:#fc4f30;stroke-linecap:square;stroke-width:1.5;"/>
    </g>
    <g id="line2d_97"/>
    <g id="text_46">
     <!-- Strategic / informed -->
     <g transform="translate(102.684 356.719322)scale(0.1 -0.1)">
      <use xlink:href="#DejaVuSans-83"/>
      <use x="63.476562" xlink:href="#DejaVuSans-116"/>
      <use x="102.685547" xlink:href="#DejaVuSans-114"/>
      <use x="143.798828" xlink:href="#DejaVuSans-97"/>
      <use x="205.078125" xlink:href="#DejaVuSans-116"/>
      <use x="244.287109" xlink:href="#DejaVuSans-101"/>
      <use x="305.810547" xlink:href="#DejaVuSans-103"/>
      <use x="369.287109" xlink:href="#DejaVuSans-105"/>
      <use x="397.070312" xlink:href="#DejaVuSans-99"/>
      <use x="452.050781" xlink:href="#DejaVuSans-32"/>
      <use x="483.837891" xlink:href="#DejaVuSans-47"/>
      <use x="517.529297" xlink:href="#DejaVuSans-32"/>
      <use x="549.316406" xlink:href="#DejaVuSans-105"/>
      <use x="577.099609" xlink:href="#DejaVuSans-110"/>
      <use x="640.478516" xlink:href="#DejaVuSans-102"/>
      <use x="675.683594" xlink:href="#DejaVuSans-111"/>
      <use x="736.865234" xlink:href="#DejaVuSans-114"/>
      <use x="777.962891" xlink:href="#DejaVuSans-109"/>
      <use x="875.375" xlink:href="#DejaVuSans-101"/>
      <use x="936.898438" xlink:href="#DejaVuSans-100"/>
     </g>
    </g>
   </g>
  </g>
 </g>
 <defs>
  <clipPath id="pc5685635ad">
   <rect height="237.953491" width="222.271" x="65.684" y="13.32"/>
  </clipPath>
  <clipPath id="p7e7cf7972a">
   <rect height="237.953491" width="222.271" x="340.409" y="13.32"/>
  </clipPath>
  <clipPath id="p68db7d7ae5">
   <rect height="237.953491" width="496.996" x="65.684" y="296.086509"/>
  </clipPath>
 </defs>
</svg>
