<?xml version="1.0" encoding="utf-8" standalone="no"?>
<!DOCTYPE svg PUBLIC "-//W3C//DTD SVG 1.1//EN"
  "http://www.w3.org/Graphics/SVG/1.1/DTD/svg11.dtd">
<!-- Created with matplotlib (https://matplotlib.org/) -->
<svg height="576pt" version="1.1" viewBox="0 0 576 576" width="576pt" xmlns="http://www.w3.org/2000/svg" xmlns:xlink="http://www.w3.org/1999/xlink">
 <defs>
  <style type="text/css">
*{stroke-linecap:butt;stroke-linejoin:round;}
  </style>
 </defs>
 <g id="figure_1">
  <g id="patch_1">
   <path d="M 0 576
L 576 576
L 576 0
L 0 0
z
" style="fill:#ffffff;"/>
  </g>
  <g id="axes_1">
   <g id="patch_2">
    <path d="M 74.054 251.44
L 287.955 251.44
L 287.955 13.32
L 74.054 13.32
z
" style="fill:#ffffff;"/>
   </g>
   <g id="matplotlib.axis_1">
    <g id="xtick_1">
     <g id="line2d_1">
      <defs>
       <path d="M 0 0
L 0 3.5
" id="ma7296841f4" style="stroke:#000000;stroke-width:0.8;"/>
      </defs>
      <g>
       <use style="stroke:#000000;stroke-width:0.8;" x="101.634927" xlink:href="#ma7296841f4" y="251.44"/>
      </g>
     </g>
     <g id="text_1">
      <!-- F -->
      <defs>
       <path d="M 9.8125 72.90625
L 51.703125 72.90625
L 51.703125 64.59375
L 19.671875 64.59375
L 19.671875 43.109375
L 48.578125 43.109375
L 48.578125 34.8125
L 19.671875 34.8125
L 19.671875 0
L 9.8125 0
z
" id="DejaVuSans-70"/>
      </defs>
      <g transform="translate(98.759145 266.038437)scale(0.1 -0.1)">
       <use xlink:href="#DejaVuSans-70"/>
      </g>
     </g>
    </g>
    <g id="xtick_2">
     <g id="line2d_2">
      <g>
       <use style="stroke:#000000;stroke-width:0.8;" x="141.319713" xlink:href="#ma7296841f4" y="251.44"/>
      </g>
     </g>
     <g id="text_2">
      <!-- S -->
      <defs>
       <path d="M 53.515625 70.515625
L 53.515625 60.890625
Q 47.90625 63.578125 42.921875 64.890625
Q 37.9375 66.21875 33.296875 66.21875
Q 25.25 66.21875 20.875 63.09375
Q 16.5 59.96875 16.5 54.203125
Q 16.5 49.359375 19.40625 46.890625
Q 22.3125 44.4375 30.421875 42.921875
L 36.375 41.703125
Q 47.40625 39.59375 52.65625 34.296875
Q 57.90625 29 57.90625 20.125
Q 57.90625 9.515625 50.796875 4.046875
Q 43.703125 -1.421875 29.984375 -1.421875
Q 24.8125 -1.421875 18.96875 -0.25
Q 13.140625 0.921875 6.890625 3.21875
L 6.890625 13.375
Q 12.890625 10.015625 18.65625 8.296875
Q 24.421875 6.59375 29.984375 6.59375
Q 38.421875 6.59375 43.015625 9.90625
Q 47.609375 13.234375 47.609375 19.390625
Q 47.609375 24.75 44.3125 27.78125
Q 41.015625 30.8125 33.5 32.328125
L 27.484375 33.5
Q 16.453125 35.6875 11.515625 40.375
Q 6.59375 45.0625 6.59375 53.421875
Q 6.59375 63.09375 13.40625 68.65625
Q 20.21875 74.21875 32.171875 74.21875
Q 37.3125 74.21875 42.625 73.28125
Q 47.953125 72.359375 53.515625 70.515625
z
" id="DejaVuSans-83"/>
      </defs>
      <g transform="translate(138.145495 266.038437)scale(0.1 -0.1)">
       <use xlink:href="#DejaVuSans-83"/>
      </g>
     </g>
    </g>
    <g id="xtick_3">
     <g id="line2d_3">
      <g>
       <use style="stroke:#000000;stroke-width:0.8;" x="220.689287" xlink:href="#ma7296841f4" y="251.44"/>
      </g>
     </g>
     <g id="text_3">
      <!-- i- -->
      <defs>
       <path d="M 9.421875 54.6875
L 18.40625 54.6875
L 18.40625 0
L 9.421875 0
z
M 9.421875 75.984375
L 18.40625 75.984375
L 18.40625 64.59375
L 9.421875 64.59375
z
" id="DejaVuSans-105"/>
       <path d="M 4.890625 31.390625
L 31.203125 31.390625
L 31.203125 23.390625
L 4.890625 23.390625
z
" id="DejaVuSans-45"/>
      </defs>
      <g transform="translate(217.496318 266.038437)scale(0.1 -0.1)">
       <use xlink:href="#DejaVuSans-105"/>
       <use x="27.783203" xlink:href="#DejaVuSans-45"/>
      </g>
     </g>
    </g>
    <g id="xtick_4">
     <g id="line2d_4">
      <g>
       <use style="stroke:#000000;stroke-width:0.8;" x="260.374073" xlink:href="#ma7296841f4" y="251.44"/>
      </g>
     </g>
     <g id="text_4">
      <!-- i+ -->
      <defs>
       <path d="M 46 62.703125
L 46 35.5
L 73.1875 35.5
L 73.1875 27.203125
L 46 27.203125
L 46 0
L 37.796875 0
L 37.796875 27.203125
L 10.59375 27.203125
L 10.59375 35.5
L 37.796875 35.5
L 37.796875 62.703125
z
" id="DejaVuSans-43"/>
      </defs>
      <g transform="translate(254.795167 266.038437)scale(0.1 -0.1)">
       <use xlink:href="#DejaVuSans-105"/>
       <use x="27.783203" xlink:href="#DejaVuSans-43"/>
      </g>
     </g>
    </g>
    <g id="text_5">
     <!-- Group / Condition -->
     <defs>
      <path d="M 59.515625 10.40625
L 59.515625 29.984375
L 43.40625 29.984375
L 43.40625 38.09375
L 69.28125 38.09375
L 69.28125 6.78125
Q 63.578125 2.734375 56.6875 0.65625
Q 49.8125 -1.421875 42 -1.421875
Q 24.90625 -1.421875 15.25 8.5625
Q 5.609375 18.5625 5.609375 36.375
Q 5.609375 54.25 15.25 64.234375
Q 24.90625 74.21875 42 74.21875
Q 49.125 74.21875 55.546875 72.453125
Q 61.96875 70.703125 67.390625 67.28125
L 67.390625 56.78125
Q 61.921875 61.421875 55.765625 63.765625
Q 49.609375 66.109375 42.828125 66.109375
Q 29.4375 66.109375 22.71875 58.640625
Q 16.015625 51.171875 16.015625 36.375
Q 16.015625 21.625 22.71875 14.15625
Q 29.4375 6.6875 42.828125 6.6875
Q 48.046875 6.6875 52.140625 7.59375
Q 56.25 8.5 59.515625 10.40625
z
" id="DejaVuSans-71"/>
      <path d="M 41.109375 46.296875
Q 39.59375 47.171875 37.8125 47.578125
Q 36.03125 48 33.890625 48
Q 26.265625 48 22.1875 43.046875
Q 18.109375 38.09375 18.109375 28.8125
L 18.109375 0
L 9.078125 0
L 9.078125 54.6875
L 18.109375 54.6875
L 18.109375 46.1875
Q 20.953125 51.171875 25.484375 53.578125
Q 30.03125 56 36.53125 56
Q 37.453125 56 38.578125 55.875
Q 39.703125 55.765625 41.0625 55.515625
z
" id="DejaVuSans-114"/>
      <path d="M 30.609375 48.390625
Q 23.390625 48.390625 19.1875 42.75
Q 14.984375 37.109375 14.984375 27.296875
Q 14.984375 17.484375 19.15625 11.84375
Q 23.34375 6.203125 30.609375 6.203125
Q 37.796875 6.203125 41.984375 11.859375
Q 46.1875 17.53125 46.1875 27.296875
Q 46.1875 37.015625 41.984375 42.703125
Q 37.796875 48.390625 30.609375 48.390625
z
M 30.609375 56
Q 42.328125 56 49.015625 48.375
Q 55.71875 40.765625 55.71875 27.296875
Q 55.71875 13.875 49.015625 6.21875
Q 42.328125 -1.421875 30.609375 -1.421875
Q 18.84375 -1.421875 12.171875 6.21875
Q 5.515625 13.875 5.515625 27.296875
Q 5.515625 40.765625 12.171875 48.375
Q 18.84375 56 30.609375 56
z
" id="DejaVuSans-111"/>
      <path d="M 8.5 21.578125
L 8.5 54.6875
L 17.484375 54.6875
L 17.484375 21.921875
Q 17.484375 14.15625 20.5 10.265625
Q 23.53125 6.390625 29.59375 6.390625
Q 36.859375 6.390625 41.078125 11.03125
Q 45.3125 15.671875 45.3125 23.6875
L 45.3125 54.6875
L 54.296875 54.6875
L 54.296875 0
L 45.3125 0
L 45.3125 8.40625
Q 42.046875 3.421875 37.71875 1
Q 33.40625 -1.421875 27.6875 -1.421875
Q 18.265625 -1.421875 13.375 4.4375
Q 8.5 10.296875 8.5 21.578125
z
M 31.109375 56
z
" id="DejaVuSans-117"/>
      <path d="M 18.109375 8.203125
L 18.109375 -20.796875
L 9.078125 -20.796875
L 9.078125 54.6875
L 18.109375 54.6875
L 18.109375 46.390625
Q 20.953125 51.265625 25.265625 53.625
Q 29.59375 56 35.59375 56
Q 45.5625 56 51.78125 48.09375
Q 58.015625 40.1875 58.015625 27.296875
Q 58.015625 14.40625 51.78125 6.484375
Q 45.5625 -1.421875 35.59375 -1.421875
Q 29.59375 -1.421875 25.265625 0.953125
Q 20.953125 3.328125 18.109375 8.203125
z
M 48.6875 27.296875
Q 48.6875 37.203125 44.609375 42.84375
Q 40.53125 48.484375 33.40625 48.484375
Q 26.265625 48.484375 22.1875 42.84375
Q 18.109375 37.203125 18.109375 27.296875
Q 18.109375 17.390625 22.1875 11.75
Q 26.265625 6.109375 33.40625 6.109375
Q 40.53125 6.109375 44.609375 11.75
Q 48.6875 17.390625 48.6875 27.296875
z
" id="DejaVuSans-112"/>
      <path id="DejaVuSans-32"/>
      <path d="M 25.390625 72.90625
L 33.6875 72.90625
L 8.296875 -9.28125
L 0 -9.28125
z
" id="DejaVuSans-47"/>
      <path d="M 64.40625 67.28125
L 64.40625 56.890625
Q 59.421875 61.53125 53.78125 63.8125
Q 48.140625 66.109375 41.796875 66.109375
Q 29.296875 66.109375 22.65625 58.46875
Q 16.015625 50.828125 16.015625 36.375
Q 16.015625 21.96875 22.65625 14.328125
Q 29.296875 6.6875 41.796875 6.6875
Q 48.140625 6.6875 53.78125 8.984375
Q 59.421875 11.28125 64.40625 15.921875
L 64.40625 5.609375
Q 59.234375 2.09375 53.4375 0.328125
Q 47.65625 -1.421875 41.21875 -1.421875
Q 24.65625 -1.421875 15.125 8.703125
Q 5.609375 18.84375 5.609375 36.375
Q 5.609375 53.953125 15.125 64.078125
Q 24.65625 74.21875 41.21875 74.21875
Q 47.75 74.21875 53.53125 72.484375
Q 59.328125 70.75 64.40625 67.28125
z
" id="DejaVuSans-67"/>
      <path d="M 54.890625 33.015625
L 54.890625 0
L 45.90625 0
L 45.90625 32.71875
Q 45.90625 40.484375 42.875 44.328125
Q 39.84375 48.1875 33.796875 48.1875
Q 26.515625 48.1875 22.3125 43.546875
Q 18.109375 38.921875 18.109375 30.90625
L 18.109375 0
L 9.078125 0
L 9.078125 54.6875
L 18.109375 54.6875
L 18.109375 46.1875
Q 21.34375 51.125 25.703125 53.5625
Q 30.078125 56 35.796875 56
Q 45.21875 56 50.046875 50.171875
Q 54.890625 44.34375 54.890625 33.015625
z
" id="DejaVuSans-110"/>
      <path d="M 45.40625 46.390625
L 45.40625 75.984375
L 54.390625 75.984375
L 54.390625 0
L 45.40625 0
L 45.40625 8.203125
Q 42.578125 3.328125 38.25 0.953125
Q 33.9375 -1.421875 27.875 -1.421875
Q 17.96875 -1.421875 11.734375 6.484375
Q 5.515625 14.40625 5.515625 27.296875
Q 5.515625 40.1875 11.734375 48.09375
Q 17.96875 56 27.875 56
Q 33.9375 56 38.25 53.625
Q 42.578125 51.265625 45.40625 46.390625
z
M 14.796875 27.296875
Q 14.796875 17.390625 18.875 11.75
Q 22.953125 6.109375 30.078125 6.109375
Q 37.203125 6.109375 41.296875 11.75
Q 45.40625 17.390625 45.40625 27.296875
Q 45.40625 37.203125 41.296875 42.84375
Q 37.203125 48.484375 30.078125 48.484375
Q 22.953125 48.484375 18.875 42.84375
Q 14.796875 37.203125 14.796875 27.296875
z
" id="DejaVuSans-100"/>
      <path d="M 18.3125 70.21875
L 18.3125 54.6875
L 36.8125 54.6875
L 36.8125 47.703125
L 18.3125 47.703125
L 18.3125 18.015625
Q 18.3125 11.328125 20.140625 9.421875
Q 21.96875 7.515625 27.59375 7.515625
L 36.8125 7.515625
L 36.8125 0
L 27.59375 0
Q 17.1875 0 13.234375 3.875
Q 9.28125 7.765625 9.28125 18.015625
L 9.28125 47.703125
L 2.6875 47.703125
L 2.6875 54.6875
L 9.28125 54.6875
L 9.28125 70.21875
z
" id="DejaVuSans-116"/>
     </defs>
     <g transform="translate(136.951375 279.716563)scale(0.1 -0.1)">
      <use xlink:href="#DejaVuSans-71"/>
      <use x="77.490234" xlink:href="#DejaVuSans-114"/>
      <use x="118.572266" xlink:href="#DejaVuSans-111"/>
      <use x="179.753906" xlink:href="#DejaVuSans-117"/>
      <use x="243.132812" xlink:href="#DejaVuSans-112"/>
      <use x="306.609375" xlink:href="#DejaVuSans-32"/>
      <use x="338.396484" xlink:href="#DejaVuSans-47"/>
      <use x="372.087891" xlink:href="#DejaVuSans-32"/>
      <use x="403.875" xlink:href="#DejaVuSans-67"/>
      <use x="473.699219" xlink:href="#DejaVuSans-111"/>
      <use x="534.880859" xlink:href="#DejaVuSans-110"/>
      <use x="598.259766" xlink:href="#DejaVuSans-100"/>
      <use x="661.736328" xlink:href="#DejaVuSans-105"/>
      <use x="689.519531" xlink:href="#DejaVuSans-116"/>
      <use x="728.728516" xlink:href="#DejaVuSans-105"/>
      <use x="756.511719" xlink:href="#DejaVuSans-111"/>
      <use x="817.693359" xlink:href="#DejaVuSans-110"/>
     </g>
    </g>
   </g>
   <g id="matplotlib.axis_2">
    <g id="ytick_1">
     <g id="line2d_5">
      <path clip-path="url(#p7e6c13f1ce)" d="M 74.054 227.718953
L 287.955 227.718953
" style="fill:none;stroke:#b0b0b0;stroke-dasharray:0.8,1.32;stroke-dashoffset:0;stroke-width:0.8;"/>
     </g>
     <g id="line2d_6">
      <defs>
       <path d="M 0 0
L -3.5 0
" id="m488b376ffe" style="stroke:#000000;stroke-width:0.8;"/>
      </defs>
      <g>
       <use style="stroke:#000000;stroke-width:0.8;" x="74.054" xlink:href="#m488b376ffe" y="227.718953"/>
      </g>
     </g>
     <g id="text_6">
      <!-- −1.25 -->
      <defs>
       <path d="M 10.59375 35.5
L 73.1875 35.5
L 73.1875 27.203125
L 10.59375 27.203125
z
" id="DejaVuSans-8722"/>
       <path d="M 12.40625 8.296875
L 28.515625 8.296875
L 28.515625 63.921875
L 10.984375 60.40625
L 10.984375 69.390625
L 28.421875 72.90625
L 38.28125 72.90625
L 38.28125 8.296875
L 54.390625 8.296875
L 54.390625 0
L 12.40625 0
z
" id="DejaVuSans-49"/>
       <path d="M 10.6875 12.40625
L 21 12.40625
L 21 0
L 10.6875 0
z
" id="DejaVuSans-46"/>
       <path d="M 19.1875 8.296875
L 53.609375 8.296875
L 53.609375 0
L 7.328125 0
L 7.328125 8.296875
Q 12.9375 14.109375 22.625 23.890625
Q 32.328125 33.6875 34.8125 36.53125
Q 39.546875 41.84375 41.421875 45.53125
Q 43.3125 49.21875 43.3125 52.78125
Q 43.3125 58.59375 39.234375 62.25
Q 35.15625 65.921875 28.609375 65.921875
Q 23.96875 65.921875 18.8125 64.3125
Q 13.671875 62.703125 7.8125 59.421875
L 7.8125 69.390625
Q 13.765625 71.78125 18.9375 73
Q 24.125 74.21875 28.421875 74.21875
Q 39.75 74.21875 46.484375 68.546875
Q 53.21875 62.890625 53.21875 53.421875
Q 53.21875 48.921875 51.53125 44.890625
Q 49.859375 40.875 45.40625 35.40625
Q 44.1875 33.984375 37.640625 27.21875
Q 31.109375 20.453125 19.1875 8.296875
z
" id="DejaVuSans-50"/>
       <path d="M 10.796875 72.90625
L 49.515625 72.90625
L 49.515625 64.59375
L 19.828125 64.59375
L 19.828125 46.734375
Q 21.96875 47.46875 24.109375 47.828125
Q 26.265625 48.1875 28.421875 48.1875
Q 40.625 48.1875 47.75 41.5
Q 54.890625 34.8125 54.890625 23.390625
Q 54.890625 11.625 47.5625 5.09375
Q 40.234375 -1.421875 26.90625 -1.421875
Q 22.3125 -1.421875 17.546875 -0.640625
Q 12.796875 0.140625 7.71875 1.703125
L 7.71875 11.625
Q 12.109375 9.234375 16.796875 8.0625
Q 21.484375 6.890625 26.703125 6.890625
Q 35.15625 6.890625 40.078125 11.328125
Q 45.015625 15.765625 45.015625 23.390625
Q 45.015625 31 40.078125 35.4375
Q 35.15625 39.890625 26.703125 39.890625
Q 22.75 39.890625 18.8125 39.015625
Q 14.890625 38.140625 10.796875 36.28125
z
" id="DejaVuSans-53"/>
      </defs>
      <g transform="translate(36.408687 231.518171)scale(0.1 -0.1)">
       <use xlink:href="#DejaVuSans-8722"/>
       <use x="83.789062" xlink:href="#DejaVuSans-49"/>
       <use x="147.412109" xlink:href="#DejaVuSans-46"/>
       <use x="179.199219" xlink:href="#DejaVuSans-50"/>
       <use x="242.822266" xlink:href="#DejaVuSans-53"/>
      </g>
     </g>
    </g>
    <g id="ytick_2">
     <g id="line2d_7">
      <path clip-path="url(#p7e6c13f1ce)" d="M 74.054 199.641793
L 287.955 199.641793
" style="fill:none;stroke:#b0b0b0;stroke-dasharray:0.8,1.32;stroke-dashoffset:0;stroke-width:0.8;"/>
     </g>
     <g id="line2d_8">
      <g>
       <use style="stroke:#000000;stroke-width:0.8;" x="74.054" xlink:href="#m488b376ffe" y="199.641793"/>
      </g>
     </g>
     <g id="text_7">
      <!-- −1.00 -->
      <defs>
       <path d="M 31.78125 66.40625
Q 24.171875 66.40625 20.328125 58.90625
Q 16.5 51.421875 16.5 36.375
Q 16.5 21.390625 20.328125 13.890625
Q 24.171875 6.390625 31.78125 6.390625
Q 39.453125 6.390625 43.28125 13.890625
Q 47.125 21.390625 47.125 36.375
Q 47.125 51.421875 43.28125 58.90625
Q 39.453125 66.40625 31.78125 66.40625
z
M 31.78125 74.21875
Q 44.046875 74.21875 50.515625 64.515625
Q 56.984375 54.828125 56.984375 36.375
Q 56.984375 17.96875 50.515625 8.265625
Q 44.046875 -1.421875 31.78125 -1.421875
Q 19.53125 -1.421875 13.0625 8.265625
Q 6.59375 17.96875 6.59375 36.375
Q 6.59375 54.828125 13.0625 64.515625
Q 19.53125 74.21875 31.78125 74.21875
z
" id="DejaVuSans-48"/>
      </defs>
      <g transform="translate(36.408687 203.441012)scale(0.1 -0.1)">
       <use xlink:href="#DejaVuSans-8722"/>
       <use x="83.789062" xlink:href="#DejaVuSans-49"/>
       <use x="147.412109" xlink:href="#DejaVuSans-46"/>
       <use x="179.199219" xlink:href="#DejaVuSans-48"/>
       <use x="242.822266" xlink:href="#DejaVuSans-48"/>
      </g>
     </g>
    </g>
    <g id="ytick_3">
     <g id="line2d_9">
      <path clip-path="url(#p7e6c13f1ce)" d="M 74.054 171.564633
L 287.955 171.564633
" style="fill:none;stroke:#b0b0b0;stroke-dasharray:0.8,1.32;stroke-dashoffset:0;stroke-width:0.8;"/>
     </g>
     <g id="line2d_10">
      <g>
       <use style="stroke:#000000;stroke-width:0.8;" x="74.054" xlink:href="#m488b376ffe" y="171.564633"/>
      </g>
     </g>
     <g id="text_8">
      <!-- −0.75 -->
      <defs>
       <path d="M 8.203125 72.90625
L 55.078125 72.90625
L 55.078125 68.703125
L 28.609375 0
L 18.3125 0
L 43.21875 64.59375
L 8.203125 64.59375
z
" id="DejaVuSans-55"/>
      </defs>
      <g transform="translate(36.408687 175.363852)scale(0.1 -0.1)">
       <use xlink:href="#DejaVuSans-8722"/>
       <use x="83.789062" xlink:href="#DejaVuSans-48"/>
       <use x="147.412109" xlink:href="#DejaVuSans-46"/>
       <use x="179.199219" xlink:href="#DejaVuSans-55"/>
       <use x="242.822266" xlink:href="#DejaVuSans-53"/>
      </g>
     </g>
    </g>
    <g id="ytick_4">
     <g id="line2d_11">
      <path clip-path="url(#p7e6c13f1ce)" d="M 74.054 143.487473
L 287.955 143.487473
" style="fill:none;stroke:#b0b0b0;stroke-dasharray:0.8,1.32;stroke-dashoffset:0;stroke-width:0.8;"/>
     </g>
     <g id="line2d_12">
      <g>
       <use style="stroke:#000000;stroke-width:0.8;" x="74.054" xlink:href="#m488b376ffe" y="143.487473"/>
      </g>
     </g>
     <g id="text_9">
      <!-- −0.50 -->
      <g transform="translate(36.408687 147.286692)scale(0.1 -0.1)">
       <use xlink:href="#DejaVuSans-8722"/>
       <use x="83.789062" xlink:href="#DejaVuSans-48"/>
       <use x="147.412109" xlink:href="#DejaVuSans-46"/>
       <use x="179.199219" xlink:href="#DejaVuSans-53"/>
       <use x="242.822266" xlink:href="#DejaVuSans-48"/>
      </g>
     </g>
    </g>
    <g id="ytick_5">
     <g id="line2d_13">
      <path clip-path="url(#p7e6c13f1ce)" d="M 74.054 115.410314
L 287.955 115.410314
" style="fill:none;stroke:#b0b0b0;stroke-dasharray:0.8,1.32;stroke-dashoffset:0;stroke-width:0.8;"/>
     </g>
     <g id="line2d_14">
      <g>
       <use style="stroke:#000000;stroke-width:0.8;" x="74.054" xlink:href="#m488b376ffe" y="115.410314"/>
      </g>
     </g>
     <g id="text_10">
      <!-- −0.25 -->
      <g transform="translate(36.408687 119.209532)scale(0.1 -0.1)">
       <use xlink:href="#DejaVuSans-8722"/>
       <use x="83.789062" xlink:href="#DejaVuSans-48"/>
       <use x="147.412109" xlink:href="#DejaVuSans-46"/>
       <use x="179.199219" xlink:href="#DejaVuSans-50"/>
       <use x="242.822266" xlink:href="#DejaVuSans-53"/>
      </g>
     </g>
    </g>
    <g id="ytick_6">
     <g id="line2d_15">
      <path clip-path="url(#p7e6c13f1ce)" d="M 74.054 87.333154
L 287.955 87.333154
" style="fill:none;stroke:#b0b0b0;stroke-dasharray:0.8,1.32;stroke-dashoffset:0;stroke-width:0.8;"/>
     </g>
     <g id="line2d_16">
      <g>
       <use style="stroke:#000000;stroke-width:0.8;" x="74.054" xlink:href="#m488b376ffe" y="87.333154"/>
      </g>
     </g>
     <g id="text_11">
      <!-- 0.00 -->
      <g transform="translate(44.788375 91.132373)scale(0.1 -0.1)">
       <use xlink:href="#DejaVuSans-48"/>
       <use x="63.623047" xlink:href="#DejaVuSans-46"/>
       <use x="95.410156" xlink:href="#DejaVuSans-48"/>
       <use x="159.033203" xlink:href="#DejaVuSans-48"/>
      </g>
     </g>
    </g>
    <g id="ytick_7">
     <g id="line2d_17">
      <path clip-path="url(#p7e6c13f1ce)" d="M 74.054 59.255994
L 287.955 59.255994
" style="fill:none;stroke:#b0b0b0;stroke-dasharray:0.8,1.32;stroke-dashoffset:0;stroke-width:0.8;"/>
     </g>
     <g id="line2d_18">
      <g>
       <use style="stroke:#000000;stroke-width:0.8;" x="74.054" xlink:href="#m488b376ffe" y="59.255994"/>
      </g>
     </g>
     <g id="text_12">
      <!-- 0.25 -->
      <g transform="translate(44.788375 63.055213)scale(0.1 -0.1)">
       <use xlink:href="#DejaVuSans-48"/>
       <use x="63.623047" xlink:href="#DejaVuSans-46"/>
       <use x="95.410156" xlink:href="#DejaVuSans-50"/>
       <use x="159.033203" xlink:href="#DejaVuSans-53"/>
      </g>
     </g>
    </g>
    <g id="ytick_8">
     <g id="line2d_19">
      <path clip-path="url(#p7e6c13f1ce)" d="M 74.054 31.178835
L 287.955 31.178835
" style="fill:none;stroke:#b0b0b0;stroke-dasharray:0.8,1.32;stroke-dashoffset:0;stroke-width:0.8;"/>
     </g>
     <g id="line2d_20">
      <g>
       <use style="stroke:#000000;stroke-width:0.8;" x="74.054" xlink:href="#m488b376ffe" y="31.178835"/>
      </g>
     </g>
     <g id="text_13">
      <!-- 0.50 -->
      <g transform="translate(44.788375 34.978053)scale(0.1 -0.1)">
       <use xlink:href="#DejaVuSans-48"/>
       <use x="63.623047" xlink:href="#DejaVuSans-46"/>
       <use x="95.410156" xlink:href="#DejaVuSans-53"/>
       <use x="159.033203" xlink:href="#DejaVuSans-48"/>
      </g>
     </g>
    </g>
    <g id="text_14">
     <!-- Mean rating of -->
     <defs>
      <path d="M 9.8125 72.90625
L 24.515625 72.90625
L 43.109375 23.296875
L 61.8125 72.90625
L 76.515625 72.90625
L 76.515625 0
L 66.890625 0
L 66.890625 64.015625
L 48.09375 14.015625
L 38.1875 14.015625
L 19.390625 64.015625
L 19.390625 0
L 9.8125 0
z
" id="DejaVuSans-77"/>
      <path d="M 56.203125 29.59375
L 56.203125 25.203125
L 14.890625 25.203125
Q 15.484375 15.921875 20.484375 11.0625
Q 25.484375 6.203125 34.421875 6.203125
Q 39.59375 6.203125 44.453125 7.46875
Q 49.3125 8.734375 54.109375 11.28125
L 54.109375 2.78125
Q 49.265625 0.734375 44.1875 -0.34375
Q 39.109375 -1.421875 33.890625 -1.421875
Q 20.796875 -1.421875 13.15625 6.1875
Q 5.515625 13.8125 5.515625 26.8125
Q 5.515625 40.234375 12.765625 48.109375
Q 20.015625 56 32.328125 56
Q 43.359375 56 49.78125 48.890625
Q 56.203125 41.796875 56.203125 29.59375
z
M 47.21875 32.234375
Q 47.125 39.59375 43.09375 43.984375
Q 39.0625 48.390625 32.421875 48.390625
Q 24.90625 48.390625 20.390625 44.140625
Q 15.875 39.890625 15.1875 32.171875
z
" id="DejaVuSans-101"/>
      <path d="M 34.28125 27.484375
Q 23.390625 27.484375 19.1875 25
Q 14.984375 22.515625 14.984375 16.5
Q 14.984375 11.71875 18.140625 8.90625
Q 21.296875 6.109375 26.703125 6.109375
Q 34.1875 6.109375 38.703125 11.40625
Q 43.21875 16.703125 43.21875 25.484375
L 43.21875 27.484375
z
M 52.203125 31.203125
L 52.203125 0
L 43.21875 0
L 43.21875 8.296875
Q 40.140625 3.328125 35.546875 0.953125
Q 30.953125 -1.421875 24.3125 -1.421875
Q 15.921875 -1.421875 10.953125 3.296875
Q 6 8.015625 6 15.921875
Q 6 25.140625 12.171875 29.828125
Q 18.359375 34.515625 30.609375 34.515625
L 43.21875 34.515625
L 43.21875 35.40625
Q 43.21875 41.609375 39.140625 45
Q 35.0625 48.390625 27.6875 48.390625
Q 23 48.390625 18.546875 47.265625
Q 14.109375 46.140625 10.015625 43.890625
L 10.015625 52.203125
Q 14.9375 54.109375 19.578125 55.046875
Q 24.21875 56 28.609375 56
Q 40.484375 56 46.34375 49.84375
Q 52.203125 43.703125 52.203125 31.203125
z
" id="DejaVuSans-97"/>
      <path d="M 45.40625 27.984375
Q 45.40625 37.75 41.375 43.109375
Q 37.359375 48.484375 30.078125 48.484375
Q 22.859375 48.484375 18.828125 43.109375
Q 14.796875 37.75 14.796875 27.984375
Q 14.796875 18.265625 18.828125 12.890625
Q 22.859375 7.515625 30.078125 7.515625
Q 37.359375 7.515625 41.375 12.890625
Q 45.40625 18.265625 45.40625 27.984375
z
M 54.390625 6.78125
Q 54.390625 -7.171875 48.1875 -13.984375
Q 42 -20.796875 29.203125 -20.796875
Q 24.46875 -20.796875 20.265625 -20.09375
Q 16.0625 -19.390625 12.109375 -17.921875
L 12.109375 -9.1875
Q 16.0625 -11.328125 19.921875 -12.34375
Q 23.78125 -13.375 27.78125 -13.375
Q 36.625 -13.375 41.015625 -8.765625
Q 45.40625 -4.15625 45.40625 5.171875
L 45.40625 9.625
Q 42.625 4.78125 38.28125 2.390625
Q 33.9375 0 27.875 0
Q 17.828125 0 11.671875 7.65625
Q 5.515625 15.328125 5.515625 27.984375
Q 5.515625 40.671875 11.671875 48.328125
Q 17.828125 56 27.875 56
Q 33.9375 56 38.28125 53.609375
Q 42.625 51.21875 45.40625 46.390625
L 45.40625 54.6875
L 54.390625 54.6875
z
" id="DejaVuSans-103"/>
      <path d="M 37.109375 75.984375
L 37.109375 68.5
L 28.515625 68.5
Q 23.6875 68.5 21.796875 66.546875
Q 19.921875 64.59375 19.921875 59.515625
L 19.921875 54.6875
L 34.71875 54.6875
L 34.71875 47.703125
L 19.921875 47.703125
L 19.921875 0
L 10.890625 0
L 10.890625 47.703125
L 2.296875 47.703125
L 2.296875 54.6875
L 10.890625 54.6875
L 10.890625 58.5
Q 10.890625 67.625 15.140625 71.796875
Q 19.390625 75.984375 28.609375 75.984375
z
" id="DejaVuSans-102"/>
     </defs>
     <g transform="translate(19.131187 168.812813)rotate(-90)scale(0.1 -0.1)">
      <use xlink:href="#DejaVuSans-77"/>
      <use x="86.279297" xlink:href="#DejaVuSans-101"/>
      <use x="147.802734" xlink:href="#DejaVuSans-97"/>
      <use x="209.082031" xlink:href="#DejaVuSans-110"/>
      <use x="272.460938" xlink:href="#DejaVuSans-32"/>
      <use x="304.248047" xlink:href="#DejaVuSans-114"/>
      <use x="345.361328" xlink:href="#DejaVuSans-97"/>
      <use x="406.640625" xlink:href="#DejaVuSans-116"/>
      <use x="445.849609" xlink:href="#DejaVuSans-105"/>
      <use x="473.632812" xlink:href="#DejaVuSans-110"/>
      <use x="537.011719" xlink:href="#DejaVuSans-103"/>
      <use x="600.488281" xlink:href="#DejaVuSans-32"/>
      <use x="632.275391" xlink:href="#DejaVuSans-111"/>
      <use x="693.457031" xlink:href="#DejaVuSans-102"/>
     </g>
     <!-- complexity -->
     <defs>
      <path d="M 48.78125 52.59375
L 48.78125 44.1875
Q 44.96875 46.296875 41.140625 47.34375
Q 37.3125 48.390625 33.40625 48.390625
Q 24.65625 48.390625 19.8125 42.84375
Q 14.984375 37.3125 14.984375 27.296875
Q 14.984375 17.28125 19.8125 11.734375
Q 24.65625 6.203125 33.40625 6.203125
Q 37.3125 6.203125 41.140625 7.25
Q 44.96875 8.296875 48.78125 10.40625
L 48.78125 2.09375
Q 45.015625 0.34375 40.984375 -0.53125
Q 36.96875 -1.421875 32.421875 -1.421875
Q 20.0625 -1.421875 12.78125 6.34375
Q 5.515625 14.109375 5.515625 27.296875
Q 5.515625 40.671875 12.859375 48.328125
Q 20.21875 56 33.015625 56
Q 37.15625 56 41.109375 55.140625
Q 45.0625 54.296875 48.78125 52.59375
z
" id="DejaVuSans-99"/>
      <path d="M 52 44.1875
Q 55.375 50.25 60.0625 53.125
Q 64.75 56 71.09375 56
Q 79.640625 56 84.28125 50.015625
Q 88.921875 44.046875 88.921875 33.015625
L 88.921875 0
L 79.890625 0
L 79.890625 32.71875
Q 79.890625 40.578125 77.09375 44.375
Q 74.3125 48.1875 68.609375 48.1875
Q 61.625 48.1875 57.5625 43.546875
Q 53.515625 38.921875 53.515625 30.90625
L 53.515625 0
L 44.484375 0
L 44.484375 32.71875
Q 44.484375 40.625 41.703125 44.40625
Q 38.921875 48.1875 33.109375 48.1875
Q 26.21875 48.1875 22.15625 43.53125
Q 18.109375 38.875 18.109375 30.90625
L 18.109375 0
L 9.078125 0
L 9.078125 54.6875
L 18.109375 54.6875
L 18.109375 46.1875
Q 21.1875 51.21875 25.484375 53.609375
Q 29.78125 56 35.6875 56
Q 41.65625 56 45.828125 52.96875
Q 50 49.953125 52 44.1875
z
" id="DejaVuSans-109"/>
      <path d="M 9.421875 75.984375
L 18.40625 75.984375
L 18.40625 0
L 9.421875 0
z
" id="DejaVuSans-108"/>
      <path d="M 54.890625 54.6875
L 35.109375 28.078125
L 55.90625 0
L 45.3125 0
L 29.390625 21.484375
L 13.484375 0
L 2.875 0
L 24.125 28.609375
L 4.6875 54.6875
L 15.28125 54.6875
L 29.78125 35.203125
L 44.28125 54.6875
z
" id="DejaVuSans-120"/>
      <path d="M 32.171875 -5.078125
Q 28.375 -14.84375 24.75 -17.8125
Q 21.140625 -20.796875 15.09375 -20.796875
L 7.90625 -20.796875
L 7.90625 -13.28125
L 13.1875 -13.28125
Q 16.890625 -13.28125 18.9375 -11.515625
Q 21 -9.765625 23.484375 -3.21875
L 25.09375 0.875
L 2.984375 54.6875
L 12.5 54.6875
L 29.59375 11.921875
L 46.6875 54.6875
L 56.203125 54.6875
z
" id="DejaVuSans-121"/>
     </defs>
     <g transform="translate(30.329 159.965937)rotate(-90)scale(0.1 -0.1)">
      <use xlink:href="#DejaVuSans-99"/>
      <use x="54.980469" xlink:href="#DejaVuSans-111"/>
      <use x="116.162109" xlink:href="#DejaVuSans-109"/>
      <use x="213.574219" xlink:href="#DejaVuSans-112"/>
      <use x="277.050781" xlink:href="#DejaVuSans-108"/>
      <use x="304.833984" xlink:href="#DejaVuSans-101"/>
      <use x="366.341797" xlink:href="#DejaVuSans-120"/>
      <use x="425.521484" xlink:href="#DejaVuSans-105"/>
      <use x="453.304688" xlink:href="#DejaVuSans-116"/>
      <use x="492.513672" xlink:href="#DejaVuSans-121"/>
     </g>
    </g>
   </g>
   <g id="patch_3">
    <path clip-path="url(#p7e6c13f1ce)" d="M 83.776773 87.333154
L 119.493081 87.333154
L 119.493081 123.823043
L 83.776773 123.823043
z
" style="fill:#008fd5;"/>
   </g>
   <g id="patch_4">
    <path clip-path="url(#p7e6c13f1ce)" d="M 123.461559 87.333154
L 159.177867 87.333154
L 159.177867 171.815322
L 123.461559 171.815322
z
" style="fill:#008fd5;"/>
   </g>
   <g id="patch_5">
    <path clip-path="url(#p7e6c13f1ce)" d="M 202.831133 87.333154
L 238.547441 87.333154
L 238.547441 154.84031
L 202.831133 154.84031
z
" style="fill:#008fd5;"/>
   </g>
   <g id="patch_6">
    <path clip-path="url(#p7e6c13f1ce)" d="M 242.515919 87.333154
L 278.232227 87.333154
L 278.232227 143.58838
L 242.515919 143.58838
z
" style="fill:#008fd5;"/>
   </g>
   <g id="patch_7">
    <path d="M 74.054 251.44
L 74.054 13.32
" style="fill:none;stroke:#000000;stroke-linecap:square;stroke-linejoin:miter;stroke-width:0.8;"/>
   </g>
   <g id="patch_8">
    <path d="M 74.054 251.44
L 287.955 251.44
" style="fill:none;stroke:#000000;stroke-linecap:square;stroke-linejoin:miter;stroke-width:0.8;"/>
   </g>
   <g id="LineCollection_1">
    <path clip-path="url(#p7e6c13f1ce)" d="M 101.634927 139.609192
L 101.634927 108.036894
" style="fill:none;stroke:#000000;stroke-width:1.5;"/>
    <path clip-path="url(#p7e6c13f1ce)" d="M 141.319713 186.907538
L 141.319713 156.723106
" style="fill:none;stroke:#000000;stroke-width:1.5;"/>
   </g>
   <g id="LineCollection_2">
    <path clip-path="url(#p7e6c13f1ce)" d="M 220.689287 169.933084
L 220.689287 139.747536
" style="fill:none;stroke:#000000;stroke-width:1.5;"/>
    <path clip-path="url(#p7e6c13f1ce)" d="M 260.374073 159.436407
L 260.374073 127.740352
" style="fill:none;stroke:#000000;stroke-width:1.5;"/>
   </g>
   <g id="line2d_21">
    <defs>
     <path d="M 6 0
L -6 -0
" id="m613fe73462" style="stroke:#000000;"/>
    </defs>
    <g clip-path="url(#p7e6c13f1ce)">
     <use style="stroke:#000000;" x="101.634927" xlink:href="#m613fe73462" y="139.609192"/>
     <use style="stroke:#000000;" x="141.319713" xlink:href="#m613fe73462" y="186.907538"/>
    </g>
   </g>
   <g id="line2d_22">
    <g clip-path="url(#p7e6c13f1ce)">
     <use style="stroke:#000000;" x="101.634927" xlink:href="#m613fe73462" y="108.036894"/>
     <use style="stroke:#000000;" x="141.319713" xlink:href="#m613fe73462" y="156.723106"/>
    </g>
   </g>
   <g id="line2d_23">
    <g clip-path="url(#p7e6c13f1ce)">
     <use style="stroke:#000000;" x="220.689287" xlink:href="#m613fe73462" y="169.933084"/>
     <use style="stroke:#000000;" x="260.374073" xlink:href="#m613fe73462" y="159.436407"/>
    </g>
   </g>
   <g id="line2d_24">
    <g clip-path="url(#p7e6c13f1ce)">
     <use style="stroke:#000000;" x="220.689287" xlink:href="#m613fe73462" y="139.747536"/>
     <use style="stroke:#000000;" x="260.374073" xlink:href="#m613fe73462" y="127.740352"/>
    </g>
   </g>
   <g id="line2d_25"/>
   <g id="line2d_26"/>
  </g>
  <g id="axes_2">
   <g id="patch_9">
    <path d="M 348.779 251.44
L 562.68 251.44
L 562.68 13.32
L 348.779 13.32
z
" style="fill:#ffffff;"/>
   </g>
   <g id="matplotlib.axis_3">
    <g id="xtick_5">
     <g id="line2d_27">
      <g>
       <use style="stroke:#000000;stroke-width:0.8;" x="358.501773" xlink:href="#ma7296841f4" y="251.44"/>
      </g>
     </g>
     <g id="text_15">
      <!-- 1D -->
      <defs>
       <path d="M 19.671875 64.796875
L 19.671875 8.109375
L 31.59375 8.109375
Q 46.6875 8.109375 53.6875 14.9375
Q 60.6875 21.78125 60.6875 36.53125
Q 60.6875 51.171875 53.6875 57.984375
Q 46.6875 64.796875 31.59375 64.796875
z
M 9.8125 72.90625
L 30.078125 72.90625
Q 51.265625 72.90625 61.171875 64.09375
Q 71.09375 55.28125 71.09375 36.53125
Q 71.09375 17.671875 61.125 8.828125
Q 51.171875 0 30.078125 0
L 9.8125 0
z
" id="DejaVuSans-68"/>
      </defs>
      <g transform="translate(351.470523 266.038437)scale(0.1 -0.1)">
       <use xlink:href="#DejaVuSans-49"/>
       <use x="63.623047" xlink:href="#DejaVuSans-68"/>
      </g>
     </g>
    </g>
    <g id="xtick_6">
     <g id="line2d_28">
      <g>
       <use style="stroke:#000000;stroke-width:0.8;" x="423.320258" xlink:href="#ma7296841f4" y="251.44"/>
      </g>
     </g>
     <g id="text_16">
      <!-- I1D -->
      <defs>
       <path d="M 9.8125 72.90625
L 19.671875 72.90625
L 19.671875 0
L 9.8125 0
z
" id="DejaVuSans-73"/>
      </defs>
      <g transform="translate(414.814008 266.038437)scale(0.1 -0.1)">
       <use xlink:href="#DejaVuSans-73"/>
       <use x="29.492188" xlink:href="#DejaVuSans-49"/>
       <use x="93.115234" xlink:href="#DejaVuSans-68"/>
      </g>
     </g>
    </g>
    <g id="xtick_7">
     <g id="line2d_29">
      <g>
       <use style="stroke:#000000;stroke-width:0.8;" x="488.138742" xlink:href="#ma7296841f4" y="251.44"/>
      </g>
     </g>
     <g id="text_17">
      <!-- 2D -->
      <g transform="translate(481.107492 266.038437)scale(0.1 -0.1)">
       <use xlink:href="#DejaVuSans-50"/>
       <use x="63.623047" xlink:href="#DejaVuSans-68"/>
      </g>
     </g>
    </g>
    <g id="xtick_8">
     <g id="line2d_30">
      <g>
       <use style="stroke:#000000;stroke-width:0.8;" x="552.957227" xlink:href="#ma7296841f4" y="251.44"/>
      </g>
     </g>
     <g id="text_18">
      <!-- R -->
      <defs>
       <path d="M 44.390625 34.1875
Q 47.5625 33.109375 50.5625 29.59375
Q 53.5625 26.078125 56.59375 19.921875
L 66.609375 0
L 56 0
L 46.6875 18.703125
Q 43.0625 26.03125 39.671875 28.421875
Q 36.28125 30.8125 30.421875 30.8125
L 19.671875 30.8125
L 19.671875 0
L 9.8125 0
L 9.8125 72.90625
L 32.078125 72.90625
Q 44.578125 72.90625 50.734375 67.671875
Q 56.890625 62.453125 56.890625 51.90625
Q 56.890625 45.015625 53.6875 40.46875
Q 50.484375 35.9375 44.390625 34.1875
z
M 19.671875 64.796875
L 19.671875 38.921875
L 32.078125 38.921875
Q 39.203125 38.921875 42.84375 42.21875
Q 46.484375 45.515625 46.484375 51.90625
Q 46.484375 58.296875 42.84375 61.546875
Q 39.203125 64.796875 32.078125 64.796875
z
" id="DejaVuSans-82"/>
      </defs>
      <g transform="translate(549.483009 266.038437)scale(0.1 -0.1)">
       <use xlink:href="#DejaVuSans-82"/>
      </g>
     </g>
    </g>
    <g id="text_19">
     <!-- Task -->
     <defs>
      <path d="M -0.296875 72.90625
L 61.375 72.90625
L 61.375 64.59375
L 35.5 64.59375
L 35.5 0
L 25.59375 0
L 25.59375 64.59375
L -0.296875 64.59375
z
" id="DejaVuSans-84"/>
      <path d="M 44.28125 53.078125
L 44.28125 44.578125
Q 40.484375 46.53125 36.375 47.5
Q 32.28125 48.484375 27.875 48.484375
Q 21.1875 48.484375 17.84375 46.4375
Q 14.5 44.390625 14.5 40.28125
Q 14.5 37.15625 16.890625 35.375
Q 19.28125 33.59375 26.515625 31.984375
L 29.59375 31.296875
Q 39.15625 29.25 43.1875 25.515625
Q 47.21875 21.78125 47.21875 15.09375
Q 47.21875 7.46875 41.1875 3.015625
Q 35.15625 -1.421875 24.609375 -1.421875
Q 20.21875 -1.421875 15.453125 -0.5625
Q 10.6875 0.296875 5.421875 2
L 5.421875 11.28125
Q 10.40625 8.6875 15.234375 7.390625
Q 20.0625 6.109375 24.8125 6.109375
Q 31.15625 6.109375 34.5625 8.28125
Q 37.984375 10.453125 37.984375 14.40625
Q 37.984375 18.0625 35.515625 20.015625
Q 33.0625 21.96875 24.703125 23.78125
L 21.578125 24.515625
Q 13.234375 26.265625 9.515625 29.90625
Q 5.8125 33.546875 5.8125 39.890625
Q 5.8125 47.609375 11.28125 51.796875
Q 16.75 56 26.8125 56
Q 31.78125 56 36.171875 55.265625
Q 40.578125 54.546875 44.28125 53.078125
z
" id="DejaVuSans-115"/>
      <path d="M 9.078125 75.984375
L 18.109375 75.984375
L 18.109375 31.109375
L 44.921875 54.6875
L 56.390625 54.6875
L 27.390625 29.109375
L 57.625 0
L 45.90625 0
L 18.109375 26.703125
L 18.109375 0
L 9.078125 0
z
" id="DejaVuSans-107"/>
     </defs>
     <g transform="translate(444.124031 279.716563)scale(0.1 -0.1)">
      <use xlink:href="#DejaVuSans-84"/>
      <use x="60.833984" xlink:href="#DejaVuSans-97"/>
      <use x="122.113281" xlink:href="#DejaVuSans-115"/>
      <use x="174.212891" xlink:href="#DejaVuSans-107"/>
     </g>
    </g>
   </g>
   <g id="matplotlib.axis_4">
    <g id="ytick_9">
     <g id="line2d_31">
      <path clip-path="url(#p34fbaa087a)" d="M 348.779 243.131671
L 562.68 243.131671
" style="fill:none;stroke:#b0b0b0;stroke-dasharray:0.8,1.32;stroke-dashoffset:0;stroke-width:0.8;"/>
     </g>
     <g id="line2d_32">
      <g>
       <use style="stroke:#000000;stroke-width:0.8;" x="348.779" xlink:href="#m488b376ffe" y="243.131671"/>
      </g>
     </g>
     <g id="text_20">
      <!-- −4 -->
      <defs>
       <path d="M 37.796875 64.3125
L 12.890625 25.390625
L 37.796875 25.390625
z
M 35.203125 72.90625
L 47.609375 72.90625
L 47.609375 25.390625
L 58.015625 25.390625
L 58.015625 17.1875
L 47.609375 17.1875
L 47.609375 0
L 37.796875 0
L 37.796875 17.1875
L 4.890625 17.1875
L 4.890625 26.703125
z
" id="DejaVuSans-52"/>
      </defs>
      <g transform="translate(327.036812 246.93089)scale(0.1 -0.1)">
       <use xlink:href="#DejaVuSans-8722"/>
       <use x="83.789062" xlink:href="#DejaVuSans-52"/>
      </g>
     </g>
    </g>
    <g id="ytick_10">
     <g id="line2d_33">
      <path clip-path="url(#p34fbaa087a)" d="M 348.779 212.569561
L 562.68 212.569561
" style="fill:none;stroke:#b0b0b0;stroke-dasharray:0.8,1.32;stroke-dashoffset:0;stroke-width:0.8;"/>
     </g>
     <g id="line2d_34">
      <g>
       <use style="stroke:#000000;stroke-width:0.8;" x="348.779" xlink:href="#m488b376ffe" y="212.569561"/>
      </g>
     </g>
     <g id="text_21">
      <!-- −3 -->
      <defs>
       <path d="M 40.578125 39.3125
Q 47.65625 37.796875 51.625 33
Q 55.609375 28.21875 55.609375 21.1875
Q 55.609375 10.40625 48.1875 4.484375
Q 40.765625 -1.421875 27.09375 -1.421875
Q 22.515625 -1.421875 17.65625 -0.515625
Q 12.796875 0.390625 7.625 2.203125
L 7.625 11.71875
Q 11.71875 9.328125 16.59375 8.109375
Q 21.484375 6.890625 26.8125 6.890625
Q 36.078125 6.890625 40.9375 10.546875
Q 45.796875 14.203125 45.796875 21.1875
Q 45.796875 27.640625 41.28125 31.265625
Q 36.765625 34.90625 28.71875 34.90625
L 20.21875 34.90625
L 20.21875 43.015625
L 29.109375 43.015625
Q 36.375 43.015625 40.234375 45.921875
Q 44.09375 48.828125 44.09375 54.296875
Q 44.09375 59.90625 40.109375 62.90625
Q 36.140625 65.921875 28.71875 65.921875
Q 24.65625 65.921875 20.015625 65.03125
Q 15.375 64.15625 9.8125 62.3125
L 9.8125 71.09375
Q 15.4375 72.65625 20.34375 73.4375
Q 25.25 74.21875 29.59375 74.21875
Q 40.828125 74.21875 47.359375 69.109375
Q 53.90625 64.015625 53.90625 55.328125
Q 53.90625 49.265625 50.4375 45.09375
Q 46.96875 40.921875 40.578125 39.3125
z
" id="DejaVuSans-51"/>
      </defs>
      <g transform="translate(327.036812 216.36878)scale(0.1 -0.1)">
       <use xlink:href="#DejaVuSans-8722"/>
       <use x="83.789062" xlink:href="#DejaVuSans-51"/>
      </g>
     </g>
    </g>
    <g id="ytick_11">
     <g id="line2d_35">
      <path clip-path="url(#p34fbaa087a)" d="M 348.779 182.007452
L 562.68 182.007452
" style="fill:none;stroke:#b0b0b0;stroke-dasharray:0.8,1.32;stroke-dashoffset:0;stroke-width:0.8;"/>
     </g>
     <g id="line2d_36">
      <g>
       <use style="stroke:#000000;stroke-width:0.8;" x="348.779" xlink:href="#m488b376ffe" y="182.007452"/>
      </g>
     </g>
     <g id="text_22">
      <!-- −2 -->
      <g transform="translate(327.036812 185.806671)scale(0.1 -0.1)">
       <use xlink:href="#DejaVuSans-8722"/>
       <use x="83.789062" xlink:href="#DejaVuSans-50"/>
      </g>
     </g>
    </g>
    <g id="ytick_12">
     <g id="line2d_37">
      <path clip-path="url(#p34fbaa087a)" d="M 348.779 151.445343
L 562.68 151.445343
" style="fill:none;stroke:#b0b0b0;stroke-dasharray:0.8,1.32;stroke-dashoffset:0;stroke-width:0.8;"/>
     </g>
     <g id="line2d_38">
      <g>
       <use style="stroke:#000000;stroke-width:0.8;" x="348.779" xlink:href="#m488b376ffe" y="151.445343"/>
      </g>
     </g>
     <g id="text_23">
      <!-- −1 -->
      <g transform="translate(327.036812 155.244561)scale(0.1 -0.1)">
       <use xlink:href="#DejaVuSans-8722"/>
       <use x="83.789062" xlink:href="#DejaVuSans-49"/>
      </g>
     </g>
    </g>
    <g id="ytick_13">
     <g id="line2d_39">
      <path clip-path="url(#p34fbaa087a)" d="M 348.779 120.883233
L 562.68 120.883233
" style="fill:none;stroke:#b0b0b0;stroke-dasharray:0.8,1.32;stroke-dashoffset:0;stroke-width:0.8;"/>
     </g>
     <g id="line2d_40">
      <g>
       <use style="stroke:#000000;stroke-width:0.8;" x="348.779" xlink:href="#m488b376ffe" y="120.883233"/>
      </g>
     </g>
     <g id="text_24">
      <!-- 0 -->
      <g transform="translate(335.4165 124.682452)scale(0.1 -0.1)">
       <use xlink:href="#DejaVuSans-48"/>
      </g>
     </g>
    </g>
    <g id="ytick_14">
     <g id="line2d_41">
      <path clip-path="url(#p34fbaa087a)" d="M 348.779 90.321124
L 562.68 90.321124
" style="fill:none;stroke:#b0b0b0;stroke-dasharray:0.8,1.32;stroke-dashoffset:0;stroke-width:0.8;"/>
     </g>
     <g id="line2d_42">
      <g>
       <use style="stroke:#000000;stroke-width:0.8;" x="348.779" xlink:href="#m488b376ffe" y="90.321124"/>
      </g>
     </g>
     <g id="text_25">
      <!-- 1 -->
      <g transform="translate(335.4165 94.120343)scale(0.1 -0.1)">
       <use xlink:href="#DejaVuSans-49"/>
      </g>
     </g>
    </g>
    <g id="ytick_15">
     <g id="line2d_43">
      <path clip-path="url(#p34fbaa087a)" d="M 348.779 59.759014
L 562.68 59.759014
" style="fill:none;stroke:#b0b0b0;stroke-dasharray:0.8,1.32;stroke-dashoffset:0;stroke-width:0.8;"/>
     </g>
     <g id="line2d_44">
      <g>
       <use style="stroke:#000000;stroke-width:0.8;" x="348.779" xlink:href="#m488b376ffe" y="59.759014"/>
      </g>
     </g>
     <g id="text_26">
      <!-- 2 -->
      <g transform="translate(335.4165 63.558233)scale(0.1 -0.1)">
       <use xlink:href="#DejaVuSans-50"/>
      </g>
     </g>
    </g>
    <g id="ytick_16">
     <g id="line2d_45">
      <path clip-path="url(#p34fbaa087a)" d="M 348.779 29.196905
L 562.68 29.196905
" style="fill:none;stroke:#b0b0b0;stroke-dasharray:0.8,1.32;stroke-dashoffset:0;stroke-width:0.8;"/>
     </g>
     <g id="line2d_46">
      <g>
       <use style="stroke:#000000;stroke-width:0.8;" x="348.779" xlink:href="#m488b376ffe" y="29.196905"/>
      </g>
     </g>
     <g id="text_27">
      <!-- 3 -->
      <g transform="translate(335.4165 32.996124)scale(0.1 -0.1)">
       <use xlink:href="#DejaVuSans-51"/>
      </g>
     </g>
    </g>
    <g id="text_28">
     <!-- Mean rating of -->
     <g transform="translate(309.759312 168.812813)rotate(-90)scale(0.1 -0.1)">
      <use xlink:href="#DejaVuSans-77"/>
      <use x="86.279297" xlink:href="#DejaVuSans-101"/>
      <use x="147.802734" xlink:href="#DejaVuSans-97"/>
      <use x="209.082031" xlink:href="#DejaVuSans-110"/>
      <use x="272.460938" xlink:href="#DejaVuSans-32"/>
      <use x="304.248047" xlink:href="#DejaVuSans-114"/>
      <use x="345.361328" xlink:href="#DejaVuSans-97"/>
      <use x="406.640625" xlink:href="#DejaVuSans-116"/>
      <use x="445.849609" xlink:href="#DejaVuSans-105"/>
      <use x="473.632812" xlink:href="#DejaVuSans-110"/>
      <use x="537.011719" xlink:href="#DejaVuSans-103"/>
      <use x="600.488281" xlink:href="#DejaVuSans-32"/>
      <use x="632.275391" xlink:href="#DejaVuSans-111"/>
      <use x="693.457031" xlink:href="#DejaVuSans-102"/>
     </g>
     <!-- complexity -->
     <g transform="translate(320.957125 159.965937)rotate(-90)scale(0.1 -0.1)">
      <use xlink:href="#DejaVuSans-99"/>
      <use x="54.980469" xlink:href="#DejaVuSans-111"/>
      <use x="116.162109" xlink:href="#DejaVuSans-109"/>
      <use x="213.574219" xlink:href="#DejaVuSans-112"/>
      <use x="277.050781" xlink:href="#DejaVuSans-108"/>
      <use x="304.833984" xlink:href="#DejaVuSans-101"/>
      <use x="366.341797" xlink:href="#DejaVuSans-120"/>
      <use x="425.521484" xlink:href="#DejaVuSans-105"/>
      <use x="453.304688" xlink:href="#DejaVuSans-116"/>
      <use x="492.513672" xlink:href="#DejaVuSans-121"/>
     </g>
    </g>
   </g>
   <g id="LineCollection_3">
    <path clip-path="url(#p34fbaa087a)" d="M 358.501773 240.616364
L 358.501773 233.269985
" style="fill:none;stroke:#1f77b4;stroke-width:1.5;"/>
    <path clip-path="url(#p34fbaa087a)" d="M 423.320258 198.126553
L 423.320258 188.518866
" style="fill:none;stroke:#1f77b4;stroke-width:1.5;"/>
    <path clip-path="url(#p34fbaa087a)" d="M 488.138742 98.144417
L 488.138742 90.125128
" style="fill:none;stroke:#1f77b4;stroke-width:1.5;"/>
    <path clip-path="url(#p34fbaa087a)" d="M 552.957227 29.282177
L 552.957227 24.143636
" style="fill:none;stroke:#1f77b4;stroke-width:1.5;"/>
   </g>
   <g id="line2d_47">
    <defs>
     <path d="M 5 0
L -5 -0
" id="mae52b535be" style="stroke:#1f77b4;"/>
    </defs>
    <g clip-path="url(#p34fbaa087a)">
     <use style="fill:#1f77b4;stroke:#1f77b4;" x="358.501773" xlink:href="#mae52b535be" y="240.616364"/>
     <use style="fill:#1f77b4;stroke:#1f77b4;" x="423.320258" xlink:href="#mae52b535be" y="198.126553"/>
     <use style="fill:#1f77b4;stroke:#1f77b4;" x="488.138742" xlink:href="#mae52b535be" y="98.144417"/>
     <use style="fill:#1f77b4;stroke:#1f77b4;" x="552.957227" xlink:href="#mae52b535be" y="29.282177"/>
    </g>
   </g>
   <g id="line2d_48">
    <g clip-path="url(#p34fbaa087a)">
     <use style="fill:#1f77b4;stroke:#1f77b4;" x="358.501773" xlink:href="#mae52b535be" y="233.269985"/>
     <use style="fill:#1f77b4;stroke:#1f77b4;" x="423.320258" xlink:href="#mae52b535be" y="188.518866"/>
     <use style="fill:#1f77b4;stroke:#1f77b4;" x="488.138742" xlink:href="#mae52b535be" y="90.125128"/>
     <use style="fill:#1f77b4;stroke:#1f77b4;" x="552.957227" xlink:href="#mae52b535be" y="24.143636"/>
    </g>
   </g>
   <g id="line2d_49">
    <path clip-path="url(#p34fbaa087a)" d="M 358.501773 236.943174
L 423.320258 193.322709
L 488.138742 94.134772
L 552.957227 26.712907
" style="fill:none;stroke:#1f77b4;stroke-linecap:square;stroke-width:1.5;"/>
   </g>
   <g id="patch_10">
    <path d="M 348.779 251.44
L 348.779 13.32
" style="fill:none;stroke:#000000;stroke-linecap:square;stroke-linejoin:miter;stroke-width:0.8;"/>
   </g>
   <g id="patch_11">
    <path d="M 348.779 251.44
L 562.68 251.44
" style="fill:none;stroke:#000000;stroke-linecap:square;stroke-linejoin:miter;stroke-width:0.8;"/>
   </g>
  </g>
  <g id="axes_3">
   <g id="patch_12">
    <path d="M 74.054 534.04
L 562.68 534.04
L 562.68 295.92
L 74.054 295.92
z
" style="fill:#ffffff;"/>
   </g>
   <g id="matplotlib.axis_5">
    <g id="xtick_9">
     <g id="line2d_50">
      <g>
       <use style="stroke:#000000;stroke-width:0.8;" x="102.109081" xlink:href="#ma7296841f4" y="534.04"/>
      </g>
     </g>
     <g id="text_29">
      <!-- 1D -->
      <g transform="translate(95.077831 548.638437)scale(0.1 -0.1)">
       <use xlink:href="#DejaVuSans-49"/>
       <use x="63.623047" xlink:href="#DejaVuSans-68"/>
      </g>
     </g>
    </g>
    <g id="xtick_10">
     <g id="line2d_51">
      <g>
       <use style="stroke:#000000;stroke-width:0.8;" x="248.229297" xlink:href="#ma7296841f4" y="534.04"/>
      </g>
     </g>
     <g id="text_30">
      <!-- I1D -->
      <g transform="translate(239.723047 548.638437)scale(0.1 -0.1)">
       <use xlink:href="#DejaVuSans-73"/>
       <use x="29.492188" xlink:href="#DejaVuSans-49"/>
       <use x="93.115234" xlink:href="#DejaVuSans-68"/>
      </g>
     </g>
    </g>
    <g id="xtick_11">
     <g id="line2d_52">
      <g>
       <use style="stroke:#000000;stroke-width:0.8;" x="394.349512" xlink:href="#ma7296841f4" y="534.04"/>
      </g>
     </g>
     <g id="text_31">
      <!-- 2D -->
      <g transform="translate(387.318262 548.638437)scale(0.1 -0.1)">
       <use xlink:href="#DejaVuSans-50"/>
       <use x="63.623047" xlink:href="#DejaVuSans-68"/>
      </g>
     </g>
    </g>
    <g id="xtick_12">
     <g id="line2d_53">
      <g>
       <use style="stroke:#000000;stroke-width:0.8;" x="540.469727" xlink:href="#ma7296841f4" y="534.04"/>
      </g>
     </g>
     <g id="text_32">
      <!-- R -->
      <g transform="translate(536.995509 548.638437)scale(0.1 -0.1)">
       <use xlink:href="#DejaVuSans-82"/>
      </g>
     </g>
    </g>
    <g id="text_33">
     <!-- Task -->
     <g transform="translate(306.761531 562.316562)scale(0.1 -0.1)">
      <use xlink:href="#DejaVuSans-84"/>
      <use x="60.833984" xlink:href="#DejaVuSans-97"/>
      <use x="122.113281" xlink:href="#DejaVuSans-115"/>
      <use x="174.212891" xlink:href="#DejaVuSans-107"/>
     </g>
    </g>
   </g>
   <g id="matplotlib.axis_6">
    <g id="ytick_17">
     <g id="line2d_54">
      <path clip-path="url(#p1b07cbee10)" d="M 74.054 515.844067
L 562.68 515.844067
" style="fill:none;stroke:#b0b0b0;stroke-dasharray:0.8,1.32;stroke-dashoffset:0;stroke-width:0.8;"/>
     </g>
     <g id="line2d_55">
      <g>
       <use style="stroke:#000000;stroke-width:0.8;" x="74.054" xlink:href="#m488b376ffe" y="515.844067"/>
      </g>
     </g>
     <g id="text_34">
      <!-- −4 -->
      <g transform="translate(52.311813 519.643286)scale(0.1 -0.1)">
       <use xlink:href="#DejaVuSans-8722"/>
       <use x="83.789062" xlink:href="#DejaVuSans-52"/>
      </g>
     </g>
    </g>
    <g id="ytick_18">
     <g id="line2d_56">
      <path clip-path="url(#p1b07cbee10)" d="M 74.054 487.87461
L 562.68 487.87461
" style="fill:none;stroke:#b0b0b0;stroke-dasharray:0.8,1.32;stroke-dashoffset:0;stroke-width:0.8;"/>
     </g>
     <g id="line2d_57">
      <g>
       <use style="stroke:#000000;stroke-width:0.8;" x="74.054" xlink:href="#m488b376ffe" y="487.87461"/>
      </g>
     </g>
     <g id="text_35">
      <!-- −3 -->
      <g transform="translate(52.311813 491.673829)scale(0.1 -0.1)">
       <use xlink:href="#DejaVuSans-8722"/>
       <use x="83.789062" xlink:href="#DejaVuSans-51"/>
      </g>
     </g>
    </g>
    <g id="ytick_19">
     <g id="line2d_58">
      <path clip-path="url(#p1b07cbee10)" d="M 74.054 459.905154
L 562.68 459.905154
" style="fill:none;stroke:#b0b0b0;stroke-dasharray:0.8,1.32;stroke-dashoffset:0;stroke-width:0.8;"/>
     </g>
     <g id="line2d_59">
      <g>
       <use style="stroke:#000000;stroke-width:0.8;" x="74.054" xlink:href="#m488b376ffe" y="459.905154"/>
      </g>
     </g>
     <g id="text_36">
      <!-- −2 -->
      <g transform="translate(52.311813 463.704372)scale(0.1 -0.1)">
       <use xlink:href="#DejaVuSans-8722"/>
       <use x="83.789062" xlink:href="#DejaVuSans-50"/>
      </g>
     </g>
    </g>
    <g id="ytick_20">
     <g id="line2d_60">
      <path clip-path="url(#p1b07cbee10)" d="M 74.054 431.935697
L 562.68 431.935697
" style="fill:none;stroke:#b0b0b0;stroke-dasharray:0.8,1.32;stroke-dashoffset:0;stroke-width:0.8;"/>
     </g>
     <g id="line2d_61">
      <g>
       <use style="stroke:#000000;stroke-width:0.8;" x="74.054" xlink:href="#m488b376ffe" y="431.935697"/>
      </g>
     </g>
     <g id="text_37">
      <!-- −1 -->
      <g transform="translate(52.311813 435.734916)scale(0.1 -0.1)">
       <use xlink:href="#DejaVuSans-8722"/>
       <use x="83.789062" xlink:href="#DejaVuSans-49"/>
      </g>
     </g>
    </g>
    <g id="ytick_21">
     <g id="line2d_62">
      <path clip-path="url(#p1b07cbee10)" d="M 74.054 403.96624
L 562.68 403.96624
" style="fill:none;stroke:#b0b0b0;stroke-dasharray:0.8,1.32;stroke-dashoffset:0;stroke-width:0.8;"/>
     </g>
     <g id="line2d_63">
      <g>
       <use style="stroke:#000000;stroke-width:0.8;" x="74.054" xlink:href="#m488b376ffe" y="403.96624"/>
      </g>
     </g>
     <g id="text_38">
      <!-- 0 -->
      <g transform="translate(60.6915 407.765459)scale(0.1 -0.1)">
       <use xlink:href="#DejaVuSans-48"/>
      </g>
     </g>
    </g>
    <g id="ytick_22">
     <g id="line2d_64">
      <path clip-path="url(#p1b07cbee10)" d="M 74.054 375.996783
L 562.68 375.996783
" style="fill:none;stroke:#b0b0b0;stroke-dasharray:0.8,1.32;stroke-dashoffset:0;stroke-width:0.8;"/>
     </g>
     <g id="line2d_65">
      <g>
       <use style="stroke:#000000;stroke-width:0.8;" x="74.054" xlink:href="#m488b376ffe" y="375.996783"/>
      </g>
     </g>
     <g id="text_39">
      <!-- 1 -->
      <g transform="translate(60.6915 379.796002)scale(0.1 -0.1)">
       <use xlink:href="#DejaVuSans-49"/>
      </g>
     </g>
    </g>
    <g id="ytick_23">
     <g id="line2d_66">
      <path clip-path="url(#p1b07cbee10)" d="M 74.054 348.027326
L 562.68 348.027326
" style="fill:none;stroke:#b0b0b0;stroke-dasharray:0.8,1.32;stroke-dashoffset:0;stroke-width:0.8;"/>
     </g>
     <g id="line2d_67">
      <g>
       <use style="stroke:#000000;stroke-width:0.8;" x="74.054" xlink:href="#m488b376ffe" y="348.027326"/>
      </g>
     </g>
     <g id="text_40">
      <!-- 2 -->
      <g transform="translate(60.6915 351.826545)scale(0.1 -0.1)">
       <use xlink:href="#DejaVuSans-50"/>
      </g>
     </g>
    </g>
    <g id="ytick_24">
     <g id="line2d_68">
      <path clip-path="url(#p1b07cbee10)" d="M 74.054 320.05787
L 562.68 320.05787
" style="fill:none;stroke:#b0b0b0;stroke-dasharray:0.8,1.32;stroke-dashoffset:0;stroke-width:0.8;"/>
     </g>
     <g id="line2d_69">
      <g>
       <use style="stroke:#000000;stroke-width:0.8;" x="74.054" xlink:href="#m488b376ffe" y="320.05787"/>
      </g>
     </g>
     <g id="text_41">
      <!-- 3 -->
      <g transform="translate(60.6915 323.857088)scale(0.1 -0.1)">
       <use xlink:href="#DejaVuSans-51"/>
      </g>
     </g>
    </g>
    <g id="text_42">
     <!-- Mean rating of -->
     <g transform="translate(35.034312 451.412812)rotate(-90)scale(0.1 -0.1)">
      <use xlink:href="#DejaVuSans-77"/>
      <use x="86.279297" xlink:href="#DejaVuSans-101"/>
      <use x="147.802734" xlink:href="#DejaVuSans-97"/>
      <use x="209.082031" xlink:href="#DejaVuSans-110"/>
      <use x="272.460938" xlink:href="#DejaVuSans-32"/>
      <use x="304.248047" xlink:href="#DejaVuSans-114"/>
      <use x="345.361328" xlink:href="#DejaVuSans-97"/>
      <use x="406.640625" xlink:href="#DejaVuSans-116"/>
      <use x="445.849609" xlink:href="#DejaVuSans-105"/>
      <use x="473.632812" xlink:href="#DejaVuSans-110"/>
      <use x="537.011719" xlink:href="#DejaVuSans-103"/>
      <use x="600.488281" xlink:href="#DejaVuSans-32"/>
      <use x="632.275391" xlink:href="#DejaVuSans-111"/>
      <use x="693.457031" xlink:href="#DejaVuSans-102"/>
     </g>
     <!-- complexity -->
     <g transform="translate(46.232125 442.565937)rotate(-90)scale(0.1 -0.1)">
      <use xlink:href="#DejaVuSans-99"/>
      <use x="54.980469" xlink:href="#DejaVuSans-111"/>
      <use x="116.162109" xlink:href="#DejaVuSans-109"/>
      <use x="213.574219" xlink:href="#DejaVuSans-112"/>
      <use x="277.050781" xlink:href="#DejaVuSans-108"/>
      <use x="304.833984" xlink:href="#DejaVuSans-101"/>
      <use x="366.341797" xlink:href="#DejaVuSans-120"/>
      <use x="425.521484" xlink:href="#DejaVuSans-105"/>
      <use x="453.304688" xlink:href="#DejaVuSans-116"/>
      <use x="492.513672" xlink:href="#DejaVuSans-121"/>
     </g>
    </g>
   </g>
   <g id="LineCollection_4">
    <path clip-path="url(#p1b07cbee10)" d="M 96.264273 507.1305
L 96.264273 490.518856
" style="fill:none;stroke:#008fd5;stroke-width:1.5;"/>
    <path clip-path="url(#p1b07cbee10)" d="M 242.384488 476.720337
L 242.384488 459.325405
" style="fill:none;stroke:#008fd5;stroke-width:1.5;"/>
    <path clip-path="url(#p1b07cbee10)" d="M 388.504703 372.850681
L 388.504703 359.973944
" style="fill:none;stroke:#008fd5;stroke-width:1.5;"/>
    <path clip-path="url(#p1b07cbee10)" d="M 534.624919 328.655523
L 534.624919 318.490514
" style="fill:none;stroke:#008fd5;stroke-width:1.5;"/>
   </g>
   <g id="LineCollection_5">
    <path clip-path="url(#p1b07cbee10)" d="M 99.186677 517.746973
L 99.186677 503.392681
" style="fill:none;stroke:#008fd5;stroke-width:1.5;"/>
    <path clip-path="url(#p1b07cbee10)" d="M 245.306892 462.068173
L 245.306892 442.71854
" style="fill:none;stroke:#008fd5;stroke-width:1.5;"/>
    <path clip-path="url(#p1b07cbee10)" d="M 391.427108 374.253865
L 391.427108 358.986846
" style="fill:none;stroke:#008fd5;stroke-width:1.5;"/>
    <path clip-path="url(#p1b07cbee10)" d="M 537.547323 322.502823
L 537.547323 313.031252
" style="fill:none;stroke:#008fd5;stroke-width:1.5;"/>
   </g>
   <g id="LineCollection_6">
    <path clip-path="url(#p1b07cbee10)" d="M 99.186677 523.216364
L 99.186677 512.641131
" style="fill:none;stroke:#fc4f30;stroke-width:1.5;"/>
    <path clip-path="url(#p1b07cbee10)" d="M 245.306892 490.017863
L 245.306892 474.091894
" style="fill:none;stroke:#fc4f30;stroke-width:1.5;"/>
    <path clip-path="url(#p1b07cbee10)" d="M 391.427108 401.813907
L 391.427108 388.398793
" style="fill:none;stroke:#fc4f30;stroke-width:1.5;"/>
    <path clip-path="url(#p1b07cbee10)" d="M 537.547323 314.436259
L 537.547323 306.743636
" style="fill:none;stroke:#fc4f30;stroke-width:1.5;"/>
   </g>
   <g id="LineCollection_7">
    <path clip-path="url(#p1b07cbee10)" d="M 102.109081 518.201305
L 102.109081 505.852309
" style="fill:none;stroke:#fc4f30;stroke-width:1.5;"/>
    <path clip-path="url(#p1b07cbee10)" d="M 248.229297 484.221737
L 248.229297 466.578538
" style="fill:none;stroke:#fc4f30;stroke-width:1.5;"/>
    <path clip-path="url(#p1b07cbee10)" d="M 394.349512 394.236533
L 394.349512 378.09197
" style="fill:none;stroke:#fc4f30;stroke-width:1.5;"/>
    <path clip-path="url(#p1b07cbee10)" d="M 540.469727 325.385042
L 540.469727 315.08745
" style="fill:none;stroke:#fc4f30;stroke-width:1.5;"/>
   </g>
   <g id="line2d_70">
    <defs>
     <path d="M 5 0
L -5 -0
" id="m8f7fd5c2ba" style="stroke:#008fd5;"/>
    </defs>
    <g clip-path="url(#p1b07cbee10)">
     <use style="fill:#008fd5;stroke:#008fd5;" x="96.264273" xlink:href="#m8f7fd5c2ba" y="507.1305"/>
     <use style="fill:#008fd5;stroke:#008fd5;" x="242.384488" xlink:href="#m8f7fd5c2ba" y="476.720337"/>
     <use style="fill:#008fd5;stroke:#008fd5;" x="388.504703" xlink:href="#m8f7fd5c2ba" y="372.850681"/>
     <use style="fill:#008fd5;stroke:#008fd5;" x="534.624919" xlink:href="#m8f7fd5c2ba" y="328.655523"/>
    </g>
   </g>
   <g id="line2d_71">
    <g clip-path="url(#p1b07cbee10)">
     <use style="fill:#008fd5;stroke:#008fd5;" x="96.264273" xlink:href="#m8f7fd5c2ba" y="490.518856"/>
     <use style="fill:#008fd5;stroke:#008fd5;" x="242.384488" xlink:href="#m8f7fd5c2ba" y="459.325405"/>
     <use style="fill:#008fd5;stroke:#008fd5;" x="388.504703" xlink:href="#m8f7fd5c2ba" y="359.973944"/>
     <use style="fill:#008fd5;stroke:#008fd5;" x="534.624919" xlink:href="#m8f7fd5c2ba" y="318.490514"/>
    </g>
   </g>
   <g id="line2d_72">
    <g clip-path="url(#p1b07cbee10)">
     <use style="fill:#008fd5;stroke:#008fd5;" x="99.186677" xlink:href="#m8f7fd5c2ba" y="517.746973"/>
     <use style="fill:#008fd5;stroke:#008fd5;" x="245.306892" xlink:href="#m8f7fd5c2ba" y="462.068173"/>
     <use style="fill:#008fd5;stroke:#008fd5;" x="391.427108" xlink:href="#m8f7fd5c2ba" y="374.253865"/>
     <use style="fill:#008fd5;stroke:#008fd5;" x="537.547323" xlink:href="#m8f7fd5c2ba" y="322.502823"/>
    </g>
   </g>
   <g id="line2d_73">
    <g clip-path="url(#p1b07cbee10)">
     <use style="fill:#008fd5;stroke:#008fd5;" x="99.186677" xlink:href="#m8f7fd5c2ba" y="503.392681"/>
     <use style="fill:#008fd5;stroke:#008fd5;" x="245.306892" xlink:href="#m8f7fd5c2ba" y="442.71854"/>
     <use style="fill:#008fd5;stroke:#008fd5;" x="391.427108" xlink:href="#m8f7fd5c2ba" y="358.986846"/>
     <use style="fill:#008fd5;stroke:#008fd5;" x="537.547323" xlink:href="#m8f7fd5c2ba" y="313.031252"/>
    </g>
   </g>
   <g id="line2d_74">
    <defs>
     <path d="M 5 0
L -5 -0
" id="m15279fa0ee" style="stroke:#fc4f30;"/>
    </defs>
    <g clip-path="url(#p1b07cbee10)">
     <use style="fill:#fc4f30;stroke:#fc4f30;" x="99.186677" xlink:href="#m15279fa0ee" y="523.216364"/>
     <use style="fill:#fc4f30;stroke:#fc4f30;" x="245.306892" xlink:href="#m15279fa0ee" y="490.017863"/>
     <use style="fill:#fc4f30;stroke:#fc4f30;" x="391.427108" xlink:href="#m15279fa0ee" y="401.813907"/>
     <use style="fill:#fc4f30;stroke:#fc4f30;" x="537.547323" xlink:href="#m15279fa0ee" y="314.436259"/>
    </g>
   </g>
   <g id="line2d_75">
    <g clip-path="url(#p1b07cbee10)">
     <use style="fill:#fc4f30;stroke:#fc4f30;" x="99.186677" xlink:href="#m15279fa0ee" y="512.641131"/>
     <use style="fill:#fc4f30;stroke:#fc4f30;" x="245.306892" xlink:href="#m15279fa0ee" y="474.091894"/>
     <use style="fill:#fc4f30;stroke:#fc4f30;" x="391.427108" xlink:href="#m15279fa0ee" y="388.398793"/>
     <use style="fill:#fc4f30;stroke:#fc4f30;" x="537.547323" xlink:href="#m15279fa0ee" y="306.743636"/>
    </g>
   </g>
   <g id="line2d_76">
    <g clip-path="url(#p1b07cbee10)">
     <use style="fill:#fc4f30;stroke:#fc4f30;" x="102.109081" xlink:href="#m15279fa0ee" y="518.201305"/>
     <use style="fill:#fc4f30;stroke:#fc4f30;" x="248.229297" xlink:href="#m15279fa0ee" y="484.221737"/>
     <use style="fill:#fc4f30;stroke:#fc4f30;" x="394.349512" xlink:href="#m15279fa0ee" y="394.236533"/>
     <use style="fill:#fc4f30;stroke:#fc4f30;" x="540.469727" xlink:href="#m15279fa0ee" y="325.385042"/>
    </g>
   </g>
   <g id="line2d_77">
    <g clip-path="url(#p1b07cbee10)">
     <use style="fill:#fc4f30;stroke:#fc4f30;" x="102.109081" xlink:href="#m15279fa0ee" y="505.852309"/>
     <use style="fill:#fc4f30;stroke:#fc4f30;" x="248.229297" xlink:href="#m15279fa0ee" y="466.578538"/>
     <use style="fill:#fc4f30;stroke:#fc4f30;" x="394.349512" xlink:href="#m15279fa0ee" y="378.09197"/>
     <use style="fill:#fc4f30;stroke:#fc4f30;" x="540.469727" xlink:href="#m15279fa0ee" y="315.08745"/>
    </g>
   </g>
   <g id="line2d_78">
    <path clip-path="url(#p1b07cbee10)" d="M 96.264273 498.824678
L 242.384488 468.022871
L 388.504703 366.412313
L 534.624919 323.573018
" style="fill:none;stroke:#008fd5;stroke-dasharray:5.55,2.4;stroke-dashoffset:0;stroke-width:1.5;"/>
   </g>
   <g id="line2d_79">
    <path clip-path="url(#p1b07cbee10)" d="M 99.186677 510.569827
L 245.306892 452.393357
L 391.427108 366.620356
L 537.547323 317.767038
" style="fill:none;stroke:#008fd5;stroke-linecap:square;stroke-width:1.5;"/>
   </g>
   <g id="line2d_80">
    <path clip-path="url(#p1b07cbee10)" d="M 99.186677 517.928747
L 245.306892 482.054879
L 391.427108 395.10635
L 537.547323 310.589948
" style="fill:none;stroke:#fc4f30;stroke-dasharray:5.55,2.4;stroke-dashoffset:0;stroke-width:1.5;"/>
   </g>
   <g id="line2d_81">
    <path clip-path="url(#p1b07cbee10)" d="M 102.109081 512.026807
L 248.229297 475.400138
L 394.349512 386.164251
L 540.469727 320.236246
" style="fill:none;stroke:#fc4f30;stroke-linecap:square;stroke-width:1.5;"/>
   </g>
   <g id="patch_13">
    <path d="M 74.054 534.04
L 74.054 295.92
" style="fill:none;stroke:#000000;stroke-linecap:square;stroke-linejoin:miter;stroke-width:0.8;"/>
   </g>
   <g id="patch_14">
    <path d="M 74.054 534.04
L 562.68 534.04
" style="fill:none;stroke:#000000;stroke-linecap:square;stroke-linejoin:miter;stroke-width:0.8;"/>
   </g>
   <g id="legend_1">
    <g id="patch_15">
     <path d="M 81.054 362.6325
L 225.7665 362.6325
Q 227.7665 362.6325 227.7665 360.6325
L 227.7665 302.92
Q 227.7665 300.92 225.7665 300.92
L 81.054 300.92
Q 79.054 300.92 79.054 302.92
L 79.054 360.6325
Q 79.054 362.6325 81.054 362.6325
z
" style="fill:#ffffff;opacity:0.8;stroke:#cccccc;stroke-linejoin:miter;"/>
    </g>
    <g id="LineCollection_8">
     <path d="M 93.054 314.018437
L 93.054 304.018437
" style="fill:none;stroke:#008fd5;stroke-width:1.5;"/>
    </g>
    <g id="line2d_82">
     <g>
      <use style="fill:#008fd5;stroke:#008fd5;" x="93.054" xlink:href="#m8f7fd5c2ba" y="314.018437"/>
     </g>
    </g>
    <g id="line2d_83">
     <g>
      <use style="fill:#008fd5;stroke:#008fd5;" x="93.054" xlink:href="#m8f7fd5c2ba" y="304.018437"/>
     </g>
    </g>
    <g id="line2d_84">
     <path d="M 83.054 309.018437
L 103.054 309.018437
" style="fill:none;stroke:#008fd5;stroke-dasharray:5.55,2.4;stroke-dashoffset:0;stroke-width:1.5;"/>
    </g>
    <g id="line2d_85"/>
    <g id="text_43">
     <!-- Free / uninformed -->
     <g transform="translate(111.054 312.518437)scale(0.1 -0.1)">
      <use xlink:href="#DejaVuSans-70"/>
      <use x="57.410156" xlink:href="#DejaVuSans-114"/>
      <use x="98.492188" xlink:href="#DejaVuSans-101"/>
      <use x="160.015625" xlink:href="#DejaVuSans-101"/>
      <use x="221.539062" xlink:href="#DejaVuSans-32"/>
      <use x="253.326172" xlink:href="#DejaVuSans-47"/>
      <use x="287.017578" xlink:href="#DejaVuSans-32"/>
      <use x="318.804688" xlink:href="#DejaVuSans-117"/>
      <use x="382.183594" xlink:href="#DejaVuSans-110"/>
      <use x="445.5625" xlink:href="#DejaVuSans-105"/>
      <use x="473.345703" xlink:href="#DejaVuSans-110"/>
      <use x="536.724609" xlink:href="#DejaVuSans-102"/>
      <use x="571.929688" xlink:href="#DejaVuSans-111"/>
      <use x="633.111328" xlink:href="#DejaVuSans-114"/>
      <use x="674.208984" xlink:href="#DejaVuSans-109"/>
      <use x="771.621094" xlink:href="#DejaVuSans-101"/>
      <use x="833.144531" xlink:href="#DejaVuSans-100"/>
     </g>
    </g>
    <g id="LineCollection_9">
     <path d="M 93.054 328.696562
L 93.054 318.696562
" style="fill:none;stroke:#008fd5;stroke-width:1.5;"/>
    </g>
    <g id="line2d_86">
     <g>
      <use style="fill:#008fd5;stroke:#008fd5;" x="93.054" xlink:href="#m8f7fd5c2ba" y="328.696562"/>
     </g>
    </g>
    <g id="line2d_87">
     <g>
      <use style="fill:#008fd5;stroke:#008fd5;" x="93.054" xlink:href="#m8f7fd5c2ba" y="318.696562"/>
     </g>
    </g>
    <g id="line2d_88">
     <path d="M 83.054 323.696562
L 103.054 323.696562
" style="fill:none;stroke:#008fd5;stroke-linecap:square;stroke-width:1.5;"/>
    </g>
    <g id="line2d_89"/>
    <g id="text_44">
     <!-- Free / informed -->
     <g transform="translate(111.054 327.196562)scale(0.1 -0.1)">
      <use xlink:href="#DejaVuSans-70"/>
      <use x="57.410156" xlink:href="#DejaVuSans-114"/>
      <use x="98.492188" xlink:href="#DejaVuSans-101"/>
      <use x="160.015625" xlink:href="#DejaVuSans-101"/>
      <use x="221.539062" xlink:href="#DejaVuSans-32"/>
      <use x="253.326172" xlink:href="#DejaVuSans-47"/>
      <use x="287.017578" xlink:href="#DejaVuSans-32"/>
      <use x="318.804688" xlink:href="#DejaVuSans-105"/>
      <use x="346.587891" xlink:href="#DejaVuSans-110"/>
      <use x="409.966797" xlink:href="#DejaVuSans-102"/>
      <use x="445.171875" xlink:href="#DejaVuSans-111"/>
      <use x="506.353516" xlink:href="#DejaVuSans-114"/>
      <use x="547.451172" xlink:href="#DejaVuSans-109"/>
      <use x="644.863281" xlink:href="#DejaVuSans-101"/>
      <use x="706.386719" xlink:href="#DejaVuSans-100"/>
     </g>
    </g>
    <g id="LineCollection_10">
     <path d="M 93.054 343.374687
L 93.054 333.374687
" style="fill:none;stroke:#fc4f30;stroke-width:1.5;"/>
    </g>
    <g id="line2d_90">
     <g>
      <use style="fill:#fc4f30;stroke:#fc4f30;" x="93.054" xlink:href="#m15279fa0ee" y="343.374687"/>
     </g>
    </g>
    <g id="line2d_91">
     <g>
      <use style="fill:#fc4f30;stroke:#fc4f30;" x="93.054" xlink:href="#m15279fa0ee" y="333.374687"/>
     </g>
    </g>
    <g id="line2d_92">
     <path d="M 83.054 338.374687
L 103.054 338.374687
" style="fill:none;stroke:#fc4f30;stroke-dasharray:5.55,2.4;stroke-dashoffset:0;stroke-width:1.5;"/>
    </g>
    <g id="line2d_93"/>
    <g id="text_45">
     <!-- Strategic / uninformed -->
     <g transform="translate(111.054 341.874687)scale(0.1 -0.1)">
      <use xlink:href="#DejaVuSans-83"/>
      <use x="63.476562" xlink:href="#DejaVuSans-116"/>
      <use x="102.685547" xlink:href="#DejaVuSans-114"/>
      <use x="143.798828" xlink:href="#DejaVuSans-97"/>
      <use x="205.078125" xlink:href="#DejaVuSans-116"/>
      <use x="244.287109" xlink:href="#DejaVuSans-101"/>
      <use x="305.810547" xlink:href="#DejaVuSans-103"/>
      <use x="369.287109" xlink:href="#DejaVuSans-105"/>
      <use x="397.070312" xlink:href="#DejaVuSans-99"/>
      <use x="452.050781" xlink:href="#DejaVuSans-32"/>
      <use x="483.837891" xlink:href="#DejaVuSans-47"/>
      <use x="517.529297" xlink:href="#DejaVuSans-32"/>
      <use x="549.316406" xlink:href="#DejaVuSans-117"/>
      <use x="612.695312" xlink:href="#DejaVuSans-110"/>
      <use x="676.074219" xlink:href="#DejaVuSans-105"/>
      <use x="703.857422" xlink:href="#DejaVuSans-110"/>
      <use x="767.236328" xlink:href="#DejaVuSans-102"/>
      <use x="802.441406" xlink:href="#DejaVuSans-111"/>
      <use x="863.623047" xlink:href="#DejaVuSans-114"/>
      <use x="904.720703" xlink:href="#DejaVuSans-109"/>
      <use x="1002.132812" xlink:href="#DejaVuSans-101"/>
      <use x="1063.65625" xlink:href="#DejaVuSans-100"/>
     </g>
    </g>
    <g id="LineCollection_11">
     <path d="M 93.054 358.052812
L 93.054 348.052812
" style="fill:none;stroke:#fc4f30;stroke-width:1.5;"/>
    </g>
    <g id="line2d_94">
     <g>
      <use style="fill:#fc4f30;stroke:#fc4f30;" x="93.054" xlink:href="#m15279fa0ee" y="358.052812"/>
     </g>
    </g>
    <g id="line2d_95">
     <g>
      <use style="fill:#fc4f30;stroke:#fc4f30;" x="93.054" xlink:href="#m15279fa0ee" y="348.052812"/>
     </g>
    </g>
    <g id="line2d_96">
     <path d="M 83.054 353.052812
L 103.054 353.052812
" style="fill:none;stroke:#fc4f30;stroke-linecap:square;stroke-width:1.5;"/>
    </g>
    <g id="line2d_97"/>
    <g id="text_46">
     <!-- Strategic / informed -->
     <g transform="translate(111.054 356.552812)scale(0.1 -0.1)">
      <use xlink:href="#DejaVuSans-83"/>
      <use x="63.476562" xlink:href="#DejaVuSans-116"/>
      <use x="102.685547" xlink:href="#DejaVuSans-114"/>
      <use x="143.798828" xlink:href="#DejaVuSans-97"/>
      <use x="205.078125" xlink:href="#DejaVuSans-116"/>
      <use x="244.287109" xlink:href="#DejaVuSans-101"/>
      <use x="305.810547" xlink:href="#DejaVuSans-103"/>
      <use x="369.287109" xlink:href="#DejaVuSans-105"/>
      <use x="397.070312" xlink:href="#DejaVuSans-99"/>
      <use x="452.050781" xlink:href="#DejaVuSans-32"/>
      <use x="483.837891" xlink:href="#DejaVuSans-47"/>
      <use x="517.529297" xlink:href="#DejaVuSans-32"/>
      <use x="549.316406" xlink:href="#DejaVuSans-105"/>
      <use x="577.099609" xlink:href="#DejaVuSans-110"/>
      <use x="640.478516" xlink:href="#DejaVuSans-102"/>
      <use x="675.683594" xlink:href="#DejaVuSans-111"/>
      <use x="736.865234" xlink:href="#DejaVuSans-114"/>
      <use x="777.962891" xlink:href="#DejaVuSans-109"/>
      <use x="875.375" xlink:href="#DejaVuSans-101"/>
      <use x="936.898438" xlink:href="#DejaVuSans-100"/>
     </g>
    </g>
   </g>
  </g>
 </g>
 <defs>
  <clipPath id="p7e6c13f1ce">
   <rect height="238.12" width="213.901" x="74.054" y="13.32"/>
  </clipPath>
  <clipPath id="p34fbaa087a">
   <rect height="238.12" width="213.901" x="348.779" y="13.32"/>
  </clipPath>
  <clipPath id="p1b07cbee10">
   <rect height="238.12" width="488.626" x="74.054" y="295.92"/>
  </clipPath>
 </defs>
</svg>
