<?xml version="1.0" encoding="utf-8" standalone="no"?>
<!DOCTYPE svg PUBLIC "-//W3C//DTD SVG 1.1//EN"
  "http://www.w3.org/Graphics/SVG/1.1/DTD/svg11.dtd">
<!-- Created with matplotlib (https://matplotlib.org/) -->
<svg height="576pt" version="1.1" viewBox="0 0 576 576" width="576pt" xmlns="http://www.w3.org/2000/svg" xmlns:xlink="http://www.w3.org/1999/xlink">
 <defs>
  <style type="text/css">
*{stroke-linecap:butt;stroke-linejoin:round;}
  </style>
 </defs>
 <g id="figure_1">
  <g id="patch_1">
   <path d="M 0 576
L 576 576
L 576 0
L 0 0
z
" style="fill:#ffffff;"/>
  </g>
  <g id="axes_1">
   <g id="patch_2">
    <path d="M 65.684 251.44
L 287.955 251.44
L 287.955 13.32
L 65.684 13.32
z
" style="fill:#ffffff;"/>
   </g>
   <g id="matplotlib.axis_1">
    <g id="xtick_1">
     <g id="line2d_1">
      <defs>
       <path d="M 0 0
L 0 3.5
" id="m62eb62313e" style="stroke:#000000;stroke-width:0.8;"/>
      </defs>
      <g>
       <use style="stroke:#000000;stroke-width:0.8;" x="94.344175" xlink:href="#m62eb62313e" y="251.44"/>
      </g>
     </g>
     <g id="text_1">
      <!-- F -->
      <defs>
       <path d="M 9.8125 72.90625
L 51.703125 72.90625
L 51.703125 64.59375
L 19.671875 64.59375
L 19.671875 43.109375
L 48.578125 43.109375
L 48.578125 34.8125
L 19.671875 34.8125
L 19.671875 0
L 9.8125 0
z
" id="DejaVuSans-70"/>
      </defs>
      <g transform="translate(91.468394 266.038437)scale(0.1 -0.1)">
       <use xlink:href="#DejaVuSans-70"/>
      </g>
     </g>
    </g>
    <g id="xtick_2">
     <g id="line2d_2">
      <g>
       <use style="stroke:#000000;stroke-width:0.8;" x="135.581838" xlink:href="#m62eb62313e" y="251.44"/>
      </g>
     </g>
     <g id="text_2">
      <!-- S -->
      <defs>
       <path d="M 53.515625 70.515625
L 53.515625 60.890625
Q 47.90625 63.578125 42.921875 64.890625
Q 37.9375 66.21875 33.296875 66.21875
Q 25.25 66.21875 20.875 63.09375
Q 16.5 59.96875 16.5 54.203125
Q 16.5 49.359375 19.40625 46.890625
Q 22.3125 44.4375 30.421875 42.921875
L 36.375 41.703125
Q 47.40625 39.59375 52.65625 34.296875
Q 57.90625 29 57.90625 20.125
Q 57.90625 9.515625 50.796875 4.046875
Q 43.703125 -1.421875 29.984375 -1.421875
Q 24.8125 -1.421875 18.96875 -0.25
Q 13.140625 0.921875 6.890625 3.21875
L 6.890625 13.375
Q 12.890625 10.015625 18.65625 8.296875
Q 24.421875 6.59375 29.984375 6.59375
Q 38.421875 6.59375 43.015625 9.90625
Q 47.609375 13.234375 47.609375 19.390625
Q 47.609375 24.75 44.3125 27.78125
Q 41.015625 30.8125 33.5 32.328125
L 27.484375 33.5
Q 16.453125 35.6875 11.515625 40.375
Q 6.59375 45.0625 6.59375 53.421875
Q 6.59375 63.09375 13.40625 68.65625
Q 20.21875 74.21875 32.171875 74.21875
Q 37.3125 74.21875 42.625 73.28125
Q 47.953125 72.359375 53.515625 70.515625
z
" id="DejaVuSans-83"/>
      </defs>
      <g transform="translate(132.407619 266.038437)scale(0.1 -0.1)">
       <use xlink:href="#DejaVuSans-83"/>
      </g>
     </g>
    </g>
    <g id="xtick_3">
     <g id="line2d_3">
      <g>
       <use style="stroke:#000000;stroke-width:0.8;" x="218.057162" xlink:href="#m62eb62313e" y="251.44"/>
      </g>
     </g>
     <g id="text_3">
      <!-- i- -->
      <defs>
       <path d="M 9.421875 54.6875
L 18.40625 54.6875
L 18.40625 0
L 9.421875 0
z
M 9.421875 75.984375
L 18.40625 75.984375
L 18.40625 64.59375
L 9.421875 64.59375
z
" id="DejaVuSans-105"/>
       <path d="M 4.890625 31.390625
L 31.203125 31.390625
L 31.203125 23.390625
L 4.890625 23.390625
z
" id="DejaVuSans-45"/>
      </defs>
      <g transform="translate(214.864194 266.038437)scale(0.1 -0.1)">
       <use xlink:href="#DejaVuSans-105"/>
       <use x="27.783203" xlink:href="#DejaVuSans-45"/>
      </g>
     </g>
    </g>
    <g id="xtick_4">
     <g id="line2d_4">
      <g>
       <use style="stroke:#000000;stroke-width:0.8;" x="259.294825" xlink:href="#m62eb62313e" y="251.44"/>
      </g>
     </g>
     <g id="text_4">
      <!-- i+ -->
      <defs>
       <path d="M 46 62.703125
L 46 35.5
L 73.1875 35.5
L 73.1875 27.203125
L 46 27.203125
L 46 0
L 37.796875 0
L 37.796875 27.203125
L 10.59375 27.203125
L 10.59375 35.5
L 37.796875 35.5
L 37.796875 62.703125
z
" id="DejaVuSans-43"/>
      </defs>
      <g transform="translate(253.715918 266.038437)scale(0.1 -0.1)">
       <use xlink:href="#DejaVuSans-105"/>
       <use x="27.783203" xlink:href="#DejaVuSans-43"/>
      </g>
     </g>
    </g>
    <g id="text_5">
     <!-- Group / Condition -->
     <defs>
      <path d="M 59.515625 10.40625
L 59.515625 29.984375
L 43.40625 29.984375
L 43.40625 38.09375
L 69.28125 38.09375
L 69.28125 6.78125
Q 63.578125 2.734375 56.6875 0.65625
Q 49.8125 -1.421875 42 -1.421875
Q 24.90625 -1.421875 15.25 8.5625
Q 5.609375 18.5625 5.609375 36.375
Q 5.609375 54.25 15.25 64.234375
Q 24.90625 74.21875 42 74.21875
Q 49.125 74.21875 55.546875 72.453125
Q 61.96875 70.703125 67.390625 67.28125
L 67.390625 56.78125
Q 61.921875 61.421875 55.765625 63.765625
Q 49.609375 66.109375 42.828125 66.109375
Q 29.4375 66.109375 22.71875 58.640625
Q 16.015625 51.171875 16.015625 36.375
Q 16.015625 21.625 22.71875 14.15625
Q 29.4375 6.6875 42.828125 6.6875
Q 48.046875 6.6875 52.140625 7.59375
Q 56.25 8.5 59.515625 10.40625
z
" id="DejaVuSans-71"/>
      <path d="M 41.109375 46.296875
Q 39.59375 47.171875 37.8125 47.578125
Q 36.03125 48 33.890625 48
Q 26.265625 48 22.1875 43.046875
Q 18.109375 38.09375 18.109375 28.8125
L 18.109375 0
L 9.078125 0
L 9.078125 54.6875
L 18.109375 54.6875
L 18.109375 46.1875
Q 20.953125 51.171875 25.484375 53.578125
Q 30.03125 56 36.53125 56
Q 37.453125 56 38.578125 55.875
Q 39.703125 55.765625 41.0625 55.515625
z
" id="DejaVuSans-114"/>
      <path d="M 30.609375 48.390625
Q 23.390625 48.390625 19.1875 42.75
Q 14.984375 37.109375 14.984375 27.296875
Q 14.984375 17.484375 19.15625 11.84375
Q 23.34375 6.203125 30.609375 6.203125
Q 37.796875 6.203125 41.984375 11.859375
Q 46.1875 17.53125 46.1875 27.296875
Q 46.1875 37.015625 41.984375 42.703125
Q 37.796875 48.390625 30.609375 48.390625
z
M 30.609375 56
Q 42.328125 56 49.015625 48.375
Q 55.71875 40.765625 55.71875 27.296875
Q 55.71875 13.875 49.015625 6.21875
Q 42.328125 -1.421875 30.609375 -1.421875
Q 18.84375 -1.421875 12.171875 6.21875
Q 5.515625 13.875 5.515625 27.296875
Q 5.515625 40.765625 12.171875 48.375
Q 18.84375 56 30.609375 56
z
" id="DejaVuSans-111"/>
      <path d="M 8.5 21.578125
L 8.5 54.6875
L 17.484375 54.6875
L 17.484375 21.921875
Q 17.484375 14.15625 20.5 10.265625
Q 23.53125 6.390625 29.59375 6.390625
Q 36.859375 6.390625 41.078125 11.03125
Q 45.3125 15.671875 45.3125 23.6875
L 45.3125 54.6875
L 54.296875 54.6875
L 54.296875 0
L 45.3125 0
L 45.3125 8.40625
Q 42.046875 3.421875 37.71875 1
Q 33.40625 -1.421875 27.6875 -1.421875
Q 18.265625 -1.421875 13.375 4.4375
Q 8.5 10.296875 8.5 21.578125
z
M 31.109375 56
z
" id="DejaVuSans-117"/>
      <path d="M 18.109375 8.203125
L 18.109375 -20.796875
L 9.078125 -20.796875
L 9.078125 54.6875
L 18.109375 54.6875
L 18.109375 46.390625
Q 20.953125 51.265625 25.265625 53.625
Q 29.59375 56 35.59375 56
Q 45.5625 56 51.78125 48.09375
Q 58.015625 40.1875 58.015625 27.296875
Q 58.015625 14.40625 51.78125 6.484375
Q 45.5625 -1.421875 35.59375 -1.421875
Q 29.59375 -1.421875 25.265625 0.953125
Q 20.953125 3.328125 18.109375 8.203125
z
M 48.6875 27.296875
Q 48.6875 37.203125 44.609375 42.84375
Q 40.53125 48.484375 33.40625 48.484375
Q 26.265625 48.484375 22.1875 42.84375
Q 18.109375 37.203125 18.109375 27.296875
Q 18.109375 17.390625 22.1875 11.75
Q 26.265625 6.109375 33.40625 6.109375
Q 40.53125 6.109375 44.609375 11.75
Q 48.6875 17.390625 48.6875 27.296875
z
" id="DejaVuSans-112"/>
      <path id="DejaVuSans-32"/>
      <path d="M 25.390625 72.90625
L 33.6875 72.90625
L 8.296875 -9.28125
L 0 -9.28125
z
" id="DejaVuSans-47"/>
      <path d="M 64.40625 67.28125
L 64.40625 56.890625
Q 59.421875 61.53125 53.78125 63.8125
Q 48.140625 66.109375 41.796875 66.109375
Q 29.296875 66.109375 22.65625 58.46875
Q 16.015625 50.828125 16.015625 36.375
Q 16.015625 21.96875 22.65625 14.328125
Q 29.296875 6.6875 41.796875 6.6875
Q 48.140625 6.6875 53.78125 8.984375
Q 59.421875 11.28125 64.40625 15.921875
L 64.40625 5.609375
Q 59.234375 2.09375 53.4375 0.328125
Q 47.65625 -1.421875 41.21875 -1.421875
Q 24.65625 -1.421875 15.125 8.703125
Q 5.609375 18.84375 5.609375 36.375
Q 5.609375 53.953125 15.125 64.078125
Q 24.65625 74.21875 41.21875 74.21875
Q 47.75 74.21875 53.53125 72.484375
Q 59.328125 70.75 64.40625 67.28125
z
" id="DejaVuSans-67"/>
      <path d="M 54.890625 33.015625
L 54.890625 0
L 45.90625 0
L 45.90625 32.71875
Q 45.90625 40.484375 42.875 44.328125
Q 39.84375 48.1875 33.796875 48.1875
Q 26.515625 48.1875 22.3125 43.546875
Q 18.109375 38.921875 18.109375 30.90625
L 18.109375 0
L 9.078125 0
L 9.078125 54.6875
L 18.109375 54.6875
L 18.109375 46.1875
Q 21.34375 51.125 25.703125 53.5625
Q 30.078125 56 35.796875 56
Q 45.21875 56 50.046875 50.171875
Q 54.890625 44.34375 54.890625 33.015625
z
" id="DejaVuSans-110"/>
      <path d="M 45.40625 46.390625
L 45.40625 75.984375
L 54.390625 75.984375
L 54.390625 0
L 45.40625 0
L 45.40625 8.203125
Q 42.578125 3.328125 38.25 0.953125
Q 33.9375 -1.421875 27.875 -1.421875
Q 17.96875 -1.421875 11.734375 6.484375
Q 5.515625 14.40625 5.515625 27.296875
Q 5.515625 40.1875 11.734375 48.09375
Q 17.96875 56 27.875 56
Q 33.9375 56 38.25 53.625
Q 42.578125 51.265625 45.40625 46.390625
z
M 14.796875 27.296875
Q 14.796875 17.390625 18.875 11.75
Q 22.953125 6.109375 30.078125 6.109375
Q 37.203125 6.109375 41.296875 11.75
Q 45.40625 17.390625 45.40625 27.296875
Q 45.40625 37.203125 41.296875 42.84375
Q 37.203125 48.484375 30.078125 48.484375
Q 22.953125 48.484375 18.875 42.84375
Q 14.796875 37.203125 14.796875 27.296875
z
" id="DejaVuSans-100"/>
      <path d="M 18.3125 70.21875
L 18.3125 54.6875
L 36.8125 54.6875
L 36.8125 47.703125
L 18.3125 47.703125
L 18.3125 18.015625
Q 18.3125 11.328125 20.140625 9.421875
Q 21.96875 7.515625 27.59375 7.515625
L 36.8125 7.515625
L 36.8125 0
L 27.59375 0
Q 17.1875 0 13.234375 3.875
Q 9.28125 7.765625 9.28125 18.015625
L 9.28125 47.703125
L 2.6875 47.703125
L 2.6875 54.6875
L 9.28125 54.6875
L 9.28125 70.21875
z
" id="DejaVuSans-116"/>
     </defs>
     <g transform="translate(132.766375 279.716563)scale(0.1 -0.1)">
      <use xlink:href="#DejaVuSans-71"/>
      <use x="77.490234" xlink:href="#DejaVuSans-114"/>
      <use x="118.572266" xlink:href="#DejaVuSans-111"/>
      <use x="179.753906" xlink:href="#DejaVuSans-117"/>
      <use x="243.132812" xlink:href="#DejaVuSans-112"/>
      <use x="306.609375" xlink:href="#DejaVuSans-32"/>
      <use x="338.396484" xlink:href="#DejaVuSans-47"/>
      <use x="372.087891" xlink:href="#DejaVuSans-32"/>
      <use x="403.875" xlink:href="#DejaVuSans-67"/>
      <use x="473.699219" xlink:href="#DejaVuSans-111"/>
      <use x="534.880859" xlink:href="#DejaVuSans-110"/>
      <use x="598.259766" xlink:href="#DejaVuSans-100"/>
      <use x="661.736328" xlink:href="#DejaVuSans-105"/>
      <use x="689.519531" xlink:href="#DejaVuSans-116"/>
      <use x="728.728516" xlink:href="#DejaVuSans-105"/>
      <use x="756.511719" xlink:href="#DejaVuSans-111"/>
      <use x="817.693359" xlink:href="#DejaVuSans-110"/>
     </g>
    </g>
   </g>
   <g id="matplotlib.axis_2">
    <g id="ytick_1">
     <g id="line2d_5">
      <path clip-path="url(#p98718d8b32)" d="M 65.684 248.512362
L 287.955 248.512362
" style="fill:none;stroke:#b0b0b0;stroke-dasharray:0.8,1.32;stroke-dashoffset:0;stroke-width:0.8;"/>
     </g>
     <g id="line2d_6">
      <defs>
       <path d="M 0 0
L -3.5 0
" id="mb7f1eb9a5f" style="stroke:#000000;stroke-width:0.8;"/>
      </defs>
      <g>
       <use style="stroke:#000000;stroke-width:0.8;" x="65.684" xlink:href="#mb7f1eb9a5f" y="248.512362"/>
      </g>
     </g>
     <g id="text_6">
      <!-- 6.00 -->
      <defs>
       <path d="M 33.015625 40.375
Q 26.375 40.375 22.484375 35.828125
Q 18.609375 31.296875 18.609375 23.390625
Q 18.609375 15.53125 22.484375 10.953125
Q 26.375 6.390625 33.015625 6.390625
Q 39.65625 6.390625 43.53125 10.953125
Q 47.40625 15.53125 47.40625 23.390625
Q 47.40625 31.296875 43.53125 35.828125
Q 39.65625 40.375 33.015625 40.375
z
M 52.59375 71.296875
L 52.59375 62.3125
Q 48.875 64.0625 45.09375 64.984375
Q 41.3125 65.921875 37.59375 65.921875
Q 27.828125 65.921875 22.671875 59.328125
Q 17.53125 52.734375 16.796875 39.40625
Q 19.671875 43.65625 24.015625 45.921875
Q 28.375 48.1875 33.59375 48.1875
Q 44.578125 48.1875 50.953125 41.515625
Q 57.328125 34.859375 57.328125 23.390625
Q 57.328125 12.15625 50.6875 5.359375
Q 44.046875 -1.421875 33.015625 -1.421875
Q 20.359375 -1.421875 13.671875 8.265625
Q 6.984375 17.96875 6.984375 36.375
Q 6.984375 53.65625 15.1875 63.9375
Q 23.390625 74.21875 37.203125 74.21875
Q 40.921875 74.21875 44.703125 73.484375
Q 48.484375 72.75 52.59375 71.296875
z
" id="DejaVuSans-54"/>
       <path d="M 10.6875 12.40625
L 21 12.40625
L 21 0
L 10.6875 0
z
" id="DejaVuSans-46"/>
       <path d="M 31.78125 66.40625
Q 24.171875 66.40625 20.328125 58.90625
Q 16.5 51.421875 16.5 36.375
Q 16.5 21.390625 20.328125 13.890625
Q 24.171875 6.390625 31.78125 6.390625
Q 39.453125 6.390625 43.28125 13.890625
Q 47.125 21.390625 47.125 36.375
Q 47.125 51.421875 43.28125 58.90625
Q 39.453125 66.40625 31.78125 66.40625
z
M 31.78125 74.21875
Q 44.046875 74.21875 50.515625 64.515625
Q 56.984375 54.828125 56.984375 36.375
Q 56.984375 17.96875 50.515625 8.265625
Q 44.046875 -1.421875 31.78125 -1.421875
Q 19.53125 -1.421875 13.0625 8.265625
Q 6.59375 17.96875 6.59375 36.375
Q 6.59375 54.828125 13.0625 64.515625
Q 19.53125 74.21875 31.78125 74.21875
z
" id="DejaVuSans-48"/>
      </defs>
      <g transform="translate(36.418375 252.31158)scale(0.1 -0.1)">
       <use xlink:href="#DejaVuSans-54"/>
       <use x="63.623047" xlink:href="#DejaVuSans-46"/>
       <use x="95.410156" xlink:href="#DejaVuSans-48"/>
       <use x="159.033203" xlink:href="#DejaVuSans-48"/>
      </g>
     </g>
    </g>
    <g id="ytick_2">
     <g id="line2d_7">
      <path clip-path="url(#p98718d8b32)" d="M 65.684 220.932302
L 287.955 220.932302
" style="fill:none;stroke:#b0b0b0;stroke-dasharray:0.8,1.32;stroke-dashoffset:0;stroke-width:0.8;"/>
     </g>
     <g id="line2d_8">
      <g>
       <use style="stroke:#000000;stroke-width:0.8;" x="65.684" xlink:href="#mb7f1eb9a5f" y="220.932302"/>
      </g>
     </g>
     <g id="text_7">
      <!-- 6.25 -->
      <defs>
       <path d="M 19.1875 8.296875
L 53.609375 8.296875
L 53.609375 0
L 7.328125 0
L 7.328125 8.296875
Q 12.9375 14.109375 22.625 23.890625
Q 32.328125 33.6875 34.8125 36.53125
Q 39.546875 41.84375 41.421875 45.53125
Q 43.3125 49.21875 43.3125 52.78125
Q 43.3125 58.59375 39.234375 62.25
Q 35.15625 65.921875 28.609375 65.921875
Q 23.96875 65.921875 18.8125 64.3125
Q 13.671875 62.703125 7.8125 59.421875
L 7.8125 69.390625
Q 13.765625 71.78125 18.9375 73
Q 24.125 74.21875 28.421875 74.21875
Q 39.75 74.21875 46.484375 68.546875
Q 53.21875 62.890625 53.21875 53.421875
Q 53.21875 48.921875 51.53125 44.890625
Q 49.859375 40.875 45.40625 35.40625
Q 44.1875 33.984375 37.640625 27.21875
Q 31.109375 20.453125 19.1875 8.296875
z
" id="DejaVuSans-50"/>
       <path d="M 10.796875 72.90625
L 49.515625 72.90625
L 49.515625 64.59375
L 19.828125 64.59375
L 19.828125 46.734375
Q 21.96875 47.46875 24.109375 47.828125
Q 26.265625 48.1875 28.421875 48.1875
Q 40.625 48.1875 47.75 41.5
Q 54.890625 34.8125 54.890625 23.390625
Q 54.890625 11.625 47.5625 5.09375
Q 40.234375 -1.421875 26.90625 -1.421875
Q 22.3125 -1.421875 17.546875 -0.640625
Q 12.796875 0.140625 7.71875 1.703125
L 7.71875 11.625
Q 12.109375 9.234375 16.796875 8.0625
Q 21.484375 6.890625 26.703125 6.890625
Q 35.15625 6.890625 40.078125 11.328125
Q 45.015625 15.765625 45.015625 23.390625
Q 45.015625 31 40.078125 35.4375
Q 35.15625 39.890625 26.703125 39.890625
Q 22.75 39.890625 18.8125 39.015625
Q 14.890625 38.140625 10.796875 36.28125
z
" id="DejaVuSans-53"/>
      </defs>
      <g transform="translate(36.418375 224.731521)scale(0.1 -0.1)">
       <use xlink:href="#DejaVuSans-54"/>
       <use x="63.623047" xlink:href="#DejaVuSans-46"/>
       <use x="95.410156" xlink:href="#DejaVuSans-50"/>
       <use x="159.033203" xlink:href="#DejaVuSans-53"/>
      </g>
     </g>
    </g>
    <g id="ytick_3">
     <g id="line2d_9">
      <path clip-path="url(#p98718d8b32)" d="M 65.684 193.352243
L 287.955 193.352243
" style="fill:none;stroke:#b0b0b0;stroke-dasharray:0.8,1.32;stroke-dashoffset:0;stroke-width:0.8;"/>
     </g>
     <g id="line2d_10">
      <g>
       <use style="stroke:#000000;stroke-width:0.8;" x="65.684" xlink:href="#mb7f1eb9a5f" y="193.352243"/>
      </g>
     </g>
     <g id="text_8">
      <!-- 6.50 -->
      <g transform="translate(36.418375 197.151461)scale(0.1 -0.1)">
       <use xlink:href="#DejaVuSans-54"/>
       <use x="63.623047" xlink:href="#DejaVuSans-46"/>
       <use x="95.410156" xlink:href="#DejaVuSans-53"/>
       <use x="159.033203" xlink:href="#DejaVuSans-48"/>
      </g>
     </g>
    </g>
    <g id="ytick_4">
     <g id="line2d_11">
      <path clip-path="url(#p98718d8b32)" d="M 65.684 165.772183
L 287.955 165.772183
" style="fill:none;stroke:#b0b0b0;stroke-dasharray:0.8,1.32;stroke-dashoffset:0;stroke-width:0.8;"/>
     </g>
     <g id="line2d_12">
      <g>
       <use style="stroke:#000000;stroke-width:0.8;" x="65.684" xlink:href="#mb7f1eb9a5f" y="165.772183"/>
      </g>
     </g>
     <g id="text_9">
      <!-- 6.75 -->
      <defs>
       <path d="M 8.203125 72.90625
L 55.078125 72.90625
L 55.078125 68.703125
L 28.609375 0
L 18.3125 0
L 43.21875 64.59375
L 8.203125 64.59375
z
" id="DejaVuSans-55"/>
      </defs>
      <g transform="translate(36.418375 169.571402)scale(0.1 -0.1)">
       <use xlink:href="#DejaVuSans-54"/>
       <use x="63.623047" xlink:href="#DejaVuSans-46"/>
       <use x="95.410156" xlink:href="#DejaVuSans-55"/>
       <use x="159.033203" xlink:href="#DejaVuSans-53"/>
      </g>
     </g>
    </g>
    <g id="ytick_5">
     <g id="line2d_13">
      <path clip-path="url(#p98718d8b32)" d="M 65.684 138.192124
L 287.955 138.192124
" style="fill:none;stroke:#b0b0b0;stroke-dasharray:0.8,1.32;stroke-dashoffset:0;stroke-width:0.8;"/>
     </g>
     <g id="line2d_14">
      <g>
       <use style="stroke:#000000;stroke-width:0.8;" x="65.684" xlink:href="#mb7f1eb9a5f" y="138.192124"/>
      </g>
     </g>
     <g id="text_10">
      <!-- 7.00 -->
      <g transform="translate(36.418375 141.991342)scale(0.1 -0.1)">
       <use xlink:href="#DejaVuSans-55"/>
       <use x="63.623047" xlink:href="#DejaVuSans-46"/>
       <use x="95.410156" xlink:href="#DejaVuSans-48"/>
       <use x="159.033203" xlink:href="#DejaVuSans-48"/>
      </g>
     </g>
    </g>
    <g id="ytick_6">
     <g id="line2d_15">
      <path clip-path="url(#p98718d8b32)" d="M 65.684 110.612064
L 287.955 110.612064
" style="fill:none;stroke:#b0b0b0;stroke-dasharray:0.8,1.32;stroke-dashoffset:0;stroke-width:0.8;"/>
     </g>
     <g id="line2d_16">
      <g>
       <use style="stroke:#000000;stroke-width:0.8;" x="65.684" xlink:href="#mb7f1eb9a5f" y="110.612064"/>
      </g>
     </g>
     <g id="text_11">
      <!-- 7.25 -->
      <g transform="translate(36.418375 114.411283)scale(0.1 -0.1)">
       <use xlink:href="#DejaVuSans-55"/>
       <use x="63.623047" xlink:href="#DejaVuSans-46"/>
       <use x="95.410156" xlink:href="#DejaVuSans-50"/>
       <use x="159.033203" xlink:href="#DejaVuSans-53"/>
      </g>
     </g>
    </g>
    <g id="ytick_7">
     <g id="line2d_17">
      <path clip-path="url(#p98718d8b32)" d="M 65.684 83.032005
L 287.955 83.032005
" style="fill:none;stroke:#b0b0b0;stroke-dasharray:0.8,1.32;stroke-dashoffset:0;stroke-width:0.8;"/>
     </g>
     <g id="line2d_18">
      <g>
       <use style="stroke:#000000;stroke-width:0.8;" x="65.684" xlink:href="#mb7f1eb9a5f" y="83.032005"/>
      </g>
     </g>
     <g id="text_12">
      <!-- 7.50 -->
      <g transform="translate(36.418375 86.831223)scale(0.1 -0.1)">
       <use xlink:href="#DejaVuSans-55"/>
       <use x="63.623047" xlink:href="#DejaVuSans-46"/>
       <use x="95.410156" xlink:href="#DejaVuSans-53"/>
       <use x="159.033203" xlink:href="#DejaVuSans-48"/>
      </g>
     </g>
    </g>
    <g id="ytick_8">
     <g id="line2d_19">
      <path clip-path="url(#p98718d8b32)" d="M 65.684 55.451945
L 287.955 55.451945
" style="fill:none;stroke:#b0b0b0;stroke-dasharray:0.8,1.32;stroke-dashoffset:0;stroke-width:0.8;"/>
     </g>
     <g id="line2d_20">
      <g>
       <use style="stroke:#000000;stroke-width:0.8;" x="65.684" xlink:href="#mb7f1eb9a5f" y="55.451945"/>
      </g>
     </g>
     <g id="text_13">
      <!-- 7.75 -->
      <g transform="translate(36.418375 59.251164)scale(0.1 -0.1)">
       <use xlink:href="#DejaVuSans-55"/>
       <use x="63.623047" xlink:href="#DejaVuSans-46"/>
       <use x="95.410156" xlink:href="#DejaVuSans-55"/>
       <use x="159.033203" xlink:href="#DejaVuSans-53"/>
      </g>
     </g>
    </g>
    <g id="ytick_9">
     <g id="line2d_21">
      <path clip-path="url(#p98718d8b32)" d="M 65.684 27.871886
L 287.955 27.871886
" style="fill:none;stroke:#b0b0b0;stroke-dasharray:0.8,1.32;stroke-dashoffset:0;stroke-width:0.8;"/>
     </g>
     <g id="line2d_22">
      <g>
       <use style="stroke:#000000;stroke-width:0.8;" x="65.684" xlink:href="#mb7f1eb9a5f" y="27.871886"/>
      </g>
     </g>
     <g id="text_14">
      <!-- 8.00 -->
      <defs>
       <path d="M 31.78125 34.625
Q 24.75 34.625 20.71875 30.859375
Q 16.703125 27.09375 16.703125 20.515625
Q 16.703125 13.921875 20.71875 10.15625
Q 24.75 6.390625 31.78125 6.390625
Q 38.8125 6.390625 42.859375 10.171875
Q 46.921875 13.96875 46.921875 20.515625
Q 46.921875 27.09375 42.890625 30.859375
Q 38.875 34.625 31.78125 34.625
z
M 21.921875 38.8125
Q 15.578125 40.375 12.03125 44.71875
Q 8.5 49.078125 8.5 55.328125
Q 8.5 64.0625 14.71875 69.140625
Q 20.953125 74.21875 31.78125 74.21875
Q 42.671875 74.21875 48.875 69.140625
Q 55.078125 64.0625 55.078125 55.328125
Q 55.078125 49.078125 51.53125 44.71875
Q 48 40.375 41.703125 38.8125
Q 48.828125 37.15625 52.796875 32.3125
Q 56.78125 27.484375 56.78125 20.515625
Q 56.78125 9.90625 50.3125 4.234375
Q 43.84375 -1.421875 31.78125 -1.421875
Q 19.734375 -1.421875 13.25 4.234375
Q 6.78125 9.90625 6.78125 20.515625
Q 6.78125 27.484375 10.78125 32.3125
Q 14.796875 37.15625 21.921875 38.8125
z
M 18.3125 54.390625
Q 18.3125 48.734375 21.84375 45.5625
Q 25.390625 42.390625 31.78125 42.390625
Q 38.140625 42.390625 41.71875 45.5625
Q 45.3125 48.734375 45.3125 54.390625
Q 45.3125 60.0625 41.71875 63.234375
Q 38.140625 66.40625 31.78125 66.40625
Q 25.390625 66.40625 21.84375 63.234375
Q 18.3125 60.0625 18.3125 54.390625
z
" id="DejaVuSans-56"/>
      </defs>
      <g transform="translate(36.418375 31.671104)scale(0.1 -0.1)">
       <use xlink:href="#DejaVuSans-56"/>
       <use x="63.623047" xlink:href="#DejaVuSans-46"/>
       <use x="95.410156" xlink:href="#DejaVuSans-48"/>
       <use x="159.033203" xlink:href="#DejaVuSans-48"/>
      </g>
     </g>
    </g>
    <g id="text_15">
     <!-- Mean rating of -->
     <defs>
      <path d="M 9.8125 72.90625
L 24.515625 72.90625
L 43.109375 23.296875
L 61.8125 72.90625
L 76.515625 72.90625
L 76.515625 0
L 66.890625 0
L 66.890625 64.015625
L 48.09375 14.015625
L 38.1875 14.015625
L 19.390625 64.015625
L 19.390625 0
L 9.8125 0
z
" id="DejaVuSans-77"/>
      <path d="M 56.203125 29.59375
L 56.203125 25.203125
L 14.890625 25.203125
Q 15.484375 15.921875 20.484375 11.0625
Q 25.484375 6.203125 34.421875 6.203125
Q 39.59375 6.203125 44.453125 7.46875
Q 49.3125 8.734375 54.109375 11.28125
L 54.109375 2.78125
Q 49.265625 0.734375 44.1875 -0.34375
Q 39.109375 -1.421875 33.890625 -1.421875
Q 20.796875 -1.421875 13.15625 6.1875
Q 5.515625 13.8125 5.515625 26.8125
Q 5.515625 40.234375 12.765625 48.109375
Q 20.015625 56 32.328125 56
Q 43.359375 56 49.78125 48.890625
Q 56.203125 41.796875 56.203125 29.59375
z
M 47.21875 32.234375
Q 47.125 39.59375 43.09375 43.984375
Q 39.0625 48.390625 32.421875 48.390625
Q 24.90625 48.390625 20.390625 44.140625
Q 15.875 39.890625 15.1875 32.171875
z
" id="DejaVuSans-101"/>
      <path d="M 34.28125 27.484375
Q 23.390625 27.484375 19.1875 25
Q 14.984375 22.515625 14.984375 16.5
Q 14.984375 11.71875 18.140625 8.90625
Q 21.296875 6.109375 26.703125 6.109375
Q 34.1875 6.109375 38.703125 11.40625
Q 43.21875 16.703125 43.21875 25.484375
L 43.21875 27.484375
z
M 52.203125 31.203125
L 52.203125 0
L 43.21875 0
L 43.21875 8.296875
Q 40.140625 3.328125 35.546875 0.953125
Q 30.953125 -1.421875 24.3125 -1.421875
Q 15.921875 -1.421875 10.953125 3.296875
Q 6 8.015625 6 15.921875
Q 6 25.140625 12.171875 29.828125
Q 18.359375 34.515625 30.609375 34.515625
L 43.21875 34.515625
L 43.21875 35.40625
Q 43.21875 41.609375 39.140625 45
Q 35.0625 48.390625 27.6875 48.390625
Q 23 48.390625 18.546875 47.265625
Q 14.109375 46.140625 10.015625 43.890625
L 10.015625 52.203125
Q 14.9375 54.109375 19.578125 55.046875
Q 24.21875 56 28.609375 56
Q 40.484375 56 46.34375 49.84375
Q 52.203125 43.703125 52.203125 31.203125
z
" id="DejaVuSans-97"/>
      <path d="M 45.40625 27.984375
Q 45.40625 37.75 41.375 43.109375
Q 37.359375 48.484375 30.078125 48.484375
Q 22.859375 48.484375 18.828125 43.109375
Q 14.796875 37.75 14.796875 27.984375
Q 14.796875 18.265625 18.828125 12.890625
Q 22.859375 7.515625 30.078125 7.515625
Q 37.359375 7.515625 41.375 12.890625
Q 45.40625 18.265625 45.40625 27.984375
z
M 54.390625 6.78125
Q 54.390625 -7.171875 48.1875 -13.984375
Q 42 -20.796875 29.203125 -20.796875
Q 24.46875 -20.796875 20.265625 -20.09375
Q 16.0625 -19.390625 12.109375 -17.921875
L 12.109375 -9.1875
Q 16.0625 -11.328125 19.921875 -12.34375
Q 23.78125 -13.375 27.78125 -13.375
Q 36.625 -13.375 41.015625 -8.765625
Q 45.40625 -4.15625 45.40625 5.171875
L 45.40625 9.625
Q 42.625 4.78125 38.28125 2.390625
Q 33.9375 0 27.875 0
Q 17.828125 0 11.671875 7.65625
Q 5.515625 15.328125 5.515625 27.984375
Q 5.515625 40.671875 11.671875 48.328125
Q 17.828125 56 27.875 56
Q 33.9375 56 38.28125 53.609375
Q 42.625 51.21875 45.40625 46.390625
L 45.40625 54.6875
L 54.390625 54.6875
z
" id="DejaVuSans-103"/>
      <path d="M 37.109375 75.984375
L 37.109375 68.5
L 28.515625 68.5
Q 23.6875 68.5 21.796875 66.546875
Q 19.921875 64.59375 19.921875 59.515625
L 19.921875 54.6875
L 34.71875 54.6875
L 34.71875 47.703125
L 19.921875 47.703125
L 19.921875 0
L 10.890625 0
L 10.890625 47.703125
L 2.296875 47.703125
L 2.296875 54.6875
L 10.890625 54.6875
L 10.890625 58.5
Q 10.890625 67.625 15.140625 71.796875
Q 19.390625 75.984375 28.609375 75.984375
z
" id="DejaVuSans-102"/>
     </defs>
     <g transform="translate(19.140875 168.812813)rotate(-90)scale(0.1 -0.1)">
      <use xlink:href="#DejaVuSans-77"/>
      <use x="86.279297" xlink:href="#DejaVuSans-101"/>
      <use x="147.802734" xlink:href="#DejaVuSans-97"/>
      <use x="209.082031" xlink:href="#DejaVuSans-110"/>
      <use x="272.460938" xlink:href="#DejaVuSans-32"/>
      <use x="304.248047" xlink:href="#DejaVuSans-114"/>
      <use x="345.361328" xlink:href="#DejaVuSans-97"/>
      <use x="406.640625" xlink:href="#DejaVuSans-116"/>
      <use x="445.849609" xlink:href="#DejaVuSans-105"/>
      <use x="473.632812" xlink:href="#DejaVuSans-110"/>
      <use x="537.011719" xlink:href="#DejaVuSans-103"/>
      <use x="600.488281" xlink:href="#DejaVuSans-32"/>
      <use x="632.275391" xlink:href="#DejaVuSans-111"/>
      <use x="693.457031" xlink:href="#DejaVuSans-102"/>
     </g>
     <!-- rule -->
     <defs>
      <path d="M 9.421875 75.984375
L 18.40625 75.984375
L 18.40625 0
L 9.421875 0
z
" id="DejaVuSans-108"/>
     </defs>
     <g transform="translate(30.338688 142.069844)rotate(-90)scale(0.1 -0.1)">
      <use xlink:href="#DejaVuSans-114"/>
      <use x="41.113281" xlink:href="#DejaVuSans-117"/>
      <use x="104.492188" xlink:href="#DejaVuSans-108"/>
      <use x="132.275391" xlink:href="#DejaVuSans-101"/>
     </g>
    </g>
   </g>
   <g id="patch_3">
    <path clip-path="url(#p98718d8b32)" d="M 75.787227 910.43379
L 112.901123 910.43379
L 112.901123 177.413117
L 75.787227 177.413117
z
" style="fill:#008fd5;"/>
   </g>
   <g id="patch_4">
    <path clip-path="url(#p98718d8b32)" d="M 117.02489 910.43379
L 154.138786 910.43379
L 154.138786 115.970476
L 117.02489 115.970476
z
" style="fill:#008fd5;"/>
   </g>
   <g id="patch_5">
    <path clip-path="url(#p98718d8b32)" d="M 199.500214 910.43379
L 236.61411 910.43379
L 236.61411 143.353304
L 199.500214 143.353304
z
" style="fill:#008fd5;"/>
   </g>
   <g id="patch_6">
    <path clip-path="url(#p98718d8b32)" d="M 240.737877 910.43379
L 277.851773 910.43379
L 277.851773 146.221761
L 240.737877 146.221761
z
" style="fill:#008fd5;"/>
   </g>
   <g id="patch_7">
    <path d="M 65.684 251.44
L 65.684 13.32
" style="fill:none;stroke:#000000;stroke-linecap:square;stroke-linejoin:miter;stroke-width:0.8;"/>
   </g>
   <g id="patch_8">
    <path d="M 65.684 251.44
L 287.955 251.44
" style="fill:none;stroke:#000000;stroke-linecap:square;stroke-linejoin:miter;stroke-width:0.8;"/>
   </g>
   <g id="LineCollection_1">
    <path clip-path="url(#p98718d8b32)" d="M 94.344175 192.218494
L 94.344175 162.607741
" style="fill:none;stroke:#000000;stroke-width:1.5;"/>
    <path clip-path="url(#p98718d8b32)" d="M 135.581838 129.788692
L 135.581838 102.152259
" style="fill:none;stroke:#000000;stroke-width:1.5;"/>
   </g>
   <g id="LineCollection_2">
    <path clip-path="url(#p98718d8b32)" d="M 218.057162 157.391361
L 218.057162 129.315248
" style="fill:none;stroke:#000000;stroke-width:1.5;"/>
    <path clip-path="url(#p98718d8b32)" d="M 259.294825 160.876059
L 259.294825 131.567464
" style="fill:none;stroke:#000000;stroke-width:1.5;"/>
   </g>
   <g id="line2d_23">
    <defs>
     <path d="M 6 0
L -6 -0
" id="m7294e946e9" style="stroke:#000000;"/>
    </defs>
    <g clip-path="url(#p98718d8b32)">
     <use style="stroke:#000000;" x="94.344175" xlink:href="#m7294e946e9" y="192.218494"/>
     <use style="stroke:#000000;" x="135.581838" xlink:href="#m7294e946e9" y="129.788692"/>
    </g>
   </g>
   <g id="line2d_24">
    <g clip-path="url(#p98718d8b32)">
     <use style="stroke:#000000;" x="94.344175" xlink:href="#m7294e946e9" y="162.607741"/>
     <use style="stroke:#000000;" x="135.581838" xlink:href="#m7294e946e9" y="102.152259"/>
    </g>
   </g>
   <g id="line2d_25">
    <g clip-path="url(#p98718d8b32)">
     <use style="stroke:#000000;" x="218.057162" xlink:href="#m7294e946e9" y="157.391361"/>
     <use style="stroke:#000000;" x="259.294825" xlink:href="#m7294e946e9" y="160.876059"/>
    </g>
   </g>
   <g id="line2d_26">
    <g clip-path="url(#p98718d8b32)">
     <use style="stroke:#000000;" x="218.057162" xlink:href="#m7294e946e9" y="129.315248"/>
     <use style="stroke:#000000;" x="259.294825" xlink:href="#m7294e946e9" y="131.567464"/>
    </g>
   </g>
   <g id="line2d_27"/>
   <g id="line2d_28"/>
  </g>
  <g id="axes_2">
   <g id="patch_9">
    <path d="M 340.409 251.44
L 562.68 251.44
L 562.68 13.32
L 340.409 13.32
z
" style="fill:#ffffff;"/>
   </g>
   <g id="matplotlib.axis_3">
    <g id="xtick_5">
     <g id="line2d_29">
      <g>
       <use style="stroke:#000000;stroke-width:0.8;" x="350.512227" xlink:href="#m62eb62313e" y="251.44"/>
      </g>
     </g>
     <g id="text_16">
      <!-- 1D -->
      <defs>
       <path d="M 12.40625 8.296875
L 28.515625 8.296875
L 28.515625 63.921875
L 10.984375 60.40625
L 10.984375 69.390625
L 28.421875 72.90625
L 38.28125 72.90625
L 38.28125 8.296875
L 54.390625 8.296875
L 54.390625 0
L 12.40625 0
z
" id="DejaVuSans-49"/>
       <path d="M 19.671875 64.796875
L 19.671875 8.109375
L 31.59375 8.109375
Q 46.6875 8.109375 53.6875 14.9375
Q 60.6875 21.78125 60.6875 36.53125
Q 60.6875 51.171875 53.6875 57.984375
Q 46.6875 64.796875 31.59375 64.796875
z
M 9.8125 72.90625
L 30.078125 72.90625
Q 51.265625 72.90625 61.171875 64.09375
Q 71.09375 55.28125 71.09375 36.53125
Q 71.09375 17.671875 61.125 8.828125
Q 51.171875 0 30.078125 0
L 9.8125 0
z
" id="DejaVuSans-68"/>
      </defs>
      <g transform="translate(343.480977 266.038437)scale(0.1 -0.1)">
       <use xlink:href="#DejaVuSans-49"/>
       <use x="63.623047" xlink:href="#DejaVuSans-68"/>
      </g>
     </g>
    </g>
    <g id="xtick_6">
     <g id="line2d_30">
      <g>
       <use style="stroke:#000000;stroke-width:0.8;" x="417.867076" xlink:href="#m62eb62313e" y="251.44"/>
      </g>
     </g>
     <g id="text_17">
      <!-- I1D -->
      <defs>
       <path d="M 9.8125 72.90625
L 19.671875 72.90625
L 19.671875 0
L 9.8125 0
z
" id="DejaVuSans-73"/>
      </defs>
      <g transform="translate(409.360826 266.038437)scale(0.1 -0.1)">
       <use xlink:href="#DejaVuSans-73"/>
       <use x="29.492188" xlink:href="#DejaVuSans-49"/>
       <use x="93.115234" xlink:href="#DejaVuSans-68"/>
      </g>
     </g>
    </g>
    <g id="xtick_7">
     <g id="line2d_31">
      <g>
       <use style="stroke:#000000;stroke-width:0.8;" x="485.221924" xlink:href="#m62eb62313e" y="251.44"/>
      </g>
     </g>
     <g id="text_18">
      <!-- 2D -->
      <g transform="translate(478.190674 266.038437)scale(0.1 -0.1)">
       <use xlink:href="#DejaVuSans-50"/>
       <use x="63.623047" xlink:href="#DejaVuSans-68"/>
      </g>
     </g>
    </g>
    <g id="xtick_8">
     <g id="line2d_32">
      <g>
       <use style="stroke:#000000;stroke-width:0.8;" x="552.576773" xlink:href="#m62eb62313e" y="251.44"/>
      </g>
     </g>
     <g id="text_19">
      <!-- R -->
      <defs>
       <path d="M 44.390625 34.1875
Q 47.5625 33.109375 50.5625 29.59375
Q 53.5625 26.078125 56.59375 19.921875
L 66.609375 0
L 56 0
L 46.6875 18.703125
Q 43.0625 26.03125 39.671875 28.421875
Q 36.28125 30.8125 30.421875 30.8125
L 19.671875 30.8125
L 19.671875 0
L 9.8125 0
L 9.8125 72.90625
L 32.078125 72.90625
Q 44.578125 72.90625 50.734375 67.671875
Q 56.890625 62.453125 56.890625 51.90625
Q 56.890625 45.015625 53.6875 40.46875
Q 50.484375 35.9375 44.390625 34.1875
z
M 19.671875 64.796875
L 19.671875 38.921875
L 32.078125 38.921875
Q 39.203125 38.921875 42.84375 42.21875
Q 46.484375 45.515625 46.484375 51.90625
Q 46.484375 58.296875 42.84375 61.546875
Q 39.203125 64.796875 32.078125 64.796875
z
" id="DejaVuSans-82"/>
      </defs>
      <g transform="translate(549.102554 266.038437)scale(0.1 -0.1)">
       <use xlink:href="#DejaVuSans-82"/>
      </g>
     </g>
    </g>
    <g id="text_20">
     <!-- Task -->
     <defs>
      <path d="M -0.296875 72.90625
L 61.375 72.90625
L 61.375 64.59375
L 35.5 64.59375
L 35.5 0
L 25.59375 0
L 25.59375 64.59375
L -0.296875 64.59375
z
" id="DejaVuSans-84"/>
      <path d="M 44.28125 53.078125
L 44.28125 44.578125
Q 40.484375 46.53125 36.375 47.5
Q 32.28125 48.484375 27.875 48.484375
Q 21.1875 48.484375 17.84375 46.4375
Q 14.5 44.390625 14.5 40.28125
Q 14.5 37.15625 16.890625 35.375
Q 19.28125 33.59375 26.515625 31.984375
L 29.59375 31.296875
Q 39.15625 29.25 43.1875 25.515625
Q 47.21875 21.78125 47.21875 15.09375
Q 47.21875 7.46875 41.1875 3.015625
Q 35.15625 -1.421875 24.609375 -1.421875
Q 20.21875 -1.421875 15.453125 -0.5625
Q 10.6875 0.296875 5.421875 2
L 5.421875 11.28125
Q 10.40625 8.6875 15.234375 7.390625
Q 20.0625 6.109375 24.8125 6.109375
Q 31.15625 6.109375 34.5625 8.28125
Q 37.984375 10.453125 37.984375 14.40625
Q 37.984375 18.0625 35.515625 20.015625
Q 33.0625 21.96875 24.703125 23.78125
L 21.578125 24.515625
Q 13.234375 26.265625 9.515625 29.90625
Q 5.8125 33.546875 5.8125 39.890625
Q 5.8125 47.609375 11.28125 51.796875
Q 16.75 56 26.8125 56
Q 31.78125 56 36.171875 55.265625
Q 40.578125 54.546875 44.28125 53.078125
z
" id="DejaVuSans-115"/>
      <path d="M 9.078125 75.984375
L 18.109375 75.984375
L 18.109375 31.109375
L 44.921875 54.6875
L 56.390625 54.6875
L 27.390625 29.109375
L 57.625 0
L 45.90625 0
L 18.109375 26.703125
L 18.109375 0
L 9.078125 0
z
" id="DejaVuSans-107"/>
     </defs>
     <g transform="translate(439.939031 279.716563)scale(0.1 -0.1)">
      <use xlink:href="#DejaVuSans-84"/>
      <use x="60.833984" xlink:href="#DejaVuSans-97"/>
      <use x="122.113281" xlink:href="#DejaVuSans-115"/>
      <use x="174.212891" xlink:href="#DejaVuSans-107"/>
     </g>
    </g>
   </g>
   <g id="matplotlib.axis_4">
    <g id="ytick_10">
     <g id="line2d_33">
      <path clip-path="url(#pc4fc674440)" d="M 340.409 250.783129
L 562.68 250.783129
" style="fill:none;stroke:#b0b0b0;stroke-dasharray:0.8,1.32;stroke-dashoffset:0;stroke-width:0.8;"/>
     </g>
     <g id="line2d_34">
      <g>
       <use style="stroke:#000000;stroke-width:0.8;" x="340.409" xlink:href="#mb7f1eb9a5f" y="250.783129"/>
      </g>
     </g>
     <g id="text_21">
      <!-- 3 -->
      <defs>
       <path d="M 40.578125 39.3125
Q 47.65625 37.796875 51.625 33
Q 55.609375 28.21875 55.609375 21.1875
Q 55.609375 10.40625 48.1875 4.484375
Q 40.765625 -1.421875 27.09375 -1.421875
Q 22.515625 -1.421875 17.65625 -0.515625
Q 12.796875 0.390625 7.625 2.203125
L 7.625 11.71875
Q 11.71875 9.328125 16.59375 8.109375
Q 21.484375 6.890625 26.8125 6.890625
Q 36.078125 6.890625 40.9375 10.546875
Q 45.796875 14.203125 45.796875 21.1875
Q 45.796875 27.640625 41.28125 31.265625
Q 36.765625 34.90625 28.71875 34.90625
L 20.21875 34.90625
L 20.21875 43.015625
L 29.109375 43.015625
Q 36.375 43.015625 40.234375 45.921875
Q 44.09375 48.828125 44.09375 54.296875
Q 44.09375 59.90625 40.109375 62.90625
Q 36.140625 65.921875 28.71875 65.921875
Q 24.65625 65.921875 20.015625 65.03125
Q 15.375 64.15625 9.8125 62.3125
L 9.8125 71.09375
Q 15.4375 72.65625 20.34375 73.4375
Q 25.25 74.21875 29.59375 74.21875
Q 40.828125 74.21875 47.359375 69.109375
Q 53.90625 64.015625 53.90625 55.328125
Q 53.90625 49.265625 50.4375 45.09375
Q 46.96875 40.921875 40.578125 39.3125
z
" id="DejaVuSans-51"/>
      </defs>
      <g transform="translate(327.0465 254.582348)scale(0.1 -0.1)">
       <use xlink:href="#DejaVuSans-51"/>
      </g>
     </g>
    </g>
    <g id="ytick_11">
     <g id="line2d_35">
      <path clip-path="url(#pc4fc674440)" d="M 340.409 215.553546
L 562.68 215.553546
" style="fill:none;stroke:#b0b0b0;stroke-dasharray:0.8,1.32;stroke-dashoffset:0;stroke-width:0.8;"/>
     </g>
     <g id="line2d_36">
      <g>
       <use style="stroke:#000000;stroke-width:0.8;" x="340.409" xlink:href="#mb7f1eb9a5f" y="215.553546"/>
      </g>
     </g>
     <g id="text_22">
      <!-- 4 -->
      <defs>
       <path d="M 37.796875 64.3125
L 12.890625 25.390625
L 37.796875 25.390625
z
M 35.203125 72.90625
L 47.609375 72.90625
L 47.609375 25.390625
L 58.015625 25.390625
L 58.015625 17.1875
L 47.609375 17.1875
L 47.609375 0
L 37.796875 0
L 37.796875 17.1875
L 4.890625 17.1875
L 4.890625 26.703125
z
" id="DejaVuSans-52"/>
      </defs>
      <g transform="translate(327.0465 219.352765)scale(0.1 -0.1)">
       <use xlink:href="#DejaVuSans-52"/>
      </g>
     </g>
    </g>
    <g id="ytick_12">
     <g id="line2d_37">
      <path clip-path="url(#pc4fc674440)" d="M 340.409 180.323963
L 562.68 180.323963
" style="fill:none;stroke:#b0b0b0;stroke-dasharray:0.8,1.32;stroke-dashoffset:0;stroke-width:0.8;"/>
     </g>
     <g id="line2d_38">
      <g>
       <use style="stroke:#000000;stroke-width:0.8;" x="340.409" xlink:href="#mb7f1eb9a5f" y="180.323963"/>
      </g>
     </g>
     <g id="text_23">
      <!-- 5 -->
      <g transform="translate(327.0465 184.123181)scale(0.1 -0.1)">
       <use xlink:href="#DejaVuSans-53"/>
      </g>
     </g>
    </g>
    <g id="ytick_13">
     <g id="line2d_39">
      <path clip-path="url(#pc4fc674440)" d="M 340.409 145.09438
L 562.68 145.09438
" style="fill:none;stroke:#b0b0b0;stroke-dasharray:0.8,1.32;stroke-dashoffset:0;stroke-width:0.8;"/>
     </g>
     <g id="line2d_40">
      <g>
       <use style="stroke:#000000;stroke-width:0.8;" x="340.409" xlink:href="#mb7f1eb9a5f" y="145.09438"/>
      </g>
     </g>
     <g id="text_24">
      <!-- 6 -->
      <g transform="translate(327.0465 148.893598)scale(0.1 -0.1)">
       <use xlink:href="#DejaVuSans-54"/>
      </g>
     </g>
    </g>
    <g id="ytick_14">
     <g id="line2d_41">
      <path clip-path="url(#pc4fc674440)" d="M 340.409 109.864796
L 562.68 109.864796
" style="fill:none;stroke:#b0b0b0;stroke-dasharray:0.8,1.32;stroke-dashoffset:0;stroke-width:0.8;"/>
     </g>
     <g id="line2d_42">
      <g>
       <use style="stroke:#000000;stroke-width:0.8;" x="340.409" xlink:href="#mb7f1eb9a5f" y="109.864796"/>
      </g>
     </g>
     <g id="text_25">
      <!-- 7 -->
      <g transform="translate(327.0465 113.664015)scale(0.1 -0.1)">
       <use xlink:href="#DejaVuSans-55"/>
      </g>
     </g>
    </g>
    <g id="ytick_15">
     <g id="line2d_43">
      <path clip-path="url(#pc4fc674440)" d="M 340.409 74.635213
L 562.68 74.635213
" style="fill:none;stroke:#b0b0b0;stroke-dasharray:0.8,1.32;stroke-dashoffset:0;stroke-width:0.8;"/>
     </g>
     <g id="line2d_44">
      <g>
       <use style="stroke:#000000;stroke-width:0.8;" x="340.409" xlink:href="#mb7f1eb9a5f" y="74.635213"/>
      </g>
     </g>
     <g id="text_26">
      <!-- 8 -->
      <g transform="translate(327.0465 78.434432)scale(0.1 -0.1)">
       <use xlink:href="#DejaVuSans-56"/>
      </g>
     </g>
    </g>
    <g id="ytick_16">
     <g id="line2d_45">
      <path clip-path="url(#pc4fc674440)" d="M 340.409 39.40563
L 562.68 39.40563
" style="fill:none;stroke:#b0b0b0;stroke-dasharray:0.8,1.32;stroke-dashoffset:0;stroke-width:0.8;"/>
     </g>
     <g id="line2d_46">
      <g>
       <use style="stroke:#000000;stroke-width:0.8;" x="340.409" xlink:href="#mb7f1eb9a5f" y="39.40563"/>
      </g>
     </g>
     <g id="text_27">
      <!-- 9 -->
      <defs>
       <path d="M 10.984375 1.515625
L 10.984375 10.5
Q 14.703125 8.734375 18.5 7.8125
Q 22.3125 6.890625 25.984375 6.890625
Q 35.75 6.890625 40.890625 13.453125
Q 46.046875 20.015625 46.78125 33.40625
Q 43.953125 29.203125 39.59375 26.953125
Q 35.25 24.703125 29.984375 24.703125
Q 19.046875 24.703125 12.671875 31.3125
Q 6.296875 37.9375 6.296875 49.421875
Q 6.296875 60.640625 12.9375 67.421875
Q 19.578125 74.21875 30.609375 74.21875
Q 43.265625 74.21875 49.921875 64.515625
Q 56.59375 54.828125 56.59375 36.375
Q 56.59375 19.140625 48.40625 8.859375
Q 40.234375 -1.421875 26.421875 -1.421875
Q 22.703125 -1.421875 18.890625 -0.6875
Q 15.09375 0.046875 10.984375 1.515625
z
M 30.609375 32.421875
Q 37.25 32.421875 41.125 36.953125
Q 45.015625 41.5 45.015625 49.421875
Q 45.015625 57.28125 41.125 61.84375
Q 37.25 66.40625 30.609375 66.40625
Q 23.96875 66.40625 20.09375 61.84375
Q 16.21875 57.28125 16.21875 49.421875
Q 16.21875 41.5 20.09375 36.953125
Q 23.96875 32.421875 30.609375 32.421875
z
" id="DejaVuSans-57"/>
      </defs>
      <g transform="translate(327.0465 43.204849)scale(0.1 -0.1)">
       <use xlink:href="#DejaVuSans-57"/>
      </g>
     </g>
    </g>
    <g id="text_28">
     <!-- Mean rating of -->
     <g transform="translate(309.769 168.812813)rotate(-90)scale(0.1 -0.1)">
      <use xlink:href="#DejaVuSans-77"/>
      <use x="86.279297" xlink:href="#DejaVuSans-101"/>
      <use x="147.802734" xlink:href="#DejaVuSans-97"/>
      <use x="209.082031" xlink:href="#DejaVuSans-110"/>
      <use x="272.460938" xlink:href="#DejaVuSans-32"/>
      <use x="304.248047" xlink:href="#DejaVuSans-114"/>
      <use x="345.361328" xlink:href="#DejaVuSans-97"/>
      <use x="406.640625" xlink:href="#DejaVuSans-116"/>
      <use x="445.849609" xlink:href="#DejaVuSans-105"/>
      <use x="473.632812" xlink:href="#DejaVuSans-110"/>
      <use x="537.011719" xlink:href="#DejaVuSans-103"/>
      <use x="600.488281" xlink:href="#DejaVuSans-32"/>
      <use x="632.275391" xlink:href="#DejaVuSans-111"/>
      <use x="693.457031" xlink:href="#DejaVuSans-102"/>
     </g>
     <!-- rule -->
     <g transform="translate(320.966813 142.069844)rotate(-90)scale(0.1 -0.1)">
      <use xlink:href="#DejaVuSans-114"/>
      <use x="41.113281" xlink:href="#DejaVuSans-117"/>
      <use x="104.492188" xlink:href="#DejaVuSans-108"/>
      <use x="132.275391" xlink:href="#DejaVuSans-101"/>
     </g>
    </g>
   </g>
   <g id="LineCollection_3">
    <path clip-path="url(#pc4fc674440)" d="M 350.512227 31.538171
L 350.512227 24.143636
" style="fill:none;stroke:#1f77b4;stroke-width:1.5;"/>
    <path clip-path="url(#pc4fc674440)" d="M 417.867076 61.504528
L 417.867076 51.572588
" style="fill:none;stroke:#1f77b4;stroke-width:1.5;"/>
    <path clip-path="url(#pc4fc674440)" d="M 485.221924 132.882064
L 485.221924 121.970031
" style="fill:none;stroke:#1f77b4;stroke-width:1.5;"/>
    <path clip-path="url(#pc4fc674440)" d="M 552.576773 240.616364
L 552.576773 231.395594
" style="fill:none;stroke:#1f77b4;stroke-width:1.5;"/>
   </g>
   <g id="line2d_47">
    <defs>
     <path d="M 5 0
L -5 -0
" id="m7969981197" style="stroke:#1f77b4;"/>
    </defs>
    <g clip-path="url(#pc4fc674440)">
     <use style="fill:#1f77b4;stroke:#1f77b4;" x="350.512227" xlink:href="#m7969981197" y="31.538171"/>
     <use style="fill:#1f77b4;stroke:#1f77b4;" x="417.867076" xlink:href="#m7969981197" y="61.504528"/>
     <use style="fill:#1f77b4;stroke:#1f77b4;" x="485.221924" xlink:href="#m7969981197" y="132.882064"/>
     <use style="fill:#1f77b4;stroke:#1f77b4;" x="552.576773" xlink:href="#m7969981197" y="240.616364"/>
    </g>
   </g>
   <g id="line2d_48">
    <g clip-path="url(#pc4fc674440)">
     <use style="fill:#1f77b4;stroke:#1f77b4;" x="350.512227" xlink:href="#m7969981197" y="24.143636"/>
     <use style="fill:#1f77b4;stroke:#1f77b4;" x="417.867076" xlink:href="#m7969981197" y="51.572588"/>
     <use style="fill:#1f77b4;stroke:#1f77b4;" x="485.221924" xlink:href="#m7969981197" y="121.970031"/>
     <use style="fill:#1f77b4;stroke:#1f77b4;" x="552.576773" xlink:href="#m7969981197" y="231.395594"/>
    </g>
   </g>
   <g id="line2d_49">
    <path clip-path="url(#pc4fc674440)" d="M 350.512227 27.840904
L 417.867076 56.538558
L 485.221924 127.426048
L 552.576773 236.005979
" style="fill:none;stroke:#1f77b4;stroke-linecap:square;stroke-width:1.5;"/>
   </g>
   <g id="patch_10">
    <path d="M 340.409 251.44
L 340.409 13.32
" style="fill:none;stroke:#000000;stroke-linecap:square;stroke-linejoin:miter;stroke-width:0.8;"/>
   </g>
   <g id="patch_11">
    <path d="M 340.409 251.44
L 562.68 251.44
" style="fill:none;stroke:#000000;stroke-linecap:square;stroke-linejoin:miter;stroke-width:0.8;"/>
   </g>
  </g>
  <g id="axes_3">
   <g id="patch_12">
    <path d="M 65.684 534.04
L 562.68 534.04
L 562.68 295.92
L 65.684 295.92
z
" style="fill:#ffffff;"/>
   </g>
   <g id="matplotlib.axis_5">
    <g id="xtick_9">
     <g id="line2d_50">
      <g>
       <use style="stroke:#000000;stroke-width:0.8;" x="94.219656" xlink:href="#m62eb62313e" y="534.04"/>
      </g>
     </g>
     <g id="text_29">
      <!-- 1D -->
      <g transform="translate(87.188406 548.638437)scale(0.1 -0.1)">
       <use xlink:href="#DejaVuSans-49"/>
       <use x="63.623047" xlink:href="#DejaVuSans-68"/>
      </g>
     </g>
    </g>
    <g id="xtick_10">
     <g id="line2d_51">
      <g>
       <use style="stroke:#000000;stroke-width:0.8;" x="242.842861" xlink:href="#m62eb62313e" y="534.04"/>
      </g>
     </g>
     <g id="text_30">
      <!-- I1D -->
      <g transform="translate(234.336611 548.638437)scale(0.1 -0.1)">
       <use xlink:href="#DejaVuSans-73"/>
       <use x="29.492188" xlink:href="#DejaVuSans-49"/>
       <use x="93.115234" xlink:href="#DejaVuSans-68"/>
      </g>
     </g>
    </g>
    <g id="xtick_11">
     <g id="line2d_52">
      <g>
       <use style="stroke:#000000;stroke-width:0.8;" x="391.466067" xlink:href="#m62eb62313e" y="534.04"/>
      </g>
     </g>
     <g id="text_31">
      <!-- 2D -->
      <g transform="translate(384.434817 548.638437)scale(0.1 -0.1)">
       <use xlink:href="#DejaVuSans-50"/>
       <use x="63.623047" xlink:href="#DejaVuSans-68"/>
      </g>
     </g>
    </g>
    <g id="xtick_12">
     <g id="line2d_53">
      <g>
       <use style="stroke:#000000;stroke-width:0.8;" x="540.089273" xlink:href="#m62eb62313e" y="534.04"/>
      </g>
     </g>
     <g id="text_32">
      <!-- R -->
      <g transform="translate(536.615054 548.638437)scale(0.1 -0.1)">
       <use xlink:href="#DejaVuSans-82"/>
      </g>
     </g>
    </g>
    <g id="text_33">
     <!-- Task -->
     <g transform="translate(302.576531 562.316562)scale(0.1 -0.1)">
      <use xlink:href="#DejaVuSans-84"/>
      <use x="60.833984" xlink:href="#DejaVuSans-97"/>
      <use x="122.113281" xlink:href="#DejaVuSans-115"/>
      <use x="174.212891" xlink:href="#DejaVuSans-107"/>
     </g>
    </g>
   </g>
   <g id="matplotlib.axis_6">
    <g id="ytick_17">
     <g id="line2d_54">
      <path clip-path="url(#pb3058e69ab)" d="M 65.684 516.543354
L 562.68 516.543354
" style="fill:none;stroke:#b0b0b0;stroke-dasharray:0.8,1.32;stroke-dashoffset:0;stroke-width:0.8;"/>
     </g>
     <g id="line2d_55">
      <g>
       <use style="stroke:#000000;stroke-width:0.8;" x="65.684" xlink:href="#mb7f1eb9a5f" y="516.543354"/>
      </g>
     </g>
     <g id="text_34">
      <!-- 3 -->
      <g transform="translate(52.3215 520.342573)scale(0.1 -0.1)">
       <use xlink:href="#DejaVuSans-51"/>
      </g>
     </g>
    </g>
    <g id="ytick_18">
     <g id="line2d_56">
      <path clip-path="url(#pb3058e69ab)" d="M 65.684 485.677493
L 562.68 485.677493
" style="fill:none;stroke:#b0b0b0;stroke-dasharray:0.8,1.32;stroke-dashoffset:0;stroke-width:0.8;"/>
     </g>
     <g id="line2d_57">
      <g>
       <use style="stroke:#000000;stroke-width:0.8;" x="65.684" xlink:href="#mb7f1eb9a5f" y="485.677493"/>
      </g>
     </g>
     <g id="text_35">
      <!-- 4 -->
      <g transform="translate(52.3215 489.476712)scale(0.1 -0.1)">
       <use xlink:href="#DejaVuSans-52"/>
      </g>
     </g>
    </g>
    <g id="ytick_19">
     <g id="line2d_58">
      <path clip-path="url(#pb3058e69ab)" d="M 65.684 454.811632
L 562.68 454.811632
" style="fill:none;stroke:#b0b0b0;stroke-dasharray:0.8,1.32;stroke-dashoffset:0;stroke-width:0.8;"/>
     </g>
     <g id="line2d_59">
      <g>
       <use style="stroke:#000000;stroke-width:0.8;" x="65.684" xlink:href="#mb7f1eb9a5f" y="454.811632"/>
      </g>
     </g>
     <g id="text_36">
      <!-- 5 -->
      <g transform="translate(52.3215 458.610851)scale(0.1 -0.1)">
       <use xlink:href="#DejaVuSans-53"/>
      </g>
     </g>
    </g>
    <g id="ytick_20">
     <g id="line2d_60">
      <path clip-path="url(#pb3058e69ab)" d="M 65.684 423.945771
L 562.68 423.945771
" style="fill:none;stroke:#b0b0b0;stroke-dasharray:0.8,1.32;stroke-dashoffset:0;stroke-width:0.8;"/>
     </g>
     <g id="line2d_61">
      <g>
       <use style="stroke:#000000;stroke-width:0.8;" x="65.684" xlink:href="#mb7f1eb9a5f" y="423.945771"/>
      </g>
     </g>
     <g id="text_37">
      <!-- 6 -->
      <g transform="translate(52.3215 427.74499)scale(0.1 -0.1)">
       <use xlink:href="#DejaVuSans-54"/>
      </g>
     </g>
    </g>
    <g id="ytick_21">
     <g id="line2d_62">
      <path clip-path="url(#pb3058e69ab)" d="M 65.684 393.07991
L 562.68 393.07991
" style="fill:none;stroke:#b0b0b0;stroke-dasharray:0.8,1.32;stroke-dashoffset:0;stroke-width:0.8;"/>
     </g>
     <g id="line2d_63">
      <g>
       <use style="stroke:#000000;stroke-width:0.8;" x="65.684" xlink:href="#mb7f1eb9a5f" y="393.07991"/>
      </g>
     </g>
     <g id="text_38">
      <!-- 7 -->
      <g transform="translate(52.3215 396.879128)scale(0.1 -0.1)">
       <use xlink:href="#DejaVuSans-55"/>
      </g>
     </g>
    </g>
    <g id="ytick_22">
     <g id="line2d_64">
      <path clip-path="url(#pb3058e69ab)" d="M 65.684 362.214049
L 562.68 362.214049
" style="fill:none;stroke:#b0b0b0;stroke-dasharray:0.8,1.32;stroke-dashoffset:0;stroke-width:0.8;"/>
     </g>
     <g id="line2d_65">
      <g>
       <use style="stroke:#000000;stroke-width:0.8;" x="65.684" xlink:href="#mb7f1eb9a5f" y="362.214049"/>
      </g>
     </g>
     <g id="text_39">
      <!-- 8 -->
      <g transform="translate(52.3215 366.013267)scale(0.1 -0.1)">
       <use xlink:href="#DejaVuSans-56"/>
      </g>
     </g>
    </g>
    <g id="ytick_23">
     <g id="line2d_66">
      <path clip-path="url(#pb3058e69ab)" d="M 65.684 331.348187
L 562.68 331.348187
" style="fill:none;stroke:#b0b0b0;stroke-dasharray:0.8,1.32;stroke-dashoffset:0;stroke-width:0.8;"/>
     </g>
     <g id="line2d_67">
      <g>
       <use style="stroke:#000000;stroke-width:0.8;" x="65.684" xlink:href="#mb7f1eb9a5f" y="331.348187"/>
      </g>
     </g>
     <g id="text_40">
      <!-- 9 -->
      <g transform="translate(52.3215 335.147406)scale(0.1 -0.1)">
       <use xlink:href="#DejaVuSans-57"/>
      </g>
     </g>
    </g>
    <g id="ytick_24">
     <g id="line2d_68">
      <path clip-path="url(#pb3058e69ab)" d="M 65.684 300.482326
L 562.68 300.482326
" style="fill:none;stroke:#b0b0b0;stroke-dasharray:0.8,1.32;stroke-dashoffset:0;stroke-width:0.8;"/>
     </g>
     <g id="line2d_69">
      <g>
       <use style="stroke:#000000;stroke-width:0.8;" x="65.684" xlink:href="#mb7f1eb9a5f" y="300.482326"/>
      </g>
     </g>
     <g id="text_41">
      <!-- 10 -->
      <g transform="translate(45.959 304.281545)scale(0.1 -0.1)">
       <use xlink:href="#DejaVuSans-49"/>
       <use x="63.623047" xlink:href="#DejaVuSans-48"/>
      </g>
     </g>
    </g>
    <g id="text_42">
     <!-- Mean rating of -->
     <g transform="translate(28.6815 451.412812)rotate(-90)scale(0.1 -0.1)">
      <use xlink:href="#DejaVuSans-77"/>
      <use x="86.279297" xlink:href="#DejaVuSans-101"/>
      <use x="147.802734" xlink:href="#DejaVuSans-97"/>
      <use x="209.082031" xlink:href="#DejaVuSans-110"/>
      <use x="272.460938" xlink:href="#DejaVuSans-32"/>
      <use x="304.248047" xlink:href="#DejaVuSans-114"/>
      <use x="345.361328" xlink:href="#DejaVuSans-97"/>
      <use x="406.640625" xlink:href="#DejaVuSans-116"/>
      <use x="445.849609" xlink:href="#DejaVuSans-105"/>
      <use x="473.632812" xlink:href="#DejaVuSans-110"/>
      <use x="537.011719" xlink:href="#DejaVuSans-103"/>
      <use x="600.488281" xlink:href="#DejaVuSans-32"/>
      <use x="632.275391" xlink:href="#DejaVuSans-111"/>
      <use x="693.457031" xlink:href="#DejaVuSans-102"/>
     </g>
     <!-- rule -->
     <g transform="translate(39.879313 424.669844)rotate(-90)scale(0.1 -0.1)">
      <use xlink:href="#DejaVuSans-114"/>
      <use x="41.113281" xlink:href="#DejaVuSans-117"/>
      <use x="104.492188" xlink:href="#DejaVuSans-108"/>
      <use x="132.275391" xlink:href="#DejaVuSans-101"/>
     </g>
    </g>
   </g>
   <g id="LineCollection_4">
    <path clip-path="url(#pb3058e69ab)" d="M 88.274727 337.937083
L 88.274727 321.633635
" style="fill:none;stroke:#008fd5;stroke-width:1.5;"/>
    <path clip-path="url(#pb3058e69ab)" d="M 236.897933 360.647349
L 236.897933 343.463979
" style="fill:none;stroke:#008fd5;stroke-width:1.5;"/>
    <path clip-path="url(#pb3058e69ab)" d="M 385.521139 429.243035
L 385.521139 410.05295
" style="fill:none;stroke:#008fd5;stroke-width:1.5;"/>
    <path clip-path="url(#pb3058e69ab)" d="M 534.144344 501.371585
L 534.144344 484.830271
" style="fill:none;stroke:#008fd5;stroke-width:1.5;"/>
   </g>
   <g id="LineCollection_5">
    <path clip-path="url(#pb3058e69ab)" d="M 91.247191 335.994571
L 91.247191 320.117087
" style="fill:none;stroke:#008fd5;stroke-width:1.5;"/>
    <path clip-path="url(#pb3058e69ab)" d="M 239.870397 378.886011
L 239.870397 356.242251
" style="fill:none;stroke:#008fd5;stroke-width:1.5;"/>
    <path clip-path="url(#pb3058e69ab)" d="M 388.493603 441.934378
L 388.493603 422.418956
" style="fill:none;stroke:#008fd5;stroke-width:1.5;"/>
    <path clip-path="url(#pb3058e69ab)" d="M 537.116809 518.659551
L 537.116809 503.726992
" style="fill:none;stroke:#008fd5;stroke-width:1.5;"/>
   </g>
   <g id="LineCollection_6">
    <path clip-path="url(#pb3058e69ab)" d="M 91.247191 315.021923
L 91.247191 306.743636
" style="fill:none;stroke:#fc4f30;stroke-width:1.5;"/>
    <path clip-path="url(#pb3058e69ab)" d="M 239.870397 344.966186
L 239.870397 330.479132
" style="fill:none;stroke:#fc4f30;stroke-width:1.5;"/>
    <path clip-path="url(#pb3058e69ab)" d="M 388.493603 408.797309
L 388.493603 390.111453
" style="fill:none;stroke:#fc4f30;stroke-width:1.5;"/>
    <path clip-path="url(#pb3058e69ab)" d="M 537.116809 523.216364
L 537.116809 508.528351
" style="fill:none;stroke:#fc4f30;stroke-width:1.5;"/>
   </g>
   <g id="LineCollection_7">
    <path clip-path="url(#pb3058e69ab)" d="M 94.219656 323.884872
L 94.219656 312.780053
" style="fill:none;stroke:#fc4f30;stroke-width:1.5;"/>
    <path clip-path="url(#pb3058e69ab)" d="M 242.842861 338.774625
L 242.842861 323.92175
" style="fill:none;stroke:#fc4f30;stroke-width:1.5;"/>
    <path clip-path="url(#pb3058e69ab)" d="M 391.466067 395.287904
L 391.466067 377.484313
" style="fill:none;stroke:#fc4f30;stroke-width:1.5;"/>
    <path clip-path="url(#pb3058e69ab)" d="M 540.089273 502.041063
L 540.089273 484.189037
" style="fill:none;stroke:#fc4f30;stroke-width:1.5;"/>
   </g>
   <g id="line2d_70">
    <defs>
     <path d="M 5 0
L -5 -0
" id="ma7bf946c14" style="stroke:#008fd5;"/>
    </defs>
    <g clip-path="url(#pb3058e69ab)">
     <use style="fill:#008fd5;stroke:#008fd5;" x="88.274727" xlink:href="#ma7bf946c14" y="337.937083"/>
     <use style="fill:#008fd5;stroke:#008fd5;" x="236.897933" xlink:href="#ma7bf946c14" y="360.647349"/>
     <use style="fill:#008fd5;stroke:#008fd5;" x="385.521139" xlink:href="#ma7bf946c14" y="429.243035"/>
     <use style="fill:#008fd5;stroke:#008fd5;" x="534.144344" xlink:href="#ma7bf946c14" y="501.371585"/>
    </g>
   </g>
   <g id="line2d_71">
    <g clip-path="url(#pb3058e69ab)">
     <use style="fill:#008fd5;stroke:#008fd5;" x="88.274727" xlink:href="#ma7bf946c14" y="321.633635"/>
     <use style="fill:#008fd5;stroke:#008fd5;" x="236.897933" xlink:href="#ma7bf946c14" y="343.463979"/>
     <use style="fill:#008fd5;stroke:#008fd5;" x="385.521139" xlink:href="#ma7bf946c14" y="410.05295"/>
     <use style="fill:#008fd5;stroke:#008fd5;" x="534.144344" xlink:href="#ma7bf946c14" y="484.830271"/>
    </g>
   </g>
   <g id="line2d_72">
    <g clip-path="url(#pb3058e69ab)">
     <use style="fill:#008fd5;stroke:#008fd5;" x="91.247191" xlink:href="#ma7bf946c14" y="335.994571"/>
     <use style="fill:#008fd5;stroke:#008fd5;" x="239.870397" xlink:href="#ma7bf946c14" y="378.886011"/>
     <use style="fill:#008fd5;stroke:#008fd5;" x="388.493603" xlink:href="#ma7bf946c14" y="441.934378"/>
     <use style="fill:#008fd5;stroke:#008fd5;" x="537.116809" xlink:href="#ma7bf946c14" y="518.659551"/>
    </g>
   </g>
   <g id="line2d_73">
    <g clip-path="url(#pb3058e69ab)">
     <use style="fill:#008fd5;stroke:#008fd5;" x="91.247191" xlink:href="#ma7bf946c14" y="320.117087"/>
     <use style="fill:#008fd5;stroke:#008fd5;" x="239.870397" xlink:href="#ma7bf946c14" y="356.242251"/>
     <use style="fill:#008fd5;stroke:#008fd5;" x="388.493603" xlink:href="#ma7bf946c14" y="422.418956"/>
     <use style="fill:#008fd5;stroke:#008fd5;" x="537.116809" xlink:href="#ma7bf946c14" y="503.726992"/>
    </g>
   </g>
   <g id="line2d_74">
    <defs>
     <path d="M 5 0
L -5 -0
" id="me0f7171541" style="stroke:#fc4f30;"/>
    </defs>
    <g clip-path="url(#pb3058e69ab)">
     <use style="fill:#fc4f30;stroke:#fc4f30;" x="91.247191" xlink:href="#me0f7171541" y="315.021923"/>
     <use style="fill:#fc4f30;stroke:#fc4f30;" x="239.870397" xlink:href="#me0f7171541" y="344.966186"/>
     <use style="fill:#fc4f30;stroke:#fc4f30;" x="388.493603" xlink:href="#me0f7171541" y="408.797309"/>
     <use style="fill:#fc4f30;stroke:#fc4f30;" x="537.116809" xlink:href="#me0f7171541" y="523.216364"/>
    </g>
   </g>
   <g id="line2d_75">
    <g clip-path="url(#pb3058e69ab)">
     <use style="fill:#fc4f30;stroke:#fc4f30;" x="91.247191" xlink:href="#me0f7171541" y="306.743636"/>
     <use style="fill:#fc4f30;stroke:#fc4f30;" x="239.870397" xlink:href="#me0f7171541" y="330.479132"/>
     <use style="fill:#fc4f30;stroke:#fc4f30;" x="388.493603" xlink:href="#me0f7171541" y="390.111453"/>
     <use style="fill:#fc4f30;stroke:#fc4f30;" x="537.116809" xlink:href="#me0f7171541" y="508.528351"/>
    </g>
   </g>
   <g id="line2d_76">
    <g clip-path="url(#pb3058e69ab)">
     <use style="fill:#fc4f30;stroke:#fc4f30;" x="94.219656" xlink:href="#me0f7171541" y="323.884872"/>
     <use style="fill:#fc4f30;stroke:#fc4f30;" x="242.842861" xlink:href="#me0f7171541" y="338.774625"/>
     <use style="fill:#fc4f30;stroke:#fc4f30;" x="391.466067" xlink:href="#me0f7171541" y="395.287904"/>
     <use style="fill:#fc4f30;stroke:#fc4f30;" x="540.089273" xlink:href="#me0f7171541" y="502.041063"/>
    </g>
   </g>
   <g id="line2d_77">
    <g clip-path="url(#pb3058e69ab)">
     <use style="fill:#fc4f30;stroke:#fc4f30;" x="94.219656" xlink:href="#me0f7171541" y="312.780053"/>
     <use style="fill:#fc4f30;stroke:#fc4f30;" x="242.842861" xlink:href="#me0f7171541" y="323.92175"/>
     <use style="fill:#fc4f30;stroke:#fc4f30;" x="391.466067" xlink:href="#me0f7171541" y="377.484313"/>
     <use style="fill:#fc4f30;stroke:#fc4f30;" x="540.089273" xlink:href="#me0f7171541" y="484.189037"/>
    </g>
   </g>
   <g id="line2d_78">
    <path clip-path="url(#pb3058e69ab)" d="M 88.274727 329.785359
L 236.897933 352.055664
L 385.521139 419.647993
L 534.144344 493.100928
" style="fill:none;stroke:#008fd5;stroke-dasharray:5.55,2.4;stroke-dashoffset:0;stroke-width:1.5;"/>
   </g>
   <g id="line2d_79">
    <path clip-path="url(#pb3058e69ab)" d="M 91.247191 328.055829
L 239.870397 367.564131
L 388.493603 432.176667
L 537.116809 511.193272
" style="fill:none;stroke:#008fd5;stroke-linecap:square;stroke-width:1.5;"/>
   </g>
   <g id="line2d_80">
    <path clip-path="url(#pb3058e69ab)" d="M 91.247191 310.882779
L 239.870397 337.722659
L 388.493603 399.454381
L 537.116809 515.872357
" style="fill:none;stroke:#fc4f30;stroke-dasharray:5.55,2.4;stroke-dashoffset:0;stroke-width:1.5;"/>
   </g>
   <g id="line2d_81">
    <path clip-path="url(#pb3058e69ab)" d="M 94.219656 318.332463
L 242.842861 331.348187
L 391.466067 386.386108
L 540.089273 493.11505
" style="fill:none;stroke:#fc4f30;stroke-linecap:square;stroke-width:1.5;"/>
   </g>
   <g id="patch_13">
    <path d="M 65.684 534.04
L 65.684 295.92
" style="fill:none;stroke:#000000;stroke-linecap:square;stroke-linejoin:miter;stroke-width:0.8;"/>
   </g>
   <g id="patch_14">
    <path d="M 65.684 534.04
L 562.68 534.04
" style="fill:none;stroke:#000000;stroke-linecap:square;stroke-linejoin:miter;stroke-width:0.8;"/>
   </g>
   <g id="legend_1">
    <g id="patch_15">
     <path d="M 410.9675 362.6325
L 555.68 362.6325
Q 557.68 362.6325 557.68 360.6325
L 557.68 302.92
Q 557.68 300.92 555.68 300.92
L 410.9675 300.92
Q 408.9675 300.92 408.9675 302.92
L 408.9675 360.6325
Q 408.9675 362.6325 410.9675 362.6325
z
" style="fill:#ffffff;opacity:0.8;stroke:#cccccc;stroke-linejoin:miter;"/>
    </g>
    <g id="LineCollection_8">
     <path d="M 422.9675 314.018437
L 422.9675 304.018437
" style="fill:none;stroke:#008fd5;stroke-width:1.5;"/>
    </g>
    <g id="line2d_82">
     <g>
      <use style="fill:#008fd5;stroke:#008fd5;" x="422.9675" xlink:href="#ma7bf946c14" y="314.018437"/>
     </g>
    </g>
    <g id="line2d_83">
     <g>
      <use style="fill:#008fd5;stroke:#008fd5;" x="422.9675" xlink:href="#ma7bf946c14" y="304.018437"/>
     </g>
    </g>
    <g id="line2d_84">
     <path d="M 412.9675 309.018437
L 432.9675 309.018437
" style="fill:none;stroke:#008fd5;stroke-dasharray:5.55,2.4;stroke-dashoffset:0;stroke-width:1.5;"/>
    </g>
    <g id="line2d_85"/>
    <g id="text_43">
     <!-- Free / uninformed -->
     <defs>
      <path d="M 52 44.1875
Q 55.375 50.25 60.0625 53.125
Q 64.75 56 71.09375 56
Q 79.640625 56 84.28125 50.015625
Q 88.921875 44.046875 88.921875 33.015625
L 88.921875 0
L 79.890625 0
L 79.890625 32.71875
Q 79.890625 40.578125 77.09375 44.375
Q 74.3125 48.1875 68.609375 48.1875
Q 61.625 48.1875 57.5625 43.546875
Q 53.515625 38.921875 53.515625 30.90625
L 53.515625 0
L 44.484375 0
L 44.484375 32.71875
Q 44.484375 40.625 41.703125 44.40625
Q 38.921875 48.1875 33.109375 48.1875
Q 26.21875 48.1875 22.15625 43.53125
Q 18.109375 38.875 18.109375 30.90625
L 18.109375 0
L 9.078125 0
L 9.078125 54.6875
L 18.109375 54.6875
L 18.109375 46.1875
Q 21.1875 51.21875 25.484375 53.609375
Q 29.78125 56 35.6875 56
Q 41.65625 56 45.828125 52.96875
Q 50 49.953125 52 44.1875
z
" id="DejaVuSans-109"/>
     </defs>
     <g transform="translate(440.9675 312.518437)scale(0.1 -0.1)">
      <use xlink:href="#DejaVuSans-70"/>
      <use x="57.410156" xlink:href="#DejaVuSans-114"/>
      <use x="98.492188" xlink:href="#DejaVuSans-101"/>
      <use x="160.015625" xlink:href="#DejaVuSans-101"/>
      <use x="221.539062" xlink:href="#DejaVuSans-32"/>
      <use x="253.326172" xlink:href="#DejaVuSans-47"/>
      <use x="287.017578" xlink:href="#DejaVuSans-32"/>
      <use x="318.804688" xlink:href="#DejaVuSans-117"/>
      <use x="382.183594" xlink:href="#DejaVuSans-110"/>
      <use x="445.5625" xlink:href="#DejaVuSans-105"/>
      <use x="473.345703" xlink:href="#DejaVuSans-110"/>
      <use x="536.724609" xlink:href="#DejaVuSans-102"/>
      <use x="571.929688" xlink:href="#DejaVuSans-111"/>
      <use x="633.111328" xlink:href="#DejaVuSans-114"/>
      <use x="674.208984" xlink:href="#DejaVuSans-109"/>
      <use x="771.621094" xlink:href="#DejaVuSans-101"/>
      <use x="833.144531" xlink:href="#DejaVuSans-100"/>
     </g>
    </g>
    <g id="LineCollection_9">
     <path d="M 422.9675 328.696562
L 422.9675 318.696562
" style="fill:none;stroke:#008fd5;stroke-width:1.5;"/>
    </g>
    <g id="line2d_86">
     <g>
      <use style="fill:#008fd5;stroke:#008fd5;" x="422.9675" xlink:href="#ma7bf946c14" y="328.696562"/>
     </g>
    </g>
    <g id="line2d_87">
     <g>
      <use style="fill:#008fd5;stroke:#008fd5;" x="422.9675" xlink:href="#ma7bf946c14" y="318.696562"/>
     </g>
    </g>
    <g id="line2d_88">
     <path d="M 412.9675 323.696562
L 432.9675 323.696562
" style="fill:none;stroke:#008fd5;stroke-linecap:square;stroke-width:1.5;"/>
    </g>
    <g id="line2d_89"/>
    <g id="text_44">
     <!-- Free / informed -->
     <g transform="translate(440.9675 327.196562)scale(0.1 -0.1)">
      <use xlink:href="#DejaVuSans-70"/>
      <use x="57.410156" xlink:href="#DejaVuSans-114"/>
      <use x="98.492188" xlink:href="#DejaVuSans-101"/>
      <use x="160.015625" xlink:href="#DejaVuSans-101"/>
      <use x="221.539062" xlink:href="#DejaVuSans-32"/>
      <use x="253.326172" xlink:href="#DejaVuSans-47"/>
      <use x="287.017578" xlink:href="#DejaVuSans-32"/>
      <use x="318.804688" xlink:href="#DejaVuSans-105"/>
      <use x="346.587891" xlink:href="#DejaVuSans-110"/>
      <use x="409.966797" xlink:href="#DejaVuSans-102"/>
      <use x="445.171875" xlink:href="#DejaVuSans-111"/>
      <use x="506.353516" xlink:href="#DejaVuSans-114"/>
      <use x="547.451172" xlink:href="#DejaVuSans-109"/>
      <use x="644.863281" xlink:href="#DejaVuSans-101"/>
      <use x="706.386719" xlink:href="#DejaVuSans-100"/>
     </g>
    </g>
    <g id="LineCollection_10">
     <path d="M 422.9675 343.374687
L 422.9675 333.374687
" style="fill:none;stroke:#fc4f30;stroke-width:1.5;"/>
    </g>
    <g id="line2d_90">
     <g>
      <use style="fill:#fc4f30;stroke:#fc4f30;" x="422.9675" xlink:href="#me0f7171541" y="343.374687"/>
     </g>
    </g>
    <g id="line2d_91">
     <g>
      <use style="fill:#fc4f30;stroke:#fc4f30;" x="422.9675" xlink:href="#me0f7171541" y="333.374687"/>
     </g>
    </g>
    <g id="line2d_92">
     <path d="M 412.9675 338.374687
L 432.9675 338.374687
" style="fill:none;stroke:#fc4f30;stroke-dasharray:5.55,2.4;stroke-dashoffset:0;stroke-width:1.5;"/>
    </g>
    <g id="line2d_93"/>
    <g id="text_45">
     <!-- Strategic / uninformed -->
     <defs>
      <path d="M 48.78125 52.59375
L 48.78125 44.1875
Q 44.96875 46.296875 41.140625 47.34375
Q 37.3125 48.390625 33.40625 48.390625
Q 24.65625 48.390625 19.8125 42.84375
Q 14.984375 37.3125 14.984375 27.296875
Q 14.984375 17.28125 19.8125 11.734375
Q 24.65625 6.203125 33.40625 6.203125
Q 37.3125 6.203125 41.140625 7.25
Q 44.96875 8.296875 48.78125 10.40625
L 48.78125 2.09375
Q 45.015625 0.34375 40.984375 -0.53125
Q 36.96875 -1.421875 32.421875 -1.421875
Q 20.0625 -1.421875 12.78125 6.34375
Q 5.515625 14.109375 5.515625 27.296875
Q 5.515625 40.671875 12.859375 48.328125
Q 20.21875 56 33.015625 56
Q 37.15625 56 41.109375 55.140625
Q 45.0625 54.296875 48.78125 52.59375
z
" id="DejaVuSans-99"/>
     </defs>
     <g transform="translate(440.9675 341.874687)scale(0.1 -0.1)">
      <use xlink:href="#DejaVuSans-83"/>
      <use x="63.476562" xlink:href="#DejaVuSans-116"/>
      <use x="102.685547" xlink:href="#DejaVuSans-114"/>
      <use x="143.798828" xlink:href="#DejaVuSans-97"/>
      <use x="205.078125" xlink:href="#DejaVuSans-116"/>
      <use x="244.287109" xlink:href="#DejaVuSans-101"/>
      <use x="305.810547" xlink:href="#DejaVuSans-103"/>
      <use x="369.287109" xlink:href="#DejaVuSans-105"/>
      <use x="397.070312" xlink:href="#DejaVuSans-99"/>
      <use x="452.050781" xlink:href="#DejaVuSans-32"/>
      <use x="483.837891" xlink:href="#DejaVuSans-47"/>
      <use x="517.529297" xlink:href="#DejaVuSans-32"/>
      <use x="549.316406" xlink:href="#DejaVuSans-117"/>
      <use x="612.695312" xlink:href="#DejaVuSans-110"/>
      <use x="676.074219" xlink:href="#DejaVuSans-105"/>
      <use x="703.857422" xlink:href="#DejaVuSans-110"/>
      <use x="767.236328" xlink:href="#DejaVuSans-102"/>
      <use x="802.441406" xlink:href="#DejaVuSans-111"/>
      <use x="863.623047" xlink:href="#DejaVuSans-114"/>
      <use x="904.720703" xlink:href="#DejaVuSans-109"/>
      <use x="1002.132812" xlink:href="#DejaVuSans-101"/>
      <use x="1063.65625" xlink:href="#DejaVuSans-100"/>
     </g>
    </g>
    <g id="LineCollection_11">
     <path d="M 422.9675 358.052812
L 422.9675 348.052812
" style="fill:none;stroke:#fc4f30;stroke-width:1.5;"/>
    </g>
    <g id="line2d_94">
     <g>
      <use style="fill:#fc4f30;stroke:#fc4f30;" x="422.9675" xlink:href="#me0f7171541" y="358.052812"/>
     </g>
    </g>
    <g id="line2d_95">
     <g>
      <use style="fill:#fc4f30;stroke:#fc4f30;" x="422.9675" xlink:href="#me0f7171541" y="348.052812"/>
     </g>
    </g>
    <g id="line2d_96">
     <path d="M 412.9675 353.052812
L 432.9675 353.052812
" style="fill:none;stroke:#fc4f30;stroke-linecap:square;stroke-width:1.5;"/>
    </g>
    <g id="line2d_97"/>
    <g id="text_46">
     <!-- Strategic / informed -->
     <g transform="translate(440.9675 356.552812)scale(0.1 -0.1)">
      <use xlink:href="#DejaVuSans-83"/>
      <use x="63.476562" xlink:href="#DejaVuSans-116"/>
      <use x="102.685547" xlink:href="#DejaVuSans-114"/>
      <use x="143.798828" xlink:href="#DejaVuSans-97"/>
      <use x="205.078125" xlink:href="#DejaVuSans-116"/>
      <use x="244.287109" xlink:href="#DejaVuSans-101"/>
      <use x="305.810547" xlink:href="#DejaVuSans-103"/>
      <use x="369.287109" xlink:href="#DejaVuSans-105"/>
      <use x="397.070312" xlink:href="#DejaVuSans-99"/>
      <use x="452.050781" xlink:href="#DejaVuSans-32"/>
      <use x="483.837891" xlink:href="#DejaVuSans-47"/>
      <use x="517.529297" xlink:href="#DejaVuSans-32"/>
      <use x="549.316406" xlink:href="#DejaVuSans-105"/>
      <use x="577.099609" xlink:href="#DejaVuSans-110"/>
      <use x="640.478516" xlink:href="#DejaVuSans-102"/>
      <use x="675.683594" xlink:href="#DejaVuSans-111"/>
      <use x="736.865234" xlink:href="#DejaVuSans-114"/>
      <use x="777.962891" xlink:href="#DejaVuSans-109"/>
      <use x="875.375" xlink:href="#DejaVuSans-101"/>
      <use x="936.898438" xlink:href="#DejaVuSans-100"/>
     </g>
    </g>
   </g>
  </g>
 </g>
 <defs>
  <clipPath id="p98718d8b32">
   <rect height="238.12" width="222.271" x="65.684" y="13.32"/>
  </clipPath>
  <clipPath id="pc4fc674440">
   <rect height="238.12" width="222.271" x="340.409" y="13.32"/>
  </clipPath>
  <clipPath id="pb3058e69ab">
   <rect height="238.12" width="496.996" x="65.684" y="295.92"/>
  </clipPath>
 </defs>
</svg>
