<?xml version="1.0" encoding="utf-8" standalone="no"?>
<!DOCTYPE svg PUBLIC "-//W3C//DTD SVG 1.1//EN"
  "http://www.w3.org/Graphics/SVG/1.1/DTD/svg11.dtd">
<!-- Created with matplotlib (https://matplotlib.org/) -->
<svg height="288pt" version="1.1" viewBox="0 0 648 288" width="648pt" xmlns="http://www.w3.org/2000/svg" xmlns:xlink="http://www.w3.org/1999/xlink">
 <defs>
  <style type="text/css">
*{stroke-linecap:butt;stroke-linejoin:round;}
  </style>
 </defs>
 <g id="figure_1">
  <g id="patch_1">
   <path d="M 0 288
L 648 288
L 648 0
L 0 0
z
" style="fill:#ffffff;"/>
  </g>
  <g id="axes_1">
   <g id="patch_2">
    <path d="M 54.02 246.04
L 309.15 246.04
L 309.15 33.88
L 54.02 33.88
z
" style="fill:#ffffff;"/>
   </g>
   <g id="matplotlib.axis_1">
    <g id="xtick_1">
     <g id="line2d_1">
      <path clip-path="url(#p4c9ee5e260)" d="M 104.226305 246.04
L 104.226305 33.88
" style="fill:none;stroke:#b0b0b0;stroke-linecap:square;stroke-width:0.8;"/>
     </g>
     <g id="line2d_2">
      <defs>
       <path d="M 0 0
L 0 3.5
" id="m1797f80dcf" style="stroke:#000000;stroke-width:0.8;"/>
      </defs>
      <g>
       <use style="stroke:#000000;stroke-width:0.8;" x="104.226305" xlink:href="#m1797f80dcf" y="246.04"/>
      </g>
     </g>
     <g id="text_1">
      <!-- 50 -->
      <defs>
       <path d="M 10.796875 72.90625
L 49.515625 72.90625
L 49.515625 64.59375
L 19.828125 64.59375
L 19.828125 46.734375
Q 21.96875 47.46875 24.109375 47.828125
Q 26.265625 48.1875 28.421875 48.1875
Q 40.625 48.1875 47.75 41.5
Q 54.890625 34.8125 54.890625 23.390625
Q 54.890625 11.625 47.5625 5.09375
Q 40.234375 -1.421875 26.90625 -1.421875
Q 22.3125 -1.421875 17.546875 -0.640625
Q 12.796875 0.140625 7.71875 1.703125
L 7.71875 11.625
Q 12.109375 9.234375 16.796875 8.0625
Q 21.484375 6.890625 26.703125 6.890625
Q 35.15625 6.890625 40.078125 11.328125
Q 45.015625 15.765625 45.015625 23.390625
Q 45.015625 31 40.078125 35.4375
Q 35.15625 39.890625 26.703125 39.890625
Q 22.75 39.890625 18.8125 39.015625
Q 14.890625 38.140625 10.796875 36.28125
z
" id="DejaVuSans-53"/>
       <path d="M 31.78125 66.40625
Q 24.171875 66.40625 20.328125 58.90625
Q 16.5 51.421875 16.5 36.375
Q 16.5 21.390625 20.328125 13.890625
Q 24.171875 6.390625 31.78125 6.390625
Q 39.453125 6.390625 43.28125 13.890625
Q 47.125 21.390625 47.125 36.375
Q 47.125 51.421875 43.28125 58.90625
Q 39.453125 66.40625 31.78125 66.40625
z
M 31.78125 74.21875
Q 44.046875 74.21875 50.515625 64.515625
Q 56.984375 54.828125 56.984375 36.375
Q 56.984375 17.96875 50.515625 8.265625
Q 44.046875 -1.421875 31.78125 -1.421875
Q 19.53125 -1.421875 13.0625 8.265625
Q 6.59375 17.96875 6.59375 36.375
Q 6.59375 54.828125 13.0625 64.515625
Q 19.53125 74.21875 31.78125 74.21875
z
" id="DejaVuSans-48"/>
      </defs>
      <g transform="translate(97.863805 260.638438)scale(0.1 -0.1)">
       <use xlink:href="#DejaVuSans-53"/>
       <use x="63.623047" xlink:href="#DejaVuSans-48"/>
      </g>
     </g>
    </g>
    <g id="xtick_2">
     <g id="line2d_3">
      <path clip-path="url(#p4c9ee5e260)" d="M 155.457229 246.04
L 155.457229 33.88
" style="fill:none;stroke:#b0b0b0;stroke-linecap:square;stroke-width:0.8;"/>
     </g>
     <g id="line2d_4">
      <g>
       <use style="stroke:#000000;stroke-width:0.8;" x="155.457229" xlink:href="#m1797f80dcf" y="246.04"/>
      </g>
     </g>
     <g id="text_2">
      <!-- 100 -->
      <defs>
       <path d="M 12.40625 8.296875
L 28.515625 8.296875
L 28.515625 63.921875
L 10.984375 60.40625
L 10.984375 69.390625
L 28.421875 72.90625
L 38.28125 72.90625
L 38.28125 8.296875
L 54.390625 8.296875
L 54.390625 0
L 12.40625 0
z
" id="DejaVuSans-49"/>
      </defs>
      <g transform="translate(145.913479 260.638438)scale(0.1 -0.1)">
       <use xlink:href="#DejaVuSans-49"/>
       <use x="63.623047" xlink:href="#DejaVuSans-48"/>
       <use x="127.246094" xlink:href="#DejaVuSans-48"/>
      </g>
     </g>
    </g>
    <g id="xtick_3">
     <g id="line2d_5">
      <path clip-path="url(#p4c9ee5e260)" d="M 206.688153 246.04
L 206.688153 33.88
" style="fill:none;stroke:#b0b0b0;stroke-linecap:square;stroke-width:0.8;"/>
     </g>
     <g id="line2d_6">
      <g>
       <use style="stroke:#000000;stroke-width:0.8;" x="206.688153" xlink:href="#m1797f80dcf" y="246.04"/>
      </g>
     </g>
     <g id="text_3">
      <!-- 150 -->
      <g transform="translate(197.144403 260.638438)scale(0.1 -0.1)">
       <use xlink:href="#DejaVuSans-49"/>
       <use x="63.623047" xlink:href="#DejaVuSans-53"/>
       <use x="127.246094" xlink:href="#DejaVuSans-48"/>
      </g>
     </g>
    </g>
    <g id="xtick_4">
     <g id="line2d_7">
      <path clip-path="url(#p4c9ee5e260)" d="M 257.919076 246.04
L 257.919076 33.88
" style="fill:none;stroke:#b0b0b0;stroke-linecap:square;stroke-width:0.8;"/>
     </g>
     <g id="line2d_8">
      <g>
       <use style="stroke:#000000;stroke-width:0.8;" x="257.919076" xlink:href="#m1797f80dcf" y="246.04"/>
      </g>
     </g>
     <g id="text_4">
      <!-- 200 -->
      <defs>
       <path d="M 19.1875 8.296875
L 53.609375 8.296875
L 53.609375 0
L 7.328125 0
L 7.328125 8.296875
Q 12.9375 14.109375 22.625 23.890625
Q 32.328125 33.6875 34.8125 36.53125
Q 39.546875 41.84375 41.421875 45.53125
Q 43.3125 49.21875 43.3125 52.78125
Q 43.3125 58.59375 39.234375 62.25
Q 35.15625 65.921875 28.609375 65.921875
Q 23.96875 65.921875 18.8125 64.3125
Q 13.671875 62.703125 7.8125 59.421875
L 7.8125 69.390625
Q 13.765625 71.78125 18.9375 73
Q 24.125 74.21875 28.421875 74.21875
Q 39.75 74.21875 46.484375 68.546875
Q 53.21875 62.890625 53.21875 53.421875
Q 53.21875 48.921875 51.53125 44.890625
Q 49.859375 40.875 45.40625 35.40625
Q 44.1875 33.984375 37.640625 27.21875
Q 31.109375 20.453125 19.1875 8.296875
z
" id="DejaVuSans-50"/>
      </defs>
      <g transform="translate(248.375326 260.638438)scale(0.1 -0.1)">
       <use xlink:href="#DejaVuSans-50"/>
       <use x="63.623047" xlink:href="#DejaVuSans-48"/>
       <use x="127.246094" xlink:href="#DejaVuSans-48"/>
      </g>
     </g>
    </g>
    <g id="xtick_5">
     <g id="line2d_9">
      <path clip-path="url(#p4c9ee5e260)" d="M 309.15 246.04
L 309.15 33.88
" style="fill:none;stroke:#b0b0b0;stroke-linecap:square;stroke-width:0.8;"/>
     </g>
     <g id="line2d_10">
      <g>
       <use style="stroke:#000000;stroke-width:0.8;" x="309.15" xlink:href="#m1797f80dcf" y="246.04"/>
      </g>
     </g>
     <g id="text_5">
      <!-- 250 -->
      <g transform="translate(299.60625 260.638438)scale(0.1 -0.1)">
       <use xlink:href="#DejaVuSans-50"/>
       <use x="63.623047" xlink:href="#DejaVuSans-53"/>
       <use x="127.246094" xlink:href="#DejaVuSans-48"/>
      </g>
     </g>
    </g>
    <g id="text_6">
     <!-- Trial number -->
     <defs>
      <path d="M -0.296875 72.90625
L 61.375 72.90625
L 61.375 64.59375
L 35.5 64.59375
L 35.5 0
L 25.59375 0
L 25.59375 64.59375
L -0.296875 64.59375
z
" id="DejaVuSans-84"/>
      <path d="M 41.109375 46.296875
Q 39.59375 47.171875 37.8125 47.578125
Q 36.03125 48 33.890625 48
Q 26.265625 48 22.1875 43.046875
Q 18.109375 38.09375 18.109375 28.8125
L 18.109375 0
L 9.078125 0
L 9.078125 54.6875
L 18.109375 54.6875
L 18.109375 46.1875
Q 20.953125 51.171875 25.484375 53.578125
Q 30.03125 56 36.53125 56
Q 37.453125 56 38.578125 55.875
Q 39.703125 55.765625 41.0625 55.515625
z
" id="DejaVuSans-114"/>
      <path d="M 9.421875 54.6875
L 18.40625 54.6875
L 18.40625 0
L 9.421875 0
z
M 9.421875 75.984375
L 18.40625 75.984375
L 18.40625 64.59375
L 9.421875 64.59375
z
" id="DejaVuSans-105"/>
      <path d="M 34.28125 27.484375
Q 23.390625 27.484375 19.1875 25
Q 14.984375 22.515625 14.984375 16.5
Q 14.984375 11.71875 18.140625 8.90625
Q 21.296875 6.109375 26.703125 6.109375
Q 34.1875 6.109375 38.703125 11.40625
Q 43.21875 16.703125 43.21875 25.484375
L 43.21875 27.484375
z
M 52.203125 31.203125
L 52.203125 0
L 43.21875 0
L 43.21875 8.296875
Q 40.140625 3.328125 35.546875 0.953125
Q 30.953125 -1.421875 24.3125 -1.421875
Q 15.921875 -1.421875 10.953125 3.296875
Q 6 8.015625 6 15.921875
Q 6 25.140625 12.171875 29.828125
Q 18.359375 34.515625 30.609375 34.515625
L 43.21875 34.515625
L 43.21875 35.40625
Q 43.21875 41.609375 39.140625 45
Q 35.0625 48.390625 27.6875 48.390625
Q 23 48.390625 18.546875 47.265625
Q 14.109375 46.140625 10.015625 43.890625
L 10.015625 52.203125
Q 14.9375 54.109375 19.578125 55.046875
Q 24.21875 56 28.609375 56
Q 40.484375 56 46.34375 49.84375
Q 52.203125 43.703125 52.203125 31.203125
z
" id="DejaVuSans-97"/>
      <path d="M 9.421875 75.984375
L 18.40625 75.984375
L 18.40625 0
L 9.421875 0
z
" id="DejaVuSans-108"/>
      <path id="DejaVuSans-32"/>
      <path d="M 54.890625 33.015625
L 54.890625 0
L 45.90625 0
L 45.90625 32.71875
Q 45.90625 40.484375 42.875 44.328125
Q 39.84375 48.1875 33.796875 48.1875
Q 26.515625 48.1875 22.3125 43.546875
Q 18.109375 38.921875 18.109375 30.90625
L 18.109375 0
L 9.078125 0
L 9.078125 54.6875
L 18.109375 54.6875
L 18.109375 46.1875
Q 21.34375 51.125 25.703125 53.5625
Q 30.078125 56 35.796875 56
Q 45.21875 56 50.046875 50.171875
Q 54.890625 44.34375 54.890625 33.015625
z
" id="DejaVuSans-110"/>
      <path d="M 8.5 21.578125
L 8.5 54.6875
L 17.484375 54.6875
L 17.484375 21.921875
Q 17.484375 14.15625 20.5 10.265625
Q 23.53125 6.390625 29.59375 6.390625
Q 36.859375 6.390625 41.078125 11.03125
Q 45.3125 15.671875 45.3125 23.6875
L 45.3125 54.6875
L 54.296875 54.6875
L 54.296875 0
L 45.3125 0
L 45.3125 8.40625
Q 42.046875 3.421875 37.71875 1
Q 33.40625 -1.421875 27.6875 -1.421875
Q 18.265625 -1.421875 13.375 4.4375
Q 8.5 10.296875 8.5 21.578125
z
M 31.109375 56
z
" id="DejaVuSans-117"/>
      <path d="M 52 44.1875
Q 55.375 50.25 60.0625 53.125
Q 64.75 56 71.09375 56
Q 79.640625 56 84.28125 50.015625
Q 88.921875 44.046875 88.921875 33.015625
L 88.921875 0
L 79.890625 0
L 79.890625 32.71875
Q 79.890625 40.578125 77.09375 44.375
Q 74.3125 48.1875 68.609375 48.1875
Q 61.625 48.1875 57.5625 43.546875
Q 53.515625 38.921875 53.515625 30.90625
L 53.515625 0
L 44.484375 0
L 44.484375 32.71875
Q 44.484375 40.625 41.703125 44.40625
Q 38.921875 48.1875 33.109375 48.1875
Q 26.21875 48.1875 22.15625 43.53125
Q 18.109375 38.875 18.109375 30.90625
L 18.109375 0
L 9.078125 0
L 9.078125 54.6875
L 18.109375 54.6875
L 18.109375 46.1875
Q 21.1875 51.21875 25.484375 53.609375
Q 29.78125 56 35.6875 56
Q 41.65625 56 45.828125 52.96875
Q 50 49.953125 52 44.1875
z
" id="DejaVuSans-109"/>
      <path d="M 48.6875 27.296875
Q 48.6875 37.203125 44.609375 42.84375
Q 40.53125 48.484375 33.40625 48.484375
Q 26.265625 48.484375 22.1875 42.84375
Q 18.109375 37.203125 18.109375 27.296875
Q 18.109375 17.390625 22.1875 11.75
Q 26.265625 6.109375 33.40625 6.109375
Q 40.53125 6.109375 44.609375 11.75
Q 48.6875 17.390625 48.6875 27.296875
z
M 18.109375 46.390625
Q 20.953125 51.265625 25.265625 53.625
Q 29.59375 56 35.59375 56
Q 45.5625 56 51.78125 48.09375
Q 58.015625 40.1875 58.015625 27.296875
Q 58.015625 14.40625 51.78125 6.484375
Q 45.5625 -1.421875 35.59375 -1.421875
Q 29.59375 -1.421875 25.265625 0.953125
Q 20.953125 3.328125 18.109375 8.203125
L 18.109375 0
L 9.078125 0
L 9.078125 75.984375
L 18.109375 75.984375
z
" id="DejaVuSans-98"/>
      <path d="M 56.203125 29.59375
L 56.203125 25.203125
L 14.890625 25.203125
Q 15.484375 15.921875 20.484375 11.0625
Q 25.484375 6.203125 34.421875 6.203125
Q 39.59375 6.203125 44.453125 7.46875
Q 49.3125 8.734375 54.109375 11.28125
L 54.109375 2.78125
Q 49.265625 0.734375 44.1875 -0.34375
Q 39.109375 -1.421875 33.890625 -1.421875
Q 20.796875 -1.421875 13.15625 6.1875
Q 5.515625 13.8125 5.515625 26.8125
Q 5.515625 40.234375 12.765625 48.109375
Q 20.015625 56 32.328125 56
Q 43.359375 56 49.78125 48.890625
Q 56.203125 41.796875 56.203125 29.59375
z
M 47.21875 32.234375
Q 47.125 39.59375 43.09375 43.984375
Q 39.0625 48.390625 32.421875 48.390625
Q 24.90625 48.390625 20.390625 44.140625
Q 15.875 39.890625 15.1875 32.171875
z
" id="DejaVuSans-101"/>
     </defs>
     <g transform="translate(149.54125 274.316562)scale(0.1 -0.1)">
      <use xlink:href="#DejaVuSans-84"/>
      <use x="60.865234" xlink:href="#DejaVuSans-114"/>
      <use x="101.978516" xlink:href="#DejaVuSans-105"/>
      <use x="129.761719" xlink:href="#DejaVuSans-97"/>
      <use x="191.041016" xlink:href="#DejaVuSans-108"/>
      <use x="218.824219" xlink:href="#DejaVuSans-32"/>
      <use x="250.611328" xlink:href="#DejaVuSans-110"/>
      <use x="313.990234" xlink:href="#DejaVuSans-117"/>
      <use x="377.369141" xlink:href="#DejaVuSans-109"/>
      <use x="474.78125" xlink:href="#DejaVuSans-98"/>
      <use x="538.257812" xlink:href="#DejaVuSans-101"/>
      <use x="599.78125" xlink:href="#DejaVuSans-114"/>
     </g>
    </g>
   </g>
   <g id="matplotlib.axis_2">
    <g id="ytick_1">
     <g id="line2d_11">
      <path clip-path="url(#p4c9ee5e260)" d="M 54.02 235.937143
L 309.15 235.937143
" style="fill:none;stroke:#b0b0b0;stroke-linecap:square;stroke-width:0.8;"/>
     </g>
     <g id="line2d_12">
      <defs>
       <path d="M 0 0
L -3.5 0
" id="ma176cc9801" style="stroke:#000000;stroke-width:0.8;"/>
      </defs>
      <g>
       <use style="stroke:#000000;stroke-width:0.8;" x="54.02" xlink:href="#ma176cc9801" y="235.937143"/>
      </g>
     </g>
     <g id="text_7">
      <!-- 0.10 -->
      <defs>
       <path d="M 10.6875 12.40625
L 21 12.40625
L 21 0
L 10.6875 0
z
" id="DejaVuSans-46"/>
      </defs>
      <g transform="translate(24.754375 239.736362)scale(0.1 -0.1)">
       <use xlink:href="#DejaVuSans-48"/>
       <use x="63.623047" xlink:href="#DejaVuSans-46"/>
       <use x="95.410156" xlink:href="#DejaVuSans-49"/>
       <use x="159.033203" xlink:href="#DejaVuSans-48"/>
      </g>
     </g>
    </g>
    <g id="ytick_2">
     <g id="line2d_13">
      <path clip-path="url(#p4c9ee5e260)" d="M 54.02 210.68
L 309.15 210.68
" style="fill:none;stroke:#b0b0b0;stroke-linecap:square;stroke-width:0.8;"/>
     </g>
     <g id="line2d_14">
      <g>
       <use style="stroke:#000000;stroke-width:0.8;" x="54.02" xlink:href="#ma176cc9801" y="210.68"/>
      </g>
     </g>
     <g id="text_8">
      <!-- 0.15 -->
      <g transform="translate(24.754375 214.479219)scale(0.1 -0.1)">
       <use xlink:href="#DejaVuSans-48"/>
       <use x="63.623047" xlink:href="#DejaVuSans-46"/>
       <use x="95.410156" xlink:href="#DejaVuSans-49"/>
       <use x="159.033203" xlink:href="#DejaVuSans-53"/>
      </g>
     </g>
    </g>
    <g id="ytick_3">
     <g id="line2d_15">
      <path clip-path="url(#p4c9ee5e260)" d="M 54.02 185.422857
L 309.15 185.422857
" style="fill:none;stroke:#b0b0b0;stroke-linecap:square;stroke-width:0.8;"/>
     </g>
     <g id="line2d_16">
      <g>
       <use style="stroke:#000000;stroke-width:0.8;" x="54.02" xlink:href="#ma176cc9801" y="185.422857"/>
      </g>
     </g>
     <g id="text_9">
      <!-- 0.20 -->
      <g transform="translate(24.754375 189.222076)scale(0.1 -0.1)">
       <use xlink:href="#DejaVuSans-48"/>
       <use x="63.623047" xlink:href="#DejaVuSans-46"/>
       <use x="95.410156" xlink:href="#DejaVuSans-50"/>
       <use x="159.033203" xlink:href="#DejaVuSans-48"/>
      </g>
     </g>
    </g>
    <g id="ytick_4">
     <g id="line2d_17">
      <path clip-path="url(#p4c9ee5e260)" d="M 54.02 160.165714
L 309.15 160.165714
" style="fill:none;stroke:#b0b0b0;stroke-linecap:square;stroke-width:0.8;"/>
     </g>
     <g id="line2d_18">
      <g>
       <use style="stroke:#000000;stroke-width:0.8;" x="54.02" xlink:href="#ma176cc9801" y="160.165714"/>
      </g>
     </g>
     <g id="text_10">
      <!-- 0.25 -->
      <g transform="translate(24.754375 163.964933)scale(0.1 -0.1)">
       <use xlink:href="#DejaVuSans-48"/>
       <use x="63.623047" xlink:href="#DejaVuSans-46"/>
       <use x="95.410156" xlink:href="#DejaVuSans-50"/>
       <use x="159.033203" xlink:href="#DejaVuSans-53"/>
      </g>
     </g>
    </g>
    <g id="ytick_5">
     <g id="line2d_19">
      <path clip-path="url(#p4c9ee5e260)" d="M 54.02 134.908571
L 309.15 134.908571
" style="fill:none;stroke:#b0b0b0;stroke-linecap:square;stroke-width:0.8;"/>
     </g>
     <g id="line2d_20">
      <g>
       <use style="stroke:#000000;stroke-width:0.8;" x="54.02" xlink:href="#ma176cc9801" y="134.908571"/>
      </g>
     </g>
     <g id="text_11">
      <!-- 0.30 -->
      <defs>
       <path d="M 40.578125 39.3125
Q 47.65625 37.796875 51.625 33
Q 55.609375 28.21875 55.609375 21.1875
Q 55.609375 10.40625 48.1875 4.484375
Q 40.765625 -1.421875 27.09375 -1.421875
Q 22.515625 -1.421875 17.65625 -0.515625
Q 12.796875 0.390625 7.625 2.203125
L 7.625 11.71875
Q 11.71875 9.328125 16.59375 8.109375
Q 21.484375 6.890625 26.8125 6.890625
Q 36.078125 6.890625 40.9375 10.546875
Q 45.796875 14.203125 45.796875 21.1875
Q 45.796875 27.640625 41.28125 31.265625
Q 36.765625 34.90625 28.71875 34.90625
L 20.21875 34.90625
L 20.21875 43.015625
L 29.109375 43.015625
Q 36.375 43.015625 40.234375 45.921875
Q 44.09375 48.828125 44.09375 54.296875
Q 44.09375 59.90625 40.109375 62.90625
Q 36.140625 65.921875 28.71875 65.921875
Q 24.65625 65.921875 20.015625 65.03125
Q 15.375 64.15625 9.8125 62.3125
L 9.8125 71.09375
Q 15.4375 72.65625 20.34375 73.4375
Q 25.25 74.21875 29.59375 74.21875
Q 40.828125 74.21875 47.359375 69.109375
Q 53.90625 64.015625 53.90625 55.328125
Q 53.90625 49.265625 50.4375 45.09375
Q 46.96875 40.921875 40.578125 39.3125
z
" id="DejaVuSans-51"/>
      </defs>
      <g transform="translate(24.754375 138.70779)scale(0.1 -0.1)">
       <use xlink:href="#DejaVuSans-48"/>
       <use x="63.623047" xlink:href="#DejaVuSans-46"/>
       <use x="95.410156" xlink:href="#DejaVuSans-51"/>
       <use x="159.033203" xlink:href="#DejaVuSans-48"/>
      </g>
     </g>
    </g>
    <g id="ytick_6">
     <g id="line2d_21">
      <path clip-path="url(#p4c9ee5e260)" d="M 54.02 109.651429
L 309.15 109.651429
" style="fill:none;stroke:#b0b0b0;stroke-linecap:square;stroke-width:0.8;"/>
     </g>
     <g id="line2d_22">
      <g>
       <use style="stroke:#000000;stroke-width:0.8;" x="54.02" xlink:href="#ma176cc9801" y="109.651429"/>
      </g>
     </g>
     <g id="text_12">
      <!-- 0.35 -->
      <g transform="translate(24.754375 113.450647)scale(0.1 -0.1)">
       <use xlink:href="#DejaVuSans-48"/>
       <use x="63.623047" xlink:href="#DejaVuSans-46"/>
       <use x="95.410156" xlink:href="#DejaVuSans-51"/>
       <use x="159.033203" xlink:href="#DejaVuSans-53"/>
      </g>
     </g>
    </g>
    <g id="ytick_7">
     <g id="line2d_23">
      <path clip-path="url(#p4c9ee5e260)" d="M 54.02 84.394286
L 309.15 84.394286
" style="fill:none;stroke:#b0b0b0;stroke-linecap:square;stroke-width:0.8;"/>
     </g>
     <g id="line2d_24">
      <g>
       <use style="stroke:#000000;stroke-width:0.8;" x="54.02" xlink:href="#ma176cc9801" y="84.394286"/>
      </g>
     </g>
     <g id="text_13">
      <!-- 0.40 -->
      <defs>
       <path d="M 37.796875 64.3125
L 12.890625 25.390625
L 37.796875 25.390625
z
M 35.203125 72.90625
L 47.609375 72.90625
L 47.609375 25.390625
L 58.015625 25.390625
L 58.015625 17.1875
L 47.609375 17.1875
L 47.609375 0
L 37.796875 0
L 37.796875 17.1875
L 4.890625 17.1875
L 4.890625 26.703125
z
" id="DejaVuSans-52"/>
      </defs>
      <g transform="translate(24.754375 88.193504)scale(0.1 -0.1)">
       <use xlink:href="#DejaVuSans-48"/>
       <use x="63.623047" xlink:href="#DejaVuSans-46"/>
       <use x="95.410156" xlink:href="#DejaVuSans-52"/>
       <use x="159.033203" xlink:href="#DejaVuSans-48"/>
      </g>
     </g>
    </g>
    <g id="ytick_8">
     <g id="line2d_25">
      <path clip-path="url(#p4c9ee5e260)" d="M 54.02 59.137143
L 309.15 59.137143
" style="fill:none;stroke:#b0b0b0;stroke-linecap:square;stroke-width:0.8;"/>
     </g>
     <g id="line2d_26">
      <g>
       <use style="stroke:#000000;stroke-width:0.8;" x="54.02" xlink:href="#ma176cc9801" y="59.137143"/>
      </g>
     </g>
     <g id="text_14">
      <!-- 0.45 -->
      <g transform="translate(24.754375 62.936362)scale(0.1 -0.1)">
       <use xlink:href="#DejaVuSans-48"/>
       <use x="63.623047" xlink:href="#DejaVuSans-46"/>
       <use x="95.410156" xlink:href="#DejaVuSans-52"/>
       <use x="159.033203" xlink:href="#DejaVuSans-53"/>
      </g>
     </g>
    </g>
    <g id="ytick_9">
     <g id="line2d_27">
      <path clip-path="url(#p4c9ee5e260)" d="M 54.02 33.88
L 309.15 33.88
" style="fill:none;stroke:#b0b0b0;stroke-linecap:square;stroke-width:0.8;"/>
     </g>
     <g id="line2d_28">
      <g>
       <use style="stroke:#000000;stroke-width:0.8;" x="54.02" xlink:href="#ma176cc9801" y="33.88"/>
      </g>
     </g>
     <g id="text_15">
      <!-- 0.50 -->
      <g transform="translate(24.754375 37.679219)scale(0.1 -0.1)">
       <use xlink:href="#DejaVuSans-48"/>
       <use x="63.623047" xlink:href="#DejaVuSans-46"/>
       <use x="95.410156" xlink:href="#DejaVuSans-53"/>
       <use x="159.033203" xlink:href="#DejaVuSans-48"/>
      </g>
     </g>
    </g>
    <g id="text_16">
     <!-- Proportion of task selection -->
     <defs>
      <path d="M 19.671875 64.796875
L 19.671875 37.40625
L 32.078125 37.40625
Q 38.96875 37.40625 42.71875 40.96875
Q 46.484375 44.53125 46.484375 51.125
Q 46.484375 57.671875 42.71875 61.234375
Q 38.96875 64.796875 32.078125 64.796875
z
M 9.8125 72.90625
L 32.078125 72.90625
Q 44.34375 72.90625 50.609375 67.359375
Q 56.890625 61.8125 56.890625 51.125
Q 56.890625 40.328125 50.609375 34.8125
Q 44.34375 29.296875 32.078125 29.296875
L 19.671875 29.296875
L 19.671875 0
L 9.8125 0
z
" id="DejaVuSans-80"/>
      <path d="M 30.609375 48.390625
Q 23.390625 48.390625 19.1875 42.75
Q 14.984375 37.109375 14.984375 27.296875
Q 14.984375 17.484375 19.15625 11.84375
Q 23.34375 6.203125 30.609375 6.203125
Q 37.796875 6.203125 41.984375 11.859375
Q 46.1875 17.53125 46.1875 27.296875
Q 46.1875 37.015625 41.984375 42.703125
Q 37.796875 48.390625 30.609375 48.390625
z
M 30.609375 56
Q 42.328125 56 49.015625 48.375
Q 55.71875 40.765625 55.71875 27.296875
Q 55.71875 13.875 49.015625 6.21875
Q 42.328125 -1.421875 30.609375 -1.421875
Q 18.84375 -1.421875 12.171875 6.21875
Q 5.515625 13.875 5.515625 27.296875
Q 5.515625 40.765625 12.171875 48.375
Q 18.84375 56 30.609375 56
z
" id="DejaVuSans-111"/>
      <path d="M 18.109375 8.203125
L 18.109375 -20.796875
L 9.078125 -20.796875
L 9.078125 54.6875
L 18.109375 54.6875
L 18.109375 46.390625
Q 20.953125 51.265625 25.265625 53.625
Q 29.59375 56 35.59375 56
Q 45.5625 56 51.78125 48.09375
Q 58.015625 40.1875 58.015625 27.296875
Q 58.015625 14.40625 51.78125 6.484375
Q 45.5625 -1.421875 35.59375 -1.421875
Q 29.59375 -1.421875 25.265625 0.953125
Q 20.953125 3.328125 18.109375 8.203125
z
M 48.6875 27.296875
Q 48.6875 37.203125 44.609375 42.84375
Q 40.53125 48.484375 33.40625 48.484375
Q 26.265625 48.484375 22.1875 42.84375
Q 18.109375 37.203125 18.109375 27.296875
Q 18.109375 17.390625 22.1875 11.75
Q 26.265625 6.109375 33.40625 6.109375
Q 40.53125 6.109375 44.609375 11.75
Q 48.6875 17.390625 48.6875 27.296875
z
" id="DejaVuSans-112"/>
      <path d="M 18.3125 70.21875
L 18.3125 54.6875
L 36.8125 54.6875
L 36.8125 47.703125
L 18.3125 47.703125
L 18.3125 18.015625
Q 18.3125 11.328125 20.140625 9.421875
Q 21.96875 7.515625 27.59375 7.515625
L 36.8125 7.515625
L 36.8125 0
L 27.59375 0
Q 17.1875 0 13.234375 3.875
Q 9.28125 7.765625 9.28125 18.015625
L 9.28125 47.703125
L 2.6875 47.703125
L 2.6875 54.6875
L 9.28125 54.6875
L 9.28125 70.21875
z
" id="DejaVuSans-116"/>
      <path d="M 37.109375 75.984375
L 37.109375 68.5
L 28.515625 68.5
Q 23.6875 68.5 21.796875 66.546875
Q 19.921875 64.59375 19.921875 59.515625
L 19.921875 54.6875
L 34.71875 54.6875
L 34.71875 47.703125
L 19.921875 47.703125
L 19.921875 0
L 10.890625 0
L 10.890625 47.703125
L 2.296875 47.703125
L 2.296875 54.6875
L 10.890625 54.6875
L 10.890625 58.5
Q 10.890625 67.625 15.140625 71.796875
Q 19.390625 75.984375 28.609375 75.984375
z
" id="DejaVuSans-102"/>
      <path d="M 44.28125 53.078125
L 44.28125 44.578125
Q 40.484375 46.53125 36.375 47.5
Q 32.28125 48.484375 27.875 48.484375
Q 21.1875 48.484375 17.84375 46.4375
Q 14.5 44.390625 14.5 40.28125
Q 14.5 37.15625 16.890625 35.375
Q 19.28125 33.59375 26.515625 31.984375
L 29.59375 31.296875
Q 39.15625 29.25 43.1875 25.515625
Q 47.21875 21.78125 47.21875 15.09375
Q 47.21875 7.46875 41.1875 3.015625
Q 35.15625 -1.421875 24.609375 -1.421875
Q 20.21875 -1.421875 15.453125 -0.5625
Q 10.6875 0.296875 5.421875 2
L 5.421875 11.28125
Q 10.40625 8.6875 15.234375 7.390625
Q 20.0625 6.109375 24.8125 6.109375
Q 31.15625 6.109375 34.5625 8.28125
Q 37.984375 10.453125 37.984375 14.40625
Q 37.984375 18.0625 35.515625 20.015625
Q 33.0625 21.96875 24.703125 23.78125
L 21.578125 24.515625
Q 13.234375 26.265625 9.515625 29.90625
Q 5.8125 33.546875 5.8125 39.890625
Q 5.8125 47.609375 11.28125 51.796875
Q 16.75 56 26.8125 56
Q 31.78125 56 36.171875 55.265625
Q 40.578125 54.546875 44.28125 53.078125
z
" id="DejaVuSans-115"/>
      <path d="M 9.078125 75.984375
L 18.109375 75.984375
L 18.109375 31.109375
L 44.921875 54.6875
L 56.390625 54.6875
L 27.390625 29.109375
L 57.625 0
L 45.90625 0
L 18.109375 26.703125
L 18.109375 0
L 9.078125 0
z
" id="DejaVuSans-107"/>
      <path d="M 48.78125 52.59375
L 48.78125 44.1875
Q 44.96875 46.296875 41.140625 47.34375
Q 37.3125 48.390625 33.40625 48.390625
Q 24.65625 48.390625 19.8125 42.84375
Q 14.984375 37.3125 14.984375 27.296875
Q 14.984375 17.28125 19.8125 11.734375
Q 24.65625 6.203125 33.40625 6.203125
Q 37.3125 6.203125 41.140625 7.25
Q 44.96875 8.296875 48.78125 10.40625
L 48.78125 2.09375
Q 45.015625 0.34375 40.984375 -0.53125
Q 36.96875 -1.421875 32.421875 -1.421875
Q 20.0625 -1.421875 12.78125 6.34375
Q 5.515625 14.109375 5.515625 27.296875
Q 5.515625 40.671875 12.859375 48.328125
Q 20.21875 56 33.015625 56
Q 37.15625 56 41.109375 55.140625
Q 45.0625 54.296875 48.78125 52.59375
z
" id="DejaVuSans-99"/>
     </defs>
     <g transform="translate(18.674688 208.538125)rotate(-90)scale(0.1 -0.1)">
      <use xlink:href="#DejaVuSans-80"/>
      <use x="60.287109" xlink:href="#DejaVuSans-114"/>
      <use x="101.369141" xlink:href="#DejaVuSans-111"/>
      <use x="162.550781" xlink:href="#DejaVuSans-112"/>
      <use x="226.027344" xlink:href="#DejaVuSans-111"/>
      <use x="287.208984" xlink:href="#DejaVuSans-114"/>
      <use x="328.322266" xlink:href="#DejaVuSans-116"/>
      <use x="367.53125" xlink:href="#DejaVuSans-105"/>
      <use x="395.314453" xlink:href="#DejaVuSans-111"/>
      <use x="456.496094" xlink:href="#DejaVuSans-110"/>
      <use x="519.875" xlink:href="#DejaVuSans-32"/>
      <use x="551.662109" xlink:href="#DejaVuSans-111"/>
      <use x="612.84375" xlink:href="#DejaVuSans-102"/>
      <use x="648.048828" xlink:href="#DejaVuSans-32"/>
      <use x="679.835938" xlink:href="#DejaVuSans-116"/>
      <use x="719.044922" xlink:href="#DejaVuSans-97"/>
      <use x="780.324219" xlink:href="#DejaVuSans-115"/>
      <use x="832.423828" xlink:href="#DejaVuSans-107"/>
      <use x="890.333984" xlink:href="#DejaVuSans-32"/>
      <use x="922.121094" xlink:href="#DejaVuSans-115"/>
      <use x="974.220703" xlink:href="#DejaVuSans-101"/>
      <use x="1035.744141" xlink:href="#DejaVuSans-108"/>
      <use x="1063.527344" xlink:href="#DejaVuSans-101"/>
      <use x="1125.050781" xlink:href="#DejaVuSans-99"/>
      <use x="1180.03125" xlink:href="#DejaVuSans-116"/>
      <use x="1219.240234" xlink:href="#DejaVuSans-105"/>
      <use x="1247.023438" xlink:href="#DejaVuSans-111"/>
      <use x="1308.205078" xlink:href="#DejaVuSans-110"/>
     </g>
    </g>
   </g>
   <g id="line2d_29">
    <path clip-path="url(#p4c9ee5e260)" d="M 52.995382 112.603562
L 54.02 109.323414
L 60.167711 109.323414
L 61.192329 106.043265
L 62.216948 96.20282
L 63.241566 96.20282
L 64.266185 89.642523
L 65.290803 89.642523
L 66.315422 106.043265
L 67.34004 119.163859
L 68.364659 119.163859
L 69.389277 125.724156
L 70.413896 135.564601
L 71.438514 132.284453
L 72.463133 132.284453
L 74.512369 151.965343
L 77.586225 142.124898
L 78.610843 151.965343
L 79.635462 155.245492
L 80.66008 148.685195
L 82.709317 148.685195
L 83.733936 155.245492
L 85.783173 148.685195
L 86.807791 142.124898
L 87.83241 148.685195
L 89.881647 148.685195
L 90.906265 142.124898
L 92.955502 135.564601
L 96.029357 135.564601
L 97.053976 142.124898
L 100.127831 142.124898
L 101.15245 145.405046
L 102.177068 145.405046
L 103.201687 142.124898
L 105.250924 161.805788
L 106.275542 174.926382
L 107.300161 174.926382
L 108.324779 178.206531
L 109.349398 171.646234
L 110.374016 178.206531
L 112.423253 178.206531
L 113.447871 174.926382
L 116.521727 174.926382
L 117.546345 184.766827
L 120.620201 184.766827
L 121.644819 188.046976
L 122.669438 188.046976
L 123.694056 191.327124
L 125.743293 178.206531
L 128.817149 178.206531
L 129.841767 168.366085
L 130.866386 168.366085
L 131.891004 171.646234
L 132.915622 178.206531
L 133.940241 191.327124
L 134.964859 184.766827
L 135.989478 188.046976
L 138.038715 188.046976
L 139.063333 191.327124
L 140.087952 191.327124
L 141.11257 188.046976
L 142.137189 178.206531
L 143.161807 174.926382
L 144.186426 161.805788
L 145.211044 155.245492
L 147.260281 155.245492
L 148.2849 142.124898
L 149.309518 142.124898
L 150.334137 132.284453
L 151.358755 125.724156
L 152.383373 125.724156
L 153.407992 132.284453
L 154.43261 132.284453
L 155.457229 129.004304
L 156.481847 138.84475
L 157.506466 132.284453
L 158.531084 138.84475
L 159.555703 142.124898
L 160.580321 135.564601
L 161.60494 135.564601
L 162.629558 138.84475
L 163.654177 138.84475
L 164.678795 135.564601
L 168.777269 148.685195
L 169.801888 155.245492
L 170.826506 158.52564
L 171.851124 155.245492
L 172.875743 158.52564
L 173.900361 148.685195
L 175.949598 148.685195
L 176.974217 138.84475
L 177.998835 132.284453
L 179.023454 138.84475
L 180.048072 129.004304
L 181.072691 132.284453
L 182.097309 129.004304
L 184.146546 142.124898
L 187.220402 132.284453
L 188.24502 122.444007
L 189.269639 125.724156
L 190.294257 125.724156
L 191.318876 122.444007
L 192.343494 122.444007
L 193.368112 119.163859
L 194.392731 122.444007
L 195.417349 119.163859
L 196.441968 119.163859
L 198.491205 132.284453
L 199.515823 135.564601
L 200.540442 129.004304
L 202.589679 135.564601
L 203.614297 142.124898
L 204.638916 142.124898
L 205.663534 145.405046
L 206.688153 151.965343
L 208.73739 158.52564
L 210.786627 158.52564
L 211.811245 165.085937
L 213.860482 165.085937
L 215.909719 151.965343
L 216.934337 148.685195
L 217.958956 155.245492
L 218.983574 151.965343
L 220.008193 151.965343
L 221.032811 148.685195
L 223.082048 161.805788
L 224.106667 158.52564
L 225.131285 161.805788
L 226.155904 161.805788
L 227.180522 158.52564
L 228.205141 168.366085
L 229.229759 171.646234
L 230.254378 171.646234
L 231.278996 168.366085
L 232.303614 168.366085
L 233.328233 161.805788
L 234.352851 161.805788
L 235.37747 158.52564
L 237.426707 158.52564
L 238.451325 161.805788
L 239.475944 148.685195
L 240.500562 145.405046
L 241.525181 145.405046
L 242.549799 142.124898
L 246.648273 142.124898
L 247.672892 145.405046
L 248.69751 155.245492
L 249.722129 151.965343
L 250.746747 145.405046
L 251.771365 145.405046
L 252.795984 138.84475
L 253.820602 138.84475
L 254.845221 135.564601
L 255.869839 129.004304
L 256.894458 129.004304
L 257.919076 125.724156
L 258.943695 132.284453
L 259.968313 132.284453
L 262.01755 138.84475
L 264.066787 125.724156
L 265.091406 125.724156
L 266.116024 129.004304
L 267.140643 125.724156
L 268.165261 115.883711
L 271.239116 115.883711
L 272.263735 109.323414
L 275.33759 109.323414
L 276.362209 115.883711
L 277.386827 112.603562
L 278.411446 106.043265
L 280.460683 106.043265
L 281.485301 109.323414
L 282.50992 106.043265
L 284.559157 106.043265
L 285.583775 112.603562
L 286.608394 112.603562
L 287.633012 115.883711
L 289.682249 109.323414
L 290.706867 115.883711
L 291.731486 112.603562
L 292.756104 106.043265
L 293.780723 106.043265
L 294.805341 99.482968
L 295.82996 99.482968
L 296.854578 96.20282
L 297.879197 96.20282
L 298.903815 99.482968
L 300.953052 99.482968
L 301.977671 106.043265
L 303.002289 106.043265
L 304.026908 102.763117
L 308.125382 102.763117
L 308.125382 102.763117
" style="fill:none;stroke:#43799d;stroke-linecap:square;stroke-width:2;"/>
   </g>
   <g id="line2d_30">
    <path clip-path="url(#p4c9ee5e260)" d="M 52.995382 165.085937
L 55.044618 165.085937
L 56.069237 161.805788
L 58.118474 161.805788
L 59.143092 155.245492
L 64.266185 171.646234
L 66.315422 165.085937
L 67.34004 165.085937
L 68.364659 168.366085
L 69.389277 178.206531
L 70.413896 184.766827
L 71.438514 181.486679
L 72.463133 191.327124
L 73.487751 188.046976
L 74.512369 188.046976
L 75.536988 194.607273
L 77.586225 194.607273
L 79.635462 188.046976
L 80.66008 191.327124
L 81.684699 197.887421
L 82.709317 191.327124
L 83.733936 188.046976
L 86.807791 188.046976
L 87.83241 178.206531
L 88.857028 178.206531
L 89.881647 174.926382
L 90.906265 174.926382
L 91.930884 184.766827
L 93.98012 184.766827
L 95.004739 188.046976
L 97.053976 168.366085
L 98.078594 171.646234
L 99.103213 171.646234
L 100.127831 158.52564
L 103.201687 158.52564
L 104.226305 161.805788
L 105.250924 158.52564
L 106.275542 145.405046
L 107.300161 145.405046
L 108.324779 148.685195
L 110.374016 148.685195
L 112.423253 142.124898
L 113.447871 145.405046
L 115.497108 145.405046
L 116.521727 148.685195
L 119.595582 138.84475
L 120.620201 145.405046
L 122.669438 138.84475
L 124.718675 138.84475
L 125.743293 145.405046
L 127.79253 138.84475
L 128.817149 142.124898
L 129.841767 151.965343
L 130.866386 151.965343
L 132.915622 145.405046
L 133.940241 132.284453
L 134.964859 138.84475
L 135.989478 135.564601
L 137.014096 135.564601
L 138.038715 142.124898
L 139.063333 135.564601
L 140.087952 135.564601
L 141.11257 145.405046
L 143.161807 145.405046
L 144.186426 151.965343
L 145.211044 151.965343
L 146.235663 161.805788
L 147.260281 161.805788
L 148.2849 171.646234
L 149.309518 165.085937
L 150.334137 165.085937
L 151.358755 174.926382
L 152.383373 178.206531
L 153.407992 174.926382
L 155.457229 174.926382
L 156.481847 171.646234
L 157.506466 174.926382
L 158.531084 171.646234
L 159.555703 165.085937
L 160.580321 168.366085
L 161.60494 168.366085
L 162.629558 161.805788
L 163.654177 161.805788
L 164.678795 155.245492
L 165.703414 158.52564
L 167.752651 158.52564
L 170.826506 148.685195
L 172.875743 155.245492
L 173.900361 151.965343
L 174.92498 151.965343
L 175.949598 155.245492
L 176.974217 155.245492
L 177.998835 165.085937
L 180.048072 165.085937
L 182.097309 158.52564
L 183.121928 148.685195
L 184.146546 148.685195
L 188.24502 174.926382
L 192.343494 174.926382
L 195.417349 184.766827
L 196.441968 181.486679
L 198.491205 181.486679
L 202.589679 168.366085
L 203.614297 161.805788
L 204.638916 158.52564
L 205.663534 165.085937
L 207.712771 158.52564
L 212.835863 158.52564
L 213.860482 165.085937
L 214.8851 178.206531
L 215.909719 178.206531
L 216.934337 181.486679
L 217.958956 181.486679
L 218.983574 188.046976
L 221.032811 188.046976
L 222.05743 181.486679
L 223.082048 178.206531
L 224.106667 171.646234
L 225.131285 178.206531
L 226.155904 171.646234
L 229.229759 161.805788
L 230.254378 165.085937
L 231.278996 165.085937
L 232.303614 168.366085
L 234.352851 168.366085
L 235.37747 171.646234
L 237.426707 171.646234
L 239.475944 165.085937
L 240.500562 158.52564
L 242.549799 158.52564
L 243.574418 161.805788
L 244.599036 171.646234
L 245.623655 171.646234
L 246.648273 174.926382
L 247.672892 171.646234
L 248.69751 165.085937
L 250.746747 178.206531
L 251.771365 178.206531
L 252.795984 181.486679
L 253.820602 178.206531
L 254.845221 178.206531
L 255.869839 171.646234
L 256.894458 174.926382
L 257.919076 171.646234
L 258.943695 171.646234
L 259.968313 178.206531
L 260.992932 174.926382
L 262.01755 168.366085
L 264.066787 174.926382
L 266.116024 168.366085
L 267.140643 171.646234
L 268.165261 184.766827
L 269.18988 188.046976
L 272.263735 188.046976
L 274.312972 194.607273
L 276.362209 194.607273
L 277.386827 191.327124
L 278.411446 197.887421
L 279.436064 201.16757
L 280.460683 201.16757
L 282.50992 194.607273
L 284.559157 181.486679
L 285.583775 178.206531
L 286.608394 184.766827
L 287.633012 181.486679
L 288.657631 188.046976
L 289.682249 188.046976
L 290.706867 181.486679
L 292.756104 188.046976
L 293.780723 188.046976
L 295.82996 181.486679
L 297.879197 181.486679
L 298.903815 178.206531
L 299.928434 178.206531
L 303.002289 168.366085
L 304.026908 174.926382
L 305.051526 178.206531
L 306.076145 178.206531
L 307.100763 174.926382
L 308.125382 174.926382
L 308.125382 174.926382
" style="fill:none;stroke:#cc5b46;stroke-linecap:square;stroke-width:2;"/>
   </g>
   <g id="line2d_31">
    <path clip-path="url(#p4c9ee5e260)" d="M 52.995382 161.805788
L 54.02 165.085937
L 55.044618 165.085937
L 56.069237 168.366085
L 59.143092 168.366085
L 60.167711 161.805788
L 61.192329 161.805788
L 63.241566 168.366085
L 64.266185 174.926382
L 65.290803 178.206531
L 66.315422 168.366085
L 67.34004 168.366085
L 68.364659 165.085937
L 69.389277 155.245492
L 70.413896 151.965343
L 71.438514 158.52564
L 72.463133 148.685195
L 75.536988 138.84475
L 77.586225 145.405046
L 78.610843 145.405046
L 79.635462 151.965343
L 80.66008 148.685195
L 84.758554 148.685195
L 86.807791 161.805788
L 87.83241 165.085937
L 88.857028 158.52564
L 89.881647 158.52564
L 90.906265 161.805788
L 91.930884 161.805788
L 92.955502 168.366085
L 93.98012 171.646234
L 95.004739 168.366085
L 97.053976 174.926382
L 98.078594 168.366085
L 99.103213 165.085937
L 101.15245 171.646234
L 104.226305 161.805788
L 105.250924 155.245492
L 106.275542 158.52564
L 107.300161 155.245492
L 108.324779 148.685195
L 109.349398 151.965343
L 110.374016 145.405046
L 111.398635 151.965343
L 112.423253 142.124898
L 113.447871 145.405046
L 117.546345 145.405046
L 119.595582 158.52564
L 120.620201 155.245492
L 121.644819 158.52564
L 122.669438 158.52564
L 123.694056 148.685195
L 124.718675 148.685195
L 125.743293 142.124898
L 126.767912 145.405046
L 127.79253 142.124898
L 128.817149 142.124898
L 129.841767 145.405046
L 130.866386 145.405046
L 131.891004 142.124898
L 132.915622 142.124898
L 134.964859 148.685195
L 135.989478 155.245492
L 137.014096 155.245492
L 138.038715 145.405046
L 139.063333 145.405046
L 140.087952 142.124898
L 141.11257 142.124898
L 143.161807 148.685195
L 144.186426 148.685195
L 145.211044 155.245492
L 146.235663 148.685195
L 148.2849 148.685195
L 149.309518 158.52564
L 150.334137 165.085937
L 151.358755 155.245492
L 153.407992 155.245492
L 154.43261 151.965343
L 155.457229 158.52564
L 156.481847 161.805788
L 157.506466 168.366085
L 158.531084 171.646234
L 159.555703 168.366085
L 160.580321 171.646234
L 162.629558 171.646234
L 163.654177 174.926382
L 165.703414 174.926382
L 166.728032 171.646234
L 167.752651 165.085937
L 168.777269 165.085937
L 170.826506 151.965343
L 172.875743 145.405046
L 173.900361 155.245492
L 174.92498 151.965343
L 176.974217 165.085937
L 177.998835 158.52564
L 179.023454 158.52564
L 180.048072 165.085937
L 181.072691 168.366085
L 182.097309 168.366085
L 183.121928 171.646234
L 186.195783 161.805788
L 187.220402 165.085937
L 188.24502 171.646234
L 192.343494 171.646234
L 193.368112 168.366085
L 194.392731 171.646234
L 195.417349 171.646234
L 197.466586 165.085937
L 198.491205 165.085937
L 200.540442 178.206531
L 201.56506 178.206531
L 202.589679 184.766827
L 203.614297 178.206531
L 205.663534 178.206531
L 206.688153 184.766827
L 207.712771 184.766827
L 208.73739 191.327124
L 209.762008 194.607273
L 211.811245 188.046976
L 213.860482 188.046976
L 214.8851 184.766827
L 215.909719 191.327124
L 216.934337 191.327124
L 218.983574 197.887421
L 220.008193 194.607273
L 221.032811 194.607273
L 222.05743 188.046976
L 223.082048 184.766827
L 224.106667 191.327124
L 225.131285 181.486679
L 227.180522 188.046976
L 228.205141 174.926382
L 229.229759 184.766827
L 230.254378 188.046976
L 231.278996 188.046976
L 232.303614 178.206531
L 233.328233 181.486679
L 235.37747 174.926382
L 238.451325 174.926382
L 239.475944 184.766827
L 241.525181 184.766827
L 242.549799 188.046976
L 243.574418 181.486679
L 244.599036 181.486679
L 245.623655 184.766827
L 246.648273 178.206531
L 247.672892 168.366085
L 249.722129 161.805788
L 252.795984 171.646234
L 253.820602 178.206531
L 254.845221 174.926382
L 255.869839 178.206531
L 256.894458 178.206531
L 257.919076 184.766827
L 258.943695 184.766827
L 259.968313 191.327124
L 260.992932 191.327124
L 262.01755 188.046976
L 263.042169 191.327124
L 264.066787 188.046976
L 265.091406 191.327124
L 267.140643 191.327124
L 268.165261 194.607273
L 269.18988 191.327124
L 271.239116 197.887421
L 272.263735 194.607273
L 273.288353 188.046976
L 276.362209 178.206531
L 277.386827 188.046976
L 278.411446 191.327124
L 281.485301 191.327124
L 282.50992 201.16757
L 284.559157 207.727866
L 285.583775 201.16757
L 286.608394 197.887421
L 289.682249 197.887421
L 291.731486 191.327124
L 292.756104 191.327124
L 293.780723 184.766827
L 294.805341 194.607273
L 297.879197 194.607273
L 298.903815 197.887421
L 301.977671 197.887421
L 303.002289 201.16757
L 304.026908 201.16757
L 305.051526 197.887421
L 306.076145 197.887421
L 307.100763 194.607273
L 308.125382 194.607273
L 308.125382 194.607273
" style="fill:none;stroke:#ffbb00;stroke-linecap:square;stroke-width:2;"/>
   </g>
   <g id="line2d_32">
    <path clip-path="url(#p4c9ee5e260)" d="M 52.995382 201.16757
L 58.118474 201.16757
L 59.143092 207.727866
L 60.167711 211.008015
L 61.192329 211.008015
L 62.216948 214.288163
L 63.241566 207.727866
L 64.266185 204.447718
L 65.290803 204.447718
L 66.315422 201.16757
L 67.34004 188.046976
L 68.364659 188.046976
L 69.389277 181.486679
L 70.413896 168.366085
L 72.463133 168.366085
L 73.487751 165.085937
L 74.512369 158.52564
L 77.586225 158.52564
L 79.635462 145.405046
L 80.66008 151.965343
L 81.684699 145.405046
L 82.709317 151.965343
L 83.733936 148.685195
L 84.758554 151.965343
L 85.783173 148.685195
L 87.83241 148.685195
L 88.857028 155.245492
L 90.906265 161.805788
L 91.930884 155.245492
L 93.98012 148.685195
L 95.004739 148.685195
L 96.029357 155.245492
L 97.053976 155.245492
L 99.103213 161.805788
L 100.127831 171.646234
L 101.15245 165.085937
L 102.177068 168.366085
L 103.201687 174.926382
L 104.226305 165.085937
L 105.250924 165.085937
L 106.275542 161.805788
L 107.300161 165.085937
L 108.324779 165.085937
L 109.349398 168.366085
L 110.374016 168.366085
L 111.398635 165.085937
L 112.423253 178.206531
L 113.447871 174.926382
L 115.497108 174.926382
L 116.521727 171.646234
L 117.546345 165.085937
L 121.644819 151.965343
L 122.669438 155.245492
L 125.743293 174.926382
L 126.767912 174.926382
L 127.79253 181.486679
L 129.841767 174.926382
L 130.866386 174.926382
L 131.891004 178.206531
L 134.964859 168.366085
L 135.989478 161.805788
L 137.014096 161.805788
L 140.087952 171.646234
L 141.11257 165.085937
L 142.137189 171.646234
L 143.161807 171.646234
L 144.186426 178.206531
L 145.211044 178.206531
L 146.235663 174.926382
L 147.260281 174.926382
L 148.2849 178.206531
L 149.309518 174.926382
L 150.334137 178.206531
L 151.358755 184.766827
L 153.407992 178.206531
L 154.43261 181.486679
L 155.457229 178.206531
L 156.481847 168.366085
L 157.506466 165.085937
L 158.531084 158.52564
L 159.555703 165.085937
L 161.60494 165.085937
L 162.629558 168.366085
L 163.654177 165.085937
L 164.678795 174.926382
L 165.703414 168.366085
L 166.728032 168.366085
L 167.752651 171.646234
L 168.777269 171.646234
L 169.801888 174.926382
L 170.826506 181.486679
L 171.851124 184.766827
L 172.875743 181.486679
L 174.92498 188.046976
L 175.949598 178.206531
L 177.998835 184.766827
L 179.023454 178.206531
L 180.048072 181.486679
L 181.072691 178.206531
L 182.097309 184.766827
L 183.121928 184.766827
L 184.146546 181.486679
L 186.195783 181.486679
L 187.220402 174.926382
L 189.269639 168.366085
L 190.294257 168.366085
L 191.318876 171.646234
L 192.343494 171.646234
L 193.368112 174.926382
L 194.392731 165.085937
L 195.417349 165.085937
L 196.441968 171.646234
L 197.466586 168.366085
L 199.515823 155.245492
L 200.540442 158.52564
L 201.56506 158.52564
L 202.589679 151.965343
L 203.614297 158.52564
L 204.638916 161.805788
L 206.688153 142.124898
L 207.712771 142.124898
L 208.73739 132.284453
L 209.762008 129.004304
L 210.786627 132.284453
L 211.811245 129.004304
L 212.835863 129.004304
L 213.860482 122.444007
L 214.8851 119.163859
L 216.934337 119.163859
L 217.958956 109.323414
L 218.983574 102.763117
L 221.032811 109.323414
L 222.05743 115.883711
L 223.082048 115.883711
L 224.106667 119.163859
L 225.131285 119.163859
L 227.180522 125.724156
L 228.205141 132.284453
L 229.229759 122.444007
L 230.254378 115.883711
L 231.278996 119.163859
L 232.303614 125.724156
L 235.37747 135.564601
L 238.451325 135.564601
L 239.475944 142.124898
L 240.500562 151.965343
L 242.549799 151.965343
L 243.574418 155.245492
L 244.599036 145.405046
L 245.623655 142.124898
L 246.648273 145.405046
L 247.672892 155.245492
L 249.722129 155.245492
L 251.771365 148.685195
L 252.795984 148.685195
L 253.820602 145.405046
L 254.845221 151.965343
L 255.869839 161.805788
L 256.894458 158.52564
L 257.919076 158.52564
L 258.943695 151.965343
L 259.968313 138.84475
L 260.992932 138.84475
L 262.01755 145.405046
L 263.042169 145.405046
L 264.066787 151.965343
L 267.140643 151.965343
L 268.165261 145.405046
L 269.18988 145.405046
L 271.239116 138.84475
L 272.263735 148.685195
L 273.288353 151.965343
L 274.312972 151.965343
L 275.33759 155.245492
L 279.436064 142.124898
L 281.485301 142.124898
L 282.50992 138.84475
L 285.583775 148.685195
L 286.608394 145.405046
L 287.633012 145.405046
L 288.657631 142.124898
L 292.756104 155.245492
L 293.780723 161.805788
L 294.805341 161.805788
L 296.854578 168.366085
L 297.879197 168.366085
L 298.903815 165.085937
L 299.928434 165.085937
L 300.953052 168.366085
L 301.977671 165.085937
L 303.002289 165.085937
L 304.026908 161.805788
L 306.076145 161.805788
L 307.100763 168.366085
L 308.125382 168.366085
L 308.125382 168.366085
" style="fill:none;stroke:#71bc78;stroke-linecap:square;stroke-width:2;"/>
   </g>
   <g id="patch_3">
    <path d="M 54.02 246.04
L 54.02 33.88
" style="fill:none;stroke:#000000;stroke-linecap:square;stroke-linejoin:miter;stroke-width:0.8;"/>
   </g>
   <g id="patch_4">
    <path d="M 54.02 246.04
L 309.15 246.04
" style="fill:none;stroke:#000000;stroke-linecap:square;stroke-linejoin:miter;stroke-width:0.8;"/>
   </g>
   <g id="text_17">
    <!-- Free -->
    <defs>
     <path d="M 9.8125 72.90625
L 51.703125 72.90625
L 51.703125 64.59375
L 19.671875 64.59375
L 19.671875 43.109375
L 48.578125 43.109375
L 48.578125 34.8125
L 19.671875 34.8125
L 19.671875 0
L 9.8125 0
z
" id="DejaVuSans-70"/>
    </defs>
    <g transform="translate(66.7765 53.606125)scale(0.12 -0.12)">
     <use xlink:href="#DejaVuSans-70"/>
     <use x="57.410156" xlink:href="#DejaVuSans-114"/>
     <use x="98.492188" xlink:href="#DejaVuSans-101"/>
     <use x="160.015625" xlink:href="#DejaVuSans-101"/>
    </g>
   </g>
   <g id="legend_1">
    <g id="patch_5">
     <path d="M 61.02 28.88
L 302.15 28.88
Q 304.15 28.88 304.15 26.88
L 304.15 13.201875
Q 304.15 11.201875 302.15 11.201875
L 61.02 11.201875
Q 59.02 11.201875 59.02 13.201875
L 59.02 26.88
Q 59.02 28.88 61.02 28.88
z
" style="fill:#ffffff;opacity:0.8;stroke:#cccccc;stroke-linejoin:miter;"/>
    </g>
    <g id="line2d_33">
     <path d="M 63.02 19.300313
L 83.02 19.300313
" style="fill:none;stroke:#43799d;stroke-linecap:square;stroke-width:2;"/>
    </g>
    <g id="line2d_34"/>
    <g id="text_18">
     <!-- 1D -->
     <defs>
      <path d="M 19.671875 64.796875
L 19.671875 8.109375
L 31.59375 8.109375
Q 46.6875 8.109375 53.6875 14.9375
Q 60.6875 21.78125 60.6875 36.53125
Q 60.6875 51.171875 53.6875 57.984375
Q 46.6875 64.796875 31.59375 64.796875
z
M 9.8125 72.90625
L 30.078125 72.90625
Q 51.265625 72.90625 61.171875 64.09375
Q 71.09375 55.28125 71.09375 36.53125
Q 71.09375 17.671875 61.125 8.828125
Q 51.171875 0 30.078125 0
L 9.8125 0
z
" id="DejaVuSans-68"/>
     </defs>
     <g transform="translate(91.02 22.800313)scale(0.1 -0.1)">
      <use xlink:href="#DejaVuSans-49"/>
      <use x="63.623047" xlink:href="#DejaVuSans-68"/>
     </g>
    </g>
    <g id="line2d_35">
     <path d="M 129.430521 19.300313
L 149.430521 19.300313
" style="fill:none;stroke:#cc5b46;stroke-linecap:square;stroke-width:2;"/>
    </g>
    <g id="line2d_36"/>
    <g id="text_19">
     <!-- I1D -->
     <defs>
      <path d="M 9.8125 72.90625
L 19.671875 72.90625
L 19.671875 0
L 9.8125 0
z
" id="DejaVuSans-73"/>
     </defs>
     <g transform="translate(157.430521 22.800313)scale(0.1 -0.1)">
      <use xlink:href="#DejaVuSans-73"/>
      <use x="29.492188" xlink:href="#DejaVuSans-49"/>
      <use x="93.115234" xlink:href="#DejaVuSans-68"/>
     </g>
    </g>
    <g id="line2d_37">
     <path d="M 198.791042 19.300313
L 218.791042 19.300313
" style="fill:none;stroke:#ffbb00;stroke-linecap:square;stroke-width:2;"/>
    </g>
    <g id="line2d_38"/>
    <g id="text_20">
     <!-- 2D -->
     <g transform="translate(226.791042 22.800313)scale(0.1 -0.1)">
      <use xlink:href="#DejaVuSans-50"/>
      <use x="63.623047" xlink:href="#DejaVuSans-68"/>
     </g>
    </g>
    <g id="line2d_39">
     <path d="M 265.201563 19.300313
L 285.201563 19.300313
" style="fill:none;stroke:#71bc78;stroke-linecap:square;stroke-width:2;"/>
    </g>
    <g id="line2d_40"/>
    <g id="text_21">
     <!-- R -->
     <defs>
      <path d="M 44.390625 34.1875
Q 47.5625 33.109375 50.5625 29.59375
Q 53.5625 26.078125 56.59375 19.921875
L 66.609375 0
L 56 0
L 46.6875 18.703125
Q 43.0625 26.03125 39.671875 28.421875
Q 36.28125 30.8125 30.421875 30.8125
L 19.671875 30.8125
L 19.671875 0
L 9.8125 0
L 9.8125 72.90625
L 32.078125 72.90625
Q 44.578125 72.90625 50.734375 67.671875
Q 56.890625 62.453125 56.890625 51.90625
Q 56.890625 45.015625 53.6875 40.46875
Q 50.484375 35.9375 44.390625 34.1875
z
M 19.671875 64.796875
L 19.671875 38.921875
L 32.078125 38.921875
Q 39.203125 38.921875 42.84375 42.21875
Q 46.484375 45.515625 46.484375 51.90625
Q 46.484375 58.296875 42.84375 61.546875
Q 39.203125 64.796875 32.078125 64.796875
z
" id="DejaVuSans-82"/>
     </defs>
     <g transform="translate(293.201563 22.800313)scale(0.1 -0.1)">
      <use xlink:href="#DejaVuSans-82"/>
     </g>
    </g>
   </g>
  </g>
  <g id="axes_2">
   <g id="patch_6">
    <path d="M 372.62 246.04
L 627.75 246.04
L 627.75 33.88
L 372.62 33.88
z
" style="fill:#ffffff;"/>
   </g>
   <g id="matplotlib.axis_3">
    <g id="xtick_6">
     <g id="line2d_41">
      <path clip-path="url(#peb5f63d51b)" d="M 422.826305 246.04
L 422.826305 33.88
" style="fill:none;stroke:#b0b0b0;stroke-linecap:square;stroke-width:0.8;"/>
     </g>
     <g id="line2d_42">
      <g>
       <use style="stroke:#000000;stroke-width:0.8;" x="422.826305" xlink:href="#m1797f80dcf" y="246.04"/>
      </g>
     </g>
     <g id="text_22">
      <!-- 50 -->
      <g transform="translate(416.463805 260.638438)scale(0.1 -0.1)">
       <use xlink:href="#DejaVuSans-53"/>
       <use x="63.623047" xlink:href="#DejaVuSans-48"/>
      </g>
     </g>
    </g>
    <g id="xtick_7">
     <g id="line2d_43">
      <path clip-path="url(#peb5f63d51b)" d="M 474.057229 246.04
L 474.057229 33.88
" style="fill:none;stroke:#b0b0b0;stroke-linecap:square;stroke-width:0.8;"/>
     </g>
     <g id="line2d_44">
      <g>
       <use style="stroke:#000000;stroke-width:0.8;" x="474.057229" xlink:href="#m1797f80dcf" y="246.04"/>
      </g>
     </g>
     <g id="text_23">
      <!-- 100 -->
      <g transform="translate(464.513479 260.638438)scale(0.1 -0.1)">
       <use xlink:href="#DejaVuSans-49"/>
       <use x="63.623047" xlink:href="#DejaVuSans-48"/>
       <use x="127.246094" xlink:href="#DejaVuSans-48"/>
      </g>
     </g>
    </g>
    <g id="xtick_8">
     <g id="line2d_45">
      <path clip-path="url(#peb5f63d51b)" d="M 525.288153 246.04
L 525.288153 33.88
" style="fill:none;stroke:#b0b0b0;stroke-linecap:square;stroke-width:0.8;"/>
     </g>
     <g id="line2d_46">
      <g>
       <use style="stroke:#000000;stroke-width:0.8;" x="525.288153" xlink:href="#m1797f80dcf" y="246.04"/>
      </g>
     </g>
     <g id="text_24">
      <!-- 150 -->
      <g transform="translate(515.744403 260.638438)scale(0.1 -0.1)">
       <use xlink:href="#DejaVuSans-49"/>
       <use x="63.623047" xlink:href="#DejaVuSans-53"/>
       <use x="127.246094" xlink:href="#DejaVuSans-48"/>
      </g>
     </g>
    </g>
    <g id="xtick_9">
     <g id="line2d_47">
      <path clip-path="url(#peb5f63d51b)" d="M 576.519076 246.04
L 576.519076 33.88
" style="fill:none;stroke:#b0b0b0;stroke-linecap:square;stroke-width:0.8;"/>
     </g>
     <g id="line2d_48">
      <g>
       <use style="stroke:#000000;stroke-width:0.8;" x="576.519076" xlink:href="#m1797f80dcf" y="246.04"/>
      </g>
     </g>
     <g id="text_25">
      <!-- 200 -->
      <g transform="translate(566.975326 260.638438)scale(0.1 -0.1)">
       <use xlink:href="#DejaVuSans-50"/>
       <use x="63.623047" xlink:href="#DejaVuSans-48"/>
       <use x="127.246094" xlink:href="#DejaVuSans-48"/>
      </g>
     </g>
    </g>
    <g id="xtick_10">
     <g id="line2d_49">
      <path clip-path="url(#peb5f63d51b)" d="M 627.75 246.04
L 627.75 33.88
" style="fill:none;stroke:#b0b0b0;stroke-linecap:square;stroke-width:0.8;"/>
     </g>
     <g id="line2d_50">
      <g>
       <use style="stroke:#000000;stroke-width:0.8;" x="627.75" xlink:href="#m1797f80dcf" y="246.04"/>
      </g>
     </g>
     <g id="text_26">
      <!-- 250 -->
      <g transform="translate(618.20625 260.638438)scale(0.1 -0.1)">
       <use xlink:href="#DejaVuSans-50"/>
       <use x="63.623047" xlink:href="#DejaVuSans-53"/>
       <use x="127.246094" xlink:href="#DejaVuSans-48"/>
      </g>
     </g>
    </g>
    <g id="text_27">
     <!-- Trial number -->
     <g transform="translate(468.14125 274.316562)scale(0.1 -0.1)">
      <use xlink:href="#DejaVuSans-84"/>
      <use x="60.865234" xlink:href="#DejaVuSans-114"/>
      <use x="101.978516" xlink:href="#DejaVuSans-105"/>
      <use x="129.761719" xlink:href="#DejaVuSans-97"/>
      <use x="191.041016" xlink:href="#DejaVuSans-108"/>
      <use x="218.824219" xlink:href="#DejaVuSans-32"/>
      <use x="250.611328" xlink:href="#DejaVuSans-110"/>
      <use x="313.990234" xlink:href="#DejaVuSans-117"/>
      <use x="377.369141" xlink:href="#DejaVuSans-109"/>
      <use x="474.78125" xlink:href="#DejaVuSans-98"/>
      <use x="538.257812" xlink:href="#DejaVuSans-101"/>
      <use x="599.78125" xlink:href="#DejaVuSans-114"/>
     </g>
    </g>
   </g>
   <g id="matplotlib.axis_4">
    <g id="ytick_10">
     <g id="line2d_51">
      <path clip-path="url(#peb5f63d51b)" d="M 372.62 235.937143
L 627.75 235.937143
" style="fill:none;stroke:#b0b0b0;stroke-linecap:square;stroke-width:0.8;"/>
     </g>
     <g id="line2d_52">
      <g>
       <use style="stroke:#000000;stroke-width:0.8;" x="372.62" xlink:href="#ma176cc9801" y="235.937143"/>
      </g>
     </g>
     <g id="text_28">
      <!-- 0.10 -->
      <g transform="translate(343.354375 239.736362)scale(0.1 -0.1)">
       <use xlink:href="#DejaVuSans-48"/>
       <use x="63.623047" xlink:href="#DejaVuSans-46"/>
       <use x="95.410156" xlink:href="#DejaVuSans-49"/>
       <use x="159.033203" xlink:href="#DejaVuSans-48"/>
      </g>
     </g>
    </g>
    <g id="ytick_11">
     <g id="line2d_53">
      <path clip-path="url(#peb5f63d51b)" d="M 372.62 210.68
L 627.75 210.68
" style="fill:none;stroke:#b0b0b0;stroke-linecap:square;stroke-width:0.8;"/>
     </g>
     <g id="line2d_54">
      <g>
       <use style="stroke:#000000;stroke-width:0.8;" x="372.62" xlink:href="#ma176cc9801" y="210.68"/>
      </g>
     </g>
     <g id="text_29">
      <!-- 0.15 -->
      <g transform="translate(343.354375 214.479219)scale(0.1 -0.1)">
       <use xlink:href="#DejaVuSans-48"/>
       <use x="63.623047" xlink:href="#DejaVuSans-46"/>
       <use x="95.410156" xlink:href="#DejaVuSans-49"/>
       <use x="159.033203" xlink:href="#DejaVuSans-53"/>
      </g>
     </g>
    </g>
    <g id="ytick_12">
     <g id="line2d_55">
      <path clip-path="url(#peb5f63d51b)" d="M 372.62 185.422857
L 627.75 185.422857
" style="fill:none;stroke:#b0b0b0;stroke-linecap:square;stroke-width:0.8;"/>
     </g>
     <g id="line2d_56">
      <g>
       <use style="stroke:#000000;stroke-width:0.8;" x="372.62" xlink:href="#ma176cc9801" y="185.422857"/>
      </g>
     </g>
     <g id="text_30">
      <!-- 0.20 -->
      <g transform="translate(343.354375 189.222076)scale(0.1 -0.1)">
       <use xlink:href="#DejaVuSans-48"/>
       <use x="63.623047" xlink:href="#DejaVuSans-46"/>
       <use x="95.410156" xlink:href="#DejaVuSans-50"/>
       <use x="159.033203" xlink:href="#DejaVuSans-48"/>
      </g>
     </g>
    </g>
    <g id="ytick_13">
     <g id="line2d_57">
      <path clip-path="url(#peb5f63d51b)" d="M 372.62 160.165714
L 627.75 160.165714
" style="fill:none;stroke:#b0b0b0;stroke-linecap:square;stroke-width:0.8;"/>
     </g>
     <g id="line2d_58">
      <g>
       <use style="stroke:#000000;stroke-width:0.8;" x="372.62" xlink:href="#ma176cc9801" y="160.165714"/>
      </g>
     </g>
     <g id="text_31">
      <!-- 0.25 -->
      <g transform="translate(343.354375 163.964933)scale(0.1 -0.1)">
       <use xlink:href="#DejaVuSans-48"/>
       <use x="63.623047" xlink:href="#DejaVuSans-46"/>
       <use x="95.410156" xlink:href="#DejaVuSans-50"/>
       <use x="159.033203" xlink:href="#DejaVuSans-53"/>
      </g>
     </g>
    </g>
    <g id="ytick_14">
     <g id="line2d_59">
      <path clip-path="url(#peb5f63d51b)" d="M 372.62 134.908571
L 627.75 134.908571
" style="fill:none;stroke:#b0b0b0;stroke-linecap:square;stroke-width:0.8;"/>
     </g>
     <g id="line2d_60">
      <g>
       <use style="stroke:#000000;stroke-width:0.8;" x="372.62" xlink:href="#ma176cc9801" y="134.908571"/>
      </g>
     </g>
     <g id="text_32">
      <!-- 0.30 -->
      <g transform="translate(343.354375 138.70779)scale(0.1 -0.1)">
       <use xlink:href="#DejaVuSans-48"/>
       <use x="63.623047" xlink:href="#DejaVuSans-46"/>
       <use x="95.410156" xlink:href="#DejaVuSans-51"/>
       <use x="159.033203" xlink:href="#DejaVuSans-48"/>
      </g>
     </g>
    </g>
    <g id="ytick_15">
     <g id="line2d_61">
      <path clip-path="url(#peb5f63d51b)" d="M 372.62 109.651429
L 627.75 109.651429
" style="fill:none;stroke:#b0b0b0;stroke-linecap:square;stroke-width:0.8;"/>
     </g>
     <g id="line2d_62">
      <g>
       <use style="stroke:#000000;stroke-width:0.8;" x="372.62" xlink:href="#ma176cc9801" y="109.651429"/>
      </g>
     </g>
     <g id="text_33">
      <!-- 0.35 -->
      <g transform="translate(343.354375 113.450647)scale(0.1 -0.1)">
       <use xlink:href="#DejaVuSans-48"/>
       <use x="63.623047" xlink:href="#DejaVuSans-46"/>
       <use x="95.410156" xlink:href="#DejaVuSans-51"/>
       <use x="159.033203" xlink:href="#DejaVuSans-53"/>
      </g>
     </g>
    </g>
    <g id="ytick_16">
     <g id="line2d_63">
      <path clip-path="url(#peb5f63d51b)" d="M 372.62 84.394286
L 627.75 84.394286
" style="fill:none;stroke:#b0b0b0;stroke-linecap:square;stroke-width:0.8;"/>
     </g>
     <g id="line2d_64">
      <g>
       <use style="stroke:#000000;stroke-width:0.8;" x="372.62" xlink:href="#ma176cc9801" y="84.394286"/>
      </g>
     </g>
     <g id="text_34">
      <!-- 0.40 -->
      <g transform="translate(343.354375 88.193504)scale(0.1 -0.1)">
       <use xlink:href="#DejaVuSans-48"/>
       <use x="63.623047" xlink:href="#DejaVuSans-46"/>
       <use x="95.410156" xlink:href="#DejaVuSans-52"/>
       <use x="159.033203" xlink:href="#DejaVuSans-48"/>
      </g>
     </g>
    </g>
    <g id="ytick_17">
     <g id="line2d_65">
      <path clip-path="url(#peb5f63d51b)" d="M 372.62 59.137143
L 627.75 59.137143
" style="fill:none;stroke:#b0b0b0;stroke-linecap:square;stroke-width:0.8;"/>
     </g>
     <g id="line2d_66">
      <g>
       <use style="stroke:#000000;stroke-width:0.8;" x="372.62" xlink:href="#ma176cc9801" y="59.137143"/>
      </g>
     </g>
     <g id="text_35">
      <!-- 0.45 -->
      <g transform="translate(343.354375 62.936362)scale(0.1 -0.1)">
       <use xlink:href="#DejaVuSans-48"/>
       <use x="63.623047" xlink:href="#DejaVuSans-46"/>
       <use x="95.410156" xlink:href="#DejaVuSans-52"/>
       <use x="159.033203" xlink:href="#DejaVuSans-53"/>
      </g>
     </g>
    </g>
    <g id="ytick_18">
     <g id="line2d_67">
      <path clip-path="url(#peb5f63d51b)" d="M 372.62 33.88
L 627.75 33.88
" style="fill:none;stroke:#b0b0b0;stroke-linecap:square;stroke-width:0.8;"/>
     </g>
     <g id="line2d_68">
      <g>
       <use style="stroke:#000000;stroke-width:0.8;" x="372.62" xlink:href="#ma176cc9801" y="33.88"/>
      </g>
     </g>
     <g id="text_36">
      <!-- 0.50 -->
      <g transform="translate(343.354375 37.679219)scale(0.1 -0.1)">
       <use xlink:href="#DejaVuSans-48"/>
       <use x="63.623047" xlink:href="#DejaVuSans-46"/>
       <use x="95.410156" xlink:href="#DejaVuSans-53"/>
       <use x="159.033203" xlink:href="#DejaVuSans-48"/>
      </g>
     </g>
    </g>
    <g id="text_37">
     <!-- Proportion of task selection -->
     <g transform="translate(337.274688 208.538125)rotate(-90)scale(0.1 -0.1)">
      <use xlink:href="#DejaVuSans-80"/>
      <use x="60.287109" xlink:href="#DejaVuSans-114"/>
      <use x="101.369141" xlink:href="#DejaVuSans-111"/>
      <use x="162.550781" xlink:href="#DejaVuSans-112"/>
      <use x="226.027344" xlink:href="#DejaVuSans-111"/>
      <use x="287.208984" xlink:href="#DejaVuSans-114"/>
      <use x="328.322266" xlink:href="#DejaVuSans-116"/>
      <use x="367.53125" xlink:href="#DejaVuSans-105"/>
      <use x="395.314453" xlink:href="#DejaVuSans-111"/>
      <use x="456.496094" xlink:href="#DejaVuSans-110"/>
      <use x="519.875" xlink:href="#DejaVuSans-32"/>
      <use x="551.662109" xlink:href="#DejaVuSans-111"/>
      <use x="612.84375" xlink:href="#DejaVuSans-102"/>
      <use x="648.048828" xlink:href="#DejaVuSans-32"/>
      <use x="679.835938" xlink:href="#DejaVuSans-116"/>
      <use x="719.044922" xlink:href="#DejaVuSans-97"/>
      <use x="780.324219" xlink:href="#DejaVuSans-115"/>
      <use x="832.423828" xlink:href="#DejaVuSans-107"/>
      <use x="890.333984" xlink:href="#DejaVuSans-32"/>
      <use x="922.121094" xlink:href="#DejaVuSans-115"/>
      <use x="974.220703" xlink:href="#DejaVuSans-101"/>
      <use x="1035.744141" xlink:href="#DejaVuSans-108"/>
      <use x="1063.527344" xlink:href="#DejaVuSans-101"/>
      <use x="1125.050781" xlink:href="#DejaVuSans-99"/>
      <use x="1180.03125" xlink:href="#DejaVuSans-116"/>
      <use x="1219.240234" xlink:href="#DejaVuSans-105"/>
      <use x="1247.023438" xlink:href="#DejaVuSans-111"/>
      <use x="1308.205078" xlink:href="#DejaVuSans-110"/>
     </g>
    </g>
   </g>
   <g id="line2d_69">
    <path clip-path="url(#peb5f63d51b)" d="M 371.595382 151.555325
L 372.62 151.555325
L 373.644618 154.425455
L 374.669237 154.425455
L 375.693855 157.295584
L 377.743092 168.776104
L 378.767711 171.646234
L 379.792329 180.256623
L 380.816948 177.386494
L 381.841566 185.996883
L 382.866185 191.737143
L 383.890803 194.607273
L 384.915422 191.737143
L 385.94004 191.737143
L 386.964659 197.477403
L 389.013896 197.477403
L 391.063133 191.737143
L 392.087751 194.607273
L 393.112369 191.737143
L 394.136988 194.607273
L 395.161606 194.607273
L 396.186225 183.126753
L 397.210843 191.737143
L 398.235462 197.477403
L 399.26008 188.867013
L 400.284699 191.737143
L 402.333936 191.737143
L 403.358554 188.867013
L 405.407791 194.607273
L 406.43241 194.607273
L 407.457028 191.737143
L 408.481647 191.737143
L 409.506265 188.867013
L 411.555502 200.347532
L 413.604739 200.347532
L 414.629357 203.217662
L 415.653976 203.217662
L 416.678594 208.957922
L 417.703213 200.347532
L 418.727831 194.607273
L 419.75245 191.737143
L 420.777068 191.737143
L 421.801687 188.867013
L 422.826305 206.087792
L 423.850924 211.828052
L 424.875542 211.828052
L 425.900161 214.698182
L 428.974016 206.087792
L 431.023253 211.828052
L 432.047871 211.828052
L 433.07249 206.087792
L 434.097108 203.217662
L 435.121727 206.087792
L 436.146345 203.217662
L 437.170964 211.828052
L 438.195582 211.828052
L 440.244819 200.347532
L 441.269438 206.087792
L 442.294056 203.217662
L 443.318675 208.957922
L 444.343293 206.087792
L 445.367912 208.957922
L 446.39253 200.347532
L 447.417149 203.217662
L 448.441767 211.828052
L 449.466386 208.957922
L 450.491004 203.217662
L 451.515622 203.217662
L 452.540241 206.087792
L 453.564859 211.828052
L 454.589478 211.828052
L 459.71257 226.178701
L 462.786426 226.178701
L 463.811044 217.568312
L 464.835663 217.568312
L 466.8849 211.828052
L 467.909518 211.828052
L 470.983373 203.217662
L 472.007992 194.607273
L 473.03261 197.477403
L 474.057229 197.477403
L 476.106466 203.217662
L 477.131084 200.347532
L 478.155703 203.217662
L 479.180321 208.957922
L 480.20494 208.957922
L 481.229558 211.828052
L 482.254177 217.568312
L 483.278795 217.568312
L 484.303414 214.698182
L 485.328032 214.698182
L 487.377269 220.438442
L 488.401888 226.178701
L 489.426506 226.178701
L 490.451124 223.308571
L 491.475743 223.308571
L 492.500361 220.438442
L 493.52498 220.438442
L 494.549598 223.308571
L 495.574217 220.438442
L 496.598835 214.698182
L 497.623454 206.087792
L 501.721928 194.607273
L 504.795783 194.607273
L 505.820402 197.477403
L 506.84502 203.217662
L 507.869639 203.217662
L 508.894257 200.347532
L 509.918876 203.217662
L 510.943494 203.217662
L 511.968112 214.698182
L 512.992731 214.698182
L 514.017349 217.568312
L 515.041968 223.308571
L 516.066586 231.918961
L 517.091205 237.659221
L 518.115823 237.659221
L 519.140442 234.789091
L 521.189679 234.789091
L 522.214297 223.308571
L 525.288153 214.698182
L 526.312771 217.568312
L 527.33739 229.048831
L 528.362008 229.048831
L 529.386627 226.178701
L 531.435863 214.698182
L 532.460482 214.698182
L 533.4851 217.568312
L 534.509719 214.698182
L 535.534337 214.698182
L 537.583574 220.438442
L 538.608193 217.568312
L 539.632811 211.828052
L 540.65743 208.957922
L 541.682048 211.828052
L 543.731285 206.087792
L 544.755904 208.957922
L 545.780522 203.217662
L 547.829759 203.217662
L 548.854378 197.477403
L 549.878996 194.607273
L 550.903614 188.867013
L 553.97747 188.867013
L 555.002088 191.737143
L 556.026707 185.996883
L 557.051325 185.996883
L 558.075944 191.737143
L 559.100562 200.347532
L 560.125181 197.477403
L 567.29751 197.477403
L 569.346747 203.217662
L 571.395984 203.217662
L 572.420602 206.087792
L 573.445221 203.217662
L 574.469839 211.828052
L 575.494458 217.568312
L 576.519076 214.698182
L 577.543695 220.438442
L 578.568313 217.568312
L 579.592932 217.568312
L 580.61755 214.698182
L 581.642169 214.698182
L 582.666787 208.957922
L 586.765261 208.957922
L 587.78988 203.217662
L 588.814498 203.217662
L 590.863735 208.957922
L 591.888353 200.347532
L 592.912972 200.347532
L 593.93759 206.087792
L 595.986827 206.087792
L 599.060683 214.698182
L 600.085301 206.087792
L 602.134538 206.087792
L 603.159157 203.217662
L 604.183775 208.957922
L 606.233012 208.957922
L 607.257631 197.477403
L 610.331486 206.087792
L 611.356104 203.217662
L 612.380723 203.217662
L 613.405341 200.347532
L 614.42996 203.217662
L 615.454578 208.957922
L 619.553052 208.957922
L 620.577671 206.087792
L 621.602289 208.957922
L 622.626908 206.087792
L 623.651526 206.087792
L 624.676145 200.347532
L 625.700763 197.477403
L 626.725382 197.477403
L 626.725382 197.477403
" style="fill:none;stroke:#43799d;stroke-linecap:square;stroke-width:2;"/>
   </g>
   <g id="line2d_70">
    <path clip-path="url(#peb5f63d51b)" d="M 371.595382 191.737143
L 372.62 191.737143
L 373.644618 188.867013
L 375.693855 188.867013
L 376.718474 191.737143
L 378.767711 191.737143
L 379.792329 185.996883
L 380.816948 183.126753
L 381.841566 174.516364
L 384.915422 183.126753
L 385.94004 180.256623
L 386.964659 183.126753
L 387.989277 183.126753
L 390.038514 188.867013
L 391.063133 185.996883
L 392.087751 188.867013
L 393.112369 183.126753
L 394.136988 183.126753
L 396.186225 188.867013
L 397.210843 188.867013
L 398.235462 185.996883
L 399.26008 188.867013
L 400.284699 180.256623
L 401.309317 183.126753
L 403.358554 177.386494
L 404.383173 180.256623
L 405.407791 171.646234
L 406.43241 177.386494
L 407.457028 177.386494
L 408.481647 171.646234
L 409.506265 168.776104
L 410.530884 160.165714
L 411.555502 160.165714
L 412.58012 163.035844
L 413.604739 157.295584
L 414.629357 154.425455
L 416.678594 142.944935
L 417.703213 151.555325
L 418.727831 154.425455
L 420.777068 165.905974
L 421.801687 163.035844
L 422.826305 165.905974
L 423.850924 154.425455
L 425.900161 137.204675
L 426.924779 145.815065
L 427.949398 145.815065
L 431.023253 154.425455
L 432.047871 160.165714
L 433.07249 160.165714
L 434.097108 165.905974
L 435.121727 168.776104
L 436.146345 163.035844
L 437.170964 160.165714
L 438.195582 160.165714
L 439.220201 168.776104
L 440.244819 154.425455
L 441.269438 145.815065
L 442.294056 148.685195
L 443.318675 148.685195
L 444.343293 145.815065
L 445.367912 154.425455
L 446.39253 165.905974
L 448.441767 160.165714
L 449.466386 168.776104
L 450.491004 168.776104
L 451.515622 174.516364
L 452.540241 174.516364
L 453.564859 177.386494
L 454.589478 168.776104
L 455.614096 165.905974
L 456.638715 168.776104
L 457.663333 168.776104
L 458.687952 163.035844
L 459.71257 165.905974
L 460.737189 165.905974
L 462.786426 160.165714
L 463.811044 165.905974
L 464.835663 165.905974
L 465.860281 168.776104
L 466.8849 174.516364
L 467.909518 168.776104
L 468.934137 168.776104
L 469.958755 174.516364
L 470.983373 174.516364
L 472.007992 177.386494
L 473.03261 174.516364
L 474.057229 183.126753
L 475.081847 180.256623
L 478.155703 188.867013
L 479.180321 183.126753
L 480.20494 188.867013
L 481.229558 191.737143
L 482.254177 185.996883
L 484.303414 191.737143
L 485.328032 191.737143
L 487.377269 185.996883
L 488.401888 188.867013
L 489.426506 185.996883
L 491.475743 197.477403
L 492.500361 197.477403
L 493.52498 200.347532
L 496.598835 200.347532
L 498.648072 206.087792
L 501.721928 206.087792
L 503.771165 194.607273
L 504.795783 194.607273
L 506.84502 200.347532
L 507.869639 200.347532
L 508.894257 203.217662
L 509.918876 203.217662
L 510.943494 200.347532
L 511.968112 200.347532
L 512.992731 197.477403
L 514.017349 203.217662
L 515.041968 206.087792
L 516.066586 200.347532
L 517.091205 206.087792
L 518.115823 208.957922
L 519.140442 206.087792
L 520.16506 197.477403
L 522.214297 197.477403
L 523.238916 200.347532
L 524.263534 197.477403
L 525.288153 208.957922
L 527.33739 203.217662
L 528.362008 197.477403
L 529.386627 194.607273
L 530.411245 197.477403
L 531.435863 197.477403
L 533.4851 191.737143
L 534.509719 194.607273
L 535.534337 194.607273
L 536.558956 191.737143
L 538.608193 197.477403
L 540.65743 197.477403
L 541.682048 203.217662
L 542.706667 203.217662
L 543.731285 208.957922
L 544.755904 211.828052
L 545.780522 206.087792
L 546.805141 206.087792
L 547.829759 203.217662
L 548.854378 203.217662
L 549.878996 206.087792
L 551.928233 206.087792
L 555.002088 197.477403
L 557.051325 197.477403
L 558.075944 203.217662
L 559.100562 203.217662
L 560.125181 211.828052
L 561.149799 208.957922
L 562.174418 211.828052
L 563.199036 206.087792
L 565.248273 206.087792
L 566.272892 211.828052
L 567.29751 208.957922
L 568.322129 203.217662
L 569.346747 203.217662
L 570.371365 206.087792
L 571.395984 200.347532
L 572.420602 203.217662
L 573.445221 208.957922
L 574.469839 206.087792
L 576.519076 206.087792
L 577.543695 200.347532
L 578.568313 191.737143
L 579.592932 191.737143
L 580.61755 194.607273
L 581.642169 191.737143
L 582.666787 185.996883
L 584.716024 191.737143
L 587.78988 191.737143
L 588.814498 188.867013
L 589.839116 191.737143
L 594.962209 191.737143
L 595.986827 188.867013
L 597.011446 191.737143
L 598.036064 191.737143
L 599.060683 188.867013
L 600.085301 197.477403
L 601.10992 194.607273
L 602.134538 200.347532
L 603.159157 203.217662
L 606.233012 203.217662
L 607.257631 206.087792
L 608.282249 200.347532
L 609.306867 200.347532
L 610.331486 191.737143
L 611.356104 188.867013
L 612.380723 194.607273
L 613.405341 197.477403
L 614.42996 197.477403
L 615.454578 194.607273
L 617.503815 194.607273
L 619.553052 188.867013
L 620.577671 191.737143
L 621.602289 191.737143
L 622.626908 185.996883
L 623.651526 188.867013
L 624.676145 197.477403
L 625.700763 200.347532
L 626.725382 200.347532
L 626.725382 200.347532
" style="fill:none;stroke:#cc5b46;stroke-linecap:square;stroke-width:2;"/>
   </g>
   <g id="line2d_71">
    <path clip-path="url(#peb5f63d51b)" d="M 371.595382 168.776104
L 373.644618 168.776104
L 374.669237 171.646234
L 375.693855 168.776104
L 376.718474 163.035844
L 377.743092 160.165714
L 381.841566 160.165714
L 382.866185 151.555325
L 383.890803 145.815065
L 384.915422 142.944935
L 385.94004 145.815065
L 386.964659 140.074805
L 389.013896 140.074805
L 391.063133 145.815065
L 392.087751 142.944935
L 393.112369 151.555325
L 394.136988 151.555325
L 395.161606 145.815065
L 396.186225 154.425455
L 397.210843 157.295584
L 398.235462 157.295584
L 399.26008 163.035844
L 400.284699 165.905974
L 401.309317 160.165714
L 403.358554 165.905974
L 404.383173 163.035844
L 405.407791 171.646234
L 406.43241 171.646234
L 407.457028 180.256623
L 408.481647 180.256623
L 409.506265 174.516364
L 410.530884 174.516364
L 411.555502 168.776104
L 414.629357 160.165714
L 415.653976 165.905974
L 416.678594 163.035844
L 418.727831 168.776104
L 420.777068 157.295584
L 421.801687 163.035844
L 422.826305 151.555325
L 424.875542 157.295584
L 425.900161 163.035844
L 426.924779 160.165714
L 427.949398 151.555325
L 428.974016 145.815065
L 429.998635 145.815065
L 432.047871 134.334545
L 433.07249 140.074805
L 434.097108 134.334545
L 436.146345 140.074805
L 437.170964 131.464416
L 438.195582 128.594286
L 439.220201 119.983896
L 440.244819 134.334545
L 441.269438 140.074805
L 442.294056 140.074805
L 443.318675 142.944935
L 444.343293 148.685195
L 445.367912 140.074805
L 446.39253 137.204675
L 447.417149 140.074805
L 448.441767 134.334545
L 449.466386 131.464416
L 450.491004 140.074805
L 451.515622 142.944935
L 452.540241 142.944935
L 453.564859 137.204675
L 454.589478 145.815065
L 456.638715 145.815065
L 457.663333 142.944935
L 458.687952 151.555325
L 459.71257 151.555325
L 460.737189 154.425455
L 461.761807 160.165714
L 465.860281 160.165714
L 466.8849 151.555325
L 467.909518 160.165714
L 469.958755 171.646234
L 470.983373 171.646234
L 472.007992 180.256623
L 473.03261 183.126753
L 476.106466 174.516364
L 477.131084 174.516364
L 478.155703 168.776104
L 479.180321 168.776104
L 480.20494 165.905974
L 482.254177 171.646234
L 483.278795 165.905974
L 484.303414 171.646234
L 485.328032 174.516364
L 486.352651 171.646234
L 487.377269 177.386494
L 488.401888 165.905974
L 493.52498 151.555325
L 494.549598 154.425455
L 495.574217 151.555325
L 496.598835 163.035844
L 497.623454 165.905974
L 498.648072 163.035844
L 499.672691 165.905974
L 500.697309 165.905974
L 502.746546 177.386494
L 503.771165 174.516364
L 504.795783 177.386494
L 505.820402 177.386494
L 506.84502 168.776104
L 507.869639 168.776104
L 508.894257 163.035844
L 509.918876 168.776104
L 510.943494 171.646234
L 512.992731 165.905974
L 514.017349 160.165714
L 516.066586 154.425455
L 517.091205 145.815065
L 518.115823 145.815065
L 519.140442 151.555325
L 520.16506 160.165714
L 522.214297 165.905974
L 523.238916 154.425455
L 524.263534 157.295584
L 525.288153 142.944935
L 526.312771 151.555325
L 527.33739 140.074805
L 528.362008 140.074805
L 529.386627 142.944935
L 530.411245 140.074805
L 531.435863 142.944935
L 532.460482 142.944935
L 533.4851 140.074805
L 535.534337 140.074805
L 536.558956 134.334545
L 538.608193 134.334545
L 539.632811 137.204675
L 540.65743 137.204675
L 541.682048 134.334545
L 542.706667 137.204675
L 544.755904 131.464416
L 545.780522 140.074805
L 546.805141 137.204675
L 547.829759 140.074805
L 548.854378 145.815065
L 549.878996 148.685195
L 550.903614 160.165714
L 555.002088 160.165714
L 557.051325 165.905974
L 558.075944 165.905974
L 559.100562 163.035844
L 560.125181 168.776104
L 561.149799 160.165714
L 562.174418 168.776104
L 563.199036 168.776104
L 564.223655 171.646234
L 566.272892 160.165714
L 567.29751 160.165714
L 568.322129 163.035844
L 570.371365 157.295584
L 573.445221 165.905974
L 574.469839 165.905974
L 575.494458 157.295584
L 576.519076 163.035844
L 577.543695 157.295584
L 578.568313 165.905974
L 579.592932 163.035844
L 580.61755 163.035844
L 581.642169 165.905974
L 582.666787 177.386494
L 583.691406 180.256623
L 584.716024 180.256623
L 588.814498 168.776104
L 589.839116 168.776104
L 590.863735 165.905974
L 591.888353 171.646234
L 592.912972 171.646234
L 593.93759 160.165714
L 594.962209 157.295584
L 595.986827 160.165714
L 597.011446 151.555325
L 598.036064 148.685195
L 600.085301 148.685195
L 601.10992 154.425455
L 602.134538 157.295584
L 603.159157 157.295584
L 604.183775 165.905974
L 605.208394 160.165714
L 606.233012 160.165714
L 607.257631 174.516364
L 608.282249 174.516364
L 609.306867 180.256623
L 610.331486 183.126753
L 611.356104 180.256623
L 613.405341 180.256623
L 614.42996 177.386494
L 615.454578 171.646234
L 616.479197 171.646234
L 617.503815 180.256623
L 619.553052 180.256623
L 620.577671 177.386494
L 621.602289 177.386494
L 622.626908 180.256623
L 626.725382 180.256623
L 626.725382 180.256623
" style="fill:none;stroke:#ffbb00;stroke-linecap:square;stroke-width:2;"/>
   </g>
   <g id="line2d_72">
    <path clip-path="url(#peb5f63d51b)" d="M 371.595382 128.594286
L 373.644618 128.594286
L 374.669237 125.724156
L 375.693855 125.724156
L 379.792329 114.243636
L 380.816948 119.983896
L 383.890803 119.983896
L 384.915422 122.854026
L 385.94004 122.854026
L 386.964659 119.983896
L 387.989277 119.983896
L 390.038514 114.243636
L 391.063133 117.113766
L 392.087751 114.243636
L 393.112369 114.243636
L 394.136988 111.373506
L 395.161606 114.243636
L 396.186225 114.243636
L 397.210843 102.763117
L 398.235462 99.892987
L 399.26008 99.892987
L 401.309317 105.633247
L 402.333936 105.633247
L 403.358554 108.503377
L 405.407791 102.763117
L 407.457028 91.282597
L 408.481647 97.022857
L 409.506265 108.503377
L 410.530884 111.373506
L 412.58012 111.373506
L 413.604739 119.983896
L 414.629357 122.854026
L 415.653976 122.854026
L 416.678594 125.724156
L 417.703213 122.854026
L 418.727831 122.854026
L 419.75245 125.724156
L 421.801687 125.724156
L 422.826305 117.113766
L 423.850924 119.983896
L 424.875542 125.724156
L 425.900161 125.724156
L 426.924779 122.854026
L 427.949398 134.334545
L 428.974016 140.074805
L 429.998635 134.334545
L 433.07249 134.334545
L 434.097108 137.204675
L 435.121727 128.594286
L 436.146345 134.334545
L 438.195582 140.074805
L 440.244819 151.555325
L 441.269438 148.685195
L 442.294056 148.685195
L 443.318675 140.074805
L 444.343293 140.074805
L 445.367912 137.204675
L 446.39253 137.204675
L 447.417149 134.334545
L 448.441767 134.334545
L 450.491004 128.594286
L 451.515622 119.983896
L 453.564859 114.243636
L 455.614096 114.243636
L 456.638715 108.503377
L 457.663333 108.503377
L 459.71257 97.022857
L 461.761807 91.282597
L 463.811044 97.022857
L 465.860281 97.022857
L 466.8849 102.763117
L 468.934137 97.022857
L 469.958755 88.412468
L 470.983373 91.282597
L 473.03261 85.542338
L 474.057229 79.802078
L 475.081847 82.672208
L 476.106466 79.802078
L 479.180321 79.802078
L 480.20494 76.931948
L 481.229558 68.321558
L 482.254177 65.451429
L 483.278795 68.321558
L 484.303414 62.581299
L 485.328032 59.711169
L 486.352651 62.581299
L 487.377269 56.841039
L 488.401888 59.711169
L 489.426506 65.451429
L 490.451124 65.451429
L 491.475743 62.581299
L 492.500361 68.321558
L 493.52498 68.321558
L 494.549598 62.581299
L 495.574217 68.321558
L 496.598835 62.581299
L 498.648072 68.321558
L 499.672691 68.321558
L 500.697309 71.191688
L 501.721928 68.321558
L 502.746546 68.321558
L 503.771165 76.931948
L 504.795783 74.061818
L 505.820402 68.321558
L 507.869639 68.321558
L 508.894257 74.061818
L 509.918876 65.451429
L 510.943494 65.451429
L 511.968112 56.841039
L 512.992731 62.581299
L 514.017349 59.711169
L 515.041968 53.970909
L 516.066586 53.970909
L 518.115823 48.230649
L 520.16506 48.230649
L 521.189679 45.360519
L 522.214297 53.970909
L 523.238916 65.451429
L 524.263534 68.321558
L 525.288153 74.061818
L 526.312771 65.451429
L 527.33739 68.321558
L 528.362008 74.061818
L 529.386627 76.931948
L 530.411245 82.672208
L 533.4851 91.282597
L 535.534337 91.282597
L 536.558956 97.022857
L 537.583574 91.282597
L 538.608193 91.282597
L 540.65743 97.022857
L 541.682048 91.282597
L 543.731285 91.282597
L 544.755904 88.412468
L 546.805141 94.152727
L 548.854378 94.152727
L 549.878996 91.282597
L 550.903614 85.542338
L 551.928233 85.542338
L 553.97747 91.282597
L 555.002088 91.282597
L 556.026707 94.152727
L 557.051325 91.282597
L 558.075944 79.802078
L 559.100562 74.061818
L 560.125181 62.581299
L 561.149799 74.061818
L 562.174418 62.581299
L 563.199036 68.321558
L 564.223655 65.451429
L 565.248273 71.191688
L 566.272892 71.191688
L 567.29751 74.061818
L 570.371365 74.061818
L 571.395984 76.931948
L 572.420602 68.321558
L 574.469839 56.841039
L 575.494458 59.711169
L 576.519076 56.841039
L 577.543695 62.581299
L 579.592932 68.321558
L 582.666787 68.321558
L 583.691406 62.581299
L 584.716024 59.711169
L 586.765261 65.451429
L 587.78988 74.061818
L 588.814498 79.802078
L 589.839116 74.061818
L 590.863735 74.061818
L 591.888353 76.931948
L 592.912972 76.931948
L 593.93759 82.672208
L 594.962209 85.542338
L 595.986827 85.542338
L 597.011446 88.412468
L 600.085301 88.412468
L 601.10992 85.542338
L 602.134538 76.931948
L 603.159157 76.931948
L 604.183775 62.581299
L 605.208394 68.321558
L 606.233012 68.321558
L 607.257631 62.581299
L 608.282249 65.451429
L 609.306867 56.841039
L 610.331486 59.711169
L 611.356104 68.321558
L 612.380723 62.581299
L 614.42996 62.581299
L 615.454578 65.451429
L 616.479197 65.451429
L 617.503815 56.841039
L 620.577671 65.451429
L 621.602289 62.581299
L 622.626908 68.321558
L 624.676145 62.581299
L 626.725382 62.581299
L 626.725382 62.581299
" style="fill:none;stroke:#71bc78;stroke-linecap:square;stroke-width:2;"/>
   </g>
   <g id="patch_7">
    <path d="M 372.62 246.04
L 372.62 33.88
" style="fill:none;stroke:#000000;stroke-linecap:square;stroke-linejoin:miter;stroke-width:0.8;"/>
   </g>
   <g id="patch_8">
    <path d="M 372.62 246.04
L 627.75 246.04
" style="fill:none;stroke:#000000;stroke-linecap:square;stroke-linejoin:miter;stroke-width:0.8;"/>
   </g>
   <g id="text_38">
    <!-- Strategic -->
    <defs>
     <path d="M 53.515625 70.515625
L 53.515625 60.890625
Q 47.90625 63.578125 42.921875 64.890625
Q 37.9375 66.21875 33.296875 66.21875
Q 25.25 66.21875 20.875 63.09375
Q 16.5 59.96875 16.5 54.203125
Q 16.5 49.359375 19.40625 46.890625
Q 22.3125 44.4375 30.421875 42.921875
L 36.375 41.703125
Q 47.40625 39.59375 52.65625 34.296875
Q 57.90625 29 57.90625 20.125
Q 57.90625 9.515625 50.796875 4.046875
Q 43.703125 -1.421875 29.984375 -1.421875
Q 24.8125 -1.421875 18.96875 -0.25
Q 13.140625 0.921875 6.890625 3.21875
L 6.890625 13.375
Q 12.890625 10.015625 18.65625 8.296875
Q 24.421875 6.59375 29.984375 6.59375
Q 38.421875 6.59375 43.015625 9.90625
Q 47.609375 13.234375 47.609375 19.390625
Q 47.609375 24.75 44.3125 27.78125
Q 41.015625 30.8125 33.5 32.328125
L 27.484375 33.5
Q 16.453125 35.6875 11.515625 40.375
Q 6.59375 45.0625 6.59375 53.421875
Q 6.59375 63.09375 13.40625 68.65625
Q 20.21875 74.21875 32.171875 74.21875
Q 37.3125 74.21875 42.625 73.28125
Q 47.953125 72.359375 53.515625 70.515625
z
" id="DejaVuSans-83"/>
     <path d="M 45.40625 27.984375
Q 45.40625 37.75 41.375 43.109375
Q 37.359375 48.484375 30.078125 48.484375
Q 22.859375 48.484375 18.828125 43.109375
Q 14.796875 37.75 14.796875 27.984375
Q 14.796875 18.265625 18.828125 12.890625
Q 22.859375 7.515625 30.078125 7.515625
Q 37.359375 7.515625 41.375 12.890625
Q 45.40625 18.265625 45.40625 27.984375
z
M 54.390625 6.78125
Q 54.390625 -7.171875 48.1875 -13.984375
Q 42 -20.796875 29.203125 -20.796875
Q 24.46875 -20.796875 20.265625 -20.09375
Q 16.0625 -19.390625 12.109375 -17.921875
L 12.109375 -9.1875
Q 16.0625 -11.328125 19.921875 -12.34375
Q 23.78125 -13.375 27.78125 -13.375
Q 36.625 -13.375 41.015625 -8.765625
Q 45.40625 -4.15625 45.40625 5.171875
L 45.40625 9.625
Q 42.625 4.78125 38.28125 2.390625
Q 33.9375 0 27.875 0
Q 17.828125 0 11.671875 7.65625
Q 5.515625 15.328125 5.515625 27.984375
Q 5.515625 40.671875 11.671875 48.328125
Q 17.828125 56 27.875 56
Q 33.9375 56 38.28125 53.609375
Q 42.625 51.21875 45.40625 46.390625
L 45.40625 54.6875
L 54.390625 54.6875
z
" id="DejaVuSans-103"/>
    </defs>
    <g transform="translate(385.3765 53.606125)scale(0.12 -0.12)">
     <use xlink:href="#DejaVuSans-83"/>
     <use x="63.476562" xlink:href="#DejaVuSans-116"/>
     <use x="102.685547" xlink:href="#DejaVuSans-114"/>
     <use x="143.798828" xlink:href="#DejaVuSans-97"/>
     <use x="205.078125" xlink:href="#DejaVuSans-116"/>
     <use x="244.287109" xlink:href="#DejaVuSans-101"/>
     <use x="305.810547" xlink:href="#DejaVuSans-103"/>
     <use x="369.287109" xlink:href="#DejaVuSans-105"/>
     <use x="397.070312" xlink:href="#DejaVuSans-99"/>
    </g>
   </g>
   <g id="legend_2">
    <g id="patch_9">
     <path d="M 379.62 28.88
L 620.75 28.88
Q 622.75 28.88 622.75 26.88
L 622.75 13.201875
Q 622.75 11.201875 620.75 11.201875
L 379.62 11.201875
Q 377.62 11.201875 377.62 13.201875
L 377.62 26.88
Q 377.62 28.88 379.62 28.88
z
" style="fill:#ffffff;opacity:0.8;stroke:#cccccc;stroke-linejoin:miter;"/>
    </g>
    <g id="line2d_73">
     <path d="M 381.62 19.300313
L 401.62 19.300313
" style="fill:none;stroke:#43799d;stroke-linecap:square;stroke-width:2;"/>
    </g>
    <g id="line2d_74"/>
    <g id="text_39">
     <!-- 1D -->
     <g transform="translate(409.62 22.800313)scale(0.1 -0.1)">
      <use xlink:href="#DejaVuSans-49"/>
      <use x="63.623047" xlink:href="#DejaVuSans-68"/>
     </g>
    </g>
    <g id="line2d_75">
     <path d="M 448.030521 19.300313
L 468.030521 19.300313
" style="fill:none;stroke:#cc5b46;stroke-linecap:square;stroke-width:2;"/>
    </g>
    <g id="line2d_76"/>
    <g id="text_40">
     <!-- I1D -->
     <g transform="translate(476.030521 22.800313)scale(0.1 -0.1)">
      <use xlink:href="#DejaVuSans-73"/>
      <use x="29.492188" xlink:href="#DejaVuSans-49"/>
      <use x="93.115234" xlink:href="#DejaVuSans-68"/>
     </g>
    </g>
    <g id="line2d_77">
     <path d="M 517.391042 19.300313
L 537.391042 19.300313
" style="fill:none;stroke:#ffbb00;stroke-linecap:square;stroke-width:2;"/>
    </g>
    <g id="line2d_78"/>
    <g id="text_41">
     <!-- 2D -->
     <g transform="translate(545.391042 22.800313)scale(0.1 -0.1)">
      <use xlink:href="#DejaVuSans-50"/>
      <use x="63.623047" xlink:href="#DejaVuSans-68"/>
     </g>
    </g>
    <g id="line2d_79">
     <path d="M 583.801563 19.300313
L 603.801563 19.300313
" style="fill:none;stroke:#71bc78;stroke-linecap:square;stroke-width:2;"/>
    </g>
    <g id="line2d_80"/>
    <g id="text_42">
     <!-- R -->
     <g transform="translate(611.801563 22.800313)scale(0.1 -0.1)">
      <use xlink:href="#DejaVuSans-82"/>
     </g>
    </g>
   </g>
  </g>
 </g>
 <defs>
  <clipPath id="p4c9ee5e260">
   <rect height="212.16" width="255.13" x="54.02" y="33.88"/>
  </clipPath>
  <clipPath id="peb5f63d51b">
   <rect height="212.16" width="255.13" x="372.62" y="33.88"/>
  </clipPath>
 </defs>
</svg>
