<?xml version="1.0" encoding="utf-8" standalone="no"?>
<!DOCTYPE svg PUBLIC "-//W3C//DTD SVG 1.1//EN"
  "http://www.w3.org/Graphics/SVG/1.1/DTD/svg11.dtd">
<!-- Created with matplotlib (https://matplotlib.org/) -->
<svg height="288pt" version="1.1" viewBox="0 0 504 288" width="504pt" xmlns="http://www.w3.org/2000/svg" xmlns:xlink="http://www.w3.org/1999/xlink">
 <defs>
  <style type="text/css">
*{stroke-linecap:butt;stroke-linejoin:round;}
  </style>
 </defs>
 <g id="figure_1">
  <g id="patch_1">
   <path d="M 0 288
L 504 288
L 504 0
L 0 0
z
" style="fill:#ffffff;"/>
  </g>
  <g id="axes_1">
   <g id="patch_2">
    <path d="M 54.02 246.04
L 483.75 246.04
L 483.75 14.76
L 54.02 14.76
z
" style="fill:#ffffff;"/>
   </g>
   <g id="matplotlib.axis_1">
    <g id="xtick_1">
     <g id="line2d_1">
      <path clip-path="url(#p95a7e94fcf)" d="M 54.02 246.04
L 54.02 14.76
" style="fill:none;stroke:#808080;stroke-dasharray:0.8,1.32;stroke-dashoffset:0;stroke-width:0.8;"/>
     </g>
     <g id="line2d_2">
      <defs>
       <path d="M 0 0
L 0 3.5
" id="m351574fab1" style="stroke:#000000;stroke-width:0.8;"/>
      </defs>
      <g>
       <use style="stroke:#000000;stroke-width:0.8;" x="54.02" xlink:href="#m351574fab1" y="246.04"/>
      </g>
     </g>
     <g id="text_1">
      <!-- 0 -->
      <defs>
       <path d="M 31.78125 66.40625
Q 24.171875 66.40625 20.328125 58.90625
Q 16.5 51.421875 16.5 36.375
Q 16.5 21.390625 20.328125 13.890625
Q 24.171875 6.390625 31.78125 6.390625
Q 39.453125 6.390625 43.28125 13.890625
Q 47.125 21.390625 47.125 36.375
Q 47.125 51.421875 43.28125 58.90625
Q 39.453125 66.40625 31.78125 66.40625
z
M 31.78125 74.21875
Q 44.046875 74.21875 50.515625 64.515625
Q 56.984375 54.828125 56.984375 36.375
Q 56.984375 17.96875 50.515625 8.265625
Q 44.046875 -1.421875 31.78125 -1.421875
Q 19.53125 -1.421875 13.0625 8.265625
Q 6.59375 17.96875 6.59375 36.375
Q 6.59375 54.828125 13.0625 64.515625
Q 19.53125 74.21875 31.78125 74.21875
z
" id="DejaVuSans-48"/>
      </defs>
      <g transform="translate(50.83875 260.638438)scale(0.1 -0.1)">
       <use xlink:href="#DejaVuSans-48"/>
      </g>
     </g>
    </g>
    <g id="xtick_2">
     <g id="line2d_3">
      <path clip-path="url(#p95a7e94fcf)" d="M 139.966 246.04
L 139.966 14.76
" style="fill:none;stroke:#808080;stroke-dasharray:0.8,1.32;stroke-dashoffset:0;stroke-width:0.8;"/>
     </g>
     <g id="line2d_4">
      <g>
       <use style="stroke:#000000;stroke-width:0.8;" x="139.966" xlink:href="#m351574fab1" y="246.04"/>
      </g>
     </g>
     <g id="text_2">
      <!-- 50 -->
      <defs>
       <path d="M 10.796875 72.90625
L 49.515625 72.90625
L 49.515625 64.59375
L 19.828125 64.59375
L 19.828125 46.734375
Q 21.96875 47.46875 24.109375 47.828125
Q 26.265625 48.1875 28.421875 48.1875
Q 40.625 48.1875 47.75 41.5
Q 54.890625 34.8125 54.890625 23.390625
Q 54.890625 11.625 47.5625 5.09375
Q 40.234375 -1.421875 26.90625 -1.421875
Q 22.3125 -1.421875 17.546875 -0.640625
Q 12.796875 0.140625 7.71875 1.703125
L 7.71875 11.625
Q 12.109375 9.234375 16.796875 8.0625
Q 21.484375 6.890625 26.703125 6.890625
Q 35.15625 6.890625 40.078125 11.328125
Q 45.015625 15.765625 45.015625 23.390625
Q 45.015625 31 40.078125 35.4375
Q 35.15625 39.890625 26.703125 39.890625
Q 22.75 39.890625 18.8125 39.015625
Q 14.890625 38.140625 10.796875 36.28125
z
" id="DejaVuSans-53"/>
      </defs>
      <g transform="translate(133.6035 260.638438)scale(0.1 -0.1)">
       <use xlink:href="#DejaVuSans-53"/>
       <use x="63.623047" xlink:href="#DejaVuSans-48"/>
      </g>
     </g>
    </g>
    <g id="xtick_3">
     <g id="line2d_5">
      <path clip-path="url(#p95a7e94fcf)" d="M 225.912 246.04
L 225.912 14.76
" style="fill:none;stroke:#808080;stroke-dasharray:0.8,1.32;stroke-dashoffset:0;stroke-width:0.8;"/>
     </g>
     <g id="line2d_6">
      <g>
       <use style="stroke:#000000;stroke-width:0.8;" x="225.912" xlink:href="#m351574fab1" y="246.04"/>
      </g>
     </g>
     <g id="text_3">
      <!-- 100 -->
      <defs>
       <path d="M 12.40625 8.296875
L 28.515625 8.296875
L 28.515625 63.921875
L 10.984375 60.40625
L 10.984375 69.390625
L 28.421875 72.90625
L 38.28125 72.90625
L 38.28125 8.296875
L 54.390625 8.296875
L 54.390625 0
L 12.40625 0
z
" id="DejaVuSans-49"/>
      </defs>
      <g transform="translate(216.36825 260.638438)scale(0.1 -0.1)">
       <use xlink:href="#DejaVuSans-49"/>
       <use x="63.623047" xlink:href="#DejaVuSans-48"/>
       <use x="127.246094" xlink:href="#DejaVuSans-48"/>
      </g>
     </g>
    </g>
    <g id="xtick_4">
     <g id="line2d_7">
      <path clip-path="url(#p95a7e94fcf)" d="M 311.858 246.04
L 311.858 14.76
" style="fill:none;stroke:#808080;stroke-dasharray:0.8,1.32;stroke-dashoffset:0;stroke-width:0.8;"/>
     </g>
     <g id="line2d_8">
      <g>
       <use style="stroke:#000000;stroke-width:0.8;" x="311.858" xlink:href="#m351574fab1" y="246.04"/>
      </g>
     </g>
     <g id="text_4">
      <!-- 150 -->
      <g transform="translate(302.31425 260.638438)scale(0.1 -0.1)">
       <use xlink:href="#DejaVuSans-49"/>
       <use x="63.623047" xlink:href="#DejaVuSans-53"/>
       <use x="127.246094" xlink:href="#DejaVuSans-48"/>
      </g>
     </g>
    </g>
    <g id="xtick_5">
     <g id="line2d_9">
      <path clip-path="url(#p95a7e94fcf)" d="M 397.804 246.04
L 397.804 14.76
" style="fill:none;stroke:#808080;stroke-dasharray:0.8,1.32;stroke-dashoffset:0;stroke-width:0.8;"/>
     </g>
     <g id="line2d_10">
      <g>
       <use style="stroke:#000000;stroke-width:0.8;" x="397.804" xlink:href="#m351574fab1" y="246.04"/>
      </g>
     </g>
     <g id="text_5">
      <!-- 200 -->
      <defs>
       <path d="M 19.1875 8.296875
L 53.609375 8.296875
L 53.609375 0
L 7.328125 0
L 7.328125 8.296875
Q 12.9375 14.109375 22.625 23.890625
Q 32.328125 33.6875 34.8125 36.53125
Q 39.546875 41.84375 41.421875 45.53125
Q 43.3125 49.21875 43.3125 52.78125
Q 43.3125 58.59375 39.234375 62.25
Q 35.15625 65.921875 28.609375 65.921875
Q 23.96875 65.921875 18.8125 64.3125
Q 13.671875 62.703125 7.8125 59.421875
L 7.8125 69.390625
Q 13.765625 71.78125 18.9375 73
Q 24.125 74.21875 28.421875 74.21875
Q 39.75 74.21875 46.484375 68.546875
Q 53.21875 62.890625 53.21875 53.421875
Q 53.21875 48.921875 51.53125 44.890625
Q 49.859375 40.875 45.40625 35.40625
Q 44.1875 33.984375 37.640625 27.21875
Q 31.109375 20.453125 19.1875 8.296875
z
" id="DejaVuSans-50"/>
      </defs>
      <g transform="translate(388.26025 260.638438)scale(0.1 -0.1)">
       <use xlink:href="#DejaVuSans-50"/>
       <use x="63.623047" xlink:href="#DejaVuSans-48"/>
       <use x="127.246094" xlink:href="#DejaVuSans-48"/>
      </g>
     </g>
    </g>
    <g id="xtick_6">
     <g id="line2d_11">
      <path clip-path="url(#p95a7e94fcf)" d="M 483.75 246.04
L 483.75 14.76
" style="fill:none;stroke:#808080;stroke-dasharray:0.8,1.32;stroke-dashoffset:0;stroke-width:0.8;"/>
     </g>
     <g id="line2d_12">
      <g>
       <use style="stroke:#000000;stroke-width:0.8;" x="483.75" xlink:href="#m351574fab1" y="246.04"/>
      </g>
     </g>
     <g id="text_6">
      <!-- 250 -->
      <g transform="translate(474.20625 260.638438)scale(0.1 -0.1)">
       <use xlink:href="#DejaVuSans-50"/>
       <use x="63.623047" xlink:href="#DejaVuSans-53"/>
       <use x="127.246094" xlink:href="#DejaVuSans-48"/>
      </g>
     </g>
    </g>
    <g id="text_7">
     <!-- Trial number -->
     <defs>
      <path d="M -0.296875 72.90625
L 61.375 72.90625
L 61.375 64.59375
L 35.5 64.59375
L 35.5 0
L 25.59375 0
L 25.59375 64.59375
L -0.296875 64.59375
z
" id="DejaVuSans-84"/>
      <path d="M 41.109375 46.296875
Q 39.59375 47.171875 37.8125 47.578125
Q 36.03125 48 33.890625 48
Q 26.265625 48 22.1875 43.046875
Q 18.109375 38.09375 18.109375 28.8125
L 18.109375 0
L 9.078125 0
L 9.078125 54.6875
L 18.109375 54.6875
L 18.109375 46.1875
Q 20.953125 51.171875 25.484375 53.578125
Q 30.03125 56 36.53125 56
Q 37.453125 56 38.578125 55.875
Q 39.703125 55.765625 41.0625 55.515625
z
" id="DejaVuSans-114"/>
      <path d="M 9.421875 54.6875
L 18.40625 54.6875
L 18.40625 0
L 9.421875 0
z
M 9.421875 75.984375
L 18.40625 75.984375
L 18.40625 64.59375
L 9.421875 64.59375
z
" id="DejaVuSans-105"/>
      <path d="M 34.28125 27.484375
Q 23.390625 27.484375 19.1875 25
Q 14.984375 22.515625 14.984375 16.5
Q 14.984375 11.71875 18.140625 8.90625
Q 21.296875 6.109375 26.703125 6.109375
Q 34.1875 6.109375 38.703125 11.40625
Q 43.21875 16.703125 43.21875 25.484375
L 43.21875 27.484375
z
M 52.203125 31.203125
L 52.203125 0
L 43.21875 0
L 43.21875 8.296875
Q 40.140625 3.328125 35.546875 0.953125
Q 30.953125 -1.421875 24.3125 -1.421875
Q 15.921875 -1.421875 10.953125 3.296875
Q 6 8.015625 6 15.921875
Q 6 25.140625 12.171875 29.828125
Q 18.359375 34.515625 30.609375 34.515625
L 43.21875 34.515625
L 43.21875 35.40625
Q 43.21875 41.609375 39.140625 45
Q 35.0625 48.390625 27.6875 48.390625
Q 23 48.390625 18.546875 47.265625
Q 14.109375 46.140625 10.015625 43.890625
L 10.015625 52.203125
Q 14.9375 54.109375 19.578125 55.046875
Q 24.21875 56 28.609375 56
Q 40.484375 56 46.34375 49.84375
Q 52.203125 43.703125 52.203125 31.203125
z
" id="DejaVuSans-97"/>
      <path d="M 9.421875 75.984375
L 18.40625 75.984375
L 18.40625 0
L 9.421875 0
z
" id="DejaVuSans-108"/>
      <path id="DejaVuSans-32"/>
      <path d="M 54.890625 33.015625
L 54.890625 0
L 45.90625 0
L 45.90625 32.71875
Q 45.90625 40.484375 42.875 44.328125
Q 39.84375 48.1875 33.796875 48.1875
Q 26.515625 48.1875 22.3125 43.546875
Q 18.109375 38.921875 18.109375 30.90625
L 18.109375 0
L 9.078125 0
L 9.078125 54.6875
L 18.109375 54.6875
L 18.109375 46.1875
Q 21.34375 51.125 25.703125 53.5625
Q 30.078125 56 35.796875 56
Q 45.21875 56 50.046875 50.171875
Q 54.890625 44.34375 54.890625 33.015625
z
" id="DejaVuSans-110"/>
      <path d="M 8.5 21.578125
L 8.5 54.6875
L 17.484375 54.6875
L 17.484375 21.921875
Q 17.484375 14.15625 20.5 10.265625
Q 23.53125 6.390625 29.59375 6.390625
Q 36.859375 6.390625 41.078125 11.03125
Q 45.3125 15.671875 45.3125 23.6875
L 45.3125 54.6875
L 54.296875 54.6875
L 54.296875 0
L 45.3125 0
L 45.3125 8.40625
Q 42.046875 3.421875 37.71875 1
Q 33.40625 -1.421875 27.6875 -1.421875
Q 18.265625 -1.421875 13.375 4.4375
Q 8.5 10.296875 8.5 21.578125
z
M 31.109375 56
z
" id="DejaVuSans-117"/>
      <path d="M 52 44.1875
Q 55.375 50.25 60.0625 53.125
Q 64.75 56 71.09375 56
Q 79.640625 56 84.28125 50.015625
Q 88.921875 44.046875 88.921875 33.015625
L 88.921875 0
L 79.890625 0
L 79.890625 32.71875
Q 79.890625 40.578125 77.09375 44.375
Q 74.3125 48.1875 68.609375 48.1875
Q 61.625 48.1875 57.5625 43.546875
Q 53.515625 38.921875 53.515625 30.90625
L 53.515625 0
L 44.484375 0
L 44.484375 32.71875
Q 44.484375 40.625 41.703125 44.40625
Q 38.921875 48.1875 33.109375 48.1875
Q 26.21875 48.1875 22.15625 43.53125
Q 18.109375 38.875 18.109375 30.90625
L 18.109375 0
L 9.078125 0
L 9.078125 54.6875
L 18.109375 54.6875
L 18.109375 46.1875
Q 21.1875 51.21875 25.484375 53.609375
Q 29.78125 56 35.6875 56
Q 41.65625 56 45.828125 52.96875
Q 50 49.953125 52 44.1875
z
" id="DejaVuSans-109"/>
      <path d="M 48.6875 27.296875
Q 48.6875 37.203125 44.609375 42.84375
Q 40.53125 48.484375 33.40625 48.484375
Q 26.265625 48.484375 22.1875 42.84375
Q 18.109375 37.203125 18.109375 27.296875
Q 18.109375 17.390625 22.1875 11.75
Q 26.265625 6.109375 33.40625 6.109375
Q 40.53125 6.109375 44.609375 11.75
Q 48.6875 17.390625 48.6875 27.296875
z
M 18.109375 46.390625
Q 20.953125 51.265625 25.265625 53.625
Q 29.59375 56 35.59375 56
Q 45.5625 56 51.78125 48.09375
Q 58.015625 40.1875 58.015625 27.296875
Q 58.015625 14.40625 51.78125 6.484375
Q 45.5625 -1.421875 35.59375 -1.421875
Q 29.59375 -1.421875 25.265625 0.953125
Q 20.953125 3.328125 18.109375 8.203125
L 18.109375 0
L 9.078125 0
L 9.078125 75.984375
L 18.109375 75.984375
z
" id="DejaVuSans-98"/>
      <path d="M 56.203125 29.59375
L 56.203125 25.203125
L 14.890625 25.203125
Q 15.484375 15.921875 20.484375 11.0625
Q 25.484375 6.203125 34.421875 6.203125
Q 39.59375 6.203125 44.453125 7.46875
Q 49.3125 8.734375 54.109375 11.28125
L 54.109375 2.78125
Q 49.265625 0.734375 44.1875 -0.34375
Q 39.109375 -1.421875 33.890625 -1.421875
Q 20.796875 -1.421875 13.15625 6.1875
Q 5.515625 13.8125 5.515625 26.8125
Q 5.515625 40.234375 12.765625 48.109375
Q 20.015625 56 32.328125 56
Q 43.359375 56 49.78125 48.890625
Q 56.203125 41.796875 56.203125 29.59375
z
M 47.21875 32.234375
Q 47.125 39.59375 43.09375 43.984375
Q 39.0625 48.390625 32.421875 48.390625
Q 24.90625 48.390625 20.390625 44.140625
Q 15.875 39.890625 15.1875 32.171875
z
" id="DejaVuSans-101"/>
     </defs>
     <g transform="translate(236.84125 274.316562)scale(0.1 -0.1)">
      <use xlink:href="#DejaVuSans-84"/>
      <use x="60.865234" xlink:href="#DejaVuSans-114"/>
      <use x="101.978516" xlink:href="#DejaVuSans-105"/>
      <use x="129.761719" xlink:href="#DejaVuSans-97"/>
      <use x="191.041016" xlink:href="#DejaVuSans-108"/>
      <use x="218.824219" xlink:href="#DejaVuSans-32"/>
      <use x="250.611328" xlink:href="#DejaVuSans-110"/>
      <use x="313.990234" xlink:href="#DejaVuSans-117"/>
      <use x="377.369141" xlink:href="#DejaVuSans-109"/>
      <use x="474.78125" xlink:href="#DejaVuSans-98"/>
      <use x="538.257812" xlink:href="#DejaVuSans-101"/>
      <use x="599.78125" xlink:href="#DejaVuSans-114"/>
     </g>
    </g>
   </g>
   <g id="matplotlib.axis_2">
    <g id="ytick_1">
     <g id="line2d_13">
      <path clip-path="url(#p95a7e94fcf)" d="M 54.02 246.04
L 483.75 246.04
" style="fill:none;stroke:#808080;stroke-dasharray:0.8,1.32;stroke-dashoffset:0;stroke-width:0.8;"/>
     </g>
     <g id="line2d_14">
      <defs>
       <path d="M 0 0
L -3.5 0
" id="m098ccdd72c" style="stroke:#000000;stroke-width:0.8;"/>
      </defs>
      <g>
       <use style="stroke:#000000;stroke-width:0.8;" x="54.02" xlink:href="#m098ccdd72c" y="246.04"/>
      </g>
     </g>
     <g id="text_8">
      <!-- 0.55 -->
      <defs>
       <path d="M 10.6875 12.40625
L 21 12.40625
L 21 0
L 10.6875 0
z
" id="DejaVuSans-46"/>
      </defs>
      <g transform="translate(24.754375 249.839219)scale(0.1 -0.1)">
       <use xlink:href="#DejaVuSans-48"/>
       <use x="63.623047" xlink:href="#DejaVuSans-46"/>
       <use x="95.410156" xlink:href="#DejaVuSans-53"/>
       <use x="159.033203" xlink:href="#DejaVuSans-53"/>
      </g>
     </g>
    </g>
    <g id="ytick_2">
     <g id="line2d_15">
      <path clip-path="url(#p95a7e94fcf)" d="M 54.02 207.493333
L 483.75 207.493333
" style="fill:none;stroke:#808080;stroke-dasharray:0.8,1.32;stroke-dashoffset:0;stroke-width:0.8;"/>
     </g>
     <g id="line2d_16">
      <g>
       <use style="stroke:#000000;stroke-width:0.8;" x="54.02" xlink:href="#m098ccdd72c" y="207.493333"/>
      </g>
     </g>
     <g id="text_9">
      <!-- 0.60 -->
      <defs>
       <path d="M 33.015625 40.375
Q 26.375 40.375 22.484375 35.828125
Q 18.609375 31.296875 18.609375 23.390625
Q 18.609375 15.53125 22.484375 10.953125
Q 26.375 6.390625 33.015625 6.390625
Q 39.65625 6.390625 43.53125 10.953125
Q 47.40625 15.53125 47.40625 23.390625
Q 47.40625 31.296875 43.53125 35.828125
Q 39.65625 40.375 33.015625 40.375
z
M 52.59375 71.296875
L 52.59375 62.3125
Q 48.875 64.0625 45.09375 64.984375
Q 41.3125 65.921875 37.59375 65.921875
Q 27.828125 65.921875 22.671875 59.328125
Q 17.53125 52.734375 16.796875 39.40625
Q 19.671875 43.65625 24.015625 45.921875
Q 28.375 48.1875 33.59375 48.1875
Q 44.578125 48.1875 50.953125 41.515625
Q 57.328125 34.859375 57.328125 23.390625
Q 57.328125 12.15625 50.6875 5.359375
Q 44.046875 -1.421875 33.015625 -1.421875
Q 20.359375 -1.421875 13.671875 8.265625
Q 6.984375 17.96875 6.984375 36.375
Q 6.984375 53.65625 15.1875 63.9375
Q 23.390625 74.21875 37.203125 74.21875
Q 40.921875 74.21875 44.703125 73.484375
Q 48.484375 72.75 52.59375 71.296875
z
" id="DejaVuSans-54"/>
      </defs>
      <g transform="translate(24.754375 211.292552)scale(0.1 -0.1)">
       <use xlink:href="#DejaVuSans-48"/>
       <use x="63.623047" xlink:href="#DejaVuSans-46"/>
       <use x="95.410156" xlink:href="#DejaVuSans-54"/>
       <use x="159.033203" xlink:href="#DejaVuSans-48"/>
      </g>
     </g>
    </g>
    <g id="ytick_3">
     <g id="line2d_17">
      <path clip-path="url(#p95a7e94fcf)" d="M 54.02 168.946667
L 483.75 168.946667
" style="fill:none;stroke:#808080;stroke-dasharray:0.8,1.32;stroke-dashoffset:0;stroke-width:0.8;"/>
     </g>
     <g id="line2d_18">
      <g>
       <use style="stroke:#000000;stroke-width:0.8;" x="54.02" xlink:href="#m098ccdd72c" y="168.946667"/>
      </g>
     </g>
     <g id="text_10">
      <!-- 0.65 -->
      <g transform="translate(24.754375 172.745885)scale(0.1 -0.1)">
       <use xlink:href="#DejaVuSans-48"/>
       <use x="63.623047" xlink:href="#DejaVuSans-46"/>
       <use x="95.410156" xlink:href="#DejaVuSans-54"/>
       <use x="159.033203" xlink:href="#DejaVuSans-53"/>
      </g>
     </g>
    </g>
    <g id="ytick_4">
     <g id="line2d_19">
      <path clip-path="url(#p95a7e94fcf)" d="M 54.02 130.4
L 483.75 130.4
" style="fill:none;stroke:#808080;stroke-dasharray:0.8,1.32;stroke-dashoffset:0;stroke-width:0.8;"/>
     </g>
     <g id="line2d_20">
      <g>
       <use style="stroke:#000000;stroke-width:0.8;" x="54.02" xlink:href="#m098ccdd72c" y="130.4"/>
      </g>
     </g>
     <g id="text_11">
      <!-- 0.70 -->
      <defs>
       <path d="M 8.203125 72.90625
L 55.078125 72.90625
L 55.078125 68.703125
L 28.609375 0
L 18.3125 0
L 43.21875 64.59375
L 8.203125 64.59375
z
" id="DejaVuSans-55"/>
      </defs>
      <g transform="translate(24.754375 134.199219)scale(0.1 -0.1)">
       <use xlink:href="#DejaVuSans-48"/>
       <use x="63.623047" xlink:href="#DejaVuSans-46"/>
       <use x="95.410156" xlink:href="#DejaVuSans-55"/>
       <use x="159.033203" xlink:href="#DejaVuSans-48"/>
      </g>
     </g>
    </g>
    <g id="ytick_5">
     <g id="line2d_21">
      <path clip-path="url(#p95a7e94fcf)" d="M 54.02 91.853333
L 483.75 91.853333
" style="fill:none;stroke:#808080;stroke-dasharray:0.8,1.32;stroke-dashoffset:0;stroke-width:0.8;"/>
     </g>
     <g id="line2d_22">
      <g>
       <use style="stroke:#000000;stroke-width:0.8;" x="54.02" xlink:href="#m098ccdd72c" y="91.853333"/>
      </g>
     </g>
     <g id="text_12">
      <!-- 0.75 -->
      <g transform="translate(24.754375 95.652552)scale(0.1 -0.1)">
       <use xlink:href="#DejaVuSans-48"/>
       <use x="63.623047" xlink:href="#DejaVuSans-46"/>
       <use x="95.410156" xlink:href="#DejaVuSans-55"/>
       <use x="159.033203" xlink:href="#DejaVuSans-53"/>
      </g>
     </g>
    </g>
    <g id="ytick_6">
     <g id="line2d_23">
      <path clip-path="url(#p95a7e94fcf)" d="M 54.02 53.306667
L 483.75 53.306667
" style="fill:none;stroke:#808080;stroke-dasharray:0.8,1.32;stroke-dashoffset:0;stroke-width:0.8;"/>
     </g>
     <g id="line2d_24">
      <g>
       <use style="stroke:#000000;stroke-width:0.8;" x="54.02" xlink:href="#m098ccdd72c" y="53.306667"/>
      </g>
     </g>
     <g id="text_13">
      <!-- 0.80 -->
      <defs>
       <path d="M 31.78125 34.625
Q 24.75 34.625 20.71875 30.859375
Q 16.703125 27.09375 16.703125 20.515625
Q 16.703125 13.921875 20.71875 10.15625
Q 24.75 6.390625 31.78125 6.390625
Q 38.8125 6.390625 42.859375 10.171875
Q 46.921875 13.96875 46.921875 20.515625
Q 46.921875 27.09375 42.890625 30.859375
Q 38.875 34.625 31.78125 34.625
z
M 21.921875 38.8125
Q 15.578125 40.375 12.03125 44.71875
Q 8.5 49.078125 8.5 55.328125
Q 8.5 64.0625 14.71875 69.140625
Q 20.953125 74.21875 31.78125 74.21875
Q 42.671875 74.21875 48.875 69.140625
Q 55.078125 64.0625 55.078125 55.328125
Q 55.078125 49.078125 51.53125 44.71875
Q 48 40.375 41.703125 38.8125
Q 48.828125 37.15625 52.796875 32.3125
Q 56.78125 27.484375 56.78125 20.515625
Q 56.78125 9.90625 50.3125 4.234375
Q 43.84375 -1.421875 31.78125 -1.421875
Q 19.734375 -1.421875 13.25 4.234375
Q 6.78125 9.90625 6.78125 20.515625
Q 6.78125 27.484375 10.78125 32.3125
Q 14.796875 37.15625 21.921875 38.8125
z
M 18.3125 54.390625
Q 18.3125 48.734375 21.84375 45.5625
Q 25.390625 42.390625 31.78125 42.390625
Q 38.140625 42.390625 41.71875 45.5625
Q 45.3125 48.734375 45.3125 54.390625
Q 45.3125 60.0625 41.71875 63.234375
Q 38.140625 66.40625 31.78125 66.40625
Q 25.390625 66.40625 21.84375 63.234375
Q 18.3125 60.0625 18.3125 54.390625
z
" id="DejaVuSans-56"/>
      </defs>
      <g transform="translate(24.754375 57.105885)scale(0.1 -0.1)">
       <use xlink:href="#DejaVuSans-48"/>
       <use x="63.623047" xlink:href="#DejaVuSans-46"/>
       <use x="95.410156" xlink:href="#DejaVuSans-56"/>
       <use x="159.033203" xlink:href="#DejaVuSans-48"/>
      </g>
     </g>
    </g>
    <g id="ytick_7">
     <g id="line2d_25">
      <path clip-path="url(#p95a7e94fcf)" d="M 54.02 14.76
L 483.75 14.76
" style="fill:none;stroke:#808080;stroke-dasharray:0.8,1.32;stroke-dashoffset:0;stroke-width:0.8;"/>
     </g>
     <g id="line2d_26">
      <g>
       <use style="stroke:#000000;stroke-width:0.8;" x="54.02" xlink:href="#m098ccdd72c" y="14.76"/>
      </g>
     </g>
     <g id="text_14">
      <!-- 0.85 -->
      <g transform="translate(24.754375 18.559219)scale(0.1 -0.1)">
       <use xlink:href="#DejaVuSans-48"/>
       <use x="63.623047" xlink:href="#DejaVuSans-46"/>
       <use x="95.410156" xlink:href="#DejaVuSans-56"/>
       <use x="159.033203" xlink:href="#DejaVuSans-53"/>
      </g>
     </g>
    </g>
    <g id="text_15">
     <!-- % correct -->
     <defs>
      <path d="M 72.703125 32.078125
Q 68.453125 32.078125 66.03125 28.46875
Q 63.625 24.859375 63.625 18.40625
Q 63.625 12.0625 66.03125 8.421875
Q 68.453125 4.78125 72.703125 4.78125
Q 76.859375 4.78125 79.265625 8.421875
Q 81.6875 12.0625 81.6875 18.40625
Q 81.6875 24.8125 79.265625 28.4375
Q 76.859375 32.078125 72.703125 32.078125
z
M 72.703125 38.28125
Q 80.421875 38.28125 84.953125 32.90625
Q 89.5 27.546875 89.5 18.40625
Q 89.5 9.28125 84.9375 3.921875
Q 80.375 -1.421875 72.703125 -1.421875
Q 64.890625 -1.421875 60.34375 3.921875
Q 55.8125 9.28125 55.8125 18.40625
Q 55.8125 27.59375 60.375 32.9375
Q 64.9375 38.28125 72.703125 38.28125
z
M 22.3125 68.015625
Q 18.109375 68.015625 15.6875 64.375
Q 13.28125 60.75 13.28125 54.390625
Q 13.28125 47.953125 15.671875 44.328125
Q 18.0625 40.71875 22.3125 40.71875
Q 26.5625 40.71875 28.96875 44.328125
Q 31.390625 47.953125 31.390625 54.390625
Q 31.390625 60.6875 28.953125 64.34375
Q 26.515625 68.015625 22.3125 68.015625
z
M 66.40625 74.21875
L 74.21875 74.21875
L 28.609375 -1.421875
L 20.796875 -1.421875
z
M 22.3125 74.21875
Q 30.03125 74.21875 34.609375 68.875
Q 39.203125 63.53125 39.203125 54.390625
Q 39.203125 45.171875 34.640625 39.84375
Q 30.078125 34.515625 22.3125 34.515625
Q 14.546875 34.515625 10.03125 39.859375
Q 5.515625 45.21875 5.515625 54.390625
Q 5.515625 63.484375 10.046875 68.84375
Q 14.59375 74.21875 22.3125 74.21875
z
" id="DejaVuSans-37"/>
      <path d="M 48.78125 52.59375
L 48.78125 44.1875
Q 44.96875 46.296875 41.140625 47.34375
Q 37.3125 48.390625 33.40625 48.390625
Q 24.65625 48.390625 19.8125 42.84375
Q 14.984375 37.3125 14.984375 27.296875
Q 14.984375 17.28125 19.8125 11.734375
Q 24.65625 6.203125 33.40625 6.203125
Q 37.3125 6.203125 41.140625 7.25
Q 44.96875 8.296875 48.78125 10.40625
L 48.78125 2.09375
Q 45.015625 0.34375 40.984375 -0.53125
Q 36.96875 -1.421875 32.421875 -1.421875
Q 20.0625 -1.421875 12.78125 6.34375
Q 5.515625 14.109375 5.515625 27.296875
Q 5.515625 40.671875 12.859375 48.328125
Q 20.21875 56 33.015625 56
Q 37.15625 56 41.109375 55.140625
Q 45.0625 54.296875 48.78125 52.59375
z
" id="DejaVuSans-99"/>
      <path d="M 30.609375 48.390625
Q 23.390625 48.390625 19.1875 42.75
Q 14.984375 37.109375 14.984375 27.296875
Q 14.984375 17.484375 19.15625 11.84375
Q 23.34375 6.203125 30.609375 6.203125
Q 37.796875 6.203125 41.984375 11.859375
Q 46.1875 17.53125 46.1875 27.296875
Q 46.1875 37.015625 41.984375 42.703125
Q 37.796875 48.390625 30.609375 48.390625
z
M 30.609375 56
Q 42.328125 56 49.015625 48.375
Q 55.71875 40.765625 55.71875 27.296875
Q 55.71875 13.875 49.015625 6.21875
Q 42.328125 -1.421875 30.609375 -1.421875
Q 18.84375 -1.421875 12.171875 6.21875
Q 5.515625 13.875 5.515625 27.296875
Q 5.515625 40.765625 12.171875 48.375
Q 18.84375 56 30.609375 56
z
" id="DejaVuSans-111"/>
      <path d="M 18.3125 70.21875
L 18.3125 54.6875
L 36.8125 54.6875
L 36.8125 47.703125
L 18.3125 47.703125
L 18.3125 18.015625
Q 18.3125 11.328125 20.140625 9.421875
Q 21.96875 7.515625 27.59375 7.515625
L 36.8125 7.515625
L 36.8125 0
L 27.59375 0
Q 17.1875 0 13.234375 3.875
Q 9.28125 7.765625 9.28125 18.015625
L 9.28125 47.703125
L 2.6875 47.703125
L 2.6875 54.6875
L 9.28125 54.6875
L 9.28125 70.21875
z
" id="DejaVuSans-116"/>
     </defs>
     <g transform="translate(18.674688 154.442969)rotate(-90)scale(0.1 -0.1)">
      <use xlink:href="#DejaVuSans-37"/>
      <use x="95.019531" xlink:href="#DejaVuSans-32"/>
      <use x="126.806641" xlink:href="#DejaVuSans-99"/>
      <use x="181.787109" xlink:href="#DejaVuSans-111"/>
      <use x="242.96875" xlink:href="#DejaVuSans-114"/>
      <use x="284.066406" xlink:href="#DejaVuSans-114"/>
      <use x="325.148438" xlink:href="#DejaVuSans-101"/>
      <use x="386.671875" xlink:href="#DejaVuSans-99"/>
      <use x="441.652344" xlink:href="#DejaVuSans-116"/>
     </g>
    </g>
   </g>
   <g id="line2d_27">
    <path clip-path="url(#p95a7e94fcf)" d="M 54.02 135.072323
L 55.73892 142.748283
L 57.45784 144.750707
L 59.17676 148.088081
L 60.89568 149.42303
L 62.6146 151.091717
L 64.33352 154.095354
L 66.05244 152.426667
L 67.77136 154.095354
L 69.49028 151.091717
L 71.2092 149.42303
L 72.92812 148.088081
L 74.64704 144.750707
L 76.36596 142.748283
L 78.08488 135.072323
L 79.8038 125.727677
L 81.52272 118.385455
L 83.24164 121.055354
L 84.96056 119.052929
L 86.67948 120.054141
L 88.3984 123.391515
L 90.11732 123.057778
L 91.83624 126.061414
L 93.55516 128.397576
L 95.27408 131.401212
L 96.993 135.406061
L 98.71192 136.073535
L 100.43084 136.073535
L 102.14976 141.413333
L 103.86868 143.415758
L 105.5876 147.754343
L 107.30652 147.420606
L 109.02544 146.753131
L 110.74436 147.420606
L 112.46328 145.751919
L 114.1822 142.414545
L 115.90112 144.41697
L 117.62004 141.747071
L 119.33896 140.078384
L 121.05788 136.073535
L 122.7768 136.073535
L 124.49572 136.407273
L 126.21464 138.07596
L 127.93356 136.74101
L 129.65248 140.078384
L 131.3714 139.744646
L 133.09032 142.748283
L 136.52816 136.073535
L 138.24708 136.073535
L 139.966 139.744646
L 141.68492 137.074747
L 143.40384 138.409697
L 145.12276 138.409697
L 146.84168 143.08202
L 148.5606 146.085657
L 150.27952 145.084444
L 151.99844 146.085657
L 153.71736 142.748283
L 155.43628 140.078384
L 157.1552 137.074747
L 158.87412 136.073535
L 160.59304 135.739798
L 162.31196 136.74101
L 164.03088 135.406061
L 165.7498 131.734949
L 167.46872 132.736162
L 169.18764 131.401212
L 170.90656 130.733737
L 172.62548 131.067475
L 174.3444 128.397576
L 176.06332 128.731313
L 177.78224 127.730101
L 179.50116 129.065051
L 181.22008 127.396364
L 182.939 128.731313
L 184.65792 132.068687
L 186.37684 134.404848
L 188.09576 134.071111
L 189.81468 135.406061
L 191.5336 135.072323
L 193.25252 132.402424
L 194.97144 132.068687
L 196.69036 129.398788
L 198.40928 130.066263
L 201.84712 132.736162
L 203.56604 130.066263
L 205.28496 129.398788
L 207.00388 130.4
L 208.7228 127.730101
L 210.44172 124.392727
L 212.16064 123.725253
L 213.87956 125.727677
L 215.59848 124.392727
L 217.3174 122.390303
L 219.03632 123.391515
L 220.75524 121.722828
L 222.47416 123.725253
L 224.19308 121.055354
L 225.912 114.714343
L 227.63092 117.71798
L 229.34984 119.720404
L 232.78768 121.722828
L 234.5066 124.726465
L 236.22552 125.727677
L 237.94444 124.726465
L 239.66336 122.72404
L 241.38228 122.72404
L 243.1012 120.387879
L 244.82012 121.389091
L 246.53904 125.060202
L 248.25796 125.060202
L 249.97688 123.057778
L 251.6958 124.392727
L 253.41472 120.721616
L 255.13364 119.720404
L 256.85256 116.38303
L 260.2904 113.713131
L 262.00932 114.046869
L 263.72824 112.711919
L 265.44716 112.044444
L 267.16608 111.710707
L 268.885 117.050505
L 270.60392 114.714343
L 272.32284 113.379394
L 274.04176 109.708283
L 275.76068 111.37697
L 277.4796 114.046869
L 279.19852 114.380606
L 280.91744 112.378182
L 286.0742 105.369697
L 287.79312 102.032323
L 289.51204 100.363636
L 291.23096 101.364848
L 292.94988 104.368485
L 294.6688 98.694949
L 298.10664 96.692525
L 299.82556 100.363636
L 301.54448 100.029899
L 303.2634 96.025051
L 304.98232 95.023838
L 306.70124 98.361212
L 308.42016 100.029899
L 310.13908 102.032323
L 311.858 104.702222
L 315.29584 108.707071
L 317.01476 111.710707
L 318.73368 111.37697
L 320.4526 114.380606
L 322.17152 116.716768
L 323.89044 116.38303
L 325.60936 114.714343
L 327.32828 118.719192
L 330.76612 120.054141
L 332.48504 119.720404
L 334.20396 122.72404
L 335.92288 122.390303
L 337.6418 121.389091
L 339.36072 121.722828
L 341.07964 123.391515
L 344.51748 120.054141
L 346.2364 120.054141
L 347.95532 117.384242
L 349.67424 119.386667
L 351.39316 121.055354
L 353.11208 118.051717
L 354.831 119.386667
L 358.26884 120.054141
L 359.98776 121.722828
L 361.70668 121.722828
L 363.4256 123.057778
L 365.14452 121.722828
L 366.86344 121.055354
L 368.58236 115.715556
L 372.0202 115.048081
L 373.73912 118.051717
L 375.45804 119.720404
L 377.17696 119.052929
L 378.89588 116.38303
L 380.6148 115.048081
L 382.33372 112.378182
L 384.05264 111.043232
L 385.77156 108.707071
L 387.49048 105.03596
L 389.2094 100.363636
L 390.92832 100.363636
L 392.64724 98.027475
L 394.36616 104.368485
L 396.08508 106.704646
L 397.804 106.370909
L 399.52292 106.704646
L 401.24184 104.702222
L 402.96076 104.702222
L 404.67968 107.038384
L 406.3986 107.372121
L 408.11752 113.379394
L 409.83644 112.044444
L 411.55536 110.375758
L 413.27428 113.045657
L 414.9932 116.38303
L 416.71212 113.379394
L 418.43104 114.046869
L 420.14996 107.705859
L 421.86888 106.370909
L 423.5878 110.04202
L 425.30672 109.040808
L 427.02564 104.702222
L 428.74456 102.366061
L 430.46348 101.364848
L 432.1824 102.032323
L 433.90132 95.691313
L 435.62024 94.690101
L 439.05808 95.357576
L 440.777 96.025051
L 442.49592 95.357576
L 444.21484 95.023838
L 445.93376 97.36
L 447.65268 95.023838
L 449.3716 92.020202
L 451.09052 91.01899
L 454.52836 97.026263
L 456.24728 96.692525
L 457.9662 94.356364
L 459.68512 95.357576
L 461.40404 98.694949
L 463.12296 96.692525
L 464.84188 97.026263
L 466.5608 93.021414
L 468.27972 95.357576
L 469.99864 93.688889
L 471.71756 93.355152
L 473.43648 96.025051
L 475.1554 98.361212
L 476.87432 96.025051
L 478.59324 94.356364
L 480.31216 91.686465
L 482.03108 87.347879
L 483.75 88.015354
L 485.46892 87.347879
L 487.18784 83.009293
L 488.90676 87.014141
L 490.62568 87.681616
L 492.3446 89.350303
L 494.06352 87.681616
L 495.78244 89.350303
L 497.50136 87.681616
L 499.22028 87.014141
L 500.9392 83.009293
L 502.65812 87.347879
L 504.37704 88.015354
L 505 87.773452
L 505 87.773452
" style="fill:none;stroke:#008fd5;stroke-linecap:square;stroke-width:2;"/>
   </g>
   <g id="line2d_28">
    <path clip-path="url(#p95a7e94fcf)" d="M 54.02 234.526061
L 55.73892 214.501818
L 57.45784 139.410909
L 59.17676 164.441212
L 60.89568 124.392727
L 62.6146 124.392727
L 64.33352 144.41697
L 66.05244 114.380606
L 67.77136 139.410909
L 69.49028 99.362424
L 71.2092 99.362424
L 72.92812 104.368485
L 74.64704 114.380606
L 76.36596 109.374545
L 78.08488 99.362424
L 79.8038 94.356364
L 81.52272 104.368485
L 83.24164 179.459394
L 84.96056 134.404848
L 86.67948 139.410909
L 88.3984 174.453333
L 90.11732 139.410909
L 91.83624 159.435152
L 93.55516 174.453333
L 95.27408 144.41697
L 96.993 159.435152
L 98.71192 114.380606
L 100.43084 114.380606
L 102.14976 189.471515
L 103.86868 129.398788
L 105.5876 159.435152
L 107.30652 99.362424
L 109.02544 169.447273
L 110.74436 144.41697
L 112.46328 114.380606
L 114.1822 124.392727
L 115.90112 169.447273
L 117.62004 119.386667
L 119.33896 149.42303
L 121.05788 84.344242
L 122.7768 159.435152
L 124.49572 119.386667
L 126.21464 139.410909
L 127.93356 169.447273
L 129.65248 179.459394
L 131.3714 154.429091
L 133.09032 144.41697
L 136.52816 94.356364
L 138.24708 114.380606
L 139.966 179.459394
L 141.68492 129.398788
L 145.12276 149.42303
L 146.84168 154.429091
L 148.5606 204.489697
L 150.27952 104.368485
L 151.99844 154.429091
L 153.71736 119.386667
L 155.43628 139.410909
L 157.1552 109.374545
L 158.87412 129.398788
L 160.59304 114.380606
L 162.31196 109.374545
L 164.03088 94.356364
L 165.7498 124.392727
L 167.46872 144.41697
L 169.18764 119.386667
L 172.62548 159.435152
L 174.3444 164.441212
L 176.06332 109.374545
L 177.78224 139.410909
L 179.50116 139.410909
L 181.22008 114.380606
L 182.939 129.398788
L 184.65792 179.459394
L 186.37684 149.42303
L 188.09576 104.368485
L 189.81468 114.380606
L 191.5336 119.386667
L 193.25252 104.368485
L 194.97144 114.380606
L 196.69036 99.362424
L 198.40928 169.447273
L 200.1282 184.465455
L 201.84712 129.398788
L 203.56604 99.362424
L 205.28496 129.398788
L 207.00388 129.398788
L 208.7228 89.350303
L 210.44172 129.398788
L 212.16064 139.410909
L 213.87956 134.404848
L 215.59848 94.356364
L 217.3174 89.350303
L 219.03632 119.386667
L 220.75524 89.350303
L 222.47416 129.398788
L 224.19308 129.398788
L 225.912 89.350303
L 227.63092 174.453333
L 229.34984 129.398788
L 231.06876 144.41697
L 232.78768 144.41697
L 234.5066 134.404848
L 236.22552 144.41697
L 239.66336 104.368485
L 241.38228 94.356364
L 243.1012 54.307879
L 244.82012 134.404848
L 246.53904 144.41697
L 248.25796 129.398788
L 249.97688 99.362424
L 253.41472 119.386667
L 255.13364 114.380606
L 256.85256 94.356364
L 258.57148 124.392727
L 260.2904 114.380606
L 262.00932 149.42303
L 263.72824 104.368485
L 265.44716 94.356364
L 267.16608 89.350303
L 268.885 134.404848
L 270.60392 99.362424
L 272.32284 124.392727
L 274.04176 74.332121
L 275.76068 124.392727
L 277.4796 149.42303
L 279.19852 124.392727
L 280.91744 84.344242
L 282.63636 59.313939
L 284.35528 89.350303
L 286.0742 79.338182
L 287.79312 99.362424
L 289.51204 79.338182
L 291.23096 109.374545
L 292.94988 134.404848
L 294.6688 49.301818
L 296.38772 84.344242
L 298.10664 109.374545
L 299.82556 129.398788
L 301.54448 119.386667
L 303.2634 89.350303
L 304.98232 109.374545
L 306.70124 134.404848
L 308.42016 84.344242
L 310.13908 119.386667
L 311.858 119.386667
L 313.57692 129.398788
L 315.29584 109.374545
L 317.01476 154.429091
L 318.73368 129.398788
L 320.4526 94.356364
L 322.17152 119.386667
L 323.89044 104.368485
L 325.60936 104.368485
L 327.32828 179.459394
L 329.0472 99.362424
L 330.76612 119.386667
L 332.48504 129.398788
L 334.20396 129.398788
L 335.92288 114.380606
L 337.6418 104.368485
L 339.36072 134.404848
L 341.07964 134.404848
L 342.79856 129.398788
L 344.51748 104.368485
L 346.2364 94.356364
L 347.95532 79.338182
L 349.67424 134.404848
L 351.39316 129.398788
L 353.11208 134.404848
L 354.831 119.386667
L 356.54992 124.392727
L 358.26884 134.404848
L 359.98776 154.429091
L 361.70668 114.380606
L 363.4256 124.392727
L 365.14452 114.380606
L 366.86344 124.392727
L 368.58236 49.301818
L 370.30128 99.362424
L 372.0202 89.350303
L 375.45804 159.435152
L 377.17696 119.386667
L 378.89588 94.356364
L 380.6148 99.362424
L 382.33372 84.344242
L 384.05264 114.380606
L 385.77156 119.386667
L 387.49048 59.313939
L 389.2094 54.307879
L 390.92832 114.380606
L 392.64724 89.350303
L 394.36616 144.41697
L 396.08508 134.404848
L 397.804 84.344242
L 399.52292 129.398788
L 401.24184 129.398788
L 402.96076 119.386667
L 404.67968 129.398788
L 406.3986 104.368485
L 408.11752 174.453333
L 409.83644 94.356364
L 411.55536 94.356364
L 414.9932 104.368485
L 416.71212 69.326061
L 418.43104 99.362424
L 420.14996 49.301818
L 421.86888 114.380606
L 423.5878 139.410909
L 425.30672 114.380606
L 427.02564 64.32
L 428.74456 84.344242
L 430.46348 114.380606
L 432.1824 114.380606
L 433.90132 79.338182
L 435.62024 79.338182
L 437.33916 99.362424
L 439.05808 104.368485
L 440.777 114.380606
L 442.49592 59.313939
L 444.21484 94.356364
L 445.93376 84.344242
L 447.65268 79.338182
L 449.3716 94.356364
L 451.09052 99.362424
L 452.80944 109.374545
L 454.52836 129.398788
L 456.24728 109.374545
L 457.9662 79.338182
L 459.68512 94.356364
L 461.40404 129.398788
L 463.12296 69.326061
L 464.84188 109.374545
L 466.5608 54.307879
L 468.27972 94.356364
L 469.99864 69.326061
L 471.71756 79.338182
L 473.43648 119.386667
L 475.1554 129.398788
L 476.87432 64.32
L 478.59324 84.344242
L 480.31216 89.350303
L 482.03108 44.295758
L 482.03108 44.295758
" style="fill:none;stroke:#43799d;stroke-linecap:square;stroke-opacity:0.5;"/>
   </g>
   <g id="line2d_29">
    <path clip-path="url(#p95a7e94fcf)" d="M 54.02 167.778586
L 55.73892 170.406768
L 57.45784 166.318485
L 59.17676 167.194545
L 60.89568 165.734444
L 62.6146 166.902525
L 64.33352 162.522222
L 66.05244 161.354141
L 67.77136 162.522222
L 69.49028 166.902525
L 71.2092 165.734444
L 72.92812 167.194545
L 74.64704 166.318485
L 76.36596 170.406768
L 79.8038 165.150404
L 81.52272 160.478081
L 83.24164 163.106263
L 84.96056 160.186061
L 86.67948 163.398283
L 88.3984 162.522222
L 90.11732 168.362626
L 91.83624 167.486566
L 93.55516 168.070606
L 95.27408 168.946667
L 96.993 168.946667
L 98.71192 167.486566
L 100.43084 163.106263
L 102.14976 160.770101
L 105.5876 157.265859
L 107.30652 157.265859
L 109.02544 151.717475
L 110.74436 151.425455
L 112.46328 148.505253
L 114.1822 148.797273
L 115.90112 145.585051
L 117.62004 149.673333
L 119.33896 148.505253
L 121.05788 149.965354
L 122.7768 149.673333
L 126.21464 153.761616
L 127.93356 150.257374
L 131.3714 154.345657
L 133.09032 154.929697
L 134.80924 161.938182
L 136.52816 163.106263
L 138.24708 161.062121
L 139.966 161.646162
L 141.68492 161.938182
L 143.40384 161.354141
L 145.12276 161.938182
L 146.84168 162.230202
L 148.5606 163.398283
L 150.27952 165.442424
L 151.99844 168.070606
L 153.71736 172.450909
L 155.43628 173.61899
L 157.1552 172.742929
L 158.87412 171.574848
L 160.59304 168.362626
L 162.31196 171.282828
L 164.03088 172.450909
L 165.7498 169.530707
L 167.46872 172.158889
L 169.18764 169.530707
L 170.90656 171.866869
L 172.62548 171.574848
L 174.3444 170.990808
L 176.06332 168.362626
L 177.78224 164.566364
L 179.50116 160.478081
L 181.22008 160.478081
L 182.939 159.89404
L 184.65792 160.770101
L 186.37684 160.478081
L 188.09576 157.849899
L 189.81468 160.186061
L 191.5336 163.690303
L 193.25252 162.814242
L 194.97144 164.274343
L 196.69036 165.442424
L 200.1282 166.026465
L 201.84712 164.858384
L 203.56604 169.822727
L 205.28496 173.32697
L 207.00388 175.663131
L 208.7228 177.707273
L 212.16064 186.175859
L 213.87956 185.591818
L 215.59848 184.131717
L 217.3174 178.875354
L 219.03632 177.999293
L 220.75524 181.503535
L 222.47416 177.415253
L 224.19308 175.955152
L 225.912 179.167374
L 227.63092 177.999293
L 229.34984 176.539192
L 231.06876 176.539192
L 232.78768 175.079091
L 234.5066 173.91101
L 236.22552 169.822727
L 237.94444 167.486566
L 239.66336 168.946667
L 241.38228 170.698788
L 243.1012 174.20303
L 244.82012 177.415253
L 246.53904 170.114747
L 248.25796 170.114747
L 249.97688 171.866869
L 251.6958 169.238687
L 253.41472 173.034949
L 255.13364 173.91101
L 256.85256 175.371111
L 258.57148 175.371111
L 260.2904 178.291313
L 262.00932 179.459394
L 263.72824 178.875354
L 265.44716 177.707273
L 267.16608 175.663131
L 268.885 176.247172
L 270.60392 175.079091
L 272.32284 178.875354
L 274.04176 180.335455
L 275.76068 180.627475
L 277.4796 176.831212
L 279.19852 176.539192
L 280.91744 174.495051
L 282.63636 170.990808
L 284.35528 170.406768
L 286.0742 168.362626
L 287.79312 168.654646
L 289.51204 169.822727
L 291.23096 172.158889
L 292.94988 174.787071
L 296.38772 178.291313
L 298.10664 181.795556
L 299.82556 185.007778
L 301.54448 184.423737
L 303.2634 186.467879
L 304.98232 188.22
L 306.70124 189.388081
L 308.42016 188.22
L 310.13908 186.467879
L 311.858 186.759899
L 313.57692 182.963636
L 315.29584 182.379596
L 317.01476 184.131717
L 318.73368 185.299798
L 320.4526 180.335455
L 322.17152 181.503535
L 323.89044 177.707273
L 327.32828 174.787071
L 329.0472 174.495051
L 330.76612 171.574848
L 332.48504 175.663131
L 334.20396 177.707273
L 335.92288 180.043434
L 337.6418 177.123232
L 339.36072 180.043434
L 341.07964 178.875354
L 342.79856 172.450909
L 344.51748 171.282828
L 346.2364 173.91101
L 347.95532 169.822727
L 349.67424 171.866869
L 351.39316 166.026465
L 353.11208 166.026465
L 354.831 165.734444
L 356.54992 165.150404
L 358.26884 161.646162
L 359.98776 161.354141
L 361.70668 157.557879
L 363.4256 159.01798
L 365.14452 159.60202
L 366.86344 159.31
L 368.58236 161.354141
L 370.30128 161.354141
L 372.0202 163.690303
L 373.73912 164.566364
L 375.45804 162.230202
L 377.17696 168.946667
L 378.89588 165.734444
L 380.6148 164.566364
L 382.33372 163.106263
L 384.05264 159.01798
L 385.77156 158.141919
L 387.49048 160.770101
L 389.2094 166.026465
L 390.92832 166.610505
L 392.64724 166.026465
L 394.36616 163.106263
L 396.08508 157.849899
L 397.804 155.513737
L 399.52292 154.345657
L 401.24184 155.805758
L 402.96076 154.929697
L 404.67968 158.141919
L 406.3986 161.062121
L 408.11752 163.398283
L 409.83644 170.990808
L 411.55536 171.866869
L 413.27428 169.238687
L 414.9932 168.946667
L 416.71212 169.530707
L 418.43104 172.742929
L 420.14996 177.999293
L 421.86888 182.379596
L 425.30672 181.211515
L 427.02564 178.875354
L 430.46348 173.034949
L 432.1824 174.495051
L 433.90132 169.530707
L 435.62024 163.398283
L 437.33916 162.814242
L 439.05808 161.062121
L 440.777 156.389798
L 442.49592 156.097778
L 444.21484 153.469596
L 445.93376 154.053636
L 447.65268 154.053636
L 451.09052 156.389798
L 452.80944 160.770101
L 454.52836 160.770101
L 456.24728 161.938182
L 457.9662 160.186061
L 459.68512 164.566364
L 461.40404 166.318485
L 463.12296 170.990808
L 464.84188 173.61899
L 466.5608 171.282828
L 468.27972 169.238687
L 469.99864 167.486566
L 471.71756 165.442424
L 473.43648 163.106263
L 475.1554 164.566364
L 476.87432 168.070606
L 478.59324 165.150404
L 480.31216 166.318485
L 482.03108 168.946667
L 483.75 168.654646
L 485.46892 168.070606
L 487.18784 170.990808
L 488.90676 169.822727
L 490.62568 168.362626
L 492.3446 171.282828
L 494.06352 170.114747
L 495.78244 171.282828
L 497.50136 168.362626
L 499.22028 169.822727
L 500.9392 170.990808
L 502.65812 168.070606
L 505 168.760479
L 505 168.760479
" style="fill:none;stroke:#fc4f30;stroke-linecap:square;stroke-width:2;"/>
   </g>
   <g id="line2d_30">
    <path clip-path="url(#p95a7e94fcf)" d="M 54.02 196.980606
L 55.73892 214.501818
L 57.45784 148.797273
L 59.17676 183.839697
L 60.89568 153.177576
L 62.6146 188.22
L 64.33352 83.092727
L 66.05244 140.036667
L 67.77136 157.557879
L 69.49028 148.797273
L 71.2092 170.698788
L 72.92812 175.079091
L 74.64704 170.698788
L 76.36596 210.121515
L 78.08488 175.079091
L 79.8038 157.557879
L 81.52272 144.41697
L 83.24164 188.22
L 84.96056 140.036667
L 86.67948 201.360909
L 88.3984 175.079091
L 90.11732 170.698788
L 91.83624 126.895758
L 93.55516 166.318485
L 95.27408 161.938182
L 96.993 170.698788
L 98.71192 153.177576
L 100.43084 104.994242
L 102.14976 175.079091
L 103.86868 148.797273
L 105.5876 131.276061
L 107.30652 144.41697
L 109.02544 104.994242
L 110.74436 135.656364
L 114.1822 179.459394
L 115.90112 122.515455
L 117.62004 188.22
L 119.33896 148.797273
L 121.05788 183.839697
L 122.7768 166.318485
L 124.49572 183.839697
L 126.21464 135.656364
L 127.93356 122.515455
L 129.65248 179.459394
L 131.3714 161.938182
L 133.09032 153.177576
L 134.80924 210.121515
L 136.52816 153.177576
L 138.24708 126.895758
L 139.966 188.22
L 141.68492 126.895758
L 143.40384 179.459394
L 145.12276 157.557879
L 146.84168 188.22
L 148.5606 183.839697
L 150.27952 214.501818
L 151.99844 175.079091
L 153.71736 188.22
L 155.43628 196.980606
L 157.1552 148.797273
L 158.87412 135.656364
L 160.59304 161.938182
L 162.31196 196.980606
L 164.03088 144.41697
L 165.7498 144.41697
L 167.46872 166.318485
L 169.18764 140.036667
L 170.90656 192.600303
L 174.3444 175.079091
L 176.06332 175.079091
L 177.78224 118.135152
L 179.50116 126.895758
L 181.22008 196.980606
L 182.939 140.036667
L 186.37684 157.557879
L 188.09576 157.557879
L 189.81468 179.459394
L 191.5336 196.980606
L 193.25252 153.177576
L 194.97144 161.938182
L 196.69036 210.121515
L 198.40928 188.22
L 200.1282 179.459394
L 201.84712 157.557879
L 203.56604 192.600303
L 205.28496 179.459394
L 207.00388 232.02303
L 208.7228 170.698788
L 210.44172 214.501818
L 212.16064 218.882121
L 213.87956 148.797273
L 215.59848 157.557879
L 217.3174 118.135152
L 219.03632 140.036667
L 220.75524 214.501818
L 222.47416 148.797273
L 224.19308 166.318485
L 225.912 227.642727
L 227.63092 140.036667
L 229.34984 170.698788
L 231.06876 179.459394
L 232.78768 210.121515
L 234.5066 153.177576
L 236.22552 153.177576
L 237.94444 183.839697
L 239.66336 170.698788
L 241.38228 183.839697
L 243.1012 170.698788
L 244.82012 188.22
L 246.53904 104.994242
L 249.97688 192.600303
L 251.6958 188.22
L 253.41472 196.980606
L 255.13364 183.839697
L 256.85256 201.360909
L 258.57148 210.121515
L 260.2904 196.980606
L 262.00932 170.698788
L 263.72824 175.079091
L 265.44716 153.177576
L 267.16608 153.177576
L 268.885 179.459394
L 272.32284 161.938182
L 274.04176 170.698788
L 275.76068 196.980606
L 277.4796 131.276061
L 279.19852 192.600303
L 280.91744 153.177576
L 282.63636 148.797273
L 284.35528 201.360909
L 286.0742 166.318485
L 287.79312 175.079091
L 289.51204 192.600303
L 291.23096 188.22
L 292.94988 192.600303
L 294.6688 205.741212
L 296.38772 196.980606
L 298.10664 214.501818
L 299.82556 218.882121
L 301.54448 188.22
L 303.2634 161.938182
L 304.98232 218.882121
L 306.70124 170.698788
L 308.42016 131.276061
L 310.13908 175.079091
L 311.858 170.698788
L 313.57692 118.135152
L 315.29584 183.839697
L 317.01476 214.501818
L 318.73368 210.121515
L 320.4526 131.276061
L 322.17152 214.501818
L 323.89044 157.557879
L 325.60936 196.980606
L 327.32828 166.318485
L 329.0472 157.557879
L 330.76612 175.079091
L 332.48504 232.02303
L 334.20396 161.938182
L 335.92288 210.121515
L 337.6418 126.895758
L 339.36072 161.938182
L 341.07964 166.318485
L 342.79856 118.135152
L 344.51748 192.600303
L 346.2364 170.698788
L 347.95532 153.177576
L 349.67424 188.22
L 351.39316 109.374545
L 353.11208 166.318485
L 354.831 153.177576
L 358.26884 179.459394
L 359.98776 157.557879
L 363.4256 148.797273
L 365.14452 170.698788
L 366.86344 161.938182
L 368.58236 148.797273
L 370.30128 192.600303
L 372.0202 205.741212
L 373.73912 166.318485
L 375.45804 153.177576
L 377.17696 210.121515
L 378.89588 118.135152
L 380.6148 135.656364
L 382.33372 144.41697
L 384.05264 118.135152
L 385.77156 144.41697
L 387.49048 192.600303
L 389.2094 227.642727
L 390.92832 179.459394
L 392.64724 153.177576
L 394.36616 104.994242
L 396.08508 113.754848
L 397.804 170.698788
L 399.52292 148.797273
L 401.24184 175.079091
L 402.96076 196.980606
L 404.67968 166.318485
L 406.3986 179.459394
L 408.11752 179.459394
L 409.83644 232.02303
L 411.55536 157.557879
L 413.27428 153.177576
L 414.9932 223.262424
L 416.71212 188.22
L 418.43104 201.360909
L 420.14996 183.839697
L 421.86888 179.459394
L 423.5878 161.938182
L 425.30672 140.036667
L 427.02564 140.036667
L 428.74456 153.177576
L 430.46348 122.515455
L 432.1824 201.360909
L 433.90132 104.994242
L 435.62024 140.036667
L 437.33916 148.797273
L 439.05808 126.895758
L 440.777 153.177576
L 442.49592 183.839697
L 444.21484 161.938182
L 445.93376 192.600303
L 447.65268 179.459394
L 449.3716 179.459394
L 451.09052 157.557879
L 452.80944 205.741212
L 454.52836 153.177576
L 456.24728 140.036667
L 457.9662 175.079091
L 461.40404 166.318485
L 463.12296 218.882121
L 464.84188 166.318485
L 466.5608 118.135152
L 468.27972 153.177576
L 469.99864 135.656364
L 471.71756 161.938182
L 473.43648 144.41697
L 475.1554 201.360909
L 476.87432 210.121515
L 478.59324 161.938182
L 482.03108 179.459394
L 482.03108 179.459394
" style="fill:none;stroke:#cc5b46;stroke-linecap:square;stroke-opacity:0.5;"/>
   </g>
   <g id="patch_3">
    <path d="M 54.02 246.04
L 54.02 14.76
" style="fill:none;stroke:#000000;stroke-linecap:square;stroke-linejoin:miter;stroke-width:0.8;"/>
   </g>
   <g id="patch_4">
    <path d="M 54.02 246.04
L 483.75 246.04
" style="fill:none;stroke:#000000;stroke-linecap:square;stroke-linejoin:miter;stroke-width:0.8;"/>
   </g>
   <g id="legend_1">
    <g id="patch_5">
     <path d="M 61.02 52.11625
L 138.22625 52.11625
Q 140.22625 52.11625 140.22625 50.11625
L 140.22625 21.76
Q 140.22625 19.76 138.22625 19.76
L 61.02 19.76
Q 59.02 19.76 59.02 21.76
L 59.02 50.11625
Q 59.02 52.11625 61.02 52.11625
z
" style="fill:#ffffff;opacity:0.8;stroke:#cccccc;stroke-linejoin:miter;"/>
    </g>
    <g id="line2d_31">
     <path d="M 63.02 27.858438
L 83.02 27.858438
" style="fill:none;stroke:#008fd5;stroke-linecap:square;stroke-width:2;"/>
    </g>
    <g id="line2d_32"/>
    <g id="text_16">
     <!-- Free -->
     <defs>
      <path d="M 9.8125 72.90625
L 51.703125 72.90625
L 51.703125 64.59375
L 19.671875 64.59375
L 19.671875 43.109375
L 48.578125 43.109375
L 48.578125 34.8125
L 19.671875 34.8125
L 19.671875 0
L 9.8125 0
z
" id="DejaVuSans-70"/>
     </defs>
     <g transform="translate(91.02 31.358438)scale(0.1 -0.1)">
      <use xlink:href="#DejaVuSans-70"/>
      <use x="57.410156" xlink:href="#DejaVuSans-114"/>
      <use x="98.492188" xlink:href="#DejaVuSans-101"/>
      <use x="160.015625" xlink:href="#DejaVuSans-101"/>
     </g>
    </g>
    <g id="line2d_33">
     <path d="M 63.02 42.536563
L 83.02 42.536563
" style="fill:none;stroke:#fc4f30;stroke-linecap:square;stroke-width:2;"/>
    </g>
    <g id="line2d_34"/>
    <g id="text_17">
     <!-- Strategic -->
     <defs>
      <path d="M 53.515625 70.515625
L 53.515625 60.890625
Q 47.90625 63.578125 42.921875 64.890625
Q 37.9375 66.21875 33.296875 66.21875
Q 25.25 66.21875 20.875 63.09375
Q 16.5 59.96875 16.5 54.203125
Q 16.5 49.359375 19.40625 46.890625
Q 22.3125 44.4375 30.421875 42.921875
L 36.375 41.703125
Q 47.40625 39.59375 52.65625 34.296875
Q 57.90625 29 57.90625 20.125
Q 57.90625 9.515625 50.796875 4.046875
Q 43.703125 -1.421875 29.984375 -1.421875
Q 24.8125 -1.421875 18.96875 -0.25
Q 13.140625 0.921875 6.890625 3.21875
L 6.890625 13.375
Q 12.890625 10.015625 18.65625 8.296875
Q 24.421875 6.59375 29.984375 6.59375
Q 38.421875 6.59375 43.015625 9.90625
Q 47.609375 13.234375 47.609375 19.390625
Q 47.609375 24.75 44.3125 27.78125
Q 41.015625 30.8125 33.5 32.328125
L 27.484375 33.5
Q 16.453125 35.6875 11.515625 40.375
Q 6.59375 45.0625 6.59375 53.421875
Q 6.59375 63.09375 13.40625 68.65625
Q 20.21875 74.21875 32.171875 74.21875
Q 37.3125 74.21875 42.625 73.28125
Q 47.953125 72.359375 53.515625 70.515625
z
" id="DejaVuSans-83"/>
      <path d="M 45.40625 27.984375
Q 45.40625 37.75 41.375 43.109375
Q 37.359375 48.484375 30.078125 48.484375
Q 22.859375 48.484375 18.828125 43.109375
Q 14.796875 37.75 14.796875 27.984375
Q 14.796875 18.265625 18.828125 12.890625
Q 22.859375 7.515625 30.078125 7.515625
Q 37.359375 7.515625 41.375 12.890625
Q 45.40625 18.265625 45.40625 27.984375
z
M 54.390625 6.78125
Q 54.390625 -7.171875 48.1875 -13.984375
Q 42 -20.796875 29.203125 -20.796875
Q 24.46875 -20.796875 20.265625 -20.09375
Q 16.0625 -19.390625 12.109375 -17.921875
L 12.109375 -9.1875
Q 16.0625 -11.328125 19.921875 -12.34375
Q 23.78125 -13.375 27.78125 -13.375
Q 36.625 -13.375 41.015625 -8.765625
Q 45.40625 -4.15625 45.40625 5.171875
L 45.40625 9.625
Q 42.625 4.78125 38.28125 2.390625
Q 33.9375 0 27.875 0
Q 17.828125 0 11.671875 7.65625
Q 5.515625 15.328125 5.515625 27.984375
Q 5.515625 40.671875 11.671875 48.328125
Q 17.828125 56 27.875 56
Q 33.9375 56 38.28125 53.609375
Q 42.625 51.21875 45.40625 46.390625
L 45.40625 54.6875
L 54.390625 54.6875
z
" id="DejaVuSans-103"/>
     </defs>
     <g transform="translate(91.02 46.036563)scale(0.1 -0.1)">
      <use xlink:href="#DejaVuSans-83"/>
      <use x="63.476562" xlink:href="#DejaVuSans-116"/>
      <use x="102.685547" xlink:href="#DejaVuSans-114"/>
      <use x="143.798828" xlink:href="#DejaVuSans-97"/>
      <use x="205.078125" xlink:href="#DejaVuSans-116"/>
      <use x="244.287109" xlink:href="#DejaVuSans-101"/>
      <use x="305.810547" xlink:href="#DejaVuSans-103"/>
      <use x="369.287109" xlink:href="#DejaVuSans-105"/>
      <use x="397.070312" xlink:href="#DejaVuSans-99"/>
     </g>
    </g>
   </g>
  </g>
 </g>
 <defs>
  <clipPath id="p95a7e94fcf">
   <rect height="231.28" width="429.73" x="54.02" y="14.76"/>
  </clipPath>
 </defs>
</svg>
