<?xml version="1.0" encoding="UTF-8"?>
<!DOCTYPE svg  PUBLIC '-//W3C//DTD SVG 1.1//EN'  'http://www.w3.org/Graphics/SVG/1.1/DTD/svg11.dtd'>
<!-- Created with matplotlib (http://matplotlib.org/) -->
<svg width="576pt" height="288pt" version="1.1" viewBox="0 0 576 288" xmlns="http://www.w3.org/2000/svg" xmlns:xlink="http://www.w3.org/1999/xlink">
 <defs>
  <style type="text/css">*{stroke-linecap:butt;stroke-linejoin:round;}</style>
 </defs>
 <g id="figure_1">
  <g id="patch_1">
   <path d="m0 288h576v-288h-576z" fill="#fff"/>
  </g>
  <g id="axes_1">
   <g id="patch_2">
    <path d="m72 256.32h446.4v-221.76h-446.4z" fill="#fff"/>
   </g>
   <g id="matplotlib.axis_1">
    <g id="xtick_1">
     <g id="line2d_1">
      <defs>
       <path id="m164fd3b99a" d="m0 0v3.5" stroke="#000" stroke-width=".8"/>
      </defs>
      <use x="94.29991" y="256.32" stroke="#000000" stroke-width=".8" xlink:href="#m164fd3b99a"/>
     </g>
     <g id="text_1"><!-- -5 -->
      <defs>
       <path id="DejaVuSans-2d" d="m4.8906 31.391h26.312v-8h-26.312z"/>
       <path id="DejaVuSans-35" d="m10.797 72.906h38.719v-8.3125h-29.688v-17.859q2.1406 0.73438 4.2812 1.0938 2.1562 0.35938 4.3125 0.35938 12.203 0 19.328-6.6875 7.1406-6.6875 7.1406-18.109 0-11.766-7.3281-18.297-7.3281-6.5156-20.656-6.5156-4.5938 0-9.3594 0.78125-4.75 0.78125-9.8281 2.3438v9.9219q4.3906-2.3906 9.0781-3.5625t9.9062-1.1719q8.4531 0 13.375 4.4375 4.9375 4.4375 4.9375 12.062 0 7.6094-4.9375 12.047-4.9219 4.4531-13.375 4.4531-3.9531 0-7.8906-0.875-3.9219-0.875-8.0156-2.7344z"/>
      </defs>
      <g transform="translate(89.315 270.92) scale(.1 -.1)">
       <use xlink:href="#DejaVuSans-2d"/>
       <use x="36.083984" xlink:href="#DejaVuSans-35"/>
      </g>
     </g>
    </g>
    <g id="xtick_2">
     <g id="line2d_2">
      <use x="134.479928" y="256.32" stroke="#000000" stroke-width=".8" xlink:href="#m164fd3b99a"/>
     </g>
     <g id="text_2"><!-- -4 -->
      <defs>
       <path id="DejaVuSans-34" d="m37.797 64.312-24.906-38.922h24.906zm-2.5938 8.5938h12.406v-47.516h10.406v-8.2031h-10.406v-17.188h-9.8125v17.188h-32.906v9.5156z"/>
      </defs>
      <g transform="translate(129.49 270.92) scale(.1 -.1)">
       <use xlink:href="#DejaVuSans-2d"/>
       <use x="36.083984" xlink:href="#DejaVuSans-34"/>
      </g>
     </g>
    </g>
    <g id="xtick_3">
     <g id="line2d_3">
      <use x="174.659946" y="256.32" stroke="#000000" stroke-width=".8" xlink:href="#m164fd3b99a"/>
     </g>
     <g id="text_3"><!-- -3 -->
      <defs>
       <path id="DejaVuSans-33" d="m40.578 39.312q7.0781-1.5156 11.047-6.3125 3.9844-4.7812 3.9844-11.812 0-10.781-7.4219-16.703-7.4219-5.9062-21.094-5.9062-4.5781 0-9.4375 0.90625t-10.031 2.7188v9.5156q4.0938-2.3906 8.9688-3.6094 4.8906-1.2188 10.219-1.2188 9.2656 0 14.125 3.6562t4.8594 10.641q0 6.4531-4.5156 10.078-4.5156 3.6406-12.562 3.6406h-8.5v8.1094h8.8906q7.2656 0 11.125 2.9062t3.8594 8.375q0 5.6094-3.9844 8.6094-3.9688 3.0156-11.391 3.0156-4.0625 0-8.7031-0.89062-4.6406-0.875-10.203-2.7188v8.7812q5.625 1.5625 10.531 2.3438t9.25 0.78125q11.234 0 17.766-5.1094 6.5469-5.0938 6.5469-13.781 0-6.0625-3.4688-10.234t-9.8594-5.7812z"/>
      </defs>
      <g transform="translate(169.67 270.92) scale(.1 -.1)">
       <use xlink:href="#DejaVuSans-2d"/>
       <use x="36.083984" xlink:href="#DejaVuSans-33"/>
      </g>
     </g>
    </g>
    <g id="xtick_4">
     <g id="line2d_4">
      <use x="214.839964" y="256.32" stroke="#000000" stroke-width=".8" xlink:href="#m164fd3b99a"/>
     </g>
     <g id="text_4"><!-- -2 -->
      <defs>
       <path id="DejaVuSans-32" d="m19.188 8.2969h34.422v-8.2969h-46.281v8.2969q5.6094 5.8125 15.297 15.594 9.7031 9.7969 12.188 12.641 4.7344 5.3125 6.6094 9 1.8906 3.6875 1.8906 7.25 0 5.8125-4.0781 9.4688-4.0781 3.6719-10.625 3.6719-4.6406 0-9.7969-1.6094-5.1406-1.6094-11-4.8906v9.9688q5.9531 2.3906 11.125 3.6094 5.1875 1.2188 9.4844 1.2188 11.328 0 18.062-5.6719 6.7344-5.6562 6.7344-15.125 0-4.5-1.6875-8.5312-1.6719-4.0156-6.125-9.4844-1.2188-1.4219-7.7656-8.1875-6.5312-6.7656-18.453-18.922z"/>
      </defs>
      <g transform="translate(209.85 270.92) scale(.1 -.1)">
       <use xlink:href="#DejaVuSans-2d"/>
       <use x="36.083984" xlink:href="#DejaVuSans-32"/>
      </g>
     </g>
    </g>
    <g id="xtick_5">
     <g id="line2d_5">
      <use x="255.019982" y="256.32" stroke="#000000" stroke-width=".8" xlink:href="#m164fd3b99a"/>
     </g>
     <g id="text_5"><!-- -1 -->
      <defs>
       <path id="DejaVuSans-31" d="m12.406 8.2969h16.109v55.625l-17.531-3.5156v8.9844l17.438 3.5156h9.8594v-64.609h16.109v-8.2969h-41.984z"/>
      </defs>
      <g transform="translate(250.03 270.92) scale(.1 -.1)">
       <use xlink:href="#DejaVuSans-2d"/>
       <use x="36.083984" xlink:href="#DejaVuSans-31"/>
      </g>
     </g>
    </g>
    <g id="xtick_6">
     <g id="line2d_6">
      <use x="295.2" y="256.32" stroke="#000000" stroke-width=".8" xlink:href="#m164fd3b99a"/>
     </g>
     <g id="text_6"><!-- 0 -->
      <defs>
       <path id="DejaVuSans-30" d="m31.781 66.406q-7.6094 0-11.453-7.5-3.8281-7.4844-3.8281-22.531 0-14.984 3.8281-22.484 3.8438-7.5 11.453-7.5 7.6719 0 11.5 7.5 3.8438 7.5 3.8438 22.484 0 15.047-3.8438 22.531-3.8281 7.5-11.5 7.5zm0 7.8125q12.266 0 18.734-9.7031 6.4688-9.6875 6.4688-28.141 0-18.406-6.4688-28.109-6.4688-9.6875-18.734-9.6875-12.25 0-18.719 9.6875-6.4688 9.7031-6.4688 28.109 0 18.453 6.4688 28.141 6.4688 9.7031 18.719 9.7031z"/>
      </defs>
      <g transform="translate(292.02 270.92) scale(.1 -.1)">
       <use xlink:href="#DejaVuSans-30"/>
      </g>
     </g>
    </g>
    <g id="xtick_7">
     <g id="line2d_7">
      <use x="335.380018" y="256.32" stroke="#000000" stroke-width=".8" xlink:href="#m164fd3b99a"/>
     </g>
     <g id="text_7"><!-- 1 -->
      <g transform="translate(332.2 270.92) scale(.1 -.1)">
       <use xlink:href="#DejaVuSans-31"/>
      </g>
     </g>
    </g>
    <g id="xtick_8">
     <g id="line2d_8">
      <use x="375.560036" y="256.32" stroke="#000000" stroke-width=".8" xlink:href="#m164fd3b99a"/>
     </g>
     <g id="text_8"><!-- 2 -->
      <g transform="translate(372.38 270.92) scale(.1 -.1)">
       <use xlink:href="#DejaVuSans-32"/>
      </g>
     </g>
    </g>
    <g id="xtick_9">
     <g id="line2d_9">
      <use x="415.740054" y="256.32" stroke="#000000" stroke-width=".8" xlink:href="#m164fd3b99a"/>
     </g>
     <g id="text_9"><!-- 3 -->
      <g transform="translate(412.56 270.92) scale(.1 -.1)">
       <use xlink:href="#DejaVuSans-33"/>
      </g>
     </g>
    </g>
    <g id="xtick_10">
     <g id="line2d_10">
      <use x="455.920072" y="256.32" stroke="#000000" stroke-width=".8" xlink:href="#m164fd3b99a"/>
     </g>
     <g id="text_10"><!-- 4 -->
      <g transform="translate(452.74 270.92) scale(.1 -.1)">
       <use xlink:href="#DejaVuSans-34"/>
      </g>
     </g>
    </g>
    <g id="xtick_11">
     <g id="line2d_11">
      <use x="496.10009" y="256.32" stroke="#000000" stroke-width=".8" xlink:href="#m164fd3b99a"/>
     </g>
     <g id="text_11"><!-- 5 -->
      <g transform="translate(492.92 270.92) scale(.1 -.1)">
       <use xlink:href="#DejaVuSans-35"/>
      </g>
     </g>
    </g>
    <g id="text_12"><!-- Trial index relative to task switch -->
     <defs>
      <path id="DejaVuSans-54" d="m-0.29688 72.906h61.672v-8.3125h-25.875v-64.594h-9.9062v64.594h-25.891z"/>
      <path id="DejaVuSans-72" d="m41.109 46.297q-1.5156 0.875-3.2969 1.2812-1.7812 0.42188-3.9219 0.42188-7.625 0-11.703-4.9531t-4.0781-14.234v-28.812h-9.0312v54.688h9.0312v-8.5q2.8438 4.9844 7.375 7.3906 4.5469 2.4219 11.047 2.4219 0.92188 0 2.0469-0.125 1.125-0.10938 2.4844-0.35938z"/>
      <path id="DejaVuSans-69" d="m9.4219 54.688h8.9844v-54.688h-8.9844zm0 21.297h8.9844v-11.391h-8.9844z"/>
      <path id="DejaVuSans-61" d="m34.281 27.484q-10.891 0-15.094-2.4844t-4.2031-8.5q0-4.7812 3.1562-7.5938 3.1562-2.7969 8.5625-2.7969 7.4844 0 12 5.2969t4.5156 14.078v2zm17.922 3.7188v-31.203h-8.9844v8.2969q-3.0781-4.9688-7.6719-7.3438t-11.234-2.375q-8.3906 0-13.359 4.7188-4.9531 4.7188-4.9531 12.625 0 9.2188 6.1719 13.906 6.1875 4.6875 18.438 4.6875h12.609v0.89062q0 6.2031-4.0781 9.5938t-11.453 3.3906q-4.6875 0-9.1406-1.125-4.4375-1.125-8.5312-3.375v8.3125q4.9219 1.9062 9.5625 2.8438 4.6406 0.95312 9.0312 0.95312 11.875 0 17.734-6.1562 5.8594-6.1406 5.8594-18.641z"/>
      <path id="DejaVuSans-6c" d="m9.4219 75.984h8.9844v-75.984h-8.9844z"/>
      <path id="DejaVuSans-6e" d="m54.891 33.016v-33.016h-8.9844v32.719q0 7.7656-3.0312 11.609-3.0312 3.8594-9.0781 3.8594-7.2812 0-11.484-4.6406-4.2031-4.625-4.2031-12.641v-30.906h-9.0312v54.688h9.0312v-8.5q3.2344 4.9375 7.5938 7.375 4.375 2.4375 10.094 2.4375 9.4219 0 14.25-5.8281 4.8438-5.8281 4.8438-17.156z"/>
      <path id="DejaVuSans-64" d="m45.406 46.391v29.594h8.9844v-75.984h-8.9844v8.2031q-2.8281-4.875-7.1562-7.25-4.3125-2.375-10.375-2.375-9.9062 0-16.141 7.9062-6.2188 7.9219-6.2188 20.812t6.2188 20.797q6.2344 7.9062 16.141 7.9062 6.0625 0 10.375-2.375 4.3281-2.3594 7.1562-7.2344zm-30.609-19.094q0-9.9062 4.0781-15.547t11.203-5.6406 11.219 5.6406q4.1094 5.6406 4.1094 15.547t-4.1094 15.547q-4.0938 5.6406-11.219 5.6406t-11.203-5.6406-4.0781-15.547z"/>
      <path id="DejaVuSans-65" d="m56.203 29.594v-4.3906h-41.312q0.59375-9.2812 5.5938-14.141t13.938-4.8594q5.1719 0 10.031 1.2656t9.6562 3.8125v-8.5q-4.8438-2.0469-9.9219-3.125t-10.297-1.0781q-13.094 0-20.734 7.6094-7.6406 7.625-7.6406 20.625 0 13.422 7.25 21.297 7.25 7.8906 19.562 7.8906 11.031 0 17.453-7.1094 6.4219-7.0938 6.4219-19.297zm-8.9844 2.6406q-0.09375 7.3594-4.125 11.75-4.0312 4.4062-10.672 4.4062-7.5156 0-12.031-4.25t-5.2031-11.969z"/>
      <path id="DejaVuSans-78" d="m54.891 54.688-19.781-26.609 20.797-28.078h-10.594l-15.922 21.484-15.906-21.484h-10.609l21.25 28.609-19.438 26.078h10.594l14.5-19.484 14.5 19.484z"/>
      <path id="DejaVuSans-74" d="m18.312 70.219v-15.531h18.5v-6.9844h-18.5v-29.688q0-6.6875 1.8281-8.5938t7.4531-1.9062h9.2188v-7.5156h-9.2188q-10.406 0-14.359 3.875-3.9531 3.8906-3.9531 14.141v29.688h-6.5938v6.9844h6.5938v15.531z"/>
      <path id="DejaVuSans-76" d="m2.9844 54.688h9.5156l17.094-45.891 17.094 45.891h9.5156l-20.516-54.688h-12.203z"/>
      <path id="DejaVuSans-6f" d="m30.609 48.391q-7.2188 0-11.422-5.6406t-4.2031-15.453 4.1719-15.453q4.1875-5.6406 11.453-5.6406 7.1875 0 11.375 5.6562 4.2031 5.6719 4.2031 15.438 0 9.7188-4.2031 15.406-4.1875 5.6875-11.375 5.6875zm0 7.6094q11.719 0 18.406-7.625 6.7031-7.6094 6.7031-21.078 0-13.422-6.7031-21.078-6.6875-7.6406-18.406-7.6406-11.766 0-18.438 7.6406-6.6562 7.6562-6.6562 21.078 0 13.469 6.6562 21.078 6.6719 7.625 18.438 7.625z"/>
      <path id="DejaVuSans-73" d="m44.281 53.078v-8.5q-3.7969 1.9531-7.9062 2.9219-4.0938 0.98438-8.5 0.98438-6.6875 0-10.031-2.0469t-3.3438-6.1562q0-3.125 2.3906-4.9062t9.625-3.3906l3.0781-0.6875q9.5625-2.0469 13.594-5.7812t4.0312-10.422q0-7.625-6.0312-12.078-6.0312-4.4375-16.578-4.4375-4.3906 0-9.1562 0.85938t-10.031 2.5625v9.2812q4.9844-2.5938 9.8125-3.8906 4.8281-1.2812 9.5781-1.2812 6.3438 0 9.75 2.1719 3.4219 2.1719 3.4219 6.125 0 3.6562-2.4688 5.6094-2.4531 1.9531-10.812 3.7656l-3.125 0.73438q-8.3438 1.75-12.062 5.3906-3.7031 3.6406-3.7031 9.9844 0 7.7188 5.4688 11.906 5.4688 4.2031 15.531 4.2031 4.9688 0 9.3594-0.73438 4.4062-0.71875 8.1094-2.1875z"/>
      <path id="DejaVuSans-6b" d="m9.0781 75.984h9.0312v-44.875l26.812 23.578h11.469l-29-25.578 30.234-29.109h-11.719l-27.797 26.703v-26.703h-9.0312z"/>
      <path id="DejaVuSans-77" d="m4.2031 54.688h8.9844l11.234-42.672 11.172 42.672h10.594l11.234-42.672 11.188 42.672h8.9844l-14.312-54.688h-10.594l-11.766 44.828-11.812-44.828h-10.609z"/>
      <path id="DejaVuSans-63" d="m48.781 52.594v-8.4062q-3.8125 2.1094-7.6406 3.1562t-7.7344 1.0469q-8.75 0-13.594-5.5469-4.8281-5.5312-4.8281-15.547t4.8281-15.562q4.8438-5.5312 13.594-5.5312 3.9062 0 7.7344 1.0469t7.6406 3.1562v-8.3125q-3.7656-1.75-7.7969-2.625-4.0156-0.89062-8.5625-0.89062-12.359 0-19.641 7.7656-7.2656 7.7656-7.2656 20.953 0 13.375 7.3438 21.031 7.3594 7.6719 20.156 7.6719 4.1406 0 8.0938-0.85938 3.9531-0.84375 7.6719-2.5469z"/>
      <path id="DejaVuSans-68" d="m54.891 33.016v-33.016h-8.9844v32.719q0 7.7656-3.0312 11.609-3.0312 3.8594-9.0781 3.8594-7.2812 0-11.484-4.6406-4.2031-4.625-4.2031-12.641v-30.906h-9.0312v75.984h9.0312v-29.797q3.2344 4.9375 7.5938 7.375 4.375 2.4375 10.094 2.4375 9.4219 0 14.25-5.8281 4.8438-5.8281 4.8438-17.156z"/>
     </defs>
     <g transform="translate(212.07 284.6) scale(.1 -.1)">
      <use xlink:href="#DejaVuSans-54"/>
      <use x="60.865234" xlink:href="#DejaVuSans-72"/>
      <use x="101.978516" xlink:href="#DejaVuSans-69"/>
      <use x="129.761719" xlink:href="#DejaVuSans-61"/>
      <use x="191.041016" xlink:href="#DejaVuSans-6c"/>
      <use x="218.824219" xlink:href="#DejaVuSans-20"/>
      <use x="250.611328" xlink:href="#DejaVuSans-69"/>
      <use x="278.394531" xlink:href="#DejaVuSans-6e"/>
      <use x="341.773438" xlink:href="#DejaVuSans-64"/>
      <use x="405.25" xlink:href="#DejaVuSans-65"/>
      <use x="466.757812" xlink:href="#DejaVuSans-78"/>
      <use x="525.9375" xlink:href="#DejaVuSans-20"/>
      <use x="557.724609" xlink:href="#DejaVuSans-72"/>
      <use x="598.806641" xlink:href="#DejaVuSans-65"/>
      <use x="660.330078" xlink:href="#DejaVuSans-6c"/>
      <use x="688.113281" xlink:href="#DejaVuSans-61"/>
      <use x="749.392578" xlink:href="#DejaVuSans-74"/>
      <use x="788.601562" xlink:href="#DejaVuSans-69"/>
      <use x="816.384766" xlink:href="#DejaVuSans-76"/>
      <use x="875.564453" xlink:href="#DejaVuSans-65"/>
      <use x="937.087891" xlink:href="#DejaVuSans-20"/>
      <use x="968.875" xlink:href="#DejaVuSans-74"/>
      <use x="1008.083984" xlink:href="#DejaVuSans-6f"/>
      <use x="1069.265625" xlink:href="#DejaVuSans-20"/>
      <use x="1101.052734" xlink:href="#DejaVuSans-74"/>
      <use x="1140.261719" xlink:href="#DejaVuSans-61"/>
      <use x="1201.541016" xlink:href="#DejaVuSans-73"/>
      <use x="1253.640625" xlink:href="#DejaVuSans-6b"/>
      <use x="1311.550781" xlink:href="#DejaVuSans-20"/>
      <use x="1343.337891" xlink:href="#DejaVuSans-73"/>
      <use x="1395.4375" xlink:href="#DejaVuSans-77"/>
      <use x="1477.224609" xlink:href="#DejaVuSans-69"/>
      <use x="1505.007812" xlink:href="#DejaVuSans-74"/>
      <use x="1544.216797" xlink:href="#DejaVuSans-63"/>
      <use x="1599.197266" xlink:href="#DejaVuSans-68"/>
     </g>
    </g>
   </g>
   <g id="matplotlib.axis_2">
    <g id="ytick_1">
     <g id="line2d_12">
      <path d="m72 256.32h446.4" clip-path="url(#p56cd1c969c)" fill="none" stroke="#b0b0b0" stroke-linecap="square" stroke-width=".8"/>
     </g>
     <g id="line2d_13">
      <defs>
       <path id="mafd05ea28a" d="m0 0h-3.5" stroke="#000" stroke-width=".8"/>
      </defs>
      <use x="72" y="256.32" stroke="#000000" stroke-width=".8" xlink:href="#mafd05ea28a"/>
     </g>
     <g id="text_13"><!-- 0.20 -->
      <defs>
       <path id="DejaVuSans-2e" d="m10.688 12.406h10.312v-12.406h-10.312z"/>
      </defs>
      <g transform="translate(42.734 260.12) scale(.1 -.1)">
       <use xlink:href="#DejaVuSans-30"/>
       <use x="63.623047" xlink:href="#DejaVuSans-2e"/>
       <use x="95.410156" xlink:href="#DejaVuSans-32"/>
       <use x="159.033203" xlink:href="#DejaVuSans-30"/>
      </g>
     </g>
    </g>
    <g id="ytick_2">
     <g id="line2d_14">
      <path d="m72 222.72h446.4" clip-path="url(#p56cd1c969c)" fill="none" stroke="#b0b0b0" stroke-linecap="square" stroke-width=".8"/>
     </g>
     <g id="line2d_15">
      <use x="72" y="222.72" stroke="#000000" stroke-width=".8" xlink:href="#mafd05ea28a"/>
     </g>
     <g id="text_14"><!-- 0.25 -->
      <g transform="translate(42.734 226.52) scale(.1 -.1)">
       <use xlink:href="#DejaVuSans-30"/>
       <use x="63.623047" xlink:href="#DejaVuSans-2e"/>
       <use x="95.410156" xlink:href="#DejaVuSans-32"/>
       <use x="159.033203" xlink:href="#DejaVuSans-35"/>
      </g>
     </g>
    </g>
    <g id="ytick_3">
     <g id="line2d_16">
      <path d="m72 189.12h446.4" clip-path="url(#p56cd1c969c)" fill="none" stroke="#b0b0b0" stroke-linecap="square" stroke-width=".8"/>
     </g>
     <g id="line2d_17">
      <use x="72" y="189.12" stroke="#000000" stroke-width=".8" xlink:href="#mafd05ea28a"/>
     </g>
     <g id="text_15"><!-- 0.30 -->
      <g transform="translate(42.734 192.92) scale(.1 -.1)">
       <use xlink:href="#DejaVuSans-30"/>
       <use x="63.623047" xlink:href="#DejaVuSans-2e"/>
       <use x="95.410156" xlink:href="#DejaVuSans-33"/>
       <use x="159.033203" xlink:href="#DejaVuSans-30"/>
      </g>
     </g>
    </g>
    <g id="ytick_4">
     <g id="line2d_18">
      <path d="m72 155.52h446.4" clip-path="url(#p56cd1c969c)" fill="none" stroke="#b0b0b0" stroke-linecap="square" stroke-width=".8"/>
     </g>
     <g id="line2d_19">
      <use x="72" y="155.52" stroke="#000000" stroke-width=".8" xlink:href="#mafd05ea28a"/>
     </g>
     <g id="text_16"><!-- 0.35 -->
      <g transform="translate(42.734 159.32) scale(.1 -.1)">
       <use xlink:href="#DejaVuSans-30"/>
       <use x="63.623047" xlink:href="#DejaVuSans-2e"/>
       <use x="95.410156" xlink:href="#DejaVuSans-33"/>
       <use x="159.033203" xlink:href="#DejaVuSans-35"/>
      </g>
     </g>
    </g>
    <g id="ytick_5">
     <g id="line2d_20">
      <path d="m72 121.92h446.4" clip-path="url(#p56cd1c969c)" fill="none" stroke="#b0b0b0" stroke-linecap="square" stroke-width=".8"/>
     </g>
     <g id="line2d_21">
      <use x="72" y="121.92" stroke="#000000" stroke-width=".8" xlink:href="#mafd05ea28a"/>
     </g>
     <g id="text_17"><!-- 0.40 -->
      <g transform="translate(42.734 125.72) scale(.1 -.1)">
       <use xlink:href="#DejaVuSans-30"/>
       <use x="63.623047" xlink:href="#DejaVuSans-2e"/>
       <use x="95.410156" xlink:href="#DejaVuSans-34"/>
       <use x="159.033203" xlink:href="#DejaVuSans-30"/>
      </g>
     </g>
    </g>
    <g id="ytick_6">
     <g id="line2d_22">
      <path d="m72 88.32h446.4" clip-path="url(#p56cd1c969c)" fill="none" stroke="#b0b0b0" stroke-linecap="square" stroke-width=".8"/>
     </g>
     <g id="line2d_23">
      <use x="72" y="88.32" stroke="#000000" stroke-width=".8" xlink:href="#mafd05ea28a"/>
     </g>
     <g id="text_18"><!-- 0.45 -->
      <g transform="translate(42.734 92.119) scale(.1 -.1)">
       <use xlink:href="#DejaVuSans-30"/>
       <use x="63.623047" xlink:href="#DejaVuSans-2e"/>
       <use x="95.410156" xlink:href="#DejaVuSans-34"/>
       <use x="159.033203" xlink:href="#DejaVuSans-35"/>
      </g>
     </g>
    </g>
    <g id="ytick_7">
     <g id="line2d_24">
      <path d="m72 54.72h446.4" clip-path="url(#p56cd1c969c)" fill="none" stroke="#b0b0b0" stroke-linecap="square" stroke-width=".8"/>
     </g>
     <g id="line2d_25">
      <use x="72" y="54.72" stroke="#000000" stroke-width=".8" xlink:href="#mafd05ea28a"/>
     </g>
     <g id="text_19"><!-- 0.50 -->
      <g transform="translate(42.734 58.519) scale(.1 -.1)">
       <use xlink:href="#DejaVuSans-30"/>
       <use x="63.623047" xlink:href="#DejaVuSans-2e"/>
       <use x="95.410156" xlink:href="#DejaVuSans-35"/>
       <use x="159.033203" xlink:href="#DejaVuSans-30"/>
      </g>
     </g>
    </g>
    <g id="text_20"><!-- Probability of error -->
     <defs>
      <path id="DejaVuSans-50" d="m19.672 64.797v-27.391h12.406q6.8906 0 10.641 3.5625 3.7656 3.5625 3.7656 10.156 0 6.5469-3.7656 10.109-3.75 3.5625-10.641 3.5625zm-9.8594 8.1094h22.266q12.266 0 18.531-5.5469 6.2812-5.5469 6.2812-16.234 0-10.797-6.2812-16.312-6.2656-5.5156-18.531-5.5156h-12.406v-29.297h-9.8594z"/>
      <path id="DejaVuSans-62" d="m48.688 27.297q0 9.9062-4.0781 15.547t-11.203 5.6406q-7.1406 0-11.219-5.6406t-4.0781-15.547 4.0781-15.547 11.219-5.6406q7.125 0 11.203 5.6406t4.0781 15.547zm-30.578 19.094q2.8438 4.875 7.1562 7.2344 4.3281 2.375 10.328 2.375 9.9688 0 16.188-7.9062 6.2344-7.9062 6.2344-20.797t-6.2344-20.812q-6.2188-7.9062-16.188-7.9062-6 0-10.328 2.375-4.3125 2.375-7.1562 7.25v-8.2031h-9.0312v75.984h9.0312z"/>
      <path id="DejaVuSans-79" d="m32.172-5.0781q-3.7969-9.7656-7.4219-12.734-3.6094-2.9844-9.6562-2.9844h-7.1875v7.5156h5.2812q3.7031 0 5.75 1.7656 2.0625 1.75 4.5469 8.2969l1.6094 4.0938-22.109 53.812h9.5156l17.094-42.766 17.094 42.766h9.5156z"/>
      <path id="DejaVuSans-66" d="m37.109 75.984v-7.4844h-8.5938q-4.8281 0-6.7188-1.9531-1.875-1.9531-1.875-7.0312v-4.8281h14.797v-6.9844h-14.797v-47.703h-9.0312v47.703h-8.5938v6.9844h8.5938v3.8125q0 9.125 4.25 13.297 4.25 4.1875 13.469 4.1875z"/>
     </defs>
     <g transform="translate(36.655 192.36) rotate(-90) scale(.1 -.1)">
      <use xlink:href="#DejaVuSans-50"/>
      <use x="60.287109" xlink:href="#DejaVuSans-72"/>
      <use x="101.369141" xlink:href="#DejaVuSans-6f"/>
      <use x="162.550781" xlink:href="#DejaVuSans-62"/>
      <use x="226.027344" xlink:href="#DejaVuSans-61"/>
      <use x="287.306641" xlink:href="#DejaVuSans-62"/>
      <use x="350.783203" xlink:href="#DejaVuSans-69"/>
      <use x="378.566406" xlink:href="#DejaVuSans-6c"/>
      <use x="406.349609" xlink:href="#DejaVuSans-69"/>
      <use x="434.132812" xlink:href="#DejaVuSans-74"/>
      <use x="473.341797" xlink:href="#DejaVuSans-79"/>
      <use x="532.521484" xlink:href="#DejaVuSans-20"/>
      <use x="564.308594" xlink:href="#DejaVuSans-6f"/>
      <use x="625.490234" xlink:href="#DejaVuSans-66"/>
      <use x="660.695312" xlink:href="#DejaVuSans-20"/>
      <use x="692.482422" xlink:href="#DejaVuSans-65"/>
      <use x="754.005859" xlink:href="#DejaVuSans-72"/>
      <use x="795.103516" xlink:href="#DejaVuSans-72"/>
      <use x="836.185547" xlink:href="#DejaVuSans-6f"/>
      <use x="897.367188" xlink:href="#DejaVuSans-72"/>
     </g>
    </g>
   </g>
   <g id="LineCollection_1" fill="none" stroke="#008fd5" stroke-width="1.5">
    <path d="m96.309 209.88v-27.292" clip-path="url(#p56cd1c969c)"/>
    <path d="m136.49 211.45v-27.643" clip-path="url(#p56cd1c969c)"/>
    <path d="m176.67 212.56v-28.002" clip-path="url(#p56cd1c969c)"/>
    <path d="m216.85 180.44v-31.244" clip-path="url(#p56cd1c969c)"/>
    <path d="m257.03 92.222v-30.869" clip-path="url(#p56cd1c969c)"/>
   </g>
   <g id="LineCollection_2" fill="none" stroke="#008fd5" stroke-width="1.5">
    <path d="m337.39 138.78v-27.292" clip-path="url(#p56cd1c969c)"/>
    <path d="m377.57 158.53v-27.643" clip-path="url(#p56cd1c969c)"/>
    <path d="m417.75 184.25v-28.002" clip-path="url(#p56cd1c969c)"/>
    <path d="m457.93 194.85v-31.244" clip-path="url(#p56cd1c969c)"/>
    <path d="m498.11 192.24v-30.869" clip-path="url(#p56cd1c969c)"/>
   </g>
   <g id="LineCollection_3" fill="none" stroke="#fc4f30" stroke-width="1.5">
    <path d="m92.291 210.66v-23.563" clip-path="url(#p56cd1c969c)"/>
    <path d="m132.47 209.73v-22.989" clip-path="url(#p56cd1c969c)"/>
    <path d="m172.65 235.47v-23.825" clip-path="url(#p56cd1c969c)"/>
    <path d="m212.83 201.31v-24.691" clip-path="url(#p56cd1c969c)"/>
    <path d="m253.01 134.66v-28.3" clip-path="url(#p56cd1c969c)"/>
   </g>
   <g id="LineCollection_4" fill="none" stroke="#fc4f30" stroke-width="1.5">
    <path d="m333.37 145.36v-23.563" clip-path="url(#p56cd1c969c)"/>
    <path d="m373.55 181.12v-22.989" clip-path="url(#p56cd1c969c)"/>
    <path d="m413.73 177.54v-23.825" clip-path="url(#p56cd1c969c)"/>
    <path d="m453.91 188.24v-24.691" clip-path="url(#p56cd1c969c)"/>
    <path d="m494.09 189.73v-28.3" clip-path="url(#p56cd1c969c)"/>
   </g>
   <g id="line2d_26">
    <path d="m295.2 256.32v-221.76" clip-path="url(#p56cd1c969c)" fill="none" stroke="#000" stroke-dasharray="3.7,1.6"/>
   </g>
   <g id="line2d_27">
    <path d="m96.309 196.23 40.18 1.3968 40.18 0.93165 40.18-33.739 40.18-88.032" clip-path="url(#p56cd1c969c)" fill="none" stroke="#008fd5" stroke-linecap="square" stroke-width="1.5"/>
    <defs>
     <path id="mef4df93243" d="m-3 3h6v-6h-6z" stroke="#008fd5"/>
    </defs>
    <g clip-path="url(#p56cd1c969c)" fill="#008fd5" stroke="#008fd5">
     <use x="96.308911" y="196.229908" xlink:href="#mef4df93243"/>
     <use x="136.488929" y="197.626742" xlink:href="#mef4df93243"/>
     <use x="176.668947" y="198.558392" xlink:href="#mef4df93243"/>
     <use x="216.848965" y="164.819658" xlink:href="#mef4df93243"/>
     <use x="257.028983" y="76.787387" xlink:href="#mef4df93243"/>
    </g>
   </g>
   <g id="line2d_28" stroke="#008fd5">
    <path d="m337.39 125.14 40.18 19.569 40.18 25.541 40.18 8.9835 40.18-2.4258" clip-path="url(#p56cd1c969c)" fill="none" stroke-linecap="square" stroke-width="1.5"/>
    <g clip-path="url(#p56cd1c969c)" fill="#008fd5">
     <use x="337.389019" y="125.136069" xlink:href="#mef4df93243"/>
     <use x="377.569037" y="144.705166" xlink:href="#mef4df93243"/>
     <use x="417.749055" y="170.245917" xlink:href="#mef4df93243"/>
     <use x="457.929073" y="179.229418" xlink:href="#mef4df93243"/>
     <use x="498.109091" y="176.803613" xlink:href="#mef4df93243"/>
    </g>
   </g>
   <g id="line2d_29">
    <path d="m92.291 198.88 40.18-0.64422 40.18 25.319 40.18-34.596 40.18-68.452" clip-path="url(#p56cd1c969c)" fill="none" stroke="#fc4f30" stroke-linecap="square" stroke-width="1.5"/>
    <defs>
     <path id="m1ed94a8f43" d="m0 3c0.79561 0 1.5587-0.3161 2.1213-0.87868 0.56258-0.56258 0.87868-1.3257 0.87868-2.1213s-0.3161-1.5587-0.87868-2.1213c-0.56258-0.56258-1.3257-0.87868-2.1213-0.87868s-1.5587 0.3161-2.1213 0.87868c-0.56258 0.56258-0.87868 1.3257-0.87868 2.1213s0.3161 1.5587 0.87868 2.1213c0.56258 0.56258 1.3257 0.87868 2.1213 0.87868z" stroke="#fc4f30"/>
    </defs>
    <g clip-path="url(#p56cd1c969c)" fill="#fc4f30" stroke="#fc4f30">
     <use x="92.290909" y="198.882948" xlink:href="#m1ed94a8f43"/>
     <use x="132.470927" y="198.238733" xlink:href="#m1ed94a8f43"/>
     <use x="172.650945" y="223.557328" xlink:href="#m1ed94a8f43"/>
     <use x="212.830963" y="188.961736" xlink:href="#m1ed94a8f43"/>
     <use x="253.010981" y="120.509945" xlink:href="#m1ed94a8f43"/>
    </g>
   </g>
   <g id="line2d_30" stroke="#fc4f30">
    <path d="m333.37 133.58 40.18 36.047 40.18-4.0043 40.18 10.27 40.18-0.31584" clip-path="url(#p56cd1c969c)" fill="none" stroke-linecap="square" stroke-width="1.5"/>
    <g clip-path="url(#p56cd1c969c)" fill="#fc4f30">
     <use x="333.371017" y="133.583223" xlink:href="#m1ed94a8f43"/>
     <use x="373.551035" y="169.62978" xlink:href="#m1ed94a8f43"/>
     <use x="413.731053" y="165.62551" xlink:href="#m1ed94a8f43"/>
     <use x="453.911071" y="175.895482" xlink:href="#m1ed94a8f43"/>
     <use x="494.091089" y="175.579642" xlink:href="#m1ed94a8f43"/>
    </g>
   </g>
   <g id="patch_3">
    <path d="m72 256.32h446.4" fill="none" stroke="#000" stroke-linecap="square" stroke-width=".8"/>
   </g>
   <g id="legend_1">
    <g id="patch_4">
     <path d="m473.05 71.916h38.348q2 0 2-2v-28.356q0-2-2-2h-38.348q-2 0-2 2v28.356q0 2 2 2z" fill="#fff" opacity=".8" stroke="#ccc"/>
    </g>
    <g id="LineCollection_5">
     <path d="m485.05 52.658v-10" fill="none" stroke="#008fd5" stroke-width="1.5"/>
    </g>
    <g id="line2d_31">
     <path d="m475.05 47.658h20" fill="none" stroke="#008fd5" stroke-linecap="square" stroke-width="1.5"/>
    </g>
    <g id="line2d_32">
     <use x="485.051562" y="47.658437" fill="#008fd5" stroke="#008fd5" xlink:href="#mef4df93243"/>
    </g>
    <g id="text_21"><!-- F -->
     <defs>
      <path id="DejaVuSans-46" d="m9.8125 72.906h41.891v-8.3125h-32.031v-21.484h28.906v-8.2969h-28.906v-34.812h-9.8594z"/>
     </defs>
     <g transform="translate(503.05 51.158) scale(.1 -.1)">
      <use xlink:href="#DejaVuSans-46"/>
     </g>
    </g>
    <g id="LineCollection_6">
     <path d="m485.05 67.337v-10" fill="none" stroke="#fc4f30" stroke-width="1.5"/>
    </g>
    <g id="line2d_33">
     <path d="m475.05 62.337h20" fill="none" stroke="#fc4f30" stroke-linecap="square" stroke-width="1.5"/>
    </g>
    <g id="line2d_34">
     <use x="485.051562" y="62.336562" fill="#fc4f30" stroke="#fc4f30" xlink:href="#m1ed94a8f43"/>
    </g>
    <g id="text_22"><!-- S -->
     <defs>
      <path id="DejaVuSans-53" d="m53.516 70.516v-9.625q-5.6094 2.6875-10.594 4-4.9844 1.3281-9.625 1.3281-8.0469 0-12.422-3.125t-4.375-8.8906q0-4.8438 2.9062-7.3125 2.9062-2.4531 11.016-3.9688l5.9531-1.2188q11.031-2.1094 16.281-7.4062t5.25-14.172q0-10.609-7.1094-16.078-7.0938-5.4688-20.812-5.4688-5.1719 0-11.016 1.1719-5.8281 1.1719-12.078 3.4688v10.156q6-3.3594 11.766-5.0781 5.7656-1.7031 11.328-1.7031 8.4375 0 13.031 3.3125 4.5938 3.3281 4.5938 9.4844 0 5.3594-3.2969 8.3906t-10.812 4.5469l-6.0156 1.1719q-11.031 2.1875-15.969 6.875-4.9219 4.6875-4.9219 13.047 0 9.6719 6.8125 15.234t18.766 5.5625q5.1406 0 10.453-0.9375 5.3281-0.92188 10.891-2.7656z"/>
     </defs>
     <g transform="translate(503.05 65.837) scale(.1 -.1)">
      <use xlink:href="#DejaVuSans-53"/>
     </g>
    </g>
   </g>
  </g>
 </g>
 <defs>
  <clipPath id="p56cd1c969c">
   <rect x="72" y="34.56" width="446.4" height="221.76"/>
  </clipPath>
 </defs>
</svg>
