<?xml version="1.0" encoding="UTF-8"?>
<!DOCTYPE svg  PUBLIC '-//W3C//DTD SVG 1.1//EN'  'http://www.w3.org/Graphics/SVG/1.1/DTD/svg11.dtd'>
<!-- Created with matplotlib (http://matplotlib.org/) -->
<svg width="360pt" height="360pt" version="1.1" viewBox="0 0 360 360" xmlns="http://www.w3.org/2000/svg" xmlns:xlink="http://www.w3.org/1999/xlink">
 <defs>
  <style type="text/css">*{stroke-linecap:butt;stroke-linejoin:round;}</style>
 </defs>
 <g id="figure_1">
  <g id="patch_1">
   <path d="m0 360h360v-360h-360z" fill="#fff"/>
  </g>
  <g id="axes_1">
   <g id="patch_2">
    <path d="m50.87 318.04h295.81v-304.72h-295.81z" fill="#fff"/>
   </g>
   <g id="matplotlib.axis_1">
    <g id="xtick_1">
     <g id="line2d_1">
      <defs>
       <path id="m81aabc9152" d="m0 0v3.5" stroke="#000" stroke-width=".8"/>
      </defs>
      <use x="68.232193" y="318.04" stroke="#000000" stroke-width=".8" xlink:href="#m81aabc9152"/>
     </g>
     <g id="text_1"><!-- 1D -->
      <defs>
       <path id="DejaVuSans-31" d="m12.406 8.2969h16.109v55.625l-17.531-3.5156v8.9844l17.438 3.5156h9.8594v-64.609h16.109v-8.2969h-41.984z"/>
       <path id="DejaVuSans-44" d="m19.672 64.797v-56.688h11.922q15.094 0 22.094 6.8281 7 6.8438 7 21.594 0 14.641-7 21.453t-22.094 6.8125zm-9.8594 8.1094h20.266q21.188 0 31.094-8.8125 9.9219-8.8125 9.9219-27.562 0-18.859-9.9688-27.703-9.9531-8.8281-31.047-8.8281h-20.266z"/>
      </defs>
      <g transform="translate(61.201 332.64) scale(.1 -.1)">
       <use xlink:href="#DejaVuSans-31"/>
       <use x="63.623047" xlink:href="#DejaVuSans-44"/>
      </g>
     </g>
    </g>
    <g id="xtick_2">
     <g id="line2d_2">
      <use x="198.775" y="318.04" stroke="#000000" stroke-width=".8" xlink:href="#m81aabc9152"/>
     </g>
     <g id="text_2"><!-- I1D -->
      <defs>
       <path id="DejaVuSans-49" d="m9.8125 72.906h9.8594v-72.906h-9.8594z"/>
      </defs>
      <g transform="translate(190.27 332.64) scale(.1 -.1)">
       <use xlink:href="#DejaVuSans-49"/>
       <use x="29.492188" xlink:href="#DejaVuSans-31"/>
       <use x="93.115234" xlink:href="#DejaVuSans-44"/>
      </g>
     </g>
    </g>
    <g id="xtick_3">
     <g id="line2d_3">
      <use x="329.317807" y="318.04" stroke="#000000" stroke-width=".8" xlink:href="#m81aabc9152"/>
     </g>
     <g id="text_3"><!-- 2D -->
      <defs>
       <path id="DejaVuSans-32" d="m19.188 8.2969h34.422v-8.2969h-46.281v8.2969q5.6094 5.8125 15.297 15.594 9.7031 9.7969 12.188 12.641 4.7344 5.3125 6.6094 9 1.8906 3.6875 1.8906 7.25 0 5.8125-4.0781 9.4688-4.0781 3.6719-10.625 3.6719-4.6406 0-9.7969-1.6094-5.1406-1.6094-11-4.8906v9.9688q5.9531 2.3906 11.125 3.6094 5.1875 1.2188 9.4844 1.2188 11.328 0 18.062-5.6719 6.7344-5.6562 6.7344-15.125 0-4.5-1.6875-8.5312-1.6719-4.0156-6.125-9.4844-1.2188-1.4219-7.7656-8.1875-6.5312-6.7656-18.453-18.922z"/>
      </defs>
      <g transform="translate(322.29 332.64) scale(.1 -.1)">
       <use xlink:href="#DejaVuSans-32"/>
       <use x="63.623047" xlink:href="#DejaVuSans-44"/>
      </g>
     </g>
    </g>
    <g id="text_4"><!-- Task -->
     <defs>
      <path id="DejaVuSans-54" d="m-0.29688 72.906h61.672v-8.3125h-25.875v-64.594h-9.9062v64.594h-25.891z"/>
      <path id="DejaVuSans-61" d="m34.281 27.484q-10.891 0-15.094-2.4844t-4.2031-8.5q0-4.7812 3.1562-7.5938 3.1562-2.7969 8.5625-2.7969 7.4844 0 12 5.2969t4.5156 14.078v2zm17.922 3.7188v-31.203h-8.9844v8.2969q-3.0781-4.9688-7.6719-7.3438t-11.234-2.375q-8.3906 0-13.359 4.7188-4.9531 4.7188-4.9531 12.625 0 9.2188 6.1719 13.906 6.1875 4.6875 18.438 4.6875h12.609v0.89062q0 6.2031-4.0781 9.5938t-11.453 3.3906q-4.6875 0-9.1406-1.125-4.4375-1.125-8.5312-3.375v8.3125q4.9219 1.9062 9.5625 2.8438 4.6406 0.95312 9.0312 0.95312 11.875 0 17.734-6.1562 5.8594-6.1406 5.8594-18.641z"/>
      <path id="DejaVuSans-73" d="m44.281 53.078v-8.5q-3.7969 1.9531-7.9062 2.9219-4.0938 0.98438-8.5 0.98438-6.6875 0-10.031-2.0469t-3.3438-6.1562q0-3.125 2.3906-4.9062t9.625-3.3906l3.0781-0.6875q9.5625-2.0469 13.594-5.7812t4.0312-10.422q0-7.625-6.0312-12.078-6.0312-4.4375-16.578-4.4375-4.3906 0-9.1562 0.85938t-10.031 2.5625v9.2812q4.9844-2.5938 9.8125-3.8906 4.8281-1.2812 9.5781-1.2812 6.3438 0 9.75 2.1719 3.4219 2.1719 3.4219 6.125 0 3.6562-2.4688 5.6094-2.4531 1.9531-10.812 3.7656l-3.125 0.73438q-8.3438 1.75-12.062 5.3906-3.7031 3.6406-3.7031 9.9844 0 7.7188 5.4688 11.906 5.4688 4.2031 15.531 4.2031 4.9688 0 9.3594-0.73438 4.4062-0.71875 8.1094-2.1875z"/>
      <path id="DejaVuSans-6b" d="m9.0781 75.984h9.0312v-44.875l26.812 23.578h11.469l-29-25.578 30.234-29.109h-11.719l-27.797 26.703v-26.703h-9.0312z"/>
     </defs>
     <g transform="translate(187.17 346.32) scale(.1 -.1)">
      <use xlink:href="#DejaVuSans-54"/>
      <use x="60.833984" xlink:href="#DejaVuSans-61"/>
      <use x="122.113281" xlink:href="#DejaVuSans-73"/>
      <use x="174.212891" xlink:href="#DejaVuSans-6b"/>
     </g>
    </g>
   </g>
   <g id="matplotlib.axis_2">
    <g id="ytick_1">
     <g id="line2d_4">
      <path d="m50.87 279.81h295.81" clip-path="url(#p0a5daf8477)" fill="none" stroke="#b0b0b0" stroke-linecap="square" stroke-width=".8"/>
     </g>
     <g id="line2d_5">
      <defs>
       <path id="m0cb5bf876e" d="m0 0h-3.5" stroke="#000" stroke-width=".8"/>
      </defs>
      <use x="50.87" y="279.806626" stroke="#000000" stroke-width=".8" xlink:href="#m0cb5bf876e"/>
     </g>
     <g id="text_5"><!-- 40 -->
      <defs>
       <path id="DejaVuSans-34" d="m37.797 64.312-24.906-38.922h24.906zm-2.5938 8.5938h12.406v-47.516h10.406v-8.2031h-10.406v-17.188h-9.8125v17.188h-32.906v9.5156z"/>
       <path id="DejaVuSans-30" d="m31.781 66.406q-7.6094 0-11.453-7.5-3.8281-7.4844-3.8281-22.531 0-14.984 3.8281-22.484 3.8438-7.5 11.453-7.5 7.6719 0 11.5 7.5 3.8438 7.5 3.8438 22.484 0 15.047-3.8438 22.531-3.8281 7.5-11.5 7.5zm0 7.8125q12.266 0 18.734-9.7031 6.4688-9.6875 6.4688-28.141 0-18.406-6.4688-28.109-6.4688-9.6875-18.734-9.6875-12.25 0-18.719 9.6875-6.4688 9.7031-6.4688 28.109 0 18.453 6.4688 28.141 6.4688 9.7031 18.719 9.7031z"/>
      </defs>
      <g transform="translate(31.145 283.61) scale(.1 -.1)">
       <use xlink:href="#DejaVuSans-34"/>
       <use x="63.623047" xlink:href="#DejaVuSans-30"/>
      </g>
     </g>
    </g>
    <g id="ytick_2">
     <g id="line2d_6">
      <path d="m50.87 240.9h295.81" clip-path="url(#p0a5daf8477)" fill="none" stroke="#b0b0b0" stroke-linecap="square" stroke-width=".8"/>
     </g>
     <g id="line2d_7">
      <use x="50.87" y="240.899017" stroke="#000000" stroke-width=".8" xlink:href="#m0cb5bf876e"/>
     </g>
     <g id="text_6"><!-- 50 -->
      <defs>
       <path id="DejaVuSans-35" d="m10.797 72.906h38.719v-8.3125h-29.688v-17.859q2.1406 0.73438 4.2812 1.0938 2.1562 0.35938 4.3125 0.35938 12.203 0 19.328-6.6875 7.1406-6.6875 7.1406-18.109 0-11.766-7.3281-18.297-7.3281-6.5156-20.656-6.5156-4.5938 0-9.3594 0.78125-4.75 0.78125-9.8281 2.3438v9.9219q4.3906-2.3906 9.0781-3.5625t9.9062-1.1719q8.4531 0 13.375 4.4375 4.9375 4.4375 4.9375 12.062 0 7.6094-4.9375 12.047-4.9219 4.4531-13.375 4.4531-3.9531 0-7.8906-0.875-3.9219-0.875-8.0156-2.7344z"/>
      </defs>
      <g transform="translate(31.145 244.7) scale(.1 -.1)">
       <use xlink:href="#DejaVuSans-35"/>
       <use x="63.623047" xlink:href="#DejaVuSans-30"/>
      </g>
     </g>
    </g>
    <g id="ytick_3">
     <g id="line2d_8">
      <path d="m50.87 201.99h295.81" clip-path="url(#p0a5daf8477)" fill="none" stroke="#b0b0b0" stroke-linecap="square" stroke-width=".8"/>
     </g>
     <g id="line2d_9">
      <use x="50.87" y="201.991409" stroke="#000000" stroke-width=".8" xlink:href="#m0cb5bf876e"/>
     </g>
     <g id="text_7"><!-- 60 -->
      <defs>
       <path id="DejaVuSans-36" d="m33.016 40.375q-6.6406 0-10.531-4.5469-3.875-4.5312-3.875-12.438 0-7.8594 3.875-12.438 3.8906-4.5625 10.531-4.5625t10.516 4.5625q3.875 4.5781 3.875 12.438 0 7.9062-3.875 12.438-3.875 4.5469-10.516 4.5469zm19.578 30.922v-8.9844q-3.7188 1.75-7.5 2.6719-3.7812 0.9375-7.5 0.9375-9.7656 0-14.922-6.5938-5.1406-6.5938-5.875-19.922 2.875 4.25 7.2188 6.5156 4.3594 2.2656 9.5781 2.2656 10.984 0 17.359-6.6719 6.375-6.6562 6.375-18.125 0-11.234-6.6406-18.031-6.6406-6.7812-17.672-6.7812-12.656 0-19.344 9.6875-6.6875 9.7031-6.6875 28.109 0 17.281 8.2031 27.562t22.016 10.281q3.7188 0 7.5-0.73438t7.8906-2.1875z"/>
      </defs>
      <g transform="translate(31.145 205.79) scale(.1 -.1)">
       <use xlink:href="#DejaVuSans-36"/>
       <use x="63.623047" xlink:href="#DejaVuSans-30"/>
      </g>
     </g>
    </g>
    <g id="ytick_4">
     <g id="line2d_10">
      <path d="m50.87 163.08h295.81" clip-path="url(#p0a5daf8477)" fill="none" stroke="#b0b0b0" stroke-linecap="square" stroke-width=".8"/>
     </g>
     <g id="line2d_11">
      <use x="50.87" y="163.0838" stroke="#000000" stroke-width=".8" xlink:href="#m0cb5bf876e"/>
     </g>
     <g id="text_8"><!-- 70 -->
      <defs>
       <path id="DejaVuSans-37" d="m8.2031 72.906h46.875v-4.2031l-26.469-68.703h-10.297l24.906 64.594h-35.016z"/>
      </defs>
      <g transform="translate(31.145 166.88) scale(.1 -.1)">
       <use xlink:href="#DejaVuSans-37"/>
       <use x="63.623047" xlink:href="#DejaVuSans-30"/>
      </g>
     </g>
    </g>
    <g id="ytick_5">
     <g id="line2d_12">
      <path d="m50.87 124.18h295.81" clip-path="url(#p0a5daf8477)" fill="none" stroke="#b0b0b0" stroke-linecap="square" stroke-width=".8"/>
     </g>
     <g id="line2d_13">
      <use x="50.87" y="124.176192" stroke="#000000" stroke-width=".8" xlink:href="#m0cb5bf876e"/>
     </g>
     <g id="text_9"><!-- 80 -->
      <defs>
       <path id="DejaVuSans-38" d="m31.781 34.625q-7.0312 0-11.062-3.7656-4.0156-3.7656-4.0156-10.344 0-6.5938 4.0156-10.359 4.0312-3.7656 11.062-3.7656t11.078 3.7812q4.0625 3.7969 4.0625 10.344 0 6.5781-4.0312 10.344-4.0156 3.7656-11.109 3.7656zm-9.8594 4.1875q-6.3438 1.5625-9.8906 5.9062-3.5312 4.3594-3.5312 10.609 0 8.7344 6.2188 13.812 6.2344 5.0781 17.062 5.0781 10.891 0 17.094-5.0781t6.2031-13.812q0-6.25-3.5469-10.609-3.5312-4.3438-9.8281-5.9062 7.125-1.6562 11.094-6.5 3.9844-4.8281 3.9844-11.797 0-10.609-6.4688-16.281-6.4688-5.6562-18.531-5.6562-12.047 0-18.531 5.6562-6.4688 5.6719-6.4688 16.281 0 6.9688 4 11.797 4.0156 4.8438 11.141 6.5zm-3.6094 15.578q0-5.6562 3.5312-8.8281 3.5469-3.1719 9.9375-3.1719 6.3594 0 9.9375 3.1719 3.5938 3.1719 3.5938 8.8281 0 5.6719-3.5938 8.8438-3.5781 3.1719-9.9375 3.1719-6.3906 0-9.9375-3.1719-3.5312-3.1719-3.5312-8.8438z"/>
      </defs>
      <g transform="translate(31.145 127.98) scale(.1 -.1)">
       <use xlink:href="#DejaVuSans-38"/>
       <use x="63.623047" xlink:href="#DejaVuSans-30"/>
      </g>
     </g>
    </g>
    <g id="ytick_6">
     <g id="line2d_14">
      <path d="m50.87 85.269h295.81" clip-path="url(#p0a5daf8477)" fill="none" stroke="#b0b0b0" stroke-linecap="square" stroke-width=".8"/>
     </g>
     <g id="line2d_15">
      <use x="50.87" y="85.268584" stroke="#000000" stroke-width=".8" xlink:href="#m0cb5bf876e"/>
     </g>
     <g id="text_10"><!-- 90 -->
      <defs>
       <path id="DejaVuSans-39" d="m10.984 1.5156v8.9844q3.7188-1.7656 7.5156-2.6875 3.8125-0.92188 7.4844-0.92188 9.7656 0 14.906 6.5625 5.1562 6.5625 5.8906 19.953-2.8281-4.2031-7.1875-6.4531-4.3438-2.25-9.6094-2.25-10.938 0-17.312 6.6094-6.375 6.625-6.375 18.109 0 11.219 6.6406 18 6.6406 6.7969 17.672 6.7969 12.656 0 19.312-9.7031 6.6719-9.6875 6.6719-28.141 0-17.234-8.1875-27.516-8.1719-10.281-21.984-10.281-3.7188 0-7.5312 0.73438-3.7969 0.73438-7.9062 2.2031zm19.625 30.906q6.6406 0 10.516 4.5312 3.8906 4.5469 3.8906 12.469 0 7.8594-3.8906 12.422-3.875 4.5625-10.516 4.5625t-10.516-4.5625-3.875-12.422q0-7.9219 3.875-12.469 3.875-4.5312 10.516-4.5312z"/>
      </defs>
      <g transform="translate(31.145 89.068) scale(.1 -.1)">
       <use xlink:href="#DejaVuSans-39"/>
       <use x="63.623047" xlink:href="#DejaVuSans-30"/>
      </g>
     </g>
    </g>
    <g id="ytick_7">
     <g id="line2d_16">
      <path d="m50.87 46.361h295.81" clip-path="url(#p0a5daf8477)" fill="none" stroke="#b0b0b0" stroke-linecap="square" stroke-width=".8"/>
     </g>
     <g id="line2d_17">
      <use x="50.87" y="46.360975" stroke="#000000" stroke-width=".8" xlink:href="#m0cb5bf876e"/>
     </g>
     <g id="text_11"><!-- 100 -->
      <g transform="translate(24.782 50.16) scale(.1 -.1)">
       <use xlink:href="#DejaVuSans-31"/>
       <use x="63.623047" xlink:href="#DejaVuSans-30"/>
       <use x="127.246094" xlink:href="#DejaVuSans-30"/>
      </g>
     </g>
    </g>
    <g id="text_12"><!-- Time of first learning point -->
     <defs>
      <path id="DejaVuSans-69" d="m9.4219 54.688h8.9844v-54.688h-8.9844zm0 21.297h8.9844v-11.391h-8.9844z"/>
      <path id="DejaVuSans-6d" d="m52 44.188q3.375 6.0625 8.0625 8.9375t11.031 2.875q8.5469 0 13.188-5.9844 4.6406-5.9688 4.6406-17v-33.016h-9.0312v32.719q0 7.8594-2.7969 11.656-2.7812 3.8125-8.4844 3.8125-6.9844 0-11.047-4.6406-4.0469-4.625-4.0469-12.641v-30.906h-9.0312v32.719q0 7.9062-2.7812 11.688t-8.5938 3.7812q-6.8906 0-10.953-4.6562-4.0469-4.6562-4.0469-12.625v-30.906h-9.0312v54.688h9.0312v-8.5q3.0781 5.0312 7.375 7.4219t10.203 2.3906q5.9688 0 10.141-3.0312 4.1719-3.0156 6.1719-8.7812z"/>
      <path id="DejaVuSans-65" d="m56.203 29.594v-4.3906h-41.312q0.59375-9.2812 5.5938-14.141t13.938-4.8594q5.1719 0 10.031 1.2656t9.6562 3.8125v-8.5q-4.8438-2.0469-9.9219-3.125t-10.297-1.0781q-13.094 0-20.734 7.6094-7.6406 7.625-7.6406 20.625 0 13.422 7.25 21.297 7.25 7.8906 19.562 7.8906 11.031 0 17.453-7.1094 6.4219-7.0938 6.4219-19.297zm-8.9844 2.6406q-0.09375 7.3594-4.125 11.75-4.0312 4.4062-10.672 4.4062-7.5156 0-12.031-4.25t-5.2031-11.969z"/>
      <path id="DejaVuSans-6f" d="m30.609 48.391q-7.2188 0-11.422-5.6406t-4.2031-15.453 4.1719-15.453q4.1875-5.6406 11.453-5.6406 7.1875 0 11.375 5.6562 4.2031 5.6719 4.2031 15.438 0 9.7188-4.2031 15.406-4.1875 5.6875-11.375 5.6875zm0 7.6094q11.719 0 18.406-7.625 6.7031-7.6094 6.7031-21.078 0-13.422-6.7031-21.078-6.6875-7.6406-18.406-7.6406-11.766 0-18.438 7.6406-6.6562 7.6562-6.6562 21.078 0 13.469 6.6562 21.078 6.6719 7.625 18.438 7.625z"/>
      <path id="DejaVuSans-66" d="m37.109 75.984v-7.4844h-8.5938q-4.8281 0-6.7188-1.9531-1.875-1.9531-1.875-7.0312v-4.8281h14.797v-6.9844h-14.797v-47.703h-9.0312v47.703h-8.5938v6.9844h8.5938v3.8125q0 9.125 4.25 13.297 4.25 4.1875 13.469 4.1875z"/>
      <path id="DejaVuSans-72" d="m41.109 46.297q-1.5156 0.875-3.2969 1.2812-1.7812 0.42188-3.9219 0.42188-7.625 0-11.703-4.9531t-4.0781-14.234v-28.812h-9.0312v54.688h9.0312v-8.5q2.8438 4.9844 7.375 7.3906 4.5469 2.4219 11.047 2.4219 0.92188 0 2.0469-0.125 1.125-0.10938 2.4844-0.35938z"/>
      <path id="DejaVuSans-74" d="m18.312 70.219v-15.531h18.5v-6.9844h-18.5v-29.688q0-6.6875 1.8281-8.5938t7.4531-1.9062h9.2188v-7.5156h-9.2188q-10.406 0-14.359 3.875-3.9531 3.8906-3.9531 14.141v29.688h-6.5938v6.9844h6.5938v15.531z"/>
      <path id="DejaVuSans-6c" d="m9.4219 75.984h8.9844v-75.984h-8.9844z"/>
      <path id="DejaVuSans-6e" d="m54.891 33.016v-33.016h-8.9844v32.719q0 7.7656-3.0312 11.609-3.0312 3.8594-9.0781 3.8594-7.2812 0-11.484-4.6406-4.2031-4.625-4.2031-12.641v-30.906h-9.0312v54.688h9.0312v-8.5q3.2344 4.9375 7.5938 7.375 4.375 2.4375 10.094 2.4375 9.4219 0 14.25-5.8281 4.8438-5.8281 4.8438-17.156z"/>
      <path id="DejaVuSans-67" d="m45.406 27.984q0 9.7656-4.0312 15.125-4.0156 5.375-11.297 5.375-7.2188 0-11.25-5.375-4.0312-5.3594-4.0312-15.125 0-9.7188 4.0312-15.094t11.25-5.375q7.2812 0 11.297 5.375 4.0312 5.375 4.0312 15.094zm8.9844-21.203q0-13.953-6.2031-20.766-6.1875-6.8125-18.984-6.8125-4.7344 0-8.9375 0.70312t-8.1562 2.1719v8.7344q3.9531-2.1406 7.8125-3.1562 3.8594-1.0312 7.8594-1.0312 8.8438 0 13.234 4.6094t4.3906 13.938v4.4531q-2.7812-4.8438-7.125-7.2344t-10.406-2.3906q-10.047 0-16.203 7.6562-6.1562 7.6719-6.1562 20.328 0 12.688 6.1562 20.344 6.1562 7.6719 16.203 7.6719 6.0625 0 10.406-2.3906t7.125-7.2188v8.2969h8.9844z"/>
      <path id="DejaVuSans-70" d="m18.109 8.2031v-29h-9.0312v75.484h9.0312v-8.2969q2.8438 4.875 7.1562 7.2344 4.3281 2.375 10.328 2.375 9.9688 0 16.188-7.9062 6.2344-7.9062 6.2344-20.797t-6.2344-20.812q-6.2188-7.9062-16.188-7.9062-6 0-10.328 2.375-4.3125 2.375-7.1562 7.25zm30.578 19.094q0 9.9062-4.0781 15.547t-11.203 5.6406q-7.1406 0-11.219-5.6406t-4.0781-15.547 4.0781-15.547 11.219-5.6406q7.125 0 11.203 5.6406t4.0781 15.547z"/>
     </defs>
     <g transform="translate(18.703 232.25) rotate(-90) scale(.1 -.1)">
      <use xlink:href="#DejaVuSans-54"/>
      <use x="61.037109" xlink:href="#DejaVuSans-69"/>
      <use x="88.820312" xlink:href="#DejaVuSans-6d"/>
      <use x="186.232422" xlink:href="#DejaVuSans-65"/>
      <use x="247.755859" xlink:href="#DejaVuSans-20"/>
      <use x="279.542969" xlink:href="#DejaVuSans-6f"/>
      <use x="340.724609" xlink:href="#DejaVuSans-66"/>
      <use x="375.929688" xlink:href="#DejaVuSans-20"/>
      <use x="407.716797" xlink:href="#DejaVuSans-66"/>
      <use x="442.921875" xlink:href="#DejaVuSans-69"/>
      <use x="470.705078" xlink:href="#DejaVuSans-72"/>
      <use x="511.818359" xlink:href="#DejaVuSans-73"/>
      <use x="563.917969" xlink:href="#DejaVuSans-74"/>
      <use x="603.126953" xlink:href="#DejaVuSans-20"/>
      <use x="634.914062" xlink:href="#DejaVuSans-6c"/>
      <use x="662.697266" xlink:href="#DejaVuSans-65"/>
      <use x="724.220703" xlink:href="#DejaVuSans-61"/>
      <use x="785.5" xlink:href="#DejaVuSans-72"/>
      <use x="826.597656" xlink:href="#DejaVuSans-6e"/>
      <use x="889.976562" xlink:href="#DejaVuSans-69"/>
      <use x="917.759766" xlink:href="#DejaVuSans-6e"/>
      <use x="981.138672" xlink:href="#DejaVuSans-67"/>
      <use x="1044.615234" xlink:href="#DejaVuSans-20"/>
      <use x="1076.402344" xlink:href="#DejaVuSans-70"/>
      <use x="1139.878906" xlink:href="#DejaVuSans-6f"/>
      <use x="1201.060547" xlink:href="#DejaVuSans-69"/>
      <use x="1228.84375" xlink:href="#DejaVuSans-6e"/>
      <use x="1292.222656" xlink:href="#DejaVuSans-74"/>
     </g>
    </g>
   </g>
   <g id="patch_3">
    <path d="m50.87 318.04v-304.72" fill="none" stroke="#000" stroke-linecap="square" stroke-width=".8"/>
   </g>
   <g id="patch_4">
    <path d="m50.87 318.04h295.81" fill="none" stroke="#000" stroke-linecap="square" stroke-width=".8"/>
   </g>
   <g id="LineCollection_1" fill="none" stroke="#008fd5">
    <path d="m64.316 304.19v-35.757" clip-path="url(#p0a5daf8477)"/>
    <path d="m194.86 234.11v-45" clip-path="url(#p0a5daf8477)"/>
    <path d="m325.4 89.311v-62.14" clip-path="url(#p0a5daf8477)"/>
   </g>
   <g id="LineCollection_2" fill="none" stroke="#fc4f30">
    <path d="m72.148 253.99v-41.222" clip-path="url(#p0a5daf8477)"/>
    <path d="m202.69 261.09v-41.795" clip-path="url(#p0a5daf8477)"/>
    <path d="m333.23 98.542v-52.933" clip-path="url(#p0a5daf8477)"/>
   </g>
   <g id="line2d_18">
    <defs>
     <path id="mf5386e5e4d" d="m4 0h-8" stroke="#008fd5"/>
    </defs>
    <g clip-path="url(#p0a5daf8477)" fill="#008fd5" stroke="#008fd5">
     <use x="64.315909" y="304.189091" xlink:href="#mf5386e5e4d"/>
     <use x="194.858716" y="234.10843" xlink:href="#mf5386e5e4d"/>
     <use x="325.401523" y="89.310621" xlink:href="#mf5386e5e4d"/>
    </g>
   </g>
   <g id="line2d_19">
    <g clip-path="url(#p0a5daf8477)" fill="#008fd5" stroke="#008fd5">
     <use x="64.315909" y="268.432077" xlink:href="#mf5386e5e4d"/>
     <use x="194.858716" y="189.10796" xlink:href="#mf5386e5e4d"/>
     <use x="325.401523" y="27.170909" xlink:href="#mf5386e5e4d"/>
    </g>
   </g>
   <g id="line2d_20">
    <defs>
     <path id="m7641d52abd" d="m4 0h-8" stroke="#fc4f30"/>
    </defs>
    <g clip-path="url(#p0a5daf8477)" fill="#fc4f30" stroke="#fc4f30">
     <use x="72.148477" y="253.988053" xlink:href="#m7641d52abd"/>
     <use x="202.691284" y="261.091688" xlink:href="#m7641d52abd"/>
     <use x="333.234091" y="98.541621" xlink:href="#m7641d52abd"/>
    </g>
   </g>
   <g id="line2d_21">
    <g clip-path="url(#p0a5daf8477)" fill="#fc4f30" stroke="#fc4f30">
     <use x="72.148477" y="212.765706" xlink:href="#m7641d52abd"/>
     <use x="202.691284" y="219.297095" xlink:href="#m7641d52abd"/>
     <use x="333.234091" y="45.609114" xlink:href="#m7641d52abd"/>
    </g>
   </g>
   <g id="line2d_22">
    <path d="m64.316 286.31 130.54-74.702 130.54-153.37" clip-path="url(#p0a5daf8477)" fill="none" stroke="#008fd5" stroke-linecap="square"/>
    <defs>
     <path id="m4222601bf4" d="m0 3c0.79561 0 1.5587-0.3161 2.1213-0.87868 0.56258-0.56258 0.87868-1.3257 0.87868-2.1213s-0.3161-1.5587-0.87868-2.1213c-0.56258-0.56258-1.3257-0.87868-2.1213-0.87868s-1.5587 0.3161-2.1213 0.87868c-0.56258 0.56258-0.87868 1.3257-0.87868 2.1213s0.3161 1.5587 0.87868 2.1213c0.56258 0.56258 1.3257 0.87868 2.1213 0.87868z" stroke="#008fd5"/>
    </defs>
    <g clip-path="url(#p0a5daf8477)" fill="#008fd5" stroke="#008fd5">
     <use x="64.315909" y="286.310584" xlink:href="#m4222601bf4"/>
     <use x="194.858716" y="211.608195" xlink:href="#m4222601bf4"/>
     <use x="325.401523" y="58.240765" xlink:href="#m4222601bf4"/>
    </g>
   </g>
   <g id="line2d_23">
    <path d="m72.148 233.38 130.54 6.8175 130.54-168.12" clip-path="url(#p0a5daf8477)" fill="none" stroke="#fc4f30" stroke-linecap="square"/>
    <defs>
     <path id="m7c29669554" d="m-3 3h6v-6h-6z" stroke="#fc4f30"/>
    </defs>
    <g clip-path="url(#p0a5daf8477)" fill="#fc4f30" stroke="#fc4f30">
     <use x="72.148477" y="233.37688" xlink:href="#m7c29669554"/>
     <use x="202.691284" y="240.194391" xlink:href="#m7c29669554"/>
     <use x="333.234091" y="72.075367" xlink:href="#m7c29669554"/>
    </g>
   </g>
   <g id="legend_1">
    <g id="patch_5">
     <path d="m57.87 50.676h38.348q2 0 2-2v-28.356q0-2-2-2h-38.348q-2 0-2 2v28.356q0 2 2 2z" fill="#fff" opacity=".8" stroke="#ccc"/>
    </g>
    <g id="LineCollection_3">
     <path d="m69.87 31.418v-10" fill="none" stroke="#008fd5"/>
    </g>
    <g id="line2d_24">
     <use x="69.87" y="31.418437" fill="#008fd5" stroke="#008fd5" xlink:href="#mf5386e5e4d"/>
    </g>
    <g id="line2d_25">
     <use x="69.87" y="21.418437" fill="#008fd5" stroke="#008fd5" xlink:href="#mf5386e5e4d"/>
    </g>
    <g id="line2d_26">
     <path d="m59.87 26.418h20" fill="none" stroke="#008fd5" stroke-linecap="square"/>
    </g>
    <g id="line2d_27">
     <use x="69.87" y="26.418437" fill="#008fd5" stroke="#008fd5" xlink:href="#m4222601bf4"/>
    </g>
    <g id="text_13"><!-- F -->
     <defs>
      <path id="DejaVuSans-46" d="m9.8125 72.906h41.891v-8.3125h-32.031v-21.484h28.906v-8.2969h-28.906v-34.812h-9.8594z"/>
     </defs>
     <g transform="translate(87.87 29.918) scale(.1 -.1)">
      <use xlink:href="#DejaVuSans-46"/>
     </g>
    </g>
    <g id="LineCollection_4">
     <path d="m69.87 46.097v-10" fill="none" stroke="#fc4f30"/>
    </g>
    <g id="line2d_28">
     <use x="69.87" y="46.096563" fill="#fc4f30" stroke="#fc4f30" xlink:href="#m7641d52abd"/>
    </g>
    <g id="line2d_29">
     <use x="69.87" y="36.096563" fill="#fc4f30" stroke="#fc4f30" xlink:href="#m7641d52abd"/>
    </g>
    <g id="line2d_30">
     <path d="m59.87 41.097h20" fill="none" stroke="#fc4f30" stroke-linecap="square"/>
    </g>
    <g id="line2d_31">
     <use x="69.87" y="41.096563" fill="#fc4f30" stroke="#fc4f30" xlink:href="#m7c29669554"/>
    </g>
    <g id="text_14"><!-- S -->
     <defs>
      <path id="DejaVuSans-53" d="m53.516 70.516v-9.625q-5.6094 2.6875-10.594 4-4.9844 1.3281-9.625 1.3281-8.0469 0-12.422-3.125t-4.375-8.8906q0-4.8438 2.9062-7.3125 2.9062-2.4531 11.016-3.9688l5.9531-1.2188q11.031-2.1094 16.281-7.4062t5.25-14.172q0-10.609-7.1094-16.078-7.0938-5.4688-20.812-5.4688-5.1719 0-11.016 1.1719-5.8281 1.1719-12.078 3.4688v10.156q6-3.3594 11.766-5.0781 5.7656-1.7031 11.328-1.7031 8.4375 0 13.031 3.3125 4.5938 3.3281 4.5938 9.4844 0 5.3594-3.2969 8.3906t-10.812 4.5469l-6.0156 1.1719q-11.031 2.1875-15.969 6.875-4.9219 4.6875-4.9219 13.047 0 9.6719 6.8125 15.234t18.766 5.5625q5.1406 0 10.453-0.9375 5.3281-0.92188 10.891-2.7656z"/>
     </defs>
     <g transform="translate(87.87 44.597) scale(.1 -.1)">
      <use xlink:href="#DejaVuSans-53"/>
     </g>
    </g>
   </g>
  </g>
 </g>
 <defs>
  <clipPath id="p0a5daf8477">
   <rect x="50.87" y="13.32" width="295.81" height="304.72"/>
  </clipPath>
 </defs>
</svg>
