<?xml version="1.0" encoding="UTF-8"?>
<!DOCTYPE svg  PUBLIC '-//W3C//DTD SVG 1.1//EN'  'http://www.w3.org/Graphics/SVG/1.1/DTD/svg11.dtd'>
<!-- Created with matplotlib (http://matplotlib.org/) -->
<svg width="720pt" height="360pt" version="1.1" viewBox="0 0 720 360" xmlns="http://www.w3.org/2000/svg" xmlns:xlink="http://www.w3.org/1999/xlink">
 <defs>
  <style type="text/css">*{stroke-linecap:butt;stroke-linejoin:round;}</style>
 </defs>
 <g id="figure_1">
  <g id="patch_1">
   <path d="m0 360h720v-360h-720z" fill="#fff"/>
  </g>
  <g id="axes_1">
   <g id="patch_2">
    <path d="m54.02 318.04h291.13v-256.8h-291.13z" fill="#fff"/>
   </g>
   <g id="matplotlib.axis_1">
    <g id="xtick_1">
     <g id="line2d_1">
      <path d="m111.31 318.04v-256.8" clip-path="url(#p39f98adb5b)" fill="none" stroke="#b0b0b0" stroke-linecap="square" stroke-width=".8"/>
     </g>
     <g id="line2d_2">
      <defs>
       <path id="m159b2b4fb5" d="m0 0v3.5" stroke="#000" stroke-width=".8"/>
      </defs>
      <use x="111.310643" y="318.04" stroke="#000000" stroke-width=".8" xlink:href="#m159b2b4fb5"/>
     </g>
     <g id="text_1"><!-- 50 -->
      <defs>
       <path id="DejaVuSans-35" d="m10.797 72.906h38.719v-8.3125h-29.688v-17.859q2.1406 0.73438 4.2812 1.0938 2.1562 0.35938 4.3125 0.35938 12.203 0 19.328-6.6875 7.1406-6.6875 7.1406-18.109 0-11.766-7.3281-18.297-7.3281-6.5156-20.656-6.5156-4.5938 0-9.3594 0.78125-4.75 0.78125-9.8281 2.3438v9.9219q4.3906-2.3906 9.0781-3.5625t9.9062-1.1719q8.4531 0 13.375 4.4375 4.9375 4.4375 4.9375 12.062 0 7.6094-4.9375 12.047-4.9219 4.4531-13.375 4.4531-3.9531 0-7.8906-0.875-3.9219-0.875-8.0156-2.7344z"/>
       <path id="DejaVuSans-30" d="m31.781 66.406q-7.6094 0-11.453-7.5-3.8281-7.4844-3.8281-22.531 0-14.984 3.8281-22.484 3.8438-7.5 11.453-7.5 7.6719 0 11.5 7.5 3.8438 7.5 3.8438 22.484 0 15.047-3.8438 22.531-3.8281 7.5-11.5 7.5zm0 7.8125q12.266 0 18.734-9.7031 6.4688-9.6875 6.4688-28.141 0-18.406-6.4688-28.109-6.4688-9.6875-18.734-9.6875-12.25 0-18.719 9.6875-6.4688 9.7031-6.4688 28.109 0 18.453 6.4688 28.141 6.4688 9.7031 18.719 9.7031z"/>
      </defs>
      <g transform="translate(104.95 332.64) scale(.1 -.1)">
       <use xlink:href="#DejaVuSans-35"/>
       <use x="63.623047" xlink:href="#DejaVuSans-30"/>
      </g>
     </g>
    </g>
    <g id="xtick_2">
     <g id="line2d_3">
      <path d="m169.77 318.04v-256.8" clip-path="url(#p39f98adb5b)" fill="none" stroke="#b0b0b0" stroke-linecap="square" stroke-width=".8"/>
     </g>
     <g id="line2d_4">
      <use x="169.770482" y="318.04" stroke="#000000" stroke-width=".8" xlink:href="#m159b2b4fb5"/>
     </g>
     <g id="text_2"><!-- 100 -->
      <defs>
       <path id="DejaVuSans-31" d="m12.406 8.2969h16.109v55.625l-17.531-3.5156v8.9844l17.438 3.5156h9.8594v-64.609h16.109v-8.2969h-41.984z"/>
      </defs>
      <g transform="translate(160.23 332.64) scale(.1 -.1)">
       <use xlink:href="#DejaVuSans-31"/>
       <use x="63.623047" xlink:href="#DejaVuSans-30"/>
       <use x="127.246094" xlink:href="#DejaVuSans-30"/>
      </g>
     </g>
    </g>
    <g id="xtick_3">
     <g id="line2d_5">
      <path d="m228.23 318.04v-256.8" clip-path="url(#p39f98adb5b)" fill="none" stroke="#b0b0b0" stroke-linecap="square" stroke-width=".8"/>
     </g>
     <g id="line2d_6">
      <use x="228.230321" y="318.04" stroke="#000000" stroke-width=".8" xlink:href="#m159b2b4fb5"/>
     </g>
     <g id="text_3"><!-- 150 -->
      <g transform="translate(218.69 332.64) scale(.1 -.1)">
       <use xlink:href="#DejaVuSans-31"/>
       <use x="63.623047" xlink:href="#DejaVuSans-35"/>
       <use x="127.246094" xlink:href="#DejaVuSans-30"/>
      </g>
     </g>
    </g>
    <g id="xtick_4">
     <g id="line2d_7">
      <path d="m286.69 318.04v-256.8" clip-path="url(#p39f98adb5b)" fill="none" stroke="#b0b0b0" stroke-linecap="square" stroke-width=".8"/>
     </g>
     <g id="line2d_8">
      <use x="286.690161" y="318.04" stroke="#000000" stroke-width=".8" xlink:href="#m159b2b4fb5"/>
     </g>
     <g id="text_4"><!-- 200 -->
      <defs>
       <path id="DejaVuSans-32" d="m19.188 8.2969h34.422v-8.2969h-46.281v8.2969q5.6094 5.8125 15.297 15.594 9.7031 9.7969 12.188 12.641 4.7344 5.3125 6.6094 9 1.8906 3.6875 1.8906 7.25 0 5.8125-4.0781 9.4688-4.0781 3.6719-10.625 3.6719-4.6406 0-9.7969-1.6094-5.1406-1.6094-11-4.8906v9.9688q5.9531 2.3906 11.125 3.6094 5.1875 1.2188 9.4844 1.2188 11.328 0 18.062-5.6719 6.7344-5.6562 6.7344-15.125 0-4.5-1.6875-8.5312-1.6719-4.0156-6.125-9.4844-1.2188-1.4219-7.7656-8.1875-6.5312-6.7656-18.453-18.922z"/>
      </defs>
      <g transform="translate(277.15 332.64) scale(.1 -.1)">
       <use xlink:href="#DejaVuSans-32"/>
       <use x="63.623047" xlink:href="#DejaVuSans-30"/>
       <use x="127.246094" xlink:href="#DejaVuSans-30"/>
      </g>
     </g>
    </g>
    <g id="xtick_5">
     <g id="line2d_9">
      <path d="m345.15 318.04v-256.8" clip-path="url(#p39f98adb5b)" fill="none" stroke="#b0b0b0" stroke-linecap="square" stroke-width=".8"/>
     </g>
     <g id="line2d_10">
      <use x="345.15" y="318.04" stroke="#000000" stroke-width=".8" xlink:href="#m159b2b4fb5"/>
     </g>
     <g id="text_5"><!-- 250 -->
      <g transform="translate(335.61 332.64) scale(.1 -.1)">
       <use xlink:href="#DejaVuSans-32"/>
       <use x="63.623047" xlink:href="#DejaVuSans-35"/>
       <use x="127.246094" xlink:href="#DejaVuSans-30"/>
      </g>
     </g>
    </g>
    <g id="text_6"><!-- Trial number -->
     <defs>
      <path id="DejaVuSans-54" d="m-0.29688 72.906h61.672v-8.3125h-25.875v-64.594h-9.9062v64.594h-25.891z"/>
      <path id="DejaVuSans-72" d="m41.109 46.297q-1.5156 0.875-3.2969 1.2812-1.7812 0.42188-3.9219 0.42188-7.625 0-11.703-4.9531t-4.0781-14.234v-28.812h-9.0312v54.688h9.0312v-8.5q2.8438 4.9844 7.375 7.3906 4.5469 2.4219 11.047 2.4219 0.92188 0 2.0469-0.125 1.125-0.10938 2.4844-0.35938z"/>
      <path id="DejaVuSans-69" d="m9.4219 54.688h8.9844v-54.688h-8.9844zm0 21.297h8.9844v-11.391h-8.9844z"/>
      <path id="DejaVuSans-61" d="m34.281 27.484q-10.891 0-15.094-2.4844t-4.2031-8.5q0-4.7812 3.1562-7.5938 3.1562-2.7969 8.5625-2.7969 7.4844 0 12 5.2969t4.5156 14.078v2zm17.922 3.7188v-31.203h-8.9844v8.2969q-3.0781-4.9688-7.6719-7.3438t-11.234-2.375q-8.3906 0-13.359 4.7188-4.9531 4.7188-4.9531 12.625 0 9.2188 6.1719 13.906 6.1875 4.6875 18.438 4.6875h12.609v0.89062q0 6.2031-4.0781 9.5938t-11.453 3.3906q-4.6875 0-9.1406-1.125-4.4375-1.125-8.5312-3.375v8.3125q4.9219 1.9062 9.5625 2.8438 4.6406 0.95312 9.0312 0.95312 11.875 0 17.734-6.1562 5.8594-6.1406 5.8594-18.641z"/>
      <path id="DejaVuSans-6c" d="m9.4219 75.984h8.9844v-75.984h-8.9844z"/>
      <path id="DejaVuSans-6e" d="m54.891 33.016v-33.016h-8.9844v32.719q0 7.7656-3.0312 11.609-3.0312 3.8594-9.0781 3.8594-7.2812 0-11.484-4.6406-4.2031-4.625-4.2031-12.641v-30.906h-9.0312v54.688h9.0312v-8.5q3.2344 4.9375 7.5938 7.375 4.375 2.4375 10.094 2.4375 9.4219 0 14.25-5.8281 4.8438-5.8281 4.8438-17.156z"/>
      <path id="DejaVuSans-75" d="m8.5 21.578v33.109h8.9844v-32.766q0-7.7656 3.0156-11.656 3.0312-3.875 9.0938-3.875 7.2656 0 11.484 4.6406 4.2344 4.6406 4.2344 12.656v31h8.9844v-54.688h-8.9844v8.4062q-3.2656-4.9844-7.5938-7.4062-4.3125-2.4219-10.031-2.4219-9.4219 0-14.312 5.8594-4.875 5.8594-4.875 17.141zm22.609 34.422z"/>
      <path id="DejaVuSans-6d" d="m52 44.188q3.375 6.0625 8.0625 8.9375t11.031 2.875q8.5469 0 13.188-5.9844 4.6406-5.9688 4.6406-17v-33.016h-9.0312v32.719q0 7.8594-2.7969 11.656-2.7812 3.8125-8.4844 3.8125-6.9844 0-11.047-4.6406-4.0469-4.625-4.0469-12.641v-30.906h-9.0312v32.719q0 7.9062-2.7812 11.688t-8.5938 3.7812q-6.8906 0-10.953-4.6562-4.0469-4.6562-4.0469-12.625v-30.906h-9.0312v54.688h9.0312v-8.5q3.0781 5.0312 7.375 7.4219t10.203 2.3906q5.9688 0 10.141-3.0312 4.1719-3.0156 6.1719-8.7812z"/>
      <path id="DejaVuSans-62" d="m48.688 27.297q0 9.9062-4.0781 15.547t-11.203 5.6406q-7.1406 0-11.219-5.6406t-4.0781-15.547 4.0781-15.547 11.219-5.6406q7.125 0 11.203 5.6406t4.0781 15.547zm-30.578 19.094q2.8438 4.875 7.1562 7.2344 4.3281 2.375 10.328 2.375 9.9688 0 16.188-7.9062 6.2344-7.9062 6.2344-20.797t-6.2344-20.812q-6.2188-7.9062-16.188-7.9062-6 0-10.328 2.375-4.3125 2.375-7.1562 7.25v-8.2031h-9.0312v75.984h9.0312z"/>
      <path id="DejaVuSans-65" d="m56.203 29.594v-4.3906h-41.312q0.59375-9.2812 5.5938-14.141t13.938-4.8594q5.1719 0 10.031 1.2656t9.6562 3.8125v-8.5q-4.8438-2.0469-9.9219-3.125t-10.297-1.0781q-13.094 0-20.734 7.6094-7.6406 7.625-7.6406 20.625 0 13.422 7.25 21.297 7.25 7.8906 19.562 7.8906 11.031 0 17.453-7.1094 6.4219-7.0938 6.4219-19.297zm-8.9844 2.6406q-0.09375 7.3594-4.125 11.75-4.0312 4.4062-10.672 4.4062-7.5156 0-12.031-4.25t-5.2031-11.969z"/>
     </defs>
     <g transform="translate(167.54 346.32) scale(.1 -.1)">
      <use xlink:href="#DejaVuSans-54"/>
      <use x="60.865234" xlink:href="#DejaVuSans-72"/>
      <use x="101.978516" xlink:href="#DejaVuSans-69"/>
      <use x="129.761719" xlink:href="#DejaVuSans-61"/>
      <use x="191.041016" xlink:href="#DejaVuSans-6c"/>
      <use x="218.824219" xlink:href="#DejaVuSans-20"/>
      <use x="250.611328" xlink:href="#DejaVuSans-6e"/>
      <use x="313.990234" xlink:href="#DejaVuSans-75"/>
      <use x="377.369141" xlink:href="#DejaVuSans-6d"/>
      <use x="474.78125" xlink:href="#DejaVuSans-62"/>
      <use x="538.257812" xlink:href="#DejaVuSans-65"/>
      <use x="599.78125" xlink:href="#DejaVuSans-72"/>
     </g>
    </g>
   </g>
   <g id="matplotlib.axis_2">
    <g id="ytick_1">
     <g id="line2d_11">
      <path d="m54.02 305.81h291.13" clip-path="url(#p39f98adb5b)" fill="none" stroke="#b0b0b0" stroke-linecap="square" stroke-width=".8"/>
     </g>
     <g id="line2d_12">
      <defs>
       <path id="m521de0b118" d="m0 0h-3.5" stroke="#000" stroke-width=".8"/>
      </defs>
      <use x="54.02" y="305.811429" stroke="#000000" stroke-width=".8" xlink:href="#m521de0b118"/>
     </g>
     <g id="text_7"><!-- 0.10 -->
      <defs>
       <path id="DejaVuSans-2e" d="m10.688 12.406h10.312v-12.406h-10.312z"/>
      </defs>
      <g transform="translate(24.754 309.61) scale(.1 -.1)">
       <use xlink:href="#DejaVuSans-30"/>
       <use x="63.623047" xlink:href="#DejaVuSans-2e"/>
       <use x="95.410156" xlink:href="#DejaVuSans-31"/>
       <use x="159.033203" xlink:href="#DejaVuSans-30"/>
      </g>
     </g>
    </g>
    <g id="ytick_2">
     <g id="line2d_13">
      <path d="m54.02 275.24h291.13" clip-path="url(#p39f98adb5b)" fill="none" stroke="#b0b0b0" stroke-linecap="square" stroke-width=".8"/>
     </g>
     <g id="line2d_14">
      <use x="54.02" y="275.24" stroke="#000000" stroke-width=".8" xlink:href="#m521de0b118"/>
     </g>
     <g id="text_8"><!-- 0.15 -->
      <g transform="translate(24.754 279.04) scale(.1 -.1)">
       <use xlink:href="#DejaVuSans-30"/>
       <use x="63.623047" xlink:href="#DejaVuSans-2e"/>
       <use x="95.410156" xlink:href="#DejaVuSans-31"/>
       <use x="159.033203" xlink:href="#DejaVuSans-35"/>
      </g>
     </g>
    </g>
    <g id="ytick_3">
     <g id="line2d_15">
      <path d="m54.02 244.67h291.13" clip-path="url(#p39f98adb5b)" fill="none" stroke="#b0b0b0" stroke-linecap="square" stroke-width=".8"/>
     </g>
     <g id="line2d_16">
      <use x="54.02" y="244.668571" stroke="#000000" stroke-width=".8" xlink:href="#m521de0b118"/>
     </g>
     <g id="text_9"><!-- 0.20 -->
      <g transform="translate(24.754 248.47) scale(.1 -.1)">
       <use xlink:href="#DejaVuSans-30"/>
       <use x="63.623047" xlink:href="#DejaVuSans-2e"/>
       <use x="95.410156" xlink:href="#DejaVuSans-32"/>
       <use x="159.033203" xlink:href="#DejaVuSans-30"/>
      </g>
     </g>
    </g>
    <g id="ytick_4">
     <g id="line2d_17">
      <path d="m54.02 214.1h291.13" clip-path="url(#p39f98adb5b)" fill="none" stroke="#b0b0b0" stroke-linecap="square" stroke-width=".8"/>
     </g>
     <g id="line2d_18">
      <use x="54.02" y="214.097143" stroke="#000000" stroke-width=".8" xlink:href="#m521de0b118"/>
     </g>
     <g id="text_10"><!-- 0.25 -->
      <g transform="translate(24.754 217.9) scale(.1 -.1)">
       <use xlink:href="#DejaVuSans-30"/>
       <use x="63.623047" xlink:href="#DejaVuSans-2e"/>
       <use x="95.410156" xlink:href="#DejaVuSans-32"/>
       <use x="159.033203" xlink:href="#DejaVuSans-35"/>
      </g>
     </g>
    </g>
    <g id="ytick_5">
     <g id="line2d_19">
      <path d="m54.02 183.53h291.13" clip-path="url(#p39f98adb5b)" fill="none" stroke="#b0b0b0" stroke-linecap="square" stroke-width=".8"/>
     </g>
     <g id="line2d_20">
      <use x="54.02" y="183.525714" stroke="#000000" stroke-width=".8" xlink:href="#m521de0b118"/>
     </g>
     <g id="text_11"><!-- 0.30 -->
      <defs>
       <path id="DejaVuSans-33" d="m40.578 39.312q7.0781-1.5156 11.047-6.3125 3.9844-4.7812 3.9844-11.812 0-10.781-7.4219-16.703-7.4219-5.9062-21.094-5.9062-4.5781 0-9.4375 0.90625t-10.031 2.7188v9.5156q4.0938-2.3906 8.9688-3.6094 4.8906-1.2188 10.219-1.2188 9.2656 0 14.125 3.6562t4.8594 10.641q0 6.4531-4.5156 10.078-4.5156 3.6406-12.562 3.6406h-8.5v8.1094h8.8906q7.2656 0 11.125 2.9062t3.8594 8.375q0 5.6094-3.9844 8.6094-3.9688 3.0156-11.391 3.0156-4.0625 0-8.7031-0.89062-4.6406-0.875-10.203-2.7188v8.7812q5.625 1.5625 10.531 2.3438t9.25 0.78125q11.234 0 17.766-5.1094 6.5469-5.0938 6.5469-13.781 0-6.0625-3.4688-10.234t-9.8594-5.7812z"/>
      </defs>
      <g transform="translate(24.754 187.32) scale(.1 -.1)">
       <use xlink:href="#DejaVuSans-30"/>
       <use x="63.623047" xlink:href="#DejaVuSans-2e"/>
       <use x="95.410156" xlink:href="#DejaVuSans-33"/>
       <use x="159.033203" xlink:href="#DejaVuSans-30"/>
      </g>
     </g>
    </g>
    <g id="ytick_6">
     <g id="line2d_21">
      <path d="m54.02 152.95h291.13" clip-path="url(#p39f98adb5b)" fill="none" stroke="#b0b0b0" stroke-linecap="square" stroke-width=".8"/>
     </g>
     <g id="line2d_22">
      <use x="54.02" y="152.954286" stroke="#000000" stroke-width=".8" xlink:href="#m521de0b118"/>
     </g>
     <g id="text_12"><!-- 0.35 -->
      <g transform="translate(24.754 156.75) scale(.1 -.1)">
       <use xlink:href="#DejaVuSans-30"/>
       <use x="63.623047" xlink:href="#DejaVuSans-2e"/>
       <use x="95.410156" xlink:href="#DejaVuSans-33"/>
       <use x="159.033203" xlink:href="#DejaVuSans-35"/>
      </g>
     </g>
    </g>
    <g id="ytick_7">
     <g id="line2d_23">
      <path d="m54.02 122.38h291.13" clip-path="url(#p39f98adb5b)" fill="none" stroke="#b0b0b0" stroke-linecap="square" stroke-width=".8"/>
     </g>
     <g id="line2d_24">
      <use x="54.02" y="122.382857" stroke="#000000" stroke-width=".8" xlink:href="#m521de0b118"/>
     </g>
     <g id="text_13"><!-- 0.40 -->
      <defs>
       <path id="DejaVuSans-34" d="m37.797 64.312-24.906-38.922h24.906zm-2.5938 8.5938h12.406v-47.516h10.406v-8.2031h-10.406v-17.188h-9.8125v17.188h-32.906v9.5156z"/>
      </defs>
      <g transform="translate(24.754 126.18) scale(.1 -.1)">
       <use xlink:href="#DejaVuSans-30"/>
       <use x="63.623047" xlink:href="#DejaVuSans-2e"/>
       <use x="95.410156" xlink:href="#DejaVuSans-34"/>
       <use x="159.033203" xlink:href="#DejaVuSans-30"/>
      </g>
     </g>
    </g>
    <g id="ytick_8">
     <g id="line2d_25">
      <path d="m54.02 91.811h291.13" clip-path="url(#p39f98adb5b)" fill="none" stroke="#b0b0b0" stroke-linecap="square" stroke-width=".8"/>
     </g>
     <g id="line2d_26">
      <use x="54.02" y="91.811429" stroke="#000000" stroke-width=".8" xlink:href="#m521de0b118"/>
     </g>
     <g id="text_14"><!-- 0.45 -->
      <g transform="translate(24.754 95.611) scale(.1 -.1)">
       <use xlink:href="#DejaVuSans-30"/>
       <use x="63.623047" xlink:href="#DejaVuSans-2e"/>
       <use x="95.410156" xlink:href="#DejaVuSans-34"/>
       <use x="159.033203" xlink:href="#DejaVuSans-35"/>
      </g>
     </g>
    </g>
    <g id="ytick_9">
     <g id="line2d_27">
      <path d="m54.02 61.24h291.13" clip-path="url(#p39f98adb5b)" fill="none" stroke="#b0b0b0" stroke-linecap="square" stroke-width=".8"/>
     </g>
     <g id="line2d_28">
      <use x="54.02" y="61.24" stroke="#000000" stroke-width=".8" xlink:href="#m521de0b118"/>
     </g>
     <g id="text_15"><!-- 0.50 -->
      <g transform="translate(24.754 65.039) scale(.1 -.1)">
       <use xlink:href="#DejaVuSans-30"/>
       <use x="63.623047" xlink:href="#DejaVuSans-2e"/>
       <use x="95.410156" xlink:href="#DejaVuSans-35"/>
       <use x="159.033203" xlink:href="#DejaVuSans-30"/>
      </g>
     </g>
    </g>
    <g id="text_16"><!-- Proportion of task selection -->
     <defs>
      <path id="DejaVuSans-50" d="m19.672 64.797v-27.391h12.406q6.8906 0 10.641 3.5625 3.7656 3.5625 3.7656 10.156 0 6.5469-3.7656 10.109-3.75 3.5625-10.641 3.5625zm-9.8594 8.1094h22.266q12.266 0 18.531-5.5469 6.2812-5.5469 6.2812-16.234 0-10.797-6.2812-16.312-6.2656-5.5156-18.531-5.5156h-12.406v-29.297h-9.8594z"/>
      <path id="DejaVuSans-6f" d="m30.609 48.391q-7.2188 0-11.422-5.6406t-4.2031-15.453 4.1719-15.453q4.1875-5.6406 11.453-5.6406 7.1875 0 11.375 5.6562 4.2031 5.6719 4.2031 15.438 0 9.7188-4.2031 15.406-4.1875 5.6875-11.375 5.6875zm0 7.6094q11.719 0 18.406-7.625 6.7031-7.6094 6.7031-21.078 0-13.422-6.7031-21.078-6.6875-7.6406-18.406-7.6406-11.766 0-18.438 7.6406-6.6562 7.6562-6.6562 21.078 0 13.469 6.6562 21.078 6.6719 7.625 18.438 7.625z"/>
      <path id="DejaVuSans-70" d="m18.109 8.2031v-29h-9.0312v75.484h9.0312v-8.2969q2.8438 4.875 7.1562 7.2344 4.3281 2.375 10.328 2.375 9.9688 0 16.188-7.9062 6.2344-7.9062 6.2344-20.797t-6.2344-20.812q-6.2188-7.9062-16.188-7.9062-6 0-10.328 2.375-4.3125 2.375-7.1562 7.25zm30.578 19.094q0 9.9062-4.0781 15.547t-11.203 5.6406q-7.1406 0-11.219-5.6406t-4.0781-15.547 4.0781-15.547 11.219-5.6406q7.125 0 11.203 5.6406t4.0781 15.547z"/>
      <path id="DejaVuSans-74" d="m18.312 70.219v-15.531h18.5v-6.9844h-18.5v-29.688q0-6.6875 1.8281-8.5938t7.4531-1.9062h9.2188v-7.5156h-9.2188q-10.406 0-14.359 3.875-3.9531 3.8906-3.9531 14.141v29.688h-6.5938v6.9844h6.5938v15.531z"/>
      <path id="DejaVuSans-66" d="m37.109 75.984v-7.4844h-8.5938q-4.8281 0-6.7188-1.9531-1.875-1.9531-1.875-7.0312v-4.8281h14.797v-6.9844h-14.797v-47.703h-9.0312v47.703h-8.5938v6.9844h8.5938v3.8125q0 9.125 4.25 13.297 4.25 4.1875 13.469 4.1875z"/>
      <path id="DejaVuSans-73" d="m44.281 53.078v-8.5q-3.7969 1.9531-7.9062 2.9219-4.0938 0.98438-8.5 0.98438-6.6875 0-10.031-2.0469t-3.3438-6.1562q0-3.125 2.3906-4.9062t9.625-3.3906l3.0781-0.6875q9.5625-2.0469 13.594-5.7812t4.0312-10.422q0-7.625-6.0312-12.078-6.0312-4.4375-16.578-4.4375-4.3906 0-9.1562 0.85938t-10.031 2.5625v9.2812q4.9844-2.5938 9.8125-3.8906 4.8281-1.2812 9.5781-1.2812 6.3438 0 9.75 2.1719 3.4219 2.1719 3.4219 6.125 0 3.6562-2.4688 5.6094-2.4531 1.9531-10.812 3.7656l-3.125 0.73438q-8.3438 1.75-12.062 5.3906-3.7031 3.6406-3.7031 9.9844 0 7.7188 5.4688 11.906 5.4688 4.2031 15.531 4.2031 4.9688 0 9.3594-0.73438 4.4062-0.71875 8.1094-2.1875z"/>
      <path id="DejaVuSans-6b" d="m9.0781 75.984h9.0312v-44.875l26.812 23.578h11.469l-29-25.578 30.234-29.109h-11.719l-27.797 26.703v-26.703h-9.0312z"/>
      <path id="DejaVuSans-63" d="m48.781 52.594v-8.4062q-3.8125 2.1094-7.6406 3.1562t-7.7344 1.0469q-8.75 0-13.594-5.5469-4.8281-5.5312-4.8281-15.547t4.8281-15.562q4.8438-5.5312 13.594-5.5312 3.9062 0 7.7344 1.0469t7.6406 3.1562v-8.3125q-3.7656-1.75-7.7969-2.625-4.0156-0.89062-8.5625-0.89062-12.359 0-19.641 7.7656-7.2656 7.7656-7.2656 20.953 0 13.375 7.3438 21.031 7.3594 7.6719 20.156 7.6719 4.1406 0 8.0938-0.85938 3.9531-0.84375 7.6719-2.5469z"/>
     </defs>
     <g transform="translate(18.675 258.22) rotate(-90) scale(.1 -.1)">
      <use xlink:href="#DejaVuSans-50"/>
      <use x="60.287109" xlink:href="#DejaVuSans-72"/>
      <use x="101.369141" xlink:href="#DejaVuSans-6f"/>
      <use x="162.550781" xlink:href="#DejaVuSans-70"/>
      <use x="226.027344" xlink:href="#DejaVuSans-6f"/>
      <use x="287.208984" xlink:href="#DejaVuSans-72"/>
      <use x="328.322266" xlink:href="#DejaVuSans-74"/>
      <use x="367.53125" xlink:href="#DejaVuSans-69"/>
      <use x="395.314453" xlink:href="#DejaVuSans-6f"/>
      <use x="456.496094" xlink:href="#DejaVuSans-6e"/>
      <use x="519.875" xlink:href="#DejaVuSans-20"/>
      <use x="551.662109" xlink:href="#DejaVuSans-6f"/>
      <use x="612.84375" xlink:href="#DejaVuSans-66"/>
      <use x="648.048828" xlink:href="#DejaVuSans-20"/>
      <use x="679.835938" xlink:href="#DejaVuSans-74"/>
      <use x="719.044922" xlink:href="#DejaVuSans-61"/>
      <use x="780.324219" xlink:href="#DejaVuSans-73"/>
      <use x="832.423828" xlink:href="#DejaVuSans-6b"/>
      <use x="890.333984" xlink:href="#DejaVuSans-20"/>
      <use x="922.121094" xlink:href="#DejaVuSans-73"/>
      <use x="974.220703" xlink:href="#DejaVuSans-65"/>
      <use x="1035.744141" xlink:href="#DejaVuSans-6c"/>
      <use x="1063.527344" xlink:href="#DejaVuSans-65"/>
      <use x="1125.050781" xlink:href="#DejaVuSans-63"/>
      <use x="1180.03125" xlink:href="#DejaVuSans-74"/>
      <use x="1219.240234" xlink:href="#DejaVuSans-69"/>
      <use x="1247.023438" xlink:href="#DejaVuSans-6f"/>
      <use x="1308.205078" xlink:href="#DejaVuSans-6e"/>
     </g>
    </g>
   </g>
   <g id="line2d_29">
    <path d="m52.851 156.53 1.1692-3.9703h7.0152l1.1692-3.9703 1.1692-11.911h1.1692l1.1692-7.9406h1.1692l1.1692 19.852 1.1692 15.881h1.1692l1.1692 7.9406 1.1692 11.911 1.1692-3.9703h1.1692l2.3384 23.822 3.5076-11.911 1.1692 11.911 1.1692 3.9703 1.1692-7.9406h2.3384l1.1692 7.9406 2.3384-7.9406 1.1692-7.9406 1.1692 7.9406h2.3384l1.1692-7.9406 2.3384-7.9406h3.5076l1.1692 7.9406h3.5076l1.1692 3.9703h1.1692l1.1692-3.9703 2.3384 23.822 1.1692 15.881h1.1692l1.1692 3.9703 1.1692-7.9406 1.1692 7.9406h2.3384l1.1692-3.9703h3.5076l1.1692 11.911h3.5076l1.1692 3.9703h1.1692l1.1692 3.9703 2.3384-15.881h3.5076l1.1692-11.911h1.1692l1.1692 3.9703 1.1692 7.9406 1.1692 15.881 1.1692-7.9406 1.1692 3.9703h2.3384l1.1692 3.9703h1.1692l1.1692-3.9703 1.1692-11.911 1.1692-3.9703 1.1692-15.881 1.1692-7.9406h2.3384l1.1692-15.881h1.1692l1.1692-11.911 1.1692-7.9406h1.1692l1.1692 7.9406h1.1692l1.1692-3.9703 1.1692 11.911 1.1692-7.9406 1.1692 7.9406 1.1692 3.9703 1.1692-7.9406h1.1692l1.1692 3.9703h1.1692l1.1692-3.9703 4.6768 15.881 1.1692 7.9406 1.1692 3.9703 1.1692-3.9703 1.1692 3.9703 1.1692-11.911h2.3384l1.1692-11.911 1.1692-7.9406 1.1692 7.9406 1.1692-11.911 1.1692 3.9703 1.1692-3.9703 2.3384 15.881 3.5076-11.911 1.1692-11.911 1.1692 3.9703h1.1692l1.1692-3.9703h1.1692l1.1692-3.9703 1.1692 3.9703 1.1692-3.9703h1.1692l2.3384 15.881 1.1692 3.9703 1.1692-7.9406 2.3384 7.9406 1.1692 7.9406h1.1692l1.1692 3.9703 1.1692 7.9406 2.3384 7.9406h2.3384l1.1692 7.9406h2.3384l2.3384-15.881 1.1692-3.9703 1.1692 7.9406 1.1692-3.9703h1.1692l1.1692-3.9703 2.3384 15.881 1.1692-3.9703 1.1692 3.9703h1.1692l1.1692-3.9703 1.1692 11.911 1.1692 3.9703h1.1692l1.1692-3.9703h1.1692l1.1692-7.9406h1.1692l1.1692-3.9703h2.3384l1.1692 3.9703 1.1692-15.881 1.1692-3.9703h1.1692l1.1692-3.9703h4.6768l1.1692 3.9703 1.1692 11.911 1.1692-3.9703 1.1692-7.9406h1.1692l1.1692-7.9406h1.1692l1.1692-3.9703 1.1692-7.9406h1.1692l1.1692-3.9703 1.1692 7.9406h1.1692l2.3384 7.9406 2.3384-15.881h1.1692l1.1692 3.9703 1.1692-3.9703 1.1692-11.911h3.5076l1.1692-7.9406h3.5076l1.1692 7.9406 1.1692-3.9703 1.1692-7.9406h2.3384l1.1692 3.9703 1.1692-3.9703h2.3384l1.1692 7.9406h1.1692l1.1692 3.9703 2.3384-7.9406 1.1692 7.9406 1.1692-3.9703 1.1692-7.9406h1.1692l1.1692-7.9406h1.1692l1.1692-3.9703h1.1692l1.1692 3.9703h2.3384l1.1692 7.9406h1.1692l1.1692-3.9703h4.6768v0" clip-path="url(#p39f98adb5b)" fill="none" stroke="#43799d" stroke-linecap="square" stroke-width="1.5"/>
   </g>
   <g id="line2d_30">
    <path d="m52.851 220.05h2.3384l1.1692-3.9703h2.3384l1.1692-7.9406 5.846 19.852 2.3384-7.9406h1.1692l1.1692 3.9703 1.1692 11.911 1.1692 7.9406 1.1692-3.9703 1.1692 11.911 1.1692-3.9703h1.1692l1.1692 7.9406h2.3384l2.3384-7.9406 1.1692 3.9703 1.1692 7.9406 1.1692-7.9406 1.1692-3.9703h3.5076l1.1692-11.911h1.1692l1.1692-3.9703h1.1692l1.1692 11.911h2.3384l1.1692 3.9703 2.3384-23.822 1.1692 3.9703h1.1692l1.1692-15.881h3.5076l1.1692 3.9703 1.1692-3.9703 1.1692-15.881h1.1692l1.1692 3.9703h2.3384l2.3384-7.9406 1.1692 3.9703h2.3384l1.1692 3.9703 3.5076-11.911 1.1692 7.9406 2.3384-7.9406h2.3384l1.1692 7.9406 2.3384-7.9406 1.1692 3.9703 1.1692 11.911h1.1692l2.3384-7.9406 1.1692-15.881 1.1692 7.9406 1.1692-3.9703h1.1692l1.1692 7.9406 1.1692-7.9406h1.1692l1.1692 11.911h2.3384l1.1692 7.9406h1.1692l1.1692 11.911h1.1692l1.1692 11.911 1.1692-7.9406h1.1692l1.1692 11.911 1.1692 3.9703 1.1692-3.9703h2.3384l1.1692-3.9703 1.1692 3.9703 1.1692-3.9703 1.1692-7.9406 1.1692 3.9703h1.1692l1.1692-7.9406h1.1692l1.1692-7.9406 1.1692 3.9703h2.3384l3.5076-11.911 2.3384 7.9406 1.1692-3.9703h1.1692l1.1692 3.9703h1.1692l1.1692 11.911h2.3384l2.3384-7.9406 1.1692-11.911h1.1692l4.6768 31.763h4.6768l3.5076 11.911 1.1692-3.9703h2.3384l4.6768-15.881 1.1692-7.9406 1.1692-3.9703 1.1692 7.9406 2.3384-7.9406h5.846l1.1692 7.9406 1.1692 15.881h1.1692l1.1692 3.9703h1.1692l1.1692 7.9406h2.3384l1.1692-7.9406 1.1692-3.9703 1.1692-7.9406 1.1692 7.9406 1.1692-7.9406 3.5076-11.911 1.1692 3.9703h1.1692l1.1692 3.9703h2.3384l1.1692 3.9703h2.3384l2.3384-7.9406 1.1692-7.9406h2.3384l1.1692 3.9703 1.1692 11.911h1.1692l1.1692 3.9703 1.1692-3.9703 1.1692-7.9406 2.3384 15.881h1.1692l1.1692 3.9703 1.1692-3.9703h1.1692l1.1692-7.9406 1.1692 3.9703 1.1692-3.9703h1.1692l1.1692 7.9406 1.1692-3.9703 1.1692-7.9406 2.3384 7.9406 2.3384-7.9406 1.1692 3.9703 1.1692 15.881 1.1692 3.9703h3.5076l2.3384 7.9406h2.3384l1.1692-3.9703 1.1692 7.9406 1.1692 3.9703h1.1692l2.3384-7.9406 2.3384-15.881 1.1692-3.9703 1.1692 7.9406 1.1692-3.9703 1.1692 7.9406h1.1692l1.1692-7.9406 2.3384 7.9406h1.1692l2.3384-7.9406h2.3384l1.1692-3.9703h1.1692l3.5076-11.911 1.1692 7.9406 1.1692 3.9703h1.1692l1.1692-3.9703h1.1692v0" clip-path="url(#p39f98adb5b)" fill="none" stroke="#cc5b46" stroke-linecap="square" stroke-width="1.5"/>
   </g>
   <g id="line2d_31">
    <path d="m52.851 216.08 1.1692 3.9703h1.1692l1.1692 3.9703h3.5076l1.1692-7.9406h1.1692l2.3384 7.9406 1.1692 7.9406 1.1692 3.9703 1.1692-11.911h1.1692l1.1692-3.9703 1.1692-11.911 1.1692-3.9703 1.1692 7.9406 1.1692-11.911 3.5076-11.911 2.3384 7.9406h1.1692l1.1692 7.9406 1.1692-3.9703h4.6768l2.3384 15.881 1.1692 3.9703 1.1692-7.9406h1.1692l1.1692 3.9703h1.1692l1.1692 7.9406 1.1692 3.9703 1.1692-3.9703 2.3384 7.9406 1.1692-7.9406 1.1692-3.9703 2.3384 7.9406 3.5076-11.911 1.1692-7.9406 1.1692 3.9703 1.1692-3.9703 1.1692-7.9406 1.1692 3.9703 1.1692-7.9406 1.1692 7.9406 1.1692-11.911 1.1692 3.9703h4.6768l2.3384 15.881 1.1692-3.9703 1.1692 3.9703h1.1692l1.1692-11.911h1.1692l1.1692-7.9406 1.1692 3.9703 1.1692-3.9703h1.1692l1.1692 3.9703h1.1692l1.1692-3.9703h1.1692l2.3384 7.9406 1.1692 7.9406h1.1692l1.1692-11.911h1.1692l1.1692-3.9703h1.1692l2.3384 7.9406h1.1692l1.1692 7.9406 1.1692-7.9406h2.3384l1.1692 11.911 1.1692 7.9406 1.1692-11.911h2.3384l1.1692-3.9703 1.1692 7.9406 1.1692 3.9703 1.1692 7.9406 1.1692 3.9703 1.1692-3.9703 1.1692 3.9703h2.3384l1.1692 3.9703h2.3384l1.1692-3.9703 1.1692-7.9406h1.1692l2.3384-15.881 2.3384-7.9406 1.1692 11.911 1.1692-3.9703 2.3384 15.881 1.1692-7.9406h1.1692l1.1692 7.9406 1.1692 3.9703h1.1692l1.1692 3.9703 3.5076-11.911 1.1692 3.9703 1.1692 7.9406h4.6768l1.1692-3.9703 1.1692 3.9703h1.1692l2.3384-7.9406h1.1692l2.3384 15.881h1.1692l1.1692 7.9406 1.1692-7.9406h2.3384l1.1692 7.9406h1.1692l1.1692 7.9406 1.1692 3.9703 2.3384-7.9406h2.3384l1.1692-3.9703 1.1692 7.9406h1.1692l2.3384 7.9406 1.1692-3.9703h1.1692l1.1692-7.9406 1.1692-3.9703 1.1692 7.9406 1.1692-11.911 2.3384 7.9406 1.1692-15.881 1.1692 11.911 1.1692 3.9703h1.1692l1.1692-11.911 1.1692 3.9703 2.3384-7.9406h3.5076l1.1692 11.911h2.3384l1.1692 3.9703 1.1692-7.9406h1.1692l1.1692 3.9703 1.1692-7.9406 1.1692-11.911 2.3384-7.9406 3.5076 11.911 1.1692 7.9406 1.1692-3.9703 1.1692 3.9703h1.1692l1.1692 7.9406h1.1692l1.1692 7.9406h1.1692l1.1692-3.9703 1.1692 3.9703 1.1692-3.9703 1.1692 3.9703h2.3384l1.1692 3.9703 1.1692-3.9703 2.3384 7.9406 1.1692-3.9703 1.1692-7.9406 3.5076-11.911 1.1692 11.911 1.1692 3.9703h3.5076l1.1692 11.911 2.3384 7.9406 1.1692-7.9406 1.1692-3.9703h3.5076l2.3384-7.9406h1.1692l1.1692-7.9406 1.1692 11.911h3.5076l1.1692 3.9703h3.5076l1.1692 3.9703h1.1692l1.1692-3.9703h1.1692l1.1692-3.9703h1.1692v0" clip-path="url(#p39f98adb5b)" fill="none" stroke="#fb0" stroke-linecap="square" stroke-width="1.5"/>
   </g>
   <g id="line2d_32">
    <path d="m52.851 263.73h5.846l1.1692 7.9406 1.1692 3.9703h1.1692l1.1692 3.9703 1.1692-7.9406 1.1692-3.9703h1.1692l1.1692-3.9703 1.1692-15.881h1.1692l1.1692-7.9406 1.1692-15.881h2.3384l1.1692-3.9703 1.1692-7.9406h3.5076l2.3384-15.881 1.1692 7.9406 1.1692-7.9406 1.1692 7.9406 1.1692-3.9703 1.1692 3.9703 1.1692-3.9703h2.3384l1.1692 7.9406 2.3384 7.9406 1.1692-7.9406 2.3384-7.9406h1.1692l1.1692 7.9406h1.1692l2.3384 7.9406 1.1692 11.911 1.1692-7.9406 1.1692 3.9703 1.1692 7.9406 1.1692-11.911h1.1692l1.1692-3.9703 1.1692 3.9703h1.1692l1.1692 3.9703h1.1692l1.1692-3.9703 1.1692 15.881 1.1692-3.9703h2.3384l1.1692-3.9703 1.1692-7.9406 4.6768-15.881 1.1692 3.9703 3.5076 23.822h1.1692l1.1692 7.9406 2.3384-7.9406h1.1692l1.1692 3.9703 3.5076-11.911 1.1692-7.9406h1.1692l3.5076 11.911 1.1692-7.9406 1.1692 7.9406h1.1692l1.1692 7.9406h1.1692l1.1692-3.9703h1.1692l1.1692 3.9703 1.1692-3.9703 1.1692 3.9703 1.1692 7.9406 2.3384-7.9406 1.1692 3.9703 1.1692-3.9703 1.1692-11.911 1.1692-3.9703 1.1692-7.9406 1.1692 7.9406h2.3384l1.1692 3.9703 1.1692-3.9703 1.1692 11.911 1.1692-7.9406h1.1692l1.1692 3.9703h1.1692l1.1692 3.9703 1.1692 7.9406 1.1692 3.9703 1.1692-3.9703 2.3384 7.9406 1.1692-11.911 2.3384 7.9406 1.1692-7.9406 1.1692 3.9703 1.1692-3.9703 1.1692 7.9406h1.1692l1.1692-3.9703h2.3384l1.1692-7.9406 2.3384-7.9406h1.1692l1.1692 3.9703h1.1692l1.1692 3.9703 1.1692-11.911h1.1692l1.1692 7.9406 1.1692-3.9703 2.3384-15.881 1.1692 3.9703h1.1692l1.1692-7.9406 1.1692 7.9406 1.1692 3.9703 2.3384-23.822h1.1692l1.1692-11.911 1.1692-3.9703 1.1692 3.9703 1.1692-3.9703h1.1692l1.1692-7.9406 1.1692-3.9703h2.3384l1.1692-11.911 1.1692-7.9406 2.3384 7.9406 1.1692 7.9406h1.1692l1.1692 3.9703h1.1692l2.3384 7.9406 1.1692 7.9406 1.1692-11.911 1.1692-7.9406 1.1692 3.9703 1.1692 7.9406 3.5076 11.911h3.5076l1.1692 7.9406 1.1692 11.911h2.3384l1.1692 3.9703 1.1692-11.911 1.1692-3.9703 1.1692 3.9703 1.1692 11.911h2.3384l2.3384-7.9406h1.1692l1.1692-3.9703 1.1692 7.9406 1.1692 11.911 1.1692-3.9703h1.1692l1.1692-7.9406 1.1692-15.881h1.1692l1.1692 7.9406h1.1692l1.1692 7.9406h3.5076l1.1692-7.9406h1.1692l2.3384-7.9406 1.1692 11.911 1.1692 3.9703h1.1692l1.1692 3.9703 4.6768-15.881h2.3384l1.1692-3.9703 3.5076 11.911 1.1692-3.9703h1.1692l1.1692-3.9703 4.6768 15.881 1.1692 7.9406h1.1692l2.3384 7.9406h1.1692l1.1692-3.9703h1.1692l1.1692 3.9703 1.1692-3.9703h1.1692l1.1692-3.9703h2.3384l1.1692 7.9406h1.1692v0" clip-path="url(#p39f98adb5b)" fill="none" stroke="#71bc78" stroke-linecap="square" stroke-width="1.5"/>
   </g>
   <g id="patch_3">
    <path d="m54.02 318.04v-256.8" fill="none" stroke="#000" stroke-linecap="square" stroke-width=".8"/>
   </g>
   <g id="patch_4">
    <path d="m54.02 318.04h291.13" fill="none" stroke="#000" stroke-linecap="square" stroke-width=".8"/>
   </g>
   <g id="text_17"><!-- Free -->
    <defs>
     <path id="DejaVuSans-46" d="m9.8125 72.906h41.891v-8.3125h-32.031v-21.484h28.906v-8.2969h-28.906v-34.812h-9.8594z"/>
    </defs>
    <g transform="translate(186.29 55.24) scale(.12 -.12)">
     <use xlink:href="#DejaVuSans-46"/>
     <use x="57.410156" xlink:href="#DejaVuSans-72"/>
     <use x="98.492188" xlink:href="#DejaVuSans-65"/>
     <use x="160.015625" xlink:href="#DejaVuSans-65"/>
    </g>
   </g>
   <g id="legend_1">
    <g id="patch_5">
     <path d="m61.02 32.558h277.13q2 0 2-2v-13.678q0-2-2-2h-277.13q-2 0-2 2v13.678q0 2 2 2z" fill="#fff" opacity=".8" stroke="#ccc"/>
    </g>
    <g id="line2d_33">
     <path d="m63.02 22.978h20" fill="none" stroke="#43799d" stroke-linecap="square" stroke-width="1.5"/>
    </g>
    <g id="text_18"><!-- 1D -->
     <defs>
      <path id="DejaVuSans-44" d="m19.672 64.797v-56.688h11.922q15.094 0 22.094 6.8281 7 6.8438 7 21.594 0 14.641-7 21.453t-22.094 6.8125zm-9.8594 8.1094h20.266q21.188 0 31.094-8.8125 9.9219-8.8125 9.9219-27.562 0-18.859-9.9688-27.703-9.9531-8.8281-31.047-8.8281h-20.266z"/>
     </defs>
     <g transform="translate(91.02 26.478) scale(.1 -.1)">
      <use xlink:href="#DejaVuSans-31"/>
      <use x="63.623047" xlink:href="#DejaVuSans-44"/>
     </g>
    </g>
    <g id="line2d_35">
     <path d="m141.43 22.978h20" fill="none" stroke="#cc5b46" stroke-linecap="square" stroke-width="1.5"/>
    </g>
    <g id="text_19"><!-- I1D -->
     <defs>
      <path id="DejaVuSans-49" d="m9.8125 72.906h9.8594v-72.906h-9.8594z"/>
     </defs>
     <g transform="translate(169.43 26.478) scale(.1 -.1)">
      <use xlink:href="#DejaVuSans-49"/>
      <use x="29.492188" xlink:href="#DejaVuSans-31"/>
      <use x="93.115234" xlink:href="#DejaVuSans-44"/>
     </g>
    </g>
    <g id="line2d_37">
     <path d="m222.79 22.978h20" fill="none" stroke="#fb0" stroke-linecap="square" stroke-width="1.5"/>
    </g>
    <g id="text_20"><!-- 2D -->
     <g transform="translate(250.79 26.478) scale(.1 -.1)">
      <use xlink:href="#DejaVuSans-32"/>
      <use x="63.623047" xlink:href="#DejaVuSans-44"/>
     </g>
    </g>
    <g id="line2d_39">
     <path d="m301.2 22.978h20" fill="none" stroke="#71bc78" stroke-linecap="square" stroke-width="1.5"/>
    </g>
    <g id="text_21"><!-- R -->
     <defs>
      <path id="DejaVuSans-52" d="m44.391 34.188q3.1719-1.0781 6.1719-4.5938t6.0312-9.6719l10.016-19.922h-10.609l-9.3125 18.703q-3.625 7.3281-7.0156 9.7188t-9.25 2.3906h-10.75v-30.812h-9.8594v72.906h22.266q12.5 0 18.656-5.2344 6.1562-5.2188 6.1562-15.766 0-6.8906-3.2031-11.438-3.2031-4.5312-9.2969-6.2812zm-24.719 30.609v-25.875h12.406q7.125 0 10.766 3.2969t3.6406 9.6875-3.6406 9.6406-10.766 3.25z"/>
     </defs>
     <g transform="translate(329.2 26.478) scale(.1 -.1)">
      <use xlink:href="#DejaVuSans-52"/>
     </g>
    </g>
   </g>
  </g>
  <g id="axes_2">
   <g id="patch_6">
    <path d="m408.62 318.04h291.13v-256.8h-291.13z" fill="#fff"/>
   </g>
   <g id="matplotlib.axis_3">
    <g id="xtick_6">
     <g id="line2d_41">
      <path d="m465.91 318.04v-256.8" clip-path="url(#pd8fc77e166)" fill="none" stroke="#b0b0b0" stroke-linecap="square" stroke-width=".8"/>
     </g>
     <g id="line2d_42">
      <use x="465.910643" y="318.04" stroke="#000000" stroke-width=".8" xlink:href="#m159b2b4fb5"/>
     </g>
     <g id="text_22"><!-- 50 -->
      <g transform="translate(459.55 332.64) scale(.1 -.1)">
       <use xlink:href="#DejaVuSans-35"/>
       <use x="63.623047" xlink:href="#DejaVuSans-30"/>
      </g>
     </g>
    </g>
    <g id="xtick_7">
     <g id="line2d_43">
      <path d="m524.37 318.04v-256.8" clip-path="url(#pd8fc77e166)" fill="none" stroke="#b0b0b0" stroke-linecap="square" stroke-width=".8"/>
     </g>
     <g id="line2d_44">
      <use x="524.370482" y="318.04" stroke="#000000" stroke-width=".8" xlink:href="#m159b2b4fb5"/>
     </g>
     <g id="text_23"><!-- 100 -->
      <g transform="translate(514.83 332.64) scale(.1 -.1)">
       <use xlink:href="#DejaVuSans-31"/>
       <use x="63.623047" xlink:href="#DejaVuSans-30"/>
       <use x="127.246094" xlink:href="#DejaVuSans-30"/>
      </g>
     </g>
    </g>
    <g id="xtick_8">
     <g id="line2d_45">
      <path d="m582.83 318.04v-256.8" clip-path="url(#pd8fc77e166)" fill="none" stroke="#b0b0b0" stroke-linecap="square" stroke-width=".8"/>
     </g>
     <g id="line2d_46">
      <use x="582.830321" y="318.04" stroke="#000000" stroke-width=".8" xlink:href="#m159b2b4fb5"/>
     </g>
     <g id="text_24"><!-- 150 -->
      <g transform="translate(573.29 332.64) scale(.1 -.1)">
       <use xlink:href="#DejaVuSans-31"/>
       <use x="63.623047" xlink:href="#DejaVuSans-35"/>
       <use x="127.246094" xlink:href="#DejaVuSans-30"/>
      </g>
     </g>
    </g>
    <g id="xtick_9">
     <g id="line2d_47">
      <path d="m641.29 318.04v-256.8" clip-path="url(#pd8fc77e166)" fill="none" stroke="#b0b0b0" stroke-linecap="square" stroke-width=".8"/>
     </g>
     <g id="line2d_48">
      <use x="641.290161" y="318.04" stroke="#000000" stroke-width=".8" xlink:href="#m159b2b4fb5"/>
     </g>
     <g id="text_25"><!-- 200 -->
      <g transform="translate(631.75 332.64) scale(.1 -.1)">
       <use xlink:href="#DejaVuSans-32"/>
       <use x="63.623047" xlink:href="#DejaVuSans-30"/>
       <use x="127.246094" xlink:href="#DejaVuSans-30"/>
      </g>
     </g>
    </g>
    <g id="xtick_10">
     <g id="line2d_49">
      <path d="m699.75 318.04v-256.8" clip-path="url(#pd8fc77e166)" fill="none" stroke="#b0b0b0" stroke-linecap="square" stroke-width=".8"/>
     </g>
     <g id="line2d_50">
      <use x="699.75" y="318.04" stroke="#000000" stroke-width=".8" xlink:href="#m159b2b4fb5"/>
     </g>
     <g id="text_26"><!-- 250 -->
      <g transform="translate(690.21 332.64) scale(.1 -.1)">
       <use xlink:href="#DejaVuSans-32"/>
       <use x="63.623047" xlink:href="#DejaVuSans-35"/>
       <use x="127.246094" xlink:href="#DejaVuSans-30"/>
      </g>
     </g>
    </g>
    <g id="text_27"><!-- Trial number -->
     <g transform="translate(522.14 346.32) scale(.1 -.1)">
      <use xlink:href="#DejaVuSans-54"/>
      <use x="60.865234" xlink:href="#DejaVuSans-72"/>
      <use x="101.978516" xlink:href="#DejaVuSans-69"/>
      <use x="129.761719" xlink:href="#DejaVuSans-61"/>
      <use x="191.041016" xlink:href="#DejaVuSans-6c"/>
      <use x="218.824219" xlink:href="#DejaVuSans-20"/>
      <use x="250.611328" xlink:href="#DejaVuSans-6e"/>
      <use x="313.990234" xlink:href="#DejaVuSans-75"/>
      <use x="377.369141" xlink:href="#DejaVuSans-6d"/>
      <use x="474.78125" xlink:href="#DejaVuSans-62"/>
      <use x="538.257812" xlink:href="#DejaVuSans-65"/>
      <use x="599.78125" xlink:href="#DejaVuSans-72"/>
     </g>
    </g>
   </g>
   <g id="matplotlib.axis_4">
    <g id="ytick_10">
     <g id="line2d_51">
      <path d="m408.62 305.81h291.13" clip-path="url(#pd8fc77e166)" fill="none" stroke="#b0b0b0" stroke-linecap="square" stroke-width=".8"/>
     </g>
     <g id="line2d_52">
      <use x="408.62" y="305.811429" stroke="#000000" stroke-width=".8" xlink:href="#m521de0b118"/>
     </g>
     <g id="text_28"><!-- 0.10 -->
      <g transform="translate(379.35 309.61) scale(.1 -.1)">
       <use xlink:href="#DejaVuSans-30"/>
       <use x="63.623047" xlink:href="#DejaVuSans-2e"/>
       <use x="95.410156" xlink:href="#DejaVuSans-31"/>
       <use x="159.033203" xlink:href="#DejaVuSans-30"/>
      </g>
     </g>
    </g>
    <g id="ytick_11">
     <g id="line2d_53">
      <path d="m408.62 275.24h291.13" clip-path="url(#pd8fc77e166)" fill="none" stroke="#b0b0b0" stroke-linecap="square" stroke-width=".8"/>
     </g>
     <g id="line2d_54">
      <use x="408.62" y="275.24" stroke="#000000" stroke-width=".8" xlink:href="#m521de0b118"/>
     </g>
     <g id="text_29"><!-- 0.15 -->
      <g transform="translate(379.35 279.04) scale(.1 -.1)">
       <use xlink:href="#DejaVuSans-30"/>
       <use x="63.623047" xlink:href="#DejaVuSans-2e"/>
       <use x="95.410156" xlink:href="#DejaVuSans-31"/>
       <use x="159.033203" xlink:href="#DejaVuSans-35"/>
      </g>
     </g>
    </g>
    <g id="ytick_12">
     <g id="line2d_55">
      <path d="m408.62 244.67h291.13" clip-path="url(#pd8fc77e166)" fill="none" stroke="#b0b0b0" stroke-linecap="square" stroke-width=".8"/>
     </g>
     <g id="line2d_56">
      <use x="408.62" y="244.668571" stroke="#000000" stroke-width=".8" xlink:href="#m521de0b118"/>
     </g>
     <g id="text_30"><!-- 0.20 -->
      <g transform="translate(379.35 248.47) scale(.1 -.1)">
       <use xlink:href="#DejaVuSans-30"/>
       <use x="63.623047" xlink:href="#DejaVuSans-2e"/>
       <use x="95.410156" xlink:href="#DejaVuSans-32"/>
       <use x="159.033203" xlink:href="#DejaVuSans-30"/>
      </g>
     </g>
    </g>
    <g id="ytick_13">
     <g id="line2d_57">
      <path d="m408.62 214.1h291.13" clip-path="url(#pd8fc77e166)" fill="none" stroke="#b0b0b0" stroke-linecap="square" stroke-width=".8"/>
     </g>
     <g id="line2d_58">
      <use x="408.62" y="214.097143" stroke="#000000" stroke-width=".8" xlink:href="#m521de0b118"/>
     </g>
     <g id="text_31"><!-- 0.25 -->
      <g transform="translate(379.35 217.9) scale(.1 -.1)">
       <use xlink:href="#DejaVuSans-30"/>
       <use x="63.623047" xlink:href="#DejaVuSans-2e"/>
       <use x="95.410156" xlink:href="#DejaVuSans-32"/>
       <use x="159.033203" xlink:href="#DejaVuSans-35"/>
      </g>
     </g>
    </g>
    <g id="ytick_14">
     <g id="line2d_59">
      <path d="m408.62 183.53h291.13" clip-path="url(#pd8fc77e166)" fill="none" stroke="#b0b0b0" stroke-linecap="square" stroke-width=".8"/>
     </g>
     <g id="line2d_60">
      <use x="408.62" y="183.525714" stroke="#000000" stroke-width=".8" xlink:href="#m521de0b118"/>
     </g>
     <g id="text_32"><!-- 0.30 -->
      <g transform="translate(379.35 187.32) scale(.1 -.1)">
       <use xlink:href="#DejaVuSans-30"/>
       <use x="63.623047" xlink:href="#DejaVuSans-2e"/>
       <use x="95.410156" xlink:href="#DejaVuSans-33"/>
       <use x="159.033203" xlink:href="#DejaVuSans-30"/>
      </g>
     </g>
    </g>
    <g id="ytick_15">
     <g id="line2d_61">
      <path d="m408.62 152.95h291.13" clip-path="url(#pd8fc77e166)" fill="none" stroke="#b0b0b0" stroke-linecap="square" stroke-width=".8"/>
     </g>
     <g id="line2d_62">
      <use x="408.62" y="152.954286" stroke="#000000" stroke-width=".8" xlink:href="#m521de0b118"/>
     </g>
     <g id="text_33"><!-- 0.35 -->
      <g transform="translate(379.35 156.75) scale(.1 -.1)">
       <use xlink:href="#DejaVuSans-30"/>
       <use x="63.623047" xlink:href="#DejaVuSans-2e"/>
       <use x="95.410156" xlink:href="#DejaVuSans-33"/>
       <use x="159.033203" xlink:href="#DejaVuSans-35"/>
      </g>
     </g>
    </g>
    <g id="ytick_16">
     <g id="line2d_63">
      <path d="m408.62 122.38h291.13" clip-path="url(#pd8fc77e166)" fill="none" stroke="#b0b0b0" stroke-linecap="square" stroke-width=".8"/>
     </g>
     <g id="line2d_64">
      <use x="408.62" y="122.382857" stroke="#000000" stroke-width=".8" xlink:href="#m521de0b118"/>
     </g>
     <g id="text_34"><!-- 0.40 -->
      <g transform="translate(379.35 126.18) scale(.1 -.1)">
       <use xlink:href="#DejaVuSans-30"/>
       <use x="63.623047" xlink:href="#DejaVuSans-2e"/>
       <use x="95.410156" xlink:href="#DejaVuSans-34"/>
       <use x="159.033203" xlink:href="#DejaVuSans-30"/>
      </g>
     </g>
    </g>
    <g id="ytick_17">
     <g id="line2d_65">
      <path d="m408.62 91.811h291.13" clip-path="url(#pd8fc77e166)" fill="none" stroke="#b0b0b0" stroke-linecap="square" stroke-width=".8"/>
     </g>
     <g id="line2d_66">
      <use x="408.62" y="91.811429" stroke="#000000" stroke-width=".8" xlink:href="#m521de0b118"/>
     </g>
     <g id="text_35"><!-- 0.45 -->
      <g transform="translate(379.35 95.611) scale(.1 -.1)">
       <use xlink:href="#DejaVuSans-30"/>
       <use x="63.623047" xlink:href="#DejaVuSans-2e"/>
       <use x="95.410156" xlink:href="#DejaVuSans-34"/>
       <use x="159.033203" xlink:href="#DejaVuSans-35"/>
      </g>
     </g>
    </g>
    <g id="ytick_18">
     <g id="line2d_67">
      <path d="m408.62 61.24h291.13" clip-path="url(#pd8fc77e166)" fill="none" stroke="#b0b0b0" stroke-linecap="square" stroke-width=".8"/>
     </g>
     <g id="line2d_68">
      <use x="408.62" y="61.24" stroke="#000000" stroke-width=".8" xlink:href="#m521de0b118"/>
     </g>
     <g id="text_36"><!-- 0.50 -->
      <g transform="translate(379.35 65.039) scale(.1 -.1)">
       <use xlink:href="#DejaVuSans-30"/>
       <use x="63.623047" xlink:href="#DejaVuSans-2e"/>
       <use x="95.410156" xlink:href="#DejaVuSans-35"/>
       <use x="159.033203" xlink:href="#DejaVuSans-30"/>
      </g>
     </g>
    </g>
    <g id="text_37"><!-- Proportion of task selection -->
     <g transform="translate(373.27 258.22) rotate(-90) scale(.1 -.1)">
      <use xlink:href="#DejaVuSans-50"/>
      <use x="60.287109" xlink:href="#DejaVuSans-72"/>
      <use x="101.369141" xlink:href="#DejaVuSans-6f"/>
      <use x="162.550781" xlink:href="#DejaVuSans-70"/>
      <use x="226.027344" xlink:href="#DejaVuSans-6f"/>
      <use x="287.208984" xlink:href="#DejaVuSans-72"/>
      <use x="328.322266" xlink:href="#DejaVuSans-74"/>
      <use x="367.53125" xlink:href="#DejaVuSans-69"/>
      <use x="395.314453" xlink:href="#DejaVuSans-6f"/>
      <use x="456.496094" xlink:href="#DejaVuSans-6e"/>
      <use x="519.875" xlink:href="#DejaVuSans-20"/>
      <use x="551.662109" xlink:href="#DejaVuSans-6f"/>
      <use x="612.84375" xlink:href="#DejaVuSans-66"/>
      <use x="648.048828" xlink:href="#DejaVuSans-20"/>
      <use x="679.835938" xlink:href="#DejaVuSans-74"/>
      <use x="719.044922" xlink:href="#DejaVuSans-61"/>
      <use x="780.324219" xlink:href="#DejaVuSans-73"/>
      <use x="832.423828" xlink:href="#DejaVuSans-6b"/>
      <use x="890.333984" xlink:href="#DejaVuSans-20"/>
      <use x="922.121094" xlink:href="#DejaVuSans-73"/>
      <use x="974.220703" xlink:href="#DejaVuSans-65"/>
      <use x="1035.744141" xlink:href="#DejaVuSans-6c"/>
      <use x="1063.527344" xlink:href="#DejaVuSans-65"/>
      <use x="1125.050781" xlink:href="#DejaVuSans-63"/>
      <use x="1180.03125" xlink:href="#DejaVuSans-74"/>
      <use x="1219.240234" xlink:href="#DejaVuSans-69"/>
      <use x="1247.023438" xlink:href="#DejaVuSans-6f"/>
      <use x="1308.205078" xlink:href="#DejaVuSans-6e"/>
     </g>
    </g>
   </g>
   <g id="line2d_69">
    <path d="m407.45 203.68h1.1692l1.1692 3.474h1.1692l1.1692 3.474 2.3384 13.896 1.1692 3.474 1.1692 10.422 1.1692-3.474 1.1692 10.422 1.1692 6.9481 1.1692 3.474 1.1692-3.474h1.1692l1.1692 6.9481h2.3384l2.3384-6.9481 1.1692 3.474 1.1692-3.474 1.1692 3.474h1.1692l1.1692-13.896 1.1692 10.422 1.1692 6.9481 1.1692-10.422 1.1692 3.474h2.3384l1.1692-3.474 2.3384 6.9481h1.1692l1.1692-3.474h1.1692l1.1692-3.474 2.3384 13.896h2.3384l1.1692 3.474h1.1692l1.1692 6.9481 1.1692-10.422 1.1692-6.9481 1.1692-3.474h1.1692l1.1692-3.474 1.1692 20.844 1.1692 6.9481h1.1692l1.1692 3.474 3.5076-10.422 2.3384 6.9481h1.1692l1.1692-6.9481 1.1692-3.474 1.1692 3.474 1.1692-3.474 1.1692 10.422h1.1692l2.3384-13.896 1.1692 6.9481 1.1692-3.474 1.1692 6.9481 1.1692-3.474 1.1692 3.474 1.1692-10.422 1.1692 3.474 1.1692 10.422 1.1692-3.474 1.1692-6.9481h1.1692l1.1692 3.474 1.1692 6.9481h1.1692l5.846 17.37h3.5076l1.1692-10.422h1.1692l2.3384-6.9481h1.1692l3.5076-10.422 1.1692-10.422 1.1692 3.474h1.1692l2.3384 6.9481 1.1692-3.474 1.1692 3.474 1.1692 6.9481h1.1692l1.1692 3.474 1.1692 6.9481h1.1692l1.1692-3.474h1.1692l2.3384 6.9481 1.1692 6.9481h1.1692l1.1692-3.474h1.1692l1.1692-3.474h1.1692l1.1692 3.474 1.1692-3.474 1.1692-6.9481 1.1692-10.422 4.6768-13.896h3.5076l1.1692 3.474 1.1692 6.9481h1.1692l1.1692-3.474 1.1692 3.474h1.1692l1.1692 13.896h1.1692l1.1692 3.474 1.1692 6.9481 1.1692 10.422 1.1692 6.9481h1.1692l1.1692-3.474h2.3384l1.1692-13.896 3.5076-10.422 1.1692 3.474 1.1692 13.896h1.1692l1.1692-3.474 2.3384-13.896h1.1692l1.1692 3.474 1.1692-3.474h1.1692l2.3384 6.9481 1.1692-3.474 1.1692-6.9481 1.1692-3.474 1.1692 3.474 2.3384-6.9481 1.1692 3.474 1.1692-6.9481h2.3384l1.1692-6.9481 1.1692-3.474 1.1692-6.9481h3.5076l1.1692 3.474 1.1692-6.9481h1.1692l1.1692 6.9481 1.1692 10.422 1.1692-3.474h8.1844l2.3384 6.9481h2.3384l1.1692 3.474 1.1692-3.474 1.1692 10.422 1.1692 6.9481 1.1692-3.474 1.1692 6.9481 1.1692-3.474h1.1692l1.1692-3.474h1.1692l1.1692-6.9481h4.6768l1.1692-6.9481h1.1692l2.3384 6.9481 1.1692-10.422h1.1692l1.1692 6.9481h2.3384l3.5076 10.422 1.1692-10.422h2.3384l1.1692-3.474 1.1692 6.9481h2.3384l1.1692-13.896 3.5076 10.422 1.1692-3.474h1.1692l1.1692-3.474 1.1692 3.474 1.1692 6.9481h4.6768l1.1692-3.474 1.1692 3.474 1.1692-3.474h1.1692l1.1692-6.9481 1.1692-3.474h1.1692v0" clip-path="url(#pd8fc77e166)" fill="none" stroke="#43799d" stroke-linecap="square" stroke-width="1.5"/>
   </g>
   <g id="line2d_70">
    <path d="m407.45 252.31h1.1692l1.1692-3.474h2.3384l1.1692 3.474h2.3384l1.1692-6.9481 1.1692-3.474 1.1692-10.422 3.5076 10.422 1.1692-3.474 1.1692 3.474h1.1692l2.3384 6.9481 1.1692-3.474 1.1692 3.474 1.1692-6.9481h1.1692l2.3384 6.9481h1.1692l1.1692-3.474 1.1692 3.474 1.1692-10.422 1.1692 3.474 2.3384-6.9481 1.1692 3.474 1.1692-10.422 1.1692 6.9481h1.1692l1.1692-6.9481 1.1692-3.474 1.1692-10.422h1.1692l1.1692 3.474 1.1692-6.9481 1.1692-3.474 2.3384-13.896 1.1692 10.422 1.1692 3.474 2.3384 13.896 1.1692-3.474 1.1692 3.474 1.1692-13.896 2.3384-20.844 1.1692 10.422h1.1692l3.5076 10.422 1.1692 6.9481h1.1692l1.1692 6.9481 1.1692 3.474 1.1692-6.9481 1.1692-3.474h1.1692l1.1692 10.422 1.1692-17.37 1.1692-10.422 1.1692 3.474h1.1692l1.1692-3.474 1.1692 10.422 1.1692 13.896 2.3384-6.9481 1.1692 10.422h1.1692l1.1692 6.9481h1.1692l1.1692 3.474 1.1692-10.422 1.1692-3.474 1.1692 3.474h1.1692l1.1692-6.9481 1.1692 3.474h1.1692l2.3384-6.9481 1.1692 6.9481h1.1692l1.1692 3.474 1.1692 6.9481 1.1692-6.9481h1.1692l1.1692 6.9481h1.1692l1.1692 3.474 1.1692-3.474 1.1692 10.422 1.1692-3.474 3.5076 10.422 1.1692-6.9481 1.1692 6.9481 1.1692 3.474 1.1692-6.9481 2.3384 6.9481h1.1692l2.3384-6.9481 1.1692 3.474 1.1692-3.474 2.3384 13.896h1.1692l1.1692 3.474h3.5076l2.3384 6.9481h3.5076l2.3384-13.896h1.1692l2.3384 6.9481h1.1692l1.1692 3.474h1.1692l1.1692-3.474h1.1692l1.1692-3.474 1.1692 6.9481 1.1692 3.474 1.1692-6.9481 1.1692 6.9481 1.1692 3.474 1.1692-3.474 1.1692-10.422h2.3384l1.1692 3.474 1.1692-3.474 1.1692 13.896 2.3384-6.9481 1.1692-6.9481 1.1692-3.474 1.1692 3.474h1.1692l2.3384-6.9481 1.1692 3.474h1.1692l1.1692-3.474 2.3384 6.9481h2.3384l1.1692 6.9481h1.1692l1.1692 6.9481 1.1692 3.474 1.1692-6.9481h1.1692l1.1692-3.474h1.1692l1.1692 3.474h2.3384l3.5076-10.422h2.3384l1.1692 6.9481h1.1692l1.1692 10.422 1.1692-3.474 1.1692 3.474 1.1692-6.9481h2.3384l1.1692 6.9481 1.1692-3.474 1.1692-6.9481h1.1692l1.1692 3.474 1.1692-6.9481 1.1692 3.474 1.1692 6.9481 1.1692-3.474h2.3384l1.1692-6.9481 1.1692-10.422h1.1692l1.1692 3.474 1.1692-3.474 1.1692-6.9481 2.3384 6.9481h3.5076l1.1692-3.474 1.1692 3.474h5.846l1.1692-3.474 1.1692 3.474h1.1692l1.1692-3.474 1.1692 10.422 1.1692-3.474 1.1692 6.9481 1.1692 3.474h3.5076l1.1692 3.474 1.1692-6.9481h1.1692l1.1692-10.422 1.1692-3.474 1.1692 6.9481 1.1692 3.474h1.1692l1.1692-3.474h2.3384l2.3384-6.9481 1.1692 3.474h1.1692l1.1692-6.9481 1.1692 3.474 1.1692 10.422 1.1692 3.474h1.1692v0" clip-path="url(#pd8fc77e166)" fill="none" stroke="#cc5b46" stroke-linecap="square" stroke-width="1.5"/>
   </g>
   <g id="line2d_71">
    <path d="m407.45 224.52h2.3384l1.1692 3.474 1.1692-3.474 1.1692-6.9481 1.1692-3.474h4.6768l1.1692-10.422 1.1692-6.9481 1.1692-3.474 1.1692 3.474 1.1692-6.9481h2.3384l2.3384 6.9481 1.1692-3.474 1.1692 10.422h1.1692l1.1692-6.9481 1.1692 10.422 1.1692 3.474h1.1692l1.1692 6.9481 1.1692 3.474 1.1692-6.9481 2.3384 6.9481 1.1692-3.474 1.1692 10.422h1.1692l1.1692 10.422h1.1692l1.1692-6.9481h1.1692l1.1692-6.9481 3.5076-10.422 1.1692 6.9481 1.1692-3.474 2.3384 6.9481 2.3384-13.896 1.1692 6.9481 1.1692-13.896 2.3384 6.9481 1.1692 6.9481 1.1692-3.474 1.1692-10.422 1.1692-6.9481h1.1692l2.3384-13.896 1.1692 6.9481 1.1692-6.9481 2.3384 6.9481 1.1692-10.422 1.1692-3.474 1.1692-10.422 1.1692 17.37 1.1692 6.9481h1.1692l1.1692 3.474 1.1692 6.9481 1.1692-10.422 1.1692-3.474 1.1692 3.474 1.1692-6.9481 1.1692-3.474 1.1692 10.422 1.1692 3.474h1.1692l1.1692-6.9481 1.1692 10.422h2.3384l1.1692-3.474 1.1692 10.422h1.1692l1.1692 3.474 1.1692 6.9481h4.6768l1.1692-10.422 1.1692 10.422 2.3384 13.896h1.1692l1.1692 10.422 1.1692 3.474 3.5076-10.422h1.1692l1.1692-6.9481h1.1692l1.1692-3.474 2.3384 6.9481 1.1692-6.9481 1.1692 6.9481 1.1692 3.474 1.1692-3.474 1.1692 6.9481 1.1692-13.896 5.846-17.37 1.1692 3.474 1.1692-3.474 1.1692 13.896 1.1692 3.474 1.1692-3.474 1.1692 3.474h1.1692l2.3384 13.896 1.1692-3.474 1.1692 3.474h1.1692l1.1692-10.422h1.1692l1.1692-6.9481 1.1692 6.9481 1.1692 3.474 2.3384-6.9481 1.1692-6.9481 2.3384-6.9481 1.1692-10.422h1.1692l1.1692 6.9481 1.1692 10.422 2.3384 6.9481 1.1692-13.896 1.1692 3.474 1.1692-17.37 1.1692 10.422 1.1692-13.896h1.1692l1.1692 3.474 1.1692-3.474 1.1692 3.474h1.1692l1.1692-3.474h2.3384l1.1692-6.9481h2.3384l1.1692 3.474h1.1692l1.1692-3.474 1.1692 3.474 2.3384-6.9481 1.1692 10.422 1.1692-3.474 1.1692 3.474 1.1692 6.9481 1.1692 3.474 1.1692 13.896h4.6768l2.3384 6.9481h1.1692l1.1692-3.474 1.1692 6.9481 1.1692-10.422 1.1692 10.422h1.1692l1.1692 3.474 2.3384-13.896h1.1692l1.1692 3.474 2.3384-6.9481 3.5076 10.422h1.1692l1.1692-10.422 1.1692 6.9481 1.1692-6.9481 1.1692 10.422 1.1692-3.474h1.1692l1.1692 3.474 1.1692 13.896 1.1692 3.474h1.1692l4.6768-13.896h1.1692l1.1692-3.474 1.1692 6.9481h1.1692l1.1692-13.896 1.1692-3.474 1.1692 3.474 1.1692-10.422 1.1692-3.474h2.3384l1.1692 6.9481 1.1692 3.474h1.1692l1.1692 10.422 1.1692-6.9481h1.1692l1.1692 17.37h1.1692l1.1692 6.9481 1.1692 3.474 1.1692-3.474h2.3384l1.1692-3.474 1.1692-6.9481h1.1692l1.1692 10.422h2.3384l1.1692-3.474h1.1692l1.1692 3.474h4.6768v0" clip-path="url(#pd8fc77e166)" fill="none" stroke="#fb0" stroke-linecap="square" stroke-width="1.5"/>
   </g>
   <g id="line2d_72">
    <path d="m407.45 175.88h2.3384l1.1692-3.474h1.1692l4.6768-13.896 1.1692 6.9481h3.5076l1.1692 3.474h1.1692l1.1692-3.474h1.1692l2.3384-6.9481 1.1692 3.474 1.1692-3.474h1.1692l1.1692-3.474 1.1692 3.474h1.1692l1.1692-13.896 1.1692-3.474h1.1692l2.3384 6.9481h1.1692l1.1692 3.474 2.3384-6.9481 2.3384-13.896 1.1692 6.9481 1.1692 13.896 1.1692 3.474h2.3384l1.1692 10.422 1.1692 3.474h1.1692l1.1692 3.474 1.1692-3.474h1.1692l1.1692 3.474h2.3384l1.1692-10.422 1.1692 3.474 1.1692 6.9481h1.1692l1.1692-3.474 1.1692 13.896 1.1692 6.9481 1.1692-6.9481h3.5076l1.1692 3.474 1.1692-10.422 1.1692 6.9481 2.3384 6.9481 2.3384 13.896 1.1692-3.474h1.1692l1.1692-10.422h1.1692l1.1692-3.474h1.1692l1.1692-3.474h1.1692l2.3384-6.9481 1.1692-10.422 2.3384-6.9481h2.3384l1.1692-6.9481h1.1692l2.3384-13.896 2.3384-6.9481 2.3384 6.9481h2.3384l1.1692 6.9481 2.3384-6.9481 1.1692-10.422 1.1692 3.474 2.3384-6.9481 1.1692-6.9481 1.1692 3.474 1.1692-3.474h3.5076l1.1692-3.474 1.1692-10.422 1.1692-3.474 1.1692 3.474 1.1692-6.9481 1.1692-3.474 1.1692 3.474 1.1692-6.9481 1.1692 3.474 1.1692 6.9481h1.1692l1.1692-3.474 1.1692 6.9481h1.1692l1.1692-6.9481 1.1692 6.9481 1.1692-6.9481 2.3384 6.9481h1.1692l1.1692 3.474 1.1692-3.474h1.1692l1.1692 10.422 1.1692-3.474 1.1692-6.9481h2.3384l1.1692 6.9481 1.1692-10.422h1.1692l1.1692-10.422 1.1692 6.9481 1.1692-3.474 1.1692-6.9481h1.1692l2.3384-6.9481h2.3384l1.1692-3.474 1.1692 10.422 1.1692 13.896 1.1692 3.474 1.1692 6.9481 1.1692-10.422 1.1692 3.474 1.1692 6.9481 1.1692 3.474 1.1692 6.9481 3.5076 10.422h2.3384l1.1692 6.9481 1.1692-6.9481h1.1692l2.3384 6.9481 1.1692-6.9481h2.3384l1.1692-3.474 2.3384 6.9481h2.3384l1.1692-3.474 1.1692-6.9481h1.1692l2.3384 6.9481h1.1692l1.1692 3.474 1.1692-3.474 1.1692-13.896 1.1692-6.9481 1.1692-13.896 1.1692 13.896 1.1692-13.896 1.1692 6.9481 1.1692-3.474 1.1692 6.9481h1.1692l1.1692 3.474h3.5076l1.1692 3.474 1.1692-10.422 2.3384-13.896 1.1692 3.474 1.1692-3.474 1.1692 6.9481 2.3384 6.9481h3.5076l1.1692-6.9481 1.1692-3.474 2.3384 6.9481 1.1692 10.422 1.1692 6.9481 1.1692-6.9481h1.1692l1.1692 3.474h1.1692l1.1692 6.9481 1.1692 3.474h1.1692l1.1692 3.474h3.5076l1.1692-3.474 1.1692-10.422h1.1692l1.1692-17.37 1.1692 6.9481h1.1692l1.1692-6.9481 1.1692 3.474 1.1692-10.422 1.1692 3.474 1.1692 10.422 1.1692-6.9481h2.3384l1.1692 3.474h1.1692l1.1692-10.422 3.5076 10.422 1.1692-3.474 1.1692 6.9481 2.3384-6.9481h2.3384v0" clip-path="url(#pd8fc77e166)" fill="none" stroke="#71bc78" stroke-linecap="square" stroke-width="1.5"/>
   </g>
   <g id="patch_7">
    <path d="m408.62 318.04v-256.8" fill="none" stroke="#000" stroke-linecap="square" stroke-width=".8"/>
   </g>
   <g id="patch_8">
    <path d="m408.62 318.04h291.13" fill="none" stroke="#000" stroke-linecap="square" stroke-width=".8"/>
   </g>
   <g id="text_38"><!-- Strategic -->
    <defs>
     <path id="DejaVuSans-53" d="m53.516 70.516v-9.625q-5.6094 2.6875-10.594 4-4.9844 1.3281-9.625 1.3281-8.0469 0-12.422-3.125t-4.375-8.8906q0-4.8438 2.9062-7.3125 2.9062-2.4531 11.016-3.9688l5.9531-1.2188q11.031-2.1094 16.281-7.4062t5.25-14.172q0-10.609-7.1094-16.078-7.0938-5.4688-20.812-5.4688-5.1719 0-11.016 1.1719-5.8281 1.1719-12.078 3.4688v10.156q6-3.3594 11.766-5.0781 5.7656-1.7031 11.328-1.7031 8.4375 0 13.031 3.3125 4.5938 3.3281 4.5938 9.4844 0 5.3594-3.2969 8.3906t-10.812 4.5469l-6.0156 1.1719q-11.031 2.1875-15.969 6.875-4.9219 4.6875-4.9219 13.047 0 9.6719 6.8125 15.234t18.766 5.5625q5.1406 0 10.453-0.9375 5.3281-0.92188 10.891-2.7656z"/>
     <path id="DejaVuSans-67" d="m45.406 27.984q0 9.7656-4.0312 15.125-4.0156 5.375-11.297 5.375-7.2188 0-11.25-5.375-4.0312-5.3594-4.0312-15.125 0-9.7188 4.0312-15.094t11.25-5.375q7.2812 0 11.297 5.375 4.0312 5.375 4.0312 15.094zm8.9844-21.203q0-13.953-6.2031-20.766-6.1875-6.8125-18.984-6.8125-4.7344 0-8.9375 0.70312t-8.1562 2.1719v8.7344q3.9531-2.1406 7.8125-3.1562 3.8594-1.0312 7.8594-1.0312 8.8438 0 13.234 4.6094t4.3906 13.938v4.4531q-2.7812-4.8438-7.125-7.2344t-10.406-2.3906q-10.047 0-16.203 7.6562-6.1562 7.6719-6.1562 20.328 0 12.688 6.1562 20.344 6.1562 7.6719 16.203 7.6719 6.0625 0 10.406-2.3906t7.125-7.2188v8.2969h8.9844z"/>
    </defs>
    <g transform="translate(527.06 55.24) scale(.12 -.12)">
     <use xlink:href="#DejaVuSans-53"/>
     <use x="63.476562" xlink:href="#DejaVuSans-74"/>
     <use x="102.685547" xlink:href="#DejaVuSans-72"/>
     <use x="143.798828" xlink:href="#DejaVuSans-61"/>
     <use x="205.078125" xlink:href="#DejaVuSans-74"/>
     <use x="244.287109" xlink:href="#DejaVuSans-65"/>
     <use x="305.810547" xlink:href="#DejaVuSans-67"/>
     <use x="369.287109" xlink:href="#DejaVuSans-69"/>
     <use x="397.070312" xlink:href="#DejaVuSans-63"/>
    </g>
   </g>
   <g id="legend_2">
    <g id="patch_9">
     <path d="m415.62 32.558h277.13q2 0 2-2v-13.678q0-2-2-2h-277.13q-2 0-2 2v13.678q0 2 2 2z" fill="#fff" opacity=".8" stroke="#ccc"/>
    </g>
    <g id="line2d_73">
     <path d="m417.62 22.978h20" fill="none" stroke="#43799d" stroke-linecap="square" stroke-width="1.5"/>
    </g>
    <g id="text_39"><!-- 1D -->
     <g transform="translate(445.62 26.478) scale(.1 -.1)">
      <use xlink:href="#DejaVuSans-31"/>
      <use x="63.623047" xlink:href="#DejaVuSans-44"/>
     </g>
    </g>
    <g id="line2d_75">
     <path d="m496.03 22.978h20" fill="none" stroke="#cc5b46" stroke-linecap="square" stroke-width="1.5"/>
    </g>
    <g id="text_40"><!-- I1D -->
     <g transform="translate(524.03 26.478) scale(.1 -.1)">
      <use xlink:href="#DejaVuSans-49"/>
      <use x="29.492188" xlink:href="#DejaVuSans-31"/>
      <use x="93.115234" xlink:href="#DejaVuSans-44"/>
     </g>
    </g>
    <g id="line2d_77">
     <path d="m577.39 22.978h20" fill="none" stroke="#fb0" stroke-linecap="square" stroke-width="1.5"/>
    </g>
    <g id="text_41"><!-- 2D -->
     <g transform="translate(605.39 26.478) scale(.1 -.1)">
      <use xlink:href="#DejaVuSans-32"/>
      <use x="63.623047" xlink:href="#DejaVuSans-44"/>
     </g>
    </g>
    <g id="line2d_79">
     <path d="m655.8 22.978h20" fill="none" stroke="#71bc78" stroke-linecap="square" stroke-width="1.5"/>
    </g>
    <g id="text_42"><!-- R -->
     <g transform="translate(683.8 26.478) scale(.1 -.1)">
      <use xlink:href="#DejaVuSans-52"/>
     </g>
    </g>
   </g>
  </g>
 </g>
 <defs>
  <clipPath id="p39f98adb5b">
   <rect x="54.02" y="61.24" width="291.13" height="256.8"/>
  </clipPath>
  <clipPath id="pd8fc77e166">
   <rect x="408.62" y="61.24" width="291.13" height="256.8"/>
  </clipPath>
 </defs>
</svg>
