<?xml version="1.0" encoding="UTF-8"?>
<!DOCTYPE svg  PUBLIC '-//W3C//DTD SVG 1.1//EN'  'http://www.w3.org/Graphics/SVG/1.1/DTD/svg11.dtd'>
<!-- Created with matplotlib (http://matplotlib.org/) -->
<svg width="432pt" height="360pt" version="1.1" viewBox="0 0 432 360" xmlns="http://www.w3.org/2000/svg" xmlns:xlink="http://www.w3.org/1999/xlink">
 <defs>
  <style type="text/css">*{stroke-linecap:butt;stroke-linejoin:round;}</style>
 </defs>
 <g id="figure_1">
  <g id="patch_1">
   <path d="m0 360h432v-360h-432z" fill="#fff"/>
  </g>
  <g id="axes_1">
   <g id="patch_2">
    <path d="m54.02 318.04h364.66v-303.28h-364.66z" fill="#fff"/>
   </g>
   <g id="matplotlib.axis_1">
    <g id="xtick_1">
     <g id="line2d_1">
      <defs>
       <path id="md2f85f7926" d="m0 0v3.5" stroke="#000" stroke-width=".8"/>
      </defs>
      <use x="101.954423" y="318.04" stroke="#000000" stroke-width=".8" xlink:href="#md2f85f7926"/>
     </g>
     <g id="text_1"><!-- 1D -->
      <defs>
       <path id="DejaVuSans-31" d="m12.406 8.2969h16.109v55.625l-17.531-3.5156v8.9844l17.438 3.5156h9.8594v-64.609h16.109v-8.2969h-41.984z"/>
       <path id="DejaVuSans-44" d="m19.672 64.797v-56.688h11.922q15.094 0 22.094 6.8281 7 6.8438 7 21.594 0 14.641-7 21.453t-22.094 6.8125zm-9.8594 8.1094h20.266q21.188 0 31.094-8.8125 9.9219-8.8125 9.9219-27.562 0-18.859-9.9688-27.703-9.9531-8.8281-31.047-8.8281h-20.266z"/>
      </defs>
      <g transform="translate(94.923 332.64) scale(.1 -.1)">
       <use xlink:href="#DejaVuSans-31"/>
       <use x="63.623047" xlink:href="#DejaVuSans-44"/>
      </g>
     </g>
    </g>
    <g id="xtick_2">
     <g id="line2d_2">
      <use x="191.551474" y="318.04" stroke="#000000" stroke-width=".8" xlink:href="#md2f85f7926"/>
     </g>
     <g id="text_2"><!-- I1D -->
      <defs>
       <path id="DejaVuSans-49" d="m9.8125 72.906h9.8594v-72.906h-9.8594z"/>
      </defs>
      <g transform="translate(183.05 332.64) scale(.1 -.1)">
       <use xlink:href="#DejaVuSans-49"/>
       <use x="29.492188" xlink:href="#DejaVuSans-31"/>
       <use x="93.115234" xlink:href="#DejaVuSans-44"/>
      </g>
     </g>
    </g>
    <g id="xtick_3">
     <g id="line2d_3">
      <use x="281.148526" y="318.04" stroke="#000000" stroke-width=".8" xlink:href="#md2f85f7926"/>
     </g>
     <g id="text_3"><!-- 2D -->
      <defs>
       <path id="DejaVuSans-32" d="m19.188 8.2969h34.422v-8.2969h-46.281v8.2969q5.6094 5.8125 15.297 15.594 9.7031 9.7969 12.188 12.641 4.7344 5.3125 6.6094 9 1.8906 3.6875 1.8906 7.25 0 5.8125-4.0781 9.4688-4.0781 3.6719-10.625 3.6719-4.6406 0-9.7969-1.6094-5.1406-1.6094-11-4.8906v9.9688q5.9531 2.3906 11.125 3.6094 5.1875 1.2188 9.4844 1.2188 11.328 0 18.062-5.6719 6.7344-5.6562 6.7344-15.125 0-4.5-1.6875-8.5312-1.6719-4.0156-6.125-9.4844-1.2188-1.4219-7.7656-8.1875-6.5312-6.7656-18.453-18.922z"/>
      </defs>
      <g transform="translate(274.12 332.64) scale(.1 -.1)">
       <use xlink:href="#DejaVuSans-32"/>
       <use x="63.623047" xlink:href="#DejaVuSans-44"/>
      </g>
     </g>
    </g>
    <g id="xtick_4">
     <g id="line2d_4">
      <use x="370.745577" y="318.04" stroke="#000000" stroke-width=".8" xlink:href="#md2f85f7926"/>
     </g>
     <g id="text_4"><!-- R -->
      <defs>
       <path id="DejaVuSans-52" d="m44.391 34.188q3.1719-1.0781 6.1719-4.5938t6.0312-9.6719l10.016-19.922h-10.609l-9.3125 18.703q-3.625 7.3281-7.0156 9.7188t-9.25 2.3906h-10.75v-30.812h-9.8594v72.906h22.266q12.5 0 18.656-5.2344 6.1562-5.2188 6.1562-15.766 0-6.8906-3.2031-11.438-3.2031-4.5312-9.2969-6.2812zm-24.719 30.609v-25.875h12.406q7.125 0 10.766 3.2969t3.6406 9.6875-3.6406 9.6406-10.766 3.25z"/>
      </defs>
      <g transform="translate(367.27 332.64) scale(.1 -.1)">
       <use xlink:href="#DejaVuSans-52"/>
      </g>
     </g>
    </g>
    <g id="text_5"><!-- Task -->
     <defs>
      <path id="DejaVuSans-54" d="m-0.29688 72.906h61.672v-8.3125h-25.875v-64.594h-9.9062v64.594h-25.891z"/>
      <path id="DejaVuSans-61" d="m34.281 27.484q-10.891 0-15.094-2.4844t-4.2031-8.5q0-4.7812 3.1562-7.5938 3.1562-2.7969 8.5625-2.7969 7.4844 0 12 5.2969t4.5156 14.078v2zm17.922 3.7188v-31.203h-8.9844v8.2969q-3.0781-4.9688-7.6719-7.3438t-11.234-2.375q-8.3906 0-13.359 4.7188-4.9531 4.7188-4.9531 12.625 0 9.2188 6.1719 13.906 6.1875 4.6875 18.438 4.6875h12.609v0.89062q0 6.2031-4.0781 9.5938t-11.453 3.3906q-4.6875 0-9.1406-1.125-4.4375-1.125-8.5312-3.375v8.3125q4.9219 1.9062 9.5625 2.8438 4.6406 0.95312 9.0312 0.95312 11.875 0 17.734-6.1562 5.8594-6.1406 5.8594-18.641z"/>
      <path id="DejaVuSans-73" d="m44.281 53.078v-8.5q-3.7969 1.9531-7.9062 2.9219-4.0938 0.98438-8.5 0.98438-6.6875 0-10.031-2.0469t-3.3438-6.1562q0-3.125 2.3906-4.9062t9.625-3.3906l3.0781-0.6875q9.5625-2.0469 13.594-5.7812t4.0312-10.422q0-7.625-6.0312-12.078-6.0312-4.4375-16.578-4.4375-4.3906 0-9.1562 0.85938t-10.031 2.5625v9.2812q4.9844-2.5938 9.8125-3.8906 4.8281-1.2812 9.5781-1.2812 6.3438 0 9.75 2.1719 3.4219 2.1719 3.4219 6.125 0 3.6562-2.4688 5.6094-2.4531 1.9531-10.812 3.7656l-3.125 0.73438q-8.3438 1.75-12.062 5.3906-3.7031 3.6406-3.7031 9.9844 0 7.7188 5.4688 11.906 5.4688 4.2031 15.531 4.2031 4.9688 0 9.3594-0.73438 4.4062-0.71875 8.1094-2.1875z"/>
      <path id="DejaVuSans-6b" d="m9.0781 75.984h9.0312v-44.875l26.812 23.578h11.469l-29-25.578 30.234-29.109h-11.719l-27.797 26.703v-26.703h-9.0312z"/>
     </defs>
     <g transform="translate(224.74 346.32) scale(.1 -.1)">
      <use xlink:href="#DejaVuSans-54"/>
      <use x="60.833984" xlink:href="#DejaVuSans-61"/>
      <use x="122.113281" xlink:href="#DejaVuSans-73"/>
      <use x="174.212891" xlink:href="#DejaVuSans-6b"/>
     </g>
    </g>
   </g>
   <g id="matplotlib.axis_2">
    <g id="ytick_1">
     <g id="line2d_5">
      <path d="m54.02 318.04h364.66" clip-path="url(#pd2633e6c77)" fill="none" stroke="#b0b0b0" stroke-linecap="square" stroke-width=".8"/>
     </g>
     <g id="line2d_6">
      <defs>
       <path id="m01d04a5ef7" d="m0 0h-3.5" stroke="#000" stroke-width=".8"/>
      </defs>
      <use x="54.02" y="318.04" stroke="#000000" stroke-width=".8" xlink:href="#m01d04a5ef7"/>
     </g>
     <g id="text_6"><!-- 0.00 -->
      <defs>
       <path id="DejaVuSans-30" d="m31.781 66.406q-7.6094 0-11.453-7.5-3.8281-7.4844-3.8281-22.531 0-14.984 3.8281-22.484 3.8438-7.5 11.453-7.5 7.6719 0 11.5 7.5 3.8438 7.5 3.8438 22.484 0 15.047-3.8438 22.531-3.8281 7.5-11.5 7.5zm0 7.8125q12.266 0 18.734-9.7031 6.4688-9.6875 6.4688-28.141 0-18.406-6.4688-28.109-6.4688-9.6875-18.734-9.6875-12.25 0-18.719 9.6875-6.4688 9.7031-6.4688 28.109 0 18.453 6.4688 28.141 6.4688 9.7031 18.719 9.7031z"/>
       <path id="DejaVuSans-2e" d="m10.688 12.406h10.312v-12.406h-10.312z"/>
      </defs>
      <g transform="translate(24.754 321.84) scale(.1 -.1)">
       <use xlink:href="#DejaVuSans-30"/>
       <use x="63.623047" xlink:href="#DejaVuSans-2e"/>
       <use x="95.410156" xlink:href="#DejaVuSans-30"/>
       <use x="159.033203" xlink:href="#DejaVuSans-30"/>
      </g>
     </g>
    </g>
    <g id="ytick_2">
     <g id="line2d_7">
      <path d="m54.02 257.38h364.66" clip-path="url(#pd2633e6c77)" fill="none" stroke="#b0b0b0" stroke-linecap="square" stroke-width=".8"/>
     </g>
     <g id="line2d_8">
      <use x="54.02" y="257.384" stroke="#000000" stroke-width=".8" xlink:href="#m01d04a5ef7"/>
     </g>
     <g id="text_7"><!-- 0.02 -->
      <g transform="translate(24.754 261.18) scale(.1 -.1)">
       <use xlink:href="#DejaVuSans-30"/>
       <use x="63.623047" xlink:href="#DejaVuSans-2e"/>
       <use x="95.410156" xlink:href="#DejaVuSans-30"/>
       <use x="159.033203" xlink:href="#DejaVuSans-32"/>
      </g>
     </g>
    </g>
    <g id="ytick_3">
     <g id="line2d_9">
      <path d="m54.02 196.73h364.66" clip-path="url(#pd2633e6c77)" fill="none" stroke="#b0b0b0" stroke-linecap="square" stroke-width=".8"/>
     </g>
     <g id="line2d_10">
      <use x="54.02" y="196.728" stroke="#000000" stroke-width=".8" xlink:href="#m01d04a5ef7"/>
     </g>
     <g id="text_8"><!-- 0.04 -->
      <defs>
       <path id="DejaVuSans-34" d="m37.797 64.312-24.906-38.922h24.906zm-2.5938 8.5938h12.406v-47.516h10.406v-8.2031h-10.406v-17.188h-9.8125v17.188h-32.906v9.5156z"/>
      </defs>
      <g transform="translate(24.754 200.53) scale(.1 -.1)">
       <use xlink:href="#DejaVuSans-30"/>
       <use x="63.623047" xlink:href="#DejaVuSans-2e"/>
       <use x="95.410156" xlink:href="#DejaVuSans-30"/>
       <use x="159.033203" xlink:href="#DejaVuSans-34"/>
      </g>
     </g>
    </g>
    <g id="ytick_4">
     <g id="line2d_11">
      <path d="m54.02 136.07h364.66" clip-path="url(#pd2633e6c77)" fill="none" stroke="#b0b0b0" stroke-linecap="square" stroke-width=".8"/>
     </g>
     <g id="line2d_12">
      <use x="54.02" y="136.072" stroke="#000000" stroke-width=".8" xlink:href="#m01d04a5ef7"/>
     </g>
     <g id="text_9"><!-- 0.06 -->
      <defs>
       <path id="DejaVuSans-36" d="m33.016 40.375q-6.6406 0-10.531-4.5469-3.875-4.5312-3.875-12.438 0-7.8594 3.875-12.438 3.8906-4.5625 10.531-4.5625t10.516 4.5625q3.875 4.5781 3.875 12.438 0 7.9062-3.875 12.438-3.875 4.5469-10.516 4.5469zm19.578 30.922v-8.9844q-3.7188 1.75-7.5 2.6719-3.7812 0.9375-7.5 0.9375-9.7656 0-14.922-6.5938-5.1406-6.5938-5.875-19.922 2.875 4.25 7.2188 6.5156 4.3594 2.2656 9.5781 2.2656 10.984 0 17.359-6.6719 6.375-6.6562 6.375-18.125 0-11.234-6.6406-18.031-6.6406-6.7812-17.672-6.7812-12.656 0-19.344 9.6875-6.6875 9.7031-6.6875 28.109 0 17.281 8.2031 27.562t22.016 10.281q3.7188 0 7.5-0.73438t7.8906-2.1875z"/>
      </defs>
      <g transform="translate(24.754 139.87) scale(.1 -.1)">
       <use xlink:href="#DejaVuSans-30"/>
       <use x="63.623047" xlink:href="#DejaVuSans-2e"/>
       <use x="95.410156" xlink:href="#DejaVuSans-30"/>
       <use x="159.033203" xlink:href="#DejaVuSans-36"/>
      </g>
     </g>
    </g>
    <g id="ytick_5">
     <g id="line2d_13">
      <path d="m54.02 75.416h364.66" clip-path="url(#pd2633e6c77)" fill="none" stroke="#b0b0b0" stroke-linecap="square" stroke-width=".8"/>
     </g>
     <g id="line2d_14">
      <use x="54.02" y="75.416" stroke="#000000" stroke-width=".8" xlink:href="#m01d04a5ef7"/>
     </g>
     <g id="text_10"><!-- 0.08 -->
      <defs>
       <path id="DejaVuSans-38" d="m31.781 34.625q-7.0312 0-11.062-3.7656-4.0156-3.7656-4.0156-10.344 0-6.5938 4.0156-10.359 4.0312-3.7656 11.062-3.7656t11.078 3.7812q4.0625 3.7969 4.0625 10.344 0 6.5781-4.0312 10.344-4.0156 3.7656-11.109 3.7656zm-9.8594 4.1875q-6.3438 1.5625-9.8906 5.9062-3.5312 4.3594-3.5312 10.609 0 8.7344 6.2188 13.812 6.2344 5.0781 17.062 5.0781 10.891 0 17.094-5.0781t6.2031-13.812q0-6.25-3.5469-10.609-3.5312-4.3438-9.8281-5.9062 7.125-1.6562 11.094-6.5 3.9844-4.8281 3.9844-11.797 0-10.609-6.4688-16.281-6.4688-5.6562-18.531-5.6562-12.047 0-18.531 5.6562-6.4688 5.6719-6.4688 16.281 0 6.9688 4 11.797 4.0156 4.8438 11.141 6.5zm-3.6094 15.578q0-5.6562 3.5312-8.8281 3.5469-3.1719 9.9375-3.1719 6.3594 0 9.9375 3.1719 3.5938 3.1719 3.5938 8.8281 0 5.6719-3.5938 8.8438-3.5781 3.1719-9.9375 3.1719-6.3906 0-9.9375-3.1719-3.5312-3.1719-3.5312-8.8438z"/>
      </defs>
      <g transform="translate(24.754 79.215) scale(.1 -.1)">
       <use xlink:href="#DejaVuSans-30"/>
       <use x="63.623047" xlink:href="#DejaVuSans-2e"/>
       <use x="95.410156" xlink:href="#DejaVuSans-30"/>
       <use x="159.033203" xlink:href="#DejaVuSans-38"/>
      </g>
     </g>
    </g>
    <g id="ytick_6">
     <g id="line2d_15">
      <path d="m54.02 14.76h364.66" clip-path="url(#pd2633e6c77)" fill="none" stroke="#b0b0b0" stroke-linecap="square" stroke-width=".8"/>
     </g>
     <g id="line2d_16">
      <use x="54.02" y="14.76" stroke="#000000" stroke-width=".8" xlink:href="#m01d04a5ef7"/>
     </g>
     <g id="text_11"><!-- 0.10 -->
      <g transform="translate(24.754 18.559) scale(.1 -.1)">
       <use xlink:href="#DejaVuSans-30"/>
       <use x="63.623047" xlink:href="#DejaVuSans-2e"/>
       <use x="95.410156" xlink:href="#DejaVuSans-31"/>
       <use x="159.033203" xlink:href="#DejaVuSans-30"/>
      </g>
     </g>
    </g>
    <g id="text_12"><!-- Average minimum p-value -->
     <defs>
      <path id="DejaVuSans-41" d="m34.188 63.188-13.391-36.281h26.812zm-5.5781 9.7188h11.188l27.781-72.906h-10.25l-6.6406 18.703h-32.859l-6.6406-18.703h-10.406z"/>
      <path id="DejaVuSans-76" d="m2.9844 54.688h9.5156l17.094-45.891 17.094 45.891h9.5156l-20.516-54.688h-12.203z"/>
      <path id="DejaVuSans-65" d="m56.203 29.594v-4.3906h-41.312q0.59375-9.2812 5.5938-14.141t13.938-4.8594q5.1719 0 10.031 1.2656t9.6562 3.8125v-8.5q-4.8438-2.0469-9.9219-3.125t-10.297-1.0781q-13.094 0-20.734 7.6094-7.6406 7.625-7.6406 20.625 0 13.422 7.25 21.297 7.25 7.8906 19.562 7.8906 11.031 0 17.453-7.1094 6.4219-7.0938 6.4219-19.297zm-8.9844 2.6406q-0.09375 7.3594-4.125 11.75-4.0312 4.4062-10.672 4.4062-7.5156 0-12.031-4.25t-5.2031-11.969z"/>
      <path id="DejaVuSans-72" d="m41.109 46.297q-1.5156 0.875-3.2969 1.2812-1.7812 0.42188-3.9219 0.42188-7.625 0-11.703-4.9531t-4.0781-14.234v-28.812h-9.0312v54.688h9.0312v-8.5q2.8438 4.9844 7.375 7.3906 4.5469 2.4219 11.047 2.4219 0.92188 0 2.0469-0.125 1.125-0.10938 2.4844-0.35938z"/>
      <path id="DejaVuSans-67" d="m45.406 27.984q0 9.7656-4.0312 15.125-4.0156 5.375-11.297 5.375-7.2188 0-11.25-5.375-4.0312-5.3594-4.0312-15.125 0-9.7188 4.0312-15.094t11.25-5.375q7.2812 0 11.297 5.375 4.0312 5.375 4.0312 15.094zm8.9844-21.203q0-13.953-6.2031-20.766-6.1875-6.8125-18.984-6.8125-4.7344 0-8.9375 0.70312t-8.1562 2.1719v8.7344q3.9531-2.1406 7.8125-3.1562 3.8594-1.0312 7.8594-1.0312 8.8438 0 13.234 4.6094t4.3906 13.938v4.4531q-2.7812-4.8438-7.125-7.2344t-10.406-2.3906q-10.047 0-16.203 7.6562-6.1562 7.6719-6.1562 20.328 0 12.688 6.1562 20.344 6.1562 7.6719 16.203 7.6719 6.0625 0 10.406-2.3906t7.125-7.2188v8.2969h8.9844z"/>
      <path id="DejaVuSans-6d" d="m52 44.188q3.375 6.0625 8.0625 8.9375t11.031 2.875q8.5469 0 13.188-5.9844 4.6406-5.9688 4.6406-17v-33.016h-9.0312v32.719q0 7.8594-2.7969 11.656-2.7812 3.8125-8.4844 3.8125-6.9844 0-11.047-4.6406-4.0469-4.625-4.0469-12.641v-30.906h-9.0312v32.719q0 7.9062-2.7812 11.688t-8.5938 3.7812q-6.8906 0-10.953-4.6562-4.0469-4.6562-4.0469-12.625v-30.906h-9.0312v54.688h9.0312v-8.5q3.0781 5.0312 7.375 7.4219t10.203 2.3906q5.9688 0 10.141-3.0312 4.1719-3.0156 6.1719-8.7812z"/>
      <path id="DejaVuSans-69" d="m9.4219 54.688h8.9844v-54.688h-8.9844zm0 21.297h8.9844v-11.391h-8.9844z"/>
      <path id="DejaVuSans-6e" d="m54.891 33.016v-33.016h-8.9844v32.719q0 7.7656-3.0312 11.609-3.0312 3.8594-9.0781 3.8594-7.2812 0-11.484-4.6406-4.2031-4.625-4.2031-12.641v-30.906h-9.0312v54.688h9.0312v-8.5q3.2344 4.9375 7.5938 7.375 4.375 2.4375 10.094 2.4375 9.4219 0 14.25-5.8281 4.8438-5.8281 4.8438-17.156z"/>
      <path id="DejaVuSans-75" d="m8.5 21.578v33.109h8.9844v-32.766q0-7.7656 3.0156-11.656 3.0312-3.875 9.0938-3.875 7.2656 0 11.484 4.6406 4.2344 4.6406 4.2344 12.656v31h8.9844v-54.688h-8.9844v8.4062q-3.2656-4.9844-7.5938-7.4062-4.3125-2.4219-10.031-2.4219-9.4219 0-14.312 5.8594-4.875 5.8594-4.875 17.141zm22.609 34.422z"/>
      <path id="DejaVuSans-70" d="m18.109 8.2031v-29h-9.0312v75.484h9.0312v-8.2969q2.8438 4.875 7.1562 7.2344 4.3281 2.375 10.328 2.375 9.9688 0 16.188-7.9062 6.2344-7.9062 6.2344-20.797t-6.2344-20.812q-6.2188-7.9062-16.188-7.9062-6 0-10.328 2.375-4.3125 2.375-7.1562 7.25zm30.578 19.094q0 9.9062-4.0781 15.547t-11.203 5.6406q-7.1406 0-11.219-5.6406t-4.0781-15.547 4.0781-15.547 11.219-5.6406q7.125 0 11.203 5.6406t4.0781 15.547z"/>
      <path id="DejaVuSans-2d" d="m4.8906 31.391h26.312v-8h-26.312z"/>
      <path id="DejaVuSans-6c" d="m9.4219 75.984h8.9844v-75.984h-8.9844z"/>
     </defs>
     <g transform="translate(18.675 232.76) rotate(-90) scale(.1 -.1)">
      <use xlink:href="#DejaVuSans-41"/>
      <use x="68.330078" xlink:href="#DejaVuSans-76"/>
      <use x="127.509766" xlink:href="#DejaVuSans-65"/>
      <use x="189.033203" xlink:href="#DejaVuSans-72"/>
      <use x="230.146484" xlink:href="#DejaVuSans-61"/>
      <use x="291.425781" xlink:href="#DejaVuSans-67"/>
      <use x="354.902344" xlink:href="#DejaVuSans-65"/>
      <use x="416.425781" xlink:href="#DejaVuSans-20"/>
      <use x="448.212891" xlink:href="#DejaVuSans-6d"/>
      <use x="545.625" xlink:href="#DejaVuSans-69"/>
      <use x="573.408203" xlink:href="#DejaVuSans-6e"/>
      <use x="636.787109" xlink:href="#DejaVuSans-69"/>
      <use x="664.570312" xlink:href="#DejaVuSans-6d"/>
      <use x="761.982422" xlink:href="#DejaVuSans-75"/>
      <use x="825.361328" xlink:href="#DejaVuSans-6d"/>
      <use x="922.773438" xlink:href="#DejaVuSans-20"/>
      <use x="954.560547" xlink:href="#DejaVuSans-70"/>
      <use x="1018.037109" xlink:href="#DejaVuSans-2d"/>
      <use x="1054.089844" xlink:href="#DejaVuSans-76"/>
      <use x="1113.269531" xlink:href="#DejaVuSans-61"/>
      <use x="1174.548828" xlink:href="#DejaVuSans-6c"/>
      <use x="1202.332031" xlink:href="#DejaVuSans-75"/>
      <use x="1265.710938" xlink:href="#DejaVuSans-65"/>
     </g>
    </g>
   </g>
   <g id="patch_3">
    <path d="m70.595 318.04h31.359v-175.03h-31.359z" clip-path="url(#pd2633e6c77)" fill="#008fd5"/>
   </g>
   <g id="patch_4">
    <path d="m101.95 318.04h31.359v-18.247h-31.359z" clip-path="url(#pd2633e6c77)" fill="#fc4f30"/>
   </g>
   <g id="patch_5">
    <path d="m160.19 318.04h31.359v-147.2h-31.359z" clip-path="url(#pd2633e6c77)" fill="#008fd5"/>
   </g>
   <g id="patch_6">
    <path d="m191.55 318.04h31.359v-28.826h-31.359z" clip-path="url(#pd2633e6c77)" fill="#fc4f30"/>
   </g>
   <g id="patch_7">
    <path d="m249.79 318.04h31.359v-100.91h-31.359z" clip-path="url(#pd2633e6c77)" fill="#008fd5"/>
   </g>
   <g id="patch_8">
    <path d="m281.15 318.04h31.359v-46.312h-31.359z" clip-path="url(#pd2633e6c77)" fill="#fc4f30"/>
   </g>
   <g id="patch_9">
    <path d="m339.39 318.04h31.359v-141.55h-31.359z" clip-path="url(#pd2633e6c77)" fill="#008fd5"/>
   </g>
   <g id="patch_10">
    <path d="m370.75 318.04h31.359v-173.28h-31.359z" clip-path="url(#pd2633e6c77)" fill="#fc4f30"/>
   </g>
   <g id="patch_11">
    <path d="m54.02 318.04v-303.28" fill="none" stroke="#000" stroke-linecap="square" stroke-width=".8"/>
   </g>
   <g id="patch_12">
    <path d="m54.02 318.04h364.66" fill="none" stroke="#000" stroke-linecap="square" stroke-width=".8"/>
   </g>
   <g id="LineCollection_1">
    <path d="m86.275 192.91v-99.815" clip-path="url(#pd2633e6c77)" fill="none" stroke="#000" stroke-width="1.5"/>
   </g>
   <g id="LineCollection_2">
    <path d="m117.63 303.33v-7.0653" clip-path="url(#pd2633e6c77)" fill="none" stroke="#000" stroke-width="1.5"/>
   </g>
   <g id="LineCollection_3">
    <path d="m175.87 190.13v-38.578" clip-path="url(#pd2633e6c77)" fill="none" stroke="#000" stroke-width="1.5"/>
   </g>
   <g id="LineCollection_4">
    <path d="m207.23 293.61v-8.7938" clip-path="url(#pd2633e6c77)" fill="none" stroke="#000" stroke-width="1.5"/>
   </g>
   <g id="LineCollection_5">
    <path d="m265.47 229.13v-24.003" clip-path="url(#pd2633e6c77)" fill="none" stroke="#000" stroke-width="1.5"/>
   </g>
   <g id="LineCollection_6">
    <path d="m296.83 277.72v-11.979" clip-path="url(#pd2633e6c77)" fill="none" stroke="#000" stroke-width="1.5"/>
   </g>
   <g id="LineCollection_7">
    <path d="m355.07 184.07v-15.162" clip-path="url(#pd2633e6c77)" fill="none" stroke="#000" stroke-width="1.5"/>
   </g>
   <g id="LineCollection_8">
    <path d="m386.43 162.49v-35.449" clip-path="url(#pd2633e6c77)" fill="none" stroke="#000" stroke-width="1.5"/>
   </g>
   <g id="line2d_17">
    <defs>
     <path id="m31b8949851" d="m3 0h-6" stroke="#000"/>
    </defs>
    <g clip-path="url(#pd2633e6c77)">
     <use x="86.274939" y="192.913229" stroke="#000000" xlink:href="#m31b8949851"/>
    </g>
   </g>
   <g id="line2d_18">
    <g clip-path="url(#pd2633e6c77)">
     <use x="86.274939" y="93.097951" stroke="#000000" xlink:href="#m31b8949851"/>
    </g>
   </g>
   <g id="line2d_19">
    <g clip-path="url(#pd2633e6c77)">
     <use x="117.633907" y="303.325468" stroke="#000000" xlink:href="#m31b8949851"/>
    </g>
   </g>
   <g id="line2d_20">
    <g clip-path="url(#pd2633e6c77)">
     <use x="117.633907" y="296.26021" stroke="#000000" xlink:href="#m31b8949851"/>
    </g>
   </g>
   <g id="line2d_21">
    <g clip-path="url(#pd2633e6c77)">
     <use x="175.87199" y="190.128369" stroke="#000000" xlink:href="#m31b8949851"/>
    </g>
   </g>
   <g id="line2d_22">
    <g clip-path="url(#pd2633e6c77)">
     <use x="175.87199" y="151.550809" stroke="#000000" xlink:href="#m31b8949851"/>
    </g>
   </g>
   <g id="line2d_23">
    <g clip-path="url(#pd2633e6c77)">
     <use x="207.230958" y="293.610931" stroke="#000000" xlink:href="#m31b8949851"/>
    </g>
   </g>
   <g id="line2d_24">
    <g clip-path="url(#pd2633e6c77)">
     <use x="207.230958" y="284.817108" stroke="#000000" xlink:href="#m31b8949851"/>
    </g>
   </g>
   <g id="line2d_25">
    <g clip-path="url(#pd2633e6c77)">
     <use x="265.469042" y="229.127227" stroke="#000000" xlink:href="#m31b8949851"/>
    </g>
   </g>
   <g id="line2d_26">
    <g clip-path="url(#pd2633e6c77)">
     <use x="265.469042" y="205.123977" stroke="#000000" xlink:href="#m31b8949851"/>
    </g>
   </g>
   <g id="line2d_27">
    <g clip-path="url(#pd2633e6c77)">
     <use x="296.82801" y="277.717972" stroke="#000000" xlink:href="#m31b8949851"/>
    </g>
   </g>
   <g id="line2d_28">
    <g clip-path="url(#pd2633e6c77)">
     <use x="296.82801" y="265.738552" stroke="#000000" xlink:href="#m31b8949851"/>
    </g>
   </g>
   <g id="line2d_29">
    <g clip-path="url(#pd2633e6c77)">
     <use x="355.066093" y="184.067937" stroke="#000000" xlink:href="#m31b8949851"/>
    </g>
   </g>
   <g id="line2d_30">
    <g clip-path="url(#pd2633e6c77)">
     <use x="355.066093" y="168.906288" stroke="#000000" xlink:href="#m31b8949851"/>
    </g>
   </g>
   <g id="line2d_31">
    <g clip-path="url(#pd2633e6c77)">
     <use x="386.425061" y="162.485839" stroke="#000000" xlink:href="#m31b8949851"/>
    </g>
   </g>
   <g id="line2d_32">
    <g clip-path="url(#pd2633e6c77)">
     <use x="386.425061" y="127.037229" stroke="#000000" xlink:href="#m31b8949851"/>
    </g>
   </g>
   <g id="line2d_33">
    <path d="m86.275 143.01" clip-path="url(#pd2633e6c77)" fill="none" stroke="#000" stroke-linecap="square" stroke-width="1.5"/>
   </g>
   <g id="line2d_34">
    <path d="m117.63 299.79" clip-path="url(#pd2633e6c77)" fill="none" stroke="#000" stroke-linecap="square" stroke-width="1.5"/>
   </g>
   <g id="line2d_35">
    <path d="m175.87 170.84" clip-path="url(#pd2633e6c77)" fill="none" stroke="#000" stroke-linecap="square" stroke-width="1.5"/>
   </g>
   <g id="line2d_36">
    <path d="m207.23 289.21" clip-path="url(#pd2633e6c77)" fill="none" stroke="#000" stroke-linecap="square" stroke-width="1.5"/>
   </g>
   <g id="line2d_37">
    <path d="m265.47 217.13" clip-path="url(#pd2633e6c77)" fill="none" stroke="#000" stroke-linecap="square" stroke-width="1.5"/>
   </g>
   <g id="line2d_38">
    <path d="m296.83 271.73" clip-path="url(#pd2633e6c77)" fill="none" stroke="#000" stroke-linecap="square" stroke-width="1.5"/>
   </g>
   <g id="line2d_39">
    <path d="m355.07 176.49" clip-path="url(#pd2633e6c77)" fill="none" stroke="#000" stroke-linecap="square" stroke-width="1.5"/>
   </g>
   <g id="line2d_40">
    <path d="m386.43 144.76" clip-path="url(#pd2633e6c77)" fill="none" stroke="#000" stroke-linecap="square" stroke-width="1.5"/>
   </g>
   <g id="legend_1">
    <g id="patch_13">
     <path d="m270.77 52.116h140.91q2 0 2-2v-28.356q0-2-2-2h-140.91q-2 0-2 2v28.356q0 2 2 2z" fill="#fff" opacity=".8" stroke="#ccc"/>
    </g>
    <g id="patch_14">
     <path d="m272.77 31.358h20v-7h-20z" fill="#008fd5"/>
    </g>
    <g id="text_13"><!-- No rule (scores &lt;= 5) -->
     <defs>
      <path id="DejaVuSans-4e" d="m9.8125 72.906h13.281l32.328-60.984v60.984h9.5625v-72.906h-13.281l-32.312 60.984v-60.984h-9.5781z"/>
      <path id="DejaVuSans-6f" d="m30.609 48.391q-7.2188 0-11.422-5.6406t-4.2031-15.453 4.1719-15.453q4.1875-5.6406 11.453-5.6406 7.1875 0 11.375 5.6562 4.2031 5.6719 4.2031 15.438 0 9.7188-4.2031 15.406-4.1875 5.6875-11.375 5.6875zm0 7.6094q11.719 0 18.406-7.625 6.7031-7.6094 6.7031-21.078 0-13.422-6.7031-21.078-6.6875-7.6406-18.406-7.6406-11.766 0-18.438 7.6406-6.6562 7.6562-6.6562 21.078 0 13.469 6.6562 21.078 6.6719 7.625 18.438 7.625z"/>
      <path id="DejaVuSans-28" d="m31 75.875q-6.5312-11.219-9.7188-22.219-3.1719-10.984-3.1719-22.266 0-11.266 3.2031-22.328t9.6875-22.25h-7.8125q-7.3125 11.484-10.953 22.562t-3.6406 22.016q0 10.891 3.6094 21.922 3.625 11.047 10.984 22.562z"/>
      <path id="DejaVuSans-63" d="m48.781 52.594v-8.4062q-3.8125 2.1094-7.6406 3.1562t-7.7344 1.0469q-8.75 0-13.594-5.5469-4.8281-5.5312-4.8281-15.547t4.8281-15.562q4.8438-5.5312 13.594-5.5312 3.9062 0 7.7344 1.0469t7.6406 3.1562v-8.3125q-3.7656-1.75-7.7969-2.625-4.0156-0.89062-8.5625-0.89062-12.359 0-19.641 7.7656-7.2656 7.7656-7.2656 20.953 0 13.375 7.3438 21.031 7.3594 7.6719 20.156 7.6719 4.1406 0 8.0938-0.85938 3.9531-0.84375 7.6719-2.5469z"/>
      <path id="DejaVuSans-3c" d="m73.188 49.219-50.391-17.922 50.391-17.812v-8.8906l-62.594 22.703v8.1094l62.594 22.703z"/>
      <path id="DejaVuSans-3d" d="m10.594 45.406h62.594v-8.2031h-62.594zm0-19.922h62.594v-8.2969h-62.594z"/>
      <path id="DejaVuSans-35" d="m10.797 72.906h38.719v-8.3125h-29.688v-17.859q2.1406 0.73438 4.2812 1.0938 2.1562 0.35938 4.3125 0.35938 12.203 0 19.328-6.6875 7.1406-6.6875 7.1406-18.109 0-11.766-7.3281-18.297-7.3281-6.5156-20.656-6.5156-4.5938 0-9.3594 0.78125-4.75 0.78125-9.8281 2.3438v9.9219q4.3906-2.3906 9.0781-3.5625t9.9062-1.1719q8.4531 0 13.375 4.4375 4.9375 4.4375 4.9375 12.062 0 7.6094-4.9375 12.047-4.9219 4.4531-13.375 4.4531-3.9531 0-7.8906-0.875-3.9219-0.875-8.0156-2.7344z"/>
      <path id="DejaVuSans-29" d="m8.0156 75.875h7.8125q7.3125-11.516 10.953-22.562 3.6406-11.031 3.6406-21.922 0-10.938-3.6406-22.016t-10.953-22.562h-7.8125q6.4844 11.188 9.6875 22.25t3.2031 22.328q0 11.281-3.2031 22.266-3.2031 11-9.6875 22.219z"/>
     </defs>
     <g transform="translate(300.77 31.358) scale(.1 -.1)">
      <use xlink:href="#DejaVuSans-4e"/>
      <use x="74.804688" xlink:href="#DejaVuSans-6f"/>
      <use x="135.986328" xlink:href="#DejaVuSans-20"/>
      <use x="167.773438" xlink:href="#DejaVuSans-72"/>
      <use x="208.886719" xlink:href="#DejaVuSans-75"/>
      <use x="272.265625" xlink:href="#DejaVuSans-6c"/>
      <use x="300.048828" xlink:href="#DejaVuSans-65"/>
      <use x="361.572266" xlink:href="#DejaVuSans-20"/>
      <use x="393.359375" xlink:href="#DejaVuSans-28"/>
      <use x="432.373047" xlink:href="#DejaVuSans-73"/>
      <use x="484.472656" xlink:href="#DejaVuSans-63"/>
      <use x="539.453125" xlink:href="#DejaVuSans-6f"/>
      <use x="600.634766" xlink:href="#DejaVuSans-72"/>
      <use x="641.716797" xlink:href="#DejaVuSans-65"/>
      <use x="703.240234" xlink:href="#DejaVuSans-73"/>
      <use x="755.339844" xlink:href="#DejaVuSans-20"/>
      <use x="787.126953" xlink:href="#DejaVuSans-3c"/>
      <use x="870.916016" xlink:href="#DejaVuSans-3d"/>
      <use x="954.705078" xlink:href="#DejaVuSans-20"/>
      <use x="986.492188" xlink:href="#DejaVuSans-35"/>
      <use x="1050.115234" xlink:href="#DejaVuSans-29"/>
     </g>
    </g>
    <g id="patch_15">
     <path d="m272.77 46.037h20v-7h-20z" fill="#fc4f30"/>
    </g>
    <g id="text_14"><!-- Rule (scores &gt; 5) -->
     <defs>
      <path id="DejaVuSans-3e" d="m10.594 49.219v8.8906l62.594-22.703v-8.1094l-62.594-22.703v8.8906l50.297 17.812z"/>
     </defs>
     <g transform="translate(300.77 46.037) scale(.1 -.1)">
      <use xlink:href="#DejaVuSans-52"/>
      <use x="69.419922" xlink:href="#DejaVuSans-75"/>
      <use x="132.798828" xlink:href="#DejaVuSans-6c"/>
      <use x="160.582031" xlink:href="#DejaVuSans-65"/>
      <use x="222.105469" xlink:href="#DejaVuSans-20"/>
      <use x="253.892578" xlink:href="#DejaVuSans-28"/>
      <use x="292.90625" xlink:href="#DejaVuSans-73"/>
      <use x="345.005859" xlink:href="#DejaVuSans-63"/>
      <use x="399.986328" xlink:href="#DejaVuSans-6f"/>
      <use x="461.167969" xlink:href="#DejaVuSans-72"/>
      <use x="502.25" xlink:href="#DejaVuSans-65"/>
      <use x="563.773438" xlink:href="#DejaVuSans-73"/>
      <use x="615.873047" xlink:href="#DejaVuSans-20"/>
      <use x="647.660156" xlink:href="#DejaVuSans-3e"/>
      <use x="731.449219" xlink:href="#DejaVuSans-20"/>
      <use x="763.236328" xlink:href="#DejaVuSans-35"/>
      <use x="826.859375" xlink:href="#DejaVuSans-29"/>
     </g>
    </g>
   </g>
  </g>
 </g>
 <defs>
  <clipPath id="pd2633e6c77">
   <rect x="54.02" y="14.76" width="364.66" height="303.28"/>
  </clipPath>
 </defs>
</svg>
