<?xml version="1.0" encoding="UTF-8"?>
<!DOCTYPE svg  PUBLIC '-//W3C//DTD SVG 1.1//EN'  'http://www.w3.org/Graphics/SVG/1.1/DTD/svg11.dtd'>
<!-- Created with matplotlib (http://matplotlib.org/) -->
<svg width="504pt" height="648pt" version="1.1" viewBox="0 0 504 648" xmlns="http://www.w3.org/2000/svg" xmlns:xlink="http://www.w3.org/1999/xlink">
 <defs>
  <style type="text/css">*{stroke-linecap:butt;stroke-linejoin:round;}</style>
 </defs>
 <g id="figure_1">
  <g id="patch_1">
   <path d="m0 648h504v-648h-504z" fill="#fff"/>
  </g>
  <g id="patch_2">
   <path d="m13.32 316.08h477.36v-302.76h-477.36z" fill="#fff"/>
  </g>
  <g id="pane3d_1">
   <g id="patch_3">
    <path d="m116.1 275.3 21.302-77.344-5.1896-148.87-22.833 65.932" fill="#f2f2f2" opacity=".5" stroke="#f2f2f2"/>
   </g>
  </g>
  <g id="pane3d_2">
   <g id="patch_4">
    <path d="m137.41 197.96 251.25 2.4705 5.6003-149.24-262.04-2.0976" fill="#e6e6e6" opacity=".5" stroke="#e6e6e6"/>
   </g>
  </g>
  <g id="pane3d_3">
   <g id="patch_5">
    <path d="m116.1 275.3 275.54 2.9719-2.9845-77.845-251.25-2.4705" fill="#ececec" opacity=".5" stroke="#ececec"/>
   </g>
  </g>
  <g id="axis3d_1">
   <g id="line2d_1">
    <path d="m116.1 275.3 275.54 2.9719" fill="none" stroke="#000" stroke-linecap="square" stroke-width=".8"/>
   </g>
   <g id="text_1"><!-- Self-challenge score -->
    <defs>
     <path id="DejaVuSans-53" d="m53.516 70.516v-9.625q-5.6094 2.6875-10.594 4-4.9844 1.3281-9.625 1.3281-8.0469 0-12.422-3.125t-4.375-8.8906q0-4.8438 2.9062-7.3125 2.9062-2.4531 11.016-3.9688l5.9531-1.2188q11.031-2.1094 16.281-7.4062t5.25-14.172q0-10.609-7.1094-16.078-7.0938-5.4688-20.812-5.4688-5.1719 0-11.016 1.1719-5.8281 1.1719-12.078 3.4688v10.156q6-3.3594 11.766-5.0781 5.7656-1.7031 11.328-1.7031 8.4375 0 13.031 3.3125 4.5938 3.3281 4.5938 9.4844 0 5.3594-3.2969 8.3906t-10.812 4.5469l-6.0156 1.1719q-11.031 2.1875-15.969 6.875-4.9219 4.6875-4.9219 13.047 0 9.6719 6.8125 15.234t18.766 5.5625q5.1406 0 10.453-0.9375 5.3281-0.92188 10.891-2.7656z"/>
     <path id="DejaVuSans-65" d="m56.203 29.594v-4.3906h-41.312q0.59375-9.2812 5.5938-14.141t13.938-4.8594q5.1719 0 10.031 1.2656t9.6562 3.8125v-8.5q-4.8438-2.0469-9.9219-3.125t-10.297-1.0781q-13.094 0-20.734 7.6094-7.6406 7.625-7.6406 20.625 0 13.422 7.25 21.297 7.25 7.8906 19.562 7.8906 11.031 0 17.453-7.1094 6.4219-7.0938 6.4219-19.297zm-8.9844 2.6406q-0.09375 7.3594-4.125 11.75-4.0312 4.4062-10.672 4.4062-7.5156 0-12.031-4.25t-5.2031-11.969z"/>
     <path id="DejaVuSans-6c" d="m9.4219 75.984h8.9844v-75.984h-8.9844z"/>
     <path id="DejaVuSans-66" d="m37.109 75.984v-7.4844h-8.5938q-4.8281 0-6.7188-1.9531-1.875-1.9531-1.875-7.0312v-4.8281h14.797v-6.9844h-14.797v-47.703h-9.0312v47.703h-8.5938v6.9844h8.5938v3.8125q0 9.125 4.25 13.297 4.25 4.1875 13.469 4.1875z"/>
     <path id="DejaVuSans-2d" d="m4.8906 31.391h26.312v-8h-26.312z"/>
     <path id="DejaVuSans-63" d="m48.781 52.594v-8.4062q-3.8125 2.1094-7.6406 3.1562t-7.7344 1.0469q-8.75 0-13.594-5.5469-4.8281-5.5312-4.8281-15.547t4.8281-15.562q4.8438-5.5312 13.594-5.5312 3.9062 0 7.7344 1.0469t7.6406 3.1562v-8.3125q-3.7656-1.75-7.7969-2.625-4.0156-0.89062-8.5625-0.89062-12.359 0-19.641 7.7656-7.2656 7.7656-7.2656 20.953 0 13.375 7.3438 21.031 7.3594 7.6719 20.156 7.6719 4.1406 0 8.0938-0.85938 3.9531-0.84375 7.6719-2.5469z"/>
     <path id="DejaVuSans-68" d="m54.891 33.016v-33.016h-8.9844v32.719q0 7.7656-3.0312 11.609-3.0312 3.8594-9.0781 3.8594-7.2812 0-11.484-4.6406-4.2031-4.625-4.2031-12.641v-30.906h-9.0312v75.984h9.0312v-29.797q3.2344 4.9375 7.5938 7.375 4.375 2.4375 10.094 2.4375 9.4219 0 14.25-5.8281 4.8438-5.8281 4.8438-17.156z"/>
     <path id="DejaVuSans-61" d="m34.281 27.484q-10.891 0-15.094-2.4844t-4.2031-8.5q0-4.7812 3.1562-7.5938 3.1562-2.7969 8.5625-2.7969 7.4844 0 12 5.2969t4.5156 14.078v2zm17.922 3.7188v-31.203h-8.9844v8.2969q-3.0781-4.9688-7.6719-7.3438t-11.234-2.375q-8.3906 0-13.359 4.7188-4.9531 4.7188-4.9531 12.625 0 9.2188 6.1719 13.906 6.1875 4.6875 18.438 4.6875h12.609v0.89062q0 6.2031-4.0781 9.5938t-11.453 3.3906q-4.6875 0-9.1406-1.125-4.4375-1.125-8.5312-3.375v8.3125q4.9219 1.9062 9.5625 2.8438 4.6406 0.95312 9.0312 0.95312 11.875 0 17.734-6.1562 5.8594-6.1406 5.8594-18.641z"/>
     <path id="DejaVuSans-6e" d="m54.891 33.016v-33.016h-8.9844v32.719q0 7.7656-3.0312 11.609-3.0312 3.8594-9.0781 3.8594-7.2812 0-11.484-4.6406-4.2031-4.625-4.2031-12.641v-30.906h-9.0312v54.688h9.0312v-8.5q3.2344 4.9375 7.5938 7.375 4.375 2.4375 10.094 2.4375 9.4219 0 14.25-5.8281 4.8438-5.8281 4.8438-17.156z"/>
     <path id="DejaVuSans-67" d="m45.406 27.984q0 9.7656-4.0312 15.125-4.0156 5.375-11.297 5.375-7.2188 0-11.25-5.375-4.0312-5.3594-4.0312-15.125 0-9.7188 4.0312-15.094t11.25-5.375q7.2812 0 11.297 5.375 4.0312 5.375 4.0312 15.094zm8.9844-21.203q0-13.953-6.2031-20.766-6.1875-6.8125-18.984-6.8125-4.7344 0-8.9375 0.70312t-8.1562 2.1719v8.7344q3.9531-2.1406 7.8125-3.1562 3.8594-1.0312 7.8594-1.0312 8.8438 0 13.234 4.6094t4.3906 13.938v4.4531q-2.7812-4.8438-7.125-7.2344t-10.406-2.3906q-10.047 0-16.203 7.6562-6.1562 7.6719-6.1562 20.328 0 12.688 6.1562 20.344 6.1562 7.6719 16.203 7.6719 6.0625 0 10.406-2.3906t7.125-7.2188v8.2969h8.9844z"/>
     <path id="DejaVuSans-73" d="m44.281 53.078v-8.5q-3.7969 1.9531-7.9062 2.9219-4.0938 0.98438-8.5 0.98438-6.6875 0-10.031-2.0469t-3.3438-6.1562q0-3.125 2.3906-4.9062t9.625-3.3906l3.0781-0.6875q9.5625-2.0469 13.594-5.7812t4.0312-10.422q0-7.625-6.0312-12.078-6.0312-4.4375-16.578-4.4375-4.3906 0-9.1562 0.85938t-10.031 2.5625v9.2812q4.9844-2.5938 9.8125-3.8906 4.8281-1.2812 9.5781-1.2812 6.3438 0 9.75 2.1719 3.4219 2.1719 3.4219 6.125 0 3.6562-2.4688 5.6094-2.4531 1.9531-10.812 3.7656l-3.125 0.73438q-8.3438 1.75-12.062 5.3906-3.7031 3.6406-3.7031 9.9844 0 7.7188 5.4688 11.906 5.4688 4.2031 15.531 4.2031 4.9688 0 9.3594-0.73438 4.4062-0.71875 8.1094-2.1875z"/>
     <path id="DejaVuSans-6f" d="m30.609 48.391q-7.2188 0-11.422-5.6406t-4.2031-15.453 4.1719-15.453q4.1875-5.6406 11.453-5.6406 7.1875 0 11.375 5.6562 4.2031 5.6719 4.2031 15.438 0 9.7188-4.2031 15.406-4.1875 5.6875-11.375 5.6875zm0 7.6094q11.719 0 18.406-7.625 6.7031-7.6094 6.7031-21.078 0-13.422-6.7031-21.078-6.6875-7.6406-18.406-7.6406-11.766 0-18.438 7.6406-6.6562 7.6562-6.6562 21.078 0 13.469 6.6562 21.078 6.6719 7.625 18.438 7.625z"/>
     <path id="DejaVuSans-72" d="m41.109 46.297q-1.5156 0.875-3.2969 1.2812-1.7812 0.42188-3.9219 0.42188-7.625 0-11.703-4.9531t-4.0781-14.234v-28.812h-9.0312v54.688h9.0312v-8.5q2.8438 4.9844 7.375 7.3906 4.5469 2.4219 11.047 2.4219 0.92188 0 2.0469-0.125 1.125-0.10938 2.4844-0.35938z"/>
    </defs>
    <g transform="translate(201.8 308.51) rotate(.61796) scale(.1 -.1)">
     <use xlink:href="#DejaVuSans-53"/>
     <use x="63.476562" xlink:href="#DejaVuSans-65"/>
     <use x="125" xlink:href="#DejaVuSans-6c"/>
     <use x="152.783203" xlink:href="#DejaVuSans-66"/>
     <use x="187.910156" xlink:href="#DejaVuSans-2d"/>
     <use x="223.994141" xlink:href="#DejaVuSans-63"/>
     <use x="278.974609" xlink:href="#DejaVuSans-68"/>
     <use x="342.353516" xlink:href="#DejaVuSans-61"/>
     <use x="403.632812" xlink:href="#DejaVuSans-6c"/>
     <use x="431.416016" xlink:href="#DejaVuSans-6c"/>
     <use x="459.199219" xlink:href="#DejaVuSans-65"/>
     <use x="520.722656" xlink:href="#DejaVuSans-6e"/>
     <use x="584.101562" xlink:href="#DejaVuSans-67"/>
     <use x="647.578125" xlink:href="#DejaVuSans-65"/>
     <use x="709.101562" xlink:href="#DejaVuSans-20"/>
     <use x="740.888672" xlink:href="#DejaVuSans-73"/>
     <use x="792.988281" xlink:href="#DejaVuSans-63"/>
     <use x="847.96875" xlink:href="#DejaVuSans-6f"/>
     <use x="909.150391" xlink:href="#DejaVuSans-72"/>
     <use x="950.232422" xlink:href="#DejaVuSans-65"/>
    </g>
   </g>
   <g id="Line3DCollection_1" fill="none" stroke="#b0b0b0" stroke-width=".8">
    <path d="m121.6 275.36 20.819-77.354-4.9752-148.87"/>
    <path d="m154.57 275.71 17.921-77.414-3.6872-148.92"/>
    <path d="m187.56 276.07 15.018-77.474-2.3973-148.96"/>
    <path d="m220.59 276.43 12.11-77.534-1.1054-149.01"/>
    <path d="m253.64 276.78 9.198-77.594 0.18837-149.05"/>
    <path d="m286.72 277.14 6.2814-77.654 1.4841-149.1"/>
    <path d="m319.82 277.5 3.3602-77.714 2.7819-149.14"/>
    <path d="m352.95 277.85 0.43454-77.775 4.0816-149.19"/>
    <path d="m386.11 278.21-2.4957-77.835 5.3832-149.23"/>
   </g>
   <g id="xtick_1">
    <g id="line2d_2">
     <path d="m121.78 274.68-0.54837 2.0375" fill="none" stroke="#000" stroke-linecap="square" stroke-width=".8"/>
    </g>
    <g id="text_2"><!-- −1.00 -->
     <defs>
      <path id="DejaVuSans-2212" d="m10.594 35.5h62.594v-8.2969h-62.594z"/>
      <path id="DejaVuSans-31" d="m12.406 8.2969h16.109v55.625l-17.531-3.5156v8.9844l17.438 3.5156h9.8594v-64.609h16.109v-8.2969h-41.984z"/>
      <path id="DejaVuSans-2e" d="m10.688 12.406h10.312v-12.406h-10.312z"/>
      <path id="DejaVuSans-30" d="m31.781 66.406q-7.6094 0-11.453-7.5-3.8281-7.4844-3.8281-22.531 0-14.984 3.8281-22.484 3.8438-7.5 11.453-7.5 7.6719 0 11.5 7.5 3.8438 7.5 3.8438 22.484 0 15.047-3.8438 22.531-3.8281 7.5-11.5 7.5zm0 7.8125q12.266 0 18.734-9.7031 6.4688-9.6875 6.4688-28.141 0-18.406-6.4688-28.109-6.4688-9.6875-18.734-9.6875-12.25 0-18.719 9.6875-6.4688 9.7031-6.4688 28.109 0 18.453 6.4688 28.141 6.4688 9.7031 18.719 9.7031z"/>
     </defs>
     <g transform="translate(105.33 296.46) scale(.1 -.1)">
      <use xlink:href="#DejaVuSans-2212"/>
      <use x="83.789062" xlink:href="#DejaVuSans-31"/>
      <use x="147.412109" xlink:href="#DejaVuSans-2e"/>
      <use x="179.199219" xlink:href="#DejaVuSans-30"/>
      <use x="242.822266" xlink:href="#DejaVuSans-30"/>
     </g>
    </g>
   </g>
   <g id="xtick_2">
    <g id="line2d_3">
     <path d="m154.72 275.04-0.47204 2.0391" fill="none" stroke="#000" stroke-linecap="square" stroke-width=".8"/>
    </g>
    <g id="text_3"><!-- −0.75 -->
     <defs>
      <path id="DejaVuSans-37" d="m8.2031 72.906h46.875v-4.2031l-26.469-68.703h-10.297l24.906 64.594h-35.016z"/>
      <path id="DejaVuSans-35" d="m10.797 72.906h38.719v-8.3125h-29.688v-17.859q2.1406 0.73438 4.2812 1.0938 2.1562 0.35938 4.3125 0.35938 12.203 0 19.328-6.6875 7.1406-6.6875 7.1406-18.109 0-11.766-7.3281-18.297-7.3281-6.5156-20.656-6.5156-4.5938 0-9.3594 0.78125-4.75 0.78125-9.8281 2.3438v9.9219q4.3906-2.3906 9.0781-3.5625t9.9062-1.1719q8.4531 0 13.375 4.4375 4.9375 4.4375 4.9375 12.062 0 7.6094-4.9375 12.047-4.9219 4.4531-13.375 4.4531-3.9531 0-7.8906-0.875-3.9219-0.875-8.0156-2.7344z"/>
     </defs>
     <g transform="translate(138.39 296.82) scale(.1 -.1)">
      <use xlink:href="#DejaVuSans-2212"/>
      <use x="83.789062" xlink:href="#DejaVuSans-30"/>
      <use x="147.412109" xlink:href="#DejaVuSans-2e"/>
      <use x="179.199219" xlink:href="#DejaVuSans-37"/>
      <use x="242.822266" xlink:href="#DejaVuSans-35"/>
     </g>
    </g>
   </g>
   <g id="xtick_3">
    <g id="line2d_4">
     <path d="m187.7 275.39-0.39558 2.0408" fill="none" stroke="#000" stroke-linecap="square" stroke-width=".8"/>
    </g>
    <g id="text_4"><!-- −0.50 -->
     <g transform="translate(171.49 297.19) scale(.1 -.1)">
      <use xlink:href="#DejaVuSans-2212"/>
      <use x="83.789062" xlink:href="#DejaVuSans-30"/>
      <use x="147.412109" xlink:href="#DejaVuSans-2e"/>
      <use x="179.199219" xlink:href="#DejaVuSans-35"/>
      <use x="242.822266" xlink:href="#DejaVuSans-30"/>
     </g>
    </g>
   </g>
   <g id="xtick_4">
    <g id="line2d_5">
     <path d="m220.69 275.75-0.31901 2.0424" fill="none" stroke="#000" stroke-linecap="square" stroke-width=".8"/>
    </g>
    <g id="text_5"><!-- −0.25 -->
     <defs>
      <path id="DejaVuSans-32" d="m19.188 8.2969h34.422v-8.2969h-46.281v8.2969q5.6094 5.8125 15.297 15.594 9.7031 9.7969 12.188 12.641 4.7344 5.3125 6.6094 9 1.8906 3.6875 1.8906 7.25 0 5.8125-4.0781 9.4688-4.0781 3.6719-10.625 3.6719-4.6406 0-9.7969-1.6094-5.1406-1.6094-11-4.8906v9.9688q5.9531 2.3906 11.125 3.6094 5.1875 1.2188 9.4844 1.2188 11.328 0 18.062-5.6719 6.7344-5.6562 6.7344-15.125 0-4.5-1.6875-8.5312-1.6719-4.0156-6.125-9.4844-1.2188-1.4219-7.7656-8.1875-6.5312-6.7656-18.453-18.922z"/>
     </defs>
     <g transform="translate(204.61 297.55) scale(.1 -.1)">
      <use xlink:href="#DejaVuSans-2212"/>
      <use x="83.789062" xlink:href="#DejaVuSans-30"/>
      <use x="147.412109" xlink:href="#DejaVuSans-2e"/>
      <use x="179.199219" xlink:href="#DejaVuSans-32"/>
      <use x="242.822266" xlink:href="#DejaVuSans-35"/>
     </g>
    </g>
   </g>
   <g id="xtick_5">
    <g id="line2d_6">
     <path d="m253.72 276.1-0.2423 2.0441" fill="none" stroke="#000" stroke-linecap="square" stroke-width=".8"/>
    </g>
    <g id="text_6"><!-- 0.00 -->
     <g transform="translate(241.95 297.91) scale(.1 -.1)">
      <use xlink:href="#DejaVuSans-30"/>
      <use x="63.623047" xlink:href="#DejaVuSans-2e"/>
      <use x="95.410156" xlink:href="#DejaVuSans-30"/>
      <use x="159.033203" xlink:href="#DejaVuSans-30"/>
     </g>
    </g>
   </g>
   <g id="xtick_6">
    <g id="line2d_7">
     <path d="m286.77 276.46-0.16548 2.0457" fill="none" stroke="#000" stroke-linecap="square" stroke-width=".8"/>
    </g>
    <g id="text_7"><!-- 0.25 -->
     <g transform="translate(275.12 298.28) scale(.1 -.1)">
      <use xlink:href="#DejaVuSans-30"/>
      <use x="63.623047" xlink:href="#DejaVuSans-2e"/>
      <use x="95.410156" xlink:href="#DejaVuSans-32"/>
      <use x="159.033203" xlink:href="#DejaVuSans-35"/>
     </g>
    </g>
   </g>
   <g id="xtick_7">
    <g id="line2d_8">
     <path d="m319.85 276.82-0.088525 2.0474" fill="none" stroke="#000" stroke-linecap="square" stroke-width=".8"/>
    </g>
    <g id="text_8"><!-- 0.50 -->
     <g transform="translate(308.32 298.64) scale(.1 -.1)">
      <use xlink:href="#DejaVuSans-30"/>
      <use x="63.623047" xlink:href="#DejaVuSans-2e"/>
      <use x="95.410156" xlink:href="#DejaVuSans-35"/>
      <use x="159.033203" xlink:href="#DejaVuSans-30"/>
     </g>
    </g>
   </g>
   <g id="xtick_8">
    <g id="line2d_9">
     <path d="m352.96 277.17-0.011449 2.0491" fill="none" stroke="#000" stroke-linecap="square" stroke-width=".8"/>
    </g>
    <g id="text_9"><!-- 0.75 -->
     <g transform="translate(341.55 299) scale(.1 -.1)">
      <use xlink:href="#DejaVuSans-30"/>
      <use x="63.623047" xlink:href="#DejaVuSans-2e"/>
      <use x="95.410156" xlink:href="#DejaVuSans-37"/>
      <use x="159.033203" xlink:href="#DejaVuSans-35"/>
     </g>
    </g>
   </g>
   <g id="xtick_9">
    <g id="line2d_10">
     <path d="m386.09 277.53 0.065754 2.0507" fill="none" stroke="#000" stroke-linecap="square" stroke-width=".8"/>
    </g>
    <g id="text_10"><!-- 1.00 -->
     <g transform="translate(374.81 299.37) scale(.1 -.1)">
      <use xlink:href="#DejaVuSans-31"/>
      <use x="63.623047" xlink:href="#DejaVuSans-2e"/>
      <use x="95.410156" xlink:href="#DejaVuSans-30"/>
      <use x="159.033203" xlink:href="#DejaVuSans-30"/>
     </g>
    </g>
   </g>
  </g>
  <g id="axis3d_2">
   <g id="line2d_11">
    <path d="m388.66 200.43 2.9845 77.845" fill="none" stroke="#000" stroke-linecap="square" stroke-width=".8"/>
   </g>
   <g id="text_11"><!-- Trial number -->
    <defs>
     <path id="DejaVuSans-54" d="m-0.29688 72.906h61.672v-8.3125h-25.875v-64.594h-9.9062v64.594h-25.891z"/>
     <path id="DejaVuSans-69" d="m9.4219 54.688h8.9844v-54.688h-8.9844zm0 21.297h8.9844v-11.391h-8.9844z"/>
     <path id="DejaVuSans-75" d="m8.5 21.578v33.109h8.9844v-32.766q0-7.7656 3.0156-11.656 3.0312-3.875 9.0938-3.875 7.2656 0 11.484 4.6406 4.2344 4.6406 4.2344 12.656v31h8.9844v-54.688h-8.9844v8.4062q-3.2656-4.9844-7.5938-7.4062-4.3125-2.4219-10.031-2.4219-9.4219 0-14.312 5.8594-4.875 5.8594-4.875 17.141zm22.609 34.422z"/>
     <path id="DejaVuSans-6d" d="m52 44.188q3.375 6.0625 8.0625 8.9375t11.031 2.875q8.5469 0 13.188-5.9844 4.6406-5.9688 4.6406-17v-33.016h-9.0312v32.719q0 7.8594-2.7969 11.656-2.7812 3.8125-8.4844 3.8125-6.9844 0-11.047-4.6406-4.0469-4.625-4.0469-12.641v-30.906h-9.0312v32.719q0 7.9062-2.7812 11.688t-8.5938 3.7812q-6.8906 0-10.953-4.6562-4.0469-4.6562-4.0469-12.625v-30.906h-9.0312v54.688h9.0312v-8.5q3.0781 5.0312 7.375 7.4219t10.203 2.3906q5.9688 0 10.141-3.0312 4.1719-3.0156 6.1719-8.7812z"/>
     <path id="DejaVuSans-62" d="m48.688 27.297q0 9.9062-4.0781 15.547t-11.203 5.6406q-7.1406 0-11.219-5.6406t-4.0781-15.547 4.0781-15.547 11.219-5.6406q7.125 0 11.203 5.6406t4.0781 15.547zm-30.578 19.094q2.8438 4.875 7.1562 7.2344 4.3281 2.375 10.328 2.375 9.9688 0 16.188-7.9062 6.2344-7.9062 6.2344-20.797t-6.2344-20.812q-6.2188-7.9062-16.188-7.9062-6 0-10.328 2.375-4.3125 2.375-7.1562 7.25v-8.2031h-9.0312v75.984h9.0312z"/>
    </defs>
    <g transform="translate(417.69 224.1) rotate(87.804) scale(.1 -.1)">
     <use xlink:href="#DejaVuSans-54"/>
     <use x="60.865234" xlink:href="#DejaVuSans-72"/>
     <use x="101.978516" xlink:href="#DejaVuSans-69"/>
     <use x="129.761719" xlink:href="#DejaVuSans-61"/>
     <use x="191.041016" xlink:href="#DejaVuSans-6c"/>
     <use x="218.824219" xlink:href="#DejaVuSans-20"/>
     <use x="250.611328" xlink:href="#DejaVuSans-6e"/>
     <use x="313.990234" xlink:href="#DejaVuSans-75"/>
     <use x="377.369141" xlink:href="#DejaVuSans-6d"/>
     <use x="474.78125" xlink:href="#DejaVuSans-62"/>
     <use x="538.257812" xlink:href="#DejaVuSans-65"/>
     <use x="599.78125" xlink:href="#DejaVuSans-72"/>
    </g>
   </g>
   <g id="Line3DCollection_2" fill="none" stroke="#b0b0b0" stroke-width=".8">
    <path d="m109.88 113.57 6.6849 160.03 275.01 2.9604"/>
    <path d="m114.6 99.954 6.355 157.73 270.01 2.8536"/>
    <path d="m119.14 86.843 6.0445 155.48 265.18 2.7524"/>
    <path d="m123.52 74.212 5.752 153.29 260.53 2.6566"/>
    <path d="m127.73 62.036 5.4762 151.16 256.04 2.5656"/>
    <path d="m131.8 50.29 5.2159 149.08 251.7 2.4793"/>
   </g>
   <g id="xtick_10">
    <g id="line2d_12">
     <path d="m389.37 276.54 6.6226 0.071292" fill="none" stroke="#000" stroke-linecap="square" stroke-width=".8"/>
    </g>
    <g id="text_12"><!-- 0 -->
     <g transform="translate(403.64 292.99) scale(.1 -.1)">
      <use xlink:href="#DejaVuSans-30"/>
     </g>
    </g>
   </g>
   <g id="xtick_11">
    <g id="line2d_13">
     <path d="m388.79 260.51 6.5018 0.068715" fill="none" stroke="#000" stroke-linecap="square" stroke-width=".8"/>
    </g>
    <g id="text_13"><!-- 50 -->
     <g transform="translate(399.57 276.83) scale(.1 -.1)">
      <use xlink:href="#DejaVuSans-35"/>
      <use x="63.623047" xlink:href="#DejaVuSans-30"/>
     </g>
    </g>
   </g>
   <g id="xtick_12">
    <g id="line2d_14">
     <path d="m388.24 245.05 6.3853 0.066276" fill="none" stroke="#000" stroke-linecap="square" stroke-width=".8"/>
    </g>
    <g id="text_14"><!-- 100 -->
     <g transform="translate(395.53 261.25) scale(.1 -.1)">
      <use xlink:href="#DejaVuSans-31"/>
      <use x="63.623047" xlink:href="#DejaVuSans-30"/>
      <use x="127.246094" xlink:href="#DejaVuSans-30"/>
     </g>
    </g>
   </g>
   <g id="xtick_13">
    <g id="line2d_15">
     <path d="m387.71 230.14 6.2729 0.063963" fill="none" stroke="#000" stroke-linecap="square" stroke-width=".8"/>
    </g>
    <g id="text_15"><!-- 150 -->
     <g transform="translate(394.7 246.22) scale(.1 -.1)">
      <use xlink:href="#DejaVuSans-31"/>
      <use x="63.623047" xlink:href="#DejaVuSans-35"/>
      <use x="127.246094" xlink:href="#DejaVuSans-30"/>
     </g>
    </g>
   </g>
   <g id="xtick_14">
    <g id="line2d_16">
     <path d="m387.19 215.74 6.1644 0.061771" fill="none" stroke="#000" stroke-linecap="square" stroke-width=".8"/>
    </g>
    <g id="text_16"><!-- 200 -->
     <g transform="translate(393.9 231.7) scale(.1 -.1)">
      <use xlink:href="#DejaVuSans-32"/>
      <use x="63.623047" xlink:href="#DejaVuSans-30"/>
      <use x="127.246094" xlink:href="#DejaVuSans-30"/>
     </g>
    </g>
   </g>
   <g id="xtick_15">
    <g id="line2d_17">
     <path d="m386.69 201.83 6.0595 0.059688" fill="none" stroke="#000" stroke-linecap="square" stroke-width=".8"/>
    </g>
    <g id="text_17"><!-- 250 -->
     <g transform="translate(393.12 217.68) scale(.1 -.1)">
      <use xlink:href="#DejaVuSans-32"/>
      <use x="63.623047" xlink:href="#DejaVuSans-35"/>
      <use x="127.246094" xlink:href="#DejaVuSans-30"/>
     </g>
    </g>
   </g>
  </g>
  <g id="axis3d_3">
   <g id="line2d_18">
    <path d="m388.66 200.43 5.6003-149.24" fill="none" stroke="#000" stroke-linecap="square" stroke-width=".8"/>
   </g>
   <g id="text_18"><!-- Relative frequency -->
    <defs>
     <path id="DejaVuSans-52" d="m44.391 34.188q3.1719-1.0781 6.1719-4.5938t6.0312-9.6719l10.016-19.922h-10.609l-9.3125 18.703q-3.625 7.3281-7.0156 9.7188t-9.25 2.3906h-10.75v-30.812h-9.8594v72.906h22.266q12.5 0 18.656-5.2344 6.1562-5.2188 6.1562-15.766 0-6.8906-3.2031-11.438-3.2031-4.5312-9.2969-6.2812zm-24.719 30.609v-25.875h12.406q7.125 0 10.766 3.2969t3.6406 9.6875-3.6406 9.6406-10.766 3.25z"/>
     <path id="DejaVuSans-74" d="m18.312 70.219v-15.531h18.5v-6.9844h-18.5v-29.688q0-6.6875 1.8281-8.5938t7.4531-1.9062h9.2188v-7.5156h-9.2188q-10.406 0-14.359 3.875-3.9531 3.8906-3.9531 14.141v29.688h-6.5938v6.9844h6.5938v15.531z"/>
     <path id="DejaVuSans-76" d="m2.9844 54.688h9.5156l17.094-45.891 17.094 45.891h9.5156l-20.516-54.688h-12.203z"/>
     <path id="DejaVuSans-71" d="m14.797 27.297q0-9.9062 4.0781-15.547t11.203-5.6406 11.219 5.6406q4.1094 5.6406 4.1094 15.547t-4.1094 15.547q-4.0938 5.6406-11.219 5.6406t-11.203-5.6406-4.0781-15.547zm30.609-19.094q-2.8281-4.875-7.1562-7.25-4.3125-2.375-10.375-2.375-9.9062 0-16.141 7.9062-6.2188 7.9219-6.2188 20.812t6.2188 20.797q6.2344 7.9062 16.141 7.9062 6.0625 0 10.375-2.375 4.3281-2.3594 7.1562-7.2344v8.2969h8.9844v-75.484h-8.9844z"/>
     <path id="DejaVuSans-79" d="m32.172-5.0781q-3.7969-9.7656-7.4219-12.734-3.6094-2.9844-9.6562-2.9844h-7.1875v7.5156h5.2812q3.7031 0 5.75 1.7656 2.0625 1.75 4.5469 8.2969l1.6094 4.0938-22.109 53.812h9.5156l17.094-42.766 17.094 42.766h9.5156z"/>
    </defs>
    <g transform="translate(423.35 166.87) rotate(-87.851) scale(.1 -.1)">
     <use xlink:href="#DejaVuSans-52"/>
     <use x="69.419922" xlink:href="#DejaVuSans-65"/>
     <use x="130.943359" xlink:href="#DejaVuSans-6c"/>
     <use x="158.726562" xlink:href="#DejaVuSans-61"/>
     <use x="220.005859" xlink:href="#DejaVuSans-74"/>
     <use x="259.214844" xlink:href="#DejaVuSans-69"/>
     <use x="286.998047" xlink:href="#DejaVuSans-76"/>
     <use x="346.177734" xlink:href="#DejaVuSans-65"/>
     <use x="407.701172" xlink:href="#DejaVuSans-20"/>
     <use x="439.488281" xlink:href="#DejaVuSans-66"/>
     <use x="474.693359" xlink:href="#DejaVuSans-72"/>
     <use x="515.775391" xlink:href="#DejaVuSans-65"/>
     <use x="577.298828" xlink:href="#DejaVuSans-71"/>
     <use x="640.775391" xlink:href="#DejaVuSans-75"/>
     <use x="704.154297" xlink:href="#DejaVuSans-65"/>
     <use x="765.677734" xlink:href="#DejaVuSans-6e"/>
     <use x="829.056641" xlink:href="#DejaVuSans-63"/>
     <use x="884.037109" xlink:href="#DejaVuSans-79"/>
    </g>
   </g>
   <g id="Line3DCollection_3" fill="none" stroke="#b0b0b0" stroke-width=".8">
    <path d="m388.76 197.56-251.46-2.4637-21.331 77.137"/>
    <path d="m389.41 180.28-252.71-2.4225-21.505 75.88"/>
    <path d="m390.07 162.82-253.97-2.3803-21.682 74.593"/>
    <path d="m390.73 145.19-255.25-2.3371-21.862 73.275"/>
    <path d="m391.4 127.38-256.53-2.2929-22.044 71.924"/>
    <path d="m392.07 109.39-257.83-2.2477-22.229 70.54"/>
    <path d="m392.76 91.211-259.15-2.2015-22.417 69.123"/>
    <path d="m393.44 72.85-260.48-2.1542-22.607 67.671"/>
    <path d="m394.14 54.298-261.82-2.1058-22.8 66.184"/>
   </g>
   <g id="xtick_16">
    <g id="line2d_19">
     <path d="m386.75 197.54 6.0538 0.059314" fill="none" stroke="#000" stroke-linecap="square" stroke-width=".8"/>
    </g>
    <g id="text_19"><!-- 0.00 -->
     <g transform="translate(391.69 201.31) scale(.1 -.1)">
      <use xlink:href="#DejaVuSans-30"/>
      <use x="63.623047" xlink:href="#DejaVuSans-2e"/>
      <use x="95.410156" xlink:href="#DejaVuSans-30"/>
      <use x="159.033203" xlink:href="#DejaVuSans-30"/>
     </g>
    </g>
   </g>
   <g id="xtick_17">
    <g id="line2d_20">
     <path d="m387.39 180.26 6.084 0.058322" fill="none" stroke="#000" stroke-linecap="square" stroke-width=".8"/>
    </g>
    <g id="text_20"><!-- 0.05 -->
     <g transform="translate(392.4 184.09) scale(.1 -.1)">
      <use xlink:href="#DejaVuSans-30"/>
      <use x="63.623047" xlink:href="#DejaVuSans-2e"/>
      <use x="95.410156" xlink:href="#DejaVuSans-30"/>
      <use x="159.033203" xlink:href="#DejaVuSans-35"/>
     </g>
    </g>
   </g>
   <g id="xtick_18">
    <g id="line2d_21">
     <path d="m388.03 162.8 6.1145 0.057306" fill="none" stroke="#000" stroke-linecap="square" stroke-width=".8"/>
    </g>
    <g id="text_21"><!-- 0.10 -->
     <g transform="translate(393.12 166.7) scale(.1 -.1)">
      <use xlink:href="#DejaVuSans-30"/>
      <use x="63.623047" xlink:href="#DejaVuSans-2e"/>
      <use x="95.410156" xlink:href="#DejaVuSans-31"/>
      <use x="159.033203" xlink:href="#DejaVuSans-30"/>
     </g>
    </g>
   </g>
   <g id="xtick_19">
    <g id="line2d_22">
     <path d="m388.68 145.17 6.1453 0.056267" fill="none" stroke="#000" stroke-linecap="square" stroke-width=".8"/>
    </g>
    <g id="text_22"><!-- 0.15 -->
     <g transform="translate(393.85 149.14) scale(.1 -.1)">
      <use xlink:href="#DejaVuSans-30"/>
      <use x="63.623047" xlink:href="#DejaVuSans-2e"/>
      <use x="95.410156" xlink:href="#DejaVuSans-31"/>
      <use x="159.033203" xlink:href="#DejaVuSans-35"/>
     </g>
    </g>
   </g>
   <g id="xtick_20">
    <g id="line2d_23">
     <path d="m389.34 127.36 6.1764 0.055204" fill="none" stroke="#000" stroke-linecap="square" stroke-width=".8"/>
    </g>
    <g id="text_23"><!-- 0.20 -->
     <g transform="translate(394.59 131.4) scale(.1 -.1)">
      <use xlink:href="#DejaVuSans-30"/>
      <use x="63.623047" xlink:href="#DejaVuSans-2e"/>
      <use x="95.410156" xlink:href="#DejaVuSans-32"/>
      <use x="159.033203" xlink:href="#DejaVuSans-30"/>
     </g>
    </g>
   </g>
   <g id="xtick_21">
    <g id="line2d_24">
     <path d="m390 109.37 6.2078 0.054117" fill="none" stroke="#000" stroke-linecap="square" stroke-width=".8"/>
    </g>
    <g id="text_24"><!-- 0.25 -->
     <g transform="translate(395.34 113.47) scale(.1 -.1)">
      <use xlink:href="#DejaVuSans-30"/>
      <use x="63.623047" xlink:href="#DejaVuSans-2e"/>
      <use x="95.410156" xlink:href="#DejaVuSans-32"/>
      <use x="159.033203" xlink:href="#DejaVuSans-35"/>
     </g>
    </g>
   </g>
   <g id="xtick_22">
    <g id="line2d_25">
     <path d="m390.68 91.194 6.2395 0.053004" fill="none" stroke="#000" stroke-linecap="square" stroke-width=".8"/>
    </g>
    <g id="text_25"><!-- 0.30 -->
     <defs>
      <path id="DejaVuSans-33" d="m40.578 39.312q7.0781-1.5156 11.047-6.3125 3.9844-4.7812 3.9844-11.812 0-10.781-7.4219-16.703-7.4219-5.9062-21.094-5.9062-4.5781 0-9.4375 0.90625t-10.031 2.7188v9.5156q4.0938-2.3906 8.9688-3.6094 4.8906-1.2188 10.219-1.2188 9.2656 0 14.125 3.6562t4.8594 10.641q0 6.4531-4.5156 10.078-4.5156 3.6406-12.562 3.6406h-8.5v8.1094h8.8906q7.2656 0 11.125 2.9062t3.8594 8.375q0 5.6094-3.9844 8.6094-3.9688 3.0156-11.391 3.0156-4.0625 0-8.7031-0.89062-4.6406-0.875-10.203-2.7188v8.7812q5.625 1.5625 10.531 2.3438t9.25 0.78125q11.234 0 17.766-5.1094 6.5469-5.0938 6.5469-13.781 0-6.0625-3.4688-10.234t-9.8594-5.7812z"/>
     </defs>
     <g transform="translate(396.09 95.372) scale(.1 -.1)">
      <use xlink:href="#DejaVuSans-30"/>
      <use x="63.623047" xlink:href="#DejaVuSans-2e"/>
      <use x="95.410156" xlink:href="#DejaVuSans-33"/>
      <use x="159.033203" xlink:href="#DejaVuSans-30"/>
     </g>
    </g>
   </g>
   <g id="xtick_23">
    <g id="line2d_26">
     <path d="m391.35 72.832 6.2716 0.051867" fill="none" stroke="#000" stroke-linecap="square" stroke-width=".8"/>
    </g>
    <g id="text_26"><!-- 0.35 -->
     <g transform="translate(396.85 77.084) scale(.1 -.1)">
      <use xlink:href="#DejaVuSans-30"/>
      <use x="63.623047" xlink:href="#DejaVuSans-2e"/>
      <use x="95.410156" xlink:href="#DejaVuSans-33"/>
      <use x="159.033203" xlink:href="#DejaVuSans-35"/>
     </g>
    </g>
   </g>
   <g id="xtick_24">
    <g id="line2d_27">
     <path d="m392.04 54.281 6.304 0.050702" fill="none" stroke="#000" stroke-linecap="square" stroke-width=".8"/>
    </g>
    <g id="text_27"><!-- 0.40 -->
     <defs>
      <path id="DejaVuSans-34" d="m37.797 64.312-24.906-38.922h24.906zm-2.5938 8.5938h12.406v-47.516h10.406v-8.2031h-10.406v-17.188h-9.8125v17.188h-32.906v9.5156z"/>
     </defs>
     <g transform="translate(397.61 58.609) scale(.1 -.1)">
      <use xlink:href="#DejaVuSans-30"/>
      <use x="63.623047" xlink:href="#DejaVuSans-2e"/>
      <use x="95.410156" xlink:href="#DejaVuSans-34"/>
      <use x="159.033203" xlink:href="#DejaVuSans-30"/>
     </g>
    </g>
   </g>
  </g>
  <g id="axes_1">
   <g id="Poly3DCollection_1" fill="#008fd5" fill-opacity=".6" stroke="#fff" stroke-opacity=".6">
    <path d="m145.74 199.32 36.31 0.3576 9.039-2.1503 8.9017-11.154 9.0578-4.4298 8.7933-29.57 9.0087-23.076 9.5253 39.282 9.2027 6.9149 9.1785 15.918 9.2444-78.183 9.0589 64.798 9.039 18.149 9.2228-11.178 8.9853 13.602 9.0818 2.3318 63.819 0.62853z" clip-path="url(#p8b6d319f29)"/>
    <path d="m145.02 202.06 36.433 0.36005 9.0695-2.1556 8.9303-11.183 9.1854 2.3496 8.8565-24.943 8.9236-32.3 18.803 50.807 9.1832 6.8823 9.2923-90.356 9.0659 81.469 9.1264 9.155 9.1445 2.3488 18.194 9.1892 64.038 0.63284z" clip-path="url(#p8b6d319f29)"/>
    <path d="m144.29 204.82 36.558 0.36252 9.1002-2.1609 8.9203-13.482 9.2234 2.3589 8.9978-15.861 8.8041-46.307 9.6295 41.898 18.525 22.986 9.3092-85.838 9.1113 76.928 9.1585 9.1798 9.1972 0.089928 9.1451 4.6183 9.0904 6.8614 64.258 0.6372z" clip-path="url(#p8b6d319f29)"/>
    <path d="m143.55 207.59 36.683 0.36502 9.131-2.1662 8.9881-11.242 9.2827 4.6325 8.9325-22.743 8.878-41.781 9.6465 39.658 9.2792 0.08844 9.3189 27.498 9.3179-83.466 9.1773 65.42 9.143 18.319 9.3644-15.851 8.9905 22.821 9.2359-2.1684 9.1721 2.3516 55.274 0.55z" clip-path="url(#p8b6d319f29)"/>
    <path d="m142.81 210.39 36.81 0.36754 9.1621-2.1715 9.0173-11.271 9.3827 9.1878 8.9488-22.743 8.8475-46.499 9.6853 39.768 9.2924-4.5335 9.3667 27.645 9.3546-83.918 9.1832 77.251 9.2324 6.9405 9.345-9.0489 9.0442 20.59 9.2677-2.1738 9.2039 2.3582 55.465 0.55382z" clip-path="url(#p8b6d319f29)"/>
    <path d="m142.07 213.21 36.937 0.3701 9.1934-2.1769 9.1272-6.7345 9.3702 6.9193 8.8858-29.692 9.0874-25.518 9.5498 21.069 9.3305-4.5518 9.3978 20.88 9.3935-74.988 9.2399 72.871 9.2625 9.2667 9.3202-2.198 9.1457 13.785 9.2729 0.092653 9.236 2.3649 55.658 0.55767z" clip-path="url(#p8b6d319f29)"/>
    <path d="m141.32 216.04 37.065 0.37267 9.2249-2.1823 9.1578-6.752 9.3693 4.6592 9.0045-22.864 9.1497-20.835 9.5602 21.016 9.3481-2.2222 9.3899 13.925 9.4404-108.87 9.2587 99.847 9.3164 7.0054 9.3441 0.091853 9.1845 13.841 9.2454 4.6522 65.153 0.65508z" clip-path="url(#p8b6d319f29)"/>
    <path d="m140.56 218.9 37.194 0.37528 9.2566-2.1877 9.1473-9.0635 9.479 9.2509 9.0268-22.895 9.01-37.337 9.7532 37.52 9.4056 4.7152 9.3911 9.303 9.4458-104 9.3433 81.067 9.3454 11.692 9.3685 2.4033 9.1699 18.473 9.3048 2.3781 65.38 0.65967z" clip-path="url(#p8b6d319f29)"/>
    <path d="m139.8 221.77 37.324 0.37791 9.2886-2.1931 9.1778-9.0874 9.4427 4.6909 9.185-13.736 8.9298-46.822 9.7721 33.064 9.5502 23.271 9.3824 0.093677 9.4688-104.29 9.3678 85.958 9.4247 2.4186 9.3314 11.68 9.2447 13.898 9.3375 2.3848 65.61 0.6643z" clip-path="url(#p8b6d319f29)"/>
    <path d="m139.04 224.66 37.455 0.38057 9.3207-2.1985 9.2085-9.1113 9.4407 2.4006 9.2512-11.469 9.0518-37.44 9.6969 21.304 9.5933 23.366 9.4125-4.5362 9.511-105.01 9.3723 102.88 9.4903-6.8864 9.3447 14.026 9.2988 11.621 9.3705 2.3916 65.841 0.66899z" clip-path="url(#p8b6d319f29)"/>
    <path d="m138.26 227.58 37.586 0.38326 9.3531-2.204 9.2822-6.823 9.4315 0.095103 9.2518-13.828 9.1581-30.466 9.5417-2.2821 9.7513 37.684 9.4678 0.094392 9.5134-71.083 9.4758 57.265 9.4559 9.4441 9.4278 7.0749 9.3386 11.668 18.809 4.8 56.641 0.57754z" clip-path="url(#p8b6d319f29)"/>
    <path d="m137.49 230.51 37.719 0.38597 18.786-4.4225 9.4522 0.096187 9.2085-18.494 9.0865-40.088 9.7857 21.481 9.6225 11.865 9.5546 9.4553 9.5453-68.948 9.523 55.075 9.4687 14.158 9.4555 7.0853 9.3929 9.3731 9.4764 0.096434 9.4 4.7173 56.842 0.58165z" clip-path="url(#p8b6d319f29)"/>
    <path d="m136.71 233.47 37.853 0.38872 9.4186-2.215 9.4772 0.097054 9.442-2.2187 9.2698-16.203 9.1328-37.751 9.8102 21.484 9.585 0.094034 9.6425 23.562 9.5629-93.278 9.511 86.463 9.6043-9.2939 18.888 23.572 9.4176 7.051 66.543 0.68335z" clip-path="url(#p8b6d319f29)"/>
    <path d="m135.92 236.45 37.987 0.39149 9.4009-4.5422 9.5174 0.097543 9.4436-4.5559 18.87-18.55 9.3243-33.205 9.8601 33.396 9.6246 11.838 9.5926-88.738 9.6056 67.734 9.4771 25.97 9.6805-13.97 9.4132 16.497 9.458 7.0797 9.5005 2.4194 57.247 0.58998z" clip-path="url(#p8b6d319f29)"/>
    <path d="m135.12 239.45 38.123 0.3943 9.4336-4.554 9.5514 0.098242 9.5152-2.2332 9.434-9.2604 9.3323-23.526 9.5613-11.839 9.8344 26.245 9.6418 7.161 9.6194-64.549 9.6803 36.305 9.6075 14.373 9.5715 9.5509 9.4154 18.854 19.08 4.8555 57.453 0.59422z" clip-path="url(#p8b6d319f29)"/>
    <path d="m134.33 242.47 38.259 0.39713 9.4665-4.5659 9.6765 4.7646 9.419-9.2455 9.6032 0.098581 9.3176-25.869 9.6408-4.6678 9.7352 7.2378 9.7166 14.294 9.6502-91.846 9.7096 65.92 9.6235 16.766 9.5938 9.5523 9.5172 11.845 9.5863 2.4391 9.5361 4.7703 57.659 0.5985z" clip-path="url(#p8b6d319f29)"/>
    <path d="m133.52 245.51 38.396 0.4 9.4997-4.5779 9.6201 0.099666 9.6619 2.4407 9.5193-6.9332 19.002-33.014 9.8051 12.033 9.7667 21.379 9.649-106.52 9.7452 73.497 9.7338 2.4912 9.6023 16.769 9.5389 14.263 19.165 9.5794 57.867 0.60283z" clip-path="url(#p8b6d319f29)"/>
    <path d="m132.71 248.57 38.535 0.40289 9.5331-4.5899 9.748 4.7915 9.604-2.2433 9.5191-9.309 9.5197-14.113 9.7037-2.2819 9.6919-7.0636 9.8184 21.497 9.686-107.13 9.7891 78.729 9.7564 4.8968 9.6918 9.6579 9.5612 16.704 9.5704 9.5181 9.6385 2.4476 58.077 0.60721z" clip-path="url(#p8b6d319f29)"/>
    <path d="m131.89 251.66 38.674 0.40582 9.5667-4.6019 9.6427-2.2557 9.8205 7.1622 19.091-23.453 9.7112-4.6715 9.7968 4.8705 9.7865 9.6037 9.7109-102.4 9.8197 78.736 9.766 7.2929 9.8869-11.91 9.557 24.035 9.5594 14.305 19.35 4.9126 48.579 0.50975z" clip-path="url(#p8b6d319f29)"/>
    <path d="m131.07 254.77 38.815 0.40878 9.6006-4.614 19.453 0.20374 9.6264-6.9989 9.6409-9.4134 9.7606-2.2867 9.8053 2.4876 9.7865 0.1005 9.7581-95.55 9.834 90.971 9.9237-21.574 9.8315 4.9388 9.5411 28.863 9.6151 11.947 9.7884-2.2603 9.665 4.8248 48.756 0.51348z" clip-path="url(#p8b6d319f29)"/>
    <path d="m130.24 257.9 38.956 0.41177 19.395-4.5236 9.8462 4.8327 9.5071-16.511 9.7733-2.2853 9.7245-9.4804 9.8554 2.5013 9.8519 4.8926 9.7933-73.215 9.8996 56.585 9.9291-9.5944 9.7697 17.03 19.394 24.107 9.8378-2.2731 9.6674 7.2207 9.7358 2.4695 39.153 0.41385z" clip-path="url(#p8b6d319f29)"/>
    <path d="m129.41 261.06 39.099 0.4148 9.669-4.6384 9.8944 4.846 9.7431-2.2661 9.617-11.796 9.8596 2.4894 9.7388-9.4655 9.8714 2.4993 9.8272-7.1005 9.8297-83.705 9.9506 71.834 9.9397-4.7534 9.9111 2.529 9.7143 19.411 9.7073 12.063 9.801 2.4856 9.6966 7.2313 49.115 0.52106z" clip-path="url(#p8b6d319f29)"/>
    <path d="m128.57 264.23 39.242 0.41786 9.7601-2.2714 9.8257 0.10434 9.8707 2.4807 9.6077-14.205 9.8672 0.10333 9.7127-16.747 9.9672 7.3444 9.8679-9.5618 9.8989-51.548 9.9847 44.466 9.9583 0.10104 9.8829 9.81 9.856 7.3485 9.7838 9.7181 9.8112 4.8916 9.7394 7.2615 9.8078 2.4841 39.442 0.41998z" clip-path="url(#p8b6d319f29)"/>
    <path d="m127.72 267.43 49.239 0.52625 9.7546-4.6634 9.9578 4.8741 9.6408-14.244 9.7847-9.5303 10.025 9.7385 19.767-14.268 9.8913-84.31 10.053 69.914 9.9535 9.8509 9.919 7.379 9.9318 2.5221 9.7877 12.148 9.8011 7.2913 9.9492-2.2872 9.7506 7.2729 39.588 0.4231z" clip-path="url(#p8b6d319f29)"/>
    <path d="m126.87 270.66 59.313 0.63627 9.8501-2.2834 9.6808-14.303 9.9778 2.5149 19.953 9.8186 9.9199 0.10583 9.796-144.77 10.14 101.3 9.9938 12.349 10.079-7.2356 9.8084 22.027 9.7523 16.966 9.9368 0.10601 10.08-7.1013 9.7468 9.7093 9.8763 2.4991 29.805 0.31972z" clip-path="url(#p8b6d319f29)"/>
   </g>
   <g id="text_28"><!-- Group F -->
    <defs>
     <path id="DejaVuSans-47" d="m59.516 10.406v19.578h-16.109v8.1094h25.875v-31.312q-5.7031-4.0469-12.594-6.125-6.875-2.0781-14.688-2.0781-17.094 0-26.75 9.9844-9.6406 10-9.6406 27.812 0 17.875 9.6406 27.859 9.6562 9.9844 26.75 9.9844 7.125 0 13.547-1.7656 6.4219-1.75 11.844-5.1719v-10.5q-5.4688 4.6406-11.625 6.9844t-12.938 2.3438q-13.391 0-20.109-7.4688-6.7031-7.4688-6.7031-22.266 0-14.75 6.7031-22.219 6.7188-7.4688 20.109-7.4688 5.2188 0 9.3125 0.90625 4.1094 0.90625 7.375 2.8125z"/>
     <path id="DejaVuSans-70" d="m18.109 8.2031v-29h-9.0312v75.484h9.0312v-8.2969q2.8438 4.875 7.1562 7.2344 4.3281 2.375 10.328 2.375 9.9688 0 16.188-7.9062 6.2344-7.9062 6.2344-20.797t-6.2344-20.812q-6.2188-7.9062-16.188-7.9062-6 0-10.328 2.375-4.3125 2.375-7.1562 7.25zm30.578 19.094q0 9.9062-4.0781 15.547t-11.203 5.6406q-7.1406 0-11.219-5.6406t-4.0781-15.547 4.0781-15.547 11.219-5.6406q7.125 0 11.203 5.6406t4.0781 15.547z"/>
     <path id="DejaVuSans-46" d="m9.8125 72.906h41.891v-8.3125h-32.031v-21.484h28.906v-8.2969h-28.906v-34.812h-9.8594z"/>
    </defs>
    <g transform="translate(228.25 31.541) scale(.12 -.12)">
     <use xlink:href="#DejaVuSans-47"/>
     <use x="77.490234" xlink:href="#DejaVuSans-72"/>
     <use x="118.572266" xlink:href="#DejaVuSans-6f"/>
     <use x="179.753906" xlink:href="#DejaVuSans-75"/>
     <use x="243.132812" xlink:href="#DejaVuSans-70"/>
     <use x="306.609375" xlink:href="#DejaVuSans-20"/>
     <use x="338.396484" xlink:href="#DejaVuSans-46"/>
    </g>
   </g>
  </g>
  <g id="patch_6">
   <path d="m13.32 634.68h477.36v-302.76h-477.36z" fill="#fff"/>
  </g>
  <g id="pane3d_4">
   <g id="patch_7">
    <path d="m116.1 593.9 21.302-77.344-5.1896-148.87-22.833 65.932" fill="#f2f2f2" opacity=".5" stroke="#f2f2f2"/>
   </g>
  </g>
  <g id="pane3d_5">
   <g id="patch_8">
    <path d="m137.41 516.56 251.25 2.4705 5.6003-149.24-262.04-2.0976" fill="#e6e6e6" opacity=".5" stroke="#e6e6e6"/>
   </g>
  </g>
  <g id="pane3d_6">
   <g id="patch_9">
    <path d="m116.1 593.9 275.54 2.9719-2.9845-77.845-251.25-2.4705" fill="#ececec" opacity=".5" stroke="#ececec"/>
   </g>
  </g>
  <g id="axis3d_4">
   <g id="line2d_28">
    <path d="m116.1 593.9 275.54 2.9719" fill="none" stroke="#000" stroke-linecap="square" stroke-width=".8"/>
   </g>
   <g id="text_29"><!-- Self-challenge score -->
    <g transform="translate(201.8 627.11) rotate(.61796) scale(.1 -.1)">
     <use xlink:href="#DejaVuSans-53"/>
     <use x="63.476562" xlink:href="#DejaVuSans-65"/>
     <use x="125" xlink:href="#DejaVuSans-6c"/>
     <use x="152.783203" xlink:href="#DejaVuSans-66"/>
     <use x="187.910156" xlink:href="#DejaVuSans-2d"/>
     <use x="223.994141" xlink:href="#DejaVuSans-63"/>
     <use x="278.974609" xlink:href="#DejaVuSans-68"/>
     <use x="342.353516" xlink:href="#DejaVuSans-61"/>
     <use x="403.632812" xlink:href="#DejaVuSans-6c"/>
     <use x="431.416016" xlink:href="#DejaVuSans-6c"/>
     <use x="459.199219" xlink:href="#DejaVuSans-65"/>
     <use x="520.722656" xlink:href="#DejaVuSans-6e"/>
     <use x="584.101562" xlink:href="#DejaVuSans-67"/>
     <use x="647.578125" xlink:href="#DejaVuSans-65"/>
     <use x="709.101562" xlink:href="#DejaVuSans-20"/>
     <use x="740.888672" xlink:href="#DejaVuSans-73"/>
     <use x="792.988281" xlink:href="#DejaVuSans-63"/>
     <use x="847.96875" xlink:href="#DejaVuSans-6f"/>
     <use x="909.150391" xlink:href="#DejaVuSans-72"/>
     <use x="950.232422" xlink:href="#DejaVuSans-65"/>
    </g>
   </g>
   <g id="Line3DCollection_4" fill="none" stroke="#b0b0b0" stroke-width=".8">
    <path d="m121.6 593.96 20.819-77.354-4.9752-148.87"/>
    <path d="m154.57 594.31 17.921-77.414-3.6872-148.92"/>
    <path d="m187.56 594.67 15.018-77.474-2.3973-148.96"/>
    <path d="m220.59 595.03 12.11-77.534-1.1054-149.01"/>
    <path d="m253.64 595.38 9.198-77.594 0.18837-149.05"/>
    <path d="m286.72 595.74 6.2814-77.654 1.4841-149.1"/>
    <path d="m319.82 596.1 3.3602-77.714 2.7819-149.14"/>
    <path d="m352.95 596.45 0.43454-77.775 4.0816-149.19"/>
    <path d="m386.11 596.81-2.4957-77.835 5.3832-149.23"/>
   </g>
   <g id="xtick_25">
    <g id="line2d_29">
     <path d="m121.78 593.28-0.54837 2.0375" fill="none" stroke="#000" stroke-linecap="square" stroke-width=".8"/>
    </g>
    <g id="text_30"><!-- −1.00 -->
     <g transform="translate(105.33 615.06) scale(.1 -.1)">
      <use xlink:href="#DejaVuSans-2212"/>
      <use x="83.789062" xlink:href="#DejaVuSans-31"/>
      <use x="147.412109" xlink:href="#DejaVuSans-2e"/>
      <use x="179.199219" xlink:href="#DejaVuSans-30"/>
      <use x="242.822266" xlink:href="#DejaVuSans-30"/>
     </g>
    </g>
   </g>
   <g id="xtick_26">
    <g id="line2d_30">
     <path d="m154.72 593.64-0.47204 2.0391" fill="none" stroke="#000" stroke-linecap="square" stroke-width=".8"/>
    </g>
    <g id="text_31"><!-- −0.75 -->
     <g transform="translate(138.39 615.42) scale(.1 -.1)">
      <use xlink:href="#DejaVuSans-2212"/>
      <use x="83.789062" xlink:href="#DejaVuSans-30"/>
      <use x="147.412109" xlink:href="#DejaVuSans-2e"/>
      <use x="179.199219" xlink:href="#DejaVuSans-37"/>
      <use x="242.822266" xlink:href="#DejaVuSans-35"/>
     </g>
    </g>
   </g>
   <g id="xtick_27">
    <g id="line2d_31">
     <path d="m187.7 593.99-0.39558 2.0408" fill="none" stroke="#000" stroke-linecap="square" stroke-width=".8"/>
    </g>
    <g id="text_32"><!-- −0.50 -->
     <g transform="translate(171.49 615.79) scale(.1 -.1)">
      <use xlink:href="#DejaVuSans-2212"/>
      <use x="83.789062" xlink:href="#DejaVuSans-30"/>
      <use x="147.412109" xlink:href="#DejaVuSans-2e"/>
      <use x="179.199219" xlink:href="#DejaVuSans-35"/>
      <use x="242.822266" xlink:href="#DejaVuSans-30"/>
     </g>
    </g>
   </g>
   <g id="xtick_28">
    <g id="line2d_32">
     <path d="m220.69 594.35-0.31901 2.0424" fill="none" stroke="#000" stroke-linecap="square" stroke-width=".8"/>
    </g>
    <g id="text_33"><!-- −0.25 -->
     <g transform="translate(204.61 616.15) scale(.1 -.1)">
      <use xlink:href="#DejaVuSans-2212"/>
      <use x="83.789062" xlink:href="#DejaVuSans-30"/>
      <use x="147.412109" xlink:href="#DejaVuSans-2e"/>
      <use x="179.199219" xlink:href="#DejaVuSans-32"/>
      <use x="242.822266" xlink:href="#DejaVuSans-35"/>
     </g>
    </g>
   </g>
   <g id="xtick_29">
    <g id="line2d_33">
     <path d="m253.72 594.7-0.2423 2.0441" fill="none" stroke="#000" stroke-linecap="square" stroke-width=".8"/>
    </g>
    <g id="text_34"><!-- 0.00 -->
     <g transform="translate(241.95 616.51) scale(.1 -.1)">
      <use xlink:href="#DejaVuSans-30"/>
      <use x="63.623047" xlink:href="#DejaVuSans-2e"/>
      <use x="95.410156" xlink:href="#DejaVuSans-30"/>
      <use x="159.033203" xlink:href="#DejaVuSans-30"/>
     </g>
    </g>
   </g>
   <g id="xtick_30">
    <g id="line2d_34">
     <path d="m286.77 595.06-0.16548 2.0457" fill="none" stroke="#000" stroke-linecap="square" stroke-width=".8"/>
    </g>
    <g id="text_35"><!-- 0.25 -->
     <g transform="translate(275.12 616.88) scale(.1 -.1)">
      <use xlink:href="#DejaVuSans-30"/>
      <use x="63.623047" xlink:href="#DejaVuSans-2e"/>
      <use x="95.410156" xlink:href="#DejaVuSans-32"/>
      <use x="159.033203" xlink:href="#DejaVuSans-35"/>
     </g>
    </g>
   </g>
   <g id="xtick_31">
    <g id="line2d_35">
     <path d="m319.85 595.42-0.088525 2.0474" fill="none" stroke="#000" stroke-linecap="square" stroke-width=".8"/>
    </g>
    <g id="text_36"><!-- 0.50 -->
     <g transform="translate(308.32 617.24) scale(.1 -.1)">
      <use xlink:href="#DejaVuSans-30"/>
      <use x="63.623047" xlink:href="#DejaVuSans-2e"/>
      <use x="95.410156" xlink:href="#DejaVuSans-35"/>
      <use x="159.033203" xlink:href="#DejaVuSans-30"/>
     </g>
    </g>
   </g>
   <g id="xtick_32">
    <g id="line2d_36">
     <path d="m352.96 595.77-0.011449 2.0491" fill="none" stroke="#000" stroke-linecap="square" stroke-width=".8"/>
    </g>
    <g id="text_37"><!-- 0.75 -->
     <g transform="translate(341.55 617.6) scale(.1 -.1)">
      <use xlink:href="#DejaVuSans-30"/>
      <use x="63.623047" xlink:href="#DejaVuSans-2e"/>
      <use x="95.410156" xlink:href="#DejaVuSans-37"/>
      <use x="159.033203" xlink:href="#DejaVuSans-35"/>
     </g>
    </g>
   </g>
   <g id="xtick_33">
    <g id="line2d_37">
     <path d="m386.09 596.13 0.065754 2.0507" fill="none" stroke="#000" stroke-linecap="square" stroke-width=".8"/>
    </g>
    <g id="text_38"><!-- 1.00 -->
     <g transform="translate(374.81 617.97) scale(.1 -.1)">
      <use xlink:href="#DejaVuSans-31"/>
      <use x="63.623047" xlink:href="#DejaVuSans-2e"/>
      <use x="95.410156" xlink:href="#DejaVuSans-30"/>
      <use x="159.033203" xlink:href="#DejaVuSans-30"/>
     </g>
    </g>
   </g>
  </g>
  <g id="axis3d_5">
   <g id="line2d_38">
    <path d="m388.66 519.03 2.9845 77.845" fill="none" stroke="#000" stroke-linecap="square" stroke-width=".8"/>
   </g>
   <g id="text_39"><!-- Trial number -->
    <g transform="translate(417.69 542.7) rotate(87.804) scale(.1 -.1)">
     <use xlink:href="#DejaVuSans-54"/>
     <use x="60.865234" xlink:href="#DejaVuSans-72"/>
     <use x="101.978516" xlink:href="#DejaVuSans-69"/>
     <use x="129.761719" xlink:href="#DejaVuSans-61"/>
     <use x="191.041016" xlink:href="#DejaVuSans-6c"/>
     <use x="218.824219" xlink:href="#DejaVuSans-20"/>
     <use x="250.611328" xlink:href="#DejaVuSans-6e"/>
     <use x="313.990234" xlink:href="#DejaVuSans-75"/>
     <use x="377.369141" xlink:href="#DejaVuSans-6d"/>
     <use x="474.78125" xlink:href="#DejaVuSans-62"/>
     <use x="538.257812" xlink:href="#DejaVuSans-65"/>
     <use x="599.78125" xlink:href="#DejaVuSans-72"/>
    </g>
   </g>
   <g id="Line3DCollection_5" fill="none" stroke="#b0b0b0" stroke-width=".8">
    <path d="m109.88 432.17 6.6849 160.03 275.01 2.9604"/>
    <path d="m114.6 418.55 6.355 157.73 270.01 2.8536"/>
    <path d="m119.14 405.44 6.0445 155.48 265.18 2.7524"/>
    <path d="m123.52 392.81 5.752 153.29 260.53 2.6566"/>
    <path d="m127.73 380.64 5.4762 151.16 256.04 2.5656"/>
    <path d="m131.8 368.89 5.2159 149.08 251.7 2.4793"/>
   </g>
   <g id="xtick_34">
    <g id="line2d_39">
     <path d="m389.37 595.14 6.6226 0.071292" fill="none" stroke="#000" stroke-linecap="square" stroke-width=".8"/>
    </g>
    <g id="text_40"><!-- 0 -->
     <g transform="translate(403.64 611.59) scale(.1 -.1)">
      <use xlink:href="#DejaVuSans-30"/>
     </g>
    </g>
   </g>
   <g id="xtick_35">
    <g id="line2d_40">
     <path d="m388.79 579.11 6.5018 0.068715" fill="none" stroke="#000" stroke-linecap="square" stroke-width=".8"/>
    </g>
    <g id="text_41"><!-- 50 -->
     <g transform="translate(399.57 595.43) scale(.1 -.1)">
      <use xlink:href="#DejaVuSans-35"/>
      <use x="63.623047" xlink:href="#DejaVuSans-30"/>
     </g>
    </g>
   </g>
   <g id="xtick_36">
    <g id="line2d_41">
     <path d="m388.24 563.65 6.3853 0.066276" fill="none" stroke="#000" stroke-linecap="square" stroke-width=".8"/>
    </g>
    <g id="text_42"><!-- 100 -->
     <g transform="translate(395.53 579.85) scale(.1 -.1)">
      <use xlink:href="#DejaVuSans-31"/>
      <use x="63.623047" xlink:href="#DejaVuSans-30"/>
      <use x="127.246094" xlink:href="#DejaVuSans-30"/>
     </g>
    </g>
   </g>
   <g id="xtick_37">
    <g id="line2d_42">
     <path d="m387.71 548.74 6.2729 0.063963" fill="none" stroke="#000" stroke-linecap="square" stroke-width=".8"/>
    </g>
    <g id="text_43"><!-- 150 -->
     <g transform="translate(394.7 564.82) scale(.1 -.1)">
      <use xlink:href="#DejaVuSans-31"/>
      <use x="63.623047" xlink:href="#DejaVuSans-35"/>
      <use x="127.246094" xlink:href="#DejaVuSans-30"/>
     </g>
    </g>
   </g>
   <g id="xtick_38">
    <g id="line2d_43">
     <path d="m387.19 534.34 6.1644 0.061771" fill="none" stroke="#000" stroke-linecap="square" stroke-width=".8"/>
    </g>
    <g id="text_44"><!-- 200 -->
     <g transform="translate(393.9 550.3) scale(.1 -.1)">
      <use xlink:href="#DejaVuSans-32"/>
      <use x="63.623047" xlink:href="#DejaVuSans-30"/>
      <use x="127.246094" xlink:href="#DejaVuSans-30"/>
     </g>
    </g>
   </g>
   <g id="xtick_39">
    <g id="line2d_44">
     <path d="m386.69 520.43 6.0595 0.059688" fill="none" stroke="#000" stroke-linecap="square" stroke-width=".8"/>
    </g>
    <g id="text_45"><!-- 250 -->
     <g transform="translate(393.12 536.28) scale(.1 -.1)">
      <use xlink:href="#DejaVuSans-32"/>
      <use x="63.623047" xlink:href="#DejaVuSans-35"/>
      <use x="127.246094" xlink:href="#DejaVuSans-30"/>
     </g>
    </g>
   </g>
  </g>
  <g id="axis3d_6">
   <g id="line2d_45">
    <path d="m388.66 519.03 5.6003-149.24" fill="none" stroke="#000" stroke-linecap="square" stroke-width=".8"/>
   </g>
   <g id="text_46"><!-- Relative frequency -->
    <g transform="translate(423.35 485.47) rotate(-87.851) scale(.1 -.1)">
     <use xlink:href="#DejaVuSans-52"/>
     <use x="69.419922" xlink:href="#DejaVuSans-65"/>
     <use x="130.943359" xlink:href="#DejaVuSans-6c"/>
     <use x="158.726562" xlink:href="#DejaVuSans-61"/>
     <use x="220.005859" xlink:href="#DejaVuSans-74"/>
     <use x="259.214844" xlink:href="#DejaVuSans-69"/>
     <use x="286.998047" xlink:href="#DejaVuSans-76"/>
     <use x="346.177734" xlink:href="#DejaVuSans-65"/>
     <use x="407.701172" xlink:href="#DejaVuSans-20"/>
     <use x="439.488281" xlink:href="#DejaVuSans-66"/>
     <use x="474.693359" xlink:href="#DejaVuSans-72"/>
     <use x="515.775391" xlink:href="#DejaVuSans-65"/>
     <use x="577.298828" xlink:href="#DejaVuSans-71"/>
     <use x="640.775391" xlink:href="#DejaVuSans-75"/>
     <use x="704.154297" xlink:href="#DejaVuSans-65"/>
     <use x="765.677734" xlink:href="#DejaVuSans-6e"/>
     <use x="829.056641" xlink:href="#DejaVuSans-63"/>
     <use x="884.037109" xlink:href="#DejaVuSans-79"/>
    </g>
   </g>
   <g id="Line3DCollection_6" fill="none" stroke="#b0b0b0" stroke-width=".8">
    <path d="m388.76 516.16-251.46-2.4637-21.331 77.137"/>
    <path d="m389.41 498.88-252.71-2.4225-21.505 75.88"/>
    <path d="m390.07 481.42-253.97-2.3803-21.682 74.593"/>
    <path d="m390.73 463.79-255.25-2.3371-21.862 73.275"/>
    <path d="m391.4 445.98-256.53-2.2929-22.044 71.924"/>
    <path d="m392.07 427.99-257.83-2.2477-22.229 70.54"/>
    <path d="m392.76 409.81-259.15-2.2015-22.417 69.123"/>
    <path d="m393.44 391.45-260.48-2.1542-22.607 67.671"/>
    <path d="m394.14 372.9-261.82-2.1058-22.8 66.184"/>
   </g>
   <g id="xtick_40">
    <g id="line2d_46">
     <path d="m386.75 516.14 6.0538 0.059314" fill="none" stroke="#000" stroke-linecap="square" stroke-width=".8"/>
    </g>
    <g id="text_47"><!-- 0.00 -->
     <g transform="translate(391.69 519.91) scale(.1 -.1)">
      <use xlink:href="#DejaVuSans-30"/>
      <use x="63.623047" xlink:href="#DejaVuSans-2e"/>
      <use x="95.410156" xlink:href="#DejaVuSans-30"/>
      <use x="159.033203" xlink:href="#DejaVuSans-30"/>
     </g>
    </g>
   </g>
   <g id="xtick_41">
    <g id="line2d_47">
     <path d="m387.39 498.86 6.084 0.058322" fill="none" stroke="#000" stroke-linecap="square" stroke-width=".8"/>
    </g>
    <g id="text_48"><!-- 0.05 -->
     <g transform="translate(392.4 502.69) scale(.1 -.1)">
      <use xlink:href="#DejaVuSans-30"/>
      <use x="63.623047" xlink:href="#DejaVuSans-2e"/>
      <use x="95.410156" xlink:href="#DejaVuSans-30"/>
      <use x="159.033203" xlink:href="#DejaVuSans-35"/>
     </g>
    </g>
   </g>
   <g id="xtick_42">
    <g id="line2d_48">
     <path d="m388.03 481.4 6.1145 0.057306" fill="none" stroke="#000" stroke-linecap="square" stroke-width=".8"/>
    </g>
    <g id="text_49"><!-- 0.10 -->
     <g transform="translate(393.12 485.3) scale(.1 -.1)">
      <use xlink:href="#DejaVuSans-30"/>
      <use x="63.623047" xlink:href="#DejaVuSans-2e"/>
      <use x="95.410156" xlink:href="#DejaVuSans-31"/>
      <use x="159.033203" xlink:href="#DejaVuSans-30"/>
     </g>
    </g>
   </g>
   <g id="xtick_43">
    <g id="line2d_49">
     <path d="m388.68 463.77 6.1453 0.056267" fill="none" stroke="#000" stroke-linecap="square" stroke-width=".8"/>
    </g>
    <g id="text_50"><!-- 0.15 -->
     <g transform="translate(393.85 467.74) scale(.1 -.1)">
      <use xlink:href="#DejaVuSans-30"/>
      <use x="63.623047" xlink:href="#DejaVuSans-2e"/>
      <use x="95.410156" xlink:href="#DejaVuSans-31"/>
      <use x="159.033203" xlink:href="#DejaVuSans-35"/>
     </g>
    </g>
   </g>
   <g id="xtick_44">
    <g id="line2d_50">
     <path d="m389.34 445.96 6.1764 0.055204" fill="none" stroke="#000" stroke-linecap="square" stroke-width=".8"/>
    </g>
    <g id="text_51"><!-- 0.20 -->
     <g transform="translate(394.59 450) scale(.1 -.1)">
      <use xlink:href="#DejaVuSans-30"/>
      <use x="63.623047" xlink:href="#DejaVuSans-2e"/>
      <use x="95.410156" xlink:href="#DejaVuSans-32"/>
      <use x="159.033203" xlink:href="#DejaVuSans-30"/>
     </g>
    </g>
   </g>
   <g id="xtick_45">
    <g id="line2d_51">
     <path d="m390 427.97 6.2078 0.054117" fill="none" stroke="#000" stroke-linecap="square" stroke-width=".8"/>
    </g>
    <g id="text_52"><!-- 0.25 -->
     <g transform="translate(395.34 432.07) scale(.1 -.1)">
      <use xlink:href="#DejaVuSans-30"/>
      <use x="63.623047" xlink:href="#DejaVuSans-2e"/>
      <use x="95.410156" xlink:href="#DejaVuSans-32"/>
      <use x="159.033203" xlink:href="#DejaVuSans-35"/>
     </g>
    </g>
   </g>
   <g id="xtick_46">
    <g id="line2d_52">
     <path d="m390.68 409.79 6.2395 0.053004" fill="none" stroke="#000" stroke-linecap="square" stroke-width=".8"/>
    </g>
    <g id="text_53"><!-- 0.30 -->
     <g transform="translate(396.09 413.97) scale(.1 -.1)">
      <use xlink:href="#DejaVuSans-30"/>
      <use x="63.623047" xlink:href="#DejaVuSans-2e"/>
      <use x="95.410156" xlink:href="#DejaVuSans-33"/>
      <use x="159.033203" xlink:href="#DejaVuSans-30"/>
     </g>
    </g>
   </g>
   <g id="xtick_47">
    <g id="line2d_53">
     <path d="m391.35 391.43 6.2716 0.051867" fill="none" stroke="#000" stroke-linecap="square" stroke-width=".8"/>
    </g>
    <g id="text_54"><!-- 0.35 -->
     <g transform="translate(396.85 395.68) scale(.1 -.1)">
      <use xlink:href="#DejaVuSans-30"/>
      <use x="63.623047" xlink:href="#DejaVuSans-2e"/>
      <use x="95.410156" xlink:href="#DejaVuSans-33"/>
      <use x="159.033203" xlink:href="#DejaVuSans-35"/>
     </g>
    </g>
   </g>
   <g id="xtick_48">
    <g id="line2d_54">
     <path d="m392.04 372.88 6.304 0.050702" fill="none" stroke="#000" stroke-linecap="square" stroke-width=".8"/>
    </g>
    <g id="text_55"><!-- 0.40 -->
     <g transform="translate(397.61 377.21) scale(.1 -.1)">
      <use xlink:href="#DejaVuSans-30"/>
      <use x="63.623047" xlink:href="#DejaVuSans-2e"/>
      <use x="95.410156" xlink:href="#DejaVuSans-34"/>
      <use x="159.033203" xlink:href="#DejaVuSans-30"/>
     </g>
    </g>
   </g>
  </g>
  <g id="axes_2">
   <g id="Poly3DCollection_2" fill="#fc4f30" fill-opacity=".6" stroke="#fff" stroke-opacity=".6">
    <path d="m145.74 517.92 36.31 0.3576 9.0445-1.8702 9.0896 0.089302 8.9803-7.7727 9.1143 0.088664 8.8503-29.719 9.272 12.071 9.1818 4.0644 9.1776 17.875 9.3245-134.74 9.047 101.16 9.1116 14.067 9.1347 4.0619 8.9495 17.863 9.0615 4.0152 63.819 0.62853z" clip-path="url(#pa8cd8751aa)"/>
    <path d="m145.02 520.66 36.433 0.36005 18.162-3.752 9.0714-3.8516 9.1403 0.089445 8.7807-39.829 9.3528 16.164 18.448 24.023 9.3369-126.76 9.0806 99.083 9.1607 10.089 9.1664 4.0731 9.005 15.94 9.0691 5.9974 64.038 0.63284z" clip-path="url(#pa8cd8751aa)"/>
    <path d="m144.29 523.42 36.558 0.36252 9.1057-1.8793 18.191-7.7225 9.1769 0.089889 8.8104-39.982 9.3927 16.227 9.2777 8.1034 9.2524 19.969 9.3429-120.6 9.1007 98.9 9.2121 4.0884 9.2489-1.9102 8.9998 19.978 9.1005 6.0136 64.258 0.6372z" clip-path="url(#pa8cd8751aa)"/>
    <path d="m143.55 526.19 36.683 0.36502 9.1367-1.8838 9.1149-3.8662 9.2249 2.0708 9.1214-5.8563 9.0053-21.894 9.2575-1.924 9.2946 4.1117 9.2918 16.091 9.3746-112.99 9.1653 93.144 9.2471 6.122 9.2544 2.0958 9.0558 18.048 9.1086 8.0139 64.479 0.6416z" clip-path="url(#pa8cd8751aa)"/>
    <path d="m142.81 528.99 36.81 0.36754 9.1678-1.8884 9.1457-3.8761 9.257 2.0767 9.0794-11.855 9.068-20.007 9.3552 6.143 9.3499 12.136 9.2789 6.0832 9.3985-119.57 9.2166 93.624 9.2511 12.195 9.2814 2.0997 18.247 24.122 64.702 0.64605z" clip-path="url(#pa8cd8751aa)"/>
    <path d="m142.07 531.81 46.176 0.46267 9.1364-5.8716 9.2894 2.0826 9.0352-17.907 9.1708-14.04 9.4027 8.1789 9.4211 22.146 9.2575-7.8963 9.4229-117.9 9.2732 89.824 9.2951 12.257 9.2695 8.1557 18.359 20.187 9.2401 2.0807 55.658 0.55767z" clip-path="url(#pa8cd8751aa)"/>
    <path d="m141.32 534.64 46.337 0.46589 9.2027-3.8912 9.2563-1.9029 9.044-19.995 9.2908-5.9813 9.3685 0.090501 9.4502 18.248 9.3307 4.1017 9.429-113.67 9.3156 83.551 9.3752 4.1616 9.282 12.25 9.149 18.174 9.2574 4.0862 9.2723 2.0866 55.852 0.56156z" clip-path="url(#pa8cd8751aa)"/>
    <path d="m140.56 537.5 46.498 0.46915 9.2341-3.9011 9.3188 0.093568 9.1185-15.982 9.2663-10.032 9.3079-12.137 9.5499 26.48 9.3729 6.1266 9.4509-113.99 9.3713 79.696 9.3169 20.457 9.429-3.9627 9.1692 20.273 9.2665 6.1027 9.3048 2.0926 56.047 0.5655z" clip-path="url(#pa8cd8751aa)"/>
    <path d="m139.8 540.37 46.66 0.47244 9.3021-1.9071 9.2219-7.9363 9.2928-5.9544 9.1639-22.267 9.4962 6.2187 9.5211 18.347 9.4048 8.1464 9.4774-133.44 9.3498 109.35 9.491-8.0768 9.3185 16.392 9.2573 14.233 9.2994 6.1194 9.3375 2.0986 56.243 0.56947z" clip-path="url(#pa8cd8751aa)"/>
    <path d="m139.04 543.26 37.455 0.38057 18.667-3.826 9.3214-3.9312 9.4234 2.109 9.1462-24.237 9.4625 0.092621 9.561 20.396 9.4197 4.1271 9.5037-142.53 9.4227 108.13 9.4761 4.1971 9.3654 14.386 9.3614 8.2096 9.2332 14.208 9.4336-1.9138 9.3672 2.1048 47.04 0.47796z" clip-path="url(#pa8cd8751aa)"/>
    <path d="m138.26 546.18 37.586 0.38326 18.732-3.8354 9.4492 2.1105 9.2821-10.003 9.2332-20.284 9.5639 8.2742 9.5409 12.295 9.4719 10.198 9.5092-138.22 9.5139 87.293 9.4687 16.616 9.4358 10.343 9.3591 12.315 9.2667 14.246 66.073 0.67372z" clip-path="url(#pa8cd8751aa)"/>
    <path d="m137.49 549.11 37.719 0.38597 9.3919-1.9211 9.4429 0.096393 9.3805-3.9467 9.2972-12.091 9.3439-14.234 9.5674 4.2004 9.5877 12.357 9.5178 10.249 9.5269-112.84 9.5612 67.893 9.4738 20.757 9.5794-4.0196 9.3212 20.567 9.3003 14.285 66.307 0.67851z" clip-path="url(#pa8cd8751aa)"/>
    <path d="m136.71 552.07 47.321 0.48595 9.4326-1.926 9.4132-3.9569 18.769-20.224 9.585 4.1983 19.128 16.51 9.552-119.67 9.6131 70.425 9.5454 16.729 9.5465 6.2926 9.3739 18.56 9.3631 12.299 9.4707 2.1229 57.044 0.58579z" clip-path="url(#pa8cd8751aa)"/>
    <path d="m135.92 555.05 47.489 0.48942 9.4658-1.9307 9.446-3.9671 18.878-16.164 9.5756 0.096047 9.6529 14.421 9.5253-6.0281 9.5894-96.643 9.6404 61.704 9.7229-10.377 9.4056 33.383 9.5324 6.2679 9.3848 14.414 9.4469 6.198 57.247 0.58998z" clip-path="url(#pa8cd8751aa)"/>
    <path d="m135.12 558.05 47.659 0.49293 19.012-3.8738 18.932-16.188 9.5875-1.9623 9.6784 12.417 9.5591-8.1062 9.6258-99.327 9.6679 72.58 9.6609 4.2673 9.7114-4.0777 9.407 24.985 9.3905 16.495 9.5099 4.174 57.453 0.59422z" clip-path="url(#pa8cd8751aa)"/>
    <path d="m134.33 561.07 57.402 0.59584 9.5068-3.9827 9.4463-10.15 9.5966-1.9592 9.6615 4.2105 9.5616-10.202 9.6881 14.503 9.6233-118.64 9.6975 85.726 9.6966 2.1842 9.8118-12.473 9.3426 35.475 9.5876 4.2137 9.4286 12.387 57.659 0.5985z" clip-path="url(#pa8cd8751aa)"/>
    <path d="m133.52 564.11 57.608 0.60014 9.5057-6.0434 9.5711-4.0087 9.6426 0.099239 9.5753-8.1484 9.6354-6.1138 9.725 12.501 9.6572-119.27 9.7242 96.654 9.7616-6.1777 9.8349-10.413 9.4722 27.292 9.3561 24.829 67.504 0.70322z" clip-path="url(#pa8cd8751aa)"/>
    <path d="m132.71 567.17 48.174 0.50367 9.601-1.95 9.5797-4.0086 9.6344-1.9582 9.6012-6.0908 9.6204-8.1906 9.7291 2.1754 9.744 10.445 9.6736-121.67 9.7984 86.435 9.7682 4.3046 9.7995-2.0055 9.4864 27.238 9.5421 12.484 9.6138 4.2095 58.077 0.60721z" clip-path="url(#pa8cd8751aa)"/>
    <path d="m131.89 570.26 48.349 0.50734 9.6354-1.9548 9.6138-4.0191 9.6987 0.10104 9.6054-8.1713 9.6361-10.297 9.7708 2.1842 9.755 0.099637 9.7385-87.516 9.8279 68.856 9.8617-8.3514 9.7019 16.956 9.6799 10.554 9.5658 14.632 9.6259 6.2922 9.6742 2.1606 48.579 0.50975z" clip-path="url(#pa8cd8751aa)"/>
    <path d="m131.07 573.37 38.815 0.40878 9.6618-1.9595 9.7594 2.1641 9.6423-4.0245 19.313-12.239 9.7682 0.10089 9.7203-8.2462 9.8231 8.448 9.7443-96.223 9.9259 49.995 9.7752 25.579 9.7728 8.5112 9.7508 6.3827 9.6306 12.599 9.5977 10.448 9.7848-1.9619 9.706 2.1672 39.01 0.41083z" clip-path="url(#pa8cd8751aa)"/>
    <path d="m130.24 576.5 48.701 0.51478 9.7049-1.9646 9.7918 2.1707 19.259-20.589 9.7782-4.0886 9.9075 12.641 9.7279-20.851 9.8306-66.523 9.9159 56.148 9.8606 6.4526 9.8439 4.3229 9.9153-4.1231 9.4465 31.528 9.7954 0.10279 9.6757 6.321 48.935 0.51725z" clip-path="url(#pa8cd8751aa)"/>
    <path d="m129.41 579.66 68.447 0.72616 9.7257-4.046 9.6261-14.502 9.8653 2.1965 9.7897-8.2912 9.8977 8.496 9.8022-83.544 9.9688 52.051 9.9099 6.4867 9.8929 4.3456 9.8942 2.2196 9.7093 14.862 9.5939 16.82 9.7464 4.2581 49.115 0.52106z" clip-path="url(#pa8cd8751aa)"/>
    <path d="m128.57 582.83 68.699 0.73151 9.7922-1.9747 9.7811-4.0622 9.6705-18.775 9.9708 10.617 9.8604-4.0952 9.8396-77.281 10.009 47.801 9.9914-2.04 10.041-6.3376 9.7074 27.827 9.7576 12.751 9.7232 10.574 9.7476 6.3568 49.296 0.52491z" clip-path="url(#pa8cd8751aa)"/>
    <path d="m127.72 586.03 59.094 0.63158 9.7816-4.067 9.9037 2.1926 9.7648-8.2614 9.8551-4.0947 19.806-4.002 9.8742-68.707 10.096 15.387 9.9237 32.418 10.029-4.1729 9.9638 4.3767 9.6213 27.637 9.8177 6.3968 9.8249 4.2875 9.85 2.193 39.588 0.4231z" clip-path="url(#pa8cd8751aa)"/>
    <path d="m126.87 589.26 69.207 0.74241 9.6369-16.693 10.106 12.721 9.8932-1.9905 9.8937-4.0952 9.9365 0.10531 9.8579-92.806 10.092 59.024 10.032 2.2469 10.192-19.298 9.7964 28.056 9.7861 17.085 9.972 0.10492 9.6863 14.829 9.9809-1.9896 9.8359 4.2957 29.805 0.31972z" clip-path="url(#pa8cd8751aa)"/>
   </g>
   <g id="text_56"><!-- Group S -->
    <g transform="translate(227.89 350.14) scale(.12 -.12)">
     <use xlink:href="#DejaVuSans-47"/>
     <use x="77.490234" xlink:href="#DejaVuSans-72"/>
     <use x="118.572266" xlink:href="#DejaVuSans-6f"/>
     <use x="179.753906" xlink:href="#DejaVuSans-75"/>
     <use x="243.132812" xlink:href="#DejaVuSans-70"/>
     <use x="306.609375" xlink:href="#DejaVuSans-20"/>
     <use x="338.396484" xlink:href="#DejaVuSans-53"/>
    </g>
   </g>
  </g>
 </g>
 <defs>
  <clipPath id="p8b6d319f29">
   <rect x="13.32" y="13.32" width="477.36" height="302.76"/>
  </clipPath>
  <clipPath id="pa8cd8751aa">
   <rect x="13.32" y="331.92" width="477.36" height="302.76"/>
  </clipPath>
 </defs>
</svg>
