<svg height="360pt" stroke-linejoin="round" viewBox="0 0 504 360" width="504pt" xmlns="http://www.w3.org/2000/svg" xmlns:xlink="http://www.w3.org/1999/xlink"><defs stroke-linejoin="round"><clipPath id="a" stroke-linejoin="round"><path d="m63 43.2h390.6v277.2h-390.6z"/></clipPath><path id="b" d="m0 0v3.5" stroke="#000" stroke-linejoin="round" stroke-width=".8"/><path id="c" d="m31.781 66.406q-7.6094 0-11.453-7.5-3.8281-7.4844-3.8281-22.531 0-14.984 3.8281-22.484 3.8438-7.5 11.453-7.5 7.6719 0 11.5 7.5 3.8438 7.5 3.8438 22.484 0 15.047-3.8438 22.531-3.8281 7.5-11.5 7.5zm0 7.8125q12.266 0 18.734-9.7031 6.4688-9.6875 6.4688-28.141 0-18.406-6.4688-28.109-6.4688-9.6875-18.734-9.6875-12.25 0-18.719 9.6875-6.4688 9.7031-6.4688 28.109 0 18.453 6.4688 28.141 6.4688 9.7031 18.719 9.7031z" stroke-linejoin="round"/><path id="d" d="m10.797 72.906h38.719v-8.3125h-29.688v-17.859q2.1406.73438 4.2812 1.0938 2.1562.35938 4.3125.35938 12.203 0 19.328-6.6875 7.1406-6.6875 7.1406-18.109 0-11.766-7.3281-18.297-7.3281-6.5156-20.656-6.5156-4.5938 0-9.3594.78125-4.75.78125-9.8281 2.3438v9.9219q4.3906-2.3906 9.0781-3.5625t9.9062-1.1719q8.4531 0 13.375 4.4375 4.9375 4.4375 4.9375 12.062 0 7.6094-4.9375 12.047-4.9219 4.4531-13.375 4.4531-3.9531 0-7.8906-.875-3.9219-.875-8.0156-2.7344z" stroke-linejoin="round"/><path id="e" d="m12.406 8.2969h16.109v55.625l-17.531-3.5156v8.9844l17.438 3.5156h9.8594v-64.609h16.109v-8.2969h-41.984z" stroke-linejoin="round"/><path id="f" d="m19.188 8.2969h34.422v-8.2969h-46.281v8.2969q5.6094 5.8125 15.297 15.594 9.7031 9.7969 12.188 12.641 4.7344 5.3125 6.6094 9 1.8906 3.6875 1.8906 7.25 0 5.8125-4.0781 9.4688-4.0781 3.6719-10.625 3.6719-4.6406 0-9.7969-1.6094-5.1406-1.6094-11-4.8906v9.9688q5.9531 2.3906 11.125 3.6094 5.1875 1.2188 9.4844 1.2188 11.328 0 18.062-5.6719 6.7344-5.6562 6.7344-15.125 0-4.5-1.6875-8.5312-1.6719-4.0156-6.125-9.4844-1.2188-1.4219-7.7656-8.1875-6.5312-6.7656-18.453-18.922z" stroke-linejoin="round"/><path id="g" d="m41.109 46.297q-1.5156.875-3.2969 1.2812-1.7812.42188-3.9219.42188-7.625 0-11.703-4.9531t-4.0781-14.234v-28.812h-9.0312v54.688h9.0312v-8.5q2.8438 4.9844 7.375 7.3906 4.5469 2.4219 11.047 2.4219.92188 0 2.0469-.125 1.125-.10938 2.4844-.35938z" stroke-linejoin="round"/><path id="h" d="m0 0h-3.5" stroke="#000" stroke-linejoin="round" stroke-width=".8"/><path id="i" d="m10.688 12.406h10.312v-12.406h-10.312z" stroke-linejoin="round"/><path id="j" d="m33.016 40.375q-6.6406 0-10.531-4.5469-3.875-4.5312-3.875-12.438 0-7.8594 3.875-12.438 3.8906-4.5625 10.531-4.5625t10.516 4.5625q3.875 4.5781 3.875 12.438 0 7.9062-3.875 12.438-3.875 4.5469-10.516 4.5469zm19.578 30.922v-8.9844q-3.7188 1.75-7.5 2.6719-3.7812.9375-7.5.9375-9.7656 0-14.922-6.5938-5.1406-6.5938-5.875-19.922 2.875 4.25 7.2188 6.5156 4.3594 2.2656 9.5781 2.2656 10.984 0 17.359-6.6719 6.375-6.6562 6.375-18.125 0-11.234-6.6406-18.031-6.6406-6.7812-17.672-6.7812-12.656 0-19.344 9.6875-6.6875 9.7031-6.6875 28.109 0 17.281 8.2031 27.562t22.016 10.281q3.7188 0 7.5-.73438t7.8906-2.1875z" stroke-linejoin="round"/><path id="k" d="m8.2031 72.906h46.875v-4.2031l-26.469-68.703h-10.297l24.906 64.594h-35.016z" stroke-linejoin="round"/></defs><g stroke-linejoin="round"><path d="m0 360h504v-360h-504z" fill="#fff"/><g><path d="m63 320.4h390.6v-277.2h-390.6z" fill="#fff"/><g><g><path clip-path="url(#a)" d="m80.755 320.4v-277.2" fill="none" stroke="#b0b0b0" stroke-width=".8"/><use stroke="#000" stroke-width=".8" x="80.754545" xlink:href="#b" y="320.4"/><use transform="matrix(.1 0 0 -.1 77.573 335)" xlink:href="#c"/></g><g><path clip-path="url(#a)" d="m149.57 320.4v-277.2" fill="none" stroke="#b0b0b0" stroke-width=".8"/><use stroke="#000" stroke-width=".8" x="149.570613" xlink:href="#b" y="320.4"/><g transform="matrix(.1 0 0 -.1 143.21 335)"><use xlink:href="#d"/><use x="63.623047" xlink:href="#c"/></g></g><g><path clip-path="url(#a)" d="m218.39 320.4v-277.2" fill="none" stroke="#b0b0b0" stroke-width=".8"/><use stroke="#000" stroke-width=".8" x="218.386681" xlink:href="#b" y="320.4"/><g transform="matrix(.1 0 0 -.1 208.84 335)"><use xlink:href="#e"/><use x="63.623047" xlink:href="#c"/><use x="127.246094" xlink:href="#c"/></g></g><g><path clip-path="url(#a)" d="m287.2 320.4v-277.2" fill="none" stroke="#b0b0b0" stroke-width=".8"/><use stroke="#000" stroke-width=".8" x="287.202748" xlink:href="#b" y="320.4"/><g transform="matrix(.1 0 0 -.1 277.66 335)"><use xlink:href="#e"/><use x="63.623047" xlink:href="#d"/><use x="127.246094" xlink:href="#c"/></g></g><g><path clip-path="url(#a)" d="m356.02 320.4v-277.2" fill="none" stroke="#b0b0b0" stroke-width=".8"/><use stroke="#000" stroke-width=".8" x="356.018816" xlink:href="#b" y="320.4"/><g transform="matrix(.1 0 0 -.1 346.48 335)"><use xlink:href="#f"/><use x="63.623047" xlink:href="#c"/><use x="127.246094" xlink:href="#c"/></g></g><g><path clip-path="url(#a)" d="m424.83 320.4v-277.2" fill="none" stroke="#b0b0b0" stroke-width=".8"/><use stroke="#000" stroke-width=".8" x="424.834884" xlink:href="#b" y="320.4"/><g transform="matrix(.1 0 0 -.1 415.29 335)"><use xlink:href="#f"/><use x="63.623047" xlink:href="#d"/><use x="127.246094" xlink:href="#c"/></g></g><g transform="matrix(.1 0 0 -.1 226.26 348.68)"><path d="m-.29688 72.906h61.672v-8.3125h-25.875v-64.594h-9.9062v64.594h-25.891z"/><use x="60.865234" xlink:href="#g"/><path d="m9.4219 54.688h8.9844v-54.688h-8.9844zm0 21.297h8.9844v-11.391h-8.9844z" transform="translate(101.978516)"/><path d="m34.281 27.484q-10.891 0-15.094-2.4844t-4.2031-8.5q0-4.7812 3.1562-7.5938 3.1562-2.7969 8.5625-2.7969 7.4844 0 12 5.2969t4.5156 14.078v2zm17.922 3.7188v-31.203h-8.9844v8.2969q-3.0781-4.9688-7.6719-7.3438t-11.234-2.375q-8.3906 0-13.359 4.7188-4.9531 4.7188-4.9531 12.625 0 9.2188 6.1719 13.906 6.1875 4.6875 18.438 4.6875h12.609v.89062q0 6.2031-4.0781 9.5938t-11.453 3.3906q-4.6875 0-9.1406-1.125-4.4375-1.125-8.5312-3.375v8.3125q4.9219 1.9062 9.5625 2.8438 4.6406.95312 9.0312.95312 11.875 0 17.734-6.1562 5.8594-6.1406 5.8594-18.641z" transform="translate(129.761719)"/><path d="m9.4219 75.984h8.9844v-75.984h-8.9844z" transform="translate(191.041016)"/><path d="m54.891 33.016v-33.016h-8.9844v32.719q0 7.7656-3.0312 11.609-3.0312 3.8594-9.0781 3.8594-7.2812 0-11.484-4.6406-4.2031-4.625-4.2031-12.641v-30.906h-9.0312v54.688h9.0312v-8.5q3.2344 4.9375 7.5938 7.375 4.375 2.4375 10.094 2.4375 9.4219 0 14.25-5.8281 4.8438-5.8281 4.8438-17.156z" transform="translate(250.611328)"/><path d="m8.5 21.578v33.109h8.9844v-32.766q0-7.7656 3.0156-11.656 3.0312-3.875 9.0938-3.875 7.2656 0 11.484 4.6406 4.2344 4.6406 4.2344 12.656v31h8.9844v-54.688h-8.9844v8.4062q-3.2656-4.9844-7.5938-7.4062-4.3125-2.4219-10.031-2.4219-9.4219 0-14.312 5.8594-4.875 5.8594-4.875 17.141z" transform="translate(313.990234)"/><path d="m52 44.188q3.375 6.0625 8.0625 8.9375t11.031 2.875q8.5469 0 13.188-5.9844 4.6406-5.9688 4.6406-17v-33.016h-9.0312v32.719q0 7.8594-2.7969 11.656-2.7812 3.8125-8.4844 3.8125-6.9844 0-11.047-4.6406-4.0469-4.625-4.0469-12.641v-30.906h-9.0312v32.719q0 7.9062-2.7812 11.688t-8.5938 3.7812q-6.8906 0-10.953-4.6562-4.0469-4.6562-4.0469-12.625v-30.906h-9.0312v54.688h9.0312v-8.5q3.0781 5.0312 7.375 7.4219t10.203 2.3906q5.9688 0 10.141-3.0312 4.1719-3.0156 6.1719-8.7812z" transform="translate(377.369141)"/><path d="m48.688 27.297q0 9.9062-4.0781 15.547t-11.203 5.6406q-7.1406 0-11.219-5.6406t-4.0781-15.547 4.0781-15.547 11.219-5.6406q7.125 0 11.203 5.6406t4.0781 15.547zm-30.578 19.094q2.8438 4.875 7.1562 7.2344 4.3281 2.375 10.328 2.375 9.9688 0 16.188-7.9062 6.2344-7.9062 6.2344-20.797t-6.2344-20.812q-6.2188-7.9062-16.188-7.9062-6 0-10.328 2.375-4.3125 2.375-7.1562 7.25v-8.2031h-9.0312v75.984h9.0312z" transform="translate(474.78125)"/><path d="m56.203 29.594v-4.3906h-41.312q.59375-9.2812 5.5938-14.141t13.938-4.8594q5.1719 0 10.031 1.2656t9.6562 3.8125v-8.5q-4.8438-2.0469-9.9219-3.125t-10.297-1.0781q-13.094 0-20.734 7.6094-7.6406 7.625-7.6406 20.625 0 13.422 7.25 21.297 7.25 7.8906 19.562 7.8906 11.031 0 17.453-7.1094 6.4219-7.0938 6.4219-19.297zm-8.9844 2.6406q-.09375 7.3594-4.125 11.75-4.0312 4.4062-10.672 4.4062-7.5156 0-12.031-4.25t-5.2031-11.969z" transform="translate(538.257812)"/><use x="599.78125" xlink:href="#g"/></g></g><g><g><path clip-path="url(#a)" d="m63 271.99h390.6" fill="none" stroke="#b0b0b0" stroke-width=".8"/><use stroke="#000" stroke-width=".8" x="63" xlink:href="#h" y="271.989474"/><g transform="matrix(.1 0 0 -.1 33.734 275.79)"><use xlink:href="#c"/><use x="63.623047" xlink:href="#i"/><use x="95.410156" xlink:href="#j"/><use x="159.033203" xlink:href="#c"/></g></g><g><path clip-path="url(#a)" d="m63 220.93h390.6" fill="none" stroke="#b0b0b0" stroke-width=".8"/><use stroke="#000" stroke-width=".8" x="63" xlink:href="#h" y="220.926316"/><g transform="matrix(.1 0 0 -.1 33.734 224.73)"><use xlink:href="#c"/><use x="63.623047" xlink:href="#i"/><use x="95.410156" xlink:href="#j"/><use x="159.033203" xlink:href="#d"/></g></g><g><path clip-path="url(#a)" d="m63 169.86h390.6" fill="none" stroke="#b0b0b0" stroke-width=".8"/><use stroke="#000" stroke-width=".8" x="63" xlink:href="#h" y="169.863158"/><g transform="matrix(.1 0 0 -.1 33.734 173.66)"><use xlink:href="#c"/><use x="63.623047" xlink:href="#i"/><use x="95.410156" xlink:href="#k"/><use x="159.033203" xlink:href="#c"/></g></g><g><path clip-path="url(#a)" d="m63 118.8h390.6" fill="none" stroke="#b0b0b0" stroke-width=".8"/><use stroke="#000" stroke-width=".8" x="63" xlink:href="#h" y="118.8"/><g transform="matrix(.1 0 0 -.1 33.734 122.6)"><use xlink:href="#c"/><use x="63.623047" xlink:href="#i"/><use x="95.410156" xlink:href="#k"/><use x="159.033203" xlink:href="#d"/></g></g><g><path clip-path="url(#a)" d="m63 67.737h390.6" fill="none" stroke="#b0b0b0" stroke-width=".8"/><use stroke="#000" stroke-width=".8" x="63" xlink:href="#h" y="67.736842"/><g transform="matrix(.1 0 0 -.1 33.734 71.536)"><use xlink:href="#c"/><use x="63.623047" xlink:href="#i"/><path d="m31.781 34.625q-7.0312 0-11.062-3.7656-4.0156-3.7656-4.0156-10.344 0-6.5938 4.0156-10.359 4.0312-3.7656 11.062-3.7656t11.078 3.7812q4.0625 3.7969 4.0625 10.344 0 6.5781-4.0312 10.344-4.0156 3.7656-11.109 3.7656zm-9.8594 4.1875q-6.3438 1.5625-9.8906 5.9062-3.5312 4.3594-3.5312 10.609 0 8.7344 6.2188 13.812 6.2344 5.0781 17.062 5.0781 10.891 0 17.094-5.0781t6.2031-13.812q0-6.25-3.5469-10.609-3.5312-4.3438-9.8281-5.9062 7.125-1.6562 11.094-6.5 3.9844-4.8281 3.9844-11.797 0-10.609-6.4688-16.281-6.4688-5.6562-18.531-5.6562-12.047 0-18.531 5.6562-6.4688 5.6719-6.4688 16.281 0 6.9688 4 11.797 4.0156 4.8438 11.141 6.5zm-3.6094 15.578q0-5.6562 3.5312-8.8281 3.5469-3.1719 9.9375-3.1719 6.3594 0 9.9375 3.1719 3.5938 3.1719 3.5938 8.8281 0 5.6719-3.5938 8.8438-3.5781 3.1719-9.9375 3.1719-6.3906 0-9.9375-3.1719-3.5312-3.1719-3.5312-8.8438z" transform="translate(95.410156)"/><use x="159.033203" xlink:href="#c"/></g></g><g transform="matrix(0 -.1 -.1 0 27.655 188.31)"><path d="m19.672 64.797v-27.391h12.406q6.8906 0 10.641 3.5625 3.7656 3.5625 3.7656 10.156 0 6.5469-3.7656 10.109-3.75 3.5625-10.641 3.5625zm-9.8594 8.1094h22.266q12.266 0 18.531-5.5469 6.2812-5.5469 6.2812-16.234 0-10.797-6.2812-16.312-6.2656-5.5156-18.531-5.5156h-12.406v-29.297h-9.8594z"/><path d="m64.406 67.281v-10.391q-4.9844 4.6406-10.625 6.9219-5.6406 2.2969-11.984 2.2969-12.5 0-19.141-7.6406t-6.6406-22.094q0-14.406 6.6406-22.047t19.141-7.6406q6.3438 0 11.984 2.2969t10.625 6.9375v-10.312q-5.1719-3.5156-10.969-5.2812-5.7812-1.75-12.219-1.75-16.562 0-26.094 10.125-9.5156 10.141-9.5156 27.672 0 17.578 9.5156 27.703 9.5312 10.141 26.094 10.141 6.5312 0 12.312-1.7344 5.7969-1.7344 10.875-5.2031z" transform="translate(60.302734)"/></g></g><g fill="none"><path clip-path="url(#a)" d="m80.755 195.73 1.3763 15.253h1.3763l1.3763 6.6316 1.3763-2.6526h1.3763l1.3763 2.6526 1.3763-6.6316h1.3763l1.3763-15.253 1.3763-17.905 1.3763-14.589 1.3763-3.3158 1.3763-7.2947 1.3763-3.3158 1.3763-3.9789 1.3763-5.3053 1.3763 8.6211 1.3763-.66316 1.3763 5.3053 1.3763 9.9474 1.3763 4.6421 1.3763 5.9684 1.3763 8.6211 1.3763 5.9684 1.3763 8.6211 1.3763 1.3263 1.3763-8.6211 1.3763 7.2947 1.3763-1.3263 1.3763-1.9895 1.3763-5.3053 1.3763 1.3263 2.7526-7.9579 1.3763-4.6421 1.3763 7.2947 1.3763.66316 1.3763-5.3053 1.3763-5.9684h1.3763l1.3763 2.6526 1.3763-3.9789 1.3763 3.3158 1.3763 8.6211 1.3763 3.9789 1.3763-3.3158h1.3763l1.3763-7.2947 1.3763 3.9789 1.3763 2.6526 1.3763 1.3263h1.3763l1.3763-2.6526 1.3763-3.3158 1.3763 6.6316 1.3763-5.3053 1.3763 4.6421 2.7526 6.6316 1.3763-9.2842h1.3763l1.3763-3.3158 1.3763-5.3053 1.3763-7.9579 1.3763-10.611 1.3763 5.3053 1.3763-4.6421 2.7526 5.3053 1.3763 7.2947 1.3763-2.6526 1.3763 3.3158 1.3763 3.9789 1.3763 2.6526 1.3763.66316 1.3763 4.6421 1.3763 3.9789 1.3763-4.6421 2.7526-11.937 1.3763-.66316 1.3763-3.3158 1.3763-5.3053 2.7526 14.589 2.7526-13.263 1.3763 3.3158 1.3763 1.9895 1.3763-3.9789 2.7526 6.6316 1.3763 4.6421 1.3763-9.9474 1.3763-12.6 2.7526-2.6526h4.129l1.3763 5.9684 1.3763-1.3263 1.3763 1.3263 1.3763 6.6316 1.3763 5.9684 1.3763 3.3158 1.3763 4.6421 1.3763-3.3158 2.7526-9.2842 1.3763-5.3053 1.3763 1.9895 1.3763-1.9895 1.3763-5.9684 2.7526-6.6316 2.7526-2.6526 1.3763 3.9789 1.3763 7.9579 1.3763 1.9895 1.3763-5.3053 1.3763-4.6421 1.3763-1.3263 1.3763 3.3158 1.3763-2.6526 1.3763 1.3263 1.3763-2.6526h1.3763l1.3763 4.6421 1.3763-3.3158 1.3763-2.6526 1.3763-4.6421h1.3763l1.3763-7.2947h1.3763l1.3763-5.9684 1.3763 4.6421 1.3763 1.3263 1.3763-13.263 1.3763-5.3053 1.3763 3.3158 1.3763 9.2842 1.3763 3.9789 2.7526 2.6526 1.3763 7.2947 1.3763-3.3158 1.3763-1.9895 1.3763 9.2842 1.3763 5.9684h1.3763l1.3763 3.3158 1.3763 1.3263 1.3763.66316 1.3763 1.3263 1.3763-3.9789 1.3763 2.6526 1.3763 7.9579 1.3763-2.6526 1.3763-1.3263 1.3763 2.6526 1.3763-3.3158 1.3763-1.9895 1.3763 1.3263 1.3763 1.9895 1.3763 3.9789 1.3763 3.3158 1.3763-9.9474 1.3763-.66316 1.3763-5.3053 1.3763.66316h1.3763l1.3763 2.6526 1.3763 1.9895 1.3763-1.3263h1.3763l1.3763 3.3158 1.3763 1.3263 1.3763 3.9789 1.3763 4.6421 1.3763-1.3263 1.3763-10.611 1.3763-4.6421 1.3763-3.9789h1.3763l1.3763 3.3158 1.3763-4.6421 1.3763-2.6526 1.3763-3.3158 1.3763-3.9789 1.3763-1.3263 1.3763 9.2842 1.3763-5.3053 1.3763-4.6421 1.3763-1.3263 1.3763-9.2842 1.3763 3.3158 1.3763 5.3053 1.3763-1.9895 1.3763 5.9684 1.3763 1.9895h1.3763l1.3763 9.2842 1.3763 6.6316 1.3763 7.9579 1.3763.66316 1.3763-6.6316 1.3763-4.6421 1.3763 2.6526 1.3763-7.9579 1.3763-3.9789 1.3763-9.2842 1.3763-1.9895 1.3763 4.6421 1.3763-7.9579 1.3763-3.9789 1.3763-1.3263 1.3763 1.9895 2.7526 2.6526 1.3763-2.6526 1.3763 6.6316 1.3763-1.3263 1.3763-3.3158 1.3763-7.2947 1.3763 3.9789h1.3763l1.3763-4.6421 1.3763-2.6526 1.3763 2.6526 2.7526 7.9579 1.3763.66316 1.3763-4.6421 2.7526 9.2842 1.3763-1.9895 1.3763 3.9789 1.3763-5.3053 1.3763-.66316 1.3763-5.3053 1.3763-6.6316 1.3763 1.3263 1.3763 6.6316 1.3763-3.9789 1.3763-5.9684 1.3763 2.6526 1.3763-8.6211 1.3763 4.6421 1.3763-1.3263 1.3763-.66316 1.3763 6.6316h1.3763l1.3763-6.6316 1.3763.66316 1.3763 1.3263 1.3763-4.6421" stroke="#008fd5" stroke-width="1.5"/><path clip-path="url(#a)" d="m80.755 307.8 1.3763-26.526 1.3763-99.474 1.3763 33.158 1.3763-53.053h1.3763l1.3763 26.526 1.3763-39.789 1.3763 33.158 1.3763-53.053h1.3763l1.3763 6.6316 1.3763 13.263 1.3763-6.6316 1.3763-13.263 1.3763-6.6316 1.3763 13.263 1.3763 99.474 1.3763-59.684 1.3763 6.6316 1.3763 46.421 1.3763-46.421 1.3763 26.526 1.3763 19.895 1.3763-39.789 1.3763 19.895 1.3763-59.684h1.3763l1.3763 99.474 1.3763-79.579 1.3763 39.789 1.3763-79.579 1.3763 92.842 1.3763-33.158 1.3763-39.789 1.3763 13.263 1.3763 59.684 1.3763-66.316 1.3763 39.789 1.3763-86.211 1.3763 99.474 1.3763-53.053 1.3763 26.526 1.3763 39.789 1.3763 13.263 1.3763-33.158 1.3763-13.263 2.7526-66.316 1.3763 26.526 1.3763 86.211 1.3763-66.316 2.7526 26.526 1.3763 6.6316 1.3763 66.316 1.3763-132.63 1.3763 66.316 1.3763-46.421 1.3763 26.526 1.3763-39.789 1.3763 26.526 1.3763-19.895 1.3763-6.6316 1.3763-19.895 1.3763 39.789 1.3763 26.526 1.3763-33.158 2.7526 53.053 1.3763 6.6316 1.3763-72.947 1.3763 39.789h1.3763l1.3763-33.158 1.3763 19.895 1.3763 66.316 1.3763-39.789 1.3763-59.684 1.3763 13.263 1.3763 6.6316 1.3763-19.895 1.3763 13.263 1.3763-19.895 1.3763 92.842 1.3763 19.895 1.3763-72.947 1.3763-39.789 1.3763 39.789h1.3763l1.3763-53.053 1.3763 53.053 1.3763 13.263 1.3763-6.6316 1.3763-53.053 1.3763-6.6316 1.3763 39.789 1.3763-39.789 1.3763 53.053h1.3763l1.3763-53.053 1.3763 112.74 1.3763-59.684 1.3763 19.895h1.3763l1.3763-13.263 1.3763 13.263 2.7526-53.053 1.3763-13.263 1.3763-53.053 1.3763 106.11 1.3763 13.263 1.3763-19.895 1.3763-39.789 2.7526 26.526 1.3763-6.6316 1.3763-26.526 1.3763 39.789 1.3763-13.263 1.3763 46.421 1.3763-59.684 1.3763-13.263 1.3763-6.6316 1.3763 59.684 1.3763-46.421 1.3763 33.158 1.3763-66.316 1.3763 66.316 1.3763 33.158 1.3763-33.158 1.3763-53.053 1.3763-33.158 1.3763 39.789 1.3763-13.263 1.3763 26.526 1.3763-26.526 1.3763 39.789 1.3763 33.158 1.3763-112.74 1.3763 46.421 1.3763 33.158 1.3763 26.526 1.3763-13.263 1.3763-39.789 1.3763 26.526 1.3763 33.158 1.3763-66.316 1.3763 46.421h1.3763l1.3763 13.263 1.3763-26.526 1.3763 59.684 1.3763-33.158 1.3763-46.421 1.3763 33.158 1.3763-19.895h1.3763l1.3763 99.474 1.3763-106.11 1.3763 26.526 1.3763 13.263h1.3763l1.3763-19.895 1.3763-13.263 1.3763 39.789h1.3763l1.3763-6.6316 1.3763-33.158 1.3763-13.263 1.3763-19.895 1.3763 72.947 1.3763-6.6316 1.3763 6.6316 1.3763-19.895 1.3763 6.6316 1.3763 13.263 1.3763 26.526 1.3763-53.053 1.3763 13.263 1.3763-13.263 1.3763 13.263 1.3763-99.474 1.3763 66.316 1.3763-13.263 2.7526 92.842 1.3763-53.053 1.3763-33.158 1.3763 6.6316 1.3763-19.895 1.3763 39.789 1.3763 6.6316 1.3763-79.579 1.3763-6.6316 1.3763 79.579 1.3763-33.158 1.3763 72.947 1.3763-13.263 1.3763-66.316 1.3763 59.684h1.3763l1.3763-13.263 1.3763 13.263 1.3763-33.158 1.3763 92.842 1.3763-106.11h1.3763l2.7526 13.263 1.3763-46.421 1.3763 39.789 1.3763-66.316 1.3763 86.211 1.3763 33.158 1.3763-33.158 1.3763-66.316 1.3763 26.526 1.3763 39.789h1.3763l1.3763-46.421h1.3763l1.3763 26.526 1.3763 6.6316 1.3763 13.263 1.3763-72.947 1.3763 46.421 1.3763-13.263 1.3763-6.6316 1.3763 19.895 1.3763 6.6316 1.3763 13.263 1.3763 26.526 1.3763-26.526 1.3763-39.789 1.3763 19.895 1.3763 46.421 1.3763-79.579 1.3763 53.053 1.3763-72.947 1.3763 53.053 1.3763-33.158 1.3763 13.263 1.3763 53.053 1.3763 13.263 1.3763-86.211 1.3763 26.526 1.3763 6.6316 1.3763-59.684" opacity=".5" stroke="#008fd5"/><path clip-path="url(#a)" d="m80.755 211.06 1.3763 8.7039 1.3763-1.1605 1.3763 5.8026 1.3763 9.2842h1.3763l1.3763-9.2842 1.3763-5.8026 1.3763 1.1605 1.3763-8.7039 1.3763-3.4816 1.3763-5.2224 1.3763 2.9013 1.3763 3.4816 1.3763 2.9013 1.3763-4.0618 1.3763 8.1237 1.3763 6.3829 1.3763-2.3211 1.3763 6.9632 1.3763.58026 1.3763-.58026 2.7526-11.605 1.3763-1.7408 1.3763 1.7408 1.3763 1.1605 1.3763-11.025 1.3763 4.6421 1.3763-6.9632 1.3763-5.8026 1.3763-3.4816 1.3763-2.9013 1.3763-4.0618 1.3763-.58026 1.3763 1.1605 1.3763-4.0618 1.3763 11.025 1.3763-3.4816 2.7526 9.2842 1.3763 5.2224 1.3763 4.0618 1.3763-1.7408 1.3763 2.9013 1.3763-2.3211 1.3763 4.0618 1.3763 2.9013 1.3763.58026 1.3763-7.5434 1.3763 2.9013 1.3763-7.5434 1.3763 5.8026 1.3763 4.6421 1.3763 1.1605 1.3763 2.9013 1.3763 8.1237 1.3763-4.6421 1.3763 4.6421 1.3763 9.2842 1.3763-5.2224 1.3763 1.1605 1.3763-2.3211 1.3763 5.2224 1.3763-5.8026 1.3763-5.2224 1.3763-6.3829 1.3763-4.6421 1.3763.58026 1.3763-1.7408 1.3763 3.4816 1.3763 5.2224 1.3763-5.8026 1.3763-9.2842 1.3763 6.9632 1.3763-.58026 1.3763-2.3211 1.3763 2.3211 1.3763-4.6421 1.3763-.58026 1.3763 2.9013 1.3763-2.9013 1.3763 5.8026 1.3763 11.025 1.3763-1.1605 1.3763 5.2224 1.3763 1.1605 1.3763 4.6421 1.3763 2.9013 1.3763 6.9632 1.3763-3.4816 2.7526 15.667 1.3763-8.1237 1.3763-4.0618 1.3763-8.1237 1.3763-2.3211 1.3763 2.9013 1.3763-4.0618 1.3763-8.7039 1.3763 7.5434 1.3763-9.8645 1.3763-6.3829 1.3763 4.0618 1.3763 6.9632 1.3763 4.6421 1.3763 1.7408 1.3763-4.0618 1.3763 2.9013 1.3763 2.3211 1.3763-7.5434 1.3763 6.3829 1.3763-8.7039 1.3763-4.0618 1.3763-2.3211 1.3763 4.6421 1.3763 5.8026h1.3763l1.3763 4.0618 2.7526 6.9632 1.3763-2.3211 1.3763 9.2842 1.3763.58026 1.3763-5.2224 1.3763-1.1605 1.3763-3.4816 1.3763-2.9013 1.3763-4.0618 1.3763-1.7408 1.3763-8.7039 1.3763 2.9013 1.3763-2.9013 1.3763-.58026 1.3763 6.3829 1.3763-1.7408 1.3763.58026 1.3763 4.0618 1.3763 2.3211 1.3763-.58026 1.3763 9.8645 1.3763.58026 1.3763 8.1237 1.3763 9.2842 1.3763-1.7408 1.3763-.58026 1.3763 5.8026 1.3763-2.9013 1.3763-7.5434 1.3763-2.3211 1.3763-4.6421 1.3763-10.445 1.3763-4.0618 1.3763-.58026 1.3763 2.9013 1.3763-4.0618 1.3763-.58026 1.3763-1.7408 1.3763 8.7039 1.3763-1.1605 1.3763-1.7408 1.3763 7.5434 1.3763 6.3829 1.3763-6.9632h1.3763l1.3763-.58026 1.3763-6.9632 1.3763 1.1605 1.3763-10.445 1.3763 3.4816 1.3763 1.7408 1.3763-2.9013 1.3763-5.8026 1.3763-6.9632 1.3763-5.8026 1.3763 3.4816 1.3763.58026 1.3763 1.7408 1.3763 5.2224 1.3763-5.2224 1.3763-2.9013 1.3763 2.3211 1.3763-3.4816 1.3763 5.2224 1.3763 3.4816 1.3763 6.9632h1.3763l1.3763-3.4816 1.3763 6.9632 1.3763-4.6421 1.3763-1.7408 1.3763-3.4816 1.3763-5.8026 1.3763-.58026h1.3763l1.3763 2.9013 1.3763 1.7408h1.3763l1.3763-13.926 1.3763-.58026 1.3763 4.6421 1.3763.58026 2.7526 14.507 1.3763-3.4816 1.3763-6.3829h1.3763l1.3763 10.445 1.3763 6.9632 1.3763 5.2224 1.3763 6.9632 1.3763 5.2224 1.3763 3.4816 1.3763-1.7408 1.3763 1.7408 1.3763-2.3211 1.3763-5.2224 1.3763-12.186 1.3763-.58026 1.3763-4.0618 1.3763-2.9013 1.3763-11.025 1.3763-8.1237 1.3763-4.6421 1.3763-6.9632 1.3763-1.1605 1.3763 5.8026 1.3763 2.9013 1.3763 5.2224 1.3763 7.5434 1.3763-2.9013 1.3763 6.9632 1.3763 8.7039 1.3763.58026 1.3763 1.7408 1.3763 2.9013 1.3763-1.7408 1.3763.58026 1.3763 3.4816 1.3763-1.7408 1.3763-8.1237 1.3763-.58026 1.3763-9.2842 1.3763 1.1605 1.3763.58026 1.3763 3.4816 1.3763 5.2224 1.3763-.58026 1.3763-6.3829 1.3763 1.7408 1.3763 6.9632 1.3763 1.1605 1.3763 9.8645 1.3763 5.2224h1.3763l1.3763-5.2224 1.3763-9.8645 1.3763-1.1605 1.3763-6.9632" stroke="#fc4f30" stroke-width="1.5"/><path clip-path="url(#a)" d="m80.755 258.06 1.3763 23.211 1.3763-87.039 1.3763 46.421 1.3763-40.618 1.3763 46.421 1.3763-139.26 1.3763 75.434 1.3763 23.211 1.3763-11.605 1.3763 29.013 1.3763 5.8026 1.3763-5.8026 1.3763 52.224 1.3763-46.421 1.3763-23.211 1.3763-17.408 1.3763 58.026 1.3763-63.829 1.3763 81.237 1.3763-34.816 1.3763-5.8026 1.3763-58.026 1.3763 52.224 1.3763-5.8026 1.3763 11.605 1.3763-23.211 1.3763-63.829 1.3763 92.842 1.3763-34.816 1.3763-23.211 1.3763 17.408 1.3763-52.224 1.3763 40.618 2.7526 58.026 1.3763-75.434 1.3763 87.039 1.3763-52.224 1.3763 46.421 1.3763-23.211 1.3763 23.211 1.3763-63.829 1.3763-17.408 1.3763 75.434 1.3763-23.211 1.3763-11.605 1.3763 75.434 1.3763-75.434 1.3763-34.816 1.3763 81.237 1.3763-81.237 1.3763 69.632 1.3763-29.013 1.3763 40.618 1.3763-5.8026 1.3763 40.618 1.3763-52.224 1.3763 17.408 1.3763 11.605 1.3763-63.829 1.3763-17.408 1.3763 34.816 1.3763 46.421 1.3763-69.632h1.3763l1.3763 29.013 1.3763-34.816 1.3763 69.632 2.7526-23.211h1.3763l1.3763-75.434 1.3763 11.605 1.3763 92.842 1.3763-75.434 2.7526 23.211h1.3763l1.3763 29.013 1.3763 23.211 1.3763-58.026 1.3763 11.605 1.3763 63.829 1.3763-29.013 1.3763-11.605 1.3763-29.013 1.3763 46.421 1.3763-17.408 1.3763 69.632 1.3763-81.237 1.3763 58.026 1.3763 5.8026 1.3763-92.842 1.3763 11.605 1.3763-52.224 1.3763 29.013 1.3763 98.645 1.3763-87.039 1.3763 23.211 1.3763 81.237 1.3763-116.05 1.3763 40.618 1.3763 11.605 1.3763 40.618 1.3763-75.434h1.3763l1.3763 40.618 1.3763-17.408 1.3763 17.408 1.3763-17.408 1.3763 23.211 1.3763-110.25 2.7526 116.05 1.3763-5.8026 1.3763 11.605 1.3763-17.408 1.3763 23.211 1.3763 11.605 1.3763-17.408 1.3763-34.816 1.3763 5.8026 1.3763-29.013h1.3763l1.3763 34.816 2.7526-23.211 1.3763 11.605 1.3763 34.816 1.3763-87.039 1.3763 81.237 1.3763-52.224 1.3763-5.8026 1.3763 69.632 1.3763-46.421 1.3763 11.605 1.3763 23.211 1.3763-5.8026 1.3763 5.8026 1.3763 17.408 1.3763-11.605 1.3763 23.211 1.3763 5.8026 1.3763-40.618 1.3763-34.816 1.3763 75.434 1.3763-63.829 1.3763-52.224 1.3763 58.026 1.3763-5.8026 1.3763-69.632 1.3763 87.039 1.3763 40.618 1.3763-5.8026 1.3763-104.45 1.3763 110.25 1.3763-75.434 1.3763 52.224 1.3763-40.618 1.3763-11.605 1.3763 23.211 1.3763 75.434 1.3763-92.842 1.3763 63.829 1.3763-110.25 1.3763 46.421 1.3763 5.8026 1.3763-63.829 1.3763 98.645 1.3763-29.013 1.3763-23.211 1.3763 46.421 1.3763-104.45 1.3763 75.434 1.3763-17.408 2.7526 34.816 1.3763-29.013 2.7526-11.605 1.3763 29.013 1.3763-11.605 1.3763-17.408 1.3763 58.026 1.3763 17.408 1.3763-52.224 1.3763-17.408 1.3763 75.434 1.3763-121.86 1.3763 23.211 1.3763 11.605 1.3763-34.816 1.3763 34.816 1.3763 63.829 1.3763 46.421 1.3763-63.829 1.3763-34.816 1.3763-63.829 1.3763 11.605 1.3763 75.434 1.3763-29.013 1.3763 34.816 1.3763 29.013 1.3763-40.618 1.3763 17.408h1.3763l1.3763 69.632 1.3763-98.645 1.3763-5.8026 1.3763 92.842 1.3763-46.421 1.3763 17.408 1.3763-23.211 1.3763-5.8026 1.3763-23.211 1.3763-29.013h1.3763l1.3763 17.408 1.3763-40.618 1.3763 104.45 1.3763-127.66 1.3763 46.421 1.3763 11.605 1.3763-29.013 1.3763 34.816 1.3763 40.618 1.3763-29.013 1.3763 40.618 1.3763-17.408h1.3763l1.3763-29.013 1.3763 63.829 1.3763-69.632 1.3763-17.408 1.3763 46.421 2.7526-11.605 1.3763 69.632 1.3763-69.632 1.3763-63.829 1.3763 46.421 1.3763-23.211 1.3763 34.816 1.3763-23.211 1.3763 75.434 1.3763 11.605 1.3763-63.829 2.7526 23.211" opacity=".5" stroke="#fc4f30"/><path d="m63 320.4v-277.2" stroke="#000" stroke-width=".8"/><path d="m63 320.4h390.6" stroke="#000" stroke-width=".8"/></g><g><path d="m70 80.556h38.348q2 0 2-2v-28.356q0-2-2-2h-38.348q-2 0-2 2v28.356q0 2 2 2z" fill="#fff" opacity=".8" stroke="#ccc"/><path d="m72 56.298h20" fill="none" stroke="#008fd5" stroke-width="1.5"/><path d="m9.8125 72.906h41.891v-8.3125h-32.031v-21.484h28.906v-8.2969h-28.906v-34.812h-9.8594z" transform="matrix(.1 0 0 -.1 100 59.798)"/><path d="m72 70.977h20" fill="none" stroke="#fc4f30" stroke-width="1.5"/><path d="m53.516 70.516v-9.625q-5.6094 2.6875-10.594 4-4.9844 1.3281-9.625 1.3281-8.0469 0-12.422-3.125t-4.375-8.8906q0-4.8438 2.9062-7.3125 2.9062-2.4531 11.016-3.9688l5.9531-1.2188q11.031-2.1094 16.281-7.4062t5.25-14.172q0-10.609-7.1094-16.078-7.0938-5.4688-20.812-5.4688-5.1719 0-11.016 1.1719-5.8281 1.1719-12.078 3.4688v10.156q6-3.3594 11.766-5.0781 5.7656-1.7031 11.328-1.7031 8.4375 0 13.031 3.3125 4.5938 3.3281 4.5938 9.4844 0 5.3594-3.2969 8.3906t-10.812 4.5469l-6.0156 1.1719q-11.031 2.1875-15.969 6.875-4.9219 4.6875-4.9219 13.047 0 9.6719 6.8125 15.234t18.766 5.5625q5.1406 0 10.453-.9375 5.3281-.92188 10.891-2.7656z" transform="matrix(.1 0 0 -.1 100 74.477)"/></g></g></g></svg>
