<?xml version="1.0" encoding="UTF-8"?>
<!DOCTYPE svg  PUBLIC '-//W3C//DTD SVG 1.1//EN'  'http://www.w3.org/Graphics/SVG/1.1/DTD/svg11.dtd'>
<!-- Created with matplotlib (http://matplotlib.org/) -->
<svg width="720pt" height="360pt" version="1.1" viewBox="0 0 720 360" xmlns="http://www.w3.org/2000/svg" xmlns:xlink="http://www.w3.org/1999/xlink">
 <defs>
  <style type="text/css">*{stroke-linecap:butt;stroke-linejoin:round;}</style>
 </defs>
 <g id="figure_1">
  <g id="patch_1">
   <path d="m0 360h720v-360h-720z" fill="#fff"/>
  </g>
  <g id="axes_1">
   <g id="patch_2">
    <path d="m90 320.4h121.3v-277.2h-121.3z" fill="#fff"/>
   </g>
   <g id="matplotlib.axis_1">
    <g id="xtick_1">
     <g id="line2d_1">
      <path d="m127.02 320.4v-277.2" clip-path="url(#ped2945dc8c)" fill="none" stroke="#b0b0b0" stroke-linecap="square" stroke-width=".8"/>
     </g>
     <g id="line2d_2">
      <defs>
       <path id="mc3749681b0" d="m0 0v3.5" stroke="#000" stroke-width=".8"/>
      </defs>
      <use x="127.021457" y="320.4" stroke="#000000" stroke-width=".8" xlink:href="#mc3749681b0"/>
     </g>
     <g id="text_1"><!-- 5 -->
      <defs>
       <path id="DejaVuSans-35" d="m10.797 72.906h38.719v-8.3125h-29.688v-17.859q2.1406 0.73438 4.2812 1.0938 2.1562 0.35938 4.3125 0.35938 12.203 0 19.328-6.6875 7.1406-6.6875 7.1406-18.109 0-11.766-7.3281-18.297-7.3281-6.5156-20.656-6.5156-4.5938 0-9.3594 0.78125-4.75 0.78125-9.8281 2.3438v9.9219q4.3906-2.3906 9.0781-3.5625t9.9062-1.1719q8.4531 0 13.375 4.4375 4.9375 4.4375 4.9375 12.062 0 7.6094-4.9375 12.047-4.9219 4.4531-13.375 4.4531-3.9531 0-7.8906-0.875-3.9219-0.875-8.0156-2.7344z"/>
      </defs>
      <g transform="translate(123.84 335) scale(.1 -.1)">
       <use xlink:href="#DejaVuSans-35"/>
      </g>
     </g>
    </g>
    <g id="xtick_2">
     <g id="line2d_3">
      <path d="m166.41 320.4v-277.2" clip-path="url(#ped2945dc8c)" fill="none" stroke="#b0b0b0" stroke-linecap="square" stroke-width=".8"/>
     </g>
     <g id="line2d_4">
      <use x="166.405985" y="320.4" stroke="#000000" stroke-width=".8" xlink:href="#mc3749681b0"/>
     </g>
     <g id="text_2"><!-- 10 -->
      <defs>
       <path id="DejaVuSans-31" d="m12.406 8.2969h16.109v55.625l-17.531-3.5156v8.9844l17.438 3.5156h9.8594v-64.609h16.109v-8.2969h-41.984z"/>
       <path id="DejaVuSans-30" d="m31.781 66.406q-7.6094 0-11.453-7.5-3.8281-7.4844-3.8281-22.531 0-14.984 3.8281-22.484 3.8438-7.5 11.453-7.5 7.6719 0 11.5 7.5 3.8438 7.5 3.8438 22.484 0 15.047-3.8438 22.531-3.8281 7.5-11.5 7.5zm0 7.8125q12.266 0 18.734-9.7031 6.4688-9.6875 6.4688-28.141 0-18.406-6.4688-28.109-6.4688-9.6875-18.734-9.6875-12.25 0-18.719 9.6875-6.4688 9.7031-6.4688 28.109 0 18.453 6.4688 28.141 6.4688 9.7031 18.719 9.7031z"/>
      </defs>
      <g transform="translate(160.04 335) scale(.1 -.1)">
       <use xlink:href="#DejaVuSans-31"/>
       <use x="63.623047" xlink:href="#DejaVuSans-30"/>
      </g>
     </g>
    </g>
    <g id="xtick_3">
     <g id="line2d_5">
      <path d="m205.79 320.4v-277.2" clip-path="url(#ped2945dc8c)" fill="none" stroke="#b0b0b0" stroke-linecap="square" stroke-width=".8"/>
     </g>
     <g id="line2d_6">
      <use x="205.790514" y="320.4" stroke="#000000" stroke-width=".8" xlink:href="#mc3749681b0"/>
     </g>
     <g id="text_3"><!-- 15 -->
      <g transform="translate(199.43 335) scale(.1 -.1)">
       <use xlink:href="#DejaVuSans-31"/>
       <use x="63.623047" xlink:href="#DejaVuSans-35"/>
      </g>
     </g>
    </g>
    <g id="text_4"><!-- Trial number -->
     <defs>
      <path id="DejaVuSans-54" d="m-0.29688 72.906h61.672v-8.3125h-25.875v-64.594h-9.9062v64.594h-25.891z"/>
      <path id="DejaVuSans-72" d="m41.109 46.297q-1.5156 0.875-3.2969 1.2812-1.7812 0.42188-3.9219 0.42188-7.625 0-11.703-4.9531t-4.0781-14.234v-28.812h-9.0312v54.688h9.0312v-8.5q2.8438 4.9844 7.375 7.3906 4.5469 2.4219 11.047 2.4219 0.92188 0 2.0469-0.125 1.125-0.10938 2.4844-0.35938z"/>
      <path id="DejaVuSans-69" d="m9.4219 54.688h8.9844v-54.688h-8.9844zm0 21.297h8.9844v-11.391h-8.9844z"/>
      <path id="DejaVuSans-61" d="m34.281 27.484q-10.891 0-15.094-2.4844t-4.2031-8.5q0-4.7812 3.1562-7.5938 3.1562-2.7969 8.5625-2.7969 7.4844 0 12 5.2969t4.5156 14.078v2zm17.922 3.7188v-31.203h-8.9844v8.2969q-3.0781-4.9688-7.6719-7.3438t-11.234-2.375q-8.3906 0-13.359 4.7188-4.9531 4.7188-4.9531 12.625 0 9.2188 6.1719 13.906 6.1875 4.6875 18.438 4.6875h12.609v0.89062q0 6.2031-4.0781 9.5938t-11.453 3.3906q-4.6875 0-9.1406-1.125-4.4375-1.125-8.5312-3.375v8.3125q4.9219 1.9062 9.5625 2.8438 4.6406 0.95312 9.0312 0.95312 11.875 0 17.734-6.1562 5.8594-6.1406 5.8594-18.641z"/>
      <path id="DejaVuSans-6c" d="m9.4219 75.984h8.9844v-75.984h-8.9844z"/>
      <path id="DejaVuSans-6e" d="m54.891 33.016v-33.016h-8.9844v32.719q0 7.7656-3.0312 11.609-3.0312 3.8594-9.0781 3.8594-7.2812 0-11.484-4.6406-4.2031-4.625-4.2031-12.641v-30.906h-9.0312v54.688h9.0312v-8.5q3.2344 4.9375 7.5938 7.375 4.375 2.4375 10.094 2.4375 9.4219 0 14.25-5.8281 4.8438-5.8281 4.8438-17.156z"/>
      <path id="DejaVuSans-75" d="m8.5 21.578v33.109h8.9844v-32.766q0-7.7656 3.0156-11.656 3.0312-3.875 9.0938-3.875 7.2656 0 11.484 4.6406 4.2344 4.6406 4.2344 12.656v31h8.9844v-54.688h-8.9844v8.4062q-3.2656-4.9844-7.5938-7.4062-4.3125-2.4219-10.031-2.4219-9.4219 0-14.312 5.8594-4.875 5.8594-4.875 17.141zm22.609 34.422z"/>
      <path id="DejaVuSans-6d" d="m52 44.188q3.375 6.0625 8.0625 8.9375t11.031 2.875q8.5469 0 13.188-5.9844 4.6406-5.9688 4.6406-17v-33.016h-9.0312v32.719q0 7.8594-2.7969 11.656-2.7812 3.8125-8.4844 3.8125-6.9844 0-11.047-4.6406-4.0469-4.625-4.0469-12.641v-30.906h-9.0312v32.719q0 7.9062-2.7812 11.688t-8.5938 3.7812q-6.8906 0-10.953-4.6562-4.0469-4.6562-4.0469-12.625v-30.906h-9.0312v54.688h9.0312v-8.5q3.0781 5.0312 7.375 7.4219t10.203 2.3906q5.9688 0 10.141-3.0312 4.1719-3.0156 6.1719-8.7812z"/>
      <path id="DejaVuSans-62" d="m48.688 27.297q0 9.9062-4.0781 15.547t-11.203 5.6406q-7.1406 0-11.219-5.6406t-4.0781-15.547 4.0781-15.547 11.219-5.6406q7.125 0 11.203 5.6406t4.0781 15.547zm-30.578 19.094q2.8438 4.875 7.1562 7.2344 4.3281 2.375 10.328 2.375 9.9688 0 16.188-7.9062 6.2344-7.9062 6.2344-20.797t-6.2344-20.812q-6.2188-7.9062-16.188-7.9062-6 0-10.328 2.375-4.3125 2.375-7.1562 7.25v-8.2031h-9.0312v75.984h9.0312z"/>
      <path id="DejaVuSans-65" d="m56.203 29.594v-4.3906h-41.312q0.59375-9.2812 5.5938-14.141t13.938-4.8594q5.1719 0 10.031 1.2656t9.6562 3.8125v-8.5q-4.8438-2.0469-9.9219-3.125t-10.297-1.0781q-13.094 0-20.734 7.6094-7.6406 7.625-7.6406 20.625 0 13.422 7.25 21.297 7.25 7.8906 19.562 7.8906 11.031 0 17.453-7.1094 6.4219-7.0938 6.4219-19.297zm-8.9844 2.6406q-0.09375 7.3594-4.125 11.75-4.0312 4.4062-10.672 4.4062-7.5156 0-12.031-4.25t-5.2031-11.969z"/>
     </defs>
     <g transform="translate(118.61 348.68) scale(.1 -.1)">
      <use xlink:href="#DejaVuSans-54"/>
      <use x="60.865234" xlink:href="#DejaVuSans-72"/>
      <use x="101.978516" xlink:href="#DejaVuSans-69"/>
      <use x="129.761719" xlink:href="#DejaVuSans-61"/>
      <use x="191.041016" xlink:href="#DejaVuSans-6c"/>
      <use x="218.824219" xlink:href="#DejaVuSans-20"/>
      <use x="250.611328" xlink:href="#DejaVuSans-6e"/>
      <use x="313.990234" xlink:href="#DejaVuSans-75"/>
      <use x="377.369141" xlink:href="#DejaVuSans-6d"/>
      <use x="474.78125" xlink:href="#DejaVuSans-62"/>
      <use x="538.257812" xlink:href="#DejaVuSans-65"/>
      <use x="599.78125" xlink:href="#DejaVuSans-72"/>
     </g>
    </g>
   </g>
   <g id="matplotlib.axis_2">
    <g id="ytick_1">
     <g id="line2d_7">
      <path d="m90 295.2h121.3" clip-path="url(#ped2945dc8c)" fill="none" stroke="#b0b0b0" stroke-linecap="square" stroke-width=".8"/>
     </g>
     <g id="line2d_8">
      <defs>
       <path id="m5452d75826" d="m0 0h-3.5" stroke="#000" stroke-width=".8"/>
      </defs>
      <use x="90" y="295.2" stroke="#000000" stroke-width=".8" xlink:href="#m5452d75826"/>
     </g>
     <g id="text_5"><!-- 0.4 -->
      <defs>
       <path id="DejaVuSans-2e" d="m10.688 12.406h10.312v-12.406h-10.312z"/>
       <path id="DejaVuSans-34" d="m37.797 64.312-24.906-38.922h24.906zm-2.5938 8.5938h12.406v-47.516h10.406v-8.2031h-10.406v-17.188h-9.8125v17.188h-32.906v9.5156z"/>
      </defs>
      <g transform="translate(67.097 299) scale(.1 -.1)">
       <use xlink:href="#DejaVuSans-30"/>
       <use x="63.623047" xlink:href="#DejaVuSans-2e"/>
       <use x="95.410156" xlink:href="#DejaVuSans-34"/>
      </g>
     </g>
    </g>
    <g id="ytick_2">
     <g id="line2d_9">
      <path d="m90 244.8h121.3" clip-path="url(#ped2945dc8c)" fill="none" stroke="#b0b0b0" stroke-linecap="square" stroke-width=".8"/>
     </g>
     <g id="line2d_10">
      <use x="90" y="244.8" stroke="#000000" stroke-width=".8" xlink:href="#m5452d75826"/>
     </g>
     <g id="text_6"><!-- 0.5 -->
      <g transform="translate(67.097 248.6) scale(.1 -.1)">
       <use xlink:href="#DejaVuSans-30"/>
       <use x="63.623047" xlink:href="#DejaVuSans-2e"/>
       <use x="95.410156" xlink:href="#DejaVuSans-35"/>
      </g>
     </g>
    </g>
    <g id="ytick_3">
     <g id="line2d_11">
      <path d="m90 194.4h121.3" clip-path="url(#ped2945dc8c)" fill="none" stroke="#b0b0b0" stroke-linecap="square" stroke-width=".8"/>
     </g>
     <g id="line2d_12">
      <use x="90" y="194.4" stroke="#000000" stroke-width=".8" xlink:href="#m5452d75826"/>
     </g>
     <g id="text_7"><!-- 0.6 -->
      <defs>
       <path id="DejaVuSans-36" d="m33.016 40.375q-6.6406 0-10.531-4.5469-3.875-4.5312-3.875-12.438 0-7.8594 3.875-12.438 3.8906-4.5625 10.531-4.5625t10.516 4.5625q3.875 4.5781 3.875 12.438 0 7.9062-3.875 12.438-3.875 4.5469-10.516 4.5469zm19.578 30.922v-8.9844q-3.7188 1.75-7.5 2.6719-3.7812 0.9375-7.5 0.9375-9.7656 0-14.922-6.5938-5.1406-6.5938-5.875-19.922 2.875 4.25 7.2188 6.5156 4.3594 2.2656 9.5781 2.2656 10.984 0 17.359-6.6719 6.375-6.6562 6.375-18.125 0-11.234-6.6406-18.031-6.6406-6.7812-17.672-6.7812-12.656 0-19.344 9.6875-6.6875 9.7031-6.6875 28.109 0 17.281 8.2031 27.562t22.016 10.281q3.7188 0 7.5-0.73438t7.8906-2.1875z"/>
      </defs>
      <g transform="translate(67.097 198.2) scale(.1 -.1)">
       <use xlink:href="#DejaVuSans-30"/>
       <use x="63.623047" xlink:href="#DejaVuSans-2e"/>
       <use x="95.410156" xlink:href="#DejaVuSans-36"/>
      </g>
     </g>
    </g>
    <g id="ytick_4">
     <g id="line2d_13">
      <path d="m90 144h121.3" clip-path="url(#ped2945dc8c)" fill="none" stroke="#b0b0b0" stroke-linecap="square" stroke-width=".8"/>
     </g>
     <g id="line2d_14">
      <use x="90" y="144" stroke="#000000" stroke-width=".8" xlink:href="#m5452d75826"/>
     </g>
     <g id="text_8"><!-- 0.7 -->
      <defs>
       <path id="DejaVuSans-37" d="m8.2031 72.906h46.875v-4.2031l-26.469-68.703h-10.297l24.906 64.594h-35.016z"/>
      </defs>
      <g transform="translate(67.097 147.8) scale(.1 -.1)">
       <use xlink:href="#DejaVuSans-30"/>
       <use x="63.623047" xlink:href="#DejaVuSans-2e"/>
       <use x="95.410156" xlink:href="#DejaVuSans-37"/>
      </g>
     </g>
    </g>
    <g id="ytick_5">
     <g id="line2d_15">
      <path d="m90 93.6h121.3" clip-path="url(#ped2945dc8c)" fill="none" stroke="#b0b0b0" stroke-linecap="square" stroke-width=".8"/>
     </g>
     <g id="line2d_16">
      <use x="90" y="93.6" stroke="#000000" stroke-width=".8" xlink:href="#m5452d75826"/>
     </g>
     <g id="text_9"><!-- 0.8 -->
      <defs>
       <path id="DejaVuSans-38" d="m31.781 34.625q-7.0312 0-11.062-3.7656-4.0156-3.7656-4.0156-10.344 0-6.5938 4.0156-10.359 4.0312-3.7656 11.062-3.7656t11.078 3.7812q4.0625 3.7969 4.0625 10.344 0 6.5781-4.0312 10.344-4.0156 3.7656-11.109 3.7656zm-9.8594 4.1875q-6.3438 1.5625-9.8906 5.9062-3.5312 4.3594-3.5312 10.609 0 8.7344 6.2188 13.812 6.2344 5.0781 17.062 5.0781 10.891 0 17.094-5.0781t6.2031-13.812q0-6.25-3.5469-10.609-3.5312-4.3438-9.8281-5.9062 7.125-1.6562 11.094-6.5 3.9844-4.8281 3.9844-11.797 0-10.609-6.4688-16.281-6.4688-5.6562-18.531-5.6562-12.047 0-18.531 5.6562-6.4688 5.6719-6.4688 16.281 0 6.9688 4 11.797 4.0156 4.8438 11.141 6.5zm-3.6094 15.578q0-5.6562 3.5312-8.8281 3.5469-3.1719 9.9375-3.1719 6.3594 0 9.9375 3.1719 3.5938 3.1719 3.5938 8.8281 0 5.6719-3.5938 8.8438-3.5781 3.1719-9.9375 3.1719-6.3906 0-9.9375-3.1719-3.5312-3.1719-3.5312-8.8438z"/>
      </defs>
      <g transform="translate(67.097 97.399) scale(.1 -.1)">
       <use xlink:href="#DejaVuSans-30"/>
       <use x="63.623047" xlink:href="#DejaVuSans-2e"/>
       <use x="95.410156" xlink:href="#DejaVuSans-38"/>
      </g>
     </g>
    </g>
    <g id="ytick_6">
     <g id="line2d_17">
      <path d="m90 43.2h121.3" clip-path="url(#ped2945dc8c)" fill="none" stroke="#b0b0b0" stroke-linecap="square" stroke-width=".8"/>
     </g>
     <g id="line2d_18">
      <use x="90" y="43.2" stroke="#000000" stroke-width=".8" xlink:href="#m5452d75826"/>
     </g>
     <g id="text_10"><!-- 0.9 -->
      <defs>
       <path id="DejaVuSans-39" d="m10.984 1.5156v8.9844q3.7188-1.7656 7.5156-2.6875 3.8125-0.92188 7.4844-0.92188 9.7656 0 14.906 6.5625 5.1562 6.5625 5.8906 19.953-2.8281-4.2031-7.1875-6.4531-4.3438-2.25-9.6094-2.25-10.938 0-17.312 6.6094-6.375 6.625-6.375 18.109 0 11.219 6.6406 18 6.6406 6.7969 17.672 6.7969 12.656 0 19.312-9.7031 6.6719-9.6875 6.6719-28.141 0-17.234-8.1875-27.516-8.1719-10.281-21.984-10.281-3.7188 0-7.5312 0.73438-3.7969 0.73438-7.9062 2.2031zm19.625 30.906q6.6406 0 10.516 4.5312 3.8906 4.5469 3.8906 12.469 0 7.8594-3.8906 12.422-3.875 4.5625-10.516 4.5625t-10.516-4.5625-3.875-12.422q0-7.9219 3.875-12.469 3.875-4.5312 10.516-4.5312z"/>
      </defs>
      <g transform="translate(67.097 46.999) scale(.1 -.1)">
       <use xlink:href="#DejaVuSans-30"/>
       <use x="63.623047" xlink:href="#DejaVuSans-2e"/>
       <use x="95.410156" xlink:href="#DejaVuSans-39"/>
      </g>
     </g>
    </g>
    <g id="text_11"><!-- PC -->
     <defs>
      <path id="DejaVuSans-50" d="m19.672 64.797v-27.391h12.406q6.8906 0 10.641 3.5625 3.7656 3.5625 3.7656 10.156 0 6.5469-3.7656 10.109-3.75 3.5625-10.641 3.5625zm-9.8594 8.1094h22.266q12.266 0 18.531-5.5469 6.2812-5.5469 6.2812-16.234 0-10.797-6.2812-16.312-6.2656-5.5156-18.531-5.5156h-12.406v-29.297h-9.8594z"/>
      <path id="DejaVuSans-43" d="m64.406 67.281v-10.391q-4.9844 4.6406-10.625 6.9219-5.6406 2.2969-11.984 2.2969-12.5 0-19.141-7.6406t-6.6406-22.094q0-14.406 6.6406-22.047t19.141-7.6406q6.3438 0 11.984 2.2969t10.625 6.9375v-10.312q-5.1719-3.5156-10.969-5.2812-5.7812-1.75-12.219-1.75-16.562 0-26.094 10.125-9.5156 10.141-9.5156 27.672 0 17.578 9.5156 27.703 9.5312 10.141 26.094 10.141 6.5312 0 12.312-1.7344 5.7969-1.7344 10.875-5.2031z"/>
     </defs>
     <g transform="translate(61.017 188.31) rotate(-90) scale(.1 -.1)">
      <use xlink:href="#DejaVuSans-50"/>
      <use x="60.302734" xlink:href="#DejaVuSans-43"/>
     </g>
    </g>
   </g>
   <g id="line2d_19">
    <path d="m95.514 264.44 7.8769-32.727 7.8769-68.727 7.8769-16.364 7.8769-22.909 7.8769 9.8182 7.8769-3.2727 7.8769-55.636 7.8769 65.455 7.8769-39.273 7.8769-22.909 7.8769 16.364 7.8769-3.2727 7.8769-6.5455 7.8769-3.2727" clip-path="url(#ped2945dc8c)" fill="none" opacity=".9" stroke="#008fd5" stroke-linecap="square" stroke-width="2"/>
   </g>
   <g id="line2d_20">
    <path d="m95.514 236.21 7.8769-28.636 7.8769-31.5 7.8769-8.5909 7.8769-42.955 7.8769-5.7273 7.8769 25.773 7.8769-45.818 7.8769 31.5 7.8769-11.455 7.8769-8.5909 7.8769-37.227 7.8769 25.773 7.8769-20.045 7.8769 2.8636" clip-path="url(#ped2945dc8c)" fill="none" opacity=".9" stroke="#fc4f30" stroke-linecap="square" stroke-width="2"/>
   </g>
   <g id="patch_3">
    <path d="m90 320.4v-277.2" fill="none" stroke="#000" stroke-linecap="square" stroke-width=".8"/>
   </g>
   <g id="patch_4">
    <path d="m90 320.4h121.3" fill="none" stroke="#000" stroke-linecap="square" stroke-width=".8"/>
   </g>
   <g id="text_12"><!-- 1D -->
    <defs>
     <path id="DejaVuSans-44" d="m19.672 64.797v-56.688h11.922q15.094 0 22.094 6.8281 7 6.8438 7 21.594 0 14.641-7 21.453t-22.094 6.8125zm-9.8594 8.1094h20.266q21.188 0 31.094-8.8125 9.9219-8.8125 9.9219-27.562 0-18.859-9.9688-27.703-9.9531-8.8281-31.047-8.8281h-20.266z"/>
    </defs>
    <g transform="translate(142.21 37.2) scale(.12 -.12)">
     <use xlink:href="#DejaVuSans-31"/>
     <use x="63.623047" xlink:href="#DejaVuSans-44"/>
    </g>
   </g>
   <g id="legend_1">
    <g id="patch_5">
     <path d="m97 80.556h38.348q2 0 2-2v-28.356q0-2-2-2h-38.348q-2 0-2 2v28.356q0 2 2 2z" fill="#fff" opacity=".8" stroke="#ccc"/>
    </g>
    <g id="line2d_21">
     <path d="m99 56.298h20" fill="none" opacity=".9" stroke="#008fd5" stroke-linecap="square" stroke-width="2"/>
    </g>
    <g id="text_13"><!-- F -->
     <defs>
      <path id="DejaVuSans-46" d="m9.8125 72.906h41.891v-8.3125h-32.031v-21.484h28.906v-8.2969h-28.906v-34.812h-9.8594z"/>
     </defs>
     <g transform="translate(127 59.798) scale(.1 -.1)">
      <use xlink:href="#DejaVuSans-46"/>
     </g>
    </g>
    <g id="line2d_23">
     <path d="m99 70.977h20" fill="none" opacity=".9" stroke="#fc4f30" stroke-linecap="square" stroke-width="2"/>
    </g>
    <g id="text_14"><!-- S -->
     <defs>
      <path id="DejaVuSans-53" d="m53.516 70.516v-9.625q-5.6094 2.6875-10.594 4-4.9844 1.3281-9.625 1.3281-8.0469 0-12.422-3.125t-4.375-8.8906q0-4.8438 2.9062-7.3125 2.9062-2.4531 11.016-3.9688l5.9531-1.2188q11.031-2.1094 16.281-7.4062t5.25-14.172q0-10.609-7.1094-16.078-7.0938-5.4688-20.812-5.4688-5.1719 0-11.016 1.1719-5.8281 1.1719-12.078 3.4688v10.156q6-3.3594 11.766-5.0781 5.7656-1.7031 11.328-1.7031 8.4375 0 13.031 3.3125 4.5938 3.3281 4.5938 9.4844 0 5.3594-3.2969 8.3906t-10.812 4.5469l-6.0156 1.1719q-11.031 2.1875-15.969 6.875-4.9219 4.6875-4.9219 13.047 0 9.6719 6.8125 15.234t18.766 5.5625q5.1406 0 10.453-0.9375 5.3281-0.92188 10.891-2.7656z"/>
     </defs>
     <g transform="translate(127 74.477) scale(.1 -.1)">
      <use xlink:href="#DejaVuSans-53"/>
     </g>
    </g>
   </g>
  </g>
  <g id="axes_2">
   <g id="patch_6">
    <path d="m235.57 320.4h121.3v-277.2h-121.3z" fill="#fff"/>
   </g>
   <g id="matplotlib.axis_3">
    <g id="xtick_4">
     <g id="line2d_25">
      <path d="m272.59 320.4v-277.2" clip-path="url(#p156bc795dc)" fill="none" stroke="#b0b0b0" stroke-linecap="square" stroke-width=".8"/>
     </g>
     <g id="line2d_26">
      <use x="272.586674" y="320.4" stroke="#000000" stroke-width=".8" xlink:href="#mc3749681b0"/>
     </g>
     <g id="text_15"><!-- 5 -->
      <g transform="translate(269.41 335) scale(.1 -.1)">
       <use xlink:href="#DejaVuSans-35"/>
      </g>
     </g>
    </g>
    <g id="xtick_5">
     <g id="line2d_27">
      <path d="m311.97 320.4v-277.2" clip-path="url(#p156bc795dc)" fill="none" stroke="#b0b0b0" stroke-linecap="square" stroke-width=".8"/>
     </g>
     <g id="line2d_28">
      <use x="311.971203" y="320.4" stroke="#000000" stroke-width=".8" xlink:href="#mc3749681b0"/>
     </g>
     <g id="text_16"><!-- 10 -->
      <g transform="translate(305.61 335) scale(.1 -.1)">
       <use xlink:href="#DejaVuSans-31"/>
       <use x="63.623047" xlink:href="#DejaVuSans-30"/>
      </g>
     </g>
    </g>
    <g id="xtick_6">
     <g id="line2d_29">
      <path d="m351.36 320.4v-277.2" clip-path="url(#p156bc795dc)" fill="none" stroke="#b0b0b0" stroke-linecap="square" stroke-width=".8"/>
     </g>
     <g id="line2d_30">
      <use x="351.355731" y="320.4" stroke="#000000" stroke-width=".8" xlink:href="#mc3749681b0"/>
     </g>
     <g id="text_17"><!-- 15 -->
      <g transform="translate(344.99 335) scale(.1 -.1)">
       <use xlink:href="#DejaVuSans-31"/>
       <use x="63.623047" xlink:href="#DejaVuSans-35"/>
      </g>
     </g>
    </g>
    <g id="text_18"><!-- Trial number -->
     <g transform="translate(264.17 348.68) scale(.1 -.1)">
      <use xlink:href="#DejaVuSans-54"/>
      <use x="60.865234" xlink:href="#DejaVuSans-72"/>
      <use x="101.978516" xlink:href="#DejaVuSans-69"/>
      <use x="129.761719" xlink:href="#DejaVuSans-61"/>
      <use x="191.041016" xlink:href="#DejaVuSans-6c"/>
      <use x="218.824219" xlink:href="#DejaVuSans-20"/>
      <use x="250.611328" xlink:href="#DejaVuSans-6e"/>
      <use x="313.990234" xlink:href="#DejaVuSans-75"/>
      <use x="377.369141" xlink:href="#DejaVuSans-6d"/>
      <use x="474.78125" xlink:href="#DejaVuSans-62"/>
      <use x="538.257812" xlink:href="#DejaVuSans-65"/>
      <use x="599.78125" xlink:href="#DejaVuSans-72"/>
     </g>
    </g>
   </g>
   <g id="matplotlib.axis_4">
    <g id="ytick_7">
     <g id="line2d_31">
      <path d="m235.57 295.2h121.3" clip-path="url(#p156bc795dc)" fill="none" stroke="#b0b0b0" stroke-linecap="square" stroke-width=".8"/>
     </g>
     <g id="line2d_32">
      <use x="235.565217" y="295.2" stroke="#000000" stroke-width=".8" xlink:href="#m5452d75826"/>
     </g>
     <g id="text_19"><!-- 0.4 -->
      <g transform="translate(212.66 299) scale(.1 -.1)">
       <use xlink:href="#DejaVuSans-30"/>
       <use x="63.623047" xlink:href="#DejaVuSans-2e"/>
       <use x="95.410156" xlink:href="#DejaVuSans-34"/>
      </g>
     </g>
    </g>
    <g id="ytick_8">
     <g id="line2d_33">
      <path d="m235.57 244.8h121.3" clip-path="url(#p156bc795dc)" fill="none" stroke="#b0b0b0" stroke-linecap="square" stroke-width=".8"/>
     </g>
     <g id="line2d_34">
      <use x="235.565217" y="244.8" stroke="#000000" stroke-width=".8" xlink:href="#m5452d75826"/>
     </g>
     <g id="text_20"><!-- 0.5 -->
      <g transform="translate(212.66 248.6) scale(.1 -.1)">
       <use xlink:href="#DejaVuSans-30"/>
       <use x="63.623047" xlink:href="#DejaVuSans-2e"/>
       <use x="95.410156" xlink:href="#DejaVuSans-35"/>
      </g>
     </g>
    </g>
    <g id="ytick_9">
     <g id="line2d_35">
      <path d="m235.57 194.4h121.3" clip-path="url(#p156bc795dc)" fill="none" stroke="#b0b0b0" stroke-linecap="square" stroke-width=".8"/>
     </g>
     <g id="line2d_36">
      <use x="235.565217" y="194.4" stroke="#000000" stroke-width=".8" xlink:href="#m5452d75826"/>
     </g>
     <g id="text_21"><!-- 0.6 -->
      <g transform="translate(212.66 198.2) scale(.1 -.1)">
       <use xlink:href="#DejaVuSans-30"/>
       <use x="63.623047" xlink:href="#DejaVuSans-2e"/>
       <use x="95.410156" xlink:href="#DejaVuSans-36"/>
      </g>
     </g>
    </g>
    <g id="ytick_10">
     <g id="line2d_37">
      <path d="m235.57 144h121.3" clip-path="url(#p156bc795dc)" fill="none" stroke="#b0b0b0" stroke-linecap="square" stroke-width=".8"/>
     </g>
     <g id="line2d_38">
      <use x="235.565217" y="144" stroke="#000000" stroke-width=".8" xlink:href="#m5452d75826"/>
     </g>
     <g id="text_22"><!-- 0.7 -->
      <g transform="translate(212.66 147.8) scale(.1 -.1)">
       <use xlink:href="#DejaVuSans-30"/>
       <use x="63.623047" xlink:href="#DejaVuSans-2e"/>
       <use x="95.410156" xlink:href="#DejaVuSans-37"/>
      </g>
     </g>
    </g>
    <g id="ytick_11">
     <g id="line2d_39">
      <path d="m235.57 93.6h121.3" clip-path="url(#p156bc795dc)" fill="none" stroke="#b0b0b0" stroke-linecap="square" stroke-width=".8"/>
     </g>
     <g id="line2d_40">
      <use x="235.565217" y="93.6" stroke="#000000" stroke-width=".8" xlink:href="#m5452d75826"/>
     </g>
     <g id="text_23"><!-- 0.8 -->
      <g transform="translate(212.66 97.399) scale(.1 -.1)">
       <use xlink:href="#DejaVuSans-30"/>
       <use x="63.623047" xlink:href="#DejaVuSans-2e"/>
       <use x="95.410156" xlink:href="#DejaVuSans-38"/>
      </g>
     </g>
    </g>
    <g id="ytick_12">
     <g id="line2d_41">
      <path d="m235.57 43.2h121.3" clip-path="url(#p156bc795dc)" fill="none" stroke="#b0b0b0" stroke-linecap="square" stroke-width=".8"/>
     </g>
     <g id="line2d_42">
      <use x="235.565217" y="43.2" stroke="#000000" stroke-width=".8" xlink:href="#m5452d75826"/>
     </g>
     <g id="text_24"><!-- 0.9 -->
      <g transform="translate(212.66 46.999) scale(.1 -.1)">
       <use xlink:href="#DejaVuSans-30"/>
       <use x="63.623047" xlink:href="#DejaVuSans-2e"/>
       <use x="95.410156" xlink:href="#DejaVuSans-39"/>
      </g>
     </g>
    </g>
   </g>
   <g id="line2d_43">
    <path d="m241.08 257.89 7.8769-58.909 7.8769-3.2727 7.8769 13.091 7.8769-36 7.8769-6.5455 7.8769 19.636 7.8769-13.091 7.8769-32.727 7.8769 22.909 7.8769-32.727h7.8769l7.8769 19.636 7.8769 9.8182 7.8769-19.636" clip-path="url(#p156bc795dc)" fill="none" opacity=".9" stroke="#008fd5" stroke-linecap="square" stroke-width="2"/>
   </g>
   <g id="line2d_44">
    <path d="m241.08 204.71 7.8769-17.182 7.8769-22.909 7.8769-2.8636 7.8769 14.318 7.8769-25.773 7.8769 11.455 7.8769-8.5909 7.8769-2.8636h7.8769l7.8769 8.5909 7.8769-25.773 7.8769 2.8636 7.8769-5.7273 7.8769-14.318" clip-path="url(#p156bc795dc)" fill="none" opacity=".9" stroke="#fc4f30" stroke-linecap="square" stroke-width="2"/>
   </g>
   <g id="patch_7">
    <path d="m235.57 320.4v-277.2" fill="none" stroke="#000" stroke-linecap="square" stroke-width=".8"/>
   </g>
   <g id="patch_8">
    <path d="m235.57 320.4h121.3" fill="none" stroke="#000" stroke-linecap="square" stroke-width=".8"/>
   </g>
   <g id="text_25"><!-- I1D -->
    <defs>
     <path id="DejaVuSans-49" d="m9.8125 72.906h9.8594v-72.906h-9.8594z"/>
    </defs>
    <g transform="translate(286.01 37.2) scale(.12 -.12)">
     <use xlink:href="#DejaVuSans-49"/>
     <use x="29.492188" xlink:href="#DejaVuSans-31"/>
     <use x="93.115234" xlink:href="#DejaVuSans-44"/>
    </g>
   </g>
   <g id="legend_2">
    <g id="patch_9">
     <path d="m311.52 80.556h38.348q2 0 2-2v-28.356q0-2-2-2h-38.348q-2 0-2 2v28.356q0 2 2 2z" fill="#fff" opacity=".8" stroke="#ccc"/>
    </g>
    <g id="line2d_45">
     <path d="m313.52 56.298h20" fill="none" opacity=".9" stroke="#008fd5" stroke-linecap="square" stroke-width="2"/>
    </g>
    <g id="text_26"><!-- F -->
     <g transform="translate(341.52 59.798) scale(.1 -.1)">
      <use xlink:href="#DejaVuSans-46"/>
     </g>
    </g>
    <g id="line2d_47">
     <path d="m313.52 70.977h20" fill="none" opacity=".9" stroke="#fc4f30" stroke-linecap="square" stroke-width="2"/>
    </g>
    <g id="text_27"><!-- S -->
     <g transform="translate(341.52 74.477) scale(.1 -.1)">
      <use xlink:href="#DejaVuSans-53"/>
     </g>
    </g>
   </g>
  </g>
  <g id="axes_3">
   <g id="patch_10">
    <path d="m381.13 320.4h121.3v-277.2h-121.3z" fill="#fff"/>
   </g>
   <g id="matplotlib.axis_5">
    <g id="xtick_7">
     <g id="line2d_49">
      <path d="m418.15 320.4v-277.2" clip-path="url(#pc12a9d8929)" fill="none" stroke="#b0b0b0" stroke-linecap="square" stroke-width=".8"/>
     </g>
     <g id="line2d_50">
      <use x="418.151892" y="320.4" stroke="#000000" stroke-width=".8" xlink:href="#mc3749681b0"/>
     </g>
     <g id="text_28"><!-- 5 -->
      <g transform="translate(414.97 335) scale(.1 -.1)">
       <use xlink:href="#DejaVuSans-35"/>
      </g>
     </g>
    </g>
    <g id="xtick_8">
     <g id="line2d_51">
      <path d="m457.54 320.4v-277.2" clip-path="url(#pc12a9d8929)" fill="none" stroke="#b0b0b0" stroke-linecap="square" stroke-width=".8"/>
     </g>
     <g id="line2d_52">
      <use x="457.53642" y="320.4" stroke="#000000" stroke-width=".8" xlink:href="#mc3749681b0"/>
     </g>
     <g id="text_29"><!-- 10 -->
      <g transform="translate(451.17 335) scale(.1 -.1)">
       <use xlink:href="#DejaVuSans-31"/>
       <use x="63.623047" xlink:href="#DejaVuSans-30"/>
      </g>
     </g>
    </g>
    <g id="xtick_9">
     <g id="line2d_53">
      <path d="m496.92 320.4v-277.2" clip-path="url(#pc12a9d8929)" fill="none" stroke="#b0b0b0" stroke-linecap="square" stroke-width=".8"/>
     </g>
     <g id="line2d_54">
      <use x="496.920949" y="320.4" stroke="#000000" stroke-width=".8" xlink:href="#mc3749681b0"/>
     </g>
     <g id="text_30"><!-- 15 -->
      <g transform="translate(490.56 335) scale(.1 -.1)">
       <use xlink:href="#DejaVuSans-31"/>
       <use x="63.623047" xlink:href="#DejaVuSans-35"/>
      </g>
     </g>
    </g>
    <g id="text_31"><!-- Trial number -->
     <g transform="translate(409.74 348.68) scale(.1 -.1)">
      <use xlink:href="#DejaVuSans-54"/>
      <use x="60.865234" xlink:href="#DejaVuSans-72"/>
      <use x="101.978516" xlink:href="#DejaVuSans-69"/>
      <use x="129.761719" xlink:href="#DejaVuSans-61"/>
      <use x="191.041016" xlink:href="#DejaVuSans-6c"/>
      <use x="218.824219" xlink:href="#DejaVuSans-20"/>
      <use x="250.611328" xlink:href="#DejaVuSans-6e"/>
      <use x="313.990234" xlink:href="#DejaVuSans-75"/>
      <use x="377.369141" xlink:href="#DejaVuSans-6d"/>
      <use x="474.78125" xlink:href="#DejaVuSans-62"/>
      <use x="538.257812" xlink:href="#DejaVuSans-65"/>
      <use x="599.78125" xlink:href="#DejaVuSans-72"/>
     </g>
    </g>
   </g>
   <g id="matplotlib.axis_6">
    <g id="ytick_13">
     <g id="line2d_55">
      <path d="m381.13 295.2h121.3" clip-path="url(#pc12a9d8929)" fill="none" stroke="#b0b0b0" stroke-linecap="square" stroke-width=".8"/>
     </g>
     <g id="line2d_56">
      <use x="381.130435" y="295.2" stroke="#000000" stroke-width=".8" xlink:href="#m5452d75826"/>
     </g>
     <g id="text_32"><!-- 0.4 -->
      <g transform="translate(358.23 299) scale(.1 -.1)">
       <use xlink:href="#DejaVuSans-30"/>
       <use x="63.623047" xlink:href="#DejaVuSans-2e"/>
       <use x="95.410156" xlink:href="#DejaVuSans-34"/>
      </g>
     </g>
    </g>
    <g id="ytick_14">
     <g id="line2d_57">
      <path d="m381.13 244.8h121.3" clip-path="url(#pc12a9d8929)" fill="none" stroke="#b0b0b0" stroke-linecap="square" stroke-width=".8"/>
     </g>
     <g id="line2d_58">
      <use x="381.130435" y="244.8" stroke="#000000" stroke-width=".8" xlink:href="#m5452d75826"/>
     </g>
     <g id="text_33"><!-- 0.5 -->
      <g transform="translate(358.23 248.6) scale(.1 -.1)">
       <use xlink:href="#DejaVuSans-30"/>
       <use x="63.623047" xlink:href="#DejaVuSans-2e"/>
       <use x="95.410156" xlink:href="#DejaVuSans-35"/>
      </g>
     </g>
    </g>
    <g id="ytick_15">
     <g id="line2d_59">
      <path d="m381.13 194.4h121.3" clip-path="url(#pc12a9d8929)" fill="none" stroke="#b0b0b0" stroke-linecap="square" stroke-width=".8"/>
     </g>
     <g id="line2d_60">
      <use x="381.130435" y="194.4" stroke="#000000" stroke-width=".8" xlink:href="#m5452d75826"/>
     </g>
     <g id="text_34"><!-- 0.6 -->
      <g transform="translate(358.23 198.2) scale(.1 -.1)">
       <use xlink:href="#DejaVuSans-30"/>
       <use x="63.623047" xlink:href="#DejaVuSans-2e"/>
       <use x="95.410156" xlink:href="#DejaVuSans-36"/>
      </g>
     </g>
    </g>
    <g id="ytick_16">
     <g id="line2d_61">
      <path d="m381.13 144h121.3" clip-path="url(#pc12a9d8929)" fill="none" stroke="#b0b0b0" stroke-linecap="square" stroke-width=".8"/>
     </g>
     <g id="line2d_62">
      <use x="381.130435" y="144" stroke="#000000" stroke-width=".8" xlink:href="#m5452d75826"/>
     </g>
     <g id="text_35"><!-- 0.7 -->
      <g transform="translate(358.23 147.8) scale(.1 -.1)">
       <use xlink:href="#DejaVuSans-30"/>
       <use x="63.623047" xlink:href="#DejaVuSans-2e"/>
       <use x="95.410156" xlink:href="#DejaVuSans-37"/>
      </g>
     </g>
    </g>
    <g id="ytick_17">
     <g id="line2d_63">
      <path d="m381.13 93.6h121.3" clip-path="url(#pc12a9d8929)" fill="none" stroke="#b0b0b0" stroke-linecap="square" stroke-width=".8"/>
     </g>
     <g id="line2d_64">
      <use x="381.130435" y="93.6" stroke="#000000" stroke-width=".8" xlink:href="#m5452d75826"/>
     </g>
     <g id="text_36"><!-- 0.8 -->
      <g transform="translate(358.23 97.399) scale(.1 -.1)">
       <use xlink:href="#DejaVuSans-30"/>
       <use x="63.623047" xlink:href="#DejaVuSans-2e"/>
       <use x="95.410156" xlink:href="#DejaVuSans-38"/>
      </g>
     </g>
    </g>
    <g id="ytick_18">
     <g id="line2d_65">
      <path d="m381.13 43.2h121.3" clip-path="url(#pc12a9d8929)" fill="none" stroke="#b0b0b0" stroke-linecap="square" stroke-width=".8"/>
     </g>
     <g id="line2d_66">
      <use x="381.130435" y="43.2" stroke="#000000" stroke-width=".8" xlink:href="#m5452d75826"/>
     </g>
     <g id="text_37"><!-- 0.9 -->
      <g transform="translate(358.23 46.999) scale(.1 -.1)">
       <use xlink:href="#DejaVuSans-30"/>
       <use x="63.623047" xlink:href="#DejaVuSans-2e"/>
       <use x="95.410156" xlink:href="#DejaVuSans-39"/>
      </g>
     </g>
    </g>
   </g>
   <g id="line2d_67">
    <path d="m386.64 248.07 7.8769 6.5455 7.8769-55.636 7.8769-6.5455 7.8769-16.364 7.8769 29.455 7.8769 9.8182 7.8769 3.2727 7.8769-16.364 7.8769-6.5455h7.8769l7.8769 52.364 7.8769-26.182 7.8769-3.2727 7.8769-19.636" clip-path="url(#pc12a9d8929)" fill="none" opacity=".9" stroke="#008fd5" stroke-linecap="square" stroke-width="2"/>
   </g>
   <g id="line2d_68">
    <path d="m386.64 236.21 7.8769-11.455 7.8769-20.045 7.8769-2.8636 7.8769-14.318 7.8769 11.455 7.8769-25.773 7.8769 31.5 7.8769-5.7273 7.8769 5.7273 7.8769-37.227 7.8769 40.091 7.8769-31.5 7.8769-2.8636 7.8769 5.7273" clip-path="url(#pc12a9d8929)" fill="none" opacity=".9" stroke="#fc4f30" stroke-linecap="square" stroke-width="2"/>
   </g>
   <g id="patch_11">
    <path d="m381.13 320.4v-277.2" fill="none" stroke="#000" stroke-linecap="square" stroke-width=".8"/>
   </g>
   <g id="patch_12">
    <path d="m381.13 320.4h121.3" fill="none" stroke="#000" stroke-linecap="square" stroke-width=".8"/>
   </g>
   <g id="text_38"><!-- 2D -->
    <defs>
     <path id="DejaVuSans-32" d="m19.188 8.2969h34.422v-8.2969h-46.281v8.2969q5.6094 5.8125 15.297 15.594 9.7031 9.7969 12.188 12.641 4.7344 5.3125 6.6094 9 1.8906 3.6875 1.8906 7.25 0 5.8125-4.0781 9.4688-4.0781 3.6719-10.625 3.6719-4.6406 0-9.7969-1.6094-5.1406-1.6094-11-4.8906v9.9688q5.9531 2.3906 11.125 3.6094 5.1875 1.2188 9.4844 1.2188 11.328 0 18.062-5.6719 6.7344-5.6562 6.7344-15.125 0-4.5-1.6875-8.5312-1.6719-4.0156-6.125-9.4844-1.2188-1.4219-7.7656-8.1875-6.5312-6.7656-18.453-18.922z"/>
    </defs>
    <g transform="translate(433.35 37.2) scale(.12 -.12)">
     <use xlink:href="#DejaVuSans-32"/>
     <use x="63.623047" xlink:href="#DejaVuSans-44"/>
    </g>
   </g>
   <g id="legend_3">
    <g id="patch_13">
     <path d="m457.09 80.556h38.348q2 0 2-2v-28.356q0-2-2-2h-38.348q-2 0-2 2v28.356q0 2 2 2z" fill="#fff" opacity=".8" stroke="#ccc"/>
    </g>
    <g id="line2d_69">
     <path d="m459.09 56.298h20" fill="none" opacity=".9" stroke="#008fd5" stroke-linecap="square" stroke-width="2"/>
    </g>
    <g id="text_39"><!-- F -->
     <g transform="translate(487.09 59.798) scale(.1 -.1)">
      <use xlink:href="#DejaVuSans-46"/>
     </g>
    </g>
    <g id="line2d_71">
     <path d="m459.09 70.977h20" fill="none" opacity=".9" stroke="#fc4f30" stroke-linecap="square" stroke-width="2"/>
    </g>
    <g id="text_40"><!-- S -->
     <g transform="translate(487.09 74.477) scale(.1 -.1)">
      <use xlink:href="#DejaVuSans-53"/>
     </g>
    </g>
   </g>
  </g>
  <g id="axes_4">
   <g id="patch_14">
    <path d="m526.7 320.4h121.3v-277.2h-121.3z" fill="#fff"/>
   </g>
   <g id="matplotlib.axis_7">
    <g id="xtick_10">
     <g id="line2d_73">
      <path d="m563.72 320.4v-277.2" clip-path="url(#pa743d80fe3)" fill="none" stroke="#b0b0b0" stroke-linecap="square" stroke-width=".8"/>
     </g>
     <g id="line2d_74">
      <use x="563.717109" y="320.4" stroke="#000000" stroke-width=".8" xlink:href="#mc3749681b0"/>
     </g>
     <g id="text_41"><!-- 5 -->
      <g transform="translate(560.54 335) scale(.1 -.1)">
       <use xlink:href="#DejaVuSans-35"/>
      </g>
     </g>
    </g>
    <g id="xtick_11">
     <g id="line2d_75">
      <path d="m603.1 320.4v-277.2" clip-path="url(#pa743d80fe3)" fill="none" stroke="#b0b0b0" stroke-linecap="square" stroke-width=".8"/>
     </g>
     <g id="line2d_76">
      <use x="603.101637" y="320.4" stroke="#000000" stroke-width=".8" xlink:href="#mc3749681b0"/>
     </g>
     <g id="text_42"><!-- 10 -->
      <g transform="translate(596.74 335) scale(.1 -.1)">
       <use xlink:href="#DejaVuSans-31"/>
       <use x="63.623047" xlink:href="#DejaVuSans-30"/>
      </g>
     </g>
    </g>
    <g id="xtick_12">
     <g id="line2d_77">
      <path d="m642.49 320.4v-277.2" clip-path="url(#pa743d80fe3)" fill="none" stroke="#b0b0b0" stroke-linecap="square" stroke-width=".8"/>
     </g>
     <g id="line2d_78">
      <use x="642.486166" y="320.4" stroke="#000000" stroke-width=".8" xlink:href="#mc3749681b0"/>
     </g>
     <g id="text_43"><!-- 15 -->
      <g transform="translate(636.12 335) scale(.1 -.1)">
       <use xlink:href="#DejaVuSans-31"/>
       <use x="63.623047" xlink:href="#DejaVuSans-35"/>
      </g>
     </g>
    </g>
    <g id="text_44"><!-- Trial number -->
     <g transform="translate(555.3 348.68) scale(.1 -.1)">
      <use xlink:href="#DejaVuSans-54"/>
      <use x="60.865234" xlink:href="#DejaVuSans-72"/>
      <use x="101.978516" xlink:href="#DejaVuSans-69"/>
      <use x="129.761719" xlink:href="#DejaVuSans-61"/>
      <use x="191.041016" xlink:href="#DejaVuSans-6c"/>
      <use x="218.824219" xlink:href="#DejaVuSans-20"/>
      <use x="250.611328" xlink:href="#DejaVuSans-6e"/>
      <use x="313.990234" xlink:href="#DejaVuSans-75"/>
      <use x="377.369141" xlink:href="#DejaVuSans-6d"/>
      <use x="474.78125" xlink:href="#DejaVuSans-62"/>
      <use x="538.257812" xlink:href="#DejaVuSans-65"/>
      <use x="599.78125" xlink:href="#DejaVuSans-72"/>
     </g>
    </g>
   </g>
   <g id="matplotlib.axis_8">
    <g id="ytick_19">
     <g id="line2d_79">
      <path d="m526.7 295.2h121.3" clip-path="url(#pa743d80fe3)" fill="none" stroke="#b0b0b0" stroke-linecap="square" stroke-width=".8"/>
     </g>
     <g id="line2d_80">
      <use x="526.695652" y="295.2" stroke="#000000" stroke-width=".8" xlink:href="#m5452d75826"/>
     </g>
     <g id="text_45"><!-- 0.4 -->
      <g transform="translate(503.79 299) scale(.1 -.1)">
       <use xlink:href="#DejaVuSans-30"/>
       <use x="63.623047" xlink:href="#DejaVuSans-2e"/>
       <use x="95.410156" xlink:href="#DejaVuSans-34"/>
      </g>
     </g>
    </g>
    <g id="ytick_20">
     <g id="line2d_81">
      <path d="m526.7 244.8h121.3" clip-path="url(#pa743d80fe3)" fill="none" stroke="#b0b0b0" stroke-linecap="square" stroke-width=".8"/>
     </g>
     <g id="line2d_82">
      <use x="526.695652" y="244.8" stroke="#000000" stroke-width=".8" xlink:href="#m5452d75826"/>
     </g>
     <g id="text_46"><!-- 0.5 -->
      <g transform="translate(503.79 248.6) scale(.1 -.1)">
       <use xlink:href="#DejaVuSans-30"/>
       <use x="63.623047" xlink:href="#DejaVuSans-2e"/>
       <use x="95.410156" xlink:href="#DejaVuSans-35"/>
      </g>
     </g>
    </g>
    <g id="ytick_21">
     <g id="line2d_83">
      <path d="m526.7 194.4h121.3" clip-path="url(#pa743d80fe3)" fill="none" stroke="#b0b0b0" stroke-linecap="square" stroke-width=".8"/>
     </g>
     <g id="line2d_84">
      <use x="526.695652" y="194.4" stroke="#000000" stroke-width=".8" xlink:href="#m5452d75826"/>
     </g>
     <g id="text_47"><!-- 0.6 -->
      <g transform="translate(503.79 198.2) scale(.1 -.1)">
       <use xlink:href="#DejaVuSans-30"/>
       <use x="63.623047" xlink:href="#DejaVuSans-2e"/>
       <use x="95.410156" xlink:href="#DejaVuSans-36"/>
      </g>
     </g>
    </g>
    <g id="ytick_22">
     <g id="line2d_85">
      <path d="m526.7 144h121.3" clip-path="url(#pa743d80fe3)" fill="none" stroke="#b0b0b0" stroke-linecap="square" stroke-width=".8"/>
     </g>
     <g id="line2d_86">
      <use x="526.695652" y="144" stroke="#000000" stroke-width=".8" xlink:href="#m5452d75826"/>
     </g>
     <g id="text_48"><!-- 0.7 -->
      <g transform="translate(503.79 147.8) scale(.1 -.1)">
       <use xlink:href="#DejaVuSans-30"/>
       <use x="63.623047" xlink:href="#DejaVuSans-2e"/>
       <use x="95.410156" xlink:href="#DejaVuSans-37"/>
      </g>
     </g>
    </g>
    <g id="ytick_23">
     <g id="line2d_87">
      <path d="m526.7 93.6h121.3" clip-path="url(#pa743d80fe3)" fill="none" stroke="#b0b0b0" stroke-linecap="square" stroke-width=".8"/>
     </g>
     <g id="line2d_88">
      <use x="526.695652" y="93.6" stroke="#000000" stroke-width=".8" xlink:href="#m5452d75826"/>
     </g>
     <g id="text_49"><!-- 0.8 -->
      <g transform="translate(503.79 97.399) scale(.1 -.1)">
       <use xlink:href="#DejaVuSans-30"/>
       <use x="63.623047" xlink:href="#DejaVuSans-2e"/>
       <use x="95.410156" xlink:href="#DejaVuSans-38"/>
      </g>
     </g>
    </g>
    <g id="ytick_24">
     <g id="line2d_89">
      <path d="m526.7 43.2h121.3" clip-path="url(#pa743d80fe3)" fill="none" stroke="#b0b0b0" stroke-linecap="square" stroke-width=".8"/>
     </g>
     <g id="line2d_90">
      <use x="526.695652" y="43.2" stroke="#000000" stroke-width=".8" xlink:href="#m5452d75826"/>
     </g>
     <g id="text_50"><!-- 0.9 -->
      <g transform="translate(503.79 46.999) scale(.1 -.1)">
       <use xlink:href="#DejaVuSans-30"/>
       <use x="63.623047" xlink:href="#DejaVuSans-2e"/>
       <use x="95.410156" xlink:href="#DejaVuSans-39"/>
      </g>
     </g>
    </g>
   </g>
   <g id="line2d_91">
    <path d="m532.21 244.8 7.8769 3.2727 7.8769-36 7.8769 6.5455 7.8769-9.8182 7.8769 55.636 7.8769 29.455 7.8769-22.909 7.8769-6.5455 7.8769-26.182 7.8769 3.2727 7.8769-36 7.8769 49.091 7.8769 3.2727 7.8769-9.8182" clip-path="url(#pa743d80fe3)" fill="none" opacity=".9" stroke="#008fd5" stroke-linecap="square" stroke-width="2"/>
   </g>
   <g id="line2d_92">
    <path d="m532.21 250.53 7.8769 8.5909 7.8769-5.7273 7.8769-2.8636 7.8769 8.5909 7.8769-48.682 15.754 51.545 7.8769-2.8636 7.8769-5.7273 7.8769-25.773 7.8769 14.318 7.8769 40.091 7.8769-65.864 7.8769 28.636" clip-path="url(#pa743d80fe3)" fill="none" opacity=".9" stroke="#fc4f30" stroke-linecap="square" stroke-width="2"/>
   </g>
   <g id="patch_15">
    <path d="m526.7 320.4v-277.2" fill="none" stroke="#000" stroke-linecap="square" stroke-width=".8"/>
   </g>
   <g id="patch_16">
    <path d="m526.7 320.4h121.3" fill="none" stroke="#000" stroke-linecap="square" stroke-width=".8"/>
   </g>
   <g id="text_51"><!-- R -->
    <defs>
     <path id="DejaVuSans-52" d="m44.391 34.188q3.1719-1.0781 6.1719-4.5938t6.0312-9.6719l10.016-19.922h-10.609l-9.3125 18.703q-3.625 7.3281-7.0156 9.7188t-9.25 2.3906h-10.75v-30.812h-9.8594v72.906h22.266q12.5 0 18.656-5.2344 6.1562-5.2188 6.1562-15.766 0-6.8906-3.2031-11.438-3.2031-4.5312-9.2969-6.2812zm-24.719 30.609v-25.875h12.406q7.125 0 10.766 3.2969t3.6406 9.6875-3.6406 9.6406-10.766 3.25z"/>
    </defs>
    <g transform="translate(583.18 37.2) scale(.12 -.12)">
     <use xlink:href="#DejaVuSans-52"/>
    </g>
   </g>
   <g id="legend_4">
    <g id="patch_17">
     <path d="m602.65 80.556h38.348q2 0 2-2v-28.356q0-2-2-2h-38.348q-2 0-2 2v28.356q0 2 2 2z" fill="#fff" opacity=".8" stroke="#ccc"/>
    </g>
    <g id="line2d_93">
     <path d="m604.65 56.298h20" fill="none" opacity=".9" stroke="#008fd5" stroke-linecap="square" stroke-width="2"/>
    </g>
    <g id="text_52"><!-- F -->
     <g transform="translate(632.65 59.798) scale(.1 -.1)">
      <use xlink:href="#DejaVuSans-46"/>
     </g>
    </g>
    <g id="line2d_95">
     <path d="m604.65 70.977h20" fill="none" opacity=".9" stroke="#fc4f30" stroke-linecap="square" stroke-width="2"/>
    </g>
    <g id="text_53"><!-- S -->
     <g transform="translate(632.65 74.477) scale(.1 -.1)">
      <use xlink:href="#DejaVuSans-53"/>
     </g>
    </g>
   </g>
  </g>
 </g>
 <defs>
  <clipPath id="ped2945dc8c">
   <rect x="90" y="43.2" width="121.3" height="277.2"/>
  </clipPath>
  <clipPath id="p156bc795dc">
   <rect x="235.57" y="43.2" width="121.3" height="277.2"/>
  </clipPath>
  <clipPath id="pc12a9d8929">
   <rect x="381.13" y="43.2" width="121.3" height="277.2"/>
  </clipPath>
  <clipPath id="pa743d80fe3">
   <rect x="526.7" y="43.2" width="121.3" height="277.2"/>
  </clipPath>
 </defs>
</svg>
