<?xml version="1.0" encoding="UTF-8"?>
<!DOCTYPE svg  PUBLIC '-//W3C//DTD SVG 1.1//EN'  'http://www.w3.org/Graphics/SVG/1.1/DTD/svg11.dtd'>
<!-- Created with matplotlib (http://matplotlib.org/) -->
<svg width="360pt" height="360pt" version="1.1" viewBox="0 0 360 360" xmlns="http://www.w3.org/2000/svg" xmlns:xlink="http://www.w3.org/1999/xlink">
 <defs>
  <style type="text/css">*{stroke-linecap:butt;stroke-linejoin:round;}</style>
 </defs>
 <g id="figure_1">
  <g id="patch_1">
   <path d="m0 360h360v-360h-360z" fill="#fff"/>
  </g>
  <g id="axes_1">
   <g id="patch_2">
    <path d="m47.72 306.38h298.96v-279.5h-298.96z" fill="#fff"/>
   </g>
   <g id="matplotlib.axis_1">
    <g id="xtick_1">
     <g id="line2d_1">
      <path d="m49.985 306.38v-279.5" clip-path="url(#p9262b5f9a3)" fill="none" stroke="#808080" stroke-dasharray="0.8,1.32" stroke-width=".8"/>
     </g>
     <g id="line2d_2">
      <defs>
       <path id="ma99f0d7710" d="m0 0v3.5" stroke="#000" stroke-width=".8"/>
      </defs>
      <use x="49.984848" y="306.376" stroke="#000000" stroke-width=".8" xlink:href="#ma99f0d7710"/>
     </g>
     <g id="text_1"><!-- 0 -->
      <defs>
       <path id="DejaVuSans-30" d="m31.781 66.406q-7.6094 0-11.453-7.5-3.8281-7.4844-3.8281-22.531 0-14.984 3.8281-22.484 3.8438-7.5 11.453-7.5 7.6719 0 11.5 7.5 3.8438 7.5 3.8438 22.484 0 15.047-3.8438 22.531-3.8281 7.5-11.5 7.5zm0 7.8125q12.266 0 18.734-9.7031 6.4688-9.6875 6.4688-28.141 0-18.406-6.4688-28.109-6.4688-9.6875-18.734-9.6875-12.25 0-18.719 9.6875-6.4688 9.7031-6.4688 28.109 0 18.453 6.4688 28.141 6.4688 9.7031 18.719 9.7031z"/>
      </defs>
      <g transform="translate(46.804 320.97) scale(.1 -.1)">
       <use xlink:href="#DejaVuSans-30"/>
      </g>
     </g>
    </g>
    <g id="xtick_2">
     <g id="line2d_3">
      <path d="m72.633 306.38v-279.5" clip-path="url(#p9262b5f9a3)" fill="none" stroke="#808080" stroke-dasharray="0.8,1.32" stroke-width=".8"/>
     </g>
     <g id="line2d_4">
      <use x="72.633333" y="306.376" stroke="#000000" stroke-width=".8" xlink:href="#ma99f0d7710"/>
     </g>
     <g id="text_2"><!-- 10 -->
      <defs>
       <path id="DejaVuSans-31" d="m12.406 8.2969h16.109v55.625l-17.531-3.5156v8.9844l17.438 3.5156h9.8594v-64.609h16.109v-8.2969h-41.984z"/>
      </defs>
      <g transform="translate(66.271 320.97) scale(.1 -.1)">
       <use xlink:href="#DejaVuSans-31"/>
       <use x="63.623047" xlink:href="#DejaVuSans-30"/>
      </g>
     </g>
    </g>
    <g id="xtick_3">
     <g id="line2d_5">
      <path d="m95.282 306.38v-279.5" clip-path="url(#p9262b5f9a3)" fill="none" stroke="#808080" stroke-dasharray="0.8,1.32" stroke-width=".8"/>
     </g>
     <g id="line2d_6">
      <use x="95.281818" y="306.376" stroke="#000000" stroke-width=".8" xlink:href="#ma99f0d7710"/>
     </g>
     <g id="text_3"><!-- 20 -->
      <defs>
       <path id="DejaVuSans-32" d="m19.188 8.2969h34.422v-8.2969h-46.281v8.2969q5.6094 5.8125 15.297 15.594 9.7031 9.7969 12.188 12.641 4.7344 5.3125 6.6094 9 1.8906 3.6875 1.8906 7.25 0 5.8125-4.0781 9.4688-4.0781 3.6719-10.625 3.6719-4.6406 0-9.7969-1.6094-5.1406-1.6094-11-4.8906v9.9688q5.9531 2.3906 11.125 3.6094 5.1875 1.2188 9.4844 1.2188 11.328 0 18.062-5.6719 6.7344-5.6562 6.7344-15.125 0-4.5-1.6875-8.5312-1.6719-4.0156-6.125-9.4844-1.2188-1.4219-7.7656-8.1875-6.5312-6.7656-18.453-18.922z"/>
      </defs>
      <g transform="translate(88.919 320.97) scale(.1 -.1)">
       <use xlink:href="#DejaVuSans-32"/>
       <use x="63.623047" xlink:href="#DejaVuSans-30"/>
      </g>
     </g>
    </g>
    <g id="xtick_4">
     <g id="line2d_7">
      <path d="m117.93 306.38v-279.5" clip-path="url(#p9262b5f9a3)" fill="none" stroke="#808080" stroke-dasharray="0.8,1.32" stroke-width=".8"/>
     </g>
     <g id="line2d_8">
      <use x="117.930303" y="306.376" stroke="#000000" stroke-width=".8" xlink:href="#ma99f0d7710"/>
     </g>
     <g id="text_4"><!-- 30 -->
      <defs>
       <path id="DejaVuSans-33" d="m40.578 39.312q7.0781-1.5156 11.047-6.3125 3.9844-4.7812 3.9844-11.812 0-10.781-7.4219-16.703-7.4219-5.9062-21.094-5.9062-4.5781 0-9.4375 0.90625t-10.031 2.7188v9.5156q4.0938-2.3906 8.9688-3.6094 4.8906-1.2188 10.219-1.2188 9.2656 0 14.125 3.6562t4.8594 10.641q0 6.4531-4.5156 10.078-4.5156 3.6406-12.562 3.6406h-8.5v8.1094h8.8906q7.2656 0 11.125 2.9062t3.8594 8.375q0 5.6094-3.9844 8.6094-3.9688 3.0156-11.391 3.0156-4.0625 0-8.7031-0.89062-4.6406-0.875-10.203-2.7188v8.7812q5.625 1.5625 10.531 2.3438t9.25 0.78125q11.234 0 17.766-5.1094 6.5469-5.0938 6.5469-13.781 0-6.0625-3.4688-10.234t-9.8594-5.7812z"/>
      </defs>
      <g transform="translate(111.57 320.97) scale(.1 -.1)">
       <use xlink:href="#DejaVuSans-33"/>
       <use x="63.623047" xlink:href="#DejaVuSans-30"/>
      </g>
     </g>
    </g>
    <g id="xtick_5">
     <g id="line2d_9">
      <path d="m140.58 306.38v-279.5" clip-path="url(#p9262b5f9a3)" fill="none" stroke="#808080" stroke-dasharray="0.8,1.32" stroke-width=".8"/>
     </g>
     <g id="line2d_10">
      <use x="140.578788" y="306.376" stroke="#000000" stroke-width=".8" xlink:href="#ma99f0d7710"/>
     </g>
     <g id="text_5"><!-- 40 -->
      <defs>
       <path id="DejaVuSans-34" d="m37.797 64.312-24.906-38.922h24.906zm-2.5938 8.5938h12.406v-47.516h10.406v-8.2031h-10.406v-17.188h-9.8125v17.188h-32.906v9.5156z"/>
      </defs>
      <g transform="translate(134.22 320.97) scale(.1 -.1)">
       <use xlink:href="#DejaVuSans-34"/>
       <use x="63.623047" xlink:href="#DejaVuSans-30"/>
      </g>
     </g>
    </g>
    <g id="xtick_6">
     <g id="line2d_11">
      <path d="m163.23 306.38v-279.5" clip-path="url(#p9262b5f9a3)" fill="none" stroke="#808080" stroke-dasharray="0.8,1.32" stroke-width=".8"/>
     </g>
     <g id="line2d_12">
      <use x="163.227273" y="306.376" stroke="#000000" stroke-width=".8" xlink:href="#ma99f0d7710"/>
     </g>
     <g id="text_6"><!-- 50 -->
      <defs>
       <path id="DejaVuSans-35" d="m10.797 72.906h38.719v-8.3125h-29.688v-17.859q2.1406 0.73438 4.2812 1.0938 2.1562 0.35938 4.3125 0.35938 12.203 0 19.328-6.6875 7.1406-6.6875 7.1406-18.109 0-11.766-7.3281-18.297-7.3281-6.5156-20.656-6.5156-4.5938 0-9.3594 0.78125-4.75 0.78125-9.8281 2.3438v9.9219q4.3906-2.3906 9.0781-3.5625t9.9062-1.1719q8.4531 0 13.375 4.4375 4.9375 4.4375 4.9375 12.062 0 7.6094-4.9375 12.047-4.9219 4.4531-13.375 4.4531-3.9531 0-7.8906-0.875-3.9219-0.875-8.0156-2.7344z"/>
      </defs>
      <g transform="translate(156.86 320.97) scale(.1 -.1)">
       <use xlink:href="#DejaVuSans-35"/>
       <use x="63.623047" xlink:href="#DejaVuSans-30"/>
      </g>
     </g>
    </g>
    <g id="xtick_7">
     <g id="line2d_13">
      <path d="m185.88 306.38v-279.5" clip-path="url(#p9262b5f9a3)" fill="none" stroke="#808080" stroke-dasharray="0.8,1.32" stroke-width=".8"/>
     </g>
     <g id="line2d_14">
      <use x="185.875758" y="306.376" stroke="#000000" stroke-width=".8" xlink:href="#ma99f0d7710"/>
     </g>
     <g id="text_7"><!-- 60 -->
      <defs>
       <path id="DejaVuSans-36" d="m33.016 40.375q-6.6406 0-10.531-4.5469-3.875-4.5312-3.875-12.438 0-7.8594 3.875-12.438 3.8906-4.5625 10.531-4.5625t10.516 4.5625q3.875 4.5781 3.875 12.438 0 7.9062-3.875 12.438-3.875 4.5469-10.516 4.5469zm19.578 30.922v-8.9844q-3.7188 1.75-7.5 2.6719-3.7812 0.9375-7.5 0.9375-9.7656 0-14.922-6.5938-5.1406-6.5938-5.875-19.922 2.875 4.25 7.2188 6.5156 4.3594 2.2656 9.5781 2.2656 10.984 0 17.359-6.6719 6.375-6.6562 6.375-18.125 0-11.234-6.6406-18.031-6.6406-6.7812-17.672-6.7812-12.656 0-19.344 9.6875-6.6875 9.7031-6.6875 28.109 0 17.281 8.2031 27.562t22.016 10.281q3.7188 0 7.5-0.73438t7.8906-2.1875z"/>
      </defs>
      <g transform="translate(179.51 320.97) scale(.1 -.1)">
       <use xlink:href="#DejaVuSans-36"/>
       <use x="63.623047" xlink:href="#DejaVuSans-30"/>
      </g>
     </g>
    </g>
    <g id="xtick_8">
     <g id="line2d_15">
      <path d="m208.52 306.38v-279.5" clip-path="url(#p9262b5f9a3)" fill="none" stroke="#808080" stroke-dasharray="0.8,1.32" stroke-width=".8"/>
     </g>
     <g id="line2d_16">
      <use x="208.524242" y="306.376" stroke="#000000" stroke-width=".8" xlink:href="#ma99f0d7710"/>
     </g>
     <g id="text_8"><!-- 70 -->
      <defs>
       <path id="DejaVuSans-37" d="m8.2031 72.906h46.875v-4.2031l-26.469-68.703h-10.297l24.906 64.594h-35.016z"/>
      </defs>
      <g transform="translate(202.16 320.97) scale(.1 -.1)">
       <use xlink:href="#DejaVuSans-37"/>
       <use x="63.623047" xlink:href="#DejaVuSans-30"/>
      </g>
     </g>
    </g>
    <g id="xtick_9">
     <g id="line2d_17">
      <path d="m231.17 306.38v-279.5" clip-path="url(#p9262b5f9a3)" fill="none" stroke="#808080" stroke-dasharray="0.8,1.32" stroke-width=".8"/>
     </g>
     <g id="line2d_18">
      <use x="231.172727" y="306.376" stroke="#000000" stroke-width=".8" xlink:href="#ma99f0d7710"/>
     </g>
     <g id="text_9"><!-- 80 -->
      <defs>
       <path id="DejaVuSans-38" d="m31.781 34.625q-7.0312 0-11.062-3.7656-4.0156-3.7656-4.0156-10.344 0-6.5938 4.0156-10.359 4.0312-3.7656 11.062-3.7656t11.078 3.7812q4.0625 3.7969 4.0625 10.344 0 6.5781-4.0312 10.344-4.0156 3.7656-11.109 3.7656zm-9.8594 4.1875q-6.3438 1.5625-9.8906 5.9062-3.5312 4.3594-3.5312 10.609 0 8.7344 6.2188 13.812 6.2344 5.0781 17.062 5.0781 10.891 0 17.094-5.0781t6.2031-13.812q0-6.25-3.5469-10.609-3.5312-4.3438-9.8281-5.9062 7.125-1.6562 11.094-6.5 3.9844-4.8281 3.9844-11.797 0-10.609-6.4688-16.281-6.4688-5.6562-18.531-5.6562-12.047 0-18.531 5.6562-6.4688 5.6719-6.4688 16.281 0 6.9688 4 11.797 4.0156 4.8438 11.141 6.5zm-3.6094 15.578q0-5.6562 3.5312-8.8281 3.5469-3.1719 9.9375-3.1719 6.3594 0 9.9375 3.1719 3.5938 3.1719 3.5938 8.8281 0 5.6719-3.5938 8.8438-3.5781 3.1719-9.9375 3.1719-6.3906 0-9.9375-3.1719-3.5312-3.1719-3.5312-8.8438z"/>
      </defs>
      <g transform="translate(224.81 320.97) scale(.1 -.1)">
       <use xlink:href="#DejaVuSans-38"/>
       <use x="63.623047" xlink:href="#DejaVuSans-30"/>
      </g>
     </g>
    </g>
    <g id="xtick_10">
     <g id="line2d_19">
      <path d="m253.82 306.38v-279.5" clip-path="url(#p9262b5f9a3)" fill="none" stroke="#808080" stroke-dasharray="0.8,1.32" stroke-width=".8"/>
     </g>
     <g id="line2d_20">
      <use x="253.821212" y="306.376" stroke="#000000" stroke-width=".8" xlink:href="#ma99f0d7710"/>
     </g>
     <g id="text_10"><!-- 90 -->
      <defs>
       <path id="DejaVuSans-39" d="m10.984 1.5156v8.9844q3.7188-1.7656 7.5156-2.6875 3.8125-0.92188 7.4844-0.92188 9.7656 0 14.906 6.5625 5.1562 6.5625 5.8906 19.953-2.8281-4.2031-7.1875-6.4531-4.3438-2.25-9.6094-2.25-10.938 0-17.312 6.6094-6.375 6.625-6.375 18.109 0 11.219 6.6406 18 6.6406 6.7969 17.672 6.7969 12.656 0 19.312-9.7031 6.6719-9.6875 6.6719-28.141 0-17.234-8.1875-27.516-8.1719-10.281-21.984-10.281-3.7188 0-7.5312 0.73438-3.7969 0.73438-7.9062 2.2031zm19.625 30.906q6.6406 0 10.516 4.5312 3.8906 4.5469 3.8906 12.469 0 7.8594-3.8906 12.422-3.875 4.5625-10.516 4.5625t-10.516-4.5625-3.875-12.422q0-7.9219 3.875-12.469 3.875-4.5312 10.516-4.5312z"/>
      </defs>
      <g transform="translate(247.46 320.97) scale(.1 -.1)">
       <use xlink:href="#DejaVuSans-39"/>
       <use x="63.623047" xlink:href="#DejaVuSans-30"/>
      </g>
     </g>
    </g>
    <g id="xtick_11">
     <g id="line2d_21">
      <path d="m276.47 306.38v-279.5" clip-path="url(#p9262b5f9a3)" fill="none" stroke="#808080" stroke-dasharray="0.8,1.32" stroke-width=".8"/>
     </g>
     <g id="line2d_22">
      <use x="276.469697" y="306.376" stroke="#000000" stroke-width=".8" xlink:href="#ma99f0d7710"/>
     </g>
     <g id="text_11"><!-- 100 -->
      <g transform="translate(266.93 320.97) scale(.1 -.1)">
       <use xlink:href="#DejaVuSans-31"/>
       <use x="63.623047" xlink:href="#DejaVuSans-30"/>
       <use x="127.246094" xlink:href="#DejaVuSans-30"/>
      </g>
     </g>
    </g>
    <g id="xtick_12">
     <g id="line2d_23">
      <path d="m299.12 306.38v-279.5" clip-path="url(#p9262b5f9a3)" fill="none" stroke="#808080" stroke-dasharray="0.8,1.32" stroke-width=".8"/>
     </g>
     <g id="line2d_24">
      <use x="299.118182" y="306.376" stroke="#000000" stroke-width=".8" xlink:href="#ma99f0d7710"/>
     </g>
     <g id="text_12"><!-- 110 -->
      <g transform="translate(289.57 320.97) scale(.1 -.1)">
       <use xlink:href="#DejaVuSans-31"/>
       <use x="63.623047" xlink:href="#DejaVuSans-31"/>
       <use x="127.246094" xlink:href="#DejaVuSans-30"/>
      </g>
     </g>
    </g>
    <g id="xtick_13">
     <g id="line2d_25">
      <path d="m321.77 306.38v-279.5" clip-path="url(#p9262b5f9a3)" fill="none" stroke="#808080" stroke-dasharray="0.8,1.32" stroke-width=".8"/>
     </g>
     <g id="line2d_26">
      <use x="321.766667" y="306.376" stroke="#000000" stroke-width=".8" xlink:href="#ma99f0d7710"/>
     </g>
     <g id="text_13"><!-- 120 -->
      <g transform="translate(312.22 320.97) scale(.1 -.1)">
       <use xlink:href="#DejaVuSans-31"/>
       <use x="63.623047" xlink:href="#DejaVuSans-32"/>
       <use x="127.246094" xlink:href="#DejaVuSans-30"/>
      </g>
     </g>
    </g>
    <g id="text_14"><!-- Time of first switch -->
     <defs>
      <path id="DejaVuSans-54" d="m-0.29688 72.906h61.672v-8.3125h-25.875v-64.594h-9.9062v64.594h-25.891z"/>
      <path id="DejaVuSans-69" d="m9.4219 54.688h8.9844v-54.688h-8.9844zm0 21.297h8.9844v-11.391h-8.9844z"/>
      <path id="DejaVuSans-6d" d="m52 44.188q3.375 6.0625 8.0625 8.9375t11.031 2.875q8.5469 0 13.188-5.9844 4.6406-5.9688 4.6406-17v-33.016h-9.0312v32.719q0 7.8594-2.7969 11.656-2.7812 3.8125-8.4844 3.8125-6.9844 0-11.047-4.6406-4.0469-4.625-4.0469-12.641v-30.906h-9.0312v32.719q0 7.9062-2.7812 11.688t-8.5938 3.7812q-6.8906 0-10.953-4.6562-4.0469-4.6562-4.0469-12.625v-30.906h-9.0312v54.688h9.0312v-8.5q3.0781 5.0312 7.375 7.4219t10.203 2.3906q5.9688 0 10.141-3.0312 4.1719-3.0156 6.1719-8.7812z"/>
      <path id="DejaVuSans-65" d="m56.203 29.594v-4.3906h-41.312q0.59375-9.2812 5.5938-14.141t13.938-4.8594q5.1719 0 10.031 1.2656t9.6562 3.8125v-8.5q-4.8438-2.0469-9.9219-3.125t-10.297-1.0781q-13.094 0-20.734 7.6094-7.6406 7.625-7.6406 20.625 0 13.422 7.25 21.297 7.25 7.8906 19.562 7.8906 11.031 0 17.453-7.1094 6.4219-7.0938 6.4219-19.297zm-8.9844 2.6406q-0.09375 7.3594-4.125 11.75-4.0312 4.4062-10.672 4.4062-7.5156 0-12.031-4.25t-5.2031-11.969z"/>
      <path id="DejaVuSans-6f" d="m30.609 48.391q-7.2188 0-11.422-5.6406t-4.2031-15.453 4.1719-15.453q4.1875-5.6406 11.453-5.6406 7.1875 0 11.375 5.6562 4.2031 5.6719 4.2031 15.438 0 9.7188-4.2031 15.406-4.1875 5.6875-11.375 5.6875zm0 7.6094q11.719 0 18.406-7.625 6.7031-7.6094 6.7031-21.078 0-13.422-6.7031-21.078-6.6875-7.6406-18.406-7.6406-11.766 0-18.438 7.6406-6.6562 7.6562-6.6562 21.078 0 13.469 6.6562 21.078 6.6719 7.625 18.438 7.625z"/>
      <path id="DejaVuSans-66" d="m37.109 75.984v-7.4844h-8.5938q-4.8281 0-6.7188-1.9531-1.875-1.9531-1.875-7.0312v-4.8281h14.797v-6.9844h-14.797v-47.703h-9.0312v47.703h-8.5938v6.9844h8.5938v3.8125q0 9.125 4.25 13.297 4.25 4.1875 13.469 4.1875z"/>
      <path id="DejaVuSans-72" d="m41.109 46.297q-1.5156 0.875-3.2969 1.2812-1.7812 0.42188-3.9219 0.42188-7.625 0-11.703-4.9531t-4.0781-14.234v-28.812h-9.0312v54.688h9.0312v-8.5q2.8438 4.9844 7.375 7.3906 4.5469 2.4219 11.047 2.4219 0.92188 0 2.0469-0.125 1.125-0.10938 2.4844-0.35938z"/>
      <path id="DejaVuSans-73" d="m44.281 53.078v-8.5q-3.7969 1.9531-7.9062 2.9219-4.0938 0.98438-8.5 0.98438-6.6875 0-10.031-2.0469t-3.3438-6.1562q0-3.125 2.3906-4.9062t9.625-3.3906l3.0781-0.6875q9.5625-2.0469 13.594-5.7812t4.0312-10.422q0-7.625-6.0312-12.078-6.0312-4.4375-16.578-4.4375-4.3906 0-9.1562 0.85938t-10.031 2.5625v9.2812q4.9844-2.5938 9.8125-3.8906 4.8281-1.2812 9.5781-1.2812 6.3438 0 9.75 2.1719 3.4219 2.1719 3.4219 6.125 0 3.6562-2.4688 5.6094-2.4531 1.9531-10.812 3.7656l-3.125 0.73438q-8.3438 1.75-12.062 5.3906-3.7031 3.6406-3.7031 9.9844 0 7.7188 5.4688 11.906 5.4688 4.2031 15.531 4.2031 4.9688 0 9.3594-0.73438 4.4062-0.71875 8.1094-2.1875z"/>
      <path id="DejaVuSans-74" d="m18.312 70.219v-15.531h18.5v-6.9844h-18.5v-29.688q0-6.6875 1.8281-8.5938t7.4531-1.9062h9.2188v-7.5156h-9.2188q-10.406 0-14.359 3.875-3.9531 3.8906-3.9531 14.141v29.688h-6.5938v6.9844h6.5938v15.531z"/>
      <path id="DejaVuSans-77" d="m4.2031 54.688h8.9844l11.234-42.672 11.172 42.672h10.594l11.234-42.672 11.188 42.672h8.9844l-14.312-54.688h-10.594l-11.766 44.828-11.812-44.828h-10.609z"/>
      <path id="DejaVuSans-63" d="m48.781 52.594v-8.4062q-3.8125 2.1094-7.6406 3.1562t-7.7344 1.0469q-8.75 0-13.594-5.5469-4.8281-5.5312-4.8281-15.547t4.8281-15.562q4.8438-5.5312 13.594-5.5312 3.9062 0 7.7344 1.0469t7.6406 3.1562v-8.3125q-3.7656-1.75-7.7969-2.625-4.0156-0.89062-8.5625-0.89062-12.359 0-19.641 7.7656-7.2656 7.7656-7.2656 20.953 0 13.375 7.3438 21.031 7.3594 7.6719 20.156 7.6719 4.1406 0 8.0938-0.85938 3.9531-0.84375 7.6719-2.5469z"/>
      <path id="DejaVuSans-68" d="m54.891 33.016v-33.016h-8.9844v32.719q0 7.7656-3.0312 11.609-3.0312 3.8594-9.0781 3.8594-7.2812 0-11.484-4.6406-4.2031-4.625-4.2031-12.641v-30.906h-9.0312v75.984h9.0312v-29.797q3.2344 4.9375 7.5938 7.375 4.375 2.4375 10.094 2.4375 9.4219 0 14.25-5.8281 4.8438-5.8281 4.8438-17.156z"/>
     </defs>
     <g transform="translate(149.5 334.65) scale(.1 -.1)">
      <use xlink:href="#DejaVuSans-54"/>
      <use x="61.037109" xlink:href="#DejaVuSans-69"/>
      <use x="88.820312" xlink:href="#DejaVuSans-6d"/>
      <use x="186.232422" xlink:href="#DejaVuSans-65"/>
      <use x="247.755859" xlink:href="#DejaVuSans-20"/>
      <use x="279.542969" xlink:href="#DejaVuSans-6f"/>
      <use x="340.724609" xlink:href="#DejaVuSans-66"/>
      <use x="375.929688" xlink:href="#DejaVuSans-20"/>
      <use x="407.716797" xlink:href="#DejaVuSans-66"/>
      <use x="442.921875" xlink:href="#DejaVuSans-69"/>
      <use x="470.705078" xlink:href="#DejaVuSans-72"/>
      <use x="511.818359" xlink:href="#DejaVuSans-73"/>
      <use x="563.917969" xlink:href="#DejaVuSans-74"/>
      <use x="603.126953" xlink:href="#DejaVuSans-20"/>
      <use x="634.914062" xlink:href="#DejaVuSans-73"/>
      <use x="687.013672" xlink:href="#DejaVuSans-77"/>
      <use x="768.800781" xlink:href="#DejaVuSans-69"/>
      <use x="796.583984" xlink:href="#DejaVuSans-74"/>
      <use x="835.792969" xlink:href="#DejaVuSans-63"/>
      <use x="890.773438" xlink:href="#DejaVuSans-68"/>
     </g>
<!-- after the first learning point -->
     <defs>
      <path id="DejaVuSans-61" d="m34.281 27.484q-10.891 0-15.094-2.4844t-4.2031-8.5q0-4.7812 3.1562-7.5938 3.1562-2.7969 8.5625-2.7969 7.4844 0 12 5.2969t4.5156 14.078v2zm17.922 3.7188v-31.203h-8.9844v8.2969q-3.0781-4.9688-7.6719-7.3438t-11.234-2.375q-8.3906 0-13.359 4.7188-4.9531 4.7188-4.9531 12.625 0 9.2188 6.1719 13.906 6.1875 4.6875 18.438 4.6875h12.609v0.89062q0 6.2031-4.0781 9.5938t-11.453 3.3906q-4.6875 0-9.1406-1.125-4.4375-1.125-8.5312-3.375v8.3125q4.9219 1.9062 9.5625 2.8438 4.6406 0.95312 9.0312 0.95312 11.875 0 17.734-6.1562 5.8594-6.1406 5.8594-18.641z"/>
      <path id="DejaVuSans-6c" d="m9.4219 75.984h8.9844v-75.984h-8.9844z"/>
      <path id="DejaVuSans-6e" d="m54.891 33.016v-33.016h-8.9844v32.719q0 7.7656-3.0312 11.609-3.0312 3.8594-9.0781 3.8594-7.2812 0-11.484-4.6406-4.2031-4.625-4.2031-12.641v-30.906h-9.0312v54.688h9.0312v-8.5q3.2344 4.9375 7.5938 7.375 4.375 2.4375 10.094 2.4375 9.4219 0 14.25-5.8281 4.8438-5.8281 4.8438-17.156z"/>
      <path id="DejaVuSans-67" d="m45.406 27.984q0 9.7656-4.0312 15.125-4.0156 5.375-11.297 5.375-7.2188 0-11.25-5.375-4.0312-5.3594-4.0312-15.125 0-9.7188 4.0312-15.094t11.25-5.375q7.2812 0 11.297 5.375 4.0312 5.375 4.0312 15.094zm8.9844-21.203q0-13.953-6.2031-20.766-6.1875-6.8125-18.984-6.8125-4.7344 0-8.9375 0.70312t-8.1562 2.1719v8.7344q3.9531-2.1406 7.8125-3.1562 3.8594-1.0312 7.8594-1.0312 8.8438 0 13.234 4.6094t4.3906 13.938v4.4531q-2.7812-4.8438-7.125-7.2344t-10.406-2.3906q-10.047 0-16.203 7.6562-6.1562 7.6719-6.1562 20.328 0 12.688 6.1562 20.344 6.1562 7.6719 16.203 7.6719 6.0625 0 10.406-2.3906t7.125-7.2188v8.2969h8.9844z"/>
      <path id="DejaVuSans-70" d="m18.109 8.2031v-29h-9.0312v75.484h9.0312v-8.2969q2.8438 4.875 7.1562 7.2344 4.3281 2.375 10.328 2.375 9.9688 0 16.188-7.9062 6.2344-7.9062 6.2344-20.797t-6.2344-20.812q-6.2188-7.9062-16.188-7.9062-6 0-10.328 2.375-4.3125 2.375-7.1562 7.25zm30.578 19.094q0 9.9062-4.0781 15.547t-11.203 5.6406q-7.1406 0-11.219-5.6406t-4.0781-15.547 4.0781-15.547 11.219-5.6406q7.125 0 11.203 5.6406t4.0781 15.547z"/>
     </defs>
     <g transform="translate(127.72 345.85) scale(.1 -.1)">
      <use xlink:href="#DejaVuSans-61"/>
      <use x="61.279297" xlink:href="#DejaVuSans-66"/>
      <use x="96.46875" xlink:href="#DejaVuSans-74"/>
      <use x="135.677734" xlink:href="#DejaVuSans-65"/>
      <use x="197.201172" xlink:href="#DejaVuSans-72"/>
      <use x="238.314453" xlink:href="#DejaVuSans-20"/>
      <use x="270.101562" xlink:href="#DejaVuSans-74"/>
      <use x="309.310547" xlink:href="#DejaVuSans-68"/>
      <use x="372.689453" xlink:href="#DejaVuSans-65"/>
      <use x="434.212891" xlink:href="#DejaVuSans-20"/>
      <use x="466" xlink:href="#DejaVuSans-66"/>
      <use x="501.205078" xlink:href="#DejaVuSans-69"/>
      <use x="528.988281" xlink:href="#DejaVuSans-72"/>
      <use x="570.101562" xlink:href="#DejaVuSans-73"/>
      <use x="622.201172" xlink:href="#DejaVuSans-74"/>
      <use x="661.410156" xlink:href="#DejaVuSans-20"/>
      <use x="693.197266" xlink:href="#DejaVuSans-6c"/>
      <use x="720.980469" xlink:href="#DejaVuSans-65"/>
      <use x="782.503906" xlink:href="#DejaVuSans-61"/>
      <use x="843.783203" xlink:href="#DejaVuSans-72"/>
      <use x="884.880859" xlink:href="#DejaVuSans-6e"/>
      <use x="948.259766" xlink:href="#DejaVuSans-69"/>
      <use x="976.042969" xlink:href="#DejaVuSans-6e"/>
      <use x="1039.421875" xlink:href="#DejaVuSans-67"/>
      <use x="1102.898438" xlink:href="#DejaVuSans-20"/>
      <use x="1134.685547" xlink:href="#DejaVuSans-70"/>
      <use x="1198.162109" xlink:href="#DejaVuSans-6f"/>
      <use x="1259.34375" xlink:href="#DejaVuSans-69"/>
      <use x="1287.126953" xlink:href="#DejaVuSans-6e"/>
      <use x="1350.505859" xlink:href="#DejaVuSans-74"/>
     </g>
    </g>
   </g>
   <g id="matplotlib.axis_2">
    <g id="ytick_1">
     <g id="line2d_27">
      <path d="m47.72 293.67h298.96" clip-path="url(#p9262b5f9a3)" fill="none" stroke="#808080" stroke-dasharray="0.8,1.32" stroke-width=".8"/>
     </g>
     <g id="line2d_28">
      <defs>
       <path id="mf87ce146e1" d="m0 0h-3.5" stroke="#000" stroke-width=".8"/>
      </defs>
      <use x="47.72" y="293.671636" stroke="#000000" stroke-width=".8" xlink:href="#mf87ce146e1"/>
     </g>
     <g id="text_15"><!-- 0.0 -->
      <defs>
       <path id="DejaVuSans-2e" d="m10.688 12.406h10.312v-12.406h-10.312z"/>
      </defs>
      <g transform="translate(24.817 297.47) scale(.1 -.1)">
       <use xlink:href="#DejaVuSans-30"/>
       <use x="63.623047" xlink:href="#DejaVuSans-2e"/>
       <use x="95.410156" xlink:href="#DejaVuSans-30"/>
      </g>
     </g>
    </g>
    <g id="ytick_2">
     <g id="line2d_29">
      <path d="m47.72 239.59h298.96" clip-path="url(#p9262b5f9a3)" fill="none" stroke="#808080" stroke-dasharray="0.8,1.32" stroke-width=".8"/>
     </g>
     <g id="line2d_30">
      <use x="47.72" y="239.592251" stroke="#000000" stroke-width=".8" xlink:href="#mf87ce146e1"/>
     </g>
     <g id="text_16"><!-- 0.1 -->
      <g transform="translate(24.817 243.39) scale(.1 -.1)">
       <use xlink:href="#DejaVuSans-30"/>
       <use x="63.623047" xlink:href="#DejaVuSans-2e"/>
       <use x="95.410156" xlink:href="#DejaVuSans-31"/>
      </g>
     </g>
    </g>
    <g id="ytick_3">
     <g id="line2d_31">
      <path d="m47.72 185.51h298.96" clip-path="url(#p9262b5f9a3)" fill="none" stroke="#808080" stroke-dasharray="0.8,1.32" stroke-width=".8"/>
     </g>
     <g id="line2d_32">
      <use x="47.72" y="185.512865" stroke="#000000" stroke-width=".8" xlink:href="#mf87ce146e1"/>
     </g>
     <g id="text_17"><!-- 0.2 -->
      <g transform="translate(24.817 189.31) scale(.1 -.1)">
       <use xlink:href="#DejaVuSans-30"/>
       <use x="63.623047" xlink:href="#DejaVuSans-2e"/>
       <use x="95.410156" xlink:href="#DejaVuSans-32"/>
      </g>
     </g>
    </g>
    <g id="ytick_4">
     <g id="line2d_33">
      <path d="m47.72 131.43h298.96" clip-path="url(#p9262b5f9a3)" fill="none" stroke="#808080" stroke-dasharray="0.8,1.32" stroke-width=".8"/>
     </g>
     <g id="line2d_34">
      <use x="47.72" y="131.433479" stroke="#000000" stroke-width=".8" xlink:href="#mf87ce146e1"/>
     </g>
     <g id="text_18"><!-- 0.3 -->
      <g transform="translate(24.817 135.23) scale(.1 -.1)">
       <use xlink:href="#DejaVuSans-30"/>
       <use x="63.623047" xlink:href="#DejaVuSans-2e"/>
       <use x="95.410156" xlink:href="#DejaVuSans-33"/>
      </g>
     </g>
    </g>
    <g id="ytick_5">
     <g id="line2d_35">
      <path d="m47.72 77.354h298.96" clip-path="url(#p9262b5f9a3)" fill="none" stroke="#808080" stroke-dasharray="0.8,1.32" stroke-width=".8"/>
     </g>
     <g id="line2d_36">
      <use x="47.72" y="77.354093" stroke="#000000" stroke-width=".8" xlink:href="#mf87ce146e1"/>
     </g>
     <g id="text_19"><!-- 0.4 -->
      <g transform="translate(24.817 81.153) scale(.1 -.1)">
       <use xlink:href="#DejaVuSans-30"/>
       <use x="63.623047" xlink:href="#DejaVuSans-2e"/>
       <use x="95.410156" xlink:href="#DejaVuSans-34"/>
      </g>
     </g>
    </g>
    <g id="text_20"><!-- Relative frequency -->
     <defs>
      <path id="DejaVuSans-52" d="m44.391 34.188q3.1719-1.0781 6.1719-4.5938t6.0312-9.6719l10.016-19.922h-10.609l-9.3125 18.703q-3.625 7.3281-7.0156 9.7188t-9.25 2.3906h-10.75v-30.812h-9.8594v72.906h22.266q12.5 0 18.656-5.2344 6.1562-5.2188 6.1562-15.766 0-6.8906-3.2031-11.438-3.2031-4.5312-9.2969-6.2812zm-24.719 30.609v-25.875h12.406q7.125 0 10.766 3.2969t3.6406 9.6875-3.6406 9.6406-10.766 3.25z"/>
      <path id="DejaVuSans-76" d="m2.9844 54.688h9.5156l17.094-45.891 17.094 45.891h9.5156l-20.516-54.688h-12.203z"/>
      <path id="DejaVuSans-71" d="m14.797 27.297q0-9.9062 4.0781-15.547t11.203-5.6406 11.219 5.6406q4.1094 5.6406 4.1094 15.547t-4.1094 15.547q-4.0938 5.6406-11.219 5.6406t-11.203-5.6406-4.0781-15.547zm30.609-19.094q-2.8281-4.875-7.1562-7.25-4.3125-2.375-10.375-2.375-9.9062 0-16.141 7.9062-6.2188 7.9219-6.2188 20.812t6.2188 20.797q6.2344 7.9062 16.141 7.9062 6.0625 0 10.375-2.375 4.3281-2.3594 7.1562-7.2344v8.2969h8.9844v-75.484h-8.9844z"/>
      <path id="DejaVuSans-75" d="m8.5 21.578v33.109h8.9844v-32.766q0-7.7656 3.0156-11.656 3.0312-3.875 9.0938-3.875 7.2656 0 11.484 4.6406 4.2344 4.6406 4.2344 12.656v31h8.9844v-54.688h-8.9844v8.4062q-3.2656-4.9844-7.5938-7.4062-4.3125-2.4219-10.031-2.4219-9.4219 0-14.312 5.8594-4.875 5.8594-4.875 17.141zm22.609 34.422z"/>
      <path id="DejaVuSans-79" d="m32.172-5.0781q-3.7969-9.7656-7.4219-12.734-3.6094-2.9844-9.6562-2.9844h-7.1875v7.5156h5.2812q3.7031 0 5.75 1.7656 2.0625 1.75 4.5469 8.2969l1.6094 4.0938-22.109 53.812h9.5156l17.094-42.766 17.094 42.766h9.5156z"/>
     </defs>
     <g transform="translate(18.737 213.79) rotate(-90) scale(.1 -.1)">
      <use xlink:href="#DejaVuSans-52"/>
      <use x="69.419922" xlink:href="#DejaVuSans-65"/>
      <use x="130.943359" xlink:href="#DejaVuSans-6c"/>
      <use x="158.726562" xlink:href="#DejaVuSans-61"/>
      <use x="220.005859" xlink:href="#DejaVuSans-74"/>
      <use x="259.214844" xlink:href="#DejaVuSans-69"/>
      <use x="286.998047" xlink:href="#DejaVuSans-76"/>
      <use x="346.177734" xlink:href="#DejaVuSans-65"/>
      <use x="407.701172" xlink:href="#DejaVuSans-20"/>
      <use x="439.488281" xlink:href="#DejaVuSans-66"/>
      <use x="474.693359" xlink:href="#DejaVuSans-72"/>
      <use x="515.775391" xlink:href="#DejaVuSans-65"/>
      <use x="577.298828" xlink:href="#DejaVuSans-71"/>
      <use x="640.775391" xlink:href="#DejaVuSans-75"/>
      <use x="704.154297" xlink:href="#DejaVuSans-65"/>
      <use x="765.677734" xlink:href="#DejaVuSans-6e"/>
      <use x="829.056641" xlink:href="#DejaVuSans-63"/>
      <use x="884.037109" xlink:href="#DejaVuSans-79"/>
     </g>
    </g>
   </g>
   <g id="line2d_37">
    <path d="m61.309 39.584 22.648 123.61 22.648 70.389 22.648 13.734 22.648 34.336 22.648 3.4336 22.648 5.1504 45.297 3.4336h22.648 22.648l22.648-1.7168 22.648 1.7168" clip-path="url(#p9262b5f9a3)" fill="none" stroke="#000" stroke-linecap="square" stroke-width="2"/>
   </g>
   <g id="patch_3">
    <path d="m47.72 306.38v-279.5" fill="none" stroke="#000" stroke-linecap="square" stroke-width=".8"/>
   </g>
   <g id="patch_4">
    <path d="m47.72 306.38h298.96" fill="none" stroke="#000" stroke-linecap="square" stroke-width=".8"/>
   </g>
   <g id="text_21"><!-- Distribution of switch lags -->
    <defs>
     <path id="DejaVuSans-44" d="m19.672 64.797v-56.688h11.922q15.094 0 22.094 6.8281 7 6.8438 7 21.594 0 14.641-7 21.453t-22.094 6.8125zm-9.8594 8.1094h20.266q21.188 0 31.094-8.8125 9.9219-8.8125 9.9219-27.562 0-18.859-9.9688-27.703-9.9531-8.8281-31.047-8.8281h-20.266z"/>
     <path id="DejaVuSans-62" d="m48.688 27.297q0 9.9062-4.0781 15.547t-11.203 5.6406q-7.1406 0-11.219-5.6406t-4.0781-15.547 4.0781-15.547 11.219-5.6406q7.125 0 11.203 5.6406t4.0781 15.547zm-30.578 19.094q2.8438 4.875 7.1562 7.2344 4.3281 2.375 10.328 2.375 9.9688 0 16.188-7.9062 6.2344-7.9062 6.2344-20.797t-6.2344-20.812q-6.2188-7.9062-16.188-7.9062-6 0-10.328 2.375-4.3125 2.375-7.1562 7.25v-8.2031h-9.0312v75.984h9.0312z"/>
    </defs>
    <g transform="translate(119.26 20.88) scale(.12 -.12)">
     <use xlink:href="#DejaVuSans-44"/>
     <use x="77.001953" xlink:href="#DejaVuSans-69"/>
     <use x="104.785156" xlink:href="#DejaVuSans-73"/>
     <use x="156.884766" xlink:href="#DejaVuSans-74"/>
     <use x="196.09375" xlink:href="#DejaVuSans-72"/>
     <use x="237.207031" xlink:href="#DejaVuSans-69"/>
     <use x="264.990234" xlink:href="#DejaVuSans-62"/>
     <use x="328.466797" xlink:href="#DejaVuSans-75"/>
     <use x="391.845703" xlink:href="#DejaVuSans-74"/>
     <use x="431.054688" xlink:href="#DejaVuSans-69"/>
     <use x="458.837891" xlink:href="#DejaVuSans-6f"/>
     <use x="520.019531" xlink:href="#DejaVuSans-6e"/>
     <use x="583.398438" xlink:href="#DejaVuSans-20"/>
     <use x="615.185547" xlink:href="#DejaVuSans-6f"/>
     <use x="676.367188" xlink:href="#DejaVuSans-66"/>
     <use x="711.572266" xlink:href="#DejaVuSans-20"/>
     <use x="743.359375" xlink:href="#DejaVuSans-73"/>
     <use x="795.458984" xlink:href="#DejaVuSans-77"/>
     <use x="877.246094" xlink:href="#DejaVuSans-69"/>
     <use x="905.029297" xlink:href="#DejaVuSans-74"/>
     <use x="944.238281" xlink:href="#DejaVuSans-63"/>
     <use x="999.21875" xlink:href="#DejaVuSans-68"/>
     <use x="1062.597656" xlink:href="#DejaVuSans-20"/>
     <use x="1094.384766" xlink:href="#DejaVuSans-6c"/>
     <use x="1122.167969" xlink:href="#DejaVuSans-61"/>
     <use x="1183.447266" xlink:href="#DejaVuSans-67"/>
     <use x="1246.923828" xlink:href="#DejaVuSans-73"/>
    </g>
   </g>
  </g>
 </g>
 <defs>
  <clipPath id="p9262b5f9a3">
   <rect x="47.72" y="26.88" width="298.96" height="279.5"/>
  </clipPath>
 </defs>
</svg>
