<svg height="432pt" stroke-linejoin="round" viewBox="0 0 576 432" width="576pt" xmlns="http://www.w3.org/2000/svg" xmlns:xlink="http://www.w3.org/1999/xlink"><defs stroke-linejoin="round"><clipPath id="a" stroke-linejoin="round"><path d="m72 21.6h446.4v356.4h-446.4z"/></clipPath><path id="b" d="m0 0v3.5" stroke="#000" stroke-linejoin="round" stroke-width=".8"/><path id="c" d="m31.781 66.406q-7.6094 0-11.453-7.5-3.8281-7.4844-3.8281-22.531 0-14.984 3.8281-22.484 3.8438-7.5 11.453-7.5 7.6719 0 11.5 7.5 3.8438 7.5 3.8438 22.484 0 15.047-3.8438 22.531-3.8281 7.5-11.5 7.5zm0 7.8125q12.266 0 18.734-9.7031 6.4688-9.6875 6.4688-28.141 0-18.406-6.4688-28.109-6.4688-9.6875-18.734-9.6875-12.25 0-18.719 9.6875-6.4688 9.7031-6.4688 28.109 0 18.453 6.4688 28.141 6.4688 9.7031 18.719 9.7031z" stroke-linejoin="round"/><path id="d" d="m19.188 8.2969h34.422v-8.2969h-46.281v8.2969q5.6094 5.8125 15.297 15.594 9.7031 9.7969 12.188 12.641 4.7344 5.3125 6.6094 9 1.8906 3.6875 1.8906 7.25 0 5.8125-4.0781 9.4688-4.0781 3.6719-10.625 3.6719-4.6406 0-9.7969-1.6094-5.1406-1.6094-11-4.8906v9.9688q5.9531 2.3906 11.125 3.6094 5.1875 1.2188 9.4844 1.2188 11.328 0 18.062-5.6719 6.7344-5.6562 6.7344-15.125 0-4.5-1.6875-8.5312-1.6719-4.0156-6.125-9.4844-1.2188-1.4219-7.7656-8.1875-6.5312-6.7656-18.453-18.922z" stroke-linejoin="round"/><path id="e" d="m37.797 64.312-24.906-38.922h24.906zm-2.5938 8.5938h12.406v-47.516h10.406v-8.2031h-10.406v-17.188h-9.8125v17.188h-32.906v9.5156z" stroke-linejoin="round"/><path id="f" d="m33.016 40.375q-6.6406 0-10.531-4.5469-3.875-4.5312-3.875-12.438 0-7.8594 3.875-12.438 3.8906-4.5625 10.531-4.5625t10.516 4.5625q3.875 4.5781 3.875 12.438 0 7.9062-3.875 12.438-3.875 4.5469-10.516 4.5469zm19.578 30.922v-8.9844q-3.7188 1.75-7.5 2.6719-3.7812.9375-7.5.9375-9.7656 0-14.922-6.5938-5.1406-6.5938-5.875-19.922 2.875 4.25 7.2188 6.5156 4.3594 2.2656 9.5781 2.2656 10.984 0 17.359-6.6719 6.375-6.6562 6.375-18.125 0-11.234-6.6406-18.031-6.6406-6.7812-17.672-6.7812-12.656 0-19.344 9.6875-6.6875 9.7031-6.6875 28.109 0 17.281 8.2031 27.562t22.016 10.281q3.7188 0 7.5-.73438t7.8906-2.1875z" stroke-linejoin="round"/><path id="g" d="m31.781 34.625q-7.0312 0-11.062-3.7656-4.0156-3.7656-4.0156-10.344 0-6.5938 4.0156-10.359 4.0312-3.7656 11.062-3.7656t11.078 3.7812q4.0625 3.7969 4.0625 10.344 0 6.5781-4.0312 10.344-4.0156 3.7656-11.109 3.7656zm-9.8594 4.1875q-6.3438 1.5625-9.8906 5.9062-3.5312 4.3594-3.5312 10.609 0 8.7344 6.2188 13.812 6.2344 5.0781 17.062 5.0781 10.891 0 17.094-5.0781t6.2031-13.812q0-6.25-3.5469-10.609-3.5312-4.3438-9.8281-5.9062 7.125-1.6562 11.094-6.5 3.9844-4.8281 3.9844-11.797 0-10.609-6.4688-16.281-6.4688-5.6562-18.531-5.6562-12.047 0-18.531 5.6562-6.4688 5.6719-6.4688 16.281 0 6.9688 4 11.797 4.0156 4.8438 11.141 6.5zm-3.6094 15.578q0-5.6562 3.5312-8.8281 3.5469-3.1719 9.9375-3.1719 6.3594 0 9.9375 3.1719 3.5938 3.1719 3.5938 8.8281 0 5.6719-3.5938 8.8438-3.5781 3.1719-9.9375 3.1719-6.3906 0-9.9375-3.1719-3.5312-3.1719-3.5312-8.8438z" stroke-linejoin="round"/><path id="h" d="m12.406 8.2969h16.109v55.625l-17.531-3.5156v8.9844l17.438 3.5156h9.8594v-64.609h16.109v-8.2969h-41.984z" stroke-linejoin="round"/><path id="i" d="m18.312 70.219v-15.531h18.5v-6.9844h-18.5v-29.688q0-6.6875 1.8281-8.5938t7.4531-1.9062h9.2188v-7.5156h-9.2188q-10.406 0-14.359 3.875-3.9531 3.8906-3.9531 14.141v29.688h-6.5938v6.9844h6.5938v15.531z" stroke-linejoin="round"/><path id="j" d="m34.281 27.484q-10.891 0-15.094-2.4844t-4.2031-8.5q0-4.7812 3.1562-7.5938 3.1562-2.7969 8.5625-2.7969 7.4844 0 12 5.2969t4.5156 14.078v2zm17.922 3.7188v-31.203h-8.9844v8.2969q-3.0781-4.9688-7.6719-7.3438t-11.234-2.375q-8.3906 0-13.359 4.7188-4.9531 4.7188-4.9531 12.625 0 9.2188 6.1719 13.906 6.1875 4.6875 18.438 4.6875h12.609v.89062q0 6.2031-4.0781 9.5938t-11.453 3.3906q-4.6875 0-9.1406-1.125-4.4375-1.125-8.5312-3.375v8.3125q4.9219 1.9062 9.5625 2.8438 4.6406.95312 9.0312.95312 11.875 0 17.734-6.1562 5.8594-6.1406 5.8594-18.641z" stroke-linejoin="round"/><path id="k" d="m54.891 33.016v-33.016h-8.9844v32.719q0 7.7656-3.0312 11.609-3.0312 3.8594-9.0781 3.8594-7.2812 0-11.484-4.6406-4.2031-4.625-4.2031-12.641v-30.906h-9.0312v54.688h9.0312v-8.5q3.2344 4.9375 7.5938 7.375 4.375 2.4375 10.094 2.4375 9.4219 0 14.25-5.8281 4.8438-5.8281 4.8438-17.156z" stroke-linejoin="round"/><path id="l" d="m45.406 46.391v29.594h8.9844v-75.984h-8.9844v8.2031q-2.8281-4.875-7.1562-7.25-4.3125-2.375-10.375-2.375-9.9062 0-16.141 7.9062-6.2188 7.9219-6.2188 20.812t6.2188 20.797q6.2344 7.9062 16.141 7.9062 6.0625 0 10.375-2.375 4.3281-2.3594 7.1562-7.2344zm-30.609-19.094q0-9.9062 4.0781-15.547t11.203-5.6406 11.219 5.6406q4.1094 5.6406 4.1094 15.547t-4.1094 15.547q-4.0938 5.6406-11.219 5.6406t-11.203-5.6406-4.0781-15.547z" stroke-linejoin="round"/><path id="m" d="m41.109 46.297q-1.5156.875-3.2969 1.2812-1.7812.42188-3.9219.42188-7.625 0-11.703-4.9531t-4.0781-14.234v-28.812h-9.0312v54.688h9.0312v-8.5q2.8438 4.9844 7.375 7.3906 4.5469 2.4219 11.047 2.4219.92188 0 2.0469-.125 1.125-.10938 2.4844-.35938z" stroke-linejoin="round"/><path id="n" d="m56.203 29.594v-4.3906h-41.312q.59375-9.2812 5.5938-14.141t13.938-4.8594q5.1719 0 10.031 1.2656t9.6562 3.8125v-8.5q-4.8438-2.0469-9.9219-3.125t-10.297-1.0781q-13.094 0-20.734 7.6094-7.6406 7.625-7.6406 20.625 0 13.422 7.25 21.297 7.25 7.8906 19.562 7.8906 11.031 0 17.453-7.1094 6.4219-7.0938 6.4219-19.297zm-8.9844 2.6406q-.09375 7.3594-4.125 11.75-4.0312 4.4062-10.672 4.4062-7.5156 0-12.031-4.25t-5.2031-11.969z" stroke-linejoin="round"/><path id="o" d="m2.9844 54.688h9.5156l17.094-45.891 17.094 45.891h9.5156l-20.516-54.688h-12.203z" stroke-linejoin="round"/><path id="p" d="m9.4219 54.688h8.9844v-54.688h-8.9844zm0 21.297h8.9844v-11.391h-8.9844z" stroke-linejoin="round"/><path id="q" d="m0 0h-3.5" stroke="#000" stroke-linejoin="round" stroke-width=".8"/><path id="r" d="m10.688 12.406h10.312v-12.406h-10.312z" stroke-linejoin="round"/></defs><g stroke-linejoin="round"><path d="m0 432h576v-432h-576z" fill="#fff"/><g><path d="m72 378h446.4v-356.4h-446.4z" fill="#fff"/><path clip-path="url(#a)" d="m279.97 378v-356.4h113.87v356.4z" fill="#d3d3d3" opacity=".6" stroke="#d3d3d3"/><path clip-path="url(#a)" d="m279.97 378v-356.4h-113.87v356.4z" fill="#d3d3d3" opacity=".6" stroke="#d3d3d3"/><path clip-path="url(#a)" d="m507.7 378v-356.4h113.87v356.4z" fill="#d3d3d3" opacity=".6" stroke="#d3d3d3"/><path clip-path="url(#a)" d="m52.235 378v-356.4h-113.87v356.4z" fill="#d3d3d3" opacity=".6" stroke="#d3d3d3"/><path clip-path="url(#a)" d="m735.43 378v-356.4h113.87v356.4z" fill="#d3d3d3" opacity=".6" stroke="#d3d3d3"/><path clip-path="url(#a)" d="m-175.5 378v-356.4h-113.87v356.4z" fill="#d3d3d3" opacity=".6" stroke="#d3d3d3"/><path clip-path="url(#a)" d="m963.16 378v-356.4h113.87v356.4z" fill="#d3d3d3" opacity=".6" stroke="#d3d3d3"/><path clip-path="url(#a)" d="m-403.23 378v-356.4h-113.87v356.4z" fill="#d3d3d3" opacity=".6" stroke="#d3d3d3"/><path clip-path="url(#a)" d="m1190.9 378v-356.4h113.87v356.4z" fill="#d3d3d3" opacity=".6" stroke="#d3d3d3"/><path clip-path="url(#a)" d="m-630.96 378v-356.4h-113.87v356.4z" fill="#d3d3d3" opacity=".6" stroke="#d3d3d3"/><path clip-path="url(#a)" d="m87.159 378h35.015v-63.283h-35.015z" fill="#a9a9a9"/><path clip-path="url(#a)" d="m122.17 378h35.015v-212.86h-35.015z" fill="#a9a9a9"/><path clip-path="url(#a)" d="m157.19 378h35.015v-339.43h-35.015z" fill="#a9a9a9"/><path clip-path="url(#a)" d="m192.2 378h35.015v-281.9h-35.015z" fill="#a9a9a9"/><path clip-path="url(#a)" d="m227.22 378h35.015v-316.42h-35.015z" fill="#a9a9a9"/><path clip-path="url(#a)" d="m262.23 378h35.015v-224.37h-35.015z" fill="#a9a9a9"/><path clip-path="url(#a)" d="m297.25 378h35.015v-218.62h-35.015z" fill="#a9a9a9"/><path clip-path="url(#a)" d="m332.26 378h35.015v-143.83h-35.015z" fill="#a9a9a9"/><path clip-path="url(#a)" d="m367.28 378h35.015v-80.542h-35.015z" fill="#a9a9a9"/><path clip-path="url(#a)" d="m402.29 378h35.015v-80.542h-35.015z" fill="#a9a9a9"/><path clip-path="url(#a)" d="m437.31 378h35.015v-34.518h-35.015z" fill="#a9a9a9"/><path clip-path="url(#a)" d="m472.32 378h35.015v-304.91h-35.015z" fill="#a9a9a9"/><g><g><use stroke="#000" stroke-width=".8" x="72" xlink:href="#b" y="378"/><use transform="matrix(.13 0 0 -.13 67.864 394.88)" xlink:href="#c"/></g><g><use stroke="#000" stroke-width=".8" x="149.634783" xlink:href="#b" y="378"/><g transform="matrix(.13 0 0 -.13 141.36 394.88)"><use xlink:href="#d"/><use x="63.623047" xlink:href="#c"/></g></g><g><use stroke="#000" stroke-width=".8" x="227.269565" xlink:href="#b" y="378"/><g transform="matrix(.13 0 0 -.13 219 394.88)"><use xlink:href="#e"/><use x="63.623047" xlink:href="#c"/></g></g><g><use stroke="#000" stroke-width=".8" x="304.904348" xlink:href="#b" y="378"/><g transform="matrix(.13 0 0 -.13 296.63 394.88)"><use xlink:href="#f"/><use x="63.623047" xlink:href="#c"/></g></g><g><use stroke="#000" stroke-width=".8" x="382.53913" xlink:href="#b" y="378"/><g transform="matrix(.13 0 0 -.13 374.27 394.88)"><use xlink:href="#g"/><use x="63.623047" xlink:href="#c"/></g></g><g><use stroke="#000" stroke-width=".8" x="460.173913" xlink:href="#b" y="378"/><g transform="matrix(.13 0 0 -.13 447.77 394.88)"><use xlink:href="#h"/><use x="63.623047" xlink:href="#c"/><use x="127.246094" xlink:href="#c"/></g></g><g transform="matrix(.13 0 0 -.13 198.94 411.46)"><path d="m53.516 70.516v-9.625q-5.6094 2.6875-10.594 4-4.9844 1.3281-9.625 1.3281-8.0469 0-12.422-3.125t-4.375-8.8906q0-4.8438 2.9062-7.3125 2.9062-2.4531 11.016-3.9688l5.9531-1.2188q11.031-2.1094 16.281-7.4062t5.25-14.172q0-10.609-7.1094-16.078-7.0938-5.4688-20.812-5.4688-5.1719 0-11.016 1.1719-5.8281 1.1719-12.078 3.4688v10.156q6-3.3594 11.766-5.0781 5.7656-1.7031 11.328-1.7031 8.4375 0 13.031 3.3125 4.5938 3.3281 4.5938 9.4844 0 5.3594-3.2969 8.3906t-10.812 4.5469l-6.0156 1.1719q-11.031 2.1875-15.969 6.875-4.9219 4.6875-4.9219 13.047 0 9.6719 6.8125 15.234t18.766 5.5625q5.1406 0 10.453-.9375 5.3281-.92188 10.891-2.7656z"/><use x="63.476562" xlink:href="#i"/><use x="102.685547" xlink:href="#j"/><use x="163.964844" xlink:href="#k"/><use x="227.34375" xlink:href="#l"/><use x="290.820312" xlink:href="#j"/><use x="352.099609" xlink:href="#m"/><use x="393.197266" xlink:href="#l"/><use x="488.460938" xlink:href="#l"/><use x="551.9375" xlink:href="#n"/><use x="613.460938" xlink:href="#o"/><use x="672.640625" xlink:href="#p"/><use x="700.423828" xlink:href="#j"/><use x="761.703125" xlink:href="#i"/><use x="800.912109" xlink:href="#p"/><path d="m30.609 48.391q-7.2188 0-11.422-5.6406t-4.2031-15.453 4.1719-15.453q4.1875-5.6406 11.453-5.6406 7.1875 0 11.375 5.6562 4.2031 5.6719 4.2031 15.438 0 9.7188-4.2031 15.406-4.1875 5.6875-11.375 5.6875zm0 7.6094q11.719 0 18.406-7.625 6.7031-7.6094 6.7031-21.078 0-13.422-6.7031-21.078-6.6875-7.6406-18.406-7.6406-11.766 0-18.438 7.6406-6.6562 7.6562-6.6562 21.078 0 13.469 6.6562 21.078 6.6719 7.625 18.438 7.625z" transform="translate(828.695312)"/><use x="889.876953" xlink:href="#k"/><path d="m31 75.875q-6.5312-11.219-9.7188-22.219-3.1719-10.984-3.1719-22.266 0-11.266 3.2031-22.328t9.6875-22.25h-7.8125q-7.3125 11.484-10.953 22.562t-3.6406 22.016q0 10.891 3.6094 21.922 3.625 11.047 10.984 22.562z" transform="translate(985.042969)"/><path d="m48.688 27.297q0 9.9062-4.0781 15.547t-11.203 5.6406q-7.1406 0-11.219-5.6406t-4.0781-15.547 4.0781-15.547 11.219-5.6406q7.125 0 11.203 5.6406t4.0781 15.547zm-30.578 19.094q2.8438 4.875 7.1562 7.2344 4.3281 2.375 10.328 2.375 9.9688 0 16.188-7.9062 6.2344-7.9062 6.2344-20.797t-6.2344-20.812q-6.2188-7.9062-16.188-7.9062-6 0-10.328 2.375-4.3125 2.375-7.1562 7.25v-8.2031h-9.0312v75.984h9.0312z" transform="translate(1024.056641)"/><use x="1087.533203" xlink:href="#p"/><use x="1115.316406" xlink:href="#k"/><path d="m44.281 53.078v-8.5q-3.7969 1.9531-7.9062 2.9219-4.0938.98438-8.5.98438-6.6875 0-10.031-2.0469t-3.3438-6.1562q0-3.125 2.3906-4.9062t9.625-3.3906l3.0781-.6875q9.5625-2.0469 13.594-5.7812t4.0312-10.422q0-7.625-6.0312-12.078-6.0312-4.4375-16.578-4.4375-4.3906 0-9.1562.85938t-10.031 2.5625v9.2812q4.9844-2.5938 9.8125-3.8906 4.8281-1.2812 9.5781-1.2812 6.3438 0 9.75 2.1719 3.4219 2.1719 3.4219 6.125 0 3.6562-2.4688 5.6094-2.4531 1.9531-10.812 3.7656l-3.125.73438q-8.3438 1.75-12.062 5.3906-3.7031 3.6406-3.7031 9.9844 0 7.7188 5.4688 11.906 5.4688 4.2031 15.531 4.2031 4.9688 0 9.3594-.73438 4.4062-.71875 8.1094-2.1875z" transform="translate(1178.695312)"/><path d="m10.594 45.406h62.594v-8.2031h-62.594zm0-19.922h62.594v-8.2969h-62.594z" transform="translate(1230.794922)"/><use x="1314.583984" xlink:href="#h"/><use x="1378.207031" xlink:href="#d"/><path d="m8.0156 75.875h7.8125q7.3125-11.516 10.953-22.562 3.6406-11.031 3.6406-21.922 0-10.938-3.6406-22.016t-10.953-22.562h-7.8125q6.4844 11.188 9.6875 22.25t3.2031 22.328q0 11.281-3.2031 22.266-3.2031 11-9.6875 22.219z" transform="translate(1441.830078)"/></g></g><g><g><use stroke="#000" stroke-width=".8" x="72" xlink:href="#q" y="378"/><g transform="matrix(.13 0 0 -.13 36.055 382.94)"><use xlink:href="#c"/><use x="63.623047" xlink:href="#r"/><use x="95.410156" xlink:href="#c"/><use x="159.033203" xlink:href="#c"/></g></g><g><use stroke="#000" stroke-width=".8" x="72" xlink:href="#q" y="331.975787"/><g transform="matrix(.13 0 0 -.13 36.055 336.91)"><use xlink:href="#c"/><use x="63.623047" xlink:href="#r"/><use x="95.410156" xlink:href="#c"/><use x="159.033203" xlink:href="#d"/></g></g><g><use stroke="#000" stroke-width=".8" x="72" xlink:href="#q" y="285.951574"/><g transform="matrix(.13 0 0 -.13 36.055 290.89)"><use xlink:href="#c"/><use x="63.623047" xlink:href="#r"/><use x="95.410156" xlink:href="#c"/><use x="159.033203" xlink:href="#e"/></g></g><g><use stroke="#000" stroke-width=".8" x="72" xlink:href="#q" y="239.927361"/><g transform="matrix(.13 0 0 -.13 36.055 244.87)"><use xlink:href="#c"/><use x="63.623047" xlink:href="#r"/><use x="95.410156" xlink:href="#c"/><use x="159.033203" xlink:href="#f"/></g></g><g><use stroke="#000" stroke-width=".8" x="72" xlink:href="#q" y="193.903148"/><g transform="matrix(.13 0 0 -.13 36.055 198.84)"><use xlink:href="#c"/><use x="63.623047" xlink:href="#r"/><use x="95.410156" xlink:href="#c"/><use x="159.033203" xlink:href="#g"/></g></g><g><use stroke="#000" stroke-width=".8" x="72" xlink:href="#q" y="147.878935"/><g transform="matrix(.13 0 0 -.13 36.055 152.82)"><use xlink:href="#c"/><use x="63.623047" xlink:href="#r"/><use x="95.410156" xlink:href="#h"/><use x="159.033203" xlink:href="#c"/></g></g><g><use stroke="#000" stroke-width=".8" x="72" xlink:href="#q" y="101.854722"/><g transform="matrix(.13 0 0 -.13 36.055 106.79)"><use xlink:href="#c"/><use x="63.623047" xlink:href="#r"/><use x="95.410156" xlink:href="#h"/><use x="159.033203" xlink:href="#d"/></g></g><g><use stroke="#000" stroke-width=".8" x="72" xlink:href="#q" y="55.830508"/><g transform="matrix(.13 0 0 -.13 36.055 60.769)"><use xlink:href="#c"/><use x="63.623047" xlink:href="#r"/><use x="95.410156" xlink:href="#h"/><use x="159.033203" xlink:href="#e"/></g></g><g transform="matrix(0 -.13 -.13 0 29.351 261.11)"><path d="m44.391 34.188q3.1719-1.0781 6.1719-4.5938t6.0312-9.6719l10.016-19.922h-10.609l-9.3125 18.703q-3.625 7.3281-7.0156 9.7188t-9.25 2.3906h-10.75v-30.812h-9.8594v72.906h22.266q12.5 0 18.656-5.2344 6.1562-5.2188 6.1562-15.766 0-6.8906-3.2031-11.438-3.2031-4.5312-9.2969-6.2812zm-24.719 30.609v-25.875h12.406q7.125 0 10.766 3.2969t3.6406 9.6875-3.6406 9.6406-10.766 3.25z"/><use x="69.419922" xlink:href="#n"/><path d="m9.4219 75.984h8.9844v-75.984h-8.9844z" transform="translate(130.943359)"/><use x="158.726562" xlink:href="#j"/><use x="220.005859" xlink:href="#i"/><use x="259.214844" xlink:href="#p"/><use x="286.998047" xlink:href="#o"/><use x="346.177734" xlink:href="#n"/><path d="m37.109 75.984v-7.4844h-8.5938q-4.8281 0-6.7188-1.9531-1.875-1.9531-1.875-7.0312v-4.8281h14.797v-6.9844h-14.797v-47.703h-9.0312v47.703h-8.5938v6.9844h8.5938v3.8125q0 9.125 4.25 13.297 4.25 4.1875 13.469 4.1875z" transform="translate(439.488281)"/><use x="474.693359" xlink:href="#m"/><use x="515.775391" xlink:href="#n"/><path d="m14.797 27.297q0-9.9062 4.0781-15.547t11.203-5.6406 11.219 5.6406q4.1094 5.6406 4.1094 15.547t-4.1094 15.547q-4.0938 5.6406-11.219 5.6406t-11.203-5.6406-4.0781-15.547zm30.609-19.094q-2.8281-4.875-7.1562-7.25-4.3125-2.375-10.375-2.375-9.9062 0-16.141 7.9062-6.2188 7.9219-6.2188 20.812t6.2188 20.797q6.2344 7.9062 16.141 7.9062 6.0625 0 10.375-2.375 4.3281-2.3594 7.1562-7.2344v8.2969h8.9844v-75.484h-8.9844z" transform="translate(577.298828)"/><path d="m8.5 21.578v33.109h8.9844v-32.766q0-7.7656 3.0156-11.656 3.0312-3.875 9.0938-3.875 7.2656 0 11.484 4.6406 4.2344 4.6406 4.2344 12.656v31h8.9844v-54.688h-8.9844v8.4062q-3.2656-4.9844-7.5938-7.4062-4.3125-2.4219-10.031-2.4219-9.4219 0-14.312 5.8594-4.875 5.8594-4.875 17.141z" transform="translate(640.775391)"/><use x="704.154297" xlink:href="#n"/><use x="765.677734" xlink:href="#k"/><path d="m48.781 52.594v-8.4062q-3.8125 2.1094-7.6406 3.1562t-7.7344 1.0469q-8.75 0-13.594-5.5469-4.8281-5.5312-4.8281-15.547t4.8281-15.562q4.8438-5.5312 13.594-5.5312 3.9062 0 7.7344 1.0469t7.6406 3.1562v-8.3125q-3.7656-1.75-7.7969-2.625-4.0156-.89062-8.5625-.89062-12.359 0-19.641 7.7656-7.2656 7.7656-7.2656 20.953 0 13.375 7.3438 21.031 7.3594 7.6719 20.156 7.6719 4.1406 0 8.0938-.85938 3.9531-.84375 7.6719-2.5469z" transform="translate(829.056641)"/><path d="m32.172-5.0781q-3.7969-9.7656-7.4219-12.734-3.6094-2.9844-9.6562-2.9844h-7.1875v7.5156h5.2812q3.7031 0 5.75 1.7656 2.0625 1.75 4.5469 8.2969l1.6094 4.0938-22.109 53.812h9.5156l17.094-42.766 17.094 42.766h9.5156z" transform="translate(884.037109)"/></g></g><g fill="none"><path clip-path="url(#a)" d="m342.69 378v-7.128" opacity=".7" stroke="#000"/><path clip-path="url(#a)" d="m170.52 378v-7.128" opacity=".7" stroke="#000"/><path clip-path="url(#a)" d="m258.8 378v-7.128" opacity=".7" stroke="#000"/><path clip-path="url(#a)" d="m230.45 378v-7.128" opacity=".7" stroke="#000"/><path clip-path="url(#a)" d="m249.83 378v-7.128" opacity=".7" stroke="#000"/><path clip-path="url(#a)" d="m225.69 378v-7.128" opacity=".7" stroke="#000"/><path clip-path="url(#a)" d="m216.99 378v-7.128" opacity=".7" stroke="#000"/><path clip-path="url(#a)" d="m285.08 378v-7.128" opacity=".7" stroke="#000"/><path clip-path="url(#a)" d="m240.63 378v-7.128" opacity=".7" stroke="#000"/><path clip-path="url(#a)" d="m140.15 378v-7.128" opacity=".7" stroke="#000"/><path clip-path="url(#a)" d="m491.65 378v-7.128" opacity=".7" stroke="#000"/><path clip-path="url(#a)" d="m130.31 378v-7.128" opacity=".7" stroke="#000"/><path clip-path="url(#a)" d="m376.38 378v-7.128" opacity=".7" stroke="#000"/><path clip-path="url(#a)" d="m128.39 378v-7.128" opacity=".7" stroke="#000"/><path clip-path="url(#a)" d="m346.02 378v-7.128" opacity=".7" stroke="#000"/><path clip-path="url(#a)" d="m492.21 378v-7.128" opacity=".7" stroke="#000"/><path clip-path="url(#a)" d="m353.56 378v-7.128" opacity=".7" stroke="#000"/><path clip-path="url(#a)" d="m261.24 378v-7.128" opacity=".7" stroke="#000"/><path clip-path="url(#a)" d="m182.97 378v-7.128" opacity=".7" stroke="#000"/><path clip-path="url(#a)" d="m492.21 378v-7.128" opacity=".7" stroke="#000"/><path clip-path="url(#a)" d="m193.22 378v-7.128" opacity=".7" stroke="#000"/><path clip-path="url(#a)" d="m306.86 378v-7.128" opacity=".7" stroke="#000"/><path clip-path="url(#a)" d="m277.89 378v-7.128" opacity=".7" stroke="#000"/><path clip-path="url(#a)" d="m493.89 378v-7.128" opacity=".7" stroke="#000"/><path clip-path="url(#a)" d="m492.21 378v-7.128" opacity=".7" stroke="#000"/><path clip-path="url(#a)" d="m153.63 378v-7.128" opacity=".7" stroke="#000"/><path clip-path="url(#a)" d="m176.5 378v-7.128" opacity=".7" stroke="#000"/><path clip-path="url(#a)" d="m145.47 378v-7.128" opacity=".7" stroke="#000"/><path clip-path="url(#a)" d="m507.34 378v-7.128" opacity=".7" stroke="#000"/><path clip-path="url(#a)" d="m467.94 378v-7.128" opacity=".7" stroke="#000"/><path clip-path="url(#a)" d="m330.56 378v-7.128" opacity=".7" stroke="#000"/><path clip-path="url(#a)" d="m497.25 378v-7.128" opacity=".7" stroke="#000"/><path clip-path="url(#a)" d="m351.91 378v-7.128" opacity=".7" stroke="#000"/><path clip-path="url(#a)" d="m155.5 378v-7.128" opacity=".7" stroke="#000"/><path clip-path="url(#a)" d="m314.56 378v-7.128" opacity=".7" stroke="#000"/><path clip-path="url(#a)" d="m150.29 378v-7.128" opacity=".7" stroke="#000"/><path clip-path="url(#a)" d="m483.29 378v-7.128" opacity=".7" stroke="#000"/><path clip-path="url(#a)" d="m224.39 378v-7.128" opacity=".7" stroke="#000"/><path clip-path="url(#a)" d="m492.21 378v-7.128" opacity=".7" stroke="#000"/><path clip-path="url(#a)" d="m421.87 378v-7.128" opacity=".7" stroke="#000"/><path clip-path="url(#a)" d="m242.23 378v-7.128" opacity=".7" stroke="#000"/><path clip-path="url(#a)" d="m154.66 378v-7.128" opacity=".7" stroke="#000"/><path clip-path="url(#a)" d="m253.3 378v-7.128" opacity=".7" stroke="#000"/><path clip-path="url(#a)" d="m201.4 378v-7.128" opacity=".7" stroke="#000"/><path clip-path="url(#a)" d="m253.43 378v-7.128" opacity=".7" stroke="#000"/><path clip-path="url(#a)" d="m209.03 378v-7.128" opacity=".7" stroke="#000"/><path clip-path="url(#a)" d="m369.12 378v-7.128" opacity=".7" stroke="#000"/><path clip-path="url(#a)" d="m210.18 378v-7.128" opacity=".7" stroke="#000"/><path clip-path="url(#a)" d="m272.17 378v-7.128" opacity=".7" stroke="#000"/><path clip-path="url(#a)" d="m123.97 378v-7.128" opacity=".7" stroke="#000"/><path clip-path="url(#a)" d="m230.21 378v-7.128" opacity=".7" stroke="#000"/><path clip-path="url(#a)" d="m425.34 378v-7.128" opacity=".7" stroke="#000"/><path clip-path="url(#a)" d="m245.71 378v-7.128" opacity=".7" stroke="#000"/><path clip-path="url(#a)" d="m340.61 378v-7.128" opacity=".7" stroke="#000"/><path clip-path="url(#a)" d="m387.13 378v-7.128" opacity=".7" stroke="#000"/><path clip-path="url(#a)" d="m255.42 378v-7.128" opacity=".7" stroke="#000"/><path clip-path="url(#a)" d="m355.61 378v-7.128" opacity=".7" stroke="#000"/><path clip-path="url(#a)" d="m195.74 378v-7.128" opacity=".7" stroke="#000"/><path clip-path="url(#a)" d="m181.29 378v-7.128" opacity=".7" stroke="#000"/><path clip-path="url(#a)" d="m176.27 378v-7.128" opacity=".7" stroke="#000"/><path clip-path="url(#a)" d="m437.95 378v-7.128" opacity=".7" stroke="#000"/><path clip-path="url(#a)" d="m156.04 378v-7.128" opacity=".7" stroke="#000"/><path clip-path="url(#a)" d="m167.66 378v-7.128" opacity=".7" stroke="#000"/><path clip-path="url(#a)" d="m155.72 378v-7.128" opacity=".7" stroke="#000"/><path clip-path="url(#a)" d="m272.86 378v-7.128" opacity=".7" stroke="#000"/><path clip-path="url(#a)" d="m167.57 378v-7.128" opacity=".7" stroke="#000"/><path clip-path="url(#a)" d="m264.66 378v-7.128" opacity=".7" stroke="#000"/><path clip-path="url(#a)" d="m160.11 378v-7.128" opacity=".7" stroke="#000"/><path clip-path="url(#a)" d="m369.03 378v-7.128" opacity=".7" stroke="#000"/><path clip-path="url(#a)" d="m307.33 378v-7.128" opacity=".7" stroke="#000"/><path clip-path="url(#a)" d="m493.89 378v-7.128" opacity=".7" stroke="#000"/><path clip-path="url(#a)" d="m492.21 378v-7.128" opacity=".7" stroke="#000"/><path clip-path="url(#a)" d="m296.08 378v-7.128" opacity=".7" stroke="#000"/><path clip-path="url(#a)" d="m325.44 378v-7.128" opacity=".7" stroke="#000"/><path clip-path="url(#a)" d="m278.51 378v-7.128" opacity=".7" stroke="#000"/><path clip-path="url(#a)" d="m205.19 378v-7.128" opacity=".7" stroke="#000"/><path clip-path="url(#a)" d="m427.82 378v-7.128" opacity=".7" stroke="#000"/><path clip-path="url(#a)" d="m169.84 378v-7.128" opacity=".7" stroke="#000"/><path clip-path="url(#a)" d="m331.56 378v-7.128" opacity=".7" stroke="#000"/><path clip-path="url(#a)" d="m276.25 378v-7.128" opacity=".7" stroke="#000"/><path clip-path="url(#a)" d="m134.91 378v-7.128" opacity=".7" stroke="#000"/><path clip-path="url(#a)" d="m314.17 378v-7.128" opacity=".7" stroke="#000"/><path clip-path="url(#a)" d="m503.98 378v-7.128" opacity=".7" stroke="#000"/><path clip-path="url(#a)" d="m119.65 378v-7.128" opacity=".7" stroke="#000"/><path clip-path="url(#a)" d="m492.21 378v-7.128" opacity=".7" stroke="#000"/><path clip-path="url(#a)" d="m283.37 378v-7.128" opacity=".7" stroke="#000"/><path clip-path="url(#a)" d="m492.21 378v-7.128" opacity=".7" stroke="#000"/><path clip-path="url(#a)" d="m493.89 378v-7.128" opacity=".7" stroke="#000"/><path clip-path="url(#a)" d="m175.34 378v-7.128" opacity=".7" stroke="#000"/><path clip-path="url(#a)" d="m259.06 378v-7.128" opacity=".7" stroke="#000"/><path clip-path="url(#a)" d="m385.57 378v-7.128" opacity=".7" stroke="#000"/><path clip-path="url(#a)" d="m253.39 378v-7.128" opacity=".7" stroke="#000"/><path clip-path="url(#a)" d="m336.08 378v-7.128" opacity=".7" stroke="#000"/><path clip-path="url(#a)" d="m359.96 378v-7.128" opacity=".7" stroke="#000"/><path clip-path="url(#a)" d="m232.67 378v-7.128" opacity=".7" stroke="#000"/><path clip-path="url(#a)" d="m292.69 378v-7.128" opacity=".7" stroke="#000"/><path clip-path="url(#a)" d="m493.89 378v-7.128" opacity=".7" stroke="#000"/><path clip-path="url(#a)" d="m371.05 378v-7.128" opacity=".7" stroke="#000"/><path clip-path="url(#a)" d="m317.37 378v-7.128" opacity=".7" stroke="#000"/><path clip-path="url(#a)" d="m151.19 378v-7.128" opacity=".7" stroke="#000"/><path clip-path="url(#a)" d="m228.1 378v-7.128" opacity=".7" stroke="#000"/><path clip-path="url(#a)" d="m183.58 378v-7.128" opacity=".7" stroke="#000"/><path clip-path="url(#a)" d="m256.97 378v-7.128" opacity=".7" stroke="#000"/><path clip-path="url(#a)" d="m268.22 378v-7.128" opacity=".7" stroke="#000"/><path clip-path="url(#a)" d="m340.62 378v-7.128" opacity=".7" stroke="#000"/><path clip-path="url(#a)" d="m492.21 378v-7.128" opacity=".7" stroke="#000"/><path clip-path="url(#a)" d="m492.21 378v-7.128" opacity=".7" stroke="#000"/><path clip-path="url(#a)" d="m492.21 378v-7.128" opacity=".7" stroke="#000"/><path clip-path="url(#a)" d="m247.83 378v-7.128" opacity=".7" stroke="#000"/><path clip-path="url(#a)" d="m309.78 378v-7.128" opacity=".7" stroke="#000"/><path clip-path="url(#a)" d="m249.34 378v-7.128" opacity=".7" stroke="#000"/><path clip-path="url(#a)" d="m215.45 378v-7.128" opacity=".7" stroke="#000"/><path clip-path="url(#a)" d="m173.13 378v-7.128" opacity=".7" stroke="#000"/><path clip-path="url(#a)" d="m100.04 378v-7.128" opacity=".7" stroke="#000"/><path clip-path="url(#a)" d="m157.77 378v-7.128" opacity=".7" stroke="#000"/><path clip-path="url(#a)" d="m178.39 378v-7.128" opacity=".7" stroke="#000"/><path clip-path="url(#a)" d="m158.17 378v-7.128" opacity=".7" stroke="#000"/><path clip-path="url(#a)" d="m268.45 378v-7.128" opacity=".7" stroke="#000"/><path clip-path="url(#a)" d="m349.38 378v-7.128" opacity=".7" stroke="#000"/><path clip-path="url(#a)" d="m116.3 378v-7.128" opacity=".7" stroke="#000"/><path clip-path="url(#a)" d="m142.27 378v-7.128" opacity=".7" stroke="#000"/><path clip-path="url(#a)" d="m493.89 378v-7.128" opacity=".7" stroke="#000"/><path clip-path="url(#a)" d="m492.21 378v-7.128" opacity=".7" stroke="#000"/><path clip-path="url(#a)" d="m164.78 378v-7.128" opacity=".7" stroke="#000"/><path clip-path="url(#a)" d="m269.87 378v-7.128" opacity=".7" stroke="#000"/><path clip-path="url(#a)" d="m348.96 378v-7.128" opacity=".7" stroke="#000"/><path clip-path="url(#a)" d="m299.81 378v-7.128" opacity=".7" stroke="#000"/><path clip-path="url(#a)" d="m301.72 378v-7.128" opacity=".7" stroke="#000"/><path clip-path="url(#a)" d="m238.97 378v-7.128" opacity=".7" stroke="#000"/><path clip-path="url(#a)" d="m323.29 378v-7.128" opacity=".7" stroke="#000"/><path clip-path="url(#a)" d="m173.69 378v-7.128" opacity=".7" stroke="#000"/><path clip-path="url(#a)" d="m492.21 378v-7.128" opacity=".7" stroke="#000"/><path clip-path="url(#a)" d="m304.99 378v-7.128" opacity=".7" stroke="#000"/><path clip-path="url(#a)" d="m281.56 378v-7.128" opacity=".7" stroke="#000"/><path clip-path="url(#a)" d="m190.23 378v-7.128" opacity=".7" stroke="#000"/><path clip-path="url(#a)" d="m214.24 378v-7.128" opacity=".7" stroke="#000"/><path clip-path="url(#a)" d="m497.25 378v-7.128" opacity=".7" stroke="#000"/><path clip-path="url(#a)" d="m175.6 378v-7.128" opacity=".7" stroke="#000"/><path clip-path="url(#a)" d="m498.93 378v-7.128" opacity=".7" stroke="#000"/><path clip-path="url(#a)" d="m493.89 378v-7.128" opacity=".7" stroke="#000"/><path clip-path="url(#a)" d="m249.39 378v-7.128" opacity=".7" stroke="#000"/><path clip-path="url(#a)" d="m194.36 378v-7.128" opacity=".7" stroke="#000"/><path clip-path="url(#a)" d="m185.75 378v-7.128" opacity=".7" stroke="#000"/><path clip-path="url(#a)" d="m179.4 378v-7.128" opacity=".7" stroke="#000"/><path clip-path="url(#a)" d="m476.54 378v-7.128" opacity=".7" stroke="#000"/><path clip-path="url(#a)" d="m261.06 378v-7.128" opacity=".7" stroke="#000"/><path clip-path="url(#a)" d="m199.16 378v-7.128" opacity=".7" stroke="#000"/><path clip-path="url(#a)" d="m390.92 378v-7.128" opacity=".7" stroke="#000"/><path clip-path="url(#a)" d="m196.25 378v-7.128" opacity=".7" stroke="#000"/><path clip-path="url(#a)" d="m131.21 378v-7.128" opacity=".7" stroke="#000"/><path clip-path="url(#a)" d="m493.89 378v-7.128" opacity=".7" stroke="#000"/><path clip-path="url(#a)" d="m492.21 378v-7.128" opacity=".7" stroke="#000"/><path clip-path="url(#a)" d="m391.96 378v-7.128" opacity=".7" stroke="#000"/><path clip-path="url(#a)" d="m309.48 378v-7.128" opacity=".7" stroke="#000"/><path clip-path="url(#a)" d="m192.41 378v-7.128" opacity=".7" stroke="#000"/><path clip-path="url(#a)" d="m135.46 378v-7.128" opacity=".7" stroke="#000"/><path clip-path="url(#a)" d="m147.14 378v-7.128" opacity=".7" stroke="#000"/><path clip-path="url(#a)" d="m188.92 378v-7.128" opacity=".7" stroke="#000"/><path clip-path="url(#a)" d="m213.9 378v-7.128" opacity=".7" stroke="#000"/><path clip-path="url(#a)" d="m252.38 378v-7.128" opacity=".7" stroke="#000"/><path clip-path="url(#a)" d="m114.92 378v-7.128" opacity=".7" stroke="#000"/><path clip-path="url(#a)" d="m178.68 378v-7.128" opacity=".7" stroke="#000"/><path clip-path="url(#a)" d="m150.05 378v-7.128" opacity=".7" stroke="#000"/><path clip-path="url(#a)" d="m308.92 378v-7.128" opacity=".7" stroke="#000"/><path clip-path="url(#a)" d="m187.17 378v-7.128" opacity=".7" stroke="#000"/><path clip-path="url(#a)" d="m474.48 378v-7.128" opacity=".7" stroke="#000"/><path clip-path="url(#a)" d="m330.29 378v-7.128" opacity=".7" stroke="#000"/><path clip-path="url(#a)" d="m228.78 378v-7.128" opacity=".7" stroke="#000"/><path clip-path="url(#a)" d="m168.54 378v-7.128" opacity=".7" stroke="#000"/><path clip-path="url(#a)" d="m151.58 378v-7.128" opacity=".7" stroke="#000"/><path clip-path="url(#a)" d="m200.46 378v-7.128" opacity=".7" stroke="#000"/><path clip-path="url(#a)" d="m199.23 378v-7.128" opacity=".7" stroke="#000"/><path clip-path="url(#a)" d="m303.03 378v-7.128" opacity=".7" stroke="#000"/><path clip-path="url(#a)" d="m142.05 378v-7.128" opacity=".7" stroke="#000"/><path clip-path="url(#a)" d="m374.78 378v-7.128" opacity=".7" stroke="#000"/><path clip-path="url(#a)" d="m349.4 378v-7.128" opacity=".7" stroke="#000"/><path clip-path="url(#a)" d="m446.25 378v-7.128" opacity=".7" stroke="#000"/><path clip-path="url(#a)" d="m493.89 378v-7.128" opacity=".7" stroke="#000"/><path clip-path="url(#a)" d="m181.4 378v-7.128" opacity=".7" stroke="#000"/><path clip-path="url(#a)" d="m262.97 378v-7.128" opacity=".7" stroke="#000"/><path clip-path="url(#a)" d="m313.87 378v-7.128" opacity=".7" stroke="#000"/><path clip-path="url(#a)" d="m261.72 378v-7.128" opacity=".7" stroke="#000"/><path clip-path="url(#a)" d="m446.63 378v-7.128" opacity=".7" stroke="#000"/><path clip-path="url(#a)" d="m241.68 378v-7.128" opacity=".7" stroke="#000"/><path clip-path="url(#a)" d="m296.24 378v-7.128" opacity=".7" stroke="#000"/><path clip-path="url(#a)" d="m118.62 378v-7.128" opacity=".7" stroke="#000"/><path clip-path="url(#a)" d="m219.16 378v-7.128" opacity=".7" stroke="#000"/><path clip-path="url(#a)" d="m198.9 378v-7.128" opacity=".7" stroke="#000"/><path clip-path="url(#a)" d="m177.11 378v-7.128" opacity=".7" stroke="#000"/><path clip-path="url(#a)" d="m492.21 378v-7.128" opacity=".7" stroke="#000"/><path clip-path="url(#a)" d="m146.92 378v-7.128" opacity=".7" stroke="#000"/><path clip-path="url(#a)" d="m245.28 378v-7.128" opacity=".7" stroke="#000"/><path clip-path="url(#a)" d="m406.72 378v-7.128" opacity=".7" stroke="#000"/><path clip-path="url(#a)" d="m492.21 378v-7.128" opacity=".7" stroke="#000"/><path clip-path="url(#a)" d="m212.32 378v-7.128" opacity=".7" stroke="#000"/><path clip-path="url(#a)" d="m493.89 378v-7.128" opacity=".7" stroke="#000"/><path clip-path="url(#a)" d="m403.11 378v-7.128" opacity=".7" stroke="#000"/><path clip-path="url(#a)" d="m447.89 378v-7.128" opacity=".7" stroke="#000"/><path clip-path="url(#a)" d="m493.89 378v-7.128" opacity=".7" stroke="#000"/><path clip-path="url(#a)" d="m222.88 378v-7.128" opacity=".7" stroke="#000"/><path clip-path="url(#a)" d="m210.59 378v-7.128" opacity=".7" stroke="#000"/><path clip-path="url(#a)" d="m196.75 378v-7.128" opacity=".7" stroke="#000"/><path clip-path="url(#a)" d="m428.41 378v-7.128" opacity=".7" stroke="#000"/><path clip-path="url(#a)" d="m342 378v-7.128" opacity=".7" stroke="#000"/><path clip-path="url(#a)" d="m136.58 378v-7.128" opacity=".7" stroke="#000"/><path clip-path="url(#a)" d="m174.28 378v-7.128" opacity=".7" stroke="#000"/><path clip-path="url(#a)" d="m364.3 378v-7.128" opacity=".7" stroke="#000"/><path clip-path="url(#a)" d="m183.65 378v-7.128" opacity=".7" stroke="#000"/><path clip-path="url(#a)" d="m310.54 378v-7.128" opacity=".7" stroke="#000"/><path clip-path="url(#a)" d="m162.56 378v-7.128" opacity=".7" stroke="#000"/><path clip-path="url(#a)" d="m436.28 378v-7.128" opacity=".7" stroke="#000"/><path clip-path="url(#a)" d="m240.61 378v-7.128" opacity=".7" stroke="#000"/><path clip-path="url(#a)" d="m168.6 378v-7.128" opacity=".7" stroke="#000"/><path clip-path="url(#a)" d="m285.65 378v-7.128" opacity=".7" stroke="#000"/><path clip-path="url(#a)" d="m259.88 378v-7.128" opacity=".7" stroke="#000"/><path clip-path="url(#a)" d="m153.26 378v-7.128" opacity=".7" stroke="#000"/><path clip-path="url(#a)" d="m213.1 378v-7.128" opacity=".7" stroke="#000"/><path clip-path="url(#a)" d="m322.34 378v-7.128" opacity=".7" stroke="#000"/><path clip-path="url(#a)" d="m306.94 378v-7.128" opacity=".7" stroke="#000"/><path clip-path="url(#a)" d="m211.49 378v-7.128" opacity=".7" stroke="#000"/><path clip-path="url(#a)" d="m160.2 378v-7.128" opacity=".7" stroke="#000"/><path clip-path="url(#a)" d="m492.21 378v-7.128" opacity=".7" stroke="#000"/><path clip-path="url(#a)" d="m174.72 378v-7.128" opacity=".7" stroke="#000"/><path clip-path="url(#a)" d="m229.9 378v-7.128" opacity=".7" stroke="#000"/><path clip-path="url(#a)" d="m389.15 378v-7.128" opacity=".7" stroke="#000"/><path clip-path="url(#a)" d="m246.65 378v-7.128" opacity=".7" stroke="#000"/><path clip-path="url(#a)" d="m325.08 378v-7.128" opacity=".7" stroke="#000"/><path clip-path="url(#a)" d="m239.53 378v-7.128" opacity=".7" stroke="#000"/><path clip-path="url(#a)" d="m241.12 378v-7.128" opacity=".7" stroke="#000"/><path clip-path="url(#a)" d="m161.81 378v-7.128" opacity=".7" stroke="#000"/><path clip-path="url(#a)" d="m492.21 378v-7.128" opacity=".7" stroke="#000"/><path clip-path="url(#a)" d="m367.22 378v-7.128" opacity=".7" stroke="#000"/><path clip-path="url(#a)" d="m337.18 378v-7.128" opacity=".7" stroke="#000"/><path clip-path="url(#a)" d="m234.63 378v-7.128" opacity=".7" stroke="#000"/><path clip-path="url(#a)" d="m172.35 378v-7.128" opacity=".7" stroke="#000"/><path clip-path="url(#a)" d="m258.86 378v-7.128" opacity=".7" stroke="#000"/><path clip-path="url(#a)" d="m222.3 378v-7.128" opacity=".7" stroke="#000"/><path clip-path="url(#a)" d="m320.74 378v-7.128" opacity=".7" stroke="#000"/><path clip-path="url(#a)" d="m276.68 378v-7.128" opacity=".7" stroke="#000"/><path clip-path="url(#a)" d="m172.68 378v-7.128" opacity=".7" stroke="#000"/><path clip-path="url(#a)" d="m139.49 378v-7.128" opacity=".7" stroke="#000"/><path clip-path="url(#a)" d="m265.75 378v-7.128" opacity=".7" stroke="#000"/><path clip-path="url(#a)" d="m229.33 378v-7.128" opacity=".7" stroke="#000"/><path clip-path="url(#a)" d="m287.02 378v-7.128" opacity=".7" stroke="#000"/><path clip-path="url(#a)" d="m366.25 378v-7.128" opacity=".7" stroke="#000"/><path clip-path="url(#a)" d="m289.04 378v-7.128" opacity=".7" stroke="#000"/><path clip-path="url(#a)" d="m276.7 378v-7.128" opacity=".7" stroke="#000"/><path clip-path="url(#a)" d="m278.09 378v-7.128" opacity=".7" stroke="#000"/><path clip-path="url(#a)" d="m234.12 378v-7.128" opacity=".7" stroke="#000"/><path clip-path="url(#a)" d="m235.09 378v-7.128" opacity=".7" stroke="#000"/><path clip-path="url(#a)" d="m152.38 378v-7.128" opacity=".7" stroke="#000"/><path clip-path="url(#a)" d="m235.99 378v-7.128" opacity=".7" stroke="#000"/><path clip-path="url(#a)" d="m149.37 378v-7.128" opacity=".7" stroke="#000"/><path clip-path="url(#a)" d="m290.91 378v-7.128" opacity=".7" stroke="#000"/><path clip-path="url(#a)" d="m150.24 378v-7.128" opacity=".7" stroke="#000"/><path clip-path="url(#a)" d="m167.89 378v-7.128" opacity=".7" stroke="#000"/><path clip-path="url(#a)" d="m231.31 378v-7.128" opacity=".7" stroke="#000"/><path clip-path="url(#a)" d="m127.75 378v-7.128" opacity=".7" stroke="#000"/><path clip-path="url(#a)" d="m216.27 378v-7.128" opacity=".7" stroke="#000"/><path clip-path="url(#a)" d="m424.05 378v-7.128" opacity=".7" stroke="#000"/><path clip-path="url(#a)" d="m264.38 378v-7.128" opacity=".7" stroke="#000"/><path clip-path="url(#a)" d="m278.6 378v-7.128" opacity=".7" stroke="#000"/><path clip-path="url(#a)" d="m267.66 378v-7.128" opacity=".7" stroke="#000"/><path clip-path="url(#a)" d="m210.24 378v-7.128" opacity=".7" stroke="#000"/><path clip-path="url(#a)" d="m240.68 378v-7.128" opacity=".7" stroke="#000"/><path clip-path="url(#a)" d="m148.34 378v-7.128" opacity=".7" stroke="#000"/><path clip-path="url(#a)" d="m492.21 378v-7.128" opacity=".7" stroke="#000"/><path clip-path="url(#a)" d="m312.43 378v-7.128" opacity=".7" stroke="#000"/><path clip-path="url(#a)" d="m342.73 378v-7.128" opacity=".7" stroke="#000"/><path clip-path="url(#a)" d="m157.82 378v-7.128" opacity=".7" stroke="#000"/><path clip-path="url(#a)" d="m211 378v-7.128" opacity=".7" stroke="#000"/><path clip-path="url(#a)" d="m316.06 378v-7.128" opacity=".7" stroke="#000"/><path clip-path="url(#a)" d="m385.55 378v-7.128" opacity=".7" stroke="#000"/><path clip-path="url(#a)" d="m243.73 378v-7.128" opacity=".7" stroke="#000"/><path clip-path="url(#a)" d="m425.24 378v-7.128" opacity=".7" stroke="#000"/><path clip-path="url(#a)" d="m225.25 378v-7.128" opacity=".7" stroke="#000"/><path clip-path="url(#a)" d="m292.84 378v-7.128" opacity=".7" stroke="#000"/><path clip-path="url(#a)" d="m267.72 378v-7.128" opacity=".7" stroke="#000"/><path clip-path="url(#a)" d="m220.36 378v-7.128" opacity=".7" stroke="#000"/><path clip-path="url(#a)" d="m492.21 378v-7.128" opacity=".7" stroke="#000"/><path clip-path="url(#a)" d="m172.08 378v-7.128" opacity=".7" stroke="#000"/><path clip-path="url(#a)" d="m324.31 378v-7.128" opacity=".7" stroke="#000"/><path clip-path="url(#a)" d="m288.15 378v-7.128" opacity=".7" stroke="#000"/><path clip-path="url(#a)" d="m188.11 378v-7.128" opacity=".7" stroke="#000"/><path clip-path="url(#a)" d="m357.81 378v-7.128" opacity=".7" stroke="#000"/><path clip-path="url(#a)" d="m180.91 378v-7.128" opacity=".7" stroke="#000"/><path clip-path="url(#a)" d="m305.27 378v-7.128" opacity=".7" stroke="#000"/><path clip-path="url(#a)" d="m87.159 378v-7.128" opacity=".7" stroke="#000"/><path clip-path="url(#a)" d="m275.12 378v-7.128" opacity=".7" stroke="#000"/><path clip-path="url(#a)" d="m202.9 378v-7.128" opacity=".7" stroke="#000"/><path clip-path="url(#a)" d="m157.24 378v-7.128" opacity=".7" stroke="#000"/><path clip-path="url(#a)" d="m193.28 378v-7.128" opacity=".7" stroke="#000"/><path clip-path="url(#a)" d="m492.21 378v-7.128" opacity=".7" stroke="#000"/><path clip-path="url(#a)" d="m189.31 378v-7.128" opacity=".7" stroke="#000"/><path clip-path="url(#a)" d="m278.96 378v-7.128" opacity=".7" stroke="#000"/><path clip-path="url(#a)" d="m336.73 378v-7.128" opacity=".7" stroke="#000"/><path clip-path="url(#a)" d="m354.52 378v-7.128" opacity=".7" stroke="#000"/><path clip-path="url(#a)" d="m141.79 378v-7.128" opacity=".7" stroke="#000"/><path clip-path="url(#a)" d="m240.94 378v-7.128" opacity=".7" stroke="#000"/><path clip-path="url(#a)" d="m205.61 378v-7.128" opacity=".7" stroke="#000"/><path clip-path="url(#a)" d="m138.19 378v-7.128" opacity=".7" stroke="#000"/><path clip-path="url(#a)" d="m492.21 378v-7.128" opacity=".7" stroke="#000"/><path clip-path="url(#a)" d="m178.18 378v-7.128" opacity=".7" stroke="#000"/><path clip-path="url(#a)" d="m492.21 378v-7.128" opacity=".7" stroke="#000"/><path clip-path="url(#a)" d="m309.27 378v-7.128" opacity=".7" stroke="#000"/><path clip-path="url(#a)" d="m421.24 378v-7.128" opacity=".7" stroke="#000"/><path clip-path="url(#a)" d="m214.53 378v-7.128" opacity=".7" stroke="#000"/><path clip-path="url(#a)" d="m209.36 378v-7.128" opacity=".7" stroke="#000"/><path clip-path="url(#a)" d="m430.18 378v-7.128" opacity=".7" stroke="#000"/><path clip-path="url(#a)" d="m363.29 378v-7.128" opacity=".7" stroke="#000"/><path clip-path="url(#a)" d="m114.3 378v-7.128" opacity=".7" stroke="#000"/><path clip-path="url(#a)" d="m275.46 378v-7.128" opacity=".7" stroke="#000"/><path clip-path="url(#a)" d="m261.78 378v-7.128" opacity=".7" stroke="#000"/><path clip-path="url(#a)" d="m160.41 378v-7.128" opacity=".7" stroke="#000"/><path clip-path="url(#a)" d="m168.44 378v-7.128" opacity=".7" stroke="#000"/><path clip-path="url(#a)" d="m146.59 378v-7.128" opacity=".7" stroke="#000"/><path clip-path="url(#a)" d="m231.45 378v-7.128" opacity=".7" stroke="#000"/><path clip-path="url(#a)" d="m198.57 378v-7.128" opacity=".7" stroke="#000"/><path clip-path="url(#a)" d="m492.21 378v-7.128" opacity=".7" stroke="#000"/><path clip-path="url(#a)" d="m268.87 378v-7.128" opacity=".7" stroke="#000"/><path clip-path="url(#a)" d="m164.21 378v-7.128" opacity=".7" stroke="#000"/><path clip-path="url(#a)" d="m182.77 378v-7.128" opacity=".7" stroke="#000"/><path clip-path="url(#a)" d="m391.51 378v-7.128" opacity=".7" stroke="#000"/><path clip-path="url(#a)" d="m416.34 378v-7.128" opacity=".7" stroke="#000"/><path clip-path="url(#a)" d="m196.29 378v-7.128" opacity=".7" stroke="#000"/><path clip-path="url(#a)" d="m335.42 378v-7.128" opacity=".7" stroke="#000"/><path clip-path="url(#a)" d="m111.82 378v-7.128" opacity=".7" stroke="#000"/><path clip-path="url(#a)" d="m188.47 378v-7.128" opacity=".7" stroke="#000"/><path clip-path="url(#a)" d="m173.13 378v-7.128" opacity=".7" stroke="#000"/><path clip-path="url(#a)" d="m492.21 378v-7.128" opacity=".7" stroke="#000"/><path clip-path="url(#a)" d="m122.05 378v-7.128" opacity=".7" stroke="#000"/><path clip-path="url(#a)" d="m492.21 378v-7.128" opacity=".7" stroke="#000"/><path clip-path="url(#a)" d="m177.68 378v-7.128" opacity=".7" stroke="#000"/><path clip-path="url(#a)" d="m162.97 378v-7.128" opacity=".7" stroke="#000"/><path clip-path="url(#a)" d="m157.16 378v-7.128" opacity=".7" stroke="#000"/><path clip-path="url(#a)" d="m228.59 378v-7.128" opacity=".7" stroke="#000"/><path clip-path="url(#a)" d="m218.21 378v-7.128" opacity=".7" stroke="#000"/><path clip-path="url(#a)" d="m344.96 378v-7.128" opacity=".7" stroke="#000"/><path clip-path="url(#a)" d="m196.35 378v-7.128" opacity=".7" stroke="#000"/><path clip-path="url(#a)" d="m191.6 378v-7.128" opacity=".7" stroke="#000"/><path clip-path="url(#a)" d="m472.13 378v-7.128" opacity=".7" stroke="#000"/><path clip-path="url(#a)" d="m221.25 378v-7.128" opacity=".7" stroke="#000"/><path clip-path="url(#a)" d="m208.54 378v-7.128" opacity=".7" stroke="#000"/><path clip-path="url(#a)" d="m492.21 378v-7.128" opacity=".7" stroke="#000"/><path clip-path="url(#a)" d="m216.99 378v-7.128" opacity=".7" stroke="#000"/><path clip-path="url(#a)" d="m492.21 378v-7.128" opacity=".7" stroke="#000"/><path clip-path="url(#a)" d="m299.18 378v-7.128" opacity=".7" stroke="#000"/><path clip-path="url(#a)" d="m382.52 378v-7.128" opacity=".7" stroke="#000"/><path clip-path="url(#a)" d="m311.58 378v-7.128" opacity=".7" stroke="#000"/><path clip-path="url(#a)" d="m210.35 378v-7.128" opacity=".7" stroke="#000"/><path clip-path="url(#a)" d="m304.46 378v-7.128" opacity=".7" stroke="#000"/><path clip-path="url(#a)" d="m492.21 378v-7.128" opacity=".7" stroke="#000"/><path clip-path="url(#a)" d="m492.21 378v-7.128" opacity=".7" stroke="#000"/><path clip-path="url(#a)" d="m131.92 378v-7.128" opacity=".7" stroke="#000"/><path clip-path="url(#a)" d="m301.56 378v-7.128" opacity=".7" stroke="#000"/><path clip-path="url(#a)" d="m331.1 378v-7.128" opacity=".7" stroke="#000"/><path clip-path="url(#a)" d="m492.21 378v-7.128" opacity=".7" stroke="#000"/><path clip-path="url(#a)" d="m419.31 378v-7.128" opacity=".7" stroke="#000"/><path clip-path="url(#a)" d="m88.808 378v-7.128" opacity=".7" stroke="#000"/><path clip-path="url(#a)" d="m230.21 378v-7.128" opacity=".7" stroke="#000"/><path clip-path="url(#a)" d="m315.17 378v-7.128" opacity=".7" stroke="#000"/><path clip-path="url(#a)" d="m245.95 378v-7.128" opacity=".7" stroke="#000"/><path clip-path="url(#a)" d="m239.53 378v-7.128" opacity=".7" stroke="#000"/><path clip-path="url(#a)" d="m299.1 378v-7.128" opacity=".7" stroke="#000"/><path clip-path="url(#a)" d="m279.4 378v-7.128" opacity=".7" stroke="#000"/><path clip-path="url(#a)" d="m269.22 378v-7.128" opacity=".7" stroke="#000"/><path clip-path="url(#a)" d="m274.08 378v-7.128" opacity=".7" stroke="#000"/><path clip-path="url(#a)" d="m226.84 378v-7.128" opacity=".7" stroke="#000"/><path clip-path="url(#a)" d="m389.95 378v-7.128" opacity=".7" stroke="#000"/><path clip-path="url(#a)" d="m245.65 378v-7.128" opacity=".7" stroke="#000"/><path clip-path="url(#a)" d="m220.59 378v-7.128" opacity=".7" stroke="#000"/><path clip-path="url(#a)" d="m163.59 378v-7.128" opacity=".7" stroke="#000"/><path clip-path="url(#a)" d="m173.91 378v-7.128" opacity=".7" stroke="#000"/><path clip-path="url(#a)" d="m174.43 378v-7.128" opacity=".7" stroke="#000"/><path clip-path="url(#a)" d="m320.74 378v-7.128" opacity=".7" stroke="#000"/><path clip-path="url(#a)" d="m301.03 378v-7.128" opacity=".7" stroke="#000"/><path clip-path="url(#a)" d="m418.38 378v-7.128" opacity=".7" stroke="#000"/><path clip-path="url(#a)" d="m181.95 378v-7.128" opacity=".7" stroke="#000"/><path clip-path="url(#a)" d="m140.21 378v-7.128" opacity=".7" stroke="#000"/><path clip-path="url(#a)" d="m142.97 378v-7.128" opacity=".7" stroke="#000"/><path clip-path="url(#a)" d="m492.21 378v-7.128" opacity=".7" stroke="#000"/><path clip-path="url(#a)" d="m202.96 378v-7.128" opacity=".7" stroke="#000"/><path clip-path="url(#a)" d="m194.15 378v-7.128" opacity=".7" stroke="#000"/><path clip-path="url(#a)" d="m180.15 378v-7.128" opacity=".7" stroke="#000"/><path clip-path="url(#a)" d="m103.11 378v-7.128" opacity=".7" stroke="#000"/><path clip-path="url(#a)" d="m320.65 378v-7.128" opacity=".7" stroke="#000"/><path clip-path="url(#a)" d="m230.02 378v-7.128" opacity=".7" stroke="#000"/><path clip-path="url(#a)" d="m492.21 378v-7.128" opacity=".7" stroke="#000"/><path clip-path="url(#a)" d="m136.58 378v-7.128" opacity=".7" stroke="#000"/><path clip-path="url(#a)" d="m254.37 378v-7.128" opacity=".7" stroke="#000"/><path clip-path="url(#a)" d="m176.1 378v-7.128" opacity=".7" stroke="#000"/><path clip-path="url(#a)" d="m250.82 378v-7.128" opacity=".7" stroke="#000"/><path clip-path="url(#a)" d="m492.21 378v-7.128" opacity=".7" stroke="#000"/><path clip-path="url(#a)" d="m247.94 378v-7.128" opacity=".7" stroke="#000"/><path clip-path="url(#a)" d="m267.43 378v-7.128" opacity=".7" stroke="#000"/><path clip-path="url(#a)" d="m281.23 378v-7.128" opacity=".7" stroke="#000"/><path clip-path="url(#a)" d="m241.35 378v-7.128" opacity=".7" stroke="#000"/><path clip-path="url(#a)" d="m487.74 378v-7.128" opacity=".7" stroke="#000"/><path clip-path="url(#a)" d="m340.86 378v-7.128" opacity=".7" stroke="#000"/><path clip-path="url(#a)" d="m242.1 378v-7.128" opacity=".7" stroke="#000"/><path clip-path="url(#a)" d="m279.97 378v-356.4" stroke="#f00" stroke-width="1.5"/><path d="m72 378v-356.4" stroke="#000" stroke-width=".8"/><path d="m72 378h446.4" stroke="#000" stroke-width=".8"/></g></g></g></svg>
