<?xml version="1.0" encoding="UTF-8"?>
<!DOCTYPE svg  PUBLIC '-//W3C//DTD SVG 1.1//EN'  'http://www.w3.org/Graphics/SVG/1.1/DTD/svg11.dtd'>
<!-- Created with matplotlib (http://matplotlib.org/) -->
<svg width="720pt" height="288pt" version="1.1" viewBox="0 0 720 288" xmlns="http://www.w3.org/2000/svg" xmlns:xlink="http://www.w3.org/1999/xlink">
 <defs>
  <style type="text/css">*{stroke-linecap:butt;stroke-linejoin:round;}</style>
 </defs>
 <g id="figure_1">
  <g id="patch_1">
   <path d="m0 288h720v-288h-720z" fill="#fff"/>
  </g>
  <g id="axes_1">
   <g id="patch_2">
    <path d="m50.87 246.04h301.21v-219.16h-301.21z" fill="#fff"/>
   </g>
   <g id="PolyCollection_1">
    <defs>
     <path id="m4171626a55" d="m89.394-6.7534h-1.7465l-0.322-2.597-0.40952-2.597-0.50927-2.597-0.61925-2.597-0.73628-2.597-0.85598-2.597-0.97305-2.597-1.0816-2.597-1.1755-2.597-1.2492-2.597-1.2979-2.597-1.3182-2.597-1.3086-2.597-1.2691-2.597-1.2014-2.597-1.1086-2.597-0.99488-2.597-0.8647-2.597-0.7227-2.597-0.57325-2.597-0.42027-2.597-0.26719-2.597-0.1171-2.597 0.027156-2.597 0.16277-2.597 0.28692-2.597 0.39673-2.597 0.48948-2.597 0.56279-2.597 0.61497-2.597 0.64527-2.597 0.65417-2.597 0.64344-2.597 0.61609-2.597 0.57616-2.597 0.52834-2.597 0.47752-2.597 0.42834-2.597 0.38469-2.597 0.34944-2.597 0.32417-2.597 0.30912-2.597 0.30333-2.597 0.30484-2.597 0.31101-2.597 0.31896-2.597 0.32589-2.597 0.32944-2.597 0.32795-2.597 0.32061-2.597 0.30748-2.597 0.28937-2.597 0.26773-2.597 0.24433-2.597 0.22108-2.597 0.19974-2.597 0.18177-2.597 0.16818-2.597 0.15948-2.597 0.15575-2.597 0.15664-2.597 0.16156-2.597 0.16974-2.597 0.18035-2.597 0.1926-2.597 0.20575-2.597 0.21914-2.597 0.23216-2.597 0.24422-2.597 0.25476-2.597 0.26317-2.597 0.26891-2.597 0.27148-2.597 0.27055-2.597 0.266-2.597 0.25799-2.597 0.247-2.597 0.23376-2.597 0.21924-2.597 0.2045-2.597 0.19056-2.597 0.17828-2.597 0.16821-2.597 0.16056-2.597 0.15518-2.597 0.15157-2.597 0.149-2.597 0.14666-2.597 0.14372-2.597 0.1395-2.597 0.13357-2.597 0.12574-2.597 0.1161-2.597 0.10496-2.597 0.09281-2.597 0.0802-2.597 0.067698-2.597 0.055804-2.597 0.044916-2.597h0.25922l0.044916 2.597 0.055804 2.597 0.067698 2.597 0.0802 2.597 0.09281 2.597 0.10496 2.597 0.1161 2.597 0.12574 2.597 0.13357 2.597 0.1395 2.597 0.14372 2.597 0.14666 2.597 0.149 2.597 0.15157 2.597 0.15518 2.597 0.16056 2.597 0.16821 2.597 0.17828 2.597 0.19056 2.597 0.2045 2.597 0.21924 2.597 0.23376 2.597 0.247 2.597 0.25799 2.597 0.266 2.597 0.27055 2.597 0.27148 2.597 0.26891 2.597 0.26317 2.597 0.25476 2.597 0.24422 2.597 0.23216 2.597 0.21914 2.597 0.20575 2.597 0.1926 2.597 0.18035 2.597 0.16974 2.597 0.16156 2.597 0.15664 2.597 0.15575 2.597 0.15948 2.597 0.16818 2.597 0.18177 2.597 0.19974 2.597 0.22108 2.597 0.24433 2.597 0.26773 2.597 0.28937 2.597 0.30748 2.597 0.32061 2.597 0.32795 2.597 0.32944 2.597 0.32589 2.597 0.31896 2.597 0.31101 2.597 0.30484 2.597 0.30333 2.597 0.30912 2.597 0.32417 2.597 0.34944 2.597 0.38469 2.597 0.42834 2.597 0.47752 2.597 0.52834 2.597 0.57616 2.597 0.61609 2.597 0.64344 2.597 0.65417 2.597 0.64527 2.597 0.61497 2.597 0.56279 2.597 0.48948 2.597 0.39673 2.597 0.28692 2.597 0.16277 2.597 0.027156 2.597-0.1171 2.597-0.26719 2.597-0.42027 2.597-0.57325 2.597-0.7227 2.597-0.8647 2.597-0.99488 2.597-1.1086 2.597-1.2014 2.597-1.2691 2.597-1.3086 2.597-1.3182 2.597-1.2979 2.597-1.2492 2.597-1.1755 2.597-1.0816 2.597-0.97305 2.597-0.85598 2.597-0.73628 2.597-0.61925 2.597-0.50927 2.597-0.40952 2.597-0.322 2.597z" stroke="#404040" stroke-width="1.5"/>
    </defs>
    <g clip-path="url(#pb8ffdb7cc1)">
     <use y="288" fill="#1b86ba" stroke="#404040" stroke-width="1.5" xlink:href="#m4171626a55"/>
    </g>
   </g>
   <g id="PolyCollection_2">
    <defs>
     <path id="m201face6f2" d="m164.5-13.988h-1.3496l-0.30171-2.4099-0.40153-2.4099-0.51944-2.4099-0.65347-2.4099-0.79987-2.4099-0.95321-2.4099-1.1068-2.4099-1.2533-2.4099-1.3858-2.4099-1.4982-2.4099-1.5864-2.4099-1.6484-2.4099-1.6843-2.4099-1.696-2.4099-1.6866-2.4099-1.659-2.4099-1.615-2.4099-1.5552-2.4099-1.4779-2.4099-1.3796-2.4099-1.2559-2.4099-1.1023-2.4099-0.91573-2.4099-0.69554-2.4099-0.44473-2.4099-0.17001-2.4099 0.11842-2.4099 0.40789-2.4099 0.68476-2.4099 0.93608-2.4099 1.1512-2.4099 1.3228-2.4099 1.448-2.4099 1.5274-2.4099 1.5653-2.4099 1.5679-2.4099 1.5424-2.4099 1.4957-2.4099 1.4335-2.4099 1.3601-2.4099 1.2779-2.4099 1.1885-2.4099 1.0927-2.4099 0.99165-2.4099 0.88695-2.4099 0.78109-2.4099 0.67731-2.4099 0.57923-2.4099 0.4903-2.4099 0.41329-2.4099 0.34979-2.4099 0.30005-2.4099 0.26302-2.4099 0.23665-2.4099 0.21832-2.4099 0.20535-2.4099 0.1954-2.4099 0.1867-2.4099 0.17808-2.4099 0.16888-2.4099 0.15872-2.4099 0.14732-2.4099 0.13434-2.4099 0.11938-2.4099 0.10208-2.4099 0.082276-2.4099 0.060212-2.4099 0.036619-2.4099 0.01274-2.4099-0.009802-2.4099-0.029233-2.4099-0.043911-2.4099-0.052603-2.4099-0.054678-2.4099-0.050194-2.4099-0.03984-2.4099-0.024775-2.4099-0.006391-2.4099 0.013923-2.4099 0.034981-2.4099 0.055905-2.4099 0.076114-2.4099 0.095254-2.4099 0.11305-2.4099 0.12918-2.4099 0.14317-2.4099 0.15443-2.4099 0.16227-2.4099 0.16607-2.4099 0.16541-2.4099 0.16019-2.4099 0.15072-2.4099 0.13768-2.4099 0.12202-2.4099 0.1049-2.4099 0.087437-2.4099 0.070663-2.4099 0.05536-2.4099 0.042047-2.4099h0.19105l0.042047 2.4099 0.05536 2.4099 0.070663 2.4099 0.087437 2.4099 0.1049 2.4099 0.12202 2.4099 0.13768 2.4099 0.15072 2.4099 0.16019 2.4099 0.16541 2.4099 0.16607 2.4099 0.16227 2.4099 0.15443 2.4099 0.14317 2.4099 0.12918 2.4099 0.11305 2.4099 0.095254 2.4099 0.076114 2.4099 0.055905 2.4099 0.034981 2.4099 0.013923 2.4099-0.006391 2.4099-0.024775 2.4099-0.03984 2.4099-0.050194 2.4099-0.054678 2.4099-0.052603 2.4099-0.043911 2.4099-0.029233 2.4099-0.009802 2.4099 0.01274 2.4099 0.036619 2.4099 0.060212 2.4099 0.082276 2.4099 0.10208 2.4099 0.11938 2.4099 0.13434 2.4099 0.14732 2.4099 0.15872 2.4099 0.16888 2.4099 0.17808 2.4099 0.1867 2.4099 0.1954 2.4099 0.20535 2.4099 0.21832 2.4099 0.23665 2.4099 0.26302 2.4099 0.30005 2.4099 0.34979 2.4099 0.41329 2.4099 0.4903 2.4099 0.57923 2.4099 0.67731 2.4099 0.78109 2.4099 0.88695 2.4099 0.99165 2.4099 1.0927 2.4099 1.1885 2.4099 1.2779 2.4099 1.3601 2.4099 1.4335 2.4099 1.4957 2.4099 1.5424 2.4099 1.5679 2.4099 1.5653 2.4099 1.5274 2.4099 1.448 2.4099 1.3228 2.4099 1.1512 2.4099 0.93608 2.4099 0.68476 2.4099 0.40789 2.4099 0.11842 2.4099-0.17001 2.4099-0.44473 2.4099-0.69554 2.4099-0.91573 2.4099-1.1023 2.4099-1.2559 2.4099-1.3796 2.4099-1.4779 2.4099-1.5552 2.4099-1.615 2.4099-1.659 2.4099-1.6866 2.4099-1.696 2.4099-1.6843 2.4099-1.6484 2.4099-1.5864 2.4099-1.4982 2.4099-1.3858 2.4099-1.2533 2.4099-1.1068 2.4099-0.95321 2.4099-0.79987 2.4099-0.65347 2.4099-0.51944 2.4099-0.40153 2.4099-0.30171 2.4099z" stroke="#404040" stroke-width="1.5"/>
    </defs>
    <g clip-path="url(#pb8ffdb7cc1)">
     <use y="288" fill="#e36149" stroke="#404040" stroke-width="1.5" xlink:href="#m201face6f2"/>
    </g>
   </g>
   <g id="PolyCollection_3">
    <defs>
     <path id="m3c172a26b2" d="m239.81-17.993h-1.3608l-0.28975-1.96-0.38165-1.96-0.4897-1.96-0.61223-1.96-0.74598-1.96-0.88614-1.96-1.0266-1.96-1.1604-1.96-1.2803-1.96-1.3799-1.96-1.4537-1.96-1.4984-1.96-1.5126-1.96-1.4975-1.96-1.4563-1.96-1.3942-1.96-1.3173-1.96-1.2323-1.96-1.1456-1.96-1.0623-1.96-0.98605-1.96-0.91784-1.96-0.85617-1.96-0.79686-1.96-0.73351-1.96-0.65835-1.96-0.56343-1.96-0.44216-1.96-0.29071-1.96-0.10936-1.96 0.09689-1.96 0.31827-1.96 0.54114-1.96 0.74955-1.96 0.92742-1.96 1.0609-1.96 1.1403-1.96 1.1619-1.96 1.1284-1.96 1.049-1.96 0.93745-1.96 0.81088-1.96 0.68687-1.96 0.58124-1.96 0.50597-1.96 0.46779-1.96 0.46766-1.96 0.5011-1.96 0.55931-1.96 0.63076-1.96 0.70313-1.96 0.76503-1.96 0.80751-1.96 0.82498-1.96 0.81558-1.96 0.78103-1.96 0.72597-1.96 0.65705-1.96 0.58187-1.96 0.50791-1.96 0.44161-1.96 0.38767-1.96 0.34862-1.96 0.32472-1.96 0.31415-1.96 0.31342-1.96 0.31803-1.96 0.32315-1.96 0.32434-1.96 0.31814-1.96 0.30242-1.96 0.27665-1.96 0.24181-1.96 0.20021-1.96 0.15507-1.96 0.11016-1.96 0.069268-1.96 0.035819-1.96 0.012486-1.96 9.26e-4 -1.96 0.001628-1.96 0.013889-1.96 0.035904-1.96 0.064995-1.96 0.097913-1.96 0.13121-1.96 0.16162-1.96 0.1864-1.96 0.20359-1.96 0.21214-1.96 0.21197-1.96 0.20383-1.96 0.18911-1.96 0.16961-1.96 0.14728-1.96 0.12394-1.96 0.10117-1.96 0.080157-1.96 0.061676-1.96h0.29661l0.061676 1.96 0.080157 1.96 0.10117 1.96 0.12394 1.96 0.14728 1.96 0.16961 1.96 0.18911 1.96 0.20383 1.96 0.21197 1.96 0.21214 1.96 0.20359 1.96 0.1864 1.96 0.16162 1.96 0.13121 1.96 0.097913 1.96 0.064995 1.96 0.035904 1.96 0.013889 1.96 0.001628 1.96 9.26e-4 1.96 0.012486 1.96 0.035819 1.96 0.069268 1.96 0.11016 1.96 0.15507 1.96 0.20021 1.96 0.24181 1.96 0.27665 1.96 0.30242 1.96 0.31814 1.96 0.32434 1.96 0.32315 1.96 0.31803 1.96 0.31342 1.96 0.31415 1.96 0.32472 1.96 0.34862 1.96 0.38767 1.96 0.44161 1.96 0.50791 1.96 0.58187 1.96 0.65705 1.96 0.72597 1.96 0.78103 1.96 0.81558 1.96 0.82498 1.96 0.80751 1.96 0.76503 1.96 0.70313 1.96 0.63076 1.96 0.55931 1.96 0.5011 1.96 0.46766 1.96 0.46779 1.96 0.50597 1.96 0.58124 1.96 0.68687 1.96 0.81088 1.96 0.93745 1.96 1.049 1.96 1.1284 1.96 1.1619 1.96 1.1403 1.96 1.0609 1.96 0.92742 1.96 0.74955 1.96 0.54114 1.96 0.31827 1.96 0.09689 1.96-0.10936 1.96-0.29071 1.96-0.44216 1.96-0.56343 1.96-0.65835 1.96-0.73351 1.96-0.79686 1.96-0.85617 1.96-0.91784 1.96-0.98605 1.96-1.0623 1.96-1.1456 1.96-1.2323 1.96-1.3173 1.96-1.3942 1.96-1.4563 1.96-1.4975 1.96-1.5126 1.96-1.4984 1.96-1.4537 1.96-1.3799 1.96-1.2803 1.96-1.1604 1.96-1.0266 1.96-0.88614 1.96-0.74598 1.96-0.61223 1.96-0.4897 1.96-0.38165 1.96-0.28975 1.96z" stroke="#404040" stroke-width="1.5"/>
    </defs>
    <g clip-path="url(#pb8ffdb7cc1)">
     <use y="288" fill="#cfa64e" stroke="#404040" stroke-width="1.5" xlink:href="#m3c172a26b2"/>
    </g>
   </g>
   <g id="PolyCollection_4">
    <defs>
     <path id="me5f591a89c" d="m315.28-12.152h-1.7085l-0.34451-2.3814-0.44617-2.3814-0.5631-2.3814-0.69267-2.3814-0.83067-2.3814-0.97142-2.3814-1.1082-2.3814-1.2339-2.3814-1.3417-2.3814-1.4255-2.3814-1.4813-2.3814-1.5065-2.3814-1.5009-2.3814-1.4659-2.3814-1.4043-2.3814-1.3195-2.3814-1.2151-2.3814-1.0941-2.3814-0.9595-2.3814-0.81339-2.3814-0.65783-2.3814-0.49495-2.3814-0.32734-2.3814-0.15827-2.3814 0.008302-2.3814 0.16786-2.3814 0.31568-2.3814 0.44729-2.3814 0.55894-2.3814 0.64803-2.3814 0.71344-2.3814 0.75563-2.3814 0.77659-2.3814 0.77961-2.3814 0.76884-2.3814 0.7488-2.3814 0.72388-2.3814 0.6978-2.3814 0.67333-2.3814 0.65207-2.3814 0.63447-2.3814 0.62002-2.3814 0.60757-2.3814 0.59568-2.3814 0.58305-2.3814 0.5687-2.3814 0.55219-2.3814 0.53357-2.3814 0.51325-2.3814 0.49178-2.3814 0.46956-2.3814 0.44671-2.3814 0.42297-2.3814 0.3977-2.3814 0.37014-2.3814 0.33965-2.3814 0.306-2.3814 0.26962-2.3814 0.23176-2.3814 0.1944-2.3814 0.1601-2.3814 0.13159-2.3814 0.11134-2.3814 0.10114-2.3814 0.10171-2.3814 0.11253-2.3814 0.13183-2.3814 0.15679-2.3814 0.18393-2.3814 0.20965-2.3814 0.23069-2.3814 0.24462-2.3814 0.25016-2.3814 0.24723-2.3814 0.23694-2.3814 0.22126-2.3814 0.20267-2.3814 0.18369-2.3814 0.16655-2.3814 0.15283-2.3814 0.14335-2.3814 0.13813-2.3814 0.13651-2.3814 0.13737-2.3814 0.13936-2.3814 0.14114-2.3814 0.14155-2.3814 0.1398-2.3814 0.13544-2.3814 0.12843-2.3814 0.11906-2.3814 0.10781-2.3814 0.095331-2.3814 0.082312-2.3814 0.069389-2.3814 0.05711-2.3814 0.045888-2.3814 0.035996-2.3814 0.02756-2.3814h0.13496l0.02756 2.3814 0.035996 2.3814 0.045888 2.3814 0.05711 2.3814 0.069389 2.3814 0.082312 2.3814 0.095331 2.3814 0.10781 2.3814 0.11906 2.3814 0.12843 2.3814 0.13544 2.3814 0.1398 2.3814 0.14155 2.3814 0.14114 2.3814 0.13936 2.3814 0.13737 2.3814 0.13651 2.3814 0.13813 2.3814 0.14335 2.3814 0.15283 2.3814 0.16655 2.3814 0.18369 2.3814 0.20267 2.3814 0.22126 2.3814 0.23694 2.3814 0.24723 2.3814 0.25016 2.3814 0.24462 2.3814 0.23069 2.3814 0.20965 2.3814 0.18393 2.3814 0.15679 2.3814 0.13183 2.3814 0.11253 2.3814 0.10171 2.3814 0.10114 2.3814 0.11134 2.3814 0.13159 2.3814 0.1601 2.3814 0.1944 2.3814 0.23176 2.3814 0.26962 2.3814 0.306 2.3814 0.33965 2.3814 0.37014 2.3814 0.3977 2.3814 0.42297 2.3814 0.44671 2.3814 0.46956 2.3814 0.49178 2.3814 0.51325 2.3814 0.53357 2.3814 0.55219 2.3814 0.5687 2.3814 0.58305 2.3814 0.59568 2.3814 0.60757 2.3814 0.62002 2.3814 0.63447 2.3814 0.65207 2.3814 0.67333 2.3814 0.6978 2.3814 0.72388 2.3814 0.7488 2.3814 0.76884 2.3814 0.77961 2.3814 0.77659 2.3814 0.75563 2.3814 0.71344 2.3814 0.64803 2.3814 0.55894 2.3814 0.44729 2.3814 0.31568 2.3814 0.16786 2.3814 0.008302 2.3814-0.15827 2.3814-0.32734 2.3814-0.49495 2.3814-0.65783 2.3814-0.81339 2.3814-0.9595 2.3814-1.0941 2.3814-1.2151 2.3814-1.3195 2.3814-1.4043 2.3814-1.4659 2.3814-1.5009 2.3814-1.5065 2.3814-1.4813 2.3814-1.4255 2.3814-1.3417 2.3814-1.2339 2.3814-1.1082 2.3814-0.97142 2.3814-0.83067 2.3814-0.69267 2.3814-0.5631 2.3814-0.44617 2.3814-0.34451 2.3814z" stroke="#404040" stroke-width="1.5"/>
    </defs>
    <g clip-path="url(#pb8ffdb7cc1)">
     <use y="288" fill="#6e8857" stroke="#404040" stroke-width="1.5" xlink:href="#me5f591a89c"/>
    </g>
   </g>
   <g id="matplotlib.axis_1">
    <g id="xtick_1">
     <g id="line2d_1">
      <defs>
       <path id="mf5dca4b5ab" d="m0 0v3.5" stroke="#000" stroke-width=".8"/>
      </defs>
      <use x="88.52125" y="246.04" stroke="#000000" stroke-width=".8" xlink:href="#mf5dca4b5ab"/>
     </g>
     <g id="text_1"><!-- 1D -->
      <defs>
       <path id="DejaVuSans-31" d="m12.406 8.2969h16.109v55.625l-17.531-3.5156v8.9844l17.438 3.5156h9.8594v-64.609h16.109v-8.2969h-41.984z"/>
       <path id="DejaVuSans-44" d="m19.672 64.797v-56.688h11.922q15.094 0 22.094 6.8281 7 6.8438 7 21.594 0 14.641-7 21.453t-22.094 6.8125zm-9.8594 8.1094h20.266q21.188 0 31.094-8.8125 9.9219-8.8125 9.9219-27.562 0-18.859-9.9688-27.703-9.9531-8.8281-31.047-8.8281h-20.266z"/>
      </defs>
      <g transform="translate(81.49 260.64) scale(.1 -.1)">
       <use xlink:href="#DejaVuSans-31"/>
       <use x="63.623047" xlink:href="#DejaVuSans-44"/>
      </g>
     </g>
    </g>
    <g id="xtick_2">
     <g id="line2d_2">
      <use x="163.82375" y="246.04" stroke="#000000" stroke-width=".8" xlink:href="#mf5dca4b5ab"/>
     </g>
     <g id="text_2"><!-- I1D -->
      <defs>
       <path id="DejaVuSans-49" d="m9.8125 72.906h9.8594v-72.906h-9.8594z"/>
      </defs>
      <g transform="translate(155.32 260.64) scale(.1 -.1)">
       <use xlink:href="#DejaVuSans-49"/>
       <use x="29.492188" xlink:href="#DejaVuSans-31"/>
       <use x="93.115234" xlink:href="#DejaVuSans-44"/>
      </g>
     </g>
    </g>
    <g id="xtick_3">
     <g id="line2d_3">
      <use x="239.12625" y="246.04" stroke="#000000" stroke-width=".8" xlink:href="#mf5dca4b5ab"/>
     </g>
     <g id="text_3"><!-- 2D -->
      <defs>
       <path id="DejaVuSans-32" d="m19.188 8.2969h34.422v-8.2969h-46.281v8.2969q5.6094 5.8125 15.297 15.594 9.7031 9.7969 12.188 12.641 4.7344 5.3125 6.6094 9 1.8906 3.6875 1.8906 7.25 0 5.8125-4.0781 9.4688-4.0781 3.6719-10.625 3.6719-4.6406 0-9.7969-1.6094-5.1406-1.6094-11-4.8906v9.9688q5.9531 2.3906 11.125 3.6094 5.1875 1.2188 9.4844 1.2188 11.328 0 18.062-5.6719 6.7344-5.6562 6.7344-15.125 0-4.5-1.6875-8.5312-1.6719-4.0156-6.125-9.4844-1.2188-1.4219-7.7656-8.1875-6.5312-6.7656-18.453-18.922z"/>
      </defs>
      <g transform="translate(232.1 260.64) scale(.1 -.1)">
       <use xlink:href="#DejaVuSans-32"/>
       <use x="63.623047" xlink:href="#DejaVuSans-44"/>
      </g>
     </g>
    </g>
    <g id="xtick_4">
     <g id="line2d_4">
      <use x="314.42875" y="246.04" stroke="#000000" stroke-width=".8" xlink:href="#mf5dca4b5ab"/>
     </g>
     <g id="text_4"><!-- R -->
      <defs>
       <path id="DejaVuSans-52" d="m44.391 34.188q3.1719-1.0781 6.1719-4.5938t6.0312-9.6719l10.016-19.922h-10.609l-9.3125 18.703q-3.625 7.3281-7.0156 9.7188t-9.25 2.3906h-10.75v-30.812h-9.8594v72.906h22.266q12.5 0 18.656-5.2344 6.1562-5.2188 6.1562-15.766 0-6.8906-3.2031-11.438-3.2031-4.5312-9.2969-6.2812zm-24.719 30.609v-25.875h12.406q7.125 0 10.766 3.2969t3.6406 9.6875-3.6406 9.6406-10.766 3.25z"/>
      </defs>
      <g transform="translate(310.95 260.64) scale(.1 -.1)">
       <use xlink:href="#DejaVuSans-52"/>
      </g>
     </g>
    </g>
    <g id="text_5"><!-- Task -->
     <defs>
      <path id="DejaVuSans-54" d="m-0.29688 72.906h61.672v-8.3125h-25.875v-64.594h-9.9062v64.594h-25.891z"/>
      <path id="DejaVuSans-61" d="m34.281 27.484q-10.891 0-15.094-2.4844t-4.2031-8.5q0-4.7812 3.1562-7.5938 3.1562-2.7969 8.5625-2.7969 7.4844 0 12 5.2969t4.5156 14.078v2zm17.922 3.7188v-31.203h-8.9844v8.2969q-3.0781-4.9688-7.6719-7.3438t-11.234-2.375q-8.3906 0-13.359 4.7188-4.9531 4.7188-4.9531 12.625 0 9.2188 6.1719 13.906 6.1875 4.6875 18.438 4.6875h12.609v0.89062q0 6.2031-4.0781 9.5938t-11.453 3.3906q-4.6875 0-9.1406-1.125-4.4375-1.125-8.5312-3.375v8.3125q4.9219 1.9062 9.5625 2.8438 4.6406 0.95312 9.0312 0.95312 11.875 0 17.734-6.1562 5.8594-6.1406 5.8594-18.641z"/>
      <path id="DejaVuSans-73" d="m44.281 53.078v-8.5q-3.7969 1.9531-7.9062 2.9219-4.0938 0.98438-8.5 0.98438-6.6875 0-10.031-2.0469t-3.3438-6.1562q0-3.125 2.3906-4.9062t9.625-3.3906l3.0781-0.6875q9.5625-2.0469 13.594-5.7812t4.0312-10.422q0-7.625-6.0312-12.078-6.0312-4.4375-16.578-4.4375-4.3906 0-9.1562 0.85938t-10.031 2.5625v9.2812q4.9844-2.5938 9.8125-3.8906 4.8281-1.2812 9.5781-1.2812 6.3438 0 9.75 2.1719 3.4219 2.1719 3.4219 6.125 0 3.6562-2.4688 5.6094-2.4531 1.9531-10.812 3.7656l-3.125 0.73438q-8.3438 1.75-12.062 5.3906-3.7031 3.6406-3.7031 9.9844 0 7.7188 5.4688 11.906 5.4688 4.2031 15.531 4.2031 4.9688 0 9.3594-0.73438 4.4062-0.71875 8.1094-2.1875z"/>
      <path id="DejaVuSans-6b" d="m9.0781 75.984h9.0312v-44.875l26.812 23.578h11.469l-29-25.578 30.234-29.109h-11.719l-27.797 26.703v-26.703h-9.0312z"/>
     </defs>
     <g transform="translate(189.87 274.32) scale(.1 -.1)">
      <use xlink:href="#DejaVuSans-54"/>
      <use x="60.833984" xlink:href="#DejaVuSans-61"/>
      <use x="122.113281" xlink:href="#DejaVuSans-73"/>
      <use x="174.212891" xlink:href="#DejaVuSans-6b"/>
     </g>
    </g>
   </g>
   <g id="matplotlib.axis_2">
    <g id="ytick_1">
     <g id="line2d_5">
      <path d="m50.87 246.04h301.21" clip-path="url(#pb8ffdb7cc1)" fill="none" stroke="#b0b0b0" stroke-linecap="square" stroke-width=".8"/>
     </g>
     <g id="line2d_6">
      <defs>
       <path id="m88d2200ba4" d="m0 0h-3.5" stroke="#000" stroke-width=".8"/>
      </defs>
      <use x="50.87" y="246.04" stroke="#000000" stroke-width=".8" xlink:href="#m88d2200ba4"/>
     </g>
     <g id="text_6"><!-- 0 -->
      <defs>
       <path id="DejaVuSans-30" d="m31.781 66.406q-7.6094 0-11.453-7.5-3.8281-7.4844-3.8281-22.531 0-14.984 3.8281-22.484 3.8438-7.5 11.453-7.5 7.6719 0 11.5 7.5 3.8438 7.5 3.8438 22.484 0 15.047-3.8438 22.531-3.8281 7.5-11.5 7.5zm0 7.8125q12.266 0 18.734-9.7031 6.4688-9.6875 6.4688-28.141 0-18.406-6.4688-28.109-6.4688-9.6875-18.734-9.6875-12.25 0-18.719 9.6875-6.4688 9.7031-6.4688 28.109 0 18.453 6.4688 28.141 6.4688 9.7031 18.719 9.7031z"/>
      </defs>
      <g transform="translate(37.508 249.84) scale(.1 -.1)">
       <use xlink:href="#DejaVuSans-30"/>
      </g>
     </g>
    </g>
    <g id="ytick_2">
     <g id="line2d_7">
      <path d="m50.87 205.45h301.21" clip-path="url(#pb8ffdb7cc1)" fill="none" stroke="#b0b0b0" stroke-linecap="square" stroke-width=".8"/>
     </g>
     <g id="line2d_8">
      <use x="50.87" y="205.454815" stroke="#000000" stroke-width=".8" xlink:href="#m88d2200ba4"/>
     </g>
     <g id="text_7"><!-- 50 -->
      <defs>
       <path id="DejaVuSans-35" d="m10.797 72.906h38.719v-8.3125h-29.688v-17.859q2.1406 0.73438 4.2812 1.0938 2.1562 0.35938 4.3125 0.35938 12.203 0 19.328-6.6875 7.1406-6.6875 7.1406-18.109 0-11.766-7.3281-18.297-7.3281-6.5156-20.656-6.5156-4.5938 0-9.3594 0.78125-4.75 0.78125-9.8281 2.3438v9.9219q4.3906-2.3906 9.0781-3.5625t9.9062-1.1719q8.4531 0 13.375 4.4375 4.9375 4.4375 4.9375 12.062 0 7.6094-4.9375 12.047-4.9219 4.4531-13.375 4.4531-3.9531 0-7.8906-0.875-3.9219-0.875-8.0156-2.7344z"/>
      </defs>
      <g transform="translate(31.145 209.25) scale(.1 -.1)">
       <use xlink:href="#DejaVuSans-35"/>
       <use x="63.623047" xlink:href="#DejaVuSans-30"/>
      </g>
     </g>
    </g>
    <g id="ytick_3">
     <g id="line2d_9">
      <path d="m50.87 164.87h301.21" clip-path="url(#pb8ffdb7cc1)" fill="none" stroke="#b0b0b0" stroke-linecap="square" stroke-width=".8"/>
     </g>
     <g id="line2d_10">
      <use x="50.87" y="164.86963" stroke="#000000" stroke-width=".8" xlink:href="#m88d2200ba4"/>
     </g>
     <g id="text_8"><!-- 100 -->
      <g transform="translate(24.782 168.67) scale(.1 -.1)">
       <use xlink:href="#DejaVuSans-31"/>
       <use x="63.623047" xlink:href="#DejaVuSans-30"/>
       <use x="127.246094" xlink:href="#DejaVuSans-30"/>
      </g>
     </g>
    </g>
    <g id="ytick_4">
     <g id="line2d_11">
      <path d="m50.87 124.28h301.21" clip-path="url(#pb8ffdb7cc1)" fill="none" stroke="#b0b0b0" stroke-linecap="square" stroke-width=".8"/>
     </g>
     <g id="line2d_12">
      <use x="50.87" y="124.284444" stroke="#000000" stroke-width=".8" xlink:href="#m88d2200ba4"/>
     </g>
     <g id="text_9"><!-- 150 -->
      <g transform="translate(24.782 128.08) scale(.1 -.1)">
       <use xlink:href="#DejaVuSans-31"/>
       <use x="63.623047" xlink:href="#DejaVuSans-35"/>
       <use x="127.246094" xlink:href="#DejaVuSans-30"/>
      </g>
     </g>
    </g>
    <g id="ytick_5">
     <g id="line2d_13">
      <path d="m50.87 83.699h301.21" clip-path="url(#pb8ffdb7cc1)" fill="none" stroke="#b0b0b0" stroke-linecap="square" stroke-width=".8"/>
     </g>
     <g id="line2d_14">
      <use x="50.87" y="83.699259" stroke="#000000" stroke-width=".8" xlink:href="#m88d2200ba4"/>
     </g>
     <g id="text_10"><!-- 200 -->
      <g transform="translate(24.782 87.498) scale(.1 -.1)">
       <use xlink:href="#DejaVuSans-32"/>
       <use x="63.623047" xlink:href="#DejaVuSans-30"/>
       <use x="127.246094" xlink:href="#DejaVuSans-30"/>
      </g>
     </g>
    </g>
    <g id="ytick_6">
     <g id="line2d_15">
      <path d="m50.87 43.114h301.21" clip-path="url(#pb8ffdb7cc1)" fill="none" stroke="#b0b0b0" stroke-linecap="square" stroke-width=".8"/>
     </g>
     <g id="line2d_16">
      <use x="50.87" y="43.114074" stroke="#000000" stroke-width=".8" xlink:href="#m88d2200ba4"/>
     </g>
     <g id="text_11"><!-- 250 -->
      <g transform="translate(24.782 46.913) scale(.1 -.1)">
       <use xlink:href="#DejaVuSans-32"/>
       <use x="63.623047" xlink:href="#DejaVuSans-35"/>
       <use x="127.246094" xlink:href="#DejaVuSans-30"/>
      </g>
     </g>
    </g>
    <g id="text_12"><!-- Number of trials on task -->
     <defs>
      <path id="DejaVuSans-4e" d="m9.8125 72.906h13.281l32.328-60.984v60.984h9.5625v-72.906h-13.281l-32.312 60.984v-60.984h-9.5781z"/>
      <path id="DejaVuSans-75" d="m8.5 21.578v33.109h8.9844v-32.766q0-7.7656 3.0156-11.656 3.0312-3.875 9.0938-3.875 7.2656 0 11.484 4.6406 4.2344 4.6406 4.2344 12.656v31h8.9844v-54.688h-8.9844v8.4062q-3.2656-4.9844-7.5938-7.4062-4.3125-2.4219-10.031-2.4219-9.4219 0-14.312 5.8594-4.875 5.8594-4.875 17.141zm22.609 34.422z"/>
      <path id="DejaVuSans-6d" d="m52 44.188q3.375 6.0625 8.0625 8.9375t11.031 2.875q8.5469 0 13.188-5.9844 4.6406-5.9688 4.6406-17v-33.016h-9.0312v32.719q0 7.8594-2.7969 11.656-2.7812 3.8125-8.4844 3.8125-6.9844 0-11.047-4.6406-4.0469-4.625-4.0469-12.641v-30.906h-9.0312v32.719q0 7.9062-2.7812 11.688t-8.5938 3.7812q-6.8906 0-10.953-4.6562-4.0469-4.6562-4.0469-12.625v-30.906h-9.0312v54.688h9.0312v-8.5q3.0781 5.0312 7.375 7.4219t10.203 2.3906q5.9688 0 10.141-3.0312 4.1719-3.0156 6.1719-8.7812z"/>
      <path id="DejaVuSans-62" d="m48.688 27.297q0 9.9062-4.0781 15.547t-11.203 5.6406q-7.1406 0-11.219-5.6406t-4.0781-15.547 4.0781-15.547 11.219-5.6406q7.125 0 11.203 5.6406t4.0781 15.547zm-30.578 19.094q2.8438 4.875 7.1562 7.2344 4.3281 2.375 10.328 2.375 9.9688 0 16.188-7.9062 6.2344-7.9062 6.2344-20.797t-6.2344-20.812q-6.2188-7.9062-16.188-7.9062-6 0-10.328 2.375-4.3125 2.375-7.1562 7.25v-8.2031h-9.0312v75.984h9.0312z"/>
      <path id="DejaVuSans-65" d="m56.203 29.594v-4.3906h-41.312q0.59375-9.2812 5.5938-14.141t13.938-4.8594q5.1719 0 10.031 1.2656t9.6562 3.8125v-8.5q-4.8438-2.0469-9.9219-3.125t-10.297-1.0781q-13.094 0-20.734 7.6094-7.6406 7.625-7.6406 20.625 0 13.422 7.25 21.297 7.25 7.8906 19.562 7.8906 11.031 0 17.453-7.1094 6.4219-7.0938 6.4219-19.297zm-8.9844 2.6406q-0.09375 7.3594-4.125 11.75-4.0312 4.4062-10.672 4.4062-7.5156 0-12.031-4.25t-5.2031-11.969z"/>
      <path id="DejaVuSans-72" d="m41.109 46.297q-1.5156 0.875-3.2969 1.2812-1.7812 0.42188-3.9219 0.42188-7.625 0-11.703-4.9531t-4.0781-14.234v-28.812h-9.0312v54.688h9.0312v-8.5q2.8438 4.9844 7.375 7.3906 4.5469 2.4219 11.047 2.4219 0.92188 0 2.0469-0.125 1.125-0.10938 2.4844-0.35938z"/>
      <path id="DejaVuSans-6f" d="m30.609 48.391q-7.2188 0-11.422-5.6406t-4.2031-15.453 4.1719-15.453q4.1875-5.6406 11.453-5.6406 7.1875 0 11.375 5.6562 4.2031 5.6719 4.2031 15.438 0 9.7188-4.2031 15.406-4.1875 5.6875-11.375 5.6875zm0 7.6094q11.719 0 18.406-7.625 6.7031-7.6094 6.7031-21.078 0-13.422-6.7031-21.078-6.6875-7.6406-18.406-7.6406-11.766 0-18.438 7.6406-6.6562 7.6562-6.6562 21.078 0 13.469 6.6562 21.078 6.6719 7.625 18.438 7.625z"/>
      <path id="DejaVuSans-66" d="m37.109 75.984v-7.4844h-8.5938q-4.8281 0-6.7188-1.9531-1.875-1.9531-1.875-7.0312v-4.8281h14.797v-6.9844h-14.797v-47.703h-9.0312v47.703h-8.5938v6.9844h8.5938v3.8125q0 9.125 4.25 13.297 4.25 4.1875 13.469 4.1875z"/>
      <path id="DejaVuSans-74" d="m18.312 70.219v-15.531h18.5v-6.9844h-18.5v-29.688q0-6.6875 1.8281-8.5938t7.4531-1.9062h9.2188v-7.5156h-9.2188q-10.406 0-14.359 3.875-3.9531 3.8906-3.9531 14.141v29.688h-6.5938v6.9844h6.5938v15.531z"/>
      <path id="DejaVuSans-69" d="m9.4219 54.688h8.9844v-54.688h-8.9844zm0 21.297h8.9844v-11.391h-8.9844z"/>
      <path id="DejaVuSans-6c" d="m9.4219 75.984h8.9844v-75.984h-8.9844z"/>
      <path id="DejaVuSans-6e" d="m54.891 33.016v-33.016h-8.9844v32.719q0 7.7656-3.0312 11.609-3.0312 3.8594-9.0781 3.8594-7.2812 0-11.484-4.6406-4.2031-4.625-4.2031-12.641v-30.906h-9.0312v54.688h9.0312v-8.5q3.2344 4.9375 7.5938 7.375 4.375 2.4375 10.094 2.4375 9.4219 0 14.25-5.8281 4.8438-5.8281 4.8438-17.156z"/>
     </defs>
     <g transform="translate(18.703 196.94) rotate(-90) scale(.1 -.1)">
      <use xlink:href="#DejaVuSans-4e"/>
      <use x="74.804688" xlink:href="#DejaVuSans-75"/>
      <use x="138.183594" xlink:href="#DejaVuSans-6d"/>
      <use x="235.595703" xlink:href="#DejaVuSans-62"/>
      <use x="299.072266" xlink:href="#DejaVuSans-65"/>
      <use x="360.595703" xlink:href="#DejaVuSans-72"/>
      <use x="401.708984" xlink:href="#DejaVuSans-20"/>
      <use x="433.496094" xlink:href="#DejaVuSans-6f"/>
      <use x="494.677734" xlink:href="#DejaVuSans-66"/>
      <use x="529.882812" xlink:href="#DejaVuSans-20"/>
      <use x="561.669922" xlink:href="#DejaVuSans-74"/>
      <use x="600.878906" xlink:href="#DejaVuSans-72"/>
      <use x="641.992188" xlink:href="#DejaVuSans-69"/>
      <use x="669.775391" xlink:href="#DejaVuSans-61"/>
      <use x="731.054688" xlink:href="#DejaVuSans-6c"/>
      <use x="758.837891" xlink:href="#DejaVuSans-73"/>
      <use x="810.9375" xlink:href="#DejaVuSans-20"/>
      <use x="842.724609" xlink:href="#DejaVuSans-6f"/>
      <use x="903.90625" xlink:href="#DejaVuSans-6e"/>
      <use x="967.285156" xlink:href="#DejaVuSans-20"/>
      <use x="999.072266" xlink:href="#DejaVuSans-74"/>
      <use x="1038.28125" xlink:href="#DejaVuSans-61"/>
      <use x="1099.560547" xlink:href="#DejaVuSans-73"/>
      <use x="1151.660156" xlink:href="#DejaVuSans-6b"/>
     </g>
    </g>
   </g>
   <g id="line2d_17">
    <path d="m88.521 246.04v-186.69" clip-path="url(#pb8ffdb7cc1)" fill="none" stroke="#404040" stroke-linecap="square" stroke-width="1.5"/>
   </g>
   <g id="line2d_18">
    <path d="m88.521 225.54v-66.763" clip-path="url(#pb8ffdb7cc1)" fill="none" stroke="#404040" stroke-linecap="square" stroke-width="4.5"/>
   </g>
   <g id="line2d_19">
    <path d="m163.82 246.04v-105.52" clip-path="url(#pb8ffdb7cc1)" fill="none" stroke="#404040" stroke-linecap="square" stroke-width="1.5"/>
   </g>
   <g id="line2d_20">
    <path d="m163.82 222.3v-36.527" clip-path="url(#pb8ffdb7cc1)" fill="none" stroke="#404040" stroke-linecap="square" stroke-width="4.5"/>
   </g>
   <g id="line2d_21">
    <path d="m239.13 246.04v-122.57" clip-path="url(#pb8ffdb7cc1)" fill="none" stroke="#404040" stroke-linecap="square" stroke-width="1.5"/>
   </g>
   <g id="line2d_22">
    <path d="m239.13 222.5v-43.832" clip-path="url(#pb8ffdb7cc1)" fill="none" stroke="#404040" stroke-linecap="square" stroke-width="4.5"/>
   </g>
   <g id="line2d_23">
    <path d="m314.43 246.04v-144.48" clip-path="url(#pb8ffdb7cc1)" fill="none" stroke="#404040" stroke-linecap="square" stroke-width="1.5"/>
   </g>
   <g id="line2d_24">
    <path d="m314.43 224.12v-50.529" clip-path="url(#pb8ffdb7cc1)" fill="none" stroke="#404040" stroke-linecap="square" stroke-width="4.5"/>
   </g>
   <g id="patch_3">
    <path d="m50.87 246.04v-219.16" fill="none" stroke="#000" stroke-linecap="square" stroke-width=".8"/>
   </g>
   <g id="patch_4">
    <path d="m50.87 246.04h301.21" fill="none" stroke="#000" stroke-linecap="square" stroke-width=".8"/>
   </g>
   <g id="PathCollection_1">
    <defs>
     <path id="mbeff64346b" d="m0 1.5c0.3978 0 0.77937-0.15805 1.0607-0.43934 0.28129-0.28129 0.43934-0.66286 0.43934-1.0607s-0.15805-0.77937-0.43934-1.0607c-0.28129-0.28129-0.66286-0.43934-1.0607-0.43934s-0.77937 0.15805-1.0607 0.43934c-0.28129 0.28129-0.43934 0.66286-0.43934 1.0607s0.15805 0.77937 0.43934 1.0607c0.28129 0.28129 0.66286 0.43934 1.0607 0.43934z" stroke="#404040"/>
    </defs>
    <g clip-path="url(#pb8ffdb7cc1)">
     <use x="88.52125" y="203.425556" fill="#ffffff" stroke="#404040" xlink:href="#mbeff64346b"/>
    </g>
   </g>
   <g id="PathCollection_2">
    <g clip-path="url(#pb8ffdb7cc1)">
     <use x="163.82375" y="206.67237" fill="#ffffff" stroke="#404040" xlink:href="#mbeff64346b"/>
    </g>
   </g>
   <g id="PathCollection_3">
    <g clip-path="url(#pb8ffdb7cc1)">
     <use x="239.12625" y="206.266519" fill="#ffffff" stroke="#404040" xlink:href="#mbeff64346b"/>
    </g>
   </g>
   <g id="PathCollection_4">
    <g clip-path="url(#pb8ffdb7cc1)">
     <use x="314.42875" y="205.048963" fill="#ffffff" stroke="#404040" xlink:href="#mbeff64346b"/>
    </g>
   </g>
   <g id="text_13"><!-- Group F -->
    <defs>
     <path id="DejaVuSans-47" d="m59.516 10.406v19.578h-16.109v8.1094h25.875v-31.312q-5.7031-4.0469-12.594-6.125-6.875-2.0781-14.688-2.0781-17.094 0-26.75 9.9844-9.6406 10-9.6406 27.812 0 17.875 9.6406 27.859 9.6562 9.9844 26.75 9.9844 7.125 0 13.547-1.7656 6.4219-1.75 11.844-5.1719v-10.5q-5.4688 4.6406-11.625 6.9844t-12.938 2.3438q-13.391 0-20.109-7.4688-6.7031-7.4688-6.7031-22.266 0-14.75 6.7031-22.219 6.7188-7.4688 20.109-7.4688 5.2188 0 9.3125 0.90625 4.1094 0.90625 7.375 2.8125z"/>
     <path id="DejaVuSans-70" d="m18.109 8.2031v-29h-9.0312v75.484h9.0312v-8.2969q2.8438 4.875 7.1562 7.2344 4.3281 2.375 10.328 2.375 9.9688 0 16.188-7.9062 6.2344-7.9062 6.2344-20.797t-6.2344-20.812q-6.2188-7.9062-16.188-7.9062-6 0-10.328 2.375-4.3125 2.375-7.1562 7.25zm30.578 19.094q0 9.9062-4.0781 15.547t-11.203 5.6406q-7.1406 0-11.219-5.6406t-4.0781-15.547 4.0781-15.547 11.219-5.6406q7.125 0 11.203 5.6406t4.0781 15.547z"/>
     <path id="DejaVuSans-46" d="m9.8125 72.906h41.891v-8.3125h-32.031v-21.484h28.906v-8.2969h-28.906v-34.812h-9.8594z"/>
    </defs>
    <g transform="translate(177.72 20.88) scale(.12 -.12)">
     <use xlink:href="#DejaVuSans-47"/>
     <use x="77.490234" xlink:href="#DejaVuSans-72"/>
     <use x="118.572266" xlink:href="#DejaVuSans-6f"/>
     <use x="179.753906" xlink:href="#DejaVuSans-75"/>
     <use x="243.132812" xlink:href="#DejaVuSans-70"/>
     <use x="306.609375" xlink:href="#DejaVuSans-20"/>
     <use x="338.396484" xlink:href="#DejaVuSans-46"/>
    </g>
   </g>
  </g>
  <g id="axes_2">
   <g id="patch_5">
    <path d="m405.47 246.04h301.21v-219.16h-301.21z" fill="#fff"/>
   </g>
   <g id="PolyCollection_5">
    <defs>
     <path id="m6edf853149" d="m443.9-18.654h-1.5481l-0.43455-2.2664-0.61959-2.2664-0.85219-2.2664-1.1305-2.2664-1.4462-2.2664-1.7832-2.2664-2.118-2.2664-2.4208-2.2664-2.6589-2.2664-2.8004-2.2664-2.8191-2.2664-2.6996-2.2664-2.4402-2.2664-2.0544-2.2664-1.5707-2.2664-1.0279-2.2664-0.47072-2.2664 0.056989-2.2664 0.51847-2.2664 0.88865-2.2664 1.1565-2.2664 1.3251-2.2664 1.4084-2.2664 1.4279-2.2664 1.407-2.2664 1.367-2.2664 1.3239-2.2664 1.2865-2.2664 1.2574-2.2664 1.2334-2.2664 1.209-2.2664 1.178-2.2664 1.1357-2.2664 1.0802-2.2664 1.0123-2.2664 0.93537-2.2664 0.85376-2.2664 0.77221-2.2664 0.69475-2.2664 0.62423-2.2664 0.56221-2.2664 0.5091-2.2664 0.46446-2.2664 0.42725-2.2664 0.39604-2.2664 0.36919-2.2664 0.34486-2.2664 0.3212-2.2664 0.29648-2.2664 0.2693-2.2664 0.23884-2.2664 0.20497-2.2664 0.16835-2.2664 0.13033-2.2664 0.092777-2.2664 0.057812-2.2664 0.027481-2.2664 0.00349-2.2664-0.013034-2.2664-0.021679-2.2664-0.022795-2.2664-0.017455-2.2664-0.007338-2.2664 0.005454-2.2664 0.018626-2.2664 0.029956-2.2664 0.037559-2.2664 0.040138-2.2664 0.037148-2.2664 0.028887-2.2664 0.016441-2.2664 0.00153-2.2664-0.013746-2.2664-0.027222-2.2664-0.036965-2.2664-0.04156-2.2664-0.040291-2.2664-0.033229-2.2664-0.021182-2.2664-0.00555-2.2664 0.011941-2.2664 0.029533-2.2664 0.045714-2.2664 0.059431-2.2664 0.070154-2.2664 0.077838-2.2664 0.082759-2.2664 0.085328-2.2664 0.085911-2.2664 0.084748-2.2664 0.08194-2.2664 0.077523-2.2664 0.071568-2.2664 0.064265-2.2664 0.055963-2.2664 0.047139-2.2664 0.038325-2.2664 0.030031-2.2664 0.022653-2.2664h0.095286l0.022653 2.2664 0.030031 2.2664 0.038325 2.2664 0.047139 2.2664 0.055963 2.2664 0.064265 2.2664 0.071568 2.2664 0.077523 2.2664 0.08194 2.2664 0.084748 2.2664 0.085911 2.2664 0.085328 2.2664 0.082759 2.2664 0.077838 2.2664 0.070154 2.2664 0.059431 2.2664 0.045714 2.2664 0.029533 2.2664 0.011941 2.2664-0.00555 2.2664-0.021182 2.2664-0.033229 2.2664-0.040291 2.2664-0.04156 2.2664-0.036965 2.2664-0.027222 2.2664-0.013746 2.2664 0.00153 2.2664 0.016441 2.2664 0.028887 2.2664 0.037148 2.2664 0.040138 2.2664 0.037559 2.2664 0.029956 2.2664 0.018626 2.2664 0.005454 2.2664-0.007338 2.2664-0.017455 2.2664-0.022795 2.2664-0.021679 2.2664-0.013034 2.2664 0.00349 2.2664 0.027481 2.2664 0.057812 2.2664 0.092777 2.2664 0.13033 2.2664 0.16835 2.2664 0.20497 2.2664 0.23884 2.2664 0.2693 2.2664 0.29648 2.2664 0.3212 2.2664 0.34486 2.2664 0.36919 2.2664 0.39604 2.2664 0.42725 2.2664 0.46446 2.2664 0.5091 2.2664 0.56221 2.2664 0.62423 2.2664 0.69475 2.2664 0.77221 2.2664 0.85376 2.2664 0.93537 2.2664 1.0123 2.2664 1.0802 2.2664 1.1357 2.2664 1.178 2.2664 1.209 2.2664 1.2334 2.2664 1.2574 2.2664 1.2865 2.2664 1.3239 2.2664 1.367 2.2664 1.407 2.2664 1.4279 2.2664 1.4084 2.2664 1.3251 2.2664 1.1565 2.2664 0.88865 2.2664 0.51847 2.2664 0.056989 2.2664-0.47072 2.2664-1.0279 2.2664-1.5707 2.2664-2.0544 2.2664-2.4402 2.2664-2.6996 2.2664-2.8191 2.2664-2.8004 2.2664-2.6589 2.2664-2.4208 2.2664-2.118 2.2664-1.7832 2.2664-1.4462 2.2664-1.1305 2.2664-0.85219 2.2664-0.61959 2.2664-0.43455 2.2664z" stroke="#404040" stroke-width="1.5"/>
    </defs>
    <g clip-path="url(#p378e85a190)">
     <use y="288" fill="#1b86ba" stroke="#404040" stroke-width="1.5" xlink:href="#m6edf853149"/>
    </g>
   </g>
   <g id="PolyCollection_6">
    <defs>
     <path id="m292eb8d823" d="m518.92-18.814h-0.99297l-0.27172-2.2714-0.38445-2.2714-0.52605-2.2714-0.6967-2.2714-0.89384-2.2714-1.1118-2.2714-1.3417-2.2714-1.5718-2.2714-1.7883-2.2714-1.9761-2.2714-2.12-2.2714-2.206-2.2714-2.2229-2.2714-2.1629-2.2714-2.0233-2.2714-1.807-2.2714-1.5224-2.2714-1.183-2.2714-0.80626-2.2714-0.41212-2.2714-0.020678-2.2714 0.34945-2.2714 0.68278-2.2714 0.96796-2.2714 1.1982-2.2714 1.3709-2.2714 1.4871-2.2714 1.5505-2.2714 1.566-2.2714 1.5391-2.2714 1.4756-2.2714 1.3806-2.2714 1.2593-2.2714 1.1173-2.2714 0.96146-2.2714 0.79974-2.2714 0.64172-2.2714 0.49762-2.2714 0.37707-2.2714 0.28748-2.2714 0.23247-2.2714 0.21101-2.2714 0.21746-2.2714 0.24267-2.2714 0.27595-2.2714 0.30733-2.2714 0.32946-2.2714 0.33882-2.2714 0.33585-2.2714 0.32403-2.2714 0.30841-2.2714 0.29389-2.2714 0.28382-2.2714 0.2793-2.2714 0.27921-2.2714 0.28088-2.2714 0.28117-2.2714 0.27747-2.2714 0.26836-2.2714 0.25384-2.2714 0.235-2.2714 0.2135-2.2714 0.19098-2.2714 0.16864-2.2714 0.14711-2.2714 0.1266-2.2714 0.10709-2.2714 0.088679-2.2714 0.071688-2.2714 0.056688-2.2714 0.044372-2.2714 0.035376-2.2714 0.03008-2.2714 0.028483-2.2714 0.03013-2.2714 0.03415-2.2714 0.039347-2.2714 0.04438-2.2714 0.047966-2.2714 0.049123-2.2714 0.047362-2.2714 0.042816-2.2714 0.036238-2.2714 0.028854-2.2714 0.02211-2.2714 0.017331-2.2714 0.015417-2.2714 0.01663-2.2714 0.02055-2.2714 0.026194-2.2714 0.032267-2.2714 0.037484-2.2714 0.04083-2.2714 0.041759-2.2714 0.040227-2.2714 0.036617-2.2714 0.03159-2.2714 0.025893-2.2714 0.020203-2.2714h0.0889l0.020203 2.2714 0.025893 2.2714 0.03159 2.2714 0.036617 2.2714 0.040227 2.2714 0.041759 2.2714 0.04083 2.2714 0.037484 2.2714 0.032267 2.2714 0.026194 2.2714 0.02055 2.2714 0.01663 2.2714 0.015417 2.2714 0.017331 2.2714 0.02211 2.2714 0.028854 2.2714 0.036238 2.2714 0.042816 2.2714 0.047362 2.2714 0.049123 2.2714 0.047966 2.2714 0.04438 2.2714 0.039347 2.2714 0.03415 2.2714 0.03013 2.2714 0.028483 2.2714 0.03008 2.2714 0.035376 2.2714 0.044372 2.2714 0.056688 2.2714 0.071688 2.2714 0.088679 2.2714 0.10709 2.2714 0.1266 2.2714 0.14711 2.2714 0.16864 2.2714 0.19098 2.2714 0.2135 2.2714 0.235 2.2714 0.25384 2.2714 0.26836 2.2714 0.27747 2.2714 0.28117 2.2714 0.28088 2.2714 0.27921 2.2714 0.2793 2.2714 0.28382 2.2714 0.29389 2.2714 0.30841 2.2714 0.32403 2.2714 0.33585 2.2714 0.33882 2.2714 0.32946 2.2714 0.30733 2.2714 0.27595 2.2714 0.24267 2.2714 0.21746 2.2714 0.21101 2.2714 0.23247 2.2714 0.28748 2.2714 0.37707 2.2714 0.49762 2.2714 0.64172 2.2714 0.79974 2.2714 0.96146 2.2714 1.1173 2.2714 1.2593 2.2714 1.3806 2.2714 1.4756 2.2714 1.5391 2.2714 1.566 2.2714 1.5505 2.2714 1.4871 2.2714 1.3709 2.2714 1.1982 2.2714 0.96796 2.2714 0.68278 2.2714 0.34945 2.2714-0.020678 2.2714-0.41212 2.2714-0.80626 2.2714-1.183 2.2714-1.5224 2.2714-1.807 2.2714-2.0233 2.2714-2.1629 2.2714-2.2229 2.2714-2.206 2.2714-2.12 2.2714-1.9761 2.2714-1.7883 2.2714-1.5718 2.2714-1.3417 2.2714-1.1118 2.2714-0.89384 2.2714-0.6967 2.2714-0.52605 2.2714-0.38445 2.2714-0.27172 2.2714z" stroke="#404040" stroke-width="1.5"/>
    </defs>
    <g clip-path="url(#p378e85a190)">
     <use y="288" fill="#e36149" stroke="#404040" stroke-width="1.5" xlink:href="#m292eb8d823"/>
    </g>
   </g>
   <g id="PolyCollection_7">
    <defs>
     <path id="maaf23ac223" d="m593.97-19.824h-0.47881l-0.11118-1.8574-0.15182-1.8574-0.20254-1.8574-0.26412-1.8574-0.3368-1.8574-0.42017-1.8574-0.513-1.8574-0.61315-1.8574-0.71765-1.8574-0.82265-1.8574-0.92374-1.8574-1.0161-1.8574-1.0949-1.8574-1.1558-1.8574-1.1953-1.8574-1.2108-1.8574-1.2016-1.8574-1.1682-1.8574-1.1126-1.8574-1.0383-1.8574-0.94935-1.8574-0.8505-1.8574-0.74628-1.8574-0.64078-1.8574-0.53727-1.8574-0.43805-1.8574-0.34442-1.8574-0.25681-1.8574-0.17502-1.8574-0.098449-1.8574-0.026422-1.8574 0.041674-1.8574 0.10624-1.8574 0.16743-1.8574 0.22523-1.8574 0.27946-1.8574 0.32985-1.8574 0.376-1.8574 0.41735-1.8574 0.45312-1.8574 0.48225-1.8574 0.50348-1.8574 0.51552-1.8574 0.51724-1.8574 0.50804-1.8574 0.48817-1.8574 0.45895-1.8574 0.42287-1.8574 0.38352-1.8574 0.34528-1.8574 0.31282-1.8574 0.29057-1.8574 0.28205-1.8574 0.28935-1.8574 0.31272-1.8574 0.35052-1.8574 0.39929-1.8574 0.45418-1.8574 0.50962-1.8574 0.55998-1.8574 0.60031-1.8574 0.62688-1.8574 0.63754-1.8574 0.63179-1.8574 0.61067-1.8574 0.57643-1.8574 0.5321-1.8574 0.48104-1.8574 0.42664-1.8574 0.37198-1.8574 0.31966-1.8574 0.27175-1.8574 0.22972-1.8574 0.19451-1.8574 0.1665-1.8574 0.14562-1.8574 0.13143-1.8574 0.12317-1.8574 0.11991-1.8574 0.12063-1.8574 0.12435-1.8574 0.13013-1.8574 0.13714-1.8574 0.14461-1.8574 0.15181-1.8574 0.15803-1.8574 0.16254-1.8574 0.1647-1.8574 0.16396-1.8574 0.15997-1.8574 0.15264-1.8574 0.1422-1.8574 0.12915-1.8574 0.11423-1.8574 0.098291-1.8574 0.082234-1.8574 0.066862-1.8574 0.052812-1.8574 0.040517-1.8574h0.19182l0.040517 1.8574 0.052812 1.8574 0.066862 1.8574 0.082234 1.8574 0.098291 1.8574 0.11423 1.8574 0.12915 1.8574 0.1422 1.8574 0.15264 1.8574 0.15997 1.8574 0.16396 1.8574 0.1647 1.8574 0.16254 1.8574 0.15803 1.8574 0.15181 1.8574 0.14461 1.8574 0.13714 1.8574 0.13013 1.8574 0.12435 1.8574 0.12063 1.8574 0.11991 1.8574 0.12317 1.8574 0.13143 1.8574 0.14562 1.8574 0.1665 1.8574 0.19451 1.8574 0.22972 1.8574 0.27175 1.8574 0.31966 1.8574 0.37198 1.8574 0.42664 1.8574 0.48104 1.8574 0.5321 1.8574 0.57643 1.8574 0.61067 1.8574 0.63179 1.8574 0.63754 1.8574 0.62688 1.8574 0.60031 1.8574 0.55998 1.8574 0.50962 1.8574 0.45418 1.8574 0.39929 1.8574 0.35052 1.8574 0.31272 1.8574 0.28935 1.8574 0.28205 1.8574 0.29057 1.8574 0.31282 1.8574 0.34528 1.8574 0.38352 1.8574 0.42287 1.8574 0.45895 1.8574 0.48817 1.8574 0.50804 1.8574 0.51724 1.8574 0.51552 1.8574 0.50348 1.8574 0.48225 1.8574 0.45312 1.8574 0.41735 1.8574 0.376 1.8574 0.32985 1.8574 0.27946 1.8574 0.22523 1.8574 0.16743 1.8574 0.10624 1.8574 0.041674 1.8574-0.026422 1.8574-0.098449 1.8574-0.17502 1.8574-0.25681 1.8574-0.34442 1.8574-0.43805 1.8574-0.53727 1.8574-0.64078 1.8574-0.74628 1.8574-0.8505 1.8574-0.94935 1.8574-1.0383 1.8574-1.1126 1.8574-1.1682 1.8574-1.2016 1.8574-1.2108 1.8574-1.1953 1.8574-1.1558 1.8574-1.0949 1.8574-1.0161 1.8574-0.92374 1.8574-0.82265 1.8574-0.71765 1.8574-0.61315 1.8574-0.513 1.8574-0.42017 1.8574-0.3368 1.8574-0.26412 1.8574-0.20254 1.8574-0.15182 1.8574-0.11118 1.8574z" stroke="#404040" stroke-width="1.5"/>
    </defs>
    <g clip-path="url(#p378e85a190)">
     <use y="288" fill="#cfa64e" stroke="#404040" stroke-width="1.5" xlink:href="#maaf23ac223"/>
    </g>
   </g>
   <g id="PolyCollection_8">
    <defs>
     <path id="me95036014d" d="m669.26-9.6491h-0.46388l-0.090007-2.4893-0.11599-2.4893-0.14613-2.4893-0.18005-2.4893-0.21709-2.4893-0.25626-2.4893-0.29638-2.4893-0.33611-2.4893-0.37406-2.4893-0.40892-2.4893-0.43957-2.4893-0.4651-2.4893-0.48493-2.4893-0.4988-2.4893-0.50676-2.4893-0.50919-2.4893-0.50678-2.4893-0.50052-2.4893-0.49165-2.4893-0.48162-2.4893-0.47195-2.4893-0.4641-2.4893-0.45927-2.4893-0.45814-2.4893-0.46078-2.4893-0.46642-2.4893-0.47356-2.4893-0.47997-2.4893-0.48301-2.4893-0.47987-2.4893-0.46796-2.4893-0.44522-2.4893-0.41034-2.4893-0.36289-2.4893-0.30336-2.4893-0.23304-2.4893-0.15389-2.4893-0.068405-2.4893 0.020571-2.4893 0.10994-2.4893 0.19646-2.4893 0.27684-2.4893 0.34788-2.4893 0.40663-2.4893 0.45062-2.4893 0.4781-2.4893 0.48834-2.4893 0.4817-2.4893 0.45977-2.4893 0.4253-2.4893 0.38188-2.4893 0.3337-2.4893 0.28503-2.4893 0.23982-2.4893 0.20135-2.4893 0.1719-2.4893 0.1527-2.4893 0.14387-2.4893 0.14463-2.4893 0.1535-2.4893 0.16854-2.4893 0.18763-2.4893 0.2087-2.4893 0.22982-2.4893 0.24937-2.4893 0.26605-2.4893 0.27887-2.4893 0.28716-2.4893 0.29056-2.4893 0.289-2.4893 0.28271-2.4893 0.27222-2.4893 0.25833-2.4893 0.24215-2.4893 0.22498-2.4893 0.20829-2.4893 0.19355-2.4893 0.18212-2.4893 0.17508-2.4893 0.1731-2.4893 0.1763-2.4893 0.18423-2.4893 0.19585-2.4893 0.20966-2.4893 0.22386-2.4893 0.23653-2.4893 0.24591-2.4893 0.25057-2.4893 0.24961-2.4893 0.24269-2.4893 0.23011-2.4893 0.21264-2.4893 0.19147-2.4893 0.16799-2.4893 0.1436-2.4893 0.11962-2.4893 0.097102-2.4893 0.076827-2.4893 0.059254-2.4893h0.29494l0.059254 2.4893 0.076827 2.4893 0.097102 2.4893 0.11962 2.4893 0.1436 2.4893 0.16799 2.4893 0.19147 2.4893 0.21264 2.4893 0.23011 2.4893 0.24269 2.4893 0.24961 2.4893 0.25057 2.4893 0.24591 2.4893 0.23653 2.4893 0.22386 2.4893 0.20966 2.4893 0.19585 2.4893 0.18423 2.4893 0.1763 2.4893 0.1731 2.4893 0.17508 2.4893 0.18212 2.4893 0.19355 2.4893 0.20829 2.4893 0.22498 2.4893 0.24215 2.4893 0.25833 2.4893 0.27222 2.4893 0.28271 2.4893 0.289 2.4893 0.29056 2.4893 0.28716 2.4893 0.27887 2.4893 0.26605 2.4893 0.24937 2.4893 0.22982 2.4893 0.2087 2.4893 0.18763 2.4893 0.16854 2.4893 0.1535 2.4893 0.14463 2.4893 0.14387 2.4893 0.1527 2.4893 0.1719 2.4893 0.20135 2.4893 0.23982 2.4893 0.28503 2.4893 0.3337 2.4893 0.38188 2.4893 0.4253 2.4893 0.45977 2.4893 0.4817 2.4893 0.48834 2.4893 0.4781 2.4893 0.45062 2.4893 0.40663 2.4893 0.34788 2.4893 0.27684 2.4893 0.19646 2.4893 0.10994 2.4893 0.020571 2.4893-0.068405 2.4893-0.15389 2.4893-0.23304 2.4893-0.30336 2.4893-0.36289 2.4893-0.41034 2.4893-0.44522 2.4893-0.46796 2.4893-0.47987 2.4893-0.48301 2.4893-0.47997 2.4893-0.47356 2.4893-0.46642 2.4893-0.46078 2.4893-0.45814 2.4893-0.45927 2.4893-0.4641 2.4893-0.47195 2.4893-0.48162 2.4893-0.49165 2.4893-0.50052 2.4893-0.50678 2.4893-0.50919 2.4893-0.50676 2.4893-0.4988 2.4893-0.48493 2.4893-0.4651 2.4893-0.43957 2.4893-0.40892 2.4893-0.37406 2.4893-0.33611 2.4893-0.29638 2.4893-0.25626 2.4893-0.21709 2.4893-0.18005 2.4893-0.14613 2.4893-0.11599 2.4893-0.090007 2.4893z" stroke="#404040" stroke-width="1.5"/>
    </defs>
    <g clip-path="url(#p378e85a190)">
     <use y="288" fill="#6e8857" stroke="#404040" stroke-width="1.5" xlink:href="#me95036014d"/>
    </g>
   </g>
   <g id="matplotlib.axis_3">
    <g id="xtick_5">
     <g id="line2d_25">
      <use x="443.12125" y="246.04" stroke="#000000" stroke-width=".8" xlink:href="#mf5dca4b5ab"/>
     </g>
     <g id="text_14"><!-- 1D -->
      <g transform="translate(436.09 260.64) scale(.1 -.1)">
       <use xlink:href="#DejaVuSans-31"/>
       <use x="63.623047" xlink:href="#DejaVuSans-44"/>
      </g>
     </g>
    </g>
    <g id="xtick_6">
     <g id="line2d_26">
      <use x="518.42375" y="246.04" stroke="#000000" stroke-width=".8" xlink:href="#mf5dca4b5ab"/>
     </g>
     <g id="text_15"><!-- I1D -->
      <g transform="translate(509.92 260.64) scale(.1 -.1)">
       <use xlink:href="#DejaVuSans-49"/>
       <use x="29.492188" xlink:href="#DejaVuSans-31"/>
       <use x="93.115234" xlink:href="#DejaVuSans-44"/>
      </g>
     </g>
    </g>
    <g id="xtick_7">
     <g id="line2d_27">
      <use x="593.72625" y="246.04" stroke="#000000" stroke-width=".8" xlink:href="#mf5dca4b5ab"/>
     </g>
     <g id="text_16"><!-- 2D -->
      <g transform="translate(586.7 260.64) scale(.1 -.1)">
       <use xlink:href="#DejaVuSans-32"/>
       <use x="63.623047" xlink:href="#DejaVuSans-44"/>
      </g>
     </g>
    </g>
    <g id="xtick_8">
     <g id="line2d_28">
      <use x="669.02875" y="246.04" stroke="#000000" stroke-width=".8" xlink:href="#mf5dca4b5ab"/>
     </g>
     <g id="text_17"><!-- R -->
      <g transform="translate(665.55 260.64) scale(.1 -.1)">
       <use xlink:href="#DejaVuSans-52"/>
      </g>
     </g>
    </g>
    <g id="text_18"><!-- Task -->
     <g transform="translate(544.47 274.32) scale(.1 -.1)">
      <use xlink:href="#DejaVuSans-54"/>
      <use x="60.833984" xlink:href="#DejaVuSans-61"/>
      <use x="122.113281" xlink:href="#DejaVuSans-73"/>
      <use x="174.212891" xlink:href="#DejaVuSans-6b"/>
     </g>
    </g>
   </g>
   <g id="matplotlib.axis_4">
    <g id="ytick_7">
     <g id="line2d_29">
      <path d="m405.47 246.04h301.21" clip-path="url(#p378e85a190)" fill="none" stroke="#b0b0b0" stroke-linecap="square" stroke-width=".8"/>
     </g>
     <g id="line2d_30">
      <use x="405.47" y="246.04" stroke="#000000" stroke-width=".8" xlink:href="#m88d2200ba4"/>
     </g>
     <g id="text_19"><!-- 0 -->
      <g transform="translate(392.11 249.84) scale(.1 -.1)">
       <use xlink:href="#DejaVuSans-30"/>
      </g>
     </g>
    </g>
    <g id="ytick_8">
     <g id="line2d_31">
      <path d="m405.47 205.45h301.21" clip-path="url(#p378e85a190)" fill="none" stroke="#b0b0b0" stroke-linecap="square" stroke-width=".8"/>
     </g>
     <g id="line2d_32">
      <use x="405.47" y="205.454815" stroke="#000000" stroke-width=".8" xlink:href="#m88d2200ba4"/>
     </g>
     <g id="text_20"><!-- 50 -->
      <g transform="translate(385.74 209.25) scale(.1 -.1)">
       <use xlink:href="#DejaVuSans-35"/>
       <use x="63.623047" xlink:href="#DejaVuSans-30"/>
      </g>
     </g>
    </g>
    <g id="ytick_9">
     <g id="line2d_33">
      <path d="m405.47 164.87h301.21" clip-path="url(#p378e85a190)" fill="none" stroke="#b0b0b0" stroke-linecap="square" stroke-width=".8"/>
     </g>
     <g id="line2d_34">
      <use x="405.47" y="164.86963" stroke="#000000" stroke-width=".8" xlink:href="#m88d2200ba4"/>
     </g>
     <g id="text_21"><!-- 100 -->
      <g transform="translate(379.38 168.67) scale(.1 -.1)">
       <use xlink:href="#DejaVuSans-31"/>
       <use x="63.623047" xlink:href="#DejaVuSans-30"/>
       <use x="127.246094" xlink:href="#DejaVuSans-30"/>
      </g>
     </g>
    </g>
    <g id="ytick_10">
     <g id="line2d_35">
      <path d="m405.47 124.28h301.21" clip-path="url(#p378e85a190)" fill="none" stroke="#b0b0b0" stroke-linecap="square" stroke-width=".8"/>
     </g>
     <g id="line2d_36">
      <use x="405.47" y="124.284444" stroke="#000000" stroke-width=".8" xlink:href="#m88d2200ba4"/>
     </g>
     <g id="text_22"><!-- 150 -->
      <g transform="translate(379.38 128.08) scale(.1 -.1)">
       <use xlink:href="#DejaVuSans-31"/>
       <use x="63.623047" xlink:href="#DejaVuSans-35"/>
       <use x="127.246094" xlink:href="#DejaVuSans-30"/>
      </g>
     </g>
    </g>
    <g id="ytick_11">
     <g id="line2d_37">
      <path d="m405.47 83.699h301.21" clip-path="url(#p378e85a190)" fill="none" stroke="#b0b0b0" stroke-linecap="square" stroke-width=".8"/>
     </g>
     <g id="line2d_38">
      <use x="405.47" y="83.699259" stroke="#000000" stroke-width=".8" xlink:href="#m88d2200ba4"/>
     </g>
     <g id="text_23"><!-- 200 -->
      <g transform="translate(379.38 87.498) scale(.1 -.1)">
       <use xlink:href="#DejaVuSans-32"/>
       <use x="63.623047" xlink:href="#DejaVuSans-30"/>
       <use x="127.246094" xlink:href="#DejaVuSans-30"/>
      </g>
     </g>
    </g>
    <g id="ytick_12">
     <g id="line2d_39">
      <path d="m405.47 43.114h301.21" clip-path="url(#p378e85a190)" fill="none" stroke="#b0b0b0" stroke-linecap="square" stroke-width=".8"/>
     </g>
     <g id="line2d_40">
      <use x="405.47" y="43.114074" stroke="#000000" stroke-width=".8" xlink:href="#m88d2200ba4"/>
     </g>
     <g id="text_24"><!-- 250 -->
      <g transform="translate(379.38 46.913) scale(.1 -.1)">
       <use xlink:href="#DejaVuSans-32"/>
       <use x="63.623047" xlink:href="#DejaVuSans-35"/>
       <use x="127.246094" xlink:href="#DejaVuSans-30"/>
      </g>
     </g>
    </g>
    <g id="text_25"><!-- Number of trials on task -->
     <g transform="translate(373.3 196.94) rotate(-90) scale(.1 -.1)">
      <use xlink:href="#DejaVuSans-4e"/>
      <use x="74.804688" xlink:href="#DejaVuSans-75"/>
      <use x="138.183594" xlink:href="#DejaVuSans-6d"/>
      <use x="235.595703" xlink:href="#DejaVuSans-62"/>
      <use x="299.072266" xlink:href="#DejaVuSans-65"/>
      <use x="360.595703" xlink:href="#DejaVuSans-72"/>
      <use x="401.708984" xlink:href="#DejaVuSans-20"/>
      <use x="433.496094" xlink:href="#DejaVuSans-6f"/>
      <use x="494.677734" xlink:href="#DejaVuSans-66"/>
      <use x="529.882812" xlink:href="#DejaVuSans-20"/>
      <use x="561.669922" xlink:href="#DejaVuSans-74"/>
      <use x="600.878906" xlink:href="#DejaVuSans-72"/>
      <use x="641.992188" xlink:href="#DejaVuSans-69"/>
      <use x="669.775391" xlink:href="#DejaVuSans-61"/>
      <use x="731.054688" xlink:href="#DejaVuSans-6c"/>
      <use x="758.837891" xlink:href="#DejaVuSans-73"/>
      <use x="810.9375" xlink:href="#DejaVuSans-20"/>
      <use x="842.724609" xlink:href="#DejaVuSans-6f"/>
      <use x="903.90625" xlink:href="#DejaVuSans-6e"/>
      <use x="967.285156" xlink:href="#DejaVuSans-20"/>
      <use x="999.072266" xlink:href="#DejaVuSans-74"/>
      <use x="1038.28125" xlink:href="#DejaVuSans-61"/>
      <use x="1099.560547" xlink:href="#DejaVuSans-73"/>
      <use x="1151.660156" xlink:href="#DejaVuSans-6b"/>
     </g>
    </g>
   </g>
   <g id="line2d_41">
    <path d="m443.12 246.04v-85.229" clip-path="url(#p378e85a190)" fill="none" stroke="#404040" stroke-linecap="square" stroke-width="1.5"/>
   </g>
   <g id="line2d_42">
    <path d="m443.12 233.86v-30.033" clip-path="url(#p378e85a190)" fill="none" stroke="#404040" stroke-linecap="square" stroke-width="4.5"/>
   </g>
   <g id="line2d_43">
    <path d="m518.42 246.04v-103.09" clip-path="url(#p378e85a190)" fill="none" stroke="#404040" stroke-linecap="square" stroke-width="1.5"/>
   </g>
   <g id="line2d_44">
    <path d="m518.42 228.18v-34.903" clip-path="url(#p378e85a190)" fill="none" stroke="#404040" stroke-linecap="square" stroke-width="4.5"/>
   </g>
   <g id="line2d_45">
    <path d="m593.73 246.04v-139.61" clip-path="url(#p378e85a190)" fill="none" stroke="#404040" stroke-linecap="square" stroke-width="1.5"/>
   </g>
   <g id="line2d_46">
    <path d="m593.73 220.07v-46.267" clip-path="url(#p378e85a190)" fill="none" stroke="#404040" stroke-linecap="square" stroke-width="4.5"/>
   </g>
   <g id="line2d_47">
    <path d="m669.03 246.04v-181.82" clip-path="url(#p378e85a190)" fill="none" stroke="#404040" stroke-linecap="square" stroke-width="1.5"/>
   </g>
   <g id="line2d_48">
    <path d="m669.03 199.77v-65.139" clip-path="url(#p378e85a190)" fill="none" stroke="#404040" stroke-linecap="square" stroke-width="4.5"/>
   </g>
   <g id="patch_6">
    <path d="m405.47 246.04v-219.16" fill="none" stroke="#000" stroke-linecap="square" stroke-width=".8"/>
   </g>
   <g id="patch_7">
    <path d="m405.47 246.04h301.21" fill="none" stroke="#000" stroke-linecap="square" stroke-width=".8"/>
   </g>
   <g id="PathCollection_5">
    <g clip-path="url(#p378e85a190)">
     <use x="443.12125" y="223.718148" fill="#ffffff" stroke="#404040" xlink:href="#mbeff64346b"/>
    </g>
   </g>
   <g id="PathCollection_6">
    <g clip-path="url(#p378e85a190)">
     <use x="518.42375" y="216.006963" fill="#ffffff" stroke="#404040" xlink:href="#mbeff64346b"/>
    </g>
   </g>
   <g id="PathCollection_7">
    <g clip-path="url(#p378e85a190)">
     <use x="593.72625" y="200.178741" fill="#ffffff" stroke="#404040" xlink:href="#mbeff64346b"/>
    </g>
   </g>
   <g id="PathCollection_8">
    <g clip-path="url(#p378e85a190)">
     <use x="669.02875" y="174.204222" fill="#ffffff" stroke="#404040" xlink:href="#mbeff64346b"/>
    </g>
   </g>
   <g id="text_26"><!-- Group S -->
    <defs>
     <path id="DejaVuSans-53" d="m53.516 70.516v-9.625q-5.6094 2.6875-10.594 4-4.9844 1.3281-9.625 1.3281-8.0469 0-12.422-3.125t-4.375-8.8906q0-4.8438 2.9062-7.3125 2.9062-2.4531 11.016-3.9688l5.9531-1.2188q11.031-2.1094 16.281-7.4062t5.25-14.172q0-10.609-7.1094-16.078-7.0938-5.4688-20.812-5.4688-5.1719 0-11.016 1.1719-5.8281 1.1719-12.078 3.4688v10.156q6-3.3594 11.766-5.0781 5.7656-1.7031 11.328-1.7031 8.4375 0 13.031 3.3125 4.5938 3.3281 4.5938 9.4844 0 5.3594-3.2969 8.3906t-10.812 4.5469l-6.0156 1.1719q-11.031 2.1875-15.969 6.875-4.9219 4.6875-4.9219 13.047 0 9.6719 6.8125 15.234t18.766 5.5625q5.1406 0 10.453-0.9375 5.3281-0.92188 10.891-2.7656z"/>
    </defs>
    <g transform="translate(531.96 20.88) scale(.12 -.12)">
     <use xlink:href="#DejaVuSans-47"/>
     <use x="77.490234" xlink:href="#DejaVuSans-72"/>
     <use x="118.572266" xlink:href="#DejaVuSans-6f"/>
     <use x="179.753906" xlink:href="#DejaVuSans-75"/>
     <use x="243.132812" xlink:href="#DejaVuSans-70"/>
     <use x="306.609375" xlink:href="#DejaVuSans-20"/>
     <use x="338.396484" xlink:href="#DejaVuSans-53"/>
    </g>
   </g>
  </g>
 </g>
 <defs>
  <clipPath id="pb8ffdb7cc1">
   <rect x="50.87" y="26.88" width="301.21" height="219.16"/>
  </clipPath>
  <clipPath id="p378e85a190">
   <rect x="405.47" y="26.88" width="301.21" height="219.16"/>
  </clipPath>
 </defs>
</svg>
