<?xml version="1.0" encoding="UTF-8"?>
<!DOCTYPE svg  PUBLIC '-//W3C//DTD SVG 1.1//EN'  'http://www.w3.org/Graphics/SVG/1.1/DTD/svg11.dtd'>
<!-- Created with matplotlib (http://matplotlib.org/) -->
<svg width="720pt" height="360pt" version="1.1" viewBox="0 0 720 360" xmlns="http://www.w3.org/2000/svg" xmlns:xlink="http://www.w3.org/1999/xlink">
 <defs>
  <style type="text/css">*{stroke-linecap:butt;stroke-linejoin:round;}</style>
 </defs>
 <g id="figure_1">
  <g id="patch_1">
   <path d="m0 360h720v-360h-720z" fill="#fff"/>
  </g>
  <g id="axes_1">
   <g id="patch_2">
    <path d="m341.37 180c0-21.54-4.2428-42.87-12.486-62.77s-20.325-37.983-35.556-53.214-33.314-27.313-53.214-35.556-41.23-12.486-62.77-12.486-42.87 4.2428-62.77 12.486-37.983 20.325-53.214 35.556-27.313 33.314-35.556 53.214-12.486 41.23-12.486 62.77 4.2428 42.87 12.486 62.77 20.325 37.983 35.556 53.214 33.314 27.313 53.214 35.556 41.23 12.486 62.77 12.486 42.87-4.2428 62.77-12.486 37.983-20.325 53.214-35.556 27.313-33.314 35.556-53.214 12.486-41.23 12.486-62.77m-164.02 0m164.02 0z" fill="#fff"/>
   </g>
   <g id="patch_3">
    <path d="m184.77 172.58-33.403 33.403 108.56 56.6z" clip-path="url(#pe7e0056e92)" fill="#008fd5" opacity=".01" stroke="#008fd5"/>
   </g>
   <g id="patch_4">
    <path d="m190.75 166.6-47.595-20.794 10.628 57.761 68.388 21.256z" clip-path="url(#pe7e0056e92)" fill="#008fd5" opacity=".01" stroke="#008fd5"/>
   </g>
   <g id="patch_5">
    <path d="m192.59 164.75-69.775-39.277 8.3175 100.73 46.208-46.208z" clip-path="url(#pe7e0056e92)" fill="#008fd5" opacity=".01" stroke="#008fd5"/>
   </g>
   <g id="patch_6">
    <path d="m185.36 171.99-26.992-10.966-34.584 72.542 88.991-18.136z" clip-path="url(#pe7e0056e92)" fill="#008fd5" opacity=".01" stroke="#008fd5"/>
   </g>
   <g id="patch_7">
    <path d="m179.19 178.15-60.533-56.836 40.201 77.168 55.45 18.483z" clip-path="url(#pe7e0056e92)" fill="#008fd5" opacity=".01" stroke="#008fd5"/>
   </g>
   <g id="patch_8">
    <path d="m184.68 172.67-62.805-48.135 37.133 73.807 53.178 16.504z" clip-path="url(#pe7e0056e92)" fill="#008fd5" opacity=".01" stroke="#008fd5"/>
   </g>
   <g id="patch_9">
    <path d="m193.58 163.76-25.98 6.4951-26.444 45.929 90.003 17.629z" clip-path="url(#pe7e0056e92)" fill="#008fd5" opacity=".01" stroke="#008fd5"/>
   </g>
   <g id="patch_10">
    <path d="m177.34 180-23.566-23.566 0.92417 46.208 92.417 47.133z" clip-path="url(#pe7e0056e92)" fill="#008fd5" opacity=".01" stroke="#008fd5"/>
   </g>
   <g id="patch_11">
    <path d="m212.93 144.42-39.277 31.884-54.064 61.457 76.706-38.815z" clip-path="url(#pe7e0056e92)" fill="#008fd5" opacity=".01" stroke="#008fd5"/>
   </g>
   <g id="patch_12">
    <path d="m206.11 151.24-44.538 12.99-19.949 51.497h71.446z" clip-path="url(#pe7e0056e92)" fill="#008fd5" opacity=".01" stroke="#008fd5"/>
   </g>
   <g id="patch_13">
    <path d="m206.92 150.43-50.367 8.7796-18.945 60.533 65.616-13.863z" clip-path="url(#pe7e0056e92)" fill="#008fd5" opacity=".01" stroke="#008fd5"/>
   </g>
   <g id="patch_14">
    <path d="m184.11 173.23-16.247-2.7078-80.782 99.737 99.737-80.782z" clip-path="url(#pe7e0056e92)" fill="#008fd5" opacity=".01" stroke="#008fd5"/>
   </g>
   <g id="patch_15">
    <path d="m206.77 150.57-48.471 10.387-12.118 50.202 67.513 5.1933z" clip-path="url(#pe7e0056e92)" fill="#008fd5" opacity=".01" stroke="#008fd5"/>
   </g>
   <g id="patch_16">
    <path d="m198.22 159.12-105.31-63.559 83.044 85.828 10.67 7.8869z" clip-path="url(#pe7e0056e92)" fill="#008fd5" opacity=".01" stroke="#008fd5"/>
   </g>
   <g id="patch_17">
    <path d="m181.52 175.82-90.467-82.116 66.342 106.24 25.516-14.382z" clip-path="url(#pe7e0056e92)" fill="#008fd5" opacity=".01" stroke="#008fd5"/>
   </g>
   <g id="patch_18">
    <path d="m183.81 173.53h-12.938l-45.284 58.223 103.04-0.46208z" clip-path="url(#pe7e0056e92)" fill="#008fd5" opacity=".01" stroke="#008fd5"/>
   </g>
   <g id="patch_19">
    <path d="m204.25 153.09-77.013-23.197 24.588 75.621 38.97-12.062z" clip-path="url(#pe7e0056e92)" fill="#008fd5" opacity=".01" stroke="#008fd5"/>
   </g>
   <g id="patch_20">
    <path d="m217.71 139.64-77.477 3.2475 2.7836 71.446 38.506-30.156z" clip-path="url(#pe7e0056e92)" fill="#008fd5" opacity=".01" stroke="#008fd5"/>
   </g>
   <g id="patch_21">
    <path d="m233.94 123.4-114.13-0.92786 56.6 58.456h1.8557z" clip-path="url(#pe7e0056e92)" fill="#008fd5" opacity=".01" stroke="#008fd5"/>
   </g>
   <g id="patch_22">
    <path d="m243.69 113.66-102.07 30.62 31.083 40.362 13.918 4.6393z" clip-path="url(#pe7e0056e92)" fill="#008fd5" opacity=".01" stroke="#008fd5"/>
   </g>
   <g id="patch_23">
    <path d="m197.21 160.13-54.526-14.787-7.3934 76.706 61.457-22.642z" clip-path="url(#pe7e0056e92)" fill="#008fd5" opacity=".01" stroke="#008fd5"/>
   </g>
   <g id="patch_24">
    <path d="m212.14 145.21-67.734 1.8557-7.4229 73.301 48.249-32.475z" clip-path="url(#pe7e0056e92)" fill="#008fd5" opacity=".01" stroke="#008fd5"/>
   </g>
   <g id="patch_25">
    <path d="m194.51 162.83-44.074-9.7426-14.846 68.662 71.91-11.598z" clip-path="url(#pe7e0056e92)" fill="#008fd5" opacity=".01" stroke="#008fd5"/>
   </g>
   <g id="patch_26">
    <path d="m259.46 97.884-87.219 77.013-9.2787 19.485h28.764z" clip-path="url(#pe7e0056e92)" fill="#008fd5" opacity=".01" stroke="#008fd5"/>
   </g>
   <g id="patch_27">
    <path d="m204.15 153.2-110.9-57.298 81.789 86.41 5.0829 0.46208z" clip-path="url(#pe7e0056e92)" fill="#008fd5" opacity=".01" stroke="#008fd5"/>
   </g>
   <g id="patch_28">
    <path d="m223.55 133.79-69.313 23.104v46.208l46.671 0.46208z" clip-path="url(#pe7e0056e92)" fill="#008fd5" opacity=".01" stroke="#008fd5"/>
   </g>
   <g id="patch_29">
    <path d="m182.89 174.45-77.63-66.54 33.732 110.44 38.353-38.353z" clip-path="url(#pe7e0056e92)" fill="#008fd5" opacity=".01" stroke="#008fd5"/>
   </g>
   <g id="patch_30">
    <path d="m204.72 152.63-59.383-4.6393 16.702 47.321 56.6 25.98z" clip-path="url(#pe7e0056e92)" fill="#008fd5" opacity=".01" stroke="#008fd5"/>
   </g>
   <g id="patch_31">
    <path d="m188.48 168.87-23.661-1.3918-42.218 67.27 92.323-17.166z" clip-path="url(#pe7e0056e92)" fill="#008fd5" opacity=".01" stroke="#008fd5"/>
   </g>
   <g id="patch_32">
    <path d="m177.34 180-100.27 100.27 115.98-84.561z" clip-path="url(#pe7e0056e92)" fill="#008fd5" opacity=".01" stroke="#008fd5"/>
   </g>
   <g id="patch_33">
    <path d="m217.85 139.5-77.322 3.682 16.109 57.531 38.661-2.7615z" clip-path="url(#pe7e0056e92)" fill="#008fd5" opacity=".01" stroke="#008fd5"/>
   </g>
   <g id="patch_34">
    <path d="m202.66 154.69-41.883 8.7448 7.364 25.774 74.1 55.69z" clip-path="url(#pe7e0056e92)" fill="#008fd5" opacity=".01" stroke="#008fd5"/>
   </g>
   <g id="patch_35">
    <path d="m219.56 137.78-47.785 36.651-19.021 30.156 68.198 19.021z" clip-path="url(#pe7e0056e92)" fill="#008fd5" opacity=".01" stroke="#008fd5"/>
   </g>
   <g id="patch_36">
    <path d="m190.34 167.01-33.403-7.4229-35.723 76.549 82.58-29.692z" clip-path="url(#pe7e0056e92)" fill="#008fd5" opacity=".01" stroke="#008fd5"/>
   </g>
   <g id="patch_37">
    <path d="m196.37 160.98-108.56-70.518 86.291 92.787 7.4229 0.92787z" clip-path="url(#pe7e0056e92)" fill="#008fd5" opacity=".01" stroke="#008fd5"/>
   </g>
   <g id="patch_38">
    <path d="m193.12 164.23-34.331-2.7836-6.0311 43.146 81.652 32.475z" clip-path="url(#pe7e0056e92)" fill="#008fd5" opacity=".01" stroke="#008fd5"/>
   </g>
   <g id="patch_39">
    <path d="m186.62 170.72-78.869-60.311 55.208 83.972 37.115 8.3508z" clip-path="url(#pe7e0056e92)" fill="#008fd5" opacity=".01" stroke="#008fd5"/>
   </g>
   <g id="patch_40">
    <path d="m201.01 156.34-63.095-15.774 14.382 64.487 52.888 2.7836z" clip-path="url(#pe7e0056e92)" fill="#008fd5" opacity=".01" stroke="#008fd5"/>
   </g>
   <g id="patch_41">
    <path d="m201.01 156.34-83.508-36.187 35.723 83.972 32.475-15.774z" clip-path="url(#pe7e0056e92)" fill="#008fd5" opacity=".01" stroke="#008fd5"/>
   </g>
   <g id="patch_42">
    <path d="m279 78.341-109.98 109.98 14.325-2.3104z" clip-path="url(#pe7e0056e92)" fill="#008fd5" opacity=".01" stroke="#008fd5"/>
   </g>
   <g id="patch_43">
    <path d="m193.06 164.29-80.403-48.981 48.981 80.403 35.58 4.1588z" clip-path="url(#pe7e0056e92)" fill="#008fd5" opacity=".01" stroke="#008fd5"/>
   </g>
   <g id="patch_44">
    <path d="m177.34 180-38.506 38.506 115.98 38.97z" clip-path="url(#pe7e0056e92)" fill="#008fd5" opacity=".01" stroke="#008fd5"/>
   </g>
   <g id="patch_45">
    <path d="m190.34 167.01-106.7-80.724 84.436 102.99 9.2787-9.2787z" clip-path="url(#pe7e0056e92)" fill="#008fd5" opacity=".01" stroke="#008fd5"/>
   </g>
   <g id="patch_46">
    <path d="m189.41 167.94-16.702 7.4229-35.259 44.538 99.282 19.485z" clip-path="url(#pe7e0056e92)" fill="#008fd5" opacity=".01" stroke="#008fd5"/>
   </g>
   <g id="patch_47">
    <path d="m258.74 98.601-85.195 77.603-6.7481 14.34 30.788 9.7004z" clip-path="url(#pe7e0056e92)" fill="#008fd5" opacity=".01" stroke="#008fd5"/>
   </g>
   <g id="patch_48">
    <path d="m190.75 166.6-28.649-1.8483-26.801 57.298 87.334 3.2346z" clip-path="url(#pe7e0056e92)" fill="#008fd5" opacity=".01" stroke="#008fd5"/>
   </g>
   <g id="patch_49">
    <path d="m191.21 166.14-32.346-4.6208-25.415 62.381 83.637-4.1588z" clip-path="url(#pe7e0056e92)" fill="#008fd5" opacity=".01" stroke="#008fd5"/>
   </g>
   <g id="patch_50">
    <path d="m198.76 158.59-70.928-28.104 29.442 69.59 45.055 4.907z" clip-path="url(#pe7e0056e92)" fill="#008fd5" opacity=".01" stroke="#008fd5"/>
   </g>
   <g id="patch_51">
    <path d="m281.31 76.031-103.97 103.97 12.014 12.014z" clip-path="url(#pe7e0056e92)" fill="#008fd5" opacity=".01" stroke="#008fd5"/>
   </g>
   <g id="patch_52">
    <path d="m200.54 156.8-69.59-23.197 23.197 69.59h46.393z" clip-path="url(#pe7e0056e92)" fill="#008fd5" opacity=".01" stroke="#008fd5"/>
   </g>
   <g id="patch_53">
    <path d="m193.12 164.23-39.434-7.8869-6.0311 53.352 76.549 17.166z" clip-path="url(#pe7e0056e92)" fill="#008fd5" opacity=".01" stroke="#008fd5"/>
   </g>
   <g id="patch_54">
    <path d="m201.84 155.51-62.843-13.863 23.566 53.14 53.14 23.566z" clip-path="url(#pe7e0056e92)" fill="#008fd5" opacity=".01" stroke="#008fd5"/>
   </g>
   <g id="patch_55">
    <path d="m202.2 155.15-93.891-44.184 56.611 81.464 22.092-2.7615z" clip-path="url(#pe7e0056e92)" fill="#008fd5" opacity=".01" stroke="#008fd5"/>
   </g>
   <g id="patch_56">
    <path d="m197.21 160.13-35.58 4.1588-22.642 54.064 80.403 3.6967z" clip-path="url(#pe7e0056e92)" fill="#008fd5" opacity=".01" stroke="#008fd5"/>
   </g>
   <g id="patch_57">
    <path d="m199.15 158.2-85.828 85.828 94.178-33.867z" clip-path="url(#pe7e0056e92)" fill="#008fd5" opacity=".01" stroke="#008fd5"/>
   </g>
   <g id="patch_58">
    <path d="m205.64 151.7-73.765-17.166 29.228 61.703 42.218 9.7426z" clip-path="url(#pe7e0056e92)" fill="#008fd5" opacity=".01" stroke="#008fd5"/>
   </g>
   <g id="patch_59">
    <path d="m182.43 174.92-16.635-6.4692-78.554 101.66 99.348-80.865z" clip-path="url(#pe7e0056e92)" fill="#008fd5" opacity=".01" stroke="#008fd5"/>
   </g>
   <g id="patch_60">
    <path d="m185.7 171.65-85.828-69.126 62.167 92.787 30.156-0.46393z" clip-path="url(#pe7e0056e92)" fill="#008fd5" opacity=".01" stroke="#008fd5"/>
   </g>
   <g id="patch_61">
    <path d="m197.76 159.59-95.106-54.28 61.239 88.147 20.877-6.0311z" clip-path="url(#pe7e0056e92)" fill="#008fd5" opacity=".01" stroke="#008fd5"/>
   </g>
   <g id="patch_62">
    <path d="m214.46 142.89-112.27-38.042 73.301 77.013h3.7115z" clip-path="url(#pe7e0056e92)" fill="#008fd5" opacity=".01" stroke="#008fd5"/>
   </g>
   <g id="patch_63">
    <path d="m247.86 109.48-90.467 50.569v39.898l25.516-14.382z" clip-path="url(#pe7e0056e92)" fill="#008fd5" opacity=".01" stroke="#008fd5"/>
   </g>
   <g id="patch_64">
    <path d="m201.47 155.88-40.362 7.8869-39.898 72.374 75.621-36.651z" clip-path="url(#pe7e0056e92)" fill="#008fd5" opacity=".01" stroke="#008fd5"/>
   </g>
   <g id="patch_65">
    <path d="m212.14 145.21-75.621-6.0311 31.083 50.569 40.362 20.877z" clip-path="url(#pe7e0056e92)" fill="#008fd5" opacity=".01" stroke="#008fd5"/>
   </g>
   <g id="patch_66">
    <path d="m187.09 170.26-18.557 0.92787-73.765 91.395 97.426-67.734z" clip-path="url(#pe7e0056e92)" fill="#008fd5" opacity=".01" stroke="#008fd5"/>
   </g>
   <g id="patch_67">
    <path d="m198.6 158.74-91.031-48.519 50.367 89.182 24.953-13.863z" clip-path="url(#pe7e0056e92)" fill="#008fd5" opacity=".01" stroke="#008fd5"/>
   </g>
   <g id="patch_68">
    <path d="m204.61 152.74-52.216 2.3104 2.7725 47.133 63.768 19.408z" clip-path="url(#pe7e0056e92)" fill="#008fd5" opacity=".01" stroke="#008fd5"/>
   </g>
   <g id="patch_69">
    <path d="m179.2 178.14-4.1754-0.46393-68.662 73.301 111.81-30.156z" clip-path="url(#pe7e0056e92)" fill="#008fd5" opacity=".01" stroke="#008fd5"/>
   </g>
   <g id="patch_70">
    <path d="m204.85 152.49-64.18-9.1686 5.9596 67.389 51.803-9.6271z" clip-path="url(#pe7e0056e92)" fill="#008fd5" opacity=".01" stroke="#008fd5"/>
   </g>
   <g id="patch_71">
    <path d="m186.12 171.22-56.374 56.374 107.2 12.014z" clip-path="url(#pe7e0056e92)" fill="#008fd5" opacity=".01" stroke="#008fd5"/>
   </g>
   <g id="patch_72">
    <path d="m217.71 139.64-82.58-1.8557 26.908 57.528 33.403 2.7836z" clip-path="url(#pe7e0056e92)" fill="#008fd5" opacity=".01" stroke="#008fd5"/>
   </g>
   <g id="patch_73">
    <path d="m187.97 169.37-22.18-0.92417-54.064 77.168 93.803-37.429z" clip-path="url(#pe7e0056e92)" fill="#008fd5" opacity=".01" stroke="#008fd5"/>
   </g>
   <g id="patch_74">
    <path d="m270.69 86.659-106.74 79.941 9.7038 17.097 9.2417 1.8483z" clip-path="url(#pe7e0056e92)" fill="#008fd5" opacity=".01" stroke="#008fd5"/>
   </g>
   <g id="patch_75">
    <path d="m237.42 119.93-93.341 93.341 55.912-10.628z" clip-path="url(#pe7e0056e92)" fill="#008fd5" opacity=".01" stroke="#008fd5"/>
   </g>
   <g id="patch_76">
    <path d="m177.34 180-75.621-75.621 115.98 115.98z" clip-path="url(#pe7e0056e92)" fill="#008fd5" opacity=".01" stroke="#008fd5"/>
   </g>
   <g id="patch_77">
    <path d="m177.34 180-85.828-85.828 82.58 89.075 30.156 23.661z" clip-path="url(#pe7e0056e92)" fill="#008fd5" opacity=".01" stroke="#008fd5"/>
   </g>
   <g id="patch_78">
    <path d="m199.61 157.73-23.661 20.877-51.033 53.816 92.323-12.526z" clip-path="url(#pe7e0056e92)" fill="#008fd5" opacity=".01" stroke="#008fd5"/>
   </g>
   <g id="patch_79">
    <path d="m192.65 164.69-19.949 10.67-68.662 77.941 96.034-50.569z" clip-path="url(#pe7e0056e92)" fill="#008fd5" opacity=".01" stroke="#008fd5"/>
   </g>
   <g id="patch_80">
    <path d="m267.35 89.997-107.17 107.17 25.98-8.3508z" clip-path="url(#pe7e0056e92)" fill="#008fd5" opacity=".01" stroke="#008fd5"/>
   </g>
   <g id="patch_81">
    <path d="m205.07 152.27-28.187 27.263-10.628 11.552 87.796 65.616z" clip-path="url(#pe7e0056e92)" fill="#008fd5" opacity=".01" stroke="#008fd5"/>
   </g>
   <g id="patch_82">
    <path d="m199.99 157.36-47.133-1.8483-20.794 69.775 68.851-21.718z" clip-path="url(#pe7e0056e92)" fill="#008fd5" opacity=".01" stroke="#008fd5"/>
   </g>
   <g id="patch_83">
    <path d="m194.05 163.3-44.074-10.67 15.31 39.434 71.91 47.785z" clip-path="url(#pe7e0056e92)" fill="#008fd5" opacity=".01" stroke="#008fd5"/>
   </g>
   <g id="patch_84">
    <path d="m200.08 157.27-41.754 3.7115-32.939 70.982 74.229-29.692z" clip-path="url(#pe7e0056e92)" fill="#008fd5" opacity=".01" stroke="#008fd5"/>
   </g>
   <g id="patch_85">
    <path d="m236.73 120.62-77.941 40.826 56.6 56.6z" clip-path="url(#pe7e0056e92)" fill="#008fd5" opacity=".01" stroke="#008fd5"/>
   </g>
   <g id="patch_86">
    <path d="m197.21 160.13-88.72-48.981 59.609 78.092 27.263 8.7796z" clip-path="url(#pe7e0056e92)" fill="#008fd5" opacity=".01" stroke="#008fd5"/>
   </g>
   <g id="patch_87">
    <path d="m183.81 173.53-11.09 1.8483-17.097 26.339 104.89 61.457z" clip-path="url(#pe7e0056e92)" fill="#008fd5" opacity=".01" stroke="#008fd5"/>
   </g>
   <g id="patch_88">
    <path d="m202.3 155.05-87.796-37.891 57.298 68.388 28.187 17.097z" clip-path="url(#pe7e0056e92)" fill="#008fd5" opacity=".01" stroke="#008fd5"/>
   </g>
   <g id="patch_89">
    <path d="m185.23 172.11-84.9-69.126 69.126 84.9 31.083 15.31z" clip-path="url(#pe7e0056e92)" fill="#008fd5" opacity=".01" stroke="#008fd5"/>
   </g>
   <g id="patch_90">
    <path d="m200.08 157.27-87.683-42.218 54.28 75.621 28.3 6.959z" clip-path="url(#pe7e0056e92)" fill="#008fd5" opacity=".01" stroke="#008fd5"/>
   </g>
   <g id="patch_91">
    <path d="m206.92 150.43-38.815 20.332-27.725 46.208 77.168 3.2346z" clip-path="url(#pe7e0056e92)" fill="#008fd5" opacity=".01" stroke="#008fd5"/>
   </g>
   <g id="patch_92">
    <path d="m206.45 150.89-52.761 5.458-7.2774 54.58 63.222 1.3645z" clip-path="url(#pe7e0056e92)" fill="#008fd5" opacity=".01" stroke="#008fd5"/>
   </g>
   <g id="patch_93">
    <path d="m200.45 156.9-69.775-23.566 24.028 69.313 46.208 0.92417z" clip-path="url(#pe7e0056e92)" fill="#008fd5" opacity=".01" stroke="#008fd5"/>
   </g>
   <g id="patch_94">
    <path d="m206.57 150.77-44.074 14.382-34.331 64.023 71.91-26.444z" clip-path="url(#pe7e0056e92)" fill="#008fd5" opacity=".01" stroke="#008fd5"/>
   </g>
   <g id="patch_95">
    <path d="m194.97 162.37-63.095-27.836 16.702 74.229 52.888-4.6393z" clip-path="url(#pe7e0056e92)" fill="#008fd5" opacity=".01" stroke="#008fd5"/>
   </g>
   <g id="patch_96">
    <path d="m246.47 110.87-81.188 57.064-0.92786 25.052 34.795 8.8147z" clip-path="url(#pe7e0056e92)" fill="#008fd5" opacity=".01" stroke="#008fd5"/>
   </g>
   <g id="patch_97">
    <path d="m263.64 93.709-98.818 73.765 6.0311 19.021 17.166 4.1754z" clip-path="url(#pe7e0056e92)" fill="#008fd5" opacity=".01" stroke="#008fd5"/>
   </g>
   <g id="patch_98">
    <path d="m200.08 157.27-59.847-14.382 10.67 63.559 56.136 3.2475z" clip-path="url(#pe7e0056e92)" fill="#008fd5" opacity=".01" stroke="#008fd5"/>
   </g>
   <g id="patch_99">
    <path d="m199.61 157.73-67.27-22.733 29.228 60.775 48.713 17.166z" clip-path="url(#pe7e0056e92)" fill="#008fd5" opacity=".01" stroke="#008fd5"/>
   </g>
   <g id="patch_100">
    <path d="m216.47 140.88-100.79-22.552 46.485 76.862 15.188-15.188z" clip-path="url(#pe7e0056e92)" fill="#008fd5" opacity=".01" stroke="#008fd5"/>
   </g>
   <g id="patch_101">
    <path d="m193.98 163.36-101.66-68.388 99.348 99.348z" clip-path="url(#pe7e0056e92)" fill="#008fd5" opacity=".01" stroke="#008fd5"/>
   </g>
   <g id="patch_102">
    <path d="m188.48 168.87-87.219-64.951 60.775 91.395 28.764-1.8557z" clip-path="url(#pe7e0056e92)" fill="#008fd5" opacity=".01" stroke="#008fd5"/>
   </g>
   <g id="patch_103">
    <path d="m231.16 126.18-112.74-5.1033 62.167 62.167z" clip-path="url(#pe7e0056e92)" fill="#008fd5" opacity=".01" stroke="#008fd5"/>
   </g>
   <g id="patch_104">
    <path d="m187.09 170.26-26.444-6.959-11.134 44.538 89.539 33.867z" clip-path="url(#pe7e0056e92)" fill="#008fd5" opacity=".01" stroke="#008fd5"/>
   </g>
   <g id="patch_105">
    <path d="m183.38 173.97-15.774-3.7115-10.207 29.692 100.21 60.311z" clip-path="url(#pe7e0056e92)" fill="#008fd5" opacity=".01" stroke="#008fd5"/>
   </g>
   <g id="patch_106">
    <path d="m220.95 136.39-63.559 23.661 5.5672 34.331 52.424 23.661z" clip-path="url(#pe7e0056e92)" fill="#008fd5" opacity=".01" stroke="#008fd5"/>
   </g>
   <g id="patch_107">
    <path d="m251.28 106.07-88.258 59.609-13.4 42.05 27.725-27.725z" clip-path="url(#pe7e0056e92)" fill="#008fd5" opacity=".01" stroke="#008fd5"/>
   </g>
   <g id="patch_108">
    <path d="m191.15 166.19-23.013 4.6025-62.134 80.544 92.971-49.707z" clip-path="url(#pe7e0056e92)" fill="#008fd5" opacity=".01" stroke="#008fd5"/>
   </g>
   <g id="patch_109">
    <path d="m227.25 130.09-67.464 32.346-16.173 51.291 48.519-18.945z" clip-path="url(#pe7e0056e92)" fill="#008fd5" opacity=".01" stroke="#008fd5"/>
   </g>
   <g id="patch_110">
    <path d="m194.97 162.37-35.723-0.46393-14.382 50.569 80.26 15.31z" clip-path="url(#pe7e0056e92)" fill="#008fd5" opacity=".01" stroke="#008fd5"/>
   </g>
   <g id="patch_111">
    <path d="m208.89 148.45-94.178-31.083 50.105 75.157 21.805-3.2475z" clip-path="url(#pe7e0056e92)" fill="#008fd5" opacity=".01" stroke="#008fd5"/>
   </g>
   <g id="patch_112">
    <path d="m212.46 144.88-85.024-14.787 32.346 67.464 30.96-4.1588z" clip-path="url(#pe7e0056e92)" fill="#008fd5" opacity=".01" stroke="#008fd5"/>
   </g>
   <g id="patch_113">
    <path d="m197.68 159.67-51.753-11.09 17.097 45.746 64.23 35.581z" clip-path="url(#pe7e0056e92)" fill="#008fd5" opacity=".01" stroke="#008fd5"/>
   </g>
   <g id="patch_114">
    <path d="m210.48 146.86-81.004-14.728 32.678 63.054 34.979 4.6025z" clip-path="url(#pe7e0056e92)" fill="#008fd5" opacity=".01" stroke="#008fd5"/>
   </g>
   <g id="patch_115">
    <path d="m197.29 160.05-86.755-46.857 59.847 73.765 29.228 15.31z" clip-path="url(#pe7e0056e92)" fill="#008fd5" opacity=".01" stroke="#008fd5"/>
   </g>
   <g id="patch_116">
    <path d="m212.52 144.83-45.64 24.704-12.561 33.497 70.344 24.285z" clip-path="url(#pe7e0056e92)" fill="#008fd5" opacity=".01" stroke="#008fd5"/>
   </g>
   <g id="patch_117">
    <path d="m194.05 163.3-110.88 110.88 99.282-89.075z" clip-path="url(#pe7e0056e92)" fill="#008fd5" opacity=".01" stroke="#008fd5"/>
   </g>
   <g id="patch_118">
    <path d="m211.86 145.48-85.146-16.109 34.519 66.736 30.837-1.3808z" clip-path="url(#pe7e0056e92)" fill="#008fd5" opacity=".01" stroke="#008fd5"/>
   </g>
   <g id="patch_119">
    <path d="m197.76 159.59-96.498 96.498 95.57-56.6z" clip-path="url(#pe7e0056e92)" fill="#008fd5" opacity=".01" stroke="#008fd5"/>
   </g>
   <g id="patch_120">
    <path d="m196.37 160.98-39.434-1.3918-33.403 74.229 76.549-31.083z" clip-path="url(#pe7e0056e92)" fill="#008fd5" opacity=".01" stroke="#008fd5"/>
   </g>
   <g id="patch_121">
    <path d="m203.33 154.02-45.465 6.4951-10.67 49.641 70.518 10.207z" clip-path="url(#pe7e0056e92)" fill="#008fd5" opacity=".01" stroke="#008fd5"/>
   </g>
   <g id="patch_122">
    <path d="m200.54 156.8-47.321-0.92786v48.249l68.662 20.413z" clip-path="url(#pe7e0056e92)" fill="#008fd5" opacity=".01" stroke="#008fd5"/>
   </g>
   <g id="patch_123">
    <path d="m199.15 158.2-32.011 11.598-36.187 56.6 83.972-8.8147z" clip-path="url(#pe7e0056e92)" fill="#008fd5" opacity=".01" stroke="#008fd5"/>
   </g>
   <g id="patch_124">
    <path d="m188.48 168.87-24.125-1.8557-32.011 57.992 91.859 1.8557z" clip-path="url(#pe7e0056e92)" fill="#008fd5" opacity=".01" stroke="#008fd5"/>
   </g>
   <g id="patch_125">
    <path d="m209.36 147.99-55.672 55.672 83.972 36.651z" clip-path="url(#pe7e0056e92)" fill="#008fd5" opacity=".01" stroke="#008fd5"/>
   </g>
   <g id="patch_126">
    <path d="m201.47 155.88-50.569-2.3197-11.134 64.023 65.415-9.7426z" clip-path="url(#pe7e0056e92)" fill="#008fd5" opacity=".01" stroke="#008fd5"/>
   </g>
   <g id="patch_127">
    <path d="m192.65 164.69-63.095-32.475 14.382 81.188 52.888-13.918z" clip-path="url(#pe7e0056e92)" fill="#008fd5" opacity=".01" stroke="#008fd5"/>
   </g>
   <g id="patch_128">
    <path d="m195.9 161.44-44.538-7.4229-1.3918 53.352 71.446 16.702z" clip-path="url(#pe7e0056e92)" fill="#008fd5" opacity=".01" stroke="#008fd5"/>
   </g>
   <g id="patch_129">
    <path d="m192.19 165.15-20.877 8.8147-71.446 83.508 95.106-59.847z" clip-path="url(#pe7e0056e92)" fill="#008fd5" opacity=".01" stroke="#008fd5"/>
   </g>
   <g id="patch_130">
    <path d="m213.53 143.81-81.188-8.8147 37.115 52.888 34.795 19.021z" clip-path="url(#pe7e0056e92)" fill="#008fd5" opacity=".01" stroke="#008fd5"/>
   </g>
   <g id="patch_131">
    <path d="m209.56 147.78-37.28 27.155-72.72 82.845 78.703-76.862z" clip-path="url(#pe7e0056e92)" fill="#008fd5" opacity=".01" stroke="#008fd5"/>
   </g>
   <g id="patch_132">
    <path d="m210.48 146.86-66.736-0.46025-5.9833 73.18 49.247-29.916z" clip-path="url(#pe7e0056e92)" fill="#008fd5" opacity=".01" stroke="#008fd5"/>
   </g>
   <g id="patch_133">
    <path d="m200.54 156.8-46.857-0.46393-21.805 69.126 69.126-21.805z" clip-path="url(#pe7e0056e92)" fill="#008fd5" opacity=".01" stroke="#008fd5"/>
   </g>
   <g id="patch_134">
    <path d="m219.1 138.25-84.9-1.3918 38.042 48.249 31.083 20.877z" clip-path="url(#pe7e0056e92)" fill="#008fd5" opacity=".01" stroke="#008fd5"/>
   </g>
   <g id="patch_135">
    <path d="m228.38 128.97-85.828 16.238 16.702 52.888 30.156-6.0311z" clip-path="url(#pe7e0056e92)" fill="#008fd5" opacity=".01" stroke="#008fd5"/>
   </g>
   <g id="patch_136">
    <path d="m182.43 174.92-17.559-7.3934-62.843 87.796 98.424-52.216z" clip-path="url(#pe7e0056e92)" fill="#008fd5" opacity=".01" stroke="#008fd5"/>
   </g>
   <g id="patch_137">
    <path d="m220.32 137.03-70.699 15.249 5.545 49.905 45.284 0.92417z" clip-path="url(#pe7e0056e92)" fill="#008fd5" opacity=".01" stroke="#008fd5"/>
   </g>
   <g id="patch_138">
    <path d="m194.05 163.3-102.07-68.662 99.282 99.282z" clip-path="url(#pe7e0056e92)" fill="#008fd5" opacity=".01" stroke="#008fd5"/>
   </g>
   <g id="patch_139">
    <path d="m186.16 171.19-115.06-97.426 107.17 107.17z" clip-path="url(#pe7e0056e92)" fill="#008fd5" opacity=".01" stroke="#008fd5"/>
   </g>
   <g id="patch_140">
    <path d="m209.31 148.04-80.366-16.439 34.247 62.558 35.617 7.306z" clip-path="url(#pe7e0056e92)" fill="#008fd5" opacity=".01" stroke="#008fd5"/>
   </g>
   <g id="patch_141">
    <path d="m198.22 159.12-26.444 15.31-61.239 72.374 89.539-44.074z" clip-path="url(#pe7e0056e92)" fill="#008fd5" opacity=".01" stroke="#008fd5"/>
   </g>
   <g id="patch_142">
    <path d="m181.88 175.47-12.233-3.1714-67.506 82.91 103.75-46.665z" clip-path="url(#pe7e0056e92)" fill="#008fd5" opacity=".01" stroke="#008fd5"/>
   </g>
   <g id="patch_143">
    <path d="m231.44 125.91-101.31 6.8765 61.888 61.888z" clip-path="url(#pe7e0056e92)" fill="#008fd5" opacity=".01" stroke="#008fd5"/>
   </g>
   <g id="patch_144">
    <path d="m177.34 180-106.24-106.24 115.98 115.98z" clip-path="url(#pe7e0056e92)" fill="#008fd5" opacity=".01" stroke="#008fd5"/>
   </g>
   <g id="patch_145">
    <path d="m177.34 180-26.801-26.801-30.035 83.637 89.182-24.49z" clip-path="url(#pe7e0056e92)" fill="#008fd5" opacity=".01" stroke="#008fd5"/>
   </g>
   <g id="patch_146">
    <path d="m205.18 152.16-31.083 24.588-69.59 76.085 84.9-60.775z" clip-path="url(#pe7e0056e92)" fill="#008fd5" opacity=".01" stroke="#008fd5"/>
   </g>
   <g id="patch_147">
    <path d="m212.14 145.21-58.456 11.134-10.67 57.992 57.528-11.134z" clip-path="url(#pe7e0056e92)" fill="#008fd5" opacity=".01" stroke="#008fd5"/>
   </g>
   <g id="patch_148">
    <path d="m193.52 163.83-37.891-5.545-37.429 80.865 78.092-40.201z" clip-path="url(#pe7e0056e92)" fill="#008fd5" opacity=".01" stroke="#008fd5"/>
   </g>
   <g id="patch_149">
    <path d="m194.9 162.44-65.154-30.035 36.505 58.685 50.829 28.649z" clip-path="url(#pe7e0056e92)" fill="#008fd5" opacity=".01" stroke="#008fd5"/>
   </g>
   <g id="patch_150">
    <path d="m217.71 139.64-79.796 0.92786 30.156 48.713 36.187 17.629z" clip-path="url(#pe7e0056e92)" fill="#008fd5" opacity=".01" stroke="#008fd5"/>
   </g>
   <g id="patch_151">
    <path d="m201.28 156.07-65.356-17.49 8.7448 74.1 50.628-14.728z" clip-path="url(#pe7e0056e92)" fill="#008fd5" opacity=".01" stroke="#008fd5"/>
   </g>
   <g id="patch_152">
    <path d="m235.34 122.01-72.374 43.61 9.2787 19.485 43.61 33.403z" clip-path="url(#pe7e0056e92)" fill="#008fd5" opacity=".01" stroke="#008fd5"/>
   </g>
   <g id="patch_153">
    <path d="m275.31 82.038-103.51 92.417-2.7725 13.863 12.476-4.1588z" clip-path="url(#pe7e0056e92)" fill="#008fd5" opacity=".01" stroke="#008fd5"/>
   </g>
   <g id="patch_154">
    <path d="m196.37 160.98-39.898-1.8557 2.7836 38.97 76.085 39.898z" clip-path="url(#pe7e0056e92)" fill="#008fd5" opacity=".01" stroke="#008fd5"/>
   </g>
   <g id="patch_155">
    <path d="m180.58 176.77-100.27-93.803 92.879 101.2 15.711 7.3934z" clip-path="url(#pe7e0056e92)" fill="#008fd5" opacity=".01" stroke="#008fd5"/>
   </g>
   <g id="patch_156">
    <path d="m177.34 180-105.86-105.86 115.98 115.98z" clip-path="url(#pe7e0056e92)" fill="#008fd5" opacity=".01" stroke="#008fd5"/>
   </g>
   <g id="matplotlib.axis_1">
    <g id="xtick_1">
     <g id="text_1"><!-- I1D -->
      <defs>
       <path id="DejaVuSans-49" d="m9.8125 72.906h9.8594v-72.906h-9.8594z"/>
       <path id="DejaVuSans-31" d="m12.406 8.2969h16.109v55.625l-17.531-3.5156v8.9844l17.438 3.5156h9.8594v-64.609h16.109v-8.2969h-41.984z"/>
       <path id="DejaVuSans-44" d="m19.672 64.797v-56.688h11.922q15.094 0 22.094 6.8281 7 6.8438 7 21.594 0 14.641-7 21.453t-22.094 6.8125zm-9.8594 8.1094h20.266q21.188 0 31.094-8.8125 9.9219-8.8125 9.9219-27.562 0-18.859-9.9688-27.703-9.9531-8.8281-31.047-8.8281h-20.266z"/>
      </defs>
      <g transform="translate(293.02 57.429) scale(.12 -.12)" fill="#808080">
       <use xlink:href="#DejaVuSans-49"/>
       <use x="29.492188" xlink:href="#DejaVuSans-31"/>
       <use x="93.115234" xlink:href="#DejaVuSans-44"/>
      </g>
     </g>
    </g>
    <g id="xtick_2">
     <g id="text_2"><!-- 1D -->
      <g transform="translate(43.025 57.429) scale(.12 -.12)" fill="#808080">
       <use xlink:href="#DejaVuSans-31"/>
       <use x="63.623047" xlink:href="#DejaVuSans-44"/>
      </g>
     </g>
    </g>
    <g id="xtick_3">
     <g id="text_3"><!-- R -->
      <defs>
       <path id="DejaVuSans-52" d="m44.391 34.188q3.1719-1.0781 6.1719-4.5938t6.0312-9.6719l10.016-19.922h-10.609l-9.3125 18.703q-3.625 7.3281-7.0156 9.7188t-9.25 2.3906h-10.75v-30.812h-9.8594v72.906h22.266q12.5 0 18.656-5.2344 6.1562-5.2188 6.1562-15.766 0-6.8906-3.2031-11.438-3.2031-4.5312-9.2969-6.2812zm-24.719 30.609v-25.875h12.406q7.125 0 10.766 3.2969t3.6406 9.6875-3.6406 9.6406-10.766 3.25z"/>
      </defs>
      <g transform="translate(47.293 309.19) scale(.12 -.12)" fill="#808080">
       <use xlink:href="#DejaVuSans-52"/>
      </g>
     </g>
    </g>
    <g id="xtick_4">
     <g id="text_4"><!-- 2D -->
      <defs>
       <path id="DejaVuSans-32" d="m19.188 8.2969h34.422v-8.2969h-46.281v8.2969q5.6094 5.8125 15.297 15.594 9.7031 9.7969 12.188 12.641 4.7344 5.3125 6.6094 9 1.8906 3.6875 1.8906 7.25 0 5.8125-4.0781 9.4688-4.0781 3.6719-10.625 3.6719-4.6406 0-9.7969-1.6094-5.1406-1.6094-11-4.8906v9.9688q5.9531 2.3906 11.125 3.6094 5.1875 1.2188 9.4844 1.2188 11.328 0 18.062-5.6719 6.7344-5.6562 6.7344-15.125 0-4.5-1.6875-8.5312-1.6719-4.0156-6.125-9.4844-1.2188-1.4219-7.7656-8.1875-6.5312-6.7656-18.453-18.922z"/>
      </defs>
      <g transform="translate(294.79 309.19) scale(.12 -.12)" fill="#808080">
       <use xlink:href="#DejaVuSans-32"/>
       <use x="63.623047" xlink:href="#DejaVuSans-44"/>
      </g>
     </g>
    </g>
   </g>
   <g id="matplotlib.axis_2">
    <g id="ytick_1">
     <g id="line2d_1">
      <path d="m177.34 180v0" clip-path="url(#pe7e0056e92)" fill="none" stroke="#b0b0b0" stroke-linecap="square" stroke-width=".8"/>
     </g>
     <g id="text_5"><!-- 0 -->
      <defs>
       <path id="DejaVuSans-30" d="m31.781 66.406q-7.6094 0-11.453-7.5-3.8281-7.4844-3.8281-22.531 0-14.984 3.8281-22.484 3.8438-7.5 11.453-7.5 7.6719 0 11.5 7.5 3.8438 7.5 3.8438 22.484 0 15.047-3.8438 22.531-3.8281 7.5-11.5 7.5zm0 7.8125q12.266 0 18.734-9.7031 6.4688-9.6875 6.4688-28.141 0-18.406-6.4688-28.109-6.4688-9.6875-18.734-9.6875-12.25 0-18.719 9.6875-6.4688 9.7031-6.4688 28.109 0 18.453 6.4688 28.141 6.4688 9.7031 18.719 9.7031z"/>
      </defs>
      <g transform="translate(177.34 178.54) scale(.07 -.07)" fill="#808080">
       <use xlink:href="#DejaVuSans-30"/>
      </g>
     </g>
    </g>
    <g id="ytick_2">
     <g id="line2d_2">
      <path d="m210.15 180-0.079911-2.2884-0.23934-2.2772-0.39761-2.255-0.55394-2.2217-0.70757-2.1777-0.85776-2.123-1.0038-2.058-1.1449-1.983-1.2804-1.8983-1.4097-1.8044-1.5321-1.7016-1.6471-1.5906-1.7541-1.4718-1.8525-1.3459-1.9418-1.2134-2.0217-1.075-2.0918-0.93133-2.1517-0.78314-2.2011-0.63114-2.2397-0.47607-2.2675-0.31867-2.2842-0.15972h-2.2898l-2.2842 0.15972-2.2675 0.31867-2.2397 0.47607-2.2011 0.63114-2.1517 0.78314-2.0918 0.93133-2.0217 1.075-1.9418 1.2134-1.8525 1.3459-1.7541 1.4718-1.6471 1.5906-1.5321 1.7016-1.4097 1.8044-1.2804 1.8983-1.1449 1.983-1.0038 2.058-0.85776 2.123-0.70757 2.1777-0.55394 2.2217-0.39761 2.255-0.23934 2.2772-0.079911 2.2884 0.079911 2.2884 0.23934 2.2772 0.39761 2.255 0.55394 2.2217 0.70757 2.1777 0.85776 2.123 1.0038 2.058 1.1449 1.983 1.2804 1.8983 1.4097 1.8044 1.5321 1.7016 1.6471 1.5906 1.7541 1.4718 1.8525 1.3459 1.9418 1.2134 2.0217 1.075 2.0918 0.93133 2.1517 0.78314 2.2011 0.63114 2.2397 0.47607 2.2675 0.31867 2.2842 0.15972h2.2898l2.2842-0.15972 2.2675-0.31867 2.2397-0.47607 2.2011-0.63114 2.1517-0.78314 2.0918-0.93133 2.0217-1.075 1.9418-1.2134 1.8525-1.3459 1.7541-1.4718 1.6471-1.5906 1.5321-1.7016 1.4097-1.8044 1.2804-1.8983 1.1449-1.983 1.0038-2.058 0.85776-2.123 0.70757-2.1777 0.55394-2.2217 0.39761-2.255 0.23934-2.2772 0.079911-2.2884v0" clip-path="url(#pe7e0056e92)" fill="none" stroke="#b0b0b0" stroke-linecap="square" stroke-width=".8"/>
     </g>
     <g id="text_6"><!-- 20 -->
      <g transform="translate(210.15 178.54) scale(.07 -.07)" fill="#808080">
       <use xlink:href="#DejaVuSans-32"/>
       <use x="63.623047" xlink:href="#DejaVuSans-30"/>
      </g>
     </g>
    </g>
    <g id="ytick_3">
     <g id="line2d_3">
      <path d="m242.96 180-0.15982-4.5767-0.47869-4.5544-0.79522-4.5099-1.1079-4.4435-1.4151-4.3554-1.7155-4.246-2.0075-4.116-2.2898-3.966-2.5608-3.7966-2.8194-3.6087-3.0643-3.4032-3.2942-3.1812-3.5081-2.9437-3.7049-2.6918-3.8836-2.4268-4.0435-2.15-4.1836-1.8627-4.3033-1.5663-4.4021-1.2623-4.4794-0.95213-4.5349-0.63734-4.5684-0.31945h-4.5795l-4.5684 0.31945-4.5349 0.63734-4.4794 0.95213-4.4021 1.2623-4.3033 1.5663-4.1836 1.8627-4.0435 2.15-3.8836 2.4268-3.7049 2.6918-3.5081 2.9437-3.2942 3.1812-3.0643 3.4032-2.8194 3.6087-2.5608 3.7966-2.2898 3.966-2.0075 4.116-1.7155 4.246-1.4151 4.3554-1.1079 4.4435-0.79522 4.5099-0.47869 4.5544-0.15982 4.5767 0.15982 4.5767 0.47869 4.5544 0.79522 4.5099 1.1079 4.4435 1.4151 4.3554 1.7155 4.246 2.0075 4.116 2.2898 3.966 2.5608 3.7966 2.8194 3.6087 3.0643 3.4032 3.2942 3.1812 3.5081 2.9437 3.7049 2.6918 3.8836 2.4268 4.0435 2.15 4.1836 1.8627 4.3033 1.5663 4.4021 1.2623 4.4794 0.95213 4.5349 0.63734 4.5684 0.31945h4.5795l4.5684-0.31945 4.5349-0.63734 4.4794-0.95213 4.4021-1.2623 4.3033-1.5663 4.1836-1.8627 4.0435-2.15 3.8836-2.4268 3.7049-2.6918 3.5081-2.9437 3.2942-3.1812 3.0643-3.4032 2.8194-3.6087 2.5608-3.7966 2.2898-3.966 2.0075-4.116 1.7155-4.246 1.4151-4.3554 1.1079-4.4435 0.79522-4.5099 0.47869-4.5544 0.15982-4.5767v0" clip-path="url(#pe7e0056e92)" fill="none" stroke="#b0b0b0" stroke-linecap="square" stroke-width=".8"/>
     </g>
     <g id="text_7"><!-- 40 -->
      <defs>
       <path id="DejaVuSans-34" d="m37.797 64.312-24.906-38.922h24.906zm-2.5938 8.5938h12.406v-47.516h10.406v-8.2031h-10.406v-17.188h-9.8125v17.188h-32.906v9.5156z"/>
      </defs>
      <g transform="translate(242.96 178.54) scale(.07 -.07)" fill="#808080">
       <use xlink:href="#DejaVuSans-34"/>
       <use x="63.623047" xlink:href="#DejaVuSans-30"/>
      </g>
     </g>
    </g>
    <g id="ytick_4">
     <g id="line2d_4">
      <path d="m275.76 180-0.059952-3.4346-0.17978-3.4304-0.29939-3.4221-0.41864-3.4096-0.53738-3.3929-0.65546-3.372-0.77274-3.3471-0.88908-3.3181-1.0043-3.2851-1.1184-3.248-1.231-3.207-1.3422-3.1621-1.4518-3.1133-1.5595-3.0607-1.6654-3.0045-1.7692-2.9445-1.8709-2.881-1.9703-2.8139-2.0673-2.7434-2.1618-2.6696-2.2537-2.5925-2.3428-2.5123-2.429-2.429-2.5123-2.3428-2.5925-2.2537-2.6696-2.1618-2.7434-2.0673-2.8139-1.9703-2.881-1.8709-2.9445-1.7692-3.0045-1.6654-3.0607-1.5595-3.1133-1.4518-3.1621-1.3422-3.207-1.231-3.248-1.1184-3.2851-1.0043-3.3181-0.88908-3.3471-0.77274-3.372-0.65546-3.3929-0.53738-3.4096-0.41864-3.4221-0.29939-3.4304-0.17978-3.4346-0.059952-3.4346 0.059952-3.4304 0.17978-3.4221 0.29939-3.4096 0.41864-3.3929 0.53738-3.372 0.65546-3.3471 0.77274-3.3181 0.88908-3.2851 1.0043-3.248 1.1184-3.207 1.231-3.1621 1.3422-3.1133 1.4518-3.0607 1.5595-3.0045 1.6654-2.9445 1.7692-2.881 1.8709-2.8139 1.9703-2.7434 2.0673-2.6696 2.1618-2.5925 2.2537-2.5123 2.3428-2.429 2.429-2.3428 2.5123-2.2537 2.5925-2.1618 2.6696-2.0673 2.7434-1.9703 2.8139-1.8709 2.881-1.7692 2.9445-1.6654 3.0045-1.5595 3.0607-1.4518 3.1133-1.3422 3.1621-1.231 3.207-1.1184 3.248-1.0043 3.2851-0.88908 3.3181-0.77274 3.3471-0.65546 3.372-0.53738 3.3929-0.41864 3.4096-0.29939 3.4221-0.17978 3.4304-0.059952 3.4346 0.059952 3.4346 0.17978 3.4304 0.29939 3.4221 0.41864 3.4096 0.53738 3.3929 0.65546 3.372 0.77274 3.3471 0.88908 3.3181 1.0043 3.2851 1.1184 3.248 1.231 3.207 1.3422 3.1621 1.4518 3.1133 1.5595 3.0607 1.6654 3.0045 1.7692 2.9445 1.8709 2.881 1.9703 2.8139 2.0673 2.7434 2.1618 2.6696 2.2537 2.5925 2.3428 2.5123 2.429 2.429 2.5123 2.3428 2.5925 2.2537 2.6696 2.1618 2.7434 2.0673 2.8139 1.9703 2.881 1.8709 2.9445 1.7692 3.0045 1.6654 3.0607 1.5595 3.1133 1.4518 3.1621 1.3422 3.207 1.231 3.248 1.1184 3.2851 1.0043 3.3181 0.88908 3.3471 0.77274 3.372 0.65546 3.3929 0.53738 3.4096 0.41864 3.4221 0.29939 3.4304 0.17978 3.4346 0.059952 3.4346-0.059952 3.4304-0.17978 3.4221-0.29939 3.4096-0.41864 3.3929-0.53738 3.372-0.65546 3.3471-0.77274 3.3181-0.88908 3.2851-1.0043 3.248-1.1184 3.207-1.231 3.1621-1.3422 3.1133-1.4518 3.0607-1.5595 3.0045-1.6654 2.9445-1.7692 2.881-1.8709 2.8139-1.9703 2.7434-2.0673 2.6696-2.1618 2.5925-2.2537 2.5123-2.3428 2.429-2.429 2.3428-2.5123 2.2537-2.5925 2.1618-2.6696 2.0673-2.7434 1.9703-2.8139 1.8709-2.881 1.7692-2.9445 1.6654-3.0045 1.5595-3.0607 1.4518-3.1133 1.3422-3.1621 1.231-3.207 1.1184-3.248 1.0043-3.2851 0.88908-3.3181 0.77274-3.3471 0.65546-3.372 0.53738-3.3929 0.41864-3.4096 0.29939-3.4221 0.17978-3.4304 0.059952-3.4346v0" clip-path="url(#pe7e0056e92)" fill="none" stroke="#b0b0b0" stroke-linecap="square" stroke-width=".8"/>
     </g>
     <g id="text_8"><!-- 60 -->
      <defs>
       <path id="DejaVuSans-36" d="m33.016 40.375q-6.6406 0-10.531-4.5469-3.875-4.5312-3.875-12.438 0-7.8594 3.875-12.438 3.8906-4.5625 10.531-4.5625t10.516 4.5625q3.875 4.5781 3.875 12.438 0 7.9062-3.875 12.438-3.875 4.5469-10.516 4.5469zm19.578 30.922v-8.9844q-3.7188 1.75-7.5 2.6719-3.7812 0.9375-7.5 0.9375-9.7656 0-14.922-6.5938-5.1406-6.5938-5.875-19.922 2.875 4.25 7.2188 6.5156 4.3594 2.2656 9.5781 2.2656 10.984 0 17.359-6.6719 6.375-6.6562 6.375-18.125 0-11.234-6.6406-18.031-6.6406-6.7812-17.672-6.7812-12.656 0-19.344 9.6875-6.6875 9.7031-6.6875 28.109 0 17.281 8.2031 27.562t22.016 10.281q3.7188 0 7.5-0.73438t7.8906-2.1875z"/>
      </defs>
      <g transform="translate(275.76 178.54) scale(.07 -.07)" fill="#808080">
       <use xlink:href="#DejaVuSans-36"/>
       <use x="63.623047" xlink:href="#DejaVuSans-30"/>
      </g>
     </g>
    </g>
    <g id="ytick_5">
     <g id="line2d_5">
      <path d="m308.56 180-0.079936-4.5795-0.23971-4.5739-0.39919-4.5628-0.55819-4.5461-0.7165-4.5238-0.87394-4.4961-1.0303-4.4628-1.1854-4.4241-1.3391-4.3801-1.4912-4.3307-1.6414-4.276-1.7896-4.2161-1.9357-4.1511-2.0794-4.081-2.2205-4.0059-2.359-3.926-2.4946-3.8413-2.6271-3.7519-2.7564-3.6579-2.8824-3.5595-3.0049-3.4567-3.1237-3.3498-3.2387-3.2387-3.3498-3.1237-3.4567-3.0049-3.5595-2.8824-3.6579-2.7564-3.7519-2.6271-3.8413-2.4946-3.926-2.359-4.0059-2.2205-4.081-2.0794-4.1511-1.9357-4.2161-1.7896-4.276-1.6414-4.3307-1.4912-4.3801-1.3391-4.4241-1.1854-4.4628-1.0303-4.4961-0.87394-4.5238-0.7165-4.5461-0.55819-4.5628-0.39919-4.5739-0.23971-4.5795-0.079936-4.5795 0.079936-4.5739 0.23971-4.5628 0.39919-4.5461 0.55819-4.5238 0.7165-4.4961 0.87394-4.4628 1.0303-4.4241 1.1854-4.3801 1.3391-4.3307 1.4912-4.276 1.6414-4.2161 1.7896-4.1511 1.9357-4.081 2.0794-4.0059 2.2205-3.926 2.359-3.8413 2.4946-3.7519 2.6271-3.6579 2.7564-3.5595 2.8824-3.4567 3.0049-3.3498 3.1237-3.2387 3.2387-3.1237 3.3498-3.0049 3.4567-2.8824 3.5595-2.7564 3.6579-2.6271 3.7519-2.4946 3.8413-2.359 3.926-2.2205 4.0059-2.0794 4.081-1.9357 4.1511-1.7896 4.2161-1.6414 4.276-1.4912 4.3307-1.3391 4.3801-1.1854 4.4241-1.0303 4.4628-0.87394 4.4961-0.7165 4.5238-0.55819 4.5461-0.39919 4.5628-0.23971 4.5739-0.079936 4.5795 0.079936 4.5795 0.23971 4.5739 0.39919 4.5628 0.55819 4.5461 0.7165 4.5238 0.87394 4.4961 1.0303 4.4628 1.1854 4.4241 1.3391 4.3801 1.4912 4.3307 1.6414 4.276 1.7896 4.2161 1.9357 4.1511 2.0794 4.081 2.2205 4.0059 2.359 3.926 2.4946 3.8413 2.6271 3.7519 2.7564 3.6579 2.8824 3.5595 3.0049 3.4567 3.1237 3.3498 3.2387 3.2387 3.3498 3.1237 3.4567 3.0049 3.5595 2.8824 3.6579 2.7564 3.7519 2.6271 3.8413 2.4946 3.926 2.359 4.0059 2.2205 4.081 2.0794 4.1511 1.9357 4.2161 1.7896 4.276 1.6414 4.3307 1.4912 4.3801 1.3391 4.4241 1.1854 4.4628 1.0303 4.4961 0.87394 4.5238 0.7165 4.5461 0.55819 4.5628 0.39919 4.5739 0.23971 4.5795 0.079936 4.5795-0.079936 4.5739-0.23971 4.5628-0.39919 4.5461-0.55819 4.5238-0.7165 4.4961-0.87394 4.4628-1.0303 4.4241-1.1854 4.3801-1.3391 4.3307-1.4912 4.276-1.6414 4.2161-1.7896 4.1511-1.9357 4.081-2.0794 4.0059-2.2205 3.926-2.359 3.8413-2.4946 3.7519-2.6271 3.6579-2.7564 3.5595-2.8824 3.4567-3.0049 3.3498-3.1237 3.2387-3.2387 3.1237-3.3498 3.0049-3.4567 2.8824-3.5595 2.7564-3.6579 2.6271-3.7519 2.4946-3.8413 2.359-3.926 2.2205-4.0059 2.0794-4.081 1.9357-4.1511 1.7896-4.2161 1.6414-4.276 1.4912-4.3307 1.3391-4.3801 1.1854-4.4241 1.0303-4.4628 0.87394-4.4961 0.7165-4.5238 0.55819-4.5461 0.39919-4.5628 0.23971-4.5739 0.079936-4.5795v0" clip-path="url(#pe7e0056e92)" fill="none" stroke="#b0b0b0" stroke-linecap="square" stroke-width=".8"/>
     </g>
     <g id="text_9"><!-- 80 -->
      <defs>
       <path id="DejaVuSans-38" d="m31.781 34.625q-7.0312 0-11.062-3.7656-4.0156-3.7656-4.0156-10.344 0-6.5938 4.0156-10.359 4.0312-3.7656 11.062-3.7656t11.078 3.7812q4.0625 3.7969 4.0625 10.344 0 6.5781-4.0312 10.344-4.0156 3.7656-11.109 3.7656zm-9.8594 4.1875q-6.3438 1.5625-9.8906 5.9062-3.5312 4.3594-3.5312 10.609 0 8.7344 6.2188 13.812 6.2344 5.0781 17.062 5.0781 10.891 0 17.094-5.0781t6.2031-13.812q0-6.25-3.5469-10.609-3.5312-4.3438-9.8281-5.9062 7.125-1.6562 11.094-6.5 3.9844-4.8281 3.9844-11.797 0-10.609-6.4688-16.281-6.4688-5.6562-18.531-5.6562-12.047 0-18.531 5.6562-6.4688 5.6719-6.4688 16.281 0 6.9688 4 11.797 4.0156 4.8438 11.141 6.5zm-3.6094 15.578q0-5.6562 3.5312-8.8281 3.5469-3.1719 9.9375-3.1719 6.3594 0 9.9375 3.1719 3.5938 3.1719 3.5938 8.8281 0 5.6719-3.5938 8.8438-3.5781 3.1719-9.9375 3.1719-6.3906 0-9.9375-3.1719-3.5312-3.1719-3.5312-8.8438z"/>
      </defs>
      <g transform="translate(308.56 178.54) scale(.07 -.07)" fill="#808080">
       <use xlink:href="#DejaVuSans-38"/>
       <use x="63.623047" xlink:href="#DejaVuSans-30"/>
      </g>
     </g>
    </g>
    <g id="ytick_6">
     <g id="line2d_6">
      <path d="m341.37 180-0.09992-5.7244-0.29964-5.7174-0.49899-5.7035-0.69773-5.6826-0.89563-5.6548-1.0924-5.6201-1.2879-5.5785-1.4818-5.5302-1.6739-5.4751-1.864-5.4133-2.0518-5.345-2.237-5.2701-2.4196-5.1888-2.5992-5.1012-2.7757-5.0074-2.9487-4.9075-3.1182-4.8016-3.2839-4.6899-3.4455-4.5724-3.603-4.4494-3.7561-4.3209-3.9046-4.1872-4.0484-4.0484-4.1872-3.9046-4.3209-3.7561-4.4494-3.603-4.5724-3.4455-4.6899-3.2839-4.8016-3.1182-4.9075-2.9487-5.0074-2.7757-5.1012-2.5992-5.1888-2.4196-5.2701-2.237-5.345-2.0518-5.4133-1.864-5.4751-1.6739-5.5302-1.4818-5.5785-1.2879-5.6201-1.0924-5.6548-0.89563-5.6826-0.69773-5.7035-0.49899-5.7174-0.29964-5.7244-0.09992-5.7244 0.09992-5.7174 0.29964-5.7035 0.49899-5.6826 0.69773-5.6548 0.89563-5.6201 1.0924-5.5785 1.2879-5.5302 1.4818-5.4751 1.6739-5.4133 1.864-5.345 2.0518-5.2701 2.237-5.1888 2.4196-5.1012 2.5992-5.0074 2.7757-4.9075 2.9487-4.8016 3.1182-4.6899 3.2839-4.5724 3.4455-4.4494 3.603-4.3209 3.7561-4.1872 3.9046-4.0484 4.0484-3.9046 4.1872-3.7561 4.3209-3.603 4.4494-3.4455 4.5724-3.2839 4.6899-3.1182 4.8016-2.9487 4.9075-2.7757 5.0074-2.5992 5.1012-2.4196 5.1888-2.237 5.2701-2.0518 5.345-1.864 5.4133-1.6739 5.4751-1.4818 5.5302-1.2879 5.5785-1.0924 5.6201-0.89563 5.6548-0.69773 5.6826-0.49899 5.7035-0.29964 5.7174-0.09992 5.7244 0.09992 5.7244 0.29964 5.7174 0.49899 5.7035 0.69773 5.6826 0.89563 5.6548 1.0924 5.6201 1.2879 5.5785 1.4818 5.5302 1.6739 5.4751 1.864 5.4133 2.0518 5.345 2.237 5.2701 2.4196 5.1888 2.5992 5.1012 2.7757 5.0074 2.9487 4.9075 3.1182 4.8016 3.2839 4.6899 3.4455 4.5724 3.603 4.4494 3.7561 4.3209 3.9046 4.1872 4.0484 4.0484 4.1872 3.9046 4.3209 3.7561 4.4494 3.603 4.5724 3.4455 4.6899 3.2839 4.8016 3.1182 4.9075 2.9487 5.0074 2.7757 5.1012 2.5992 5.1888 2.4196 5.2701 2.237 5.345 2.0518 5.4133 1.864 5.4751 1.6739 5.5302 1.4818 5.5785 1.2879 5.6201 1.0924 5.6548 0.89563 5.6826 0.69773 5.7035 0.49899 5.7174 0.29964 5.7244 0.09992 5.7244-0.09992 5.7174-0.29964 5.7035-0.49899 5.6826-0.69773 5.6548-0.89563 5.6201-1.0924 5.5785-1.2879 5.5302-1.4818 5.4751-1.6739 5.4133-1.864 5.345-2.0518 5.2701-2.237 5.1888-2.4196 5.1012-2.5992 5.0074-2.7757 4.9075-2.9487 4.8016-3.1182 4.6899-3.2839 4.5724-3.4455 4.4494-3.603 4.3209-3.7561 4.1872-3.9046 4.0484-4.0484 3.9046-4.1872 3.7561-4.3209 3.603-4.4494 3.4455-4.5724 3.2839-4.6899 3.1182-4.8016 2.9487-4.9075 2.7757-5.0074 2.5992-5.1012 2.4196-5.1888 2.237-5.2701 2.0518-5.345 1.864-5.4133 1.6739-5.4751 1.4818-5.5302 1.2879-5.5785 1.0924-5.6201 0.89563-5.6548 0.69773-5.6826 0.49899-5.7035 0.29964-5.7174 0.09992-5.7244v0" clip-path="url(#pe7e0056e92)" fill="none" stroke="#b0b0b0" stroke-linecap="square" stroke-width=".8"/>
     </g>
     <g id="text_10"><!-- 100 -->
      <g transform="translate(341.37 178.54) scale(.07 -.07)" fill="#808080">
       <use xlink:href="#DejaVuSans-31"/>
       <use x="63.623047" xlink:href="#DejaVuSans-30"/>
       <use x="127.246094" xlink:href="#DejaVuSans-30"/>
      </g>
     </g>
    </g>
   </g>
   <g id="patch_157">
    <path d="m341.37 180c0-21.54-4.2428-42.87-12.486-62.77s-20.325-37.983-35.556-53.214-33.314-27.313-53.214-35.556-41.23-12.486-62.77-12.486-42.87 4.2428-62.77 12.486-37.983 20.325-53.214 35.556-27.313 33.314-35.556 53.214-12.486 41.23-12.486 62.77 4.2428 42.87 12.486 62.77 20.325 37.983 35.556 53.214 33.314 27.313 53.214 35.556 41.23 12.486 62.77 12.486 42.87-4.2428 62.77-12.486 37.983-20.325 53.214-35.556 27.313-33.314 35.556-53.214 12.486-41.23 12.486-62.77" fill="none" stroke="#000" stroke-linecap="square" stroke-width=".8"/>
   </g>
  </g>
  <g id="axes_2">
   <g id="patch_158">
    <path d="m695.97 180c0-21.54-4.2428-42.87-12.486-62.77s-20.325-37.983-35.556-53.214-33.314-27.313-53.214-35.556-41.23-12.486-62.77-12.486-42.87 4.2428-62.77 12.486-37.983 20.325-53.214 35.556-27.313 33.314-35.556 53.214-12.486 41.23-12.486 62.77 4.2428 42.87 12.486 62.77 20.325 37.983 35.556 53.214 33.314 27.313 53.214 35.556 41.23 12.486 62.77 12.486 42.87-4.2428 62.77-12.486 37.983-20.325 53.214-35.556 27.313-33.314 35.556-53.214 12.486-41.23 12.486-62.77m-164.02 0m164.02 0z" fill="#fff"/>
   </g>
   <g id="patch_159">
    <path d="m589.94 122.01-88.147 27.836 17.629 42.682 27.836 2.7836z" clip-path="url(#pcf9172cfe0)" fill="#fc4f30" opacity=".01" stroke="#fc4f30"/>
   </g>
   <g id="patch_160">
    <path d="m543.54 168.4-26.908-3.7115-21.341 51.96 89.075 15.774z" clip-path="url(#pcf9172cfe0)" fill="#fc4f30" opacity=".01" stroke="#fc4f30"/>
   </g>
   <g id="patch_161">
    <path d="m573.7 138.25-50.105 33.403-36.187 52.888 65.878-23.197z" clip-path="url(#pcf9172cfe0)" fill="#fc4f30" opacity=".01" stroke="#fc4f30"/>
   </g>
   <g id="patch_162">
    <path d="m531.94 180-3.7115-3.7115-98.818 106.24 112.27-92.787z" clip-path="url(#pcf9172cfe0)" fill="#fc4f30" opacity=".01" stroke="#fc4f30"/>
   </g>
   <g id="patch_163">
    <path d="m549.11 162.83-25.052 9.2787-76.549 92.323 90.931-77.941z" clip-path="url(#pcf9172cfe0)" fill="#fc4f30" opacity=".01" stroke="#fc4f30"/>
   </g>
   <g id="patch_164">
    <path d="m574.16 137.78-65.878 18.557-2.7836 50.105 50.105-2.7836z" clip-path="url(#pcf9172cfe0)" fill="#fc4f30" opacity=".01" stroke="#fc4f30"/>
   </g>
   <g id="patch_165">
    <path d="m554.68 157.27-70.982-25.516 32.939 63.559 45.001 14.382z" clip-path="url(#pcf9172cfe0)" fill="#fc4f30" opacity=".01" stroke="#fc4f30"/>
   </g>
   <g id="patch_166">
    <path d="m621.02 90.925-104.38 73.765 11.598 19.021 11.598 4.1754z" clip-path="url(#pcf9172cfe0)" fill="#fc4f30" opacity=".01" stroke="#fc4f30"/>
   </g>
   <g id="patch_167">
    <path d="m580.66 131.29-68.198 29.228 5.1033 33.867 47.785 19.021z" clip-path="url(#pcf9172cfe0)" fill="#fc4f30" opacity=".01" stroke="#fc4f30"/>
   </g>
   <g id="patch_168">
    <path d="m544.94 167.01-18.093 7.8869-72.374 82.58 97.89-57.064z" clip-path="url(#pcf9172cfe0)" fill="#fc4f30" opacity=".01" stroke="#fc4f30"/>
   </g>
   <g id="patch_169">
    <path d="m571.38 140.57-50.569 28.3-24.125 46.393 65.415-5.1033z" clip-path="url(#pcf9172cfe0)" fill="#fc4f30" opacity=".01" stroke="#fc4f30"/>
   </g>
   <g id="patch_170">
    <path d="m531.94 180-103.92 103.92 115.98-91.859z" clip-path="url(#pcf9172cfe0)" fill="#fc4f30" opacity=".01" stroke="#fc4f30"/>
   </g>
   <g id="patch_171">
    <path d="m581.12 130.82-95.57 95.57 66.806-25.98z" clip-path="url(#pcf9172cfe0)" fill="#fc4f30" opacity=".01" stroke="#fc4f30"/>
   </g>
   <g id="patch_172">
    <path d="m558.85 153.09-56.6-2.7836 16.238 43.146 59.383 32.475z" clip-path="url(#pcf9172cfe0)" fill="#fc4f30" opacity=".01" stroke="#fc4f30"/>
   </g>
   <g id="patch_173">
    <path d="m537.51 174.43-15.31-4.1754-20.877 40.362 100.67 39.434z" clip-path="url(#pcf9172cfe0)" fill="#fc4f30" opacity=".01" stroke="#fc4f30"/>
   </g>
   <g id="patch_174">
    <path d="m539.83 172.11-13.918 1.8557-38.97 51.033 102.07 12.062z" clip-path="url(#pcf9172cfe0)" fill="#fc4f30" opacity=".01" stroke="#fc4f30"/>
   </g>
   <g id="patch_175">
    <path d="m555.14 156.8-68.662-22.269 19.021 71.91 47.321-5.5672z" clip-path="url(#pcf9172cfe0)" fill="#fc4f30" opacity=".01" stroke="#fc4f30"/>
   </g>
   <g id="patch_176">
    <path d="m544.01 167.94-25.052-0.92786-27.372 53.352 90.931 10.207z" clip-path="url(#pcf9172cfe0)" fill="#fc4f30" opacity=".01" stroke="#fc4f30"/>
   </g>
   <g id="patch_177">
    <path d="m541.22 170.72-20.877-2.3197-69.126 92.323 95.106-66.342z" clip-path="url(#pcf9172cfe0)" fill="#fc4f30" opacity=".01" stroke="#fc4f30"/>
   </g>
   <g id="patch_178">
    <path d="m547.25 164.69-24.588 6.0311-68.198 86.755 91.395-63.559z" clip-path="url(#pcf9172cfe0)" fill="#fc4f30" opacity=".01" stroke="#fc4f30"/>
   </g>
   <g id="patch_179">
    <path d="m544.94 167.01-31.083-5.1033-38.042 74.229 84.9-27.372z" clip-path="url(#pcf9172cfe0)" fill="#fc4f30" opacity=".01" stroke="#fc4f30"/>
   </g>
   <g id="patch_180">
    <path d="m572.31 139.64-74.693 6.0311 5.1033 63.559 41.29-17.166z" clip-path="url(#pcf9172cfe0)" fill="#fc4f30" opacity=".01" stroke="#fc4f30"/>
   </g>
   <g id="patch_181">
    <path d="m548.65 163.3-39.898-6.4951-38.042 84.436 76.085-46.393z" clip-path="url(#pcf9172cfe0)" fill="#fc4f30" opacity=".01" stroke="#fc4f30"/>
   </g>
   <g id="patch_182">
    <path d="m539.83 172.11-102.53-86.755 88.147 101.14 13.454 0.46393z" clip-path="url(#pcf9172cfe0)" fill="#fc4f30" opacity=".01" stroke="#fc4f30"/>
   </g>
   <g id="patch_183">
    <path d="m548.18 163.76-28.3 4.1754-52.424 76.549 87.683-41.29z" clip-path="url(#pcf9172cfe0)" fill="#fc4f30" opacity=".01" stroke="#fc4f30"/>
   </g>
   <g id="patch_184">
    <path d="m550.5 161.44-36.187 36.187 97.426 62.167z" clip-path="url(#pcf9172cfe0)" fill="#fc4f30" opacity=".01" stroke="#fc4f30"/>
   </g>
   <g id="patch_185">
    <path d="m588.54 123.4-86.291 26.908 59.383 59.383z" clip-path="url(#pcf9172cfe0)" fill="#fc4f30" opacity=".01" stroke="#fc4f30"/>
   </g>
   <g id="patch_186">
    <path d="m561.17 150.77-36.187 22.269-54.28 68.198 79.796-42.682z" clip-path="url(#pcf9172cfe0)" fill="#fc4f30" opacity=".01" stroke="#fc4f30"/>
   </g>
   <g id="patch_187">
    <path d="m554.68 157.27-48.249-2.7836 5.1033 45.929 67.734 26.908z" clip-path="url(#pcf9172cfe0)" fill="#fc4f30" opacity=".01" stroke="#fc4f30"/>
   </g>
   <g id="patch_188">
    <path d="m538.9 173.04-96.962-83.044 77.941 102.07 19.021-5.1033z" clip-path="url(#pcf9172cfe0)" fill="#fc4f30" opacity=".01" stroke="#fc4f30"/>
   </g>
   <g id="patch_189">
    <path d="m531.94 180-39.898-39.898 115.98 115.98z" clip-path="url(#pcf9172cfe0)" fill="#fc4f30" opacity=".01" stroke="#fc4f30"/>
   </g>
   <g id="patch_190">
    <path d="m589.01 122.94-66.806 47.321-2.3197 21.805 49.177 25.052z" clip-path="url(#pcf9172cfe0)" fill="#fc4f30" opacity=".01" stroke="#fc4f30"/>
   </g>
   <g id="patch_191">
    <path d="m540.3 171.65-44.538-27.836-1.3918 73.765 71.446-3.7115z" clip-path="url(#pcf9172cfe0)" fill="#fc4f30" opacity=".01" stroke="#fc4f30"/>
   </g>
   <g id="patch_192">
    <path d="m546.79 165.15-27.372 2.3197-54.744 79.796 88.611-45.929z" clip-path="url(#pcf9172cfe0)" fill="#fc4f30" opacity=".01" stroke="#fc4f30"/>
   </g>
   <g id="patch_193">
    <path d="m574.16 137.78-44.538 39.898-20.877 25.516 71.446 25.052z" clip-path="url(#pcf9172cfe0)" fill="#fc4f30" opacity=".01" stroke="#fc4f30"/>
   </g>
   <g id="patch_194">
    <path d="m531.94 180-48.713-48.713-18.557 115.98 67.27-67.27z" clip-path="url(#pcf9172cfe0)" fill="#fc4f30" opacity=".01" stroke="#fc4f30"/>
   </g>
   <g id="patch_195">
    <path d="m600.14 111.8-70.054 66.342-16.238 19.949 45.929 9.7426z" clip-path="url(#pcf9172cfe0)" fill="#fc4f30" opacity=".01" stroke="#fc4f30"/>
   </g>
   <g id="patch_196">
    <path d="m568.6 143.35-45.465 27.836-22.269 39.898 70.518 8.3508z" clip-path="url(#pcf9172cfe0)" fill="#fc4f30" opacity=".01" stroke="#fc4f30"/>
   </g>
   <g id="patch_197">
    <path d="m551.43 160.51-43.146-4.1754-8.8147 56.136 72.837 7.8869z" clip-path="url(#pcf9172cfe0)" fill="#fc4f30" opacity=".01" stroke="#fc4f30"/>
   </g>
   <g id="patch_198">
    <path d="m556.07 155.88-26.908 21.341-63.559 69.126 89.075-43.61z" clip-path="url(#pcf9172cfe0)" fill="#fc4f30" opacity=".01" stroke="#fc4f30"/>
   </g>
   <g id="patch_199">
    <path d="m541.22 170.72-20.413-1.8557-36.187 58.456 95.57 0.92787z" clip-path="url(#pcf9172cfe0)" fill="#fc4f30" opacity=".01" stroke="#fc4f30"/>
   </g>
   <g id="patch_200">
    <path d="m546.79 165.15-22.733 6.959-64.951 80.724 93.25-52.424z" clip-path="url(#pcf9172cfe0)" fill="#fc4f30" opacity=".01" stroke="#fc4f30"/>
   </g>
   <g id="patch_201">
    <path d="m545.4 166.55-16.238 10.67-86.755 92.323 99.746-79.333z" clip-path="url(#pcf9172cfe0)" fill="#fc4f30" opacity=".01" stroke="#fc4f30"/>
   </g>
   <g id="patch_202">
    <path d="m535.66 176.29-7.8869-0.46393-59.383 67.734 108.1-19.021z" clip-path="url(#pcf9172cfe0)" fill="#fc4f30" opacity=".01" stroke="#fc4f30"/>
   </g>
   <g id="patch_203">
    <path d="m542.62 169.33-25.052-3.7115-5.5672 34.331 90.931 51.033z" clip-path="url(#pcf9172cfe0)" fill="#fc4f30" opacity=".01" stroke="#fc4f30"/>
   </g>
   <g id="patch_204">
    <path d="m550.04 161.91-25.98 10.207-63.095 78.869 90.003-51.96z" clip-path="url(#pcf9172cfe0)" fill="#fc4f30" opacity=".01" stroke="#fc4f30"/>
   </g>
   <g id="patch_205">
    <path d="m543.08 168.87-31.547-9.2787-41.29 82.116 84.436-38.97z" clip-path="url(#pcf9172cfe0)" fill="#fc4f30" opacity=".01" stroke="#fc4f30"/>
   </g>
   <g id="patch_206">
    <path d="m590.86 121.08-65.415 52.424-25.516 38.506 50.569-13.454z" clip-path="url(#pcf9172cfe0)" fill="#fc4f30" opacity=".01" stroke="#fc4f30"/>
   </g>
   <g id="patch_207">
    <path d="m575.55 136.39-67.734 19.485 6.4951 41.754 48.249 12.99z" clip-path="url(#pcf9172cfe0)" fill="#fc4f30" opacity=".01" stroke="#fc4f30"/>
   </g>
   <g id="patch_208">
    <path d="m539.37 172.58-23.197-8.3508-18.557 50.105 92.787 24.125z" clip-path="url(#pcf9172cfe0)" fill="#fc4f30" opacity=".01" stroke="#fc4f30"/>
   </g>
   <g id="patch_209">
    <path d="m576.95 135-68.662 21.341 0.46393 46.857 47.321 0.92786z" clip-path="url(#pcf9172cfe0)" fill="#fc4f30" opacity=".01" stroke="#fc4f30"/>
   </g>
   <g id="patch_210">
    <path d="m552.36 159.59-94.178-53.352 64.487 83.044 21.805 3.2475z" clip-path="url(#pcf9172cfe0)" fill="#fc4f30" opacity=".01" stroke="#fc4f30"/>
   </g>
   <g id="patch_211">
    <path d="m550.5 161.44-57.992-20.877 18.557 60.311 57.992 16.238z" clip-path="url(#pcf9172cfe0)" fill="#fc4f30" opacity=".01" stroke="#fc4f30"/>
   </g>
   <g id="patch_212">
    <path d="m565.81 146.13-43.146 24.588-25.98 44.538 72.837 2.3197z" clip-path="url(#pcf9172cfe0)" fill="#fc4f30" opacity=".01" stroke="#fc4f30"/>
   </g>
   <g id="patch_213">
    <path d="m548.18 163.76-25.052 7.4229-49.641 67.27 90.931-25.98z" clip-path="url(#pcf9172cfe0)" fill="#fc4f30" opacity=".01" stroke="#fc4f30"/>
   </g>
   <g id="patch_214">
    <path d="m555.14 156.8h-46.393l-6.959 53.352 69.59 9.2787z" clip-path="url(#pcf9172cfe0)" fill="#fc4f30" opacity=".01" stroke="#fc4f30"/>
   </g>
   <g id="patch_215">
    <path d="m550.5 161.44-25.516 11.598-32.475 46.393 90.467 11.598z" clip-path="url(#pcf9172cfe0)" fill="#fc4f30" opacity=".01" stroke="#fc4f30"/>
   </g>
   <g id="patch_216">
    <path d="m531.94 180-101.6-101.6 91.395 111.81 14.382-6.0311z" clip-path="url(#pcf9172cfe0)" fill="#fc4f30" opacity=".01" stroke="#fc4f30"/>
   </g>
   <g id="patch_217">
    <path d="m548.18 163.76-19.485 12.99-65.878 72.374 96.498-41.754z" clip-path="url(#pcf9172cfe0)" fill="#fc4f30" opacity=".01" stroke="#fc4f30"/>
   </g>
   <g id="patch_218">
    <path d="m540.3 171.65-17.629-0.92786-56.6 75.157 98.354-33.403z" clip-path="url(#pcf9172cfe0)" fill="#fc4f30" opacity=".01" stroke="#fc4f30"/>
   </g>
   <g id="patch_219">
    <path d="m546.79 165.15h-29.692l-40.362 70.054 86.291-24.125z" clip-path="url(#pcf9172cfe0)" fill="#fc4f30" opacity=".01" stroke="#fc4f30"/>
   </g>
   <g id="patch_220">
    <path d="m544.94 167.01-37.579-11.598-38.506 87.683 78.405-47.785z" clip-path="url(#pcf9172cfe0)" fill="#fc4f30" opacity=".01" stroke="#fc4f30"/>
   </g>
   <g id="patch_221">
    <path d="m571.38 140.57-53.816 25.052-15.774 44.538 62.167 1.8557z" clip-path="url(#pcf9172cfe0)" fill="#fc4f30" opacity=".01" stroke="#fc4f30"/>
   </g>
   <g id="patch_222">
    <path d="m536.12 175.82-20.877-12.526-61.239 94.642 95.106-60.775z" clip-path="url(#pcf9172cfe0)" fill="#fc4f30" opacity=".01" stroke="#fc4f30"/>
   </g>
   <g id="patch_223">
    <path d="m552.82 159.12-27.372 14.382-77.477 90.467 88.611-79.333z" clip-path="url(#pcf9172cfe0)" fill="#fc4f30" opacity=".01" stroke="#fc4f30"/>
   </g>
   <g id="patch_224">
    <path d="m554.21 157.73-60.311-15.774-1.8557 77.941 55.672-24.125z" clip-path="url(#pcf9172cfe0)" fill="#fc4f30" opacity=".01" stroke="#fc4f30"/>
   </g>
   <g id="patch_225">
    <path d="m542.15 169.79-26.444-6.0311-21.805 54.28 89.539 13.454z" clip-path="url(#pcf9172cfe0)" fill="#fc4f30" opacity=".01" stroke="#fc4f30"/>
   </g>
   <g id="patch_226">
    <path d="m539.83 172.11-27.836-12.062 10.67 29.228 88.147 69.59z" clip-path="url(#pcf9172cfe0)" fill="#fc4f30" opacity=".01" stroke="#fc4f30"/>
   </g>
   <g id="patch_227">
    <path d="m542.15 169.79-12.99 7.4229-90.931 96.498 102.99-84.436z" clip-path="url(#pcf9172cfe0)" fill="#fc4f30" opacity=".01" stroke="#fc4f30"/>
   </g>
   <g id="patch_228">
    <path d="m634.01 77.935-109.02 95.106 4.6393 9.2787 6.959 2.3197z" clip-path="url(#pcf9172cfe0)" fill="#fc4f30" opacity=".01" stroke="#fc4f30"/>
   </g>
   <g id="patch_229">
    <path d="m550.97 160.98-26.908 11.134-24.125 39.898 89.075 25.052z" clip-path="url(#pcf9172cfe0)" fill="#fc4f30" opacity=".01" stroke="#fc4f30"/>
   </g>
   <g id="patch_230">
    <path d="m541.22 170.72-13.918 4.6393-25.98 35.259 102.07 40.826z" clip-path="url(#pcf9172cfe0)" fill="#fc4f30" opacity=".01" stroke="#fc4f30"/>
   </g>
   <g id="patch_231">
    <path d="m547.25 164.69-24.588 6.0311-59.383 77.941 91.395-45.929z" clip-path="url(#pcf9172cfe0)" fill="#fc4f30" opacity=".01" stroke="#fc4f30"/>
   </g>
   <g id="patch_232">
    <path d="m544.94 167.01-23.197 2.7836-31.547 51.96 92.787 9.2787z" clip-path="url(#pcf9172cfe0)" fill="#fc4f30" opacity=".01" stroke="#fc4f30"/>
   </g>
   <g id="patch_233">
    <path d="m581.59 130.36-71.446 27.836-1.8557 45.465 44.538-2.7836z" clip-path="url(#pcf9172cfe0)" fill="#fc4f30" opacity=".01" stroke="#fc4f30"/>
   </g>
   <g id="patch_234">
    <path d="m535.66 176.29-30.62-23.197-51.96 105.78 85.364-72.374z" clip-path="url(#pcf9172cfe0)" fill="#fc4f30" opacity=".01" stroke="#fc4f30"/>
   </g>
   <g id="patch_235">
    <path d="m548.65 163.3-34.331-0.92787-55.672 90.931 81.652-64.951z" clip-path="url(#pcf9172cfe0)" fill="#fc4f30" opacity=".01" stroke="#fc4f30"/>
   </g>
   <g id="patch_236">
    <path d="m550.5 161.44-40.826-3.7115-30.62 75.157 75.157-30.62z" clip-path="url(#pcf9172cfe0)" fill="#fc4f30" opacity=".01" stroke="#fc4f30"/>
   </g>
   <g id="patch_237">
    <path d="m542.62 169.33-13.454 7.8869-84.9 90.467 102.53-72.837z" clip-path="url(#pcf9172cfe0)" fill="#fc4f30" opacity=".01" stroke="#fc4f30"/>
   </g>
   <g id="patch_238">
    <path d="m573.7 138.25-77.477 6.0311 4.6393 66.806 38.506-23.661z" clip-path="url(#pcf9172cfe0)" fill="#fc4f30" opacity=".01" stroke="#fc4f30"/>
   </g>
   <g id="patch_239">
    <path d="m533.8 178.14-2.3197 1.3918-58.456 59.383 113.66-4.1754z" clip-path="url(#pcf9172cfe0)" fill="#fc4f30" opacity=".01" stroke="#fc4f30"/>
   </g>
   <g id="patch_240">
    <path d="m562.1 149.84-60.775-0.46393 4.6393 56.6 55.208 3.2475z" clip-path="url(#pcf9172cfe0)" fill="#fc4f30" opacity=".01" stroke="#fc4f30"/>
   </g>
   <g id="patch_241">
    <path d="m554.21 157.73-89.539 89.539 93.714-40.826z" clip-path="url(#pcf9172cfe0)" fill="#fc4f30" opacity=".01" stroke="#fc4f30"/>
   </g>
   <g id="patch_242">
    <path d="m571.84 140.1-42.218 37.579-38.042 42.682 73.765-6.959z" clip-path="url(#pcf9172cfe0)" fill="#fc4f30" opacity=".01" stroke="#fc4f30"/>
   </g>
   <g id="patch_243">
    <path d="m573.7 138.25-59.847 23.661-18.093 54.28 56.136-16.238z" clip-path="url(#pcf9172cfe0)" fill="#fc4f30" opacity=".01" stroke="#fc4f30"/>
   </g>
   <g id="patch_244">
    <path d="m552.36 159.59-30.156 10.67-31.083 50.569 85.828 4.1754z" clip-path="url(#pcf9172cfe0)" fill="#fc4f30" opacity=".01" stroke="#fc4f30"/>
   </g>
   <g id="patch_245">
    <path d="m576.02 135.93-85.828 2.3197 28.764 54.744 30.156 4.1754z" clip-path="url(#pcf9172cfe0)" fill="#fc4f30" opacity=".01" stroke="#fc4f30"/>
   </g>
   <g id="patch_246">
    <path d="m541.22 170.72-79.796-61.239 45.465 95.57 36.187-13.918z" clip-path="url(#pcf9172cfe0)" fill="#fc4f30" opacity=".01" stroke="#fc4f30"/>
   </g>
   <g id="patch_247">
    <path d="m539.37 172.58-90.003-75.157 78.405 86.755 25.98 17.629z" clip-path="url(#pcf9172cfe0)" fill="#fc4f30" opacity=".01" stroke="#fc4f30"/>
   </g>
   <g id="patch_248">
    <path d="m535.19 176.75-8.8147-2.3197-80.724 91.859 107.17-65.415z" clip-path="url(#pcf9172cfe0)" fill="#fc4f30" opacity=".01" stroke="#fc4f30"/>
   </g>
   <g id="patch_249">
    <path d="m573.7 138.25-60.311 23.197-7.8869 45.001 55.672 2.7836z" clip-path="url(#pcf9172cfe0)" fill="#fc4f30" opacity=".01" stroke="#fc4f30"/>
   </g>
   <g id="patch_250">
    <path d="m543.54 168.4-19.021 4.1754-33.867 48.713 96.962 14.382z" clip-path="url(#pcf9172cfe0)" fill="#fc4f30" opacity=".01" stroke="#fc4f30"/>
   </g>
   <g id="patch_251">
    <path d="m586.69 125.26-72.374 37.115 3.7115 31.547 43.61 15.774z" clip-path="url(#pcf9172cfe0)" fill="#fc4f30" opacity=".01" stroke="#fc4f30"/>
   </g>
   <g id="patch_252">
    <path d="m553.29 158.66-43.61-0.92786-9.2787 53.816 72.374 9.2787z" clip-path="url(#pcf9172cfe0)" fill="#fc4f30" opacity=".01" stroke="#fc4f30"/>
   </g>
   <g id="patch_253">
    <path d="m561.17 150.77-47.785 10.67-31.083 68.198 68.198-31.083z" clip-path="url(#pcf9172cfe0)" fill="#fc4f30" opacity=".01" stroke="#fc4f30"/>
   </g>
   <g id="patch_254">
    <path d="m533.34 178.61-6.4951-3.7115-66.342 76.549 109.49-33.403z" clip-path="url(#pcf9172cfe0)" fill="#fc4f30" opacity=".01" stroke="#fc4f30"/>
   </g>
   <g id="patch_255">
    <path d="m533.8 178.14-5.5672-1.8557-97.426 104.85 110.42-91.859z" clip-path="url(#pcf9172cfe0)" fill="#fc4f30" opacity=".01" stroke="#fc4f30"/>
   </g>
   <g id="patch_256">
    <path d="m545.86 166.08-24.125 3.7115-37.579 57.992 91.859-3.7115z" clip-path="url(#pcf9172cfe0)" fill="#fc4f30" opacity=".01" stroke="#fc4f30"/>
   </g>
   <g id="patch_257">
    <path d="m551.89 160.05-26.908 12.99-33.867 47.785 89.075 7.4229z" clip-path="url(#pcf9172cfe0)" fill="#fc4f30" opacity=".01" stroke="#fc4f30"/>
   </g>
   <g id="patch_258">
    <path d="m545.4 166.55-115.98 115.98 102.53-102.53z" clip-path="url(#pcf9172cfe0)" fill="#fc4f30" opacity=".01" stroke="#fc4f30"/>
   </g>
   <g id="patch_259">
    <path d="m537.05 174.9-94.178-83.972 75.621 102.53 21.805-5.1033z" clip-path="url(#pcf9172cfe0)" fill="#fc4f30" opacity=".01" stroke="#fc4f30"/>
   </g>
   <g id="patch_260">
    <path d="m556.53 155.41-51.96-2.7836 0.92787 53.816 64.023 11.134z" clip-path="url(#pcf9172cfe0)" fill="#fc4f30" opacity=".01" stroke="#fc4f30"/>
   </g>
   <g id="patch_261">
    <path d="m540.3 171.65-15.31 1.3918-26.908 40.826 100.67 32.939z" clip-path="url(#pcf9172cfe0)" fill="#fc4f30" opacity=".01" stroke="#fc4f30"/>
   </g>
   <g id="patch_262">
    <path d="m592.72 119.22-71.446 50.105-29.228 50.569 44.538-35.259z" clip-path="url(#pcf9172cfe0)" fill="#fc4f30" opacity=".01" stroke="#fc4f30"/>
   </g>
   <g id="patch_263">
    <path d="m563.49 148.45-47.321 15.774-28.764 60.311 68.662-20.413z" clip-path="url(#pcf9172cfe0)" fill="#fc4f30" opacity=".01" stroke="#fc4f30"/>
   </g>
   <g id="patch_264">
    <path d="m544.94 167.01-36.187-10.207-15.31 61.703 79.796 2.7836z" clip-path="url(#pcf9172cfe0)" fill="#fc4f30" opacity=".01" stroke="#fc4f30"/>
   </g>
   <g id="patch_265">
    <path d="m548.18 163.76-53.816-21.341 12.526 62.631 62.167 12.062z" clip-path="url(#pcf9172cfe0)" fill="#fc4f30" opacity=".01" stroke="#fc4f30"/>
   </g>
   <g id="patch_266">
    <path d="m588.08 123.86-62.631 49.641-10.207 23.197 53.352 19.949z" clip-path="url(#pcf9172cfe0)" fill="#fc4f30" opacity=".01" stroke="#fc4f30"/>
   </g>
   <g id="patch_267">
    <path d="m546.79 165.15-45.929-16.238-21.805 83.972 70.054-35.723z" clip-path="url(#pcf9172cfe0)" fill="#fc4f30" opacity=".01" stroke="#fc4f30"/>
   </g>
   <g id="patch_268">
    <path d="m562.1 149.84-96.962-36.651 60.775 72.837 19.021 6.959z" clip-path="url(#pcf9172cfe0)" fill="#fc4f30" opacity=".01" stroke="#fc4f30"/>
   </g>
   <g id="patch_269">
    <path d="m557 154.95-38.97 11.134-30.156 57.992 77.013-11.134z" clip-path="url(#pcf9172cfe0)" fill="#fc4f30" opacity=".01" stroke="#fc4f30"/>
   </g>
   <g id="patch_270">
    <path d="m561.64 150.31-38.506 20.877-37.115 54.744 77.477-14.382z" clip-path="url(#pcf9172cfe0)" fill="#fc4f30" opacity=".01" stroke="#fc4f30"/>
   </g>
   <g id="patch_271">
    <path d="m540.76 171.19-14.382 3.2475-89.539 100.67 101.6-88.611z" clip-path="url(#pcf9172cfe0)" fill="#fc4f30" opacity=".01" stroke="#fc4f30"/>
   </g>
   <g id="patch_272">
    <path d="m538.9 173.04-13.454 0.46393-93.714 106.7 102.53-97.89z" clip-path="url(#pcf9172cfe0)" fill="#fc4f30" opacity=".01" stroke="#fc4f30"/>
   </g>
   <g id="patch_273">
    <path d="m563.03 148.92-39.434 22.733-41.754 58.456 76.549-23.661z" clip-path="url(#pcf9172cfe0)" fill="#fc4f30" opacity=".01" stroke="#fc4f30"/>
   </g>
   <g id="patch_274">
    <path d="m615.45 96.492-93.25 73.765-0.92786 20.413 22.733 1.3918z" clip-path="url(#pcf9172cfe0)" fill="#fc4f30" opacity=".01" stroke="#fc4f30"/>
   </g>
   <g id="patch_275">
    <path d="m555.61 156.34-53.816-6.4951-6.0311 66.342 62.167-10.207z" clip-path="url(#pcf9172cfe0)" fill="#fc4f30" opacity=".01" stroke="#fc4f30"/>
   </g>
   <g id="patch_276">
    <path d="m548.65 163.3-49.641-16.238 16.702 49.177 66.342 33.867z" clip-path="url(#pcf9172cfe0)" fill="#fc4f30" opacity=".01" stroke="#fc4f30"/>
   </g>
   <g id="patch_277">
    <path d="m558.85 153.09-60.311-6.4951-11.134 77.941 55.672-33.403z" clip-path="url(#pcf9172cfe0)" fill="#fc4f30" opacity=".01" stroke="#fc4f30"/>
   </g>
   <g id="patch_278">
    <path d="m551.43 160.51-47.785-8.8147-5.5672 62.167 68.198 0.46393z" clip-path="url(#pcf9172cfe0)" fill="#fc4f30" opacity=".01" stroke="#fc4f30"/>
   </g>
   <g id="patch_279">
    <path d="m550.04 161.91-32.939 3.2475-25.052 54.744 83.044 3.2475z" clip-path="url(#pcf9172cfe0)" fill="#fc4f30" opacity=".01" stroke="#fc4f30"/>
   </g>
   <g id="patch_280">
    <path d="m550.04 161.91-38.506-2.3197-11.598 52.424 77.477 13.454z" clip-path="url(#pcf9172cfe0)" fill="#fc4f30" opacity=".01" stroke="#fc4f30"/>
   </g>
   <g id="patch_281">
    <path d="m555.14 156.8-44.074 2.3197-25.516 67.27 71.91-20.877z" clip-path="url(#pcf9172cfe0)" fill="#fc4f30" opacity=".01" stroke="#fc4f30"/>
   </g>
   <g id="patch_282">
    <path d="m548.18 163.76-33.403-0.92786-44.074 78.405 82.58-39.898z" clip-path="url(#pcf9172cfe0)" fill="#fc4f30" opacity=".01" stroke="#fc4f30"/>
   </g>
   <g id="patch_283">
    <path d="m545.86 166.08-23.197 4.6393-37.115 55.672h92.787z" clip-path="url(#pcf9172cfe0)" fill="#fc4f30" opacity=".01" stroke="#fc4f30"/>
   </g>
   <g id="patch_284">
    <path d="m540.3 171.65h-16.702l-77.013 93.714 99.282-71.446z" clip-path="url(#pcf9172cfe0)" fill="#fc4f30" opacity=".01" stroke="#fc4f30"/>
   </g>
   <g id="patch_285">
    <path d="m550.04 161.91-30.156 6.0311-24.125 48.249 85.828 13.454z" clip-path="url(#pcf9172cfe0)" fill="#fc4f30" opacity=".01" stroke="#fc4f30"/>
   </g>
   <g id="patch_286">
    <path d="m554.21 157.73-31.083 13.454-34.795 52.424 84.9-2.3197z" clip-path="url(#pcf9172cfe0)" fill="#fc4f30" opacity=".01" stroke="#fc4f30"/>
   </g>
   <g id="patch_287">
    <path d="m556.53 155.41-48.713 0.46393-33.867 82.116 67.27-48.713z" clip-path="url(#pcf9172cfe0)" fill="#fc4f30" opacity=".01" stroke="#fc4f30"/>
   </g>
   <g id="patch_288">
    <path d="m564.42 147.52-86.755-21.805 39.898 68.662 29.228 0.46393z" clip-path="url(#pcf9172cfe0)" fill="#fc4f30" opacity=".01" stroke="#fc4f30"/>
   </g>
   <g id="patch_289">
    <path d="m577.87 134.07-48.249 43.61-40.362 45.001 67.734-17.629z" clip-path="url(#pcf9172cfe0)" fill="#fc4f30" opacity=".01" stroke="#fc4f30"/>
   </g>
   <g id="patch_290">
    <path d="m602 109.95-79.796 60.311 45.929 45.929z" clip-path="url(#pcf9172cfe0)" fill="#fc4f30" opacity=".01" stroke="#fc4f30"/>
   </g>
   <g id="patch_291">
    <path d="m538.9 173.04-13.454 0.46393-86.755 99.746 102.53-83.972z" clip-path="url(#pcf9172cfe0)" fill="#fc4f30" opacity=".01" stroke="#fc4f30"/>
   </g>
   <g id="patch_292">
    <path d="m538.44 173.5-8.8147 4.1754-71.91 76.549 107.17-41.29z" clip-path="url(#pcf9172cfe0)" fill="#fc4f30" opacity=".01" stroke="#fc4f30"/>
   </g>
   <g id="patch_293">
    <path d="m546.79 165.15-34.795-5.1033-37.115 77.013 81.188-32.939z" clip-path="url(#pcf9172cfe0)" fill="#fc4f30" opacity=".01" stroke="#fc4f30"/>
   </g>
   <g id="patch_294">
    <path d="m556.07 155.88-29.228 19.021-70.518 80.724 86.755-64.487z" clip-path="url(#pcf9172cfe0)" fill="#fc4f30" opacity=".01" stroke="#fc4f30"/>
   </g>
   <g id="patch_295">
    <path d="m565.81 146.13-50.569 17.166-17.166 50.569 65.415-2.3197z" clip-path="url(#pcf9172cfe0)" fill="#fc4f30" opacity=".01" stroke="#fc4f30"/>
   </g>
   <g id="patch_296">
    <path d="m544.01 167.94-20.877 3.2475-67.27 84.9 95.106-57.064z" clip-path="url(#pcf9172cfe0)" fill="#fc4f30" opacity=".01" stroke="#fc4f30"/>
   </g>
   <g id="patch_297">
    <path d="m609.42 102.52-111.81 43.146 38.506 38.506z" clip-path="url(#pcf9172cfe0)" fill="#fc4f30" opacity=".01" stroke="#fc4f30"/>
   </g>
   <g id="patch_298">
    <path d="m531.94 180-6.4951-6.4951-94.178 107.17 109.49-91.859z" clip-path="url(#pcf9172cfe0)" fill="#fc4f30" opacity=".01" stroke="#fc4f30"/>
   </g>
   <g id="patch_299">
    <path d="m559.78 152.16h-55.672v55.672l60.311 4.6393z" clip-path="url(#pcf9172cfe0)" fill="#fc4f30" opacity=".01" stroke="#fc4f30"/>
   </g>
   <g id="patch_300">
    <path d="m556.53 155.41-31.083 18.093-52.424 65.415 84.9-32.939z" clip-path="url(#pcf9172cfe0)" fill="#fc4f30" opacity=".01" stroke="#fc4f30"/>
   </g>
   <g id="patch_301">
    <path d="m587.15 124.79-55.208 55.208 60.775 60.775z" clip-path="url(#pcf9172cfe0)" fill="#fc4f30" opacity=".01" stroke="#fc4f30"/>
   </g>
   <g id="patch_302">
    <path d="m536.58 175.36-17.166-7.8869-32.939 57.992 98.818 7.8869z" clip-path="url(#pcf9172cfe0)" fill="#fc4f30" opacity=".01" stroke="#fc4f30"/>
   </g>
   <g id="patch_303">
    <path d="m544.94 167.01-29.692-3.7115-46.393 79.796 86.291-39.898z" clip-path="url(#pcf9172cfe0)" fill="#fc4f30" opacity=".01" stroke="#fc4f30"/>
   </g>
   <g id="patch_304">
    <path d="m539.83 172.11-23.197-7.4229-60.311 90.931 92.787-58.456z" clip-path="url(#pcf9172cfe0)" fill="#fc4f30" opacity=".01" stroke="#fc4f30"/>
   </g>
   <g id="patch_305">
    <path d="m555.14 156.8-28.764 17.629-64.951 76.085 87.219-53.816z" clip-path="url(#pcf9172cfe0)" fill="#fc4f30" opacity=".01" stroke="#fc4f30"/>
   </g>
   <g id="patch_306">
    <path d="m538.9 173.04-11.598 2.3197-53.352 62.631 104.38-11.598z" clip-path="url(#pcf9172cfe0)" fill="#fc4f30" opacity=".01" stroke="#fc4f30"/>
   </g>
   <g id="patch_307">
    <path d="m544.94 167.01-15.31 10.67-63.095 67.734 100.67-30.156z" clip-path="url(#pcf9172cfe0)" fill="#fc4f30" opacity=".01" stroke="#fc4f30"/>
   </g>
   <g id="patch_308">
    <path d="m551.43 160.51-23.197 15.774-38.506 45.929 92.787 8.3508z" clip-path="url(#pcf9172cfe0)" fill="#fc4f30" opacity=".01" stroke="#fc4f30"/>
   </g>
   <g id="patch_309">
    <path d="m537.05 174.9-9.7426 0.46393-90.003 99.282 106.24-83.044z" clip-path="url(#pcf9172cfe0)" fill="#fc4f30" opacity=".01" stroke="#fc4f30"/>
   </g>
   <g id="patch_310">
    <path d="m545.4 166.55-17.166 9.7426-47.785 55.208 98.818-4.1754z" clip-path="url(#pcf9172cfe0)" fill="#fc4f30" opacity=".01" stroke="#fc4f30"/>
   </g>
   <g id="patch_311">
    <path d="m541.69 170.26-22.733-3.2475-31.083 57.064 93.25 5.1033z" clip-path="url(#pcf9172cfe0)" fill="#fc4f30" opacity=".01" stroke="#fc4f30"/>
   </g>
   <g id="patch_312">
    <path d="m548.18 163.76-39.898-7.4229-6.4951 53.816 76.085 15.774z" clip-path="url(#pcf9172cfe0)" fill="#fc4f30" opacity=".01" stroke="#fc4f30"/>
   </g>
   <g id="patch_313">
    <path d="m562.1 149.84-76.549-16.238 34.331 58.456 39.434 15.31z" clip-path="url(#pcf9172cfe0)" fill="#fc4f30" opacity=".01" stroke="#fc4f30"/>
   </g>
   <g id="patch_314">
    <path d="m543.08 168.87-35.723-13.454-12.99 62.167 80.26 5.1033z" clip-path="url(#pcf9172cfe0)" fill="#fc4f30" opacity=".01" stroke="#fc4f30"/>
   </g>
   <g id="patch_315">
    <path d="m544.01 167.94-19.949 4.1754-72.374 88.147 96.034-64.487z" clip-path="url(#pcf9172cfe0)" fill="#fc4f30" opacity=".01" stroke="#fc4f30"/>
   </g>
   <g id="patch_316">
    <path d="m542.62 169.33-12.526 8.8147-70.982 74.693 103.46-42.218z" clip-path="url(#pcf9172cfe0)" fill="#fc4f30" opacity=".01" stroke="#fc4f30"/>
   </g>
   <g id="patch_317">
    <path d="m537.98 173.97-9.2787 2.7836-97.426 103.92 106.7-94.642z" clip-path="url(#pcf9172cfe0)" fill="#fc4f30" opacity=".01" stroke="#fc4f30"/>
   </g>
   <g id="patch_318">
    <path d="m558.39 153.56-68.662-15.774 22.269 62.167 47.321 7.4229z" clip-path="url(#pcf9172cfe0)" fill="#fc4f30" opacity=".01" stroke="#fc4f30"/>
   </g>
   <g id="patch_319">
    <path d="m554.68 157.27-47.321-1.8557-19.021 68.198 68.662-18.557z" clip-path="url(#pcf9172cfe0)" fill="#fc4f30" opacity=".01" stroke="#fc4f30"/>
   </g>
   <g id="patch_320">
    <path d="m549.11 162.83-27.372 6.959-37.115 57.528 88.611-6.0311z" clip-path="url(#pcf9172cfe0)" fill="#fc4f30" opacity=".01" stroke="#fc4f30"/>
   </g>
   <g id="patch_321">
    <path d="m545.86 166.08-29.228-1.3918-31.547 62.167 86.755-6.959z" clip-path="url(#pcf9172cfe0)" fill="#fc4f30" opacity=".01" stroke="#fc4f30"/>
   </g>
   <g id="patch_322">
    <path d="m560.71 151.24-53.352 4.1754-24.588 73.765 62.631-35.723z" clip-path="url(#pcf9172cfe0)" fill="#fc4f30" opacity=".01" stroke="#fc4f30"/>
   </g>
   <g id="patch_323">
    <path d="m564.42 147.52-57.528 7.4229-0.46393 50.569 58.456 7.4229z" clip-path="url(#pcf9172cfe0)" fill="#fc4f30" opacity=".01" stroke="#fc4f30"/>
   </g>
   <g id="patch_324">
    <path d="m582.51 129.43-57.064 44.074-38.042 51.033 58.919-30.156z" clip-path="url(#pcf9172cfe0)" fill="#fc4f30" opacity=".01" stroke="#fc4f30"/>
   </g>
   <g id="patch_325">
    <path d="m573.7 138.25-63.095 20.413-6.4951 49.177 52.888-2.7836z" clip-path="url(#pcf9172cfe0)" fill="#fc4f30" opacity=".01" stroke="#fc4f30"/>
   </g>
   <g id="patch_326">
    <path d="m537.98 173.97-14.846-2.7836-45.929 63.559 101.14-8.3508z" clip-path="url(#pcf9172cfe0)" fill="#fc4f30" opacity=".01" stroke="#fc4f30"/>
   </g>
   <g id="patch_327">
    <path d="m578.8 133.14-58.919 34.795-19.021 43.146 57.064-5.1033z" clip-path="url(#pcf9172cfe0)" fill="#fc4f30" opacity=".01" stroke="#fc4f30"/>
   </g>
   <g id="patch_328">
    <path d="m538.44 173.5-32.011-19.021-38.506 89.539 83.972-44.074z" clip-path="url(#pcf9172cfe0)" fill="#fc4f30" opacity=".01" stroke="#fc4f30"/>
   </g>
   <g id="patch_329">
    <path d="m545.86 166.08-22.733 5.1033-21.805 39.434 93.25 32.011z" clip-path="url(#pcf9172cfe0)" fill="#fc4f30" opacity=".01" stroke="#fc4f30"/>
   </g>
   <g id="patch_330">
    <path d="m535.66 176.29-22.269-14.846-8.3508 45.465 93.714 39.898z" clip-path="url(#pcf9172cfe0)" fill="#fc4f30" opacity=".01" stroke="#fc4f30"/>
   </g>
   <g id="patch_331">
    <path d="m597.82 114.12-79.333 52.424-23.197 50.105 36.651-36.651z" clip-path="url(#pcf9172cfe0)" fill="#fc4f30" opacity=".01" stroke="#fc4f30"/>
   </g>
   <g id="patch_332">
    <path d="m543.54 168.4-74.229-51.033 35.723 89.539 41.754-12.062z" clip-path="url(#pcf9172cfe0)" fill="#fc4f30" opacity=".01" stroke="#fc4f30"/>
   </g>
   <g id="patch_333">
    <path d="m541.69 170.26-16.702 2.7836-77.477 91.395 99.282-69.59z" clip-path="url(#pcf9172cfe0)" fill="#fc4f30" opacity=".01" stroke="#fc4f30"/>
   </g>
   <g id="patch_334">
    <path d="m542.62 169.33-23.197-1.8557-19.021 44.074 92.787 29.692z" clip-path="url(#pcf9172cfe0)" fill="#fc4f30" opacity=".01" stroke="#fc4f30"/>
   </g>
   <g id="matplotlib.axis_3">
    <g id="xtick_5">
     <g id="text_11"><!-- I1D -->
      <g transform="translate(647.62 57.429) scale(.12 -.12)" fill="#808080">
       <use xlink:href="#DejaVuSans-49"/>
       <use x="29.492188" xlink:href="#DejaVuSans-31"/>
       <use x="93.115234" xlink:href="#DejaVuSans-44"/>
      </g>
     </g>
    </g>
    <g id="xtick_6">
     <g id="text_12"><!-- 1D -->
      <g transform="translate(397.62 57.429) scale(.12 -.12)" fill="#808080">
       <use xlink:href="#DejaVuSans-31"/>
       <use x="63.623047" xlink:href="#DejaVuSans-44"/>
      </g>
     </g>
    </g>
    <g id="xtick_7">
     <g id="text_13"><!-- R -->
      <g transform="translate(401.89 309.19) scale(.12 -.12)" fill="#808080">
       <use xlink:href="#DejaVuSans-52"/>
      </g>
     </g>
    </g>
    <g id="xtick_8">
     <g id="text_14"><!-- 2D -->
      <g transform="translate(649.39 309.19) scale(.12 -.12)" fill="#808080">
       <use xlink:href="#DejaVuSans-32"/>
       <use x="63.623047" xlink:href="#DejaVuSans-44"/>
      </g>
     </g>
    </g>
   </g>
   <g id="matplotlib.axis_4">
    <g id="ytick_7">
     <g id="line2d_7">
      <path d="m531.94 180v0" clip-path="url(#pcf9172cfe0)" fill="none" stroke="#b0b0b0" stroke-linecap="square" stroke-width=".8"/>
     </g>
     <g id="text_15"><!-- 0 -->
      <g transform="translate(531.94 178.54) scale(.07 -.07)" fill="#808080">
       <use xlink:href="#DejaVuSans-30"/>
      </g>
     </g>
    </g>
    <g id="ytick_8">
     <g id="line2d_8">
      <path d="m564.75 180-0.079911-2.2884-0.23934-2.2772-0.39761-2.255-0.55394-2.2217-0.70757-2.1777-0.85776-2.123-1.0038-2.058-1.1449-1.983-1.2804-1.8983-1.4097-1.8044-1.5321-1.7016-1.6471-1.5906-1.7541-1.4718-1.8525-1.3459-1.9418-1.2134-2.0217-1.075-2.0918-0.93133-2.1517-0.78314-2.2011-0.63114-2.2397-0.47607-2.2675-0.31867-2.2842-0.15972h-2.2898l-2.2842 0.15972-2.2675 0.31867-2.2397 0.47607-2.2011 0.63114-2.1517 0.78314-2.0918 0.93133-2.0217 1.075-1.9418 1.2134-1.8525 1.3459-1.7541 1.4718-1.6471 1.5906-1.5321 1.7016-1.4097 1.8044-1.2804 1.8983-1.1449 1.983-1.0038 2.058-0.85776 2.123-0.70757 2.1777-0.55394 2.2217-0.39761 2.255-0.23934 2.2772-0.079911 2.2884 0.079911 2.2884 0.23934 2.2772 0.39761 2.255 0.55394 2.2217 0.70757 2.1777 0.85776 2.123 1.0038 2.058 1.1449 1.983 1.2804 1.8983 1.4097 1.8044 1.5321 1.7016 1.6471 1.5906 1.7541 1.4718 1.8525 1.3459 1.9418 1.2134 2.0217 1.075 2.0918 0.93133 2.1517 0.78314 2.2011 0.63114 2.2397 0.47607 2.2675 0.31867 2.2842 0.15972h2.2898l2.2842-0.15972 2.2675-0.31867 2.2397-0.47607 2.2011-0.63114 2.1517-0.78314 2.0918-0.93133 2.0217-1.075 1.9418-1.2134 1.8525-1.3459 1.7541-1.4718 1.6471-1.5906 1.5321-1.7016 1.4097-1.8044 1.2804-1.8983 1.1449-1.983 1.0038-2.058 0.85776-2.123 0.70757-2.1777 0.55394-2.2217 0.39761-2.255 0.23934-2.2772 0.079911-2.2884v0" clip-path="url(#pcf9172cfe0)" fill="none" stroke="#b0b0b0" stroke-linecap="square" stroke-width=".8"/>
     </g>
     <g id="text_16"><!-- 20 -->
      <g transform="translate(564.75 178.54) scale(.07 -.07)" fill="#808080">
       <use xlink:href="#DejaVuSans-32"/>
       <use x="63.623047" xlink:href="#DejaVuSans-30"/>
      </g>
     </g>
    </g>
    <g id="ytick_9">
     <g id="line2d_9">
      <path d="m597.56 180-0.15982-4.5767-0.47869-4.5544-0.79522-4.5099-1.1079-4.4435-1.4151-4.3554-1.7155-4.246-2.0075-4.116-2.2898-3.966-2.5608-3.7966-2.8194-3.6087-3.0643-3.4032-3.2942-3.1812-3.5081-2.9437-3.7049-2.6918-3.8836-2.4268-4.0435-2.15-4.1836-1.8627-4.3033-1.5663-4.4021-1.2623-4.4794-0.95213-4.5349-0.63734-4.5684-0.31945h-4.5795l-4.5684 0.31945-4.5349 0.63734-4.4794 0.95213-4.4021 1.2623-4.3033 1.5663-4.1836 1.8627-4.0435 2.15-3.8836 2.4268-3.7049 2.6918-3.5081 2.9437-3.2942 3.1812-3.0643 3.4032-2.8194 3.6087-2.5608 3.7966-2.2898 3.966-2.0075 4.116-1.7155 4.246-1.4151 4.3554-1.1079 4.4435-0.79522 4.5099-0.47869 4.5544-0.15982 4.5767 0.15982 4.5767 0.47869 4.5544 0.79522 4.5099 1.1079 4.4435 1.4151 4.3554 1.7155 4.246 2.0075 4.116 2.2898 3.966 2.5608 3.7966 2.8194 3.6087 3.0643 3.4032 3.2942 3.1812 3.5081 2.9437 3.7049 2.6918 3.8836 2.4268 4.0435 2.15 4.1836 1.8627 4.3033 1.5663 4.4021 1.2623 4.4794 0.95213 4.5349 0.63734 4.5684 0.31945h4.5795l4.5684-0.31945 4.5349-0.63734 4.4794-0.95213 4.4021-1.2623 4.3033-1.5663 4.1836-1.8627 4.0435-2.15 3.8836-2.4268 3.7049-2.6918 3.5081-2.9437 3.2942-3.1812 3.0643-3.4032 2.8194-3.6087 2.5608-3.7966 2.2898-3.966 2.0075-4.116 1.7155-4.246 1.4151-4.3554 1.1079-4.4435 0.79522-4.5099 0.47869-4.5544 0.15982-4.5767v0" clip-path="url(#pcf9172cfe0)" fill="none" stroke="#b0b0b0" stroke-linecap="square" stroke-width=".8"/>
     </g>
     <g id="text_17"><!-- 40 -->
      <g transform="translate(597.56 178.54) scale(.07 -.07)" fill="#808080">
       <use xlink:href="#DejaVuSans-34"/>
       <use x="63.623047" xlink:href="#DejaVuSans-30"/>
      </g>
     </g>
    </g>
    <g id="ytick_10">
     <g id="line2d_10">
      <path d="m630.36 180-0.059952-3.4346-0.17978-3.4304-0.29939-3.4221-0.41864-3.4096-0.53738-3.3929-0.65546-3.372-0.77274-3.3471-0.88908-3.3181-1.0043-3.2851-1.1184-3.248-1.231-3.207-1.3422-3.1621-1.4518-3.1133-1.5595-3.0607-1.6654-3.0045-1.7692-2.9445-1.8709-2.881-1.9703-2.8139-2.0673-2.7434-2.1618-2.6696-2.2537-2.5925-2.3428-2.5123-2.429-2.429-2.5123-2.3428-2.5925-2.2537-2.6696-2.1618-2.7434-2.0673-2.8139-1.9703-2.881-1.8709-2.9445-1.7692-3.0045-1.6654-3.0607-1.5595-3.1133-1.4518-3.1621-1.3422-3.207-1.231-3.248-1.1184-3.2851-1.0043-3.3181-0.88908-3.3471-0.77274-3.372-0.65546-3.3929-0.53738-3.4096-0.41864-3.4221-0.29939-3.4304-0.17978-3.4346-0.059952-3.4346 0.059952-3.4304 0.17978-3.4221 0.29939-3.4096 0.41864-3.3929 0.53738-3.372 0.65546-3.3471 0.77274-3.3181 0.88908-3.2851 1.0043-3.248 1.1184-3.207 1.231-3.1621 1.3422-3.1133 1.4518-3.0607 1.5595-3.0045 1.6654-2.9445 1.7692-2.881 1.8709-2.8139 1.9703-2.7434 2.0673-2.6696 2.1618-2.5925 2.2537-2.5123 2.3428-2.429 2.429-2.3428 2.5123-2.2537 2.5925-2.1618 2.6696-2.0673 2.7434-1.9703 2.8139-1.8709 2.881-1.7692 2.9445-1.6654 3.0045-1.5595 3.0607-1.4518 3.1133-1.3422 3.1621-1.231 3.207-1.1184 3.248-1.0043 3.2851-0.88908 3.3181-0.77274 3.3471-0.65546 3.372-0.53738 3.3929-0.41864 3.4096-0.29939 3.4221-0.17978 3.4304-0.059952 3.4346 0.059952 3.4346 0.17978 3.4304 0.29939 3.4221 0.41864 3.4096 0.53738 3.3929 0.65546 3.372 0.77274 3.3471 0.88908 3.3181 1.0043 3.2851 1.1184 3.248 1.231 3.207 1.3422 3.1621 1.4518 3.1133 1.5595 3.0607 1.6654 3.0045 1.7692 2.9445 1.8709 2.881 1.9703 2.8139 2.0673 2.7434 2.1618 2.6696 2.2537 2.5925 2.3428 2.5123 2.429 2.429 2.5123 2.3428 2.5925 2.2537 2.6696 2.1618 2.7434 2.0673 2.8139 1.9703 2.881 1.8709 2.9445 1.7692 3.0045 1.6654 3.0607 1.5595 3.1133 1.4518 3.1621 1.3422 3.207 1.231 3.248 1.1184 3.2851 1.0043 3.3181 0.88908 3.3471 0.77274 3.372 0.65546 3.3929 0.53738 3.4096 0.41864 3.4221 0.29939 3.4304 0.17978 3.4346 0.059952 3.4346-0.059952 3.4304-0.17978 3.4221-0.29939 3.4096-0.41864 3.3929-0.53738 3.372-0.65546 3.3471-0.77274 3.3181-0.88908 3.2851-1.0043 3.248-1.1184 3.207-1.231 3.1621-1.3422 3.1133-1.4518 3.0607-1.5595 3.0045-1.6654 2.9445-1.7692 2.881-1.8709 2.8139-1.9703 2.7434-2.0673 2.6696-2.1618 2.5925-2.2537 2.5123-2.3428 2.429-2.429 2.3428-2.5123 2.2537-2.5925 2.1618-2.6696 2.0673-2.7434 1.9703-2.8139 1.8709-2.881 1.7692-2.9445 1.6654-3.0045 1.5595-3.0607 1.4518-3.1133 1.3422-3.1621 1.231-3.207 1.1184-3.248 1.0043-3.2851 0.88908-3.3181 0.77274-3.3471 0.65546-3.372 0.53738-3.3929 0.41864-3.4096 0.29939-3.4221 0.17978-3.4304 0.059952-3.4346v0" clip-path="url(#pcf9172cfe0)" fill="none" stroke="#b0b0b0" stroke-linecap="square" stroke-width=".8"/>
     </g>
     <g id="text_18"><!-- 60 -->
      <g transform="translate(630.36 178.54) scale(.07 -.07)" fill="#808080">
       <use xlink:href="#DejaVuSans-36"/>
       <use x="63.623047" xlink:href="#DejaVuSans-30"/>
      </g>
     </g>
    </g>
    <g id="ytick_11">
     <g id="line2d_11">
      <path d="m663.16 180-0.079936-4.5795-0.23971-4.5739-0.39919-4.5628-0.55819-4.5461-0.7165-4.5238-0.87394-4.4961-1.0303-4.4628-1.1854-4.4241-1.3391-4.3801-1.4912-4.3307-1.6414-4.276-1.7896-4.2161-1.9357-4.1511-2.0794-4.081-2.2205-4.0059-2.359-3.926-2.4946-3.8413-2.6271-3.7519-2.7564-3.6579-2.8824-3.5595-3.0049-3.4567-3.1237-3.3498-3.2387-3.2387-3.3498-3.1237-3.4567-3.0049-3.5595-2.8824-3.6579-2.7564-3.7519-2.6271-3.8413-2.4946-3.926-2.359-4.0059-2.2205-4.081-2.0794-4.1511-1.9357-4.2161-1.7896-4.276-1.6414-4.3307-1.4912-4.3801-1.3391-4.4241-1.1854-4.4628-1.0303-4.4961-0.87394-4.5238-0.7165-4.5461-0.55819-4.5628-0.39919-4.5739-0.23971-4.5795-0.079936-4.5795 0.079936-4.5739 0.23971-4.5628 0.39919-4.5461 0.55819-4.5238 0.7165-4.4961 0.87394-4.4628 1.0303-4.4241 1.1854-4.3801 1.3391-4.3307 1.4912-4.276 1.6414-4.2161 1.7896-4.1511 1.9357-4.081 2.0794-4.0059 2.2205-3.926 2.359-3.8413 2.4946-3.7519 2.6271-3.6579 2.7564-3.5595 2.8824-3.4567 3.0049-3.3498 3.1237-3.2387 3.2387-3.1237 3.3498-3.0049 3.4567-2.8824 3.5595-2.7564 3.6579-2.6271 3.7519-2.4946 3.8413-2.359 3.926-2.2205 4.0059-2.0794 4.081-1.9357 4.1511-1.7896 4.2161-1.6414 4.276-1.4912 4.3307-1.3391 4.3801-1.1854 4.4241-1.0303 4.4628-0.87394 4.4961-0.7165 4.5238-0.55819 4.5461-0.39919 4.5628-0.23971 4.5739-0.079936 4.5795 0.079936 4.5795 0.23971 4.5739 0.39919 4.5628 0.55819 4.5461 0.7165 4.5238 0.87394 4.4961 1.0303 4.4628 1.1854 4.4241 1.3391 4.3801 1.4912 4.3307 1.6414 4.276 1.7896 4.2161 1.9357 4.1511 2.0794 4.081 2.2205 4.0059 2.359 3.926 2.4946 3.8413 2.6271 3.7519 2.7564 3.6579 2.8824 3.5595 3.0049 3.4567 3.1237 3.3498 3.2387 3.2387 3.3498 3.1237 3.4567 3.0049 3.5595 2.8824 3.6579 2.7564 3.7519 2.6271 3.8413 2.4946 3.926 2.359 4.0059 2.2205 4.081 2.0794 4.1511 1.9357 4.2161 1.7896 4.276 1.6414 4.3307 1.4912 4.3801 1.3391 4.4241 1.1854 4.4628 1.0303 4.4961 0.87394 4.5238 0.7165 4.5461 0.55819 4.5628 0.39919 4.5739 0.23971 4.5795 0.079936 4.5795-0.079936 4.5739-0.23971 4.5628-0.39919 4.5461-0.55819 4.5238-0.7165 4.4961-0.87394 4.4628-1.0303 4.4241-1.1854 4.3801-1.3391 4.3307-1.4912 4.276-1.6414 4.2161-1.7896 4.1511-1.9357 4.081-2.0794 4.0059-2.2205 3.926-2.359 3.8413-2.4946 3.7519-2.6271 3.6579-2.7564 3.5595-2.8824 3.4567-3.0049 3.3498-3.1237 3.2387-3.2387 3.1237-3.3498 3.0049-3.4567 2.8824-3.5595 2.7564-3.6579 2.6271-3.7519 2.4946-3.8413 2.359-3.926 2.2205-4.0059 2.0794-4.081 1.9357-4.1511 1.7896-4.2161 1.6414-4.276 1.4912-4.3307 1.3391-4.3801 1.1854-4.4241 1.0303-4.4628 0.87394-4.4961 0.7165-4.5238 0.55819-4.5461 0.39919-4.5628 0.23971-4.5739 0.079936-4.5795v0" clip-path="url(#pcf9172cfe0)" fill="none" stroke="#b0b0b0" stroke-linecap="square" stroke-width=".8"/>
     </g>
     <g id="text_19"><!-- 80 -->
      <g transform="translate(663.16 178.54) scale(.07 -.07)" fill="#808080">
       <use xlink:href="#DejaVuSans-38"/>
       <use x="63.623047" xlink:href="#DejaVuSans-30"/>
      </g>
     </g>
    </g>
    <g id="ytick_12">
     <g id="line2d_12">
      <path d="m695.97 180-0.09992-5.7244-0.29964-5.7174-0.49899-5.7035-0.69773-5.6826-0.89563-5.6548-1.0924-5.6201-1.2879-5.5785-1.4818-5.5302-1.6739-5.4751-1.864-5.4133-2.0518-5.345-2.237-5.2701-2.4196-5.1888-2.5992-5.1012-2.7757-5.0074-2.9487-4.9075-3.1182-4.8016-3.2839-4.6899-3.4455-4.5724-3.603-4.4494-3.7561-4.3209-3.9046-4.1872-4.0484-4.0484-4.1872-3.9046-4.3209-3.7561-4.4494-3.603-4.5724-3.4455-4.6899-3.2839-4.8016-3.1182-4.9075-2.9487-5.0074-2.7757-5.1012-2.5992-5.1888-2.4196-5.2701-2.237-5.345-2.0518-5.4133-1.864-5.4751-1.6739-5.5302-1.4818-5.5785-1.2879-5.6201-1.0924-5.6548-0.89563-5.6826-0.69773-5.7035-0.49899-5.7174-0.29964-5.7244-0.09992-5.7244 0.09992-5.7174 0.29964-5.7035 0.49899-5.6826 0.69773-5.6548 0.89563-5.6201 1.0924-5.5785 1.2879-5.5302 1.4818-5.4751 1.6739-5.4133 1.864-5.345 2.0518-5.2701 2.237-5.1888 2.4196-5.1012 2.5992-5.0074 2.7757-4.9075 2.9487-4.8016 3.1182-4.6899 3.2839-4.5724 3.4455-4.4494 3.603-4.3209 3.7561-4.1872 3.9046-4.0484 4.0484-3.9046 4.1872-3.7561 4.3209-3.603 4.4494-3.4455 4.5724-3.2839 4.6899-3.1182 4.8016-2.9487 4.9075-2.7757 5.0074-2.5992 5.1012-2.4196 5.1888-2.237 5.2701-2.0518 5.345-1.864 5.4133-1.6739 5.4751-1.4818 5.5302-1.2879 5.5785-1.0924 5.6201-0.89563 5.6548-0.69773 5.6826-0.49899 5.7035-0.29964 5.7174-0.09992 5.7244 0.09992 5.7244 0.29964 5.7174 0.49899 5.7035 0.69773 5.6826 0.89563 5.6548 1.0924 5.6201 1.2879 5.5785 1.4818 5.5302 1.6739 5.4751 1.864 5.4133 2.0518 5.345 2.237 5.2701 2.4196 5.1888 2.5992 5.1012 2.7757 5.0074 2.9487 4.9075 3.1182 4.8016 3.2839 4.6899 3.4455 4.5724 3.603 4.4494 3.7561 4.3209 3.9046 4.1872 4.0484 4.0484 4.1872 3.9046 4.3209 3.7561 4.4494 3.603 4.5724 3.4455 4.6899 3.2839 4.8016 3.1182 4.9075 2.9487 5.0074 2.7757 5.1012 2.5992 5.1888 2.4196 5.2701 2.237 5.345 2.0518 5.4133 1.864 5.4751 1.6739 5.5302 1.4818 5.5785 1.2879 5.6201 1.0924 5.6548 0.89563 5.6826 0.69773 5.7035 0.49899 5.7174 0.29964 5.7244 0.09992 5.7244-0.09992 5.7174-0.29964 5.7035-0.49899 5.6826-0.69773 5.6548-0.89563 5.6201-1.0924 5.5785-1.2879 5.5302-1.4818 5.4751-1.6739 5.4133-1.864 5.345-2.0518 5.2701-2.237 5.1888-2.4196 5.1012-2.5992 5.0074-2.7757 4.9075-2.9487 4.8016-3.1182 4.6899-3.2839 4.5724-3.4455 4.4494-3.603 4.3209-3.7561 4.1872-3.9046 4.0484-4.0484 3.9046-4.1872 3.7561-4.3209 3.603-4.4494 3.4455-4.5724 3.2839-4.6899 3.1182-4.8016 2.9487-4.9075 2.7757-5.0074 2.5992-5.1012 2.4196-5.1888 2.237-5.2701 2.0518-5.345 1.864-5.4133 1.6739-5.4751 1.4818-5.5302 1.2879-5.5785 1.0924-5.6201 0.89563-5.6548 0.69773-5.6826 0.49899-5.7035 0.29964-5.7174 0.09992-5.7244v0" clip-path="url(#pcf9172cfe0)" fill="none" stroke="#b0b0b0" stroke-linecap="square" stroke-width=".8"/>
     </g>
     <g id="text_20"><!-- 100 -->
      <g transform="translate(695.97 178.54) scale(.07 -.07)" fill="#808080">
       <use xlink:href="#DejaVuSans-31"/>
       <use x="63.623047" xlink:href="#DejaVuSans-30"/>
       <use x="127.246094" xlink:href="#DejaVuSans-30"/>
      </g>
     </g>
    </g>
   </g>
   <g id="patch_335">
    <path d="m695.97 180c0-21.54-4.2428-42.87-12.486-62.77s-20.325-37.983-35.556-53.214-33.314-27.313-53.214-35.556-41.23-12.486-62.77-12.486-42.87 4.2428-62.77 12.486-37.983 20.325-53.214 35.556-27.313 33.314-35.556 53.214-12.486 41.23-12.486 62.77 4.2428 42.87 12.486 62.77 20.325 37.983 35.556 53.214 33.314 27.313 53.214 35.556 41.23 12.486 62.77 12.486 42.87-4.2428 62.77-12.486 37.983-20.325 53.214-35.556 27.313-33.314 35.556-53.214 12.486-41.23 12.486-62.77" fill="none" stroke="#000" stroke-linecap="square" stroke-width=".8"/>
   </g>
  </g>
 </g>
 <defs>
  <clipPath id="pe7e0056e92">
   <path d="m341.37 180c0-21.54-4.2428-42.87-12.486-62.77s-20.325-37.983-35.556-53.214-33.314-27.313-53.214-35.556-41.23-12.486-62.77-12.486-42.87 4.2428-62.77 12.486-37.983 20.325-53.214 35.556-27.313 33.314-35.556 53.214-12.486 41.23-12.486 62.77 4.2428 42.87 12.486 62.77 20.325 37.983 35.556 53.214 33.314 27.313 53.214 35.556 41.23 12.486 62.77 12.486 42.87-4.2428 62.77-12.486 37.983-20.325 53.214-35.556 27.313-33.314 35.556-53.214 12.486-41.23 12.486-62.77m-164.02 0m164.02 0z"/>
  </clipPath>
  <clipPath id="pcf9172cfe0">
   <path d="m695.97 180c0-21.54-4.2428-42.87-12.486-62.77s-20.325-37.983-35.556-53.214-33.314-27.313-53.214-35.556-41.23-12.486-62.77-12.486-42.87 4.2428-62.77 12.486-37.983 20.325-53.214 35.556-27.313 33.314-35.556 53.214-12.486 41.23-12.486 62.77 4.2428 42.87 12.486 62.77 20.325 37.983 35.556 53.214 33.314 27.313 53.214 35.556 41.23 12.486 62.77 12.486 42.87-4.2428 62.77-12.486 37.983-20.325 53.214-35.556 27.313-33.314 35.556-53.214 12.486-41.23 12.486-62.77m-164.02 0m164.02 0z"/>
  </clipPath>
 </defs>
</svg>
