<?xml version="1.0" encoding="UTF-8"?>
<!DOCTYPE svg  PUBLIC '-//W3C//DTD SVG 1.1//EN'  'http://www.w3.org/Graphics/SVG/1.1/DTD/svg11.dtd'>
<!-- Created with matplotlib (http://matplotlib.org/) -->
<svg width="720pt" height="288pt" version="1.1" viewBox="0 0 720 288" xmlns="http://www.w3.org/2000/svg" xmlns:xlink="http://www.w3.org/1999/xlink">
 <defs>
  <style type="text/css">*{stroke-linecap:butt;stroke-linejoin:round;}</style>
 </defs>
 <g id="figure_1">
  <g id="patch_1">
   <path d="m0 288h720v-288h-720z" fill="#fff"/>
  </g>
  <g id="axes_1">
   <g id="patch_2">
    <path d="m50.87 246.04h301.21v-219.16h-301.21z" fill="#fff"/>
   </g>
   <g id="patch_3">
    <path d="m77.226 217.43h22.591v-66.763h-22.591v66.763z" clip-path="url(#pc50eb0123b)" fill="#1b86ba" stroke="#404040" stroke-width="1.5"/>
   </g>
   <g id="patch_4">
    <path d="m152.53 214.18h22.591v-36.527h-22.591v36.527z" clip-path="url(#pc50eb0123b)" fill="#e36149" stroke="#404040" stroke-width="1.5"/>
   </g>
   <g id="patch_5">
    <path d="m227.83 214.38h22.591v-43.832h-22.591v43.832z" clip-path="url(#pc50eb0123b)" fill="#cfa64e" stroke="#404040" stroke-width="1.5"/>
   </g>
   <g id="patch_6">
    <path d="m303.13 216.01h22.591v-50.529h-22.591v50.529z" clip-path="url(#pc50eb0123b)" fill="#6e8857" stroke="#404040" stroke-width="1.5"/>
   </g>
   <g id="matplotlib.axis_1">
    <g id="xtick_1">
     <g id="line2d_1">
      <defs>
       <path id="m6a2afd1fa8" d="m0 0v3.5" stroke="#000" stroke-width=".8"/>
      </defs>
      <use x="88.52125" y="246.04" stroke="#000000" stroke-width=".8" xlink:href="#m6a2afd1fa8"/>
     </g>
     <g id="text_1"><!-- 1D -->
      <defs>
       <path id="DejaVuSans-31" d="m12.406 8.2969h16.109v55.625l-17.531-3.5156v8.9844l17.438 3.5156h9.8594v-64.609h16.109v-8.2969h-41.984z"/>
       <path id="DejaVuSans-44" d="m19.672 64.797v-56.688h11.922q15.094 0 22.094 6.8281 7 6.8438 7 21.594 0 14.641-7 21.453t-22.094 6.8125zm-9.8594 8.1094h20.266q21.188 0 31.094-8.8125 9.9219-8.8125 9.9219-27.562 0-18.859-9.9688-27.703-9.9531-8.8281-31.047-8.8281h-20.266z"/>
      </defs>
      <g transform="translate(81.49 260.64) scale(.1 -.1)">
       <use xlink:href="#DejaVuSans-31"/>
       <use x="63.623047" xlink:href="#DejaVuSans-44"/>
      </g>
     </g>
    </g>
    <g id="xtick_2">
     <g id="line2d_2">
      <use x="163.82375" y="246.04" stroke="#000000" stroke-width=".8" xlink:href="#m6a2afd1fa8"/>
     </g>
     <g id="text_2"><!-- I1D -->
      <defs>
       <path id="DejaVuSans-49" d="m9.8125 72.906h9.8594v-72.906h-9.8594z"/>
      </defs>
      <g transform="translate(155.32 260.64) scale(.1 -.1)">
       <use xlink:href="#DejaVuSans-49"/>
       <use x="29.492188" xlink:href="#DejaVuSans-31"/>
       <use x="93.115234" xlink:href="#DejaVuSans-44"/>
      </g>
     </g>
    </g>
    <g id="xtick_3">
     <g id="line2d_3">
      <use x="239.12625" y="246.04" stroke="#000000" stroke-width=".8" xlink:href="#m6a2afd1fa8"/>
     </g>
     <g id="text_3"><!-- 2D -->
      <defs>
       <path id="DejaVuSans-32" d="m19.188 8.2969h34.422v-8.2969h-46.281v8.2969q5.6094 5.8125 15.297 15.594 9.7031 9.7969 12.188 12.641 4.7344 5.3125 6.6094 9 1.8906 3.6875 1.8906 7.25 0 5.8125-4.0781 9.4688-4.0781 3.6719-10.625 3.6719-4.6406 0-9.7969-1.6094-5.1406-1.6094-11-4.8906v9.9688q5.9531 2.3906 11.125 3.6094 5.1875 1.2188 9.4844 1.2188 11.328 0 18.062-5.6719 6.7344-5.6562 6.7344-15.125 0-4.5-1.6875-8.5312-1.6719-4.0156-6.125-9.4844-1.2188-1.4219-7.7656-8.1875-6.5312-6.7656-18.453-18.922z"/>
      </defs>
      <g transform="translate(232.1 260.64) scale(.1 -.1)">
       <use xlink:href="#DejaVuSans-32"/>
       <use x="63.623047" xlink:href="#DejaVuSans-44"/>
      </g>
     </g>
    </g>
    <g id="xtick_4">
     <g id="line2d_4">
      <use x="314.42875" y="246.04" stroke="#000000" stroke-width=".8" xlink:href="#m6a2afd1fa8"/>
     </g>
     <g id="text_4"><!-- R -->
      <defs>
       <path id="DejaVuSans-52" d="m44.391 34.188q3.1719-1.0781 6.1719-4.5938t6.0312-9.6719l10.016-19.922h-10.609l-9.3125 18.703q-3.625 7.3281-7.0156 9.7188t-9.25 2.3906h-10.75v-30.812h-9.8594v72.906h22.266q12.5 0 18.656-5.2344 6.1562-5.2188 6.1562-15.766 0-6.8906-3.2031-11.438-3.2031-4.5312-9.2969-6.2812zm-24.719 30.609v-25.875h12.406q7.125 0 10.766 3.2969t3.6406 9.6875-3.6406 9.6406-10.766 3.25z"/>
      </defs>
      <g transform="translate(310.95 260.64) scale(.1 -.1)">
       <use xlink:href="#DejaVuSans-52"/>
      </g>
     </g>
    </g>
    <g id="text_5"><!-- Task -->
     <defs>
      <path id="DejaVuSans-54" d="m-0.29688 72.906h61.672v-8.3125h-25.875v-64.594h-9.9062v64.594h-25.891z"/>
      <path id="DejaVuSans-61" d="m34.281 27.484q-10.891 0-15.094-2.4844t-4.2031-8.5q0-4.7812 3.1562-7.5938 3.1562-2.7969 8.5625-2.7969 7.4844 0 12 5.2969t4.5156 14.078v2zm17.922 3.7188v-31.203h-8.9844v8.2969q-3.0781-4.9688-7.6719-7.3438t-11.234-2.375q-8.3906 0-13.359 4.7188-4.9531 4.7188-4.9531 12.625 0 9.2188 6.1719 13.906 6.1875 4.6875 18.438 4.6875h12.609v0.89062q0 6.2031-4.0781 9.5938t-11.453 3.3906q-4.6875 0-9.1406-1.125-4.4375-1.125-8.5312-3.375v8.3125q4.9219 1.9062 9.5625 2.8438 4.6406 0.95312 9.0312 0.95312 11.875 0 17.734-6.1562 5.8594-6.1406 5.8594-18.641z"/>
      <path id="DejaVuSans-73" d="m44.281 53.078v-8.5q-3.7969 1.9531-7.9062 2.9219-4.0938 0.98438-8.5 0.98438-6.6875 0-10.031-2.0469t-3.3438-6.1562q0-3.125 2.3906-4.9062t9.625-3.3906l3.0781-0.6875q9.5625-2.0469 13.594-5.7812t4.0312-10.422q0-7.625-6.0312-12.078-6.0312-4.4375-16.578-4.4375-4.3906 0-9.1562 0.85938t-10.031 2.5625v9.2812q4.9844-2.5938 9.8125-3.8906 4.8281-1.2812 9.5781-1.2812 6.3438 0 9.75 2.1719 3.4219 2.1719 3.4219 6.125 0 3.6562-2.4688 5.6094-2.4531 1.9531-10.812 3.7656l-3.125 0.73438q-8.3438 1.75-12.062 5.3906-3.7031 3.6406-3.7031 9.9844 0 7.7188 5.4688 11.906 5.4688 4.2031 15.531 4.2031 4.9688 0 9.3594-0.73438 4.4062-0.71875 8.1094-2.1875z"/>
      <path id="DejaVuSans-6b" d="m9.0781 75.984h9.0312v-44.875l26.812 23.578h11.469l-29-25.578 30.234-29.109h-11.719l-27.797 26.703v-26.703h-9.0312z"/>
     </defs>
     <g transform="translate(189.87 274.32) scale(.1 -.1)">
      <use xlink:href="#DejaVuSans-54"/>
      <use x="60.833984" xlink:href="#DejaVuSans-61"/>
      <use x="122.113281" xlink:href="#DejaVuSans-73"/>
      <use x="174.212891" xlink:href="#DejaVuSans-6b"/>
     </g>
    </g>
   </g>
   <g id="matplotlib.axis_2">
    <g id="ytick_1">
     <g id="line2d_5">
      <path d="m50.87 237.92h301.21" clip-path="url(#pc50eb0123b)" fill="none" stroke="#b0b0b0" stroke-linecap="square" stroke-width=".8"/>
     </g>
     <g id="line2d_6">
      <defs>
       <path id="md7d11e8c88" d="m0 0h-3.5" stroke="#000" stroke-width=".8"/>
      </defs>
      <use x="50.87" y="237.922963" stroke="#000000" stroke-width=".8" xlink:href="#md7d11e8c88"/>
     </g>
     <g id="text_6"><!-- 0 -->
      <defs>
       <path id="DejaVuSans-30" d="m31.781 66.406q-7.6094 0-11.453-7.5-3.8281-7.4844-3.8281-22.531 0-14.984 3.8281-22.484 3.8438-7.5 11.453-7.5 7.6719 0 11.5 7.5 3.8438 7.5 3.8438 22.484 0 15.047-3.8438 22.531-3.8281 7.5-11.5 7.5zm0 7.8125q12.266 0 18.734-9.7031 6.4688-9.6875 6.4688-28.141 0-18.406-6.4688-28.109-6.4688-9.6875-18.734-9.6875-12.25 0-18.719 9.6875-6.4688 9.7031-6.4688 28.109 0 18.453 6.4688 28.141 6.4688 9.7031 18.719 9.7031z"/>
      </defs>
      <g transform="translate(37.508 241.72) scale(.1 -.1)">
       <use xlink:href="#DejaVuSans-30"/>
      </g>
     </g>
    </g>
    <g id="ytick_2">
     <g id="line2d_7">
      <path d="m50.87 197.34h301.21" clip-path="url(#pc50eb0123b)" fill="none" stroke="#b0b0b0" stroke-linecap="square" stroke-width=".8"/>
     </g>
     <g id="line2d_8">
      <use x="50.87" y="197.337778" stroke="#000000" stroke-width=".8" xlink:href="#md7d11e8c88"/>
     </g>
     <g id="text_7"><!-- 50 -->
      <defs>
       <path id="DejaVuSans-35" d="m10.797 72.906h38.719v-8.3125h-29.688v-17.859q2.1406 0.73438 4.2812 1.0938 2.1562 0.35938 4.3125 0.35938 12.203 0 19.328-6.6875 7.1406-6.6875 7.1406-18.109 0-11.766-7.3281-18.297-7.3281-6.5156-20.656-6.5156-4.5938 0-9.3594 0.78125-4.75 0.78125-9.8281 2.3438v9.9219q4.3906-2.3906 9.0781-3.5625t9.9062-1.1719q8.4531 0 13.375 4.4375 4.9375 4.4375 4.9375 12.062 0 7.6094-4.9375 12.047-4.9219 4.4531-13.375 4.4531-3.9531 0-7.8906-0.875-3.9219-0.875-8.0156-2.7344z"/>
      </defs>
      <g transform="translate(31.145 201.14) scale(.1 -.1)">
       <use xlink:href="#DejaVuSans-35"/>
       <use x="63.623047" xlink:href="#DejaVuSans-30"/>
      </g>
     </g>
    </g>
    <g id="ytick_3">
     <g id="line2d_9">
      <path d="m50.87 156.75h301.21" clip-path="url(#pc50eb0123b)" fill="none" stroke="#b0b0b0" stroke-linecap="square" stroke-width=".8"/>
     </g>
     <g id="line2d_10">
      <use x="50.87" y="156.752593" stroke="#000000" stroke-width=".8" xlink:href="#md7d11e8c88"/>
     </g>
     <g id="text_8"><!-- 100 -->
      <g transform="translate(24.782 160.55) scale(.1 -.1)">
       <use xlink:href="#DejaVuSans-31"/>
       <use x="63.623047" xlink:href="#DejaVuSans-30"/>
       <use x="127.246094" xlink:href="#DejaVuSans-30"/>
      </g>
     </g>
    </g>
    <g id="ytick_4">
     <g id="line2d_11">
      <path d="m50.87 116.17h301.21" clip-path="url(#pc50eb0123b)" fill="none" stroke="#b0b0b0" stroke-linecap="square" stroke-width=".8"/>
     </g>
     <g id="line2d_12">
      <use x="50.87" y="116.167407" stroke="#000000" stroke-width=".8" xlink:href="#md7d11e8c88"/>
     </g>
     <g id="text_9"><!-- 150 -->
      <g transform="translate(24.782 119.97) scale(.1 -.1)">
       <use xlink:href="#DejaVuSans-31"/>
       <use x="63.623047" xlink:href="#DejaVuSans-35"/>
       <use x="127.246094" xlink:href="#DejaVuSans-30"/>
      </g>
     </g>
    </g>
    <g id="ytick_5">
     <g id="line2d_13">
      <path d="m50.87 75.582h301.21" clip-path="url(#pc50eb0123b)" fill="none" stroke="#b0b0b0" stroke-linecap="square" stroke-width=".8"/>
     </g>
     <g id="line2d_14">
      <use x="50.87" y="75.582222" stroke="#000000" stroke-width=".8" xlink:href="#md7d11e8c88"/>
     </g>
     <g id="text_10"><!-- 200 -->
      <g transform="translate(24.782 79.381) scale(.1 -.1)">
       <use xlink:href="#DejaVuSans-32"/>
       <use x="63.623047" xlink:href="#DejaVuSans-30"/>
       <use x="127.246094" xlink:href="#DejaVuSans-30"/>
      </g>
     </g>
    </g>
    <g id="ytick_6">
     <g id="line2d_15">
      <path d="m50.87 34.997h301.21" clip-path="url(#pc50eb0123b)" fill="none" stroke="#b0b0b0" stroke-linecap="square" stroke-width=".8"/>
     </g>
     <g id="line2d_16">
      <use x="50.87" y="34.997037" stroke="#000000" stroke-width=".8" xlink:href="#md7d11e8c88"/>
     </g>
     <g id="text_11"><!-- 250 -->
      <g transform="translate(24.782 38.796) scale(.1 -.1)">
       <use xlink:href="#DejaVuSans-32"/>
       <use x="63.623047" xlink:href="#DejaVuSans-35"/>
       <use x="127.246094" xlink:href="#DejaVuSans-30"/>
      </g>
     </g>
    </g>
    <g id="text_12"><!-- Number of trials on task -->
     <defs>
      <path id="DejaVuSans-4e" d="m9.8125 72.906h13.281l32.328-60.984v60.984h9.5625v-72.906h-13.281l-32.312 60.984v-60.984h-9.5781z"/>
      <path id="DejaVuSans-75" d="m8.5 21.578v33.109h8.9844v-32.766q0-7.7656 3.0156-11.656 3.0312-3.875 9.0938-3.875 7.2656 0 11.484 4.6406 4.2344 4.6406 4.2344 12.656v31h8.9844v-54.688h-8.9844v8.4062q-3.2656-4.9844-7.5938-7.4062-4.3125-2.4219-10.031-2.4219-9.4219 0-14.312 5.8594-4.875 5.8594-4.875 17.141zm22.609 34.422z"/>
      <path id="DejaVuSans-6d" d="m52 44.188q3.375 6.0625 8.0625 8.9375t11.031 2.875q8.5469 0 13.188-5.9844 4.6406-5.9688 4.6406-17v-33.016h-9.0312v32.719q0 7.8594-2.7969 11.656-2.7812 3.8125-8.4844 3.8125-6.9844 0-11.047-4.6406-4.0469-4.625-4.0469-12.641v-30.906h-9.0312v32.719q0 7.9062-2.7812 11.688t-8.5938 3.7812q-6.8906 0-10.953-4.6562-4.0469-4.6562-4.0469-12.625v-30.906h-9.0312v54.688h9.0312v-8.5q3.0781 5.0312 7.375 7.4219t10.203 2.3906q5.9688 0 10.141-3.0312 4.1719-3.0156 6.1719-8.7812z"/>
      <path id="DejaVuSans-62" d="m48.688 27.297q0 9.9062-4.0781 15.547t-11.203 5.6406q-7.1406 0-11.219-5.6406t-4.0781-15.547 4.0781-15.547 11.219-5.6406q7.125 0 11.203 5.6406t4.0781 15.547zm-30.578 19.094q2.8438 4.875 7.1562 7.2344 4.3281 2.375 10.328 2.375 9.9688 0 16.188-7.9062 6.2344-7.9062 6.2344-20.797t-6.2344-20.812q-6.2188-7.9062-16.188-7.9062-6 0-10.328 2.375-4.3125 2.375-7.1562 7.25v-8.2031h-9.0312v75.984h9.0312z"/>
      <path id="DejaVuSans-65" d="m56.203 29.594v-4.3906h-41.312q0.59375-9.2812 5.5938-14.141t13.938-4.8594q5.1719 0 10.031 1.2656t9.6562 3.8125v-8.5q-4.8438-2.0469-9.9219-3.125t-10.297-1.0781q-13.094 0-20.734 7.6094-7.6406 7.625-7.6406 20.625 0 13.422 7.25 21.297 7.25 7.8906 19.562 7.8906 11.031 0 17.453-7.1094 6.4219-7.0938 6.4219-19.297zm-8.9844 2.6406q-0.09375 7.3594-4.125 11.75-4.0312 4.4062-10.672 4.4062-7.5156 0-12.031-4.25t-5.2031-11.969z"/>
      <path id="DejaVuSans-72" d="m41.109 46.297q-1.5156 0.875-3.2969 1.2812-1.7812 0.42188-3.9219 0.42188-7.625 0-11.703-4.9531t-4.0781-14.234v-28.812h-9.0312v54.688h9.0312v-8.5q2.8438 4.9844 7.375 7.3906 4.5469 2.4219 11.047 2.4219 0.92188 0 2.0469-0.125 1.125-0.10938 2.4844-0.35938z"/>
      <path id="DejaVuSans-6f" d="m30.609 48.391q-7.2188 0-11.422-5.6406t-4.2031-15.453 4.1719-15.453q4.1875-5.6406 11.453-5.6406 7.1875 0 11.375 5.6562 4.2031 5.6719 4.2031 15.438 0 9.7188-4.2031 15.406-4.1875 5.6875-11.375 5.6875zm0 7.6094q11.719 0 18.406-7.625 6.7031-7.6094 6.7031-21.078 0-13.422-6.7031-21.078-6.6875-7.6406-18.406-7.6406-11.766 0-18.438 7.6406-6.6562 7.6562-6.6562 21.078 0 13.469 6.6562 21.078 6.6719 7.625 18.438 7.625z"/>
      <path id="DejaVuSans-66" d="m37.109 75.984v-7.4844h-8.5938q-4.8281 0-6.7188-1.9531-1.875-1.9531-1.875-7.0312v-4.8281h14.797v-6.9844h-14.797v-47.703h-9.0312v47.703h-8.5938v6.9844h8.5938v3.8125q0 9.125 4.25 13.297 4.25 4.1875 13.469 4.1875z"/>
      <path id="DejaVuSans-74" d="m18.312 70.219v-15.531h18.5v-6.9844h-18.5v-29.688q0-6.6875 1.8281-8.5938t7.4531-1.9062h9.2188v-7.5156h-9.2188q-10.406 0-14.359 3.875-3.9531 3.8906-3.9531 14.141v29.688h-6.5938v6.9844h6.5938v15.531z"/>
      <path id="DejaVuSans-69" d="m9.4219 54.688h8.9844v-54.688h-8.9844zm0 21.297h8.9844v-11.391h-8.9844z"/>
      <path id="DejaVuSans-6c" d="m9.4219 75.984h8.9844v-75.984h-8.9844z"/>
      <path id="DejaVuSans-6e" d="m54.891 33.016v-33.016h-8.9844v32.719q0 7.7656-3.0312 11.609-3.0312 3.8594-9.0781 3.8594-7.2812 0-11.484-4.6406-4.2031-4.625-4.2031-12.641v-30.906h-9.0312v54.688h9.0312v-8.5q3.2344 4.9375 7.5938 7.375 4.375 2.4375 10.094 2.4375 9.4219 0 14.25-5.8281 4.8438-5.8281 4.8438-17.156z"/>
     </defs>
     <g transform="translate(18.703 196.94) rotate(-90) scale(.1 -.1)">
      <use xlink:href="#DejaVuSans-4e"/>
      <use x="74.804688" xlink:href="#DejaVuSans-75"/>
      <use x="138.183594" xlink:href="#DejaVuSans-6d"/>
      <use x="235.595703" xlink:href="#DejaVuSans-62"/>
      <use x="299.072266" xlink:href="#DejaVuSans-65"/>
      <use x="360.595703" xlink:href="#DejaVuSans-72"/>
      <use x="401.708984" xlink:href="#DejaVuSans-20"/>
      <use x="433.496094" xlink:href="#DejaVuSans-6f"/>
      <use x="494.677734" xlink:href="#DejaVuSans-66"/>
      <use x="529.882812" xlink:href="#DejaVuSans-20"/>
      <use x="561.669922" xlink:href="#DejaVuSans-74"/>
      <use x="600.878906" xlink:href="#DejaVuSans-72"/>
      <use x="641.992188" xlink:href="#DejaVuSans-69"/>
      <use x="669.775391" xlink:href="#DejaVuSans-61"/>
      <use x="731.054688" xlink:href="#DejaVuSans-6c"/>
      <use x="758.837891" xlink:href="#DejaVuSans-73"/>
      <use x="810.9375" xlink:href="#DejaVuSans-20"/>
      <use x="842.724609" xlink:href="#DejaVuSans-6f"/>
      <use x="903.90625" xlink:href="#DejaVuSans-6e"/>
      <use x="967.285156" xlink:href="#DejaVuSans-20"/>
      <use x="999.072266" xlink:href="#DejaVuSans-74"/>
      <use x="1038.28125" xlink:href="#DejaVuSans-61"/>
      <use x="1099.560547" xlink:href="#DejaVuSans-73"/>
      <use x="1151.660156" xlink:href="#DejaVuSans-6b"/>
     </g>
    </g>
   </g>
   <g id="line2d_17">
    <path d="m88.521 217.43v20.496" clip-path="url(#pc50eb0123b)" fill="none" stroke="#404040" stroke-linecap="square" stroke-width="1.5"/>
   </g>
   <g id="line2d_18">
    <path d="m88.521 150.66v-99.434" clip-path="url(#pc50eb0123b)" fill="none" stroke="#404040" stroke-linecap="square" stroke-width="1.5"/>
   </g>
   <g id="line2d_19">
    <path d="m82.874 237.92h11.295" clip-path="url(#pc50eb0123b)" fill="none" stroke="#404040" stroke-linecap="square" stroke-width="1.5"/>
   </g>
   <g id="line2d_20">
    <path d="m82.874 51.231h11.295" clip-path="url(#pc50eb0123b)" fill="none" stroke="#404040" stroke-linecap="square" stroke-width="1.5"/>
   </g>
   <g id="line2d_22">
    <path d="m163.82 214.18v23.742" clip-path="url(#pc50eb0123b)" fill="none" stroke="#404040" stroke-linecap="square" stroke-width="1.5"/>
   </g>
   <g id="line2d_23">
    <path d="m163.82 177.65v-122.36" clip-path="url(#pc50eb0123b)" fill="none" stroke="#404040" stroke-linecap="square" stroke-width="1.5"/>
   </g>
   <g id="line2d_24">
    <path d="m158.18 237.92h11.295" clip-path="url(#pc50eb0123b)" fill="none" stroke="#404040" stroke-linecap="square" stroke-width="1.5"/>
   </g>
   <g id="line2d_25">
    <path d="m158.18 55.29h11.295" clip-path="url(#pc50eb0123b)" fill="none" stroke="#404040" stroke-linecap="square" stroke-width="1.5"/>
   </g>
   <g id="line2d_27">
    <path d="m239.13 214.38v23.539" clip-path="url(#pc50eb0123b)" fill="none" stroke="#404040" stroke-linecap="square" stroke-width="1.5"/>
   </g>
   <g id="line2d_28">
    <path d="m239.13 170.55v-78.735" clip-path="url(#pc50eb0123b)" fill="none" stroke="#404040" stroke-linecap="square" stroke-width="1.5"/>
   </g>
   <g id="line2d_29">
    <path d="m233.48 237.92h11.295" clip-path="url(#pc50eb0123b)" fill="none" stroke="#404040" stroke-linecap="square" stroke-width="1.5"/>
   </g>
   <g id="line2d_30">
    <path d="m233.48 91.816h11.295" clip-path="url(#pc50eb0123b)" fill="none" stroke="#404040" stroke-linecap="square" stroke-width="1.5"/>
   </g>
   <g id="line2d_32">
    <path d="m314.43 216.01v21.916" clip-path="url(#pc50eb0123b)" fill="none" stroke="#404040" stroke-linecap="square" stroke-width="1.5"/>
   </g>
   <g id="line2d_33">
    <path d="m314.43 165.48v-103.7" clip-path="url(#pc50eb0123b)" fill="none" stroke="#404040" stroke-linecap="square" stroke-width="1.5"/>
   </g>
   <g id="line2d_34">
    <path d="m308.78 237.92h11.295" clip-path="url(#pc50eb0123b)" fill="none" stroke="#404040" stroke-linecap="square" stroke-width="1.5"/>
   </g>
   <g id="line2d_35">
    <path d="m308.78 61.783h11.295" clip-path="url(#pc50eb0123b)" fill="none" stroke="#404040" stroke-linecap="square" stroke-width="1.5"/>
   </g>
   <g id="line2d_37">
    <path d="m77.226 195.31h22.591" clip-path="url(#pc50eb0123b)" fill="none" stroke="#404040" stroke-linecap="square" stroke-width="1.5"/>
   </g>
   <g id="line2d_38">
    <path d="m152.53 198.56h22.591" clip-path="url(#pc50eb0123b)" fill="none" stroke="#404040" stroke-linecap="square" stroke-width="1.5"/>
   </g>
   <g id="line2d_39">
    <path d="m227.83 198.15h22.591" clip-path="url(#pc50eb0123b)" fill="none" stroke="#404040" stroke-linecap="square" stroke-width="1.5"/>
   </g>
   <g id="line2d_40">
    <path d="m303.13 196.93h22.591" clip-path="url(#pc50eb0123b)" fill="none" stroke="#404040" stroke-linecap="square" stroke-width="1.5"/>
   </g>
   <g id="patch_7">
    <path d="m50.87 246.04v-219.16" fill="none" stroke="#000" stroke-linecap="square" stroke-width=".8"/>
   </g>
   <g id="patch_8">
    <path d="m50.87 246.04h301.21" fill="none" stroke="#000" stroke-linecap="square" stroke-width=".8"/>
   </g>
   <g id="text_13"><!-- Group F -->
    <defs>
     <path id="DejaVuSans-47" d="m59.516 10.406v19.578h-16.109v8.1094h25.875v-31.312q-5.7031-4.0469-12.594-6.125-6.875-2.0781-14.688-2.0781-17.094 0-26.75 9.9844-9.6406 10-9.6406 27.812 0 17.875 9.6406 27.859 9.6562 9.9844 26.75 9.9844 7.125 0 13.547-1.7656 6.4219-1.75 11.844-5.1719v-10.5q-5.4688 4.6406-11.625 6.9844t-12.938 2.3438q-13.391 0-20.109-7.4688-6.7031-7.4688-6.7031-22.266 0-14.75 6.7031-22.219 6.7188-7.4688 20.109-7.4688 5.2188 0 9.3125 0.90625 4.1094 0.90625 7.375 2.8125z"/>
     <path id="DejaVuSans-70" d="m18.109 8.2031v-29h-9.0312v75.484h9.0312v-8.2969q2.8438 4.875 7.1562 7.2344 4.3281 2.375 10.328 2.375 9.9688 0 16.188-7.9062 6.2344-7.9062 6.2344-20.797t-6.2344-20.812q-6.2188-7.9062-16.188-7.9062-6 0-10.328 2.375-4.3125 2.375-7.1562 7.25zm30.578 19.094q0 9.9062-4.0781 15.547t-11.203 5.6406q-7.1406 0-11.219-5.6406t-4.0781-15.547 4.0781-15.547 11.219-5.6406q7.125 0 11.203 5.6406t4.0781 15.547z"/>
     <path id="DejaVuSans-46" d="m9.8125 72.906h41.891v-8.3125h-32.031v-21.484h28.906v-8.2969h-28.906v-34.812h-9.8594z"/>
    </defs>
    <g transform="translate(177.72 20.88) scale(.12 -.12)">
     <use xlink:href="#DejaVuSans-47"/>
     <use x="77.490234" xlink:href="#DejaVuSans-72"/>
     <use x="118.572266" xlink:href="#DejaVuSans-6f"/>
     <use x="179.753906" xlink:href="#DejaVuSans-75"/>
     <use x="243.132812" xlink:href="#DejaVuSans-70"/>
     <use x="306.609375" xlink:href="#DejaVuSans-20"/>
     <use x="338.396484" xlink:href="#DejaVuSans-46"/>
    </g>
   </g>
  </g>
  <g id="axes_2">
   <g id="patch_9">
    <path d="m405.47 246.04h301.21v-219.16h-301.21z" fill="#fff"/>
   </g>
   <g id="patch_10">
    <path d="m431.83 225.75h22.591v-30.033h-22.591v30.033z" clip-path="url(#p7f01166709)" fill="#1b86ba" stroke="#404040" stroke-width="1.5"/>
   </g>
   <g id="patch_11">
    <path d="m507.13 220.07h22.591v-34.903h-22.591v34.903z" clip-path="url(#p7f01166709)" fill="#e36149" stroke="#404040" stroke-width="1.5"/>
   </g>
   <g id="patch_12">
    <path d="m582.43 211.95h22.591v-46.267h-22.591v46.267z" clip-path="url(#p7f01166709)" fill="#cfa64e" stroke="#404040" stroke-width="1.5"/>
   </g>
   <g id="patch_13">
    <path d="m657.73 191.66h22.591v-65.139h-22.591v65.139z" clip-path="url(#p7f01166709)" fill="#6e8857" stroke="#404040" stroke-width="1.5"/>
   </g>
   <g id="matplotlib.axis_3">
    <g id="xtick_5">
     <g id="line2d_41">
      <use x="443.12125" y="246.04" stroke="#000000" stroke-width=".8" xlink:href="#m6a2afd1fa8"/>
     </g>
     <g id="text_14"><!-- 1D -->
      <g transform="translate(436.09 260.64) scale(.1 -.1)">
       <use xlink:href="#DejaVuSans-31"/>
       <use x="63.623047" xlink:href="#DejaVuSans-44"/>
      </g>
     </g>
    </g>
    <g id="xtick_6">
     <g id="line2d_42">
      <use x="518.42375" y="246.04" stroke="#000000" stroke-width=".8" xlink:href="#m6a2afd1fa8"/>
     </g>
     <g id="text_15"><!-- I1D -->
      <g transform="translate(509.92 260.64) scale(.1 -.1)">
       <use xlink:href="#DejaVuSans-49"/>
       <use x="29.492188" xlink:href="#DejaVuSans-31"/>
       <use x="93.115234" xlink:href="#DejaVuSans-44"/>
      </g>
     </g>
    </g>
    <g id="xtick_7">
     <g id="line2d_43">
      <use x="593.72625" y="246.04" stroke="#000000" stroke-width=".8" xlink:href="#m6a2afd1fa8"/>
     </g>
     <g id="text_16"><!-- 2D -->
      <g transform="translate(586.7 260.64) scale(.1 -.1)">
       <use xlink:href="#DejaVuSans-32"/>
       <use x="63.623047" xlink:href="#DejaVuSans-44"/>
      </g>
     </g>
    </g>
    <g id="xtick_8">
     <g id="line2d_44">
      <use x="669.02875" y="246.04" stroke="#000000" stroke-width=".8" xlink:href="#m6a2afd1fa8"/>
     </g>
     <g id="text_17"><!-- R -->
      <g transform="translate(665.55 260.64) scale(.1 -.1)">
       <use xlink:href="#DejaVuSans-52"/>
      </g>
     </g>
    </g>
    <g id="text_18"><!-- Task -->
     <g transform="translate(544.47 274.32) scale(.1 -.1)">
      <use xlink:href="#DejaVuSans-54"/>
      <use x="60.833984" xlink:href="#DejaVuSans-61"/>
      <use x="122.113281" xlink:href="#DejaVuSans-73"/>
      <use x="174.212891" xlink:href="#DejaVuSans-6b"/>
     </g>
    </g>
   </g>
   <g id="matplotlib.axis_4">
    <g id="ytick_7">
     <g id="line2d_45">
      <path d="m405.47 237.92h301.21" clip-path="url(#p7f01166709)" fill="none" stroke="#b0b0b0" stroke-linecap="square" stroke-width=".8"/>
     </g>
     <g id="line2d_46">
      <use x="405.47" y="237.922963" stroke="#000000" stroke-width=".8" xlink:href="#md7d11e8c88"/>
     </g>
     <g id="text_19"><!-- 0 -->
      <g transform="translate(392.11 241.72) scale(.1 -.1)">
       <use xlink:href="#DejaVuSans-30"/>
      </g>
     </g>
    </g>
    <g id="ytick_8">
     <g id="line2d_47">
      <path d="m405.47 197.34h301.21" clip-path="url(#p7f01166709)" fill="none" stroke="#b0b0b0" stroke-linecap="square" stroke-width=".8"/>
     </g>
     <g id="line2d_48">
      <use x="405.47" y="197.337778" stroke="#000000" stroke-width=".8" xlink:href="#md7d11e8c88"/>
     </g>
     <g id="text_20"><!-- 50 -->
      <g transform="translate(385.74 201.14) scale(.1 -.1)">
       <use xlink:href="#DejaVuSans-35"/>
       <use x="63.623047" xlink:href="#DejaVuSans-30"/>
      </g>
     </g>
    </g>
    <g id="ytick_9">
     <g id="line2d_49">
      <path d="m405.47 156.75h301.21" clip-path="url(#p7f01166709)" fill="none" stroke="#b0b0b0" stroke-linecap="square" stroke-width=".8"/>
     </g>
     <g id="line2d_50">
      <use x="405.47" y="156.752593" stroke="#000000" stroke-width=".8" xlink:href="#md7d11e8c88"/>
     </g>
     <g id="text_21"><!-- 100 -->
      <g transform="translate(379.38 160.55) scale(.1 -.1)">
       <use xlink:href="#DejaVuSans-31"/>
       <use x="63.623047" xlink:href="#DejaVuSans-30"/>
       <use x="127.246094" xlink:href="#DejaVuSans-30"/>
      </g>
     </g>
    </g>
    <g id="ytick_10">
     <g id="line2d_51">
      <path d="m405.47 116.17h301.21" clip-path="url(#p7f01166709)" fill="none" stroke="#b0b0b0" stroke-linecap="square" stroke-width=".8"/>
     </g>
     <g id="line2d_52">
      <use x="405.47" y="116.167407" stroke="#000000" stroke-width=".8" xlink:href="#md7d11e8c88"/>
     </g>
     <g id="text_22"><!-- 150 -->
      <g transform="translate(379.38 119.97) scale(.1 -.1)">
       <use xlink:href="#DejaVuSans-31"/>
       <use x="63.623047" xlink:href="#DejaVuSans-35"/>
       <use x="127.246094" xlink:href="#DejaVuSans-30"/>
      </g>
     </g>
    </g>
    <g id="ytick_11">
     <g id="line2d_53">
      <path d="m405.47 75.582h301.21" clip-path="url(#p7f01166709)" fill="none" stroke="#b0b0b0" stroke-linecap="square" stroke-width=".8"/>
     </g>
     <g id="line2d_54">
      <use x="405.47" y="75.582222" stroke="#000000" stroke-width=".8" xlink:href="#md7d11e8c88"/>
     </g>
     <g id="text_23"><!-- 200 -->
      <g transform="translate(379.38 79.381) scale(.1 -.1)">
       <use xlink:href="#DejaVuSans-32"/>
       <use x="63.623047" xlink:href="#DejaVuSans-30"/>
       <use x="127.246094" xlink:href="#DejaVuSans-30"/>
      </g>
     </g>
    </g>
    <g id="ytick_12">
     <g id="line2d_55">
      <path d="m405.47 34.997h301.21" clip-path="url(#p7f01166709)" fill="none" stroke="#b0b0b0" stroke-linecap="square" stroke-width=".8"/>
     </g>
     <g id="line2d_56">
      <use x="405.47" y="34.997037" stroke="#000000" stroke-width=".8" xlink:href="#md7d11e8c88"/>
     </g>
     <g id="text_24"><!-- 250 -->
      <g transform="translate(379.38 38.796) scale(.1 -.1)">
       <use xlink:href="#DejaVuSans-32"/>
       <use x="63.623047" xlink:href="#DejaVuSans-35"/>
       <use x="127.246094" xlink:href="#DejaVuSans-30"/>
      </g>
     </g>
    </g>
    <g id="text_25"><!-- Number of trials on task -->
     <g transform="translate(373.3 196.94) rotate(-90) scale(.1 -.1)">
      <use xlink:href="#DejaVuSans-4e"/>
      <use x="74.804688" xlink:href="#DejaVuSans-75"/>
      <use x="138.183594" xlink:href="#DejaVuSans-6d"/>
      <use x="235.595703" xlink:href="#DejaVuSans-62"/>
      <use x="299.072266" xlink:href="#DejaVuSans-65"/>
      <use x="360.595703" xlink:href="#DejaVuSans-72"/>
      <use x="401.708984" xlink:href="#DejaVuSans-20"/>
      <use x="433.496094" xlink:href="#DejaVuSans-6f"/>
      <use x="494.677734" xlink:href="#DejaVuSans-66"/>
      <use x="529.882812" xlink:href="#DejaVuSans-20"/>
      <use x="561.669922" xlink:href="#DejaVuSans-74"/>
      <use x="600.878906" xlink:href="#DejaVuSans-72"/>
      <use x="641.992188" xlink:href="#DejaVuSans-69"/>
      <use x="669.775391" xlink:href="#DejaVuSans-61"/>
      <use x="731.054688" xlink:href="#DejaVuSans-6c"/>
      <use x="758.837891" xlink:href="#DejaVuSans-73"/>
      <use x="810.9375" xlink:href="#DejaVuSans-20"/>
      <use x="842.724609" xlink:href="#DejaVuSans-6f"/>
      <use x="903.90625" xlink:href="#DejaVuSans-6e"/>
      <use x="967.285156" xlink:href="#DejaVuSans-20"/>
      <use x="999.072266" xlink:href="#DejaVuSans-74"/>
      <use x="1038.28125" xlink:href="#DejaVuSans-61"/>
      <use x="1099.560547" xlink:href="#DejaVuSans-73"/>
      <use x="1151.660156" xlink:href="#DejaVuSans-6b"/>
     </g>
    </g>
   </g>
   <g id="line2d_57">
    <path d="m443.12 225.75v12.176" clip-path="url(#p7f01166709)" fill="none" stroke="#404040" stroke-linecap="square" stroke-width="1.5"/>
   </g>
   <g id="line2d_58">
    <path d="m443.12 195.71v-135.55" clip-path="url(#p7f01166709)" fill="none" stroke="#404040" stroke-linecap="square" stroke-width="1.5"/>
   </g>
   <g id="line2d_59">
    <path d="m437.47 237.92h11.295" clip-path="url(#p7f01166709)" fill="none" stroke="#404040" stroke-linecap="square" stroke-width="1.5"/>
   </g>
   <g id="line2d_60">
    <path d="m437.47 60.16h11.295" clip-path="url(#p7f01166709)" fill="none" stroke="#404040" stroke-linecap="square" stroke-width="1.5"/>
   </g>
   <g id="line2d_62">
    <path d="m518.42 220.07v17.857" clip-path="url(#p7f01166709)" fill="none" stroke="#404040" stroke-linecap="square" stroke-width="1.5"/>
   </g>
   <g id="line2d_63">
    <path d="m518.42 185.16v-125.81" clip-path="url(#p7f01166709)" fill="none" stroke="#404040" stroke-linecap="square" stroke-width="1.5"/>
   </g>
   <g id="line2d_64">
    <path d="m512.78 237.92h11.295" clip-path="url(#p7f01166709)" fill="none" stroke="#404040" stroke-linecap="square" stroke-width="1.5"/>
   </g>
   <g id="line2d_65">
    <path d="m512.78 59.348h11.295" clip-path="url(#p7f01166709)" fill="none" stroke="#404040" stroke-linecap="square" stroke-width="1.5"/>
   </g>
   <g id="line2d_67">
    <path d="m593.73 211.95v25.975" clip-path="url(#p7f01166709)" fill="none" stroke="#404040" stroke-linecap="square" stroke-width="1.5"/>
   </g>
   <g id="line2d_68">
    <path d="m593.73 165.68v-67.371" clip-path="url(#p7f01166709)" fill="none" stroke="#404040" stroke-linecap="square" stroke-width="1.5"/>
   </g>
   <g id="line2d_69">
    <path d="m588.08 237.92h11.295" clip-path="url(#p7f01166709)" fill="none" stroke="#404040" stroke-linecap="square" stroke-width="1.5"/>
   </g>
   <g id="line2d_70">
    <path d="m588.08 98.31h11.295" clip-path="url(#p7f01166709)" fill="none" stroke="#404040" stroke-linecap="square" stroke-width="1.5"/>
   </g>
   <g id="line2d_72">
    <path d="m669.03 191.66v46.267" clip-path="url(#p7f01166709)" fill="none" stroke="#404040" stroke-linecap="square" stroke-width="1.5"/>
   </g>
   <g id="line2d_73">
    <path d="m669.03 126.52v-70.415" clip-path="url(#p7f01166709)" fill="none" stroke="#404040" stroke-linecap="square" stroke-width="1.5"/>
   </g>
   <g id="line2d_74">
    <path d="m663.38 237.92h11.295" clip-path="url(#p7f01166709)" fill="none" stroke="#404040" stroke-linecap="square" stroke-width="1.5"/>
   </g>
   <g id="line2d_75">
    <path d="m663.38 56.101h11.295" clip-path="url(#p7f01166709)" fill="none" stroke="#404040" stroke-linecap="square" stroke-width="1.5"/>
   </g>
   <g id="line2d_77">
    <path d="m431.83 215.6h22.591" clip-path="url(#p7f01166709)" fill="none" stroke="#404040" stroke-linecap="square" stroke-width="1.5"/>
   </g>
   <g id="line2d_78">
    <path d="m507.13 207.89h22.591" clip-path="url(#p7f01166709)" fill="none" stroke="#404040" stroke-linecap="square" stroke-width="1.5"/>
   </g>
   <g id="line2d_79">
    <path d="m582.43 192.06h22.591" clip-path="url(#p7f01166709)" fill="none" stroke="#404040" stroke-linecap="square" stroke-width="1.5"/>
   </g>
   <g id="line2d_80">
    <path d="m657.73 166.09h22.591" clip-path="url(#p7f01166709)" fill="none" stroke="#404040" stroke-linecap="square" stroke-width="1.5"/>
   </g>
   <g id="patch_14">
    <path d="m405.47 246.04v-219.16" fill="none" stroke="#000" stroke-linecap="square" stroke-width=".8"/>
   </g>
   <g id="patch_15">
    <path d="m405.47 246.04h301.21" fill="none" stroke="#000" stroke-linecap="square" stroke-width=".8"/>
   </g>
   <g id="text_26"><!-- Group S -->
    <defs>
     <path id="DejaVuSans-53" d="m53.516 70.516v-9.625q-5.6094 2.6875-10.594 4-4.9844 1.3281-9.625 1.3281-8.0469 0-12.422-3.125t-4.375-8.8906q0-4.8438 2.9062-7.3125 2.9062-2.4531 11.016-3.9688l5.9531-1.2188q11.031-2.1094 16.281-7.4062t5.25-14.172q0-10.609-7.1094-16.078-7.0938-5.4688-20.812-5.4688-5.1719 0-11.016 1.1719-5.8281 1.1719-12.078 3.4688v10.156q6-3.3594 11.766-5.0781 5.7656-1.7031 11.328-1.7031 8.4375 0 13.031 3.3125 4.5938 3.3281 4.5938 9.4844 0 5.3594-3.2969 8.3906t-10.812 4.5469l-6.0156 1.1719q-11.031 2.1875-15.969 6.875-4.9219 4.6875-4.9219 13.047 0 9.6719 6.8125 15.234t18.766 5.5625q5.1406 0 10.453-0.9375 5.3281-0.92188 10.891-2.7656z"/>
    </defs>
    <g transform="translate(531.96 20.88) scale(.12 -.12)">
     <use xlink:href="#DejaVuSans-47"/>
     <use x="77.490234" xlink:href="#DejaVuSans-72"/>
     <use x="118.572266" xlink:href="#DejaVuSans-6f"/>
     <use x="179.753906" xlink:href="#DejaVuSans-75"/>
     <use x="243.132812" xlink:href="#DejaVuSans-70"/>
     <use x="306.609375" xlink:href="#DejaVuSans-20"/>
     <use x="338.396484" xlink:href="#DejaVuSans-53"/>
    </g>
   </g>
  </g>
 </g>
 <defs>
  <clipPath id="pc50eb0123b">
   <rect x="50.87" y="26.88" width="301.21" height="219.16"/>
  </clipPath>
  <clipPath id="p7f01166709">
   <rect x="405.47" y="26.88" width="301.21" height="219.16"/>
  </clipPath>
 </defs>
</svg>
