<?xml version="1.0" encoding="utf-8" standalone="no"?>
<!DOCTYPE svg PUBLIC "-//W3C//DTD SVG 1.1//EN"
  "http://www.w3.org/Graphics/SVG/1.1/DTD/svg11.dtd">
<!-- Created with matplotlib (http://matplotlib.org/) -->
<svg height="504pt" version="1.1" viewBox="0 0 576 504" width="576pt" xmlns="http://www.w3.org/2000/svg" xmlns:xlink="http://www.w3.org/1999/xlink">
 <defs>
  <style type="text/css">
*{stroke-linecap:butt;stroke-linejoin:round;}
  </style>
 </defs>
 <g id="figure_1">
  <g id="patch_1">
   <path d="M 0 504
L 576 504
L 576 0
L 0 0
z
" style="fill:#ffffff;"/>
  </g>
  <g id="axes_1">
   <g id="patch_2">
    <path d="M 56 215.44
L 219.444545 215.44
L 219.444545 26.88
L 56 26.88
z
" style="fill:#ffffff;"/>
   </g>
   <g id="matplotlib.axis_1">
    <g id="xtick_1">
     <g id="line2d_1">
      <defs>
       <path d="M 0 0
L 0 3.5
" id="m4860b6b269" style="stroke:#000000;stroke-width:0.8;"/>
      </defs>
      <g>
       <use style="stroke:#000000;stroke-width:0.8;" x="79.069924" xlink:href="#m4860b6b269" y="215.44"/>
      </g>
     </g>
     <g id="text_1">
      <!-- 1D -->
      <defs>
       <path d="M 12.40625 8.296875
L 28.515625 8.296875
L 28.515625 63.921875
L 10.984375 60.40625
L 10.984375 69.390625
L 28.421875 72.90625
L 38.28125 72.90625
L 38.28125 8.296875
L 54.390625 8.296875
L 54.390625 0
L 12.40625 0
z
" id="DejaVuSans-31"/>
       <path d="M 19.671875 64.796875
L 19.671875 8.109375
L 31.59375 8.109375
Q 46.6875 8.109375 53.6875 14.9375
Q 60.6875 21.78125 60.6875 36.53125
Q 60.6875 51.171875 53.6875 57.984375
Q 46.6875 64.796875 31.59375 64.796875
z
M 9.8125 72.90625
L 30.078125 72.90625
Q 51.265625 72.90625 61.171875 64.09375
Q 71.09375 55.28125 71.09375 36.53125
Q 71.09375 17.671875 61.125 8.828125
Q 51.171875 0 30.078125 0
L 9.8125 0
z
" id="DejaVuSans-44"/>
      </defs>
      <g transform="translate(72.038674 230.038437)scale(0.1 -0.1)">
       <use xlink:href="#DejaVuSans-31"/>
       <use x="63.623047" xlink:href="#DejaVuSans-44"/>
      </g>
     </g>
    </g>
    <g id="xtick_2">
     <g id="line2d_2">
      <g>
       <use style="stroke:#000000;stroke-width:0.8;" x="118.17149" xlink:href="#m4860b6b269" y="215.44"/>
      </g>
     </g>
     <g id="text_2">
      <!-- I1D -->
      <defs>
       <path d="M 9.8125 72.90625
L 19.671875 72.90625
L 19.671875 0
L 9.8125 0
z
" id="DejaVuSans-49"/>
      </defs>
      <g transform="translate(109.66524 230.038437)scale(0.1 -0.1)">
       <use xlink:href="#DejaVuSans-49"/>
       <use x="29.492188" xlink:href="#DejaVuSans-31"/>
       <use x="93.115234" xlink:href="#DejaVuSans-44"/>
      </g>
     </g>
    </g>
    <g id="xtick_3">
     <g id="line2d_3">
      <g>
       <use style="stroke:#000000;stroke-width:0.8;" x="157.273056" xlink:href="#m4860b6b269" y="215.44"/>
      </g>
     </g>
     <g id="text_3">
      <!-- 2D -->
      <defs>
       <path d="M 19.1875 8.296875
L 53.609375 8.296875
L 53.609375 0
L 7.328125 0
L 7.328125 8.296875
Q 12.9375 14.109375 22.625 23.890625
Q 32.328125 33.6875 34.8125 36.53125
Q 39.546875 41.84375 41.421875 45.53125
Q 43.3125 49.21875 43.3125 52.78125
Q 43.3125 58.59375 39.234375 62.25
Q 35.15625 65.921875 28.609375 65.921875
Q 23.96875 65.921875 18.8125 64.3125
Q 13.671875 62.703125 7.8125 59.421875
L 7.8125 69.390625
Q 13.765625 71.78125 18.9375 73
Q 24.125 74.21875 28.421875 74.21875
Q 39.75 74.21875 46.484375 68.546875
Q 53.21875 62.890625 53.21875 53.421875
Q 53.21875 48.921875 51.53125 44.890625
Q 49.859375 40.875 45.40625 35.40625
Q 44.1875 33.984375 37.640625 27.21875
Q 31.109375 20.453125 19.1875 8.296875
z
" id="DejaVuSans-32"/>
      </defs>
      <g transform="translate(150.241806 230.038437)scale(0.1 -0.1)">
       <use xlink:href="#DejaVuSans-32"/>
       <use x="63.623047" xlink:href="#DejaVuSans-44"/>
      </g>
     </g>
    </g>
    <g id="xtick_4">
     <g id="line2d_4">
      <g>
       <use style="stroke:#000000;stroke-width:0.8;" x="196.374622" xlink:href="#m4860b6b269" y="215.44"/>
      </g>
     </g>
     <g id="text_4">
      <!-- R -->
      <defs>
       <path d="M 44.390625 34.1875
Q 47.5625 33.109375 50.5625 29.59375
Q 53.5625 26.078125 56.59375 19.921875
L 66.609375 0
L 56 0
L 46.6875 18.703125
Q 43.0625 26.03125 39.671875 28.421875
Q 36.28125 30.8125 30.421875 30.8125
L 19.671875 30.8125
L 19.671875 0
L 9.8125 0
L 9.8125 72.90625
L 32.078125 72.90625
Q 44.578125 72.90625 50.734375 67.671875
Q 56.890625 62.453125 56.890625 51.90625
Q 56.890625 45.015625 53.6875 40.46875
Q 50.484375 35.9375 44.390625 34.1875
z
M 19.671875 64.796875
L 19.671875 38.921875
L 32.078125 38.921875
Q 39.203125 38.921875 42.84375 42.21875
Q 46.484375 45.515625 46.484375 51.90625
Q 46.484375 58.296875 42.84375 61.546875
Q 39.203125 64.796875 32.078125 64.796875
z
" id="DejaVuSans-52"/>
      </defs>
      <g transform="translate(192.900403 230.038437)scale(0.1 -0.1)">
       <use xlink:href="#DejaVuSans-52"/>
      </g>
     </g>
    </g>
    <g id="text_5">
     <!-- lrn2 -->
     <defs>
      <path d="M 9.421875 75.984375
L 18.40625 75.984375
L 18.40625 0
L 9.421875 0
z
" id="DejaVuSans-6c"/>
      <path d="M 41.109375 46.296875
Q 39.59375 47.171875 37.8125 47.578125
Q 36.03125 48 33.890625 48
Q 26.265625 48 22.1875 43.046875
Q 18.109375 38.09375 18.109375 28.8125
L 18.109375 0
L 9.078125 0
L 9.078125 54.6875
L 18.109375 54.6875
L 18.109375 46.1875
Q 20.953125 51.171875 25.484375 53.578125
Q 30.03125 56 36.53125 56
Q 37.453125 56 38.578125 55.875
Q 39.703125 55.765625 41.0625 55.515625
z
" id="DejaVuSans-72"/>
      <path d="M 54.890625 33.015625
L 54.890625 0
L 45.90625 0
L 45.90625 32.71875
Q 45.90625 40.484375 42.875 44.328125
Q 39.84375 48.1875 33.796875 48.1875
Q 26.515625 48.1875 22.3125 43.546875
Q 18.109375 38.921875 18.109375 30.90625
L 18.109375 0
L 9.078125 0
L 9.078125 54.6875
L 18.109375 54.6875
L 18.109375 46.1875
Q 21.34375 51.125 25.703125 53.5625
Q 30.078125 56 35.796875 56
Q 45.21875 56 50.046875 50.171875
Q 54.890625 44.34375 54.890625 33.015625
z
" id="DejaVuSans-6e"/>
     </defs>
     <g transform="translate(127.928523 243.716562)scale(0.1 -0.1)">
      <use xlink:href="#DejaVuSans-6c"/>
      <use x="27.783203" xlink:href="#DejaVuSans-72"/>
      <use x="68.880859" xlink:href="#DejaVuSans-6e"/>
      <use x="132.259766" xlink:href="#DejaVuSans-32"/>
     </g>
    </g>
   </g>
   <g id="matplotlib.axis_2">
    <g id="ytick_1">
     <g id="line2d_5">
      <path clip-path="url(#pb06468ef74)" d="M 56 196.584
L 219.444545 196.584
" style="fill:none;opacity:0.5;stroke:#b0b0b0;stroke-linecap:square;stroke-width:0.8;"/>
     </g>
     <g id="line2d_6">
      <defs>
       <path d="M 0 0
L -3.5 0
" id="m031fbc444d" style="stroke:#000000;stroke-width:0.8;"/>
      </defs>
      <g>
       <use style="stroke:#000000;stroke-width:0.8;" x="56" xlink:href="#m031fbc444d" y="196.584"/>
      </g>
     </g>
     <g id="text_6">
      <!-- −0.4 -->
      <defs>
       <path d="M 10.59375 35.5
L 73.1875 35.5
L 73.1875 27.203125
L 10.59375 27.203125
z
" id="DejaVuSans-2212"/>
       <path d="M 31.78125 66.40625
Q 24.171875 66.40625 20.328125 58.90625
Q 16.5 51.421875 16.5 36.375
Q 16.5 21.390625 20.328125 13.890625
Q 24.171875 6.390625 31.78125 6.390625
Q 39.453125 6.390625 43.28125 13.890625
Q 47.125 21.390625 47.125 36.375
Q 47.125 51.421875 43.28125 58.90625
Q 39.453125 66.40625 31.78125 66.40625
z
M 31.78125 74.21875
Q 44.046875 74.21875 50.515625 64.515625
Q 56.984375 54.828125 56.984375 36.375
Q 56.984375 17.96875 50.515625 8.265625
Q 44.046875 -1.421875 31.78125 -1.421875
Q 19.53125 -1.421875 13.0625 8.265625
Q 6.59375 17.96875 6.59375 36.375
Q 6.59375 54.828125 13.0625 64.515625
Q 19.53125 74.21875 31.78125 74.21875
z
" id="DejaVuSans-30"/>
       <path d="M 10.6875 12.40625
L 21 12.40625
L 21 0
L 10.6875 0
z
" id="DejaVuSans-2e"/>
       <path d="M 37.796875 64.3125
L 12.890625 25.390625
L 37.796875 25.390625
z
M 35.203125 72.90625
L 47.609375 72.90625
L 47.609375 25.390625
L 58.015625 25.390625
L 58.015625 17.1875
L 47.609375 17.1875
L 47.609375 0
L 37.796875 0
L 37.796875 17.1875
L 4.890625 17.1875
L 4.890625 26.703125
z
" id="DejaVuSans-34"/>
      </defs>
      <g transform="translate(24.717187 200.383219)scale(0.1 -0.1)">
       <use xlink:href="#DejaVuSans-2212"/>
       <use x="83.789062" xlink:href="#DejaVuSans-30"/>
       <use x="147.412109" xlink:href="#DejaVuSans-2e"/>
       <use x="179.199219" xlink:href="#DejaVuSans-34"/>
      </g>
     </g>
    </g>
    <g id="ytick_2">
     <g id="line2d_7">
      <path clip-path="url(#pb06468ef74)" d="M 56 158.872
L 219.444545 158.872
" style="fill:none;opacity:0.5;stroke:#b0b0b0;stroke-linecap:square;stroke-width:0.8;"/>
     </g>
     <g id="line2d_8">
      <g>
       <use style="stroke:#000000;stroke-width:0.8;" x="56" xlink:href="#m031fbc444d" y="158.872"/>
      </g>
     </g>
     <g id="text_7">
      <!-- −0.2 -->
      <g transform="translate(24.717187 162.671219)scale(0.1 -0.1)">
       <use xlink:href="#DejaVuSans-2212"/>
       <use x="83.789062" xlink:href="#DejaVuSans-30"/>
       <use x="147.412109" xlink:href="#DejaVuSans-2e"/>
       <use x="179.199219" xlink:href="#DejaVuSans-32"/>
      </g>
     </g>
    </g>
    <g id="ytick_3">
     <g id="line2d_9">
      <path clip-path="url(#pb06468ef74)" d="M 56 121.16
L 219.444545 121.16
" style="fill:none;opacity:0.5;stroke:#b0b0b0;stroke-linecap:square;stroke-width:0.8;"/>
     </g>
     <g id="line2d_10">
      <g>
       <use style="stroke:#000000;stroke-width:0.8;" x="56" xlink:href="#m031fbc444d" y="121.16"/>
      </g>
     </g>
     <g id="text_8">
      <!-- 0.0 -->
      <g transform="translate(33.096875 124.959219)scale(0.1 -0.1)">
       <use xlink:href="#DejaVuSans-30"/>
       <use x="63.623047" xlink:href="#DejaVuSans-2e"/>
       <use x="95.410156" xlink:href="#DejaVuSans-30"/>
      </g>
     </g>
    </g>
    <g id="ytick_4">
     <g id="line2d_11">
      <path clip-path="url(#pb06468ef74)" d="M 56 83.448
L 219.444545 83.448
" style="fill:none;opacity:0.5;stroke:#b0b0b0;stroke-linecap:square;stroke-width:0.8;"/>
     </g>
     <g id="line2d_12">
      <g>
       <use style="stroke:#000000;stroke-width:0.8;" x="56" xlink:href="#m031fbc444d" y="83.448"/>
      </g>
     </g>
     <g id="text_9">
      <!-- 0.2 -->
      <g transform="translate(33.096875 87.247219)scale(0.1 -0.1)">
       <use xlink:href="#DejaVuSans-30"/>
       <use x="63.623047" xlink:href="#DejaVuSans-2e"/>
       <use x="95.410156" xlink:href="#DejaVuSans-32"/>
      </g>
     </g>
    </g>
    <g id="ytick_5">
     <g id="line2d_13">
      <path clip-path="url(#pb06468ef74)" d="M 56 45.736
L 219.444545 45.736
" style="fill:none;opacity:0.5;stroke:#b0b0b0;stroke-linecap:square;stroke-width:0.8;"/>
     </g>
     <g id="line2d_14">
      <g>
       <use style="stroke:#000000;stroke-width:0.8;" x="56" xlink:href="#m031fbc444d" y="45.736"/>
      </g>
     </g>
     <g id="text_10">
      <!-- 0.4 -->
      <g transform="translate(33.096875 49.535219)scale(0.1 -0.1)">
       <use xlink:href="#DejaVuSans-30"/>
       <use x="63.623047" xlink:href="#DejaVuSans-2e"/>
       <use x="95.410156" xlink:href="#DejaVuSans-34"/>
      </g>
     </g>
    </g>
    <g id="text_11">
     <!-- Correlation coefficient -->
     <defs>
      <path d="M 64.40625 67.28125
L 64.40625 56.890625
Q 59.421875 61.53125 53.78125 63.8125
Q 48.140625 66.109375 41.796875 66.109375
Q 29.296875 66.109375 22.65625 58.46875
Q 16.015625 50.828125 16.015625 36.375
Q 16.015625 21.96875 22.65625 14.328125
Q 29.296875 6.6875 41.796875 6.6875
Q 48.140625 6.6875 53.78125 8.984375
Q 59.421875 11.28125 64.40625 15.921875
L 64.40625 5.609375
Q 59.234375 2.09375 53.4375 0.328125
Q 47.65625 -1.421875 41.21875 -1.421875
Q 24.65625 -1.421875 15.125 8.703125
Q 5.609375 18.84375 5.609375 36.375
Q 5.609375 53.953125 15.125 64.078125
Q 24.65625 74.21875 41.21875 74.21875
Q 47.75 74.21875 53.53125 72.484375
Q 59.328125 70.75 64.40625 67.28125
z
" id="DejaVuSans-43"/>
      <path d="M 30.609375 48.390625
Q 23.390625 48.390625 19.1875 42.75
Q 14.984375 37.109375 14.984375 27.296875
Q 14.984375 17.484375 19.15625 11.84375
Q 23.34375 6.203125 30.609375 6.203125
Q 37.796875 6.203125 41.984375 11.859375
Q 46.1875 17.53125 46.1875 27.296875
Q 46.1875 37.015625 41.984375 42.703125
Q 37.796875 48.390625 30.609375 48.390625
z
M 30.609375 56
Q 42.328125 56 49.015625 48.375
Q 55.71875 40.765625 55.71875 27.296875
Q 55.71875 13.875 49.015625 6.21875
Q 42.328125 -1.421875 30.609375 -1.421875
Q 18.84375 -1.421875 12.171875 6.21875
Q 5.515625 13.875 5.515625 27.296875
Q 5.515625 40.765625 12.171875 48.375
Q 18.84375 56 30.609375 56
z
" id="DejaVuSans-6f"/>
      <path d="M 56.203125 29.59375
L 56.203125 25.203125
L 14.890625 25.203125
Q 15.484375 15.921875 20.484375 11.0625
Q 25.484375 6.203125 34.421875 6.203125
Q 39.59375 6.203125 44.453125 7.46875
Q 49.3125 8.734375 54.109375 11.28125
L 54.109375 2.78125
Q 49.265625 0.734375 44.1875 -0.34375
Q 39.109375 -1.421875 33.890625 -1.421875
Q 20.796875 -1.421875 13.15625 6.1875
Q 5.515625 13.8125 5.515625 26.8125
Q 5.515625 40.234375 12.765625 48.109375
Q 20.015625 56 32.328125 56
Q 43.359375 56 49.78125 48.890625
Q 56.203125 41.796875 56.203125 29.59375
z
M 47.21875 32.234375
Q 47.125 39.59375 43.09375 43.984375
Q 39.0625 48.390625 32.421875 48.390625
Q 24.90625 48.390625 20.390625 44.140625
Q 15.875 39.890625 15.1875 32.171875
z
" id="DejaVuSans-65"/>
      <path d="M 34.28125 27.484375
Q 23.390625 27.484375 19.1875 25
Q 14.984375 22.515625 14.984375 16.5
Q 14.984375 11.71875 18.140625 8.90625
Q 21.296875 6.109375 26.703125 6.109375
Q 34.1875 6.109375 38.703125 11.40625
Q 43.21875 16.703125 43.21875 25.484375
L 43.21875 27.484375
z
M 52.203125 31.203125
L 52.203125 0
L 43.21875 0
L 43.21875 8.296875
Q 40.140625 3.328125 35.546875 0.953125
Q 30.953125 -1.421875 24.3125 -1.421875
Q 15.921875 -1.421875 10.953125 3.296875
Q 6 8.015625 6 15.921875
Q 6 25.140625 12.171875 29.828125
Q 18.359375 34.515625 30.609375 34.515625
L 43.21875 34.515625
L 43.21875 35.40625
Q 43.21875 41.609375 39.140625 45
Q 35.0625 48.390625 27.6875 48.390625
Q 23 48.390625 18.546875 47.265625
Q 14.109375 46.140625 10.015625 43.890625
L 10.015625 52.203125
Q 14.9375 54.109375 19.578125 55.046875
Q 24.21875 56 28.609375 56
Q 40.484375 56 46.34375 49.84375
Q 52.203125 43.703125 52.203125 31.203125
z
" id="DejaVuSans-61"/>
      <path d="M 18.3125 70.21875
L 18.3125 54.6875
L 36.8125 54.6875
L 36.8125 47.703125
L 18.3125 47.703125
L 18.3125 18.015625
Q 18.3125 11.328125 20.140625 9.421875
Q 21.96875 7.515625 27.59375 7.515625
L 36.8125 7.515625
L 36.8125 0
L 27.59375 0
Q 17.1875 0 13.234375 3.875
Q 9.28125 7.765625 9.28125 18.015625
L 9.28125 47.703125
L 2.6875 47.703125
L 2.6875 54.6875
L 9.28125 54.6875
L 9.28125 70.21875
z
" id="DejaVuSans-74"/>
      <path d="M 9.421875 54.6875
L 18.40625 54.6875
L 18.40625 0
L 9.421875 0
z
M 9.421875 75.984375
L 18.40625 75.984375
L 18.40625 64.59375
L 9.421875 64.59375
z
" id="DejaVuSans-69"/>
      <path id="DejaVuSans-20"/>
      <path d="M 48.78125 52.59375
L 48.78125 44.1875
Q 44.96875 46.296875 41.140625 47.34375
Q 37.3125 48.390625 33.40625 48.390625
Q 24.65625 48.390625 19.8125 42.84375
Q 14.984375 37.3125 14.984375 27.296875
Q 14.984375 17.28125 19.8125 11.734375
Q 24.65625 6.203125 33.40625 6.203125
Q 37.3125 6.203125 41.140625 7.25
Q 44.96875 8.296875 48.78125 10.40625
L 48.78125 2.09375
Q 45.015625 0.34375 40.984375 -0.53125
Q 36.96875 -1.421875 32.421875 -1.421875
Q 20.0625 -1.421875 12.78125 6.34375
Q 5.515625 14.109375 5.515625 27.296875
Q 5.515625 40.671875 12.859375 48.328125
Q 20.21875 56 33.015625 56
Q 37.15625 56 41.109375 55.140625
Q 45.0625 54.296875 48.78125 52.59375
z
" id="DejaVuSans-63"/>
      <path d="M 37.109375 75.984375
L 37.109375 68.5
L 28.515625 68.5
Q 23.6875 68.5 21.796875 66.546875
Q 19.921875 64.59375 19.921875 59.515625
L 19.921875 54.6875
L 34.71875 54.6875
L 34.71875 47.703125
L 19.921875 47.703125
L 19.921875 0
L 10.890625 0
L 10.890625 47.703125
L 2.296875 47.703125
L 2.296875 54.6875
L 10.890625 54.6875
L 10.890625 58.5
Q 10.890625 67.625 15.140625 71.796875
Q 19.390625 75.984375 28.609375 75.984375
z
" id="DejaVuSans-66"/>
     </defs>
     <g transform="translate(18.6375 176.65375)rotate(-90)scale(0.1 -0.1)">
      <use xlink:href="#DejaVuSans-43"/>
      <use x="69.824219" xlink:href="#DejaVuSans-6f"/>
      <use x="131.005859" xlink:href="#DejaVuSans-72"/>
      <use x="172.103516" xlink:href="#DejaVuSans-72"/>
      <use x="213.185547" xlink:href="#DejaVuSans-65"/>
      <use x="274.708984" xlink:href="#DejaVuSans-6c"/>
      <use x="302.492188" xlink:href="#DejaVuSans-61"/>
      <use x="363.771484" xlink:href="#DejaVuSans-74"/>
      <use x="402.980469" xlink:href="#DejaVuSans-69"/>
      <use x="430.763672" xlink:href="#DejaVuSans-6f"/>
      <use x="491.945312" xlink:href="#DejaVuSans-6e"/>
      <use x="555.324219" xlink:href="#DejaVuSans-20"/>
      <use x="587.111328" xlink:href="#DejaVuSans-63"/>
      <use x="642.091797" xlink:href="#DejaVuSans-6f"/>
      <use x="703.273438" xlink:href="#DejaVuSans-65"/>
      <use x="764.796875" xlink:href="#DejaVuSans-66"/>
      <use x="800.001953" xlink:href="#DejaVuSans-66"/>
      <use x="835.207031" xlink:href="#DejaVuSans-69"/>
      <use x="862.990234" xlink:href="#DejaVuSans-63"/>
      <use x="917.970703" xlink:href="#DejaVuSans-69"/>
      <use x="945.753906" xlink:href="#DejaVuSans-65"/>
      <use x="1007.277344" xlink:href="#DejaVuSans-6e"/>
      <use x="1070.65625" xlink:href="#DejaVuSans-74"/>
     </g>
    </g>
   </g>
   <g id="patch_3">
    <path clip-path="url(#pb06468ef74)" d="M 63.429298 121.16
L 71.249611 121.16
L 71.249611 137.177973
L 63.429298 137.177973
z
" style="fill:#375e97;"/>
   </g>
   <g id="patch_4">
    <path clip-path="url(#pb06468ef74)" d="M 102.530863 121.16
L 110.351177 121.16
L 110.351177 112.618185
L 102.530863 112.618185
z
" style="fill:#375e97;"/>
   </g>
   <g id="patch_5">
    <path clip-path="url(#pb06468ef74)" d="M 141.632429 121.16
L 149.452742 121.16
L 149.452742 95.983503
L 141.632429 95.983503
z
" style="fill:#375e97;"/>
   </g>
   <g id="patch_6">
    <path clip-path="url(#pb06468ef74)" d="M 180.733995 121.16
L 188.554308 121.16
L 188.554308 126.106303
L 180.733995 126.106303
z
" style="fill:#375e97;"/>
   </g>
   <g id="patch_7">
    <path clip-path="url(#pb06468ef74)" d="M 71.249611 121.16
L 79.069924 121.16
L 79.069924 122.096472
L 71.249611 122.096472
z
" style="fill:#f18d9e;"/>
   </g>
   <g id="patch_8">
    <path clip-path="url(#pb06468ef74)" d="M 110.351177 121.16
L 118.17149 121.16
L 118.17149 187.478724
L 110.351177 187.478724
z
" style="fill:#f18d9e;"/>
   </g>
   <g id="patch_9">
    <path clip-path="url(#pb06468ef74)" d="M 149.452742 121.16
L 157.273056 121.16
L 157.273056 119.894073
L 149.452742 119.894073
z
" style="fill:#f18d9e;"/>
   </g>
   <g id="patch_10">
    <path clip-path="url(#pb06468ef74)" d="M 188.554308 121.16
L 196.374622 121.16
L 196.374622 128.583087
L 188.554308 128.583087
z
" style="fill:#f18d9e;"/>
   </g>
   <g id="patch_11">
    <path clip-path="url(#pb06468ef74)" d="M 79.069924 121.16
L 86.890237 121.16
L 86.890237 120.229822
L 79.069924 120.229822
z
" style="fill:#ffbb00;"/>
   </g>
   <g id="patch_12">
    <path clip-path="url(#pb06468ef74)" d="M 118.17149 121.16
L 125.991803 121.16
L 125.991803 124.040588
L 118.17149 124.040588
z
" style="fill:#ffbb00;"/>
   </g>
   <g id="patch_13">
    <path clip-path="url(#pb06468ef74)" d="M 157.273056 121.16
L 165.093369 121.16
L 165.093369 162.72421
L 157.273056 162.72421
z
" style="fill:#ffbb00;"/>
   </g>
   <g id="patch_14">
    <path clip-path="url(#pb06468ef74)" d="M 196.374622 121.16
L 204.194935 121.16
L 204.194935 114.583469
L 196.374622 114.583469
z
" style="fill:#ffbb00;"/>
   </g>
   <g id="patch_15">
    <path clip-path="url(#pb06468ef74)" d="M 86.890237 121.16
L 94.71055 121.16
L 94.71055 102.510971
L 86.890237 102.510971
z
" style="fill:#3f681c;"/>
   </g>
   <g id="patch_16">
    <path clip-path="url(#pb06468ef74)" d="M 125.991803 121.16
L 133.812116 121.16
L 133.812116 108.480254
L 125.991803 108.480254
z
" style="fill:#3f681c;"/>
   </g>
   <g id="patch_17">
    <path clip-path="url(#pb06468ef74)" d="M 165.093369 121.16
L 172.913682 121.16
L 172.913682 112.997508
L 165.093369 112.997508
z
" style="fill:#3f681c;"/>
   </g>
   <g id="patch_18">
    <path clip-path="url(#pb06468ef74)" d="M 204.194935 121.16
L 212.015248 121.16
L 212.015248 81.484718
L 204.194935 81.484718
z
" style="fill:#3f681c;"/>
   </g>
   <g id="line2d_15">
    <path clip-path="url(#pb06468ef74)" d="M 56 121.16
L 219.444545 121.16
" style="fill:none;stroke:#000000;stroke-linecap:square;stroke-width:0.5;"/>
   </g>
   <g id="patch_19">
    <path d="M 56 215.44
L 56 26.88
" style="fill:none;stroke:#000000;stroke-linecap:square;stroke-linejoin:miter;stroke-width:0.8;"/>
   </g>
   <g id="text_12">
    <!-- ** -->
    <defs>
     <path d="M 47.015625 60.890625
L 29.5 51.421875
L 47.015625 41.890625
L 44.1875 37.109375
L 27.78125 47.015625
L 27.78125 28.609375
L 22.21875 28.609375
L 22.21875 47.015625
L 5.8125 37.109375
L 2.984375 41.890625
L 20.515625 51.421875
L 2.984375 60.890625
L 5.8125 65.71875
L 22.21875 55.8125
L 22.21875 74.21875
L 27.78125 74.21875
L 27.78125 55.8125
L 44.1875 65.71875
z
" id="DejaVuSans-2a"/>
    </defs>
    <g transform="translate(109.261333 199.666099)scale(0.1 -0.1)">
     <use xlink:href="#DejaVuSans-2a"/>
     <use x="50" xlink:href="#DejaVuSans-2a"/>
    </g>
   </g>
   <g id="text_13">
    <!-- ** -->
    <g transform="translate(156.183212 174.911585)scale(0.1 -0.1)">
     <use xlink:href="#DejaVuSans-2a"/>
     <use x="50" xlink:href="#DejaVuSans-2a"/>
    </g>
   </g>
   <g id="text_14">
    <!-- ** -->
    <g transform="translate(203.105091 74.816093)scale(0.1 -0.1)">
     <use xlink:href="#DejaVuSans-2a"/>
     <use x="50" xlink:href="#DejaVuSans-2a"/>
    </g>
   </g>
   <g id="text_15">
    <!-- Group F -->
    <defs>
     <path d="M 59.515625 10.40625
L 59.515625 29.984375
L 43.40625 29.984375
L 43.40625 38.09375
L 69.28125 38.09375
L 69.28125 6.78125
Q 63.578125 2.734375 56.6875 0.65625
Q 49.8125 -1.421875 42 -1.421875
Q 24.90625 -1.421875 15.25 8.5625
Q 5.609375 18.5625 5.609375 36.375
Q 5.609375 54.25 15.25 64.234375
Q 24.90625 74.21875 42 74.21875
Q 49.125 74.21875 55.546875 72.453125
Q 61.96875 70.703125 67.390625 67.28125
L 67.390625 56.78125
Q 61.921875 61.421875 55.765625 63.765625
Q 49.609375 66.109375 42.828125 66.109375
Q 29.4375 66.109375 22.71875 58.640625
Q 16.015625 51.171875 16.015625 36.375
Q 16.015625 21.625 22.71875 14.15625
Q 29.4375 6.6875 42.828125 6.6875
Q 48.046875 6.6875 52.140625 7.59375
Q 56.25 8.5 59.515625 10.40625
z
" id="DejaVuSans-47"/>
     <path d="M 8.5 21.578125
L 8.5 54.6875
L 17.484375 54.6875
L 17.484375 21.921875
Q 17.484375 14.15625 20.5 10.265625
Q 23.53125 6.390625 29.59375 6.390625
Q 36.859375 6.390625 41.078125 11.03125
Q 45.3125 15.671875 45.3125 23.6875
L 45.3125 54.6875
L 54.296875 54.6875
L 54.296875 0
L 45.3125 0
L 45.3125 8.40625
Q 42.046875 3.421875 37.71875 1
Q 33.40625 -1.421875 27.6875 -1.421875
Q 18.265625 -1.421875 13.375 4.4375
Q 8.5 10.296875 8.5 21.578125
z
M 31.109375 56
z
" id="DejaVuSans-75"/>
     <path d="M 18.109375 8.203125
L 18.109375 -20.796875
L 9.078125 -20.796875
L 9.078125 54.6875
L 18.109375 54.6875
L 18.109375 46.390625
Q 20.953125 51.265625 25.265625 53.625
Q 29.59375 56 35.59375 56
Q 45.5625 56 51.78125 48.09375
Q 58.015625 40.1875 58.015625 27.296875
Q 58.015625 14.40625 51.78125 6.484375
Q 45.5625 -1.421875 35.59375 -1.421875
Q 29.59375 -1.421875 25.265625 0.953125
Q 20.953125 3.328125 18.109375 8.203125
z
M 48.6875 27.296875
Q 48.6875 37.203125 44.609375 42.84375
Q 40.53125 48.484375 33.40625 48.484375
Q 26.265625 48.484375 22.1875 42.84375
Q 18.109375 37.203125 18.109375 27.296875
Q 18.109375 17.390625 22.1875 11.75
Q 26.265625 6.109375 33.40625 6.109375
Q 40.53125 6.109375 44.609375 11.75
Q 48.6875 17.390625 48.6875 27.296875
z
" id="DejaVuSans-70"/>
     <path d="M 9.8125 72.90625
L 51.703125 72.90625
L 51.703125 64.59375
L 19.671875 64.59375
L 19.671875 43.109375
L 48.578125 43.109375
L 48.578125 34.8125
L 19.671875 34.8125
L 19.671875 0
L 9.8125 0
z
" id="DejaVuSans-46"/>
    </defs>
    <g transform="translate(113.967898 20.88)scale(0.12 -0.12)">
     <use xlink:href="#DejaVuSans-47"/>
     <use x="77.490234" xlink:href="#DejaVuSans-72"/>
     <use x="118.572266" xlink:href="#DejaVuSans-6f"/>
     <use x="179.753906" xlink:href="#DejaVuSans-75"/>
     <use x="243.132812" xlink:href="#DejaVuSans-70"/>
     <use x="306.609375" xlink:href="#DejaVuSans-20"/>
     <use x="338.396484" xlink:href="#DejaVuSans-46"/>
    </g>
   </g>
   <g id="legend_1">
    <g id="patch_20">
     <path d="M 229.616773 103.270625
L 278.629273 103.270625
Q 280.629273 103.270625 280.629273 101.270625
L 280.629273 28.88
Q 280.629273 26.88 278.629273 26.88
L 229.616773 26.88
Q 227.616773 26.88 227.616773 28.88
L 227.616773 101.270625
Q 227.616773 103.270625 229.616773 103.270625
z
" style="fill:#ffffff;opacity:0.8;stroke:#cccccc;stroke-linejoin:miter;"/>
    </g>
    <g id="text_16">
     <!-- prog -->
     <defs>
      <path d="M 45.40625 27.984375
Q 45.40625 37.75 41.375 43.109375
Q 37.359375 48.484375 30.078125 48.484375
Q 22.859375 48.484375 18.828125 43.109375
Q 14.796875 37.75 14.796875 27.984375
Q 14.796875 18.265625 18.828125 12.890625
Q 22.859375 7.515625 30.078125 7.515625
Q 37.359375 7.515625 41.375 12.890625
Q 45.40625 18.265625 45.40625 27.984375
z
M 54.390625 6.78125
Q 54.390625 -7.171875 48.1875 -13.984375
Q 42 -20.796875 29.203125 -20.796875
Q 24.46875 -20.796875 20.265625 -20.09375
Q 16.0625 -19.390625 12.109375 -17.921875
L 12.109375 -9.1875
Q 16.0625 -11.328125 19.921875 -12.34375
Q 23.78125 -13.375 27.78125 -13.375
Q 36.625 -13.375 41.015625 -8.765625
Q 45.40625 -4.15625 45.40625 5.171875
L 45.40625 9.625
Q 42.625 4.78125 38.28125 2.390625
Q 33.9375 0 27.875 0
Q 17.828125 0 11.671875 7.65625
Q 5.515625 15.328125 5.515625 27.984375
Q 5.515625 40.671875 11.671875 48.328125
Q 17.828125 56 27.875 56
Q 33.9375 56 38.28125 53.609375
Q 42.625 51.21875 45.40625 46.390625
L 45.40625 54.6875
L 54.390625 54.6875
z
" id="DejaVuSans-67"/>
     </defs>
     <g transform="translate(242.661304 38.478437)scale(0.1 -0.1)">
      <use xlink:href="#DejaVuSans-70"/>
      <use x="63.476562" xlink:href="#DejaVuSans-72"/>
      <use x="104.558594" xlink:href="#DejaVuSans-6f"/>
      <use x="165.740234" xlink:href="#DejaVuSans-67"/>
     </g>
    </g>
    <g id="patch_21">
     <path d="M 231.616773 53.156562
L 251.616773 53.156562
L 251.616773 46.156562
L 231.616773 46.156562
z
" style="fill:#375e97;"/>
    </g>
    <g id="text_17">
     <!-- 1D -->
     <g transform="translate(259.616773 53.156562)scale(0.1 -0.1)">
      <use xlink:href="#DejaVuSans-31"/>
      <use x="63.623047" xlink:href="#DejaVuSans-44"/>
     </g>
    </g>
    <g id="patch_22">
     <path d="M 231.616773 67.834687
L 251.616773 67.834687
L 251.616773 60.834687
L 231.616773 60.834687
z
" style="fill:#f18d9e;"/>
    </g>
    <g id="text_18">
     <!-- I1D -->
     <g transform="translate(259.616773 67.834687)scale(0.1 -0.1)">
      <use xlink:href="#DejaVuSans-49"/>
      <use x="29.492188" xlink:href="#DejaVuSans-31"/>
      <use x="93.115234" xlink:href="#DejaVuSans-44"/>
     </g>
    </g>
    <g id="patch_23">
     <path d="M 231.616773 82.512812
L 251.616773 82.512812
L 251.616773 75.512812
L 231.616773 75.512812
z
" style="fill:#ffbb00;"/>
    </g>
    <g id="text_19">
     <!-- 2D -->
     <g transform="translate(259.616773 82.512812)scale(0.1 -0.1)">
      <use xlink:href="#DejaVuSans-32"/>
      <use x="63.623047" xlink:href="#DejaVuSans-44"/>
     </g>
    </g>
    <g id="patch_24">
     <path d="M 231.616773 97.190937
L 251.616773 97.190937
L 251.616773 90.190937
L 231.616773 90.190937
z
" style="fill:#3f681c;"/>
    </g>
    <g id="text_20">
     <!-- R -->
     <g transform="translate(259.616773 97.190937)scale(0.1 -0.1)">
      <use xlink:href="#DejaVuSans-52"/>
     </g>
    </g>
   </g>
  </g>
  <g id="axes_2">
   <g id="patch_25">
    <path d="M 338.6 215.44
L 502.044545 215.44
L 502.044545 26.88
L 338.6 26.88
z
" style="fill:#ffffff;"/>
   </g>
   <g id="matplotlib.axis_3">
    <g id="xtick_5">
     <g id="line2d_16">
      <g>
       <use style="stroke:#000000;stroke-width:0.8;" x="361.669924" xlink:href="#m4860b6b269" y="215.44"/>
      </g>
     </g>
     <g id="text_21">
      <!-- 1D -->
      <g transform="translate(354.638674 230.038437)scale(0.1 -0.1)">
       <use xlink:href="#DejaVuSans-31"/>
       <use x="63.623047" xlink:href="#DejaVuSans-44"/>
      </g>
     </g>
    </g>
    <g id="xtick_6">
     <g id="line2d_17">
      <g>
       <use style="stroke:#000000;stroke-width:0.8;" x="400.77149" xlink:href="#m4860b6b269" y="215.44"/>
      </g>
     </g>
     <g id="text_22">
      <!-- I1D -->
      <g transform="translate(392.26524 230.038437)scale(0.1 -0.1)">
       <use xlink:href="#DejaVuSans-49"/>
       <use x="29.492188" xlink:href="#DejaVuSans-31"/>
       <use x="93.115234" xlink:href="#DejaVuSans-44"/>
      </g>
     </g>
    </g>
    <g id="xtick_7">
     <g id="line2d_18">
      <g>
       <use style="stroke:#000000;stroke-width:0.8;" x="439.873056" xlink:href="#m4860b6b269" y="215.44"/>
      </g>
     </g>
     <g id="text_23">
      <!-- 2D -->
      <g transform="translate(432.841806 230.038437)scale(0.1 -0.1)">
       <use xlink:href="#DejaVuSans-32"/>
       <use x="63.623047" xlink:href="#DejaVuSans-44"/>
      </g>
     </g>
    </g>
    <g id="xtick_8">
     <g id="line2d_19">
      <g>
       <use style="stroke:#000000;stroke-width:0.8;" x="478.974622" xlink:href="#m4860b6b269" y="215.44"/>
      </g>
     </g>
     <g id="text_24">
      <!-- R -->
      <g transform="translate(475.500403 230.038437)scale(0.1 -0.1)">
       <use xlink:href="#DejaVuSans-52"/>
      </g>
     </g>
    </g>
    <g id="text_25">
     <!-- lrn2 -->
     <g transform="translate(410.528523 243.716562)scale(0.1 -0.1)">
      <use xlink:href="#DejaVuSans-6c"/>
      <use x="27.783203" xlink:href="#DejaVuSans-72"/>
      <use x="68.880859" xlink:href="#DejaVuSans-6e"/>
      <use x="132.259766" xlink:href="#DejaVuSans-32"/>
     </g>
    </g>
   </g>
   <g id="matplotlib.axis_4">
    <g id="ytick_6">
     <g id="line2d_20">
      <path clip-path="url(#p0b87409c29)" d="M 338.6 196.584
L 502.044545 196.584
" style="fill:none;opacity:0.5;stroke:#b0b0b0;stroke-linecap:square;stroke-width:0.8;"/>
     </g>
     <g id="line2d_21">
      <g>
       <use style="stroke:#000000;stroke-width:0.8;" x="338.6" xlink:href="#m031fbc444d" y="196.584"/>
      </g>
     </g>
     <g id="text_26">
      <!-- −0.4 -->
      <g transform="translate(307.317187 200.383219)scale(0.1 -0.1)">
       <use xlink:href="#DejaVuSans-2212"/>
       <use x="83.789062" xlink:href="#DejaVuSans-30"/>
       <use x="147.412109" xlink:href="#DejaVuSans-2e"/>
       <use x="179.199219" xlink:href="#DejaVuSans-34"/>
      </g>
     </g>
    </g>
    <g id="ytick_7">
     <g id="line2d_22">
      <path clip-path="url(#p0b87409c29)" d="M 338.6 158.872
L 502.044545 158.872
" style="fill:none;opacity:0.5;stroke:#b0b0b0;stroke-linecap:square;stroke-width:0.8;"/>
     </g>
     <g id="line2d_23">
      <g>
       <use style="stroke:#000000;stroke-width:0.8;" x="338.6" xlink:href="#m031fbc444d" y="158.872"/>
      </g>
     </g>
     <g id="text_27">
      <!-- −0.2 -->
      <g transform="translate(307.317187 162.671219)scale(0.1 -0.1)">
       <use xlink:href="#DejaVuSans-2212"/>
       <use x="83.789062" xlink:href="#DejaVuSans-30"/>
       <use x="147.412109" xlink:href="#DejaVuSans-2e"/>
       <use x="179.199219" xlink:href="#DejaVuSans-32"/>
      </g>
     </g>
    </g>
    <g id="ytick_8">
     <g id="line2d_24">
      <path clip-path="url(#p0b87409c29)" d="M 338.6 121.16
L 502.044545 121.16
" style="fill:none;opacity:0.5;stroke:#b0b0b0;stroke-linecap:square;stroke-width:0.8;"/>
     </g>
     <g id="line2d_25">
      <g>
       <use style="stroke:#000000;stroke-width:0.8;" x="338.6" xlink:href="#m031fbc444d" y="121.16"/>
      </g>
     </g>
     <g id="text_28">
      <!-- 0.0 -->
      <g transform="translate(315.696875 124.959219)scale(0.1 -0.1)">
       <use xlink:href="#DejaVuSans-30"/>
       <use x="63.623047" xlink:href="#DejaVuSans-2e"/>
       <use x="95.410156" xlink:href="#DejaVuSans-30"/>
      </g>
     </g>
    </g>
    <g id="ytick_9">
     <g id="line2d_26">
      <path clip-path="url(#p0b87409c29)" d="M 338.6 83.448
L 502.044545 83.448
" style="fill:none;opacity:0.5;stroke:#b0b0b0;stroke-linecap:square;stroke-width:0.8;"/>
     </g>
     <g id="line2d_27">
      <g>
       <use style="stroke:#000000;stroke-width:0.8;" x="338.6" xlink:href="#m031fbc444d" y="83.448"/>
      </g>
     </g>
     <g id="text_29">
      <!-- 0.2 -->
      <g transform="translate(315.696875 87.247219)scale(0.1 -0.1)">
       <use xlink:href="#DejaVuSans-30"/>
       <use x="63.623047" xlink:href="#DejaVuSans-2e"/>
       <use x="95.410156" xlink:href="#DejaVuSans-32"/>
      </g>
     </g>
    </g>
    <g id="ytick_10">
     <g id="line2d_28">
      <path clip-path="url(#p0b87409c29)" d="M 338.6 45.736
L 502.044545 45.736
" style="fill:none;opacity:0.5;stroke:#b0b0b0;stroke-linecap:square;stroke-width:0.8;"/>
     </g>
     <g id="line2d_29">
      <g>
       <use style="stroke:#000000;stroke-width:0.8;" x="338.6" xlink:href="#m031fbc444d" y="45.736"/>
      </g>
     </g>
     <g id="text_30">
      <!-- 0.4 -->
      <g transform="translate(315.696875 49.535219)scale(0.1 -0.1)">
       <use xlink:href="#DejaVuSans-30"/>
       <use x="63.623047" xlink:href="#DejaVuSans-2e"/>
       <use x="95.410156" xlink:href="#DejaVuSans-34"/>
      </g>
     </g>
    </g>
    <g id="text_31">
     <!-- Correlation coefficient -->
     <g transform="translate(301.2375 176.65375)rotate(-90)scale(0.1 -0.1)">
      <use xlink:href="#DejaVuSans-43"/>
      <use x="69.824219" xlink:href="#DejaVuSans-6f"/>
      <use x="131.005859" xlink:href="#DejaVuSans-72"/>
      <use x="172.103516" xlink:href="#DejaVuSans-72"/>
      <use x="213.185547" xlink:href="#DejaVuSans-65"/>
      <use x="274.708984" xlink:href="#DejaVuSans-6c"/>
      <use x="302.492188" xlink:href="#DejaVuSans-61"/>
      <use x="363.771484" xlink:href="#DejaVuSans-74"/>
      <use x="402.980469" xlink:href="#DejaVuSans-69"/>
      <use x="430.763672" xlink:href="#DejaVuSans-6f"/>
      <use x="491.945312" xlink:href="#DejaVuSans-6e"/>
      <use x="555.324219" xlink:href="#DejaVuSans-20"/>
      <use x="587.111328" xlink:href="#DejaVuSans-63"/>
      <use x="642.091797" xlink:href="#DejaVuSans-6f"/>
      <use x="703.273438" xlink:href="#DejaVuSans-65"/>
      <use x="764.796875" xlink:href="#DejaVuSans-66"/>
      <use x="800.001953" xlink:href="#DejaVuSans-66"/>
      <use x="835.207031" xlink:href="#DejaVuSans-69"/>
      <use x="862.990234" xlink:href="#DejaVuSans-63"/>
      <use x="917.970703" xlink:href="#DejaVuSans-69"/>
      <use x="945.753906" xlink:href="#DejaVuSans-65"/>
      <use x="1007.277344" xlink:href="#DejaVuSans-6e"/>
      <use x="1070.65625" xlink:href="#DejaVuSans-74"/>
     </g>
    </g>
   </g>
   <g id="patch_26">
    <path clip-path="url(#p0b87409c29)" d="M 346.029298 121.16
L 353.849611 121.16
L 353.849611 168.513659
L 346.029298 168.513659
z
" style="fill:#375e97;"/>
   </g>
   <g id="patch_27">
    <path clip-path="url(#p0b87409c29)" d="M 385.130863 121.16
L 392.951177 121.16
L 392.951177 155.143809
L 385.130863 155.143809
z
" style="fill:#375e97;"/>
   </g>
   <g id="patch_28">
    <path clip-path="url(#p0b87409c29)" d="M 424.232429 121.16
L 432.052742 121.16
L 432.052742 144.77202
L 424.232429 144.77202
z
" style="fill:#375e97;"/>
   </g>
   <g id="patch_29">
    <path clip-path="url(#p0b87409c29)" d="M 463.333995 121.16
L 471.154308 121.16
L 471.154308 124.757729
L 463.333995 124.757729
z
" style="fill:#375e97;"/>
   </g>
   <g id="patch_30">
    <path clip-path="url(#p0b87409c29)" d="M 353.849611 121.16
L 361.669924 121.16
L 361.669924 120.992483
L 353.849611 120.992483
z
" style="fill:#f18d9e;"/>
   </g>
   <g id="patch_31">
    <path clip-path="url(#p0b87409c29)" d="M 392.951177 121.16
L 400.77149 121.16
L 400.77149 169.861289
L 392.951177 169.861289
z
" style="fill:#f18d9e;"/>
   </g>
   <g id="patch_32">
    <path clip-path="url(#p0b87409c29)" d="M 432.052742 121.16
L 439.873056 121.16
L 439.873056 103.708526
L 432.052742 103.708526
z
" style="fill:#f18d9e;"/>
   </g>
   <g id="patch_33">
    <path clip-path="url(#p0b87409c29)" d="M 471.154308 121.16
L 478.974622 121.16
L 478.974622 107.79486
L 471.154308 107.79486
z
" style="fill:#f18d9e;"/>
   </g>
   <g id="patch_34">
    <path clip-path="url(#p0b87409c29)" d="M 361.669924 121.16
L 369.490237 121.16
L 369.490237 112.29904
L 361.669924 112.29904
z
" style="fill:#ffbb00;"/>
   </g>
   <g id="patch_35">
    <path clip-path="url(#p0b87409c29)" d="M 400.77149 121.16
L 408.591803 121.16
L 408.591803 101.788935
L 400.77149 101.788935
z
" style="fill:#ffbb00;"/>
   </g>
   <g id="patch_36">
    <path clip-path="url(#p0b87409c29)" d="M 439.873056 121.16
L 447.693369 121.16
L 447.693369 155.994761
L 439.873056 155.994761
z
" style="fill:#ffbb00;"/>
   </g>
   <g id="patch_37">
    <path clip-path="url(#p0b87409c29)" d="M 478.974622 121.16
L 486.794935 121.16
L 486.794935 109.667738
L 478.974622 109.667738
z
" style="fill:#ffbb00;"/>
   </g>
   <g id="patch_38">
    <path clip-path="url(#p0b87409c29)" d="M 369.490237 121.16
L 377.31055 121.16
L 377.31055 65.858976
L 369.490237 65.858976
z
" style="fill:#3f681c;"/>
   </g>
   <g id="patch_39">
    <path clip-path="url(#p0b87409c29)" d="M 408.591803 121.16
L 416.412116 121.16
L 416.412116 73.072483
L 408.591803 73.072483
z
" style="fill:#3f681c;"/>
   </g>
   <g id="patch_40">
    <path clip-path="url(#p0b87409c29)" d="M 447.693369 121.16
L 455.513682 121.16
L 455.513682 79.168738
L 447.693369 79.168738
z
" style="fill:#3f681c;"/>
   </g>
   <g id="patch_41">
    <path clip-path="url(#p0b87409c29)" d="M 486.794935 121.16
L 494.615248 121.16
L 494.615248 90.532965
L 486.794935 90.532965
z
" style="fill:#3f681c;"/>
   </g>
   <g id="line2d_30">
    <path clip-path="url(#p0b87409c29)" d="M 338.6 121.16
L 502.044545 121.16
" style="fill:none;stroke:#000000;stroke-linecap:square;stroke-width:0.5;"/>
   </g>
   <g id="patch_42">
    <path d="M 338.6 215.44
L 338.6 26.88
" style="fill:none;stroke:#000000;stroke-linecap:square;stroke-linejoin:miter;stroke-width:0.8;"/>
   </g>
   <g id="text_32">
    <!-- ** -->
    <g transform="translate(344.939454 180.701034)scale(0.1 -0.1)">
     <use xlink:href="#DejaVuSans-2a"/>
     <use x="50" xlink:href="#DejaVuSans-2a"/>
    </g>
   </g>
   <g id="text_33">
    <!-- * -->
    <g transform="translate(386.54102 167.331184)scale(0.1 -0.1)">
     <use xlink:href="#DejaVuSans-2a"/>
    </g>
   </g>
   <g id="text_34">
    <!-- ** -->
    <g transform="translate(391.861333 182.048664)scale(0.1 -0.1)">
     <use xlink:href="#DejaVuSans-2a"/>
     <use x="50" xlink:href="#DejaVuSans-2a"/>
    </g>
   </g>
   <g id="text_35">
    <!-- * -->
    <g transform="translate(441.283212 168.182136)scale(0.1 -0.1)">
     <use xlink:href="#DejaVuSans-2a"/>
    </g>
   </g>
   <g id="text_36">
    <!-- ** -->
    <g transform="translate(368.400394 59.190351)scale(0.1 -0.1)">
     <use xlink:href="#DejaVuSans-2a"/>
     <use x="50" xlink:href="#DejaVuSans-2a"/>
    </g>
   </g>
   <g id="text_37">
    <!-- ** -->
    <g transform="translate(407.50196 66.403858)scale(0.1 -0.1)">
     <use xlink:href="#DejaVuSans-2a"/>
     <use x="50" xlink:href="#DejaVuSans-2a"/>
    </g>
   </g>
   <g id="text_38">
    <!-- ** -->
    <g transform="translate(446.603525 72.500113)scale(0.1 -0.1)">
     <use xlink:href="#DejaVuSans-2a"/>
     <use x="50" xlink:href="#DejaVuSans-2a"/>
    </g>
   </g>
   <g id="text_39">
    <!-- * -->
    <g transform="translate(488.205091 83.86434)scale(0.1 -0.1)">
     <use xlink:href="#DejaVuSans-2a"/>
    </g>
   </g>
   <g id="text_40">
    <!-- Group S -->
    <defs>
     <path d="M 53.515625 70.515625
L 53.515625 60.890625
Q 47.90625 63.578125 42.921875 64.890625
Q 37.9375 66.21875 33.296875 66.21875
Q 25.25 66.21875 20.875 63.09375
Q 16.5 59.96875 16.5 54.203125
Q 16.5 49.359375 19.40625 46.890625
Q 22.3125 44.4375 30.421875 42.921875
L 36.375 41.703125
Q 47.40625 39.59375 52.65625 34.296875
Q 57.90625 29 57.90625 20.125
Q 57.90625 9.515625 50.796875 4.046875
Q 43.703125 -1.421875 29.984375 -1.421875
Q 24.8125 -1.421875 18.96875 -0.25
Q 13.140625 0.921875 6.890625 3.21875
L 6.890625 13.375
Q 12.890625 10.015625 18.65625 8.296875
Q 24.421875 6.59375 29.984375 6.59375
Q 38.421875 6.59375 43.015625 9.90625
Q 47.609375 13.234375 47.609375 19.390625
Q 47.609375 24.75 44.3125 27.78125
Q 41.015625 30.8125 33.5 32.328125
L 27.484375 33.5
Q 16.453125 35.6875 11.515625 40.375
Q 6.59375 45.0625 6.59375 53.421875
Q 6.59375 63.09375 13.40625 68.65625
Q 20.21875 74.21875 32.171875 74.21875
Q 37.3125 74.21875 42.625 73.28125
Q 47.953125 72.359375 53.515625 70.515625
z
" id="DejaVuSans-53"/>
    </defs>
    <g transform="translate(396.209773 20.88)scale(0.12 -0.12)">
     <use xlink:href="#DejaVuSans-47"/>
     <use x="77.490234" xlink:href="#DejaVuSans-72"/>
     <use x="118.572266" xlink:href="#DejaVuSans-6f"/>
     <use x="179.753906" xlink:href="#DejaVuSans-75"/>
     <use x="243.132812" xlink:href="#DejaVuSans-70"/>
     <use x="306.609375" xlink:href="#DejaVuSans-20"/>
     <use x="338.396484" xlink:href="#DejaVuSans-53"/>
    </g>
   </g>
   <g id="legend_2">
    <g id="patch_43">
     <path d="M 512.216773 103.270625
L 561.229273 103.270625
Q 563.229273 103.270625 563.229273 101.270625
L 563.229273 28.88
Q 563.229273 26.88 561.229273 26.88
L 512.216773 26.88
Q 510.216773 26.88 510.216773 28.88
L 510.216773 101.270625
Q 510.216773 103.270625 512.216773 103.270625
z
" style="fill:#ffffff;opacity:0.8;stroke:#cccccc;stroke-linejoin:miter;"/>
    </g>
    <g id="text_41">
     <!-- prog -->
     <g transform="translate(525.261304 38.478437)scale(0.1 -0.1)">
      <use xlink:href="#DejaVuSans-70"/>
      <use x="63.476562" xlink:href="#DejaVuSans-72"/>
      <use x="104.558594" xlink:href="#DejaVuSans-6f"/>
      <use x="165.740234" xlink:href="#DejaVuSans-67"/>
     </g>
    </g>
    <g id="patch_44">
     <path d="M 514.216773 53.156562
L 534.216773 53.156562
L 534.216773 46.156562
L 514.216773 46.156562
z
" style="fill:#375e97;"/>
    </g>
    <g id="text_42">
     <!-- 1D -->
     <g transform="translate(542.216773 53.156562)scale(0.1 -0.1)">
      <use xlink:href="#DejaVuSans-31"/>
      <use x="63.623047" xlink:href="#DejaVuSans-44"/>
     </g>
    </g>
    <g id="patch_45">
     <path d="M 514.216773 67.834687
L 534.216773 67.834687
L 534.216773 60.834687
L 514.216773 60.834687
z
" style="fill:#f18d9e;"/>
    </g>
    <g id="text_43">
     <!-- I1D -->
     <g transform="translate(542.216773 67.834687)scale(0.1 -0.1)">
      <use xlink:href="#DejaVuSans-49"/>
      <use x="29.492188" xlink:href="#DejaVuSans-31"/>
      <use x="93.115234" xlink:href="#DejaVuSans-44"/>
     </g>
    </g>
    <g id="patch_46">
     <path d="M 514.216773 82.512812
L 534.216773 82.512812
L 534.216773 75.512812
L 514.216773 75.512812
z
" style="fill:#ffbb00;"/>
    </g>
    <g id="text_44">
     <!-- 2D -->
     <g transform="translate(542.216773 82.512812)scale(0.1 -0.1)">
      <use xlink:href="#DejaVuSans-32"/>
      <use x="63.623047" xlink:href="#DejaVuSans-44"/>
     </g>
    </g>
    <g id="patch_47">
     <path d="M 514.216773 97.190937
L 534.216773 97.190937
L 534.216773 90.190937
L 514.216773 90.190937
z
" style="fill:#3f681c;"/>
    </g>
    <g id="text_45">
     <!-- R -->
     <g transform="translate(542.216773 97.190937)scale(0.1 -0.1)">
      <use xlink:href="#DejaVuSans-52"/>
     </g>
    </g>
   </g>
  </g>
  <g id="axes_3">
   <g id="patch_48">
    <path d="M 56 462.04
L 219.444545 462.04
L 219.444545 273.48
L 56 273.48
z
" style="fill:#ffffff;"/>
   </g>
   <g id="matplotlib.axis_5">
    <g id="xtick_9">
     <g id="line2d_31">
      <g>
       <use style="stroke:#000000;stroke-width:0.8;" x="79.069924" xlink:href="#m4860b6b269" y="462.04"/>
      </g>
     </g>
     <g id="text_46">
      <!-- 1D -->
      <g transform="translate(72.038674 476.638437)scale(0.1 -0.1)">
       <use xlink:href="#DejaVuSans-31"/>
       <use x="63.623047" xlink:href="#DejaVuSans-44"/>
      </g>
     </g>
    </g>
    <g id="xtick_10">
     <g id="line2d_32">
      <g>
       <use style="stroke:#000000;stroke-width:0.8;" x="118.17149" xlink:href="#m4860b6b269" y="462.04"/>
      </g>
     </g>
     <g id="text_47">
      <!-- I1D -->
      <g transform="translate(109.66524 476.638437)scale(0.1 -0.1)">
       <use xlink:href="#DejaVuSans-49"/>
       <use x="29.492188" xlink:href="#DejaVuSans-31"/>
       <use x="93.115234" xlink:href="#DejaVuSans-44"/>
      </g>
     </g>
    </g>
    <g id="xtick_11">
     <g id="line2d_33">
      <g>
       <use style="stroke:#000000;stroke-width:0.8;" x="157.273056" xlink:href="#m4860b6b269" y="462.04"/>
      </g>
     </g>
     <g id="text_48">
      <!-- 2D -->
      <g transform="translate(150.241806 476.638437)scale(0.1 -0.1)">
       <use xlink:href="#DejaVuSans-32"/>
       <use x="63.623047" xlink:href="#DejaVuSans-44"/>
      </g>
     </g>
    </g>
    <g id="xtick_12">
     <g id="line2d_34">
      <g>
       <use style="stroke:#000000;stroke-width:0.8;" x="196.374622" xlink:href="#m4860b6b269" y="462.04"/>
      </g>
     </g>
     <g id="text_49">
      <!-- R -->
      <g transform="translate(192.900403 476.638437)scale(0.1 -0.1)">
       <use xlink:href="#DejaVuSans-52"/>
      </g>
     </g>
    </g>
    <g id="text_50">
     <!-- lrn2 -->
     <g transform="translate(127.928523 490.316562)scale(0.1 -0.1)">
      <use xlink:href="#DejaVuSans-6c"/>
      <use x="27.783203" xlink:href="#DejaVuSans-72"/>
      <use x="68.880859" xlink:href="#DejaVuSans-6e"/>
      <use x="132.259766" xlink:href="#DejaVuSans-32"/>
     </g>
    </g>
   </g>
   <g id="matplotlib.axis_6">
    <g id="ytick_11">
     <g id="line2d_35">
      <path clip-path="url(#pfddd190f8b)" d="M 56 443.184
L 219.444545 443.184
" style="fill:none;opacity:0.5;stroke:#b0b0b0;stroke-linecap:square;stroke-width:0.8;"/>
     </g>
     <g id="line2d_36">
      <g>
       <use style="stroke:#000000;stroke-width:0.8;" x="56" xlink:href="#m031fbc444d" y="443.184"/>
      </g>
     </g>
     <g id="text_51">
      <!-- −0.4 -->
      <g transform="translate(24.717187 446.983219)scale(0.1 -0.1)">
       <use xlink:href="#DejaVuSans-2212"/>
       <use x="83.789062" xlink:href="#DejaVuSans-30"/>
       <use x="147.412109" xlink:href="#DejaVuSans-2e"/>
       <use x="179.199219" xlink:href="#DejaVuSans-34"/>
      </g>
     </g>
    </g>
    <g id="ytick_12">
     <g id="line2d_37">
      <path clip-path="url(#pfddd190f8b)" d="M 56 405.472
L 219.444545 405.472
" style="fill:none;opacity:0.5;stroke:#b0b0b0;stroke-linecap:square;stroke-width:0.8;"/>
     </g>
     <g id="line2d_38">
      <g>
       <use style="stroke:#000000;stroke-width:0.8;" x="56" xlink:href="#m031fbc444d" y="405.472"/>
      </g>
     </g>
     <g id="text_52">
      <!-- −0.2 -->
      <g transform="translate(24.717187 409.271219)scale(0.1 -0.1)">
       <use xlink:href="#DejaVuSans-2212"/>
       <use x="83.789062" xlink:href="#DejaVuSans-30"/>
       <use x="147.412109" xlink:href="#DejaVuSans-2e"/>
       <use x="179.199219" xlink:href="#DejaVuSans-32"/>
      </g>
     </g>
    </g>
    <g id="ytick_13">
     <g id="line2d_39">
      <path clip-path="url(#pfddd190f8b)" d="M 56 367.76
L 219.444545 367.76
" style="fill:none;opacity:0.5;stroke:#b0b0b0;stroke-linecap:square;stroke-width:0.8;"/>
     </g>
     <g id="line2d_40">
      <g>
       <use style="stroke:#000000;stroke-width:0.8;" x="56" xlink:href="#m031fbc444d" y="367.76"/>
      </g>
     </g>
     <g id="text_53">
      <!-- 0.0 -->
      <g transform="translate(33.096875 371.559219)scale(0.1 -0.1)">
       <use xlink:href="#DejaVuSans-30"/>
       <use x="63.623047" xlink:href="#DejaVuSans-2e"/>
       <use x="95.410156" xlink:href="#DejaVuSans-30"/>
      </g>
     </g>
    </g>
    <g id="ytick_14">
     <g id="line2d_41">
      <path clip-path="url(#pfddd190f8b)" d="M 56 330.048
L 219.444545 330.048
" style="fill:none;opacity:0.5;stroke:#b0b0b0;stroke-linecap:square;stroke-width:0.8;"/>
     </g>
     <g id="line2d_42">
      <g>
       <use style="stroke:#000000;stroke-width:0.8;" x="56" xlink:href="#m031fbc444d" y="330.048"/>
      </g>
     </g>
     <g id="text_54">
      <!-- 0.2 -->
      <g transform="translate(33.096875 333.847219)scale(0.1 -0.1)">
       <use xlink:href="#DejaVuSans-30"/>
       <use x="63.623047" xlink:href="#DejaVuSans-2e"/>
       <use x="95.410156" xlink:href="#DejaVuSans-32"/>
      </g>
     </g>
    </g>
    <g id="ytick_15">
     <g id="line2d_43">
      <path clip-path="url(#pfddd190f8b)" d="M 56 292.336
L 219.444545 292.336
" style="fill:none;opacity:0.5;stroke:#b0b0b0;stroke-linecap:square;stroke-width:0.8;"/>
     </g>
     <g id="line2d_44">
      <g>
       <use style="stroke:#000000;stroke-width:0.8;" x="56" xlink:href="#m031fbc444d" y="292.336"/>
      </g>
     </g>
     <g id="text_55">
      <!-- 0.4 -->
      <g transform="translate(33.096875 296.135219)scale(0.1 -0.1)">
       <use xlink:href="#DejaVuSans-30"/>
       <use x="63.623047" xlink:href="#DejaVuSans-2e"/>
       <use x="95.410156" xlink:href="#DejaVuSans-34"/>
      </g>
     </g>
    </g>
    <g id="text_56">
     <!-- Correlation coefficient -->
     <g transform="translate(18.6375 423.25375)rotate(-90)scale(0.1 -0.1)">
      <use xlink:href="#DejaVuSans-43"/>
      <use x="69.824219" xlink:href="#DejaVuSans-6f"/>
      <use x="131.005859" xlink:href="#DejaVuSans-72"/>
      <use x="172.103516" xlink:href="#DejaVuSans-72"/>
      <use x="213.185547" xlink:href="#DejaVuSans-65"/>
      <use x="274.708984" xlink:href="#DejaVuSans-6c"/>
      <use x="302.492188" xlink:href="#DejaVuSans-61"/>
      <use x="363.771484" xlink:href="#DejaVuSans-74"/>
      <use x="402.980469" xlink:href="#DejaVuSans-69"/>
      <use x="430.763672" xlink:href="#DejaVuSans-6f"/>
      <use x="491.945312" xlink:href="#DejaVuSans-6e"/>
      <use x="555.324219" xlink:href="#DejaVuSans-20"/>
      <use x="587.111328" xlink:href="#DejaVuSans-63"/>
      <use x="642.091797" xlink:href="#DejaVuSans-6f"/>
      <use x="703.273438" xlink:href="#DejaVuSans-65"/>
      <use x="764.796875" xlink:href="#DejaVuSans-66"/>
      <use x="800.001953" xlink:href="#DejaVuSans-66"/>
      <use x="835.207031" xlink:href="#DejaVuSans-69"/>
      <use x="862.990234" xlink:href="#DejaVuSans-63"/>
      <use x="917.970703" xlink:href="#DejaVuSans-69"/>
      <use x="945.753906" xlink:href="#DejaVuSans-65"/>
      <use x="1007.277344" xlink:href="#DejaVuSans-6e"/>
      <use x="1070.65625" xlink:href="#DejaVuSans-74"/>
     </g>
    </g>
   </g>
   <g id="patch_49">
    <path clip-path="url(#pfddd190f8b)" d="M 63.429298 367.76
L 71.249611 367.76
L 71.249611 385.429607
L 63.429298 385.429607
z
" style="fill:#375e97;"/>
   </g>
   <g id="patch_50">
    <path clip-path="url(#pfddd190f8b)" d="M 102.530863 367.76
L 110.351177 367.76
L 110.351177 368.239087
L 102.530863 368.239087
z
" style="fill:#375e97;"/>
   </g>
   <g id="patch_51">
    <path clip-path="url(#pfddd190f8b)" d="M 141.632429 367.76
L 149.452742 367.76
L 149.452742 362.20144
L 141.632429 362.20144
z
" style="fill:#375e97;"/>
   </g>
   <g id="patch_52">
    <path clip-path="url(#pfddd190f8b)" d="M 180.733995 367.76
L 188.554308 367.76
L 188.554308 383.196718
L 180.733995 383.196718
z
" style="fill:#375e97;"/>
   </g>
   <g id="patch_53">
    <path clip-path="url(#pfddd190f8b)" d="M 71.249611 367.76
L 79.069924 367.76
L 79.069924 371.927814
L 71.249611 371.927814
z
" style="fill:#f18d9e;"/>
   </g>
   <g id="patch_54">
    <path clip-path="url(#pfddd190f8b)" d="M 110.351177 367.76
L 118.17149 367.76
L 118.17149 415.877041
L 110.351177 415.877041
z
" style="fill:#f18d9e;"/>
   </g>
   <g id="patch_55">
    <path clip-path="url(#pfddd190f8b)" d="M 149.452742 367.76
L 157.273056 367.76
L 157.273056 354.130555
L 149.452742 354.130555
z
" style="fill:#f18d9e;"/>
   </g>
   <g id="patch_56">
    <path clip-path="url(#pfddd190f8b)" d="M 188.554308 367.76
L 196.374622 367.76
L 196.374622 361.506231
L 188.554308 361.506231
z
" style="fill:#f18d9e;"/>
   </g>
   <g id="patch_57">
    <path clip-path="url(#pfddd190f8b)" d="M 79.069924 367.76
L 86.890237 367.76
L 86.890237 355.671077
L 79.069924 355.671077
z
" style="fill:#ffbb00;"/>
   </g>
   <g id="patch_58">
    <path clip-path="url(#pfddd190f8b)" d="M 118.17149 367.76
L 125.991803 367.76
L 125.991803 358.154868
L 118.17149 358.154868
z
" style="fill:#ffbb00;"/>
   </g>
   <g id="patch_59">
    <path clip-path="url(#pfddd190f8b)" d="M 157.273056 367.76
L 165.093369 367.76
L 165.093369 394.19658
L 157.273056 394.19658
z
" style="fill:#ffbb00;"/>
   </g>
   <g id="patch_60">
    <path clip-path="url(#pfddd190f8b)" d="M 196.374622 367.76
L 204.194935 367.76
L 204.194935 341.362595
L 196.374622 341.362595
z
" style="fill:#ffbb00;"/>
   </g>
   <g id="patch_61">
    <path clip-path="url(#pfddd190f8b)" d="M 86.890237 367.76
L 94.71055 367.76
L 94.71055 317.97693
L 86.890237 317.97693
z
" style="fill:#3f681c;"/>
   </g>
   <g id="patch_62">
    <path clip-path="url(#pfddd190f8b)" d="M 125.991803 367.76
L 133.812116 367.76
L 133.812116 306.607315
L 125.991803 306.607315
z
" style="fill:#3f681c;"/>
   </g>
   <g id="patch_63">
    <path clip-path="url(#pfddd190f8b)" d="M 165.093369 367.76
L 172.913682 367.76
L 172.913682 321.671102
L 165.093369 321.671102
z
" style="fill:#3f681c;"/>
   </g>
   <g id="patch_64">
    <path clip-path="url(#pfddd190f8b)" d="M 204.194935 367.76
L 212.015248 367.76
L 212.015248 308.048632
L 204.194935 308.048632
z
" style="fill:#3f681c;"/>
   </g>
   <g id="line2d_45">
    <path clip-path="url(#pfddd190f8b)" d="M 56 367.76
L 219.444545 367.76
" style="fill:none;stroke:#000000;stroke-linecap:square;stroke-width:0.5;"/>
   </g>
   <g id="patch_65">
    <path d="M 56 462.04
L 56 273.48
" style="fill:none;stroke:#000000;stroke-linecap:square;stroke-linejoin:miter;stroke-width:0.8;"/>
   </g>
   <g id="text_57">
    <!-- ** -->
    <g transform="translate(109.261333 428.064416)scale(0.1 -0.1)">
     <use xlink:href="#DejaVuSans-2a"/>
     <use x="50" xlink:href="#DejaVuSans-2a"/>
    </g>
   </g>
   <g id="text_58">
    <!-- ** -->
    <g transform="translate(85.800394 311.308305)scale(0.1 -0.1)">
     <use xlink:href="#DejaVuSans-2a"/>
     <use x="50" xlink:href="#DejaVuSans-2a"/>
    </g>
   </g>
   <g id="text_59">
    <!-- ** -->
    <g transform="translate(124.90196 299.93869)scale(0.1 -0.1)">
     <use xlink:href="#DejaVuSans-2a"/>
     <use x="50" xlink:href="#DejaVuSans-2a"/>
    </g>
   </g>
   <g id="text_60">
    <!-- ** -->
    <g transform="translate(164.003525 315.002477)scale(0.1 -0.1)">
     <use xlink:href="#DejaVuSans-2a"/>
     <use x="50" xlink:href="#DejaVuSans-2a"/>
    </g>
   </g>
   <g id="text_61">
    <!-- ** -->
    <g transform="translate(203.105091 301.380007)scale(0.1 -0.1)">
     <use xlink:href="#DejaVuSans-2a"/>
     <use x="50" xlink:href="#DejaVuSans-2a"/>
    </g>
   </g>
   <g id="text_62">
    <!-- Condition i- -->
    <defs>
     <path d="M 45.40625 46.390625
L 45.40625 75.984375
L 54.390625 75.984375
L 54.390625 0
L 45.40625 0
L 45.40625 8.203125
Q 42.578125 3.328125 38.25 0.953125
Q 33.9375 -1.421875 27.875 -1.421875
Q 17.96875 -1.421875 11.734375 6.484375
Q 5.515625 14.40625 5.515625 27.296875
Q 5.515625 40.1875 11.734375 48.09375
Q 17.96875 56 27.875 56
Q 33.9375 56 38.25 53.625
Q 42.578125 51.265625 45.40625 46.390625
z
M 14.796875 27.296875
Q 14.796875 17.390625 18.875 11.75
Q 22.953125 6.109375 30.078125 6.109375
Q 37.203125 6.109375 41.296875 11.75
Q 45.40625 17.390625 45.40625 27.296875
Q 45.40625 37.203125 41.296875 42.84375
Q 37.203125 48.484375 30.078125 48.484375
Q 22.953125 48.484375 18.875 42.84375
Q 14.796875 37.203125 14.796875 27.296875
z
" id="DejaVuSans-64"/>
     <path d="M 4.890625 31.390625
L 31.203125 31.390625
L 31.203125 23.390625
L 4.890625 23.390625
z
" id="DejaVuSans-2d"/>
    </defs>
    <g transform="translate(103.351648 267.48)scale(0.12 -0.12)">
     <use xlink:href="#DejaVuSans-43"/>
     <use x="69.824219" xlink:href="#DejaVuSans-6f"/>
     <use x="131.005859" xlink:href="#DejaVuSans-6e"/>
     <use x="194.384766" xlink:href="#DejaVuSans-64"/>
     <use x="257.861328" xlink:href="#DejaVuSans-69"/>
     <use x="285.644531" xlink:href="#DejaVuSans-74"/>
     <use x="324.853516" xlink:href="#DejaVuSans-69"/>
     <use x="352.636719" xlink:href="#DejaVuSans-6f"/>
     <use x="413.818359" xlink:href="#DejaVuSans-6e"/>
     <use x="477.197266" xlink:href="#DejaVuSans-20"/>
     <use x="508.984375" xlink:href="#DejaVuSans-69"/>
     <use x="536.767578" xlink:href="#DejaVuSans-2d"/>
    </g>
   </g>
   <g id="legend_3">
    <g id="patch_66">
     <path d="M 229.616773 349.870625
L 278.629273 349.870625
Q 280.629273 349.870625 280.629273 347.870625
L 280.629273 275.48
Q 280.629273 273.48 278.629273 273.48
L 229.616773 273.48
Q 227.616773 273.48 227.616773 275.48
L 227.616773 347.870625
Q 227.616773 349.870625 229.616773 349.870625
z
" style="fill:#ffffff;opacity:0.8;stroke:#cccccc;stroke-linejoin:miter;"/>
    </g>
    <g id="text_63">
     <!-- prog -->
     <g transform="translate(242.661304 285.078437)scale(0.1 -0.1)">
      <use xlink:href="#DejaVuSans-70"/>
      <use x="63.476562" xlink:href="#DejaVuSans-72"/>
      <use x="104.558594" xlink:href="#DejaVuSans-6f"/>
      <use x="165.740234" xlink:href="#DejaVuSans-67"/>
     </g>
    </g>
    <g id="patch_67">
     <path d="M 231.616773 299.756562
L 251.616773 299.756562
L 251.616773 292.756562
L 231.616773 292.756562
z
" style="fill:#375e97;"/>
    </g>
    <g id="text_64">
     <!-- 1D -->
     <g transform="translate(259.616773 299.756562)scale(0.1 -0.1)">
      <use xlink:href="#DejaVuSans-31"/>
      <use x="63.623047" xlink:href="#DejaVuSans-44"/>
     </g>
    </g>
    <g id="patch_68">
     <path d="M 231.616773 314.434687
L 251.616773 314.434687
L 251.616773 307.434687
L 231.616773 307.434687
z
" style="fill:#f18d9e;"/>
    </g>
    <g id="text_65">
     <!-- I1D -->
     <g transform="translate(259.616773 314.434687)scale(0.1 -0.1)">
      <use xlink:href="#DejaVuSans-49"/>
      <use x="29.492188" xlink:href="#DejaVuSans-31"/>
      <use x="93.115234" xlink:href="#DejaVuSans-44"/>
     </g>
    </g>
    <g id="patch_69">
     <path d="M 231.616773 329.112812
L 251.616773 329.112812
L 251.616773 322.112812
L 231.616773 322.112812
z
" style="fill:#ffbb00;"/>
    </g>
    <g id="text_66">
     <!-- 2D -->
     <g transform="translate(259.616773 329.112812)scale(0.1 -0.1)">
      <use xlink:href="#DejaVuSans-32"/>
      <use x="63.623047" xlink:href="#DejaVuSans-44"/>
     </g>
    </g>
    <g id="patch_70">
     <path d="M 231.616773 343.790937
L 251.616773 343.790937
L 251.616773 336.790937
L 231.616773 336.790937
z
" style="fill:#3f681c;"/>
    </g>
    <g id="text_67">
     <!-- R -->
     <g transform="translate(259.616773 343.790937)scale(0.1 -0.1)">
      <use xlink:href="#DejaVuSans-52"/>
     </g>
    </g>
   </g>
  </g>
  <g id="axes_4">
   <g id="patch_71">
    <path d="M 338.6 462.04
L 502.044545 462.04
L 502.044545 273.48
L 338.6 273.48
z
" style="fill:#ffffff;"/>
   </g>
   <g id="matplotlib.axis_7">
    <g id="xtick_13">
     <g id="line2d_46">
      <g>
       <use style="stroke:#000000;stroke-width:0.8;" x="361.669924" xlink:href="#m4860b6b269" y="462.04"/>
      </g>
     </g>
     <g id="text_68">
      <!-- 1D -->
      <g transform="translate(354.638674 476.638437)scale(0.1 -0.1)">
       <use xlink:href="#DejaVuSans-31"/>
       <use x="63.623047" xlink:href="#DejaVuSans-44"/>
      </g>
     </g>
    </g>
    <g id="xtick_14">
     <g id="line2d_47">
      <g>
       <use style="stroke:#000000;stroke-width:0.8;" x="400.77149" xlink:href="#m4860b6b269" y="462.04"/>
      </g>
     </g>
     <g id="text_69">
      <!-- I1D -->
      <g transform="translate(392.26524 476.638437)scale(0.1 -0.1)">
       <use xlink:href="#DejaVuSans-49"/>
       <use x="29.492188" xlink:href="#DejaVuSans-31"/>
       <use x="93.115234" xlink:href="#DejaVuSans-44"/>
      </g>
     </g>
    </g>
    <g id="xtick_15">
     <g id="line2d_48">
      <g>
       <use style="stroke:#000000;stroke-width:0.8;" x="439.873056" xlink:href="#m4860b6b269" y="462.04"/>
      </g>
     </g>
     <g id="text_70">
      <!-- 2D -->
      <g transform="translate(432.841806 476.638437)scale(0.1 -0.1)">
       <use xlink:href="#DejaVuSans-32"/>
       <use x="63.623047" xlink:href="#DejaVuSans-44"/>
      </g>
     </g>
    </g>
    <g id="xtick_16">
     <g id="line2d_49">
      <g>
       <use style="stroke:#000000;stroke-width:0.8;" x="478.974622" xlink:href="#m4860b6b269" y="462.04"/>
      </g>
     </g>
     <g id="text_71">
      <!-- R -->
      <g transform="translate(475.500403 476.638437)scale(0.1 -0.1)">
       <use xlink:href="#DejaVuSans-52"/>
      </g>
     </g>
    </g>
    <g id="text_72">
     <!-- lrn2 -->
     <g transform="translate(410.528523 490.316562)scale(0.1 -0.1)">
      <use xlink:href="#DejaVuSans-6c"/>
      <use x="27.783203" xlink:href="#DejaVuSans-72"/>
      <use x="68.880859" xlink:href="#DejaVuSans-6e"/>
      <use x="132.259766" xlink:href="#DejaVuSans-32"/>
     </g>
    </g>
   </g>
   <g id="matplotlib.axis_8">
    <g id="ytick_16">
     <g id="line2d_50">
      <path clip-path="url(#p37743f1a25)" d="M 338.6 443.184
L 502.044545 443.184
" style="fill:none;opacity:0.5;stroke:#b0b0b0;stroke-linecap:square;stroke-width:0.8;"/>
     </g>
     <g id="line2d_51">
      <g>
       <use style="stroke:#000000;stroke-width:0.8;" x="338.6" xlink:href="#m031fbc444d" y="443.184"/>
      </g>
     </g>
     <g id="text_73">
      <!-- −0.4 -->
      <g transform="translate(307.317187 446.983219)scale(0.1 -0.1)">
       <use xlink:href="#DejaVuSans-2212"/>
       <use x="83.789062" xlink:href="#DejaVuSans-30"/>
       <use x="147.412109" xlink:href="#DejaVuSans-2e"/>
       <use x="179.199219" xlink:href="#DejaVuSans-34"/>
      </g>
     </g>
    </g>
    <g id="ytick_17">
     <g id="line2d_52">
      <path clip-path="url(#p37743f1a25)" d="M 338.6 405.472
L 502.044545 405.472
" style="fill:none;opacity:0.5;stroke:#b0b0b0;stroke-linecap:square;stroke-width:0.8;"/>
     </g>
     <g id="line2d_53">
      <g>
       <use style="stroke:#000000;stroke-width:0.8;" x="338.6" xlink:href="#m031fbc444d" y="405.472"/>
      </g>
     </g>
     <g id="text_74">
      <!-- −0.2 -->
      <g transform="translate(307.317187 409.271219)scale(0.1 -0.1)">
       <use xlink:href="#DejaVuSans-2212"/>
       <use x="83.789062" xlink:href="#DejaVuSans-30"/>
       <use x="147.412109" xlink:href="#DejaVuSans-2e"/>
       <use x="179.199219" xlink:href="#DejaVuSans-32"/>
      </g>
     </g>
    </g>
    <g id="ytick_18">
     <g id="line2d_54">
      <path clip-path="url(#p37743f1a25)" d="M 338.6 367.76
L 502.044545 367.76
" style="fill:none;opacity:0.5;stroke:#b0b0b0;stroke-linecap:square;stroke-width:0.8;"/>
     </g>
     <g id="line2d_55">
      <g>
       <use style="stroke:#000000;stroke-width:0.8;" x="338.6" xlink:href="#m031fbc444d" y="367.76"/>
      </g>
     </g>
     <g id="text_75">
      <!-- 0.0 -->
      <g transform="translate(315.696875 371.559219)scale(0.1 -0.1)">
       <use xlink:href="#DejaVuSans-30"/>
       <use x="63.623047" xlink:href="#DejaVuSans-2e"/>
       <use x="95.410156" xlink:href="#DejaVuSans-30"/>
      </g>
     </g>
    </g>
    <g id="ytick_19">
     <g id="line2d_56">
      <path clip-path="url(#p37743f1a25)" d="M 338.6 330.048
L 502.044545 330.048
" style="fill:none;opacity:0.5;stroke:#b0b0b0;stroke-linecap:square;stroke-width:0.8;"/>
     </g>
     <g id="line2d_57">
      <g>
       <use style="stroke:#000000;stroke-width:0.8;" x="338.6" xlink:href="#m031fbc444d" y="330.048"/>
      </g>
     </g>
     <g id="text_76">
      <!-- 0.2 -->
      <g transform="translate(315.696875 333.847219)scale(0.1 -0.1)">
       <use xlink:href="#DejaVuSans-30"/>
       <use x="63.623047" xlink:href="#DejaVuSans-2e"/>
       <use x="95.410156" xlink:href="#DejaVuSans-32"/>
      </g>
     </g>
    </g>
    <g id="ytick_20">
     <g id="line2d_58">
      <path clip-path="url(#p37743f1a25)" d="M 338.6 292.336
L 502.044545 292.336
" style="fill:none;opacity:0.5;stroke:#b0b0b0;stroke-linecap:square;stroke-width:0.8;"/>
     </g>
     <g id="line2d_59">
      <g>
       <use style="stroke:#000000;stroke-width:0.8;" x="338.6" xlink:href="#m031fbc444d" y="292.336"/>
      </g>
     </g>
     <g id="text_77">
      <!-- 0.4 -->
      <g transform="translate(315.696875 296.135219)scale(0.1 -0.1)">
       <use xlink:href="#DejaVuSans-30"/>
       <use x="63.623047" xlink:href="#DejaVuSans-2e"/>
       <use x="95.410156" xlink:href="#DejaVuSans-34"/>
      </g>
     </g>
    </g>
    <g id="text_78">
     <!-- Correlation coefficient -->
     <g transform="translate(301.2375 423.25375)rotate(-90)scale(0.1 -0.1)">
      <use xlink:href="#DejaVuSans-43"/>
      <use x="69.824219" xlink:href="#DejaVuSans-6f"/>
      <use x="131.005859" xlink:href="#DejaVuSans-72"/>
      <use x="172.103516" xlink:href="#DejaVuSans-72"/>
      <use x="213.185547" xlink:href="#DejaVuSans-65"/>
      <use x="274.708984" xlink:href="#DejaVuSans-6c"/>
      <use x="302.492188" xlink:href="#DejaVuSans-61"/>
      <use x="363.771484" xlink:href="#DejaVuSans-74"/>
      <use x="402.980469" xlink:href="#DejaVuSans-69"/>
      <use x="430.763672" xlink:href="#DejaVuSans-6f"/>
      <use x="491.945312" xlink:href="#DejaVuSans-6e"/>
      <use x="555.324219" xlink:href="#DejaVuSans-20"/>
      <use x="587.111328" xlink:href="#DejaVuSans-63"/>
      <use x="642.091797" xlink:href="#DejaVuSans-6f"/>
      <use x="703.273438" xlink:href="#DejaVuSans-65"/>
      <use x="764.796875" xlink:href="#DejaVuSans-66"/>
      <use x="800.001953" xlink:href="#DejaVuSans-66"/>
      <use x="835.207031" xlink:href="#DejaVuSans-69"/>
      <use x="862.990234" xlink:href="#DejaVuSans-63"/>
      <use x="917.970703" xlink:href="#DejaVuSans-69"/>
      <use x="945.753906" xlink:href="#DejaVuSans-65"/>
      <use x="1007.277344" xlink:href="#DejaVuSans-6e"/>
      <use x="1070.65625" xlink:href="#DejaVuSans-74"/>
     </g>
    </g>
   </g>
   <g id="patch_72">
    <path clip-path="url(#p37743f1a25)" d="M 346.029298 367.76
L 353.849611 367.76
L 353.849611 406.549653
L 346.029298 406.549653
z
" style="fill:#375e97;"/>
   </g>
   <g id="patch_73">
    <path clip-path="url(#p37743f1a25)" d="M 385.130863 367.76
L 392.951177 367.76
L 392.951177 390.25763
L 385.130863 390.25763
z
" style="fill:#375e97;"/>
   </g>
   <g id="patch_74">
    <path clip-path="url(#p37743f1a25)" d="M 424.232429 367.76
L 432.052742 367.76
L 432.052742 374.61946
L 424.232429 374.61946
z
" style="fill:#375e97;"/>
   </g>
   <g id="patch_75">
    <path clip-path="url(#p37743f1a25)" d="M 463.333995 367.76
L 471.154308 367.76
L 471.154308 355.414818
L 463.333995 355.414818
z
" style="fill:#375e97;"/>
   </g>
   <g id="patch_76">
    <path clip-path="url(#p37743f1a25)" d="M 353.849611 367.76
L 361.669924 367.76
L 361.669924 366.431354
L 353.849611 366.431354
z
" style="fill:#f18d9e;"/>
   </g>
   <g id="patch_77">
    <path clip-path="url(#p37743f1a25)" d="M 392.951177 367.76
L 400.77149 367.76
L 400.77149 438.661267
L 392.951177 438.661267
z
" style="fill:#f18d9e;"/>
   </g>
   <g id="patch_78">
    <path clip-path="url(#p37743f1a25)" d="M 432.052742 367.76
L 439.873056 367.76
L 439.873056 367.373576
L 432.052742 367.373576
z
" style="fill:#f18d9e;"/>
   </g>
   <g id="patch_79">
    <path clip-path="url(#p37743f1a25)" d="M 471.154308 367.76
L 478.974622 367.76
L 478.974622 363.922375
L 471.154308 363.922375
z
" style="fill:#f18d9e;"/>
   </g>
   <g id="patch_80">
    <path clip-path="url(#p37743f1a25)" d="M 361.669924 367.76
L 369.490237 367.76
L 369.490237 373.152059
L 361.669924 373.152059
z
" style="fill:#ffbb00;"/>
   </g>
   <g id="patch_81">
    <path clip-path="url(#p37743f1a25)" d="M 400.77149 367.76
L 408.591803 367.76
L 408.591803 366.247189
L 400.77149 366.247189
z
" style="fill:#ffbb00;"/>
   </g>
   <g id="patch_82">
    <path clip-path="url(#p37743f1a25)" d="M 439.873056 367.76
L 447.693369 367.76
L 447.693369 420.459851
L 439.873056 420.459851
z
" style="fill:#ffbb00;"/>
   </g>
   <g id="patch_83">
    <path clip-path="url(#p37743f1a25)" d="M 478.974622 367.76
L 486.794935 367.76
L 486.794935 370.694234
L 478.974622 370.694234
z
" style="fill:#ffbb00;"/>
   </g>
   <g id="patch_84">
    <path clip-path="url(#p37743f1a25)" d="M 369.490237 367.76
L 377.31055 367.76
L 377.31055 342.722953
L 369.490237 342.722953
z
" style="fill:#3f681c;"/>
   </g>
   <g id="patch_85">
    <path clip-path="url(#p37743f1a25)" d="M 408.591803 367.76
L 416.412116 367.76
L 416.412116 365.546212
L 408.591803 365.546212
z
" style="fill:#3f681c;"/>
   </g>
   <g id="patch_86">
    <path clip-path="url(#p37743f1a25)" d="M 447.693369 367.76
L 455.513682 367.76
L 455.513682 356.969708
L 447.693369 356.969708
z
" style="fill:#3f681c;"/>
   </g>
   <g id="patch_87">
    <path clip-path="url(#p37743f1a25)" d="M 486.794935 367.76
L 494.615248 367.76
L 494.615248 359.954061
L 486.794935 359.954061
z
" style="fill:#3f681c;"/>
   </g>
   <g id="line2d_60">
    <path clip-path="url(#p37743f1a25)" d="M 338.6 367.76
L 502.044545 367.76
" style="fill:none;stroke:#000000;stroke-linecap:square;stroke-width:0.5;"/>
   </g>
   <g id="patch_88">
    <path d="M 338.6 462.04
L 338.6 273.48
" style="fill:none;stroke:#000000;stroke-linecap:square;stroke-linejoin:miter;stroke-width:0.8;"/>
   </g>
   <g id="text_79">
    <!-- ** -->
    <g transform="translate(344.939454 418.737028)scale(0.1 -0.1)">
     <use xlink:href="#DejaVuSans-2a"/>
     <use x="50" xlink:href="#DejaVuSans-2a"/>
    </g>
   </g>
   <g id="text_80">
    <!-- ** -->
    <g transform="translate(391.861333 450.848642)scale(0.1 -0.1)">
     <use xlink:href="#DejaVuSans-2a"/>
     <use x="50" xlink:href="#DejaVuSans-2a"/>
    </g>
   </g>
   <g id="text_81">
    <!-- ** -->
    <g transform="translate(438.783212 432.647226)scale(0.1 -0.1)">
     <use xlink:href="#DejaVuSans-2a"/>
     <use x="50" xlink:href="#DejaVuSans-2a"/>
    </g>
   </g>
   <g id="text_82">
    <!-- Condition i+ -->
    <defs>
     <path d="M 46 62.703125
L 46 35.5
L 73.1875 35.5
L 73.1875 27.203125
L 46 27.203125
L 46 0
L 37.796875 0
L 37.796875 27.203125
L 10.59375 27.203125
L 10.59375 35.5
L 37.796875 35.5
L 37.796875 62.703125
z
" id="DejaVuSans-2b"/>
    </defs>
    <g transform="translate(383.088523 267.48)scale(0.12 -0.12)">
     <use xlink:href="#DejaVuSans-43"/>
     <use x="69.824219" xlink:href="#DejaVuSans-6f"/>
     <use x="131.005859" xlink:href="#DejaVuSans-6e"/>
     <use x="194.384766" xlink:href="#DejaVuSans-64"/>
     <use x="257.861328" xlink:href="#DejaVuSans-69"/>
     <use x="285.644531" xlink:href="#DejaVuSans-74"/>
     <use x="324.853516" xlink:href="#DejaVuSans-69"/>
     <use x="352.636719" xlink:href="#DejaVuSans-6f"/>
     <use x="413.818359" xlink:href="#DejaVuSans-6e"/>
     <use x="477.197266" xlink:href="#DejaVuSans-20"/>
     <use x="508.984375" xlink:href="#DejaVuSans-69"/>
     <use x="536.767578" xlink:href="#DejaVuSans-2b"/>
    </g>
   </g>
   <g id="legend_4">
    <g id="patch_89">
     <path d="M 512.216773 349.870625
L 561.229273 349.870625
Q 563.229273 349.870625 563.229273 347.870625
L 563.229273 275.48
Q 563.229273 273.48 561.229273 273.48
L 512.216773 273.48
Q 510.216773 273.48 510.216773 275.48
L 510.216773 347.870625
Q 510.216773 349.870625 512.216773 349.870625
z
" style="fill:#ffffff;opacity:0.8;stroke:#cccccc;stroke-linejoin:miter;"/>
    </g>
    <g id="text_83">
     <!-- prog -->
     <g transform="translate(525.261304 285.078437)scale(0.1 -0.1)">
      <use xlink:href="#DejaVuSans-70"/>
      <use x="63.476562" xlink:href="#DejaVuSans-72"/>
      <use x="104.558594" xlink:href="#DejaVuSans-6f"/>
      <use x="165.740234" xlink:href="#DejaVuSans-67"/>
     </g>
    </g>
    <g id="patch_90">
     <path d="M 514.216773 299.756562
L 534.216773 299.756562
L 534.216773 292.756562
L 514.216773 292.756562
z
" style="fill:#375e97;"/>
    </g>
    <g id="text_84">
     <!-- 1D -->
     <g transform="translate(542.216773 299.756562)scale(0.1 -0.1)">
      <use xlink:href="#DejaVuSans-31"/>
      <use x="63.623047" xlink:href="#DejaVuSans-44"/>
     </g>
    </g>
    <g id="patch_91">
     <path d="M 514.216773 314.434687
L 534.216773 314.434687
L 534.216773 307.434687
L 514.216773 307.434687
z
" style="fill:#f18d9e;"/>
    </g>
    <g id="text_85">
     <!-- I1D -->
     <g transform="translate(542.216773 314.434687)scale(0.1 -0.1)">
      <use xlink:href="#DejaVuSans-49"/>
      <use x="29.492188" xlink:href="#DejaVuSans-31"/>
      <use x="93.115234" xlink:href="#DejaVuSans-44"/>
     </g>
    </g>
    <g id="patch_92">
     <path d="M 514.216773 329.112812
L 534.216773 329.112812
L 534.216773 322.112812
L 514.216773 322.112812
z
" style="fill:#ffbb00;"/>
    </g>
    <g id="text_86">
     <!-- 2D -->
     <g transform="translate(542.216773 329.112812)scale(0.1 -0.1)">
      <use xlink:href="#DejaVuSans-32"/>
      <use x="63.623047" xlink:href="#DejaVuSans-44"/>
     </g>
    </g>
    <g id="patch_93">
     <path d="M 514.216773 343.790937
L 534.216773 343.790937
L 534.216773 336.790937
L 514.216773 336.790937
z
" style="fill:#3f681c;"/>
    </g>
    <g id="text_87">
     <!-- R -->
     <g transform="translate(542.216773 343.790937)scale(0.1 -0.1)">
      <use xlink:href="#DejaVuSans-52"/>
     </g>
    </g>
   </g>
  </g>
 </g>
 <defs>
  <clipPath id="pb06468ef74">
   <rect height="188.56" width="163.444545" x="56" y="26.88"/>
  </clipPath>
  <clipPath id="p0b87409c29">
   <rect height="188.56" width="163.444545" x="338.6" y="26.88"/>
  </clipPath>
  <clipPath id="pfddd190f8b">
   <rect height="188.56" width="163.444545" x="56" y="273.48"/>
  </clipPath>
  <clipPath id="p37743f1a25">
   <rect height="188.56" width="163.444545" x="338.6" y="273.48"/>
  </clipPath>
 </defs>
</svg>
