<?xml version="1.0" encoding="utf-8" standalone="no"?>
<!DOCTYPE svg PUBLIC "-//W3C//DTD SVG 1.1//EN"
  "http://www.w3.org/Graphics/SVG/1.1/DTD/svg11.dtd">
<!-- Created with matplotlib (http://matplotlib.org/) -->
<svg height="360pt" version="1.1" viewBox="0 0 720 360" width="720pt" xmlns="http://www.w3.org/2000/svg" xmlns:xlink="http://www.w3.org/1999/xlink">
 <defs>
  <style type="text/css">
*{stroke-linecap:butt;stroke-linejoin:round;}
  </style>
 </defs>
 <g id="figure_1">
  <g id="patch_1">
   <path d="M 0 360
L 720 360
L 720 0
L 0 0
z
" style="fill:#ffffff;"/>
  </g>
  <g id="axes_1">
   <g id="patch_2">
    <path d="M 54.02 318.04
L 345.15 318.04
L 345.15 61.24
L 54.02 61.24
z
" style="fill:#ffffff;"/>
   </g>
   <g id="matplotlib.axis_1">
    <g id="xtick_1">
     <g id="line2d_1">
      <path clip-path="url(#p39f98adb5b)" d="M 111.310643 318.04
L 111.310643 61.24
" style="fill:none;stroke:#b0b0b0;stroke-linecap:square;stroke-width:0.8;"/>
     </g>
     <g id="line2d_2">
      <defs>
       <path d="M 0 0
L 0 3.5
" id="m159b2b4fb5" style="stroke:#000000;stroke-width:0.8;"/>
      </defs>
      <g>
       <use style="stroke:#000000;stroke-width:0.8;" x="111.310643" xlink:href="#m159b2b4fb5" y="318.04"/>
      </g>
     </g>
     <g id="text_1">
      <!-- 50 -->
      <defs>
       <path d="M 10.796875 72.90625
L 49.515625 72.90625
L 49.515625 64.59375
L 19.828125 64.59375
L 19.828125 46.734375
Q 21.96875 47.46875 24.109375 47.828125
Q 26.265625 48.1875 28.421875 48.1875
Q 40.625 48.1875 47.75 41.5
Q 54.890625 34.8125 54.890625 23.390625
Q 54.890625 11.625 47.5625 5.09375
Q 40.234375 -1.421875 26.90625 -1.421875
Q 22.3125 -1.421875 17.546875 -0.640625
Q 12.796875 0.140625 7.71875 1.703125
L 7.71875 11.625
Q 12.109375 9.234375 16.796875 8.0625
Q 21.484375 6.890625 26.703125 6.890625
Q 35.15625 6.890625 40.078125 11.328125
Q 45.015625 15.765625 45.015625 23.390625
Q 45.015625 31 40.078125 35.4375
Q 35.15625 39.890625 26.703125 39.890625
Q 22.75 39.890625 18.8125 39.015625
Q 14.890625 38.140625 10.796875 36.28125
z
" id="DejaVuSans-35"/>
       <path d="M 31.78125 66.40625
Q 24.171875 66.40625 20.328125 58.90625
Q 16.5 51.421875 16.5 36.375
Q 16.5 21.390625 20.328125 13.890625
Q 24.171875 6.390625 31.78125 6.390625
Q 39.453125 6.390625 43.28125 13.890625
Q 47.125 21.390625 47.125 36.375
Q 47.125 51.421875 43.28125 58.90625
Q 39.453125 66.40625 31.78125 66.40625
z
M 31.78125 74.21875
Q 44.046875 74.21875 50.515625 64.515625
Q 56.984375 54.828125 56.984375 36.375
Q 56.984375 17.96875 50.515625 8.265625
Q 44.046875 -1.421875 31.78125 -1.421875
Q 19.53125 -1.421875 13.0625 8.265625
Q 6.59375 17.96875 6.59375 36.375
Q 6.59375 54.828125 13.0625 64.515625
Q 19.53125 74.21875 31.78125 74.21875
z
" id="DejaVuSans-30"/>
      </defs>
      <g transform="translate(104.948143 332.638438)scale(0.1 -0.1)">
       <use xlink:href="#DejaVuSans-35"/>
       <use x="63.623047" xlink:href="#DejaVuSans-30"/>
      </g>
     </g>
    </g>
    <g id="xtick_2">
     <g id="line2d_3">
      <path clip-path="url(#p39f98adb5b)" d="M 169.770482 318.04
L 169.770482 61.24
" style="fill:none;stroke:#b0b0b0;stroke-linecap:square;stroke-width:0.8;"/>
     </g>
     <g id="line2d_4">
      <g>
       <use style="stroke:#000000;stroke-width:0.8;" x="169.770482" xlink:href="#m159b2b4fb5" y="318.04"/>
      </g>
     </g>
     <g id="text_2">
      <!-- 100 -->
      <defs>
       <path d="M 12.40625 8.296875
L 28.515625 8.296875
L 28.515625 63.921875
L 10.984375 60.40625
L 10.984375 69.390625
L 28.421875 72.90625
L 38.28125 72.90625
L 38.28125 8.296875
L 54.390625 8.296875
L 54.390625 0
L 12.40625 0
z
" id="DejaVuSans-31"/>
      </defs>
      <g transform="translate(160.226732 332.638438)scale(0.1 -0.1)">
       <use xlink:href="#DejaVuSans-31"/>
       <use x="63.623047" xlink:href="#DejaVuSans-30"/>
       <use x="127.246094" xlink:href="#DejaVuSans-30"/>
      </g>
     </g>
    </g>
    <g id="xtick_3">
     <g id="line2d_5">
      <path clip-path="url(#p39f98adb5b)" d="M 228.230321 318.04
L 228.230321 61.24
" style="fill:none;stroke:#b0b0b0;stroke-linecap:square;stroke-width:0.8;"/>
     </g>
     <g id="line2d_6">
      <g>
       <use style="stroke:#000000;stroke-width:0.8;" x="228.230321" xlink:href="#m159b2b4fb5" y="318.04"/>
      </g>
     </g>
     <g id="text_3">
      <!-- 150 -->
      <g transform="translate(218.686571 332.638438)scale(0.1 -0.1)">
       <use xlink:href="#DejaVuSans-31"/>
       <use x="63.623047" xlink:href="#DejaVuSans-35"/>
       <use x="127.246094" xlink:href="#DejaVuSans-30"/>
      </g>
     </g>
    </g>
    <g id="xtick_4">
     <g id="line2d_7">
      <path clip-path="url(#p39f98adb5b)" d="M 286.690161 318.04
L 286.690161 61.24
" style="fill:none;stroke:#b0b0b0;stroke-linecap:square;stroke-width:0.8;"/>
     </g>
     <g id="line2d_8">
      <g>
       <use style="stroke:#000000;stroke-width:0.8;" x="286.690161" xlink:href="#m159b2b4fb5" y="318.04"/>
      </g>
     </g>
     <g id="text_4">
      <!-- 200 -->
      <defs>
       <path d="M 19.1875 8.296875
L 53.609375 8.296875
L 53.609375 0
L 7.328125 0
L 7.328125 8.296875
Q 12.9375 14.109375 22.625 23.890625
Q 32.328125 33.6875 34.8125 36.53125
Q 39.546875 41.84375 41.421875 45.53125
Q 43.3125 49.21875 43.3125 52.78125
Q 43.3125 58.59375 39.234375 62.25
Q 35.15625 65.921875 28.609375 65.921875
Q 23.96875 65.921875 18.8125 64.3125
Q 13.671875 62.703125 7.8125 59.421875
L 7.8125 69.390625
Q 13.765625 71.78125 18.9375 73
Q 24.125 74.21875 28.421875 74.21875
Q 39.75 74.21875 46.484375 68.546875
Q 53.21875 62.890625 53.21875 53.421875
Q 53.21875 48.921875 51.53125 44.890625
Q 49.859375 40.875 45.40625 35.40625
Q 44.1875 33.984375 37.640625 27.21875
Q 31.109375 20.453125 19.1875 8.296875
z
" id="DejaVuSans-32"/>
      </defs>
      <g transform="translate(277.146411 332.638438)scale(0.1 -0.1)">
       <use xlink:href="#DejaVuSans-32"/>
       <use x="63.623047" xlink:href="#DejaVuSans-30"/>
       <use x="127.246094" xlink:href="#DejaVuSans-30"/>
      </g>
     </g>
    </g>
    <g id="xtick_5">
     <g id="line2d_9">
      <path clip-path="url(#p39f98adb5b)" d="M 345.15 318.04
L 345.15 61.24
" style="fill:none;stroke:#b0b0b0;stroke-linecap:square;stroke-width:0.8;"/>
     </g>
     <g id="line2d_10">
      <g>
       <use style="stroke:#000000;stroke-width:0.8;" x="345.15" xlink:href="#m159b2b4fb5" y="318.04"/>
      </g>
     </g>
     <g id="text_5">
      <!-- 250 -->
      <g transform="translate(335.60625 332.638438)scale(0.1 -0.1)">
       <use xlink:href="#DejaVuSans-32"/>
       <use x="63.623047" xlink:href="#DejaVuSans-35"/>
       <use x="127.246094" xlink:href="#DejaVuSans-30"/>
      </g>
     </g>
    </g>
    <g id="text_6">
     <!-- Trial number -->
     <defs>
      <path d="M -0.296875 72.90625
L 61.375 72.90625
L 61.375 64.59375
L 35.5 64.59375
L 35.5 0
L 25.59375 0
L 25.59375 64.59375
L -0.296875 64.59375
z
" id="DejaVuSans-54"/>
      <path d="M 41.109375 46.296875
Q 39.59375 47.171875 37.8125 47.578125
Q 36.03125 48 33.890625 48
Q 26.265625 48 22.1875 43.046875
Q 18.109375 38.09375 18.109375 28.8125
L 18.109375 0
L 9.078125 0
L 9.078125 54.6875
L 18.109375 54.6875
L 18.109375 46.1875
Q 20.953125 51.171875 25.484375 53.578125
Q 30.03125 56 36.53125 56
Q 37.453125 56 38.578125 55.875
Q 39.703125 55.765625 41.0625 55.515625
z
" id="DejaVuSans-72"/>
      <path d="M 9.421875 54.6875
L 18.40625 54.6875
L 18.40625 0
L 9.421875 0
z
M 9.421875 75.984375
L 18.40625 75.984375
L 18.40625 64.59375
L 9.421875 64.59375
z
" id="DejaVuSans-69"/>
      <path d="M 34.28125 27.484375
Q 23.390625 27.484375 19.1875 25
Q 14.984375 22.515625 14.984375 16.5
Q 14.984375 11.71875 18.140625 8.90625
Q 21.296875 6.109375 26.703125 6.109375
Q 34.1875 6.109375 38.703125 11.40625
Q 43.21875 16.703125 43.21875 25.484375
L 43.21875 27.484375
z
M 52.203125 31.203125
L 52.203125 0
L 43.21875 0
L 43.21875 8.296875
Q 40.140625 3.328125 35.546875 0.953125
Q 30.953125 -1.421875 24.3125 -1.421875
Q 15.921875 -1.421875 10.953125 3.296875
Q 6 8.015625 6 15.921875
Q 6 25.140625 12.171875 29.828125
Q 18.359375 34.515625 30.609375 34.515625
L 43.21875 34.515625
L 43.21875 35.40625
Q 43.21875 41.609375 39.140625 45
Q 35.0625 48.390625 27.6875 48.390625
Q 23 48.390625 18.546875 47.265625
Q 14.109375 46.140625 10.015625 43.890625
L 10.015625 52.203125
Q 14.9375 54.109375 19.578125 55.046875
Q 24.21875 56 28.609375 56
Q 40.484375 56 46.34375 49.84375
Q 52.203125 43.703125 52.203125 31.203125
z
" id="DejaVuSans-61"/>
      <path d="M 9.421875 75.984375
L 18.40625 75.984375
L 18.40625 0
L 9.421875 0
z
" id="DejaVuSans-6c"/>
      <path id="DejaVuSans-20"/>
      <path d="M 54.890625 33.015625
L 54.890625 0
L 45.90625 0
L 45.90625 32.71875
Q 45.90625 40.484375 42.875 44.328125
Q 39.84375 48.1875 33.796875 48.1875
Q 26.515625 48.1875 22.3125 43.546875
Q 18.109375 38.921875 18.109375 30.90625
L 18.109375 0
L 9.078125 0
L 9.078125 54.6875
L 18.109375 54.6875
L 18.109375 46.1875
Q 21.34375 51.125 25.703125 53.5625
Q 30.078125 56 35.796875 56
Q 45.21875 56 50.046875 50.171875
Q 54.890625 44.34375 54.890625 33.015625
z
" id="DejaVuSans-6e"/>
      <path d="M 8.5 21.578125
L 8.5 54.6875
L 17.484375 54.6875
L 17.484375 21.921875
Q 17.484375 14.15625 20.5 10.265625
Q 23.53125 6.390625 29.59375 6.390625
Q 36.859375 6.390625 41.078125 11.03125
Q 45.3125 15.671875 45.3125 23.6875
L 45.3125 54.6875
L 54.296875 54.6875
L 54.296875 0
L 45.3125 0
L 45.3125 8.40625
Q 42.046875 3.421875 37.71875 1
Q 33.40625 -1.421875 27.6875 -1.421875
Q 18.265625 -1.421875 13.375 4.4375
Q 8.5 10.296875 8.5 21.578125
z
M 31.109375 56
z
" id="DejaVuSans-75"/>
      <path d="M 52 44.1875
Q 55.375 50.25 60.0625 53.125
Q 64.75 56 71.09375 56
Q 79.640625 56 84.28125 50.015625
Q 88.921875 44.046875 88.921875 33.015625
L 88.921875 0
L 79.890625 0
L 79.890625 32.71875
Q 79.890625 40.578125 77.09375 44.375
Q 74.3125 48.1875 68.609375 48.1875
Q 61.625 48.1875 57.5625 43.546875
Q 53.515625 38.921875 53.515625 30.90625
L 53.515625 0
L 44.484375 0
L 44.484375 32.71875
Q 44.484375 40.625 41.703125 44.40625
Q 38.921875 48.1875 33.109375 48.1875
Q 26.21875 48.1875 22.15625 43.53125
Q 18.109375 38.875 18.109375 30.90625
L 18.109375 0
L 9.078125 0
L 9.078125 54.6875
L 18.109375 54.6875
L 18.109375 46.1875
Q 21.1875 51.21875 25.484375 53.609375
Q 29.78125 56 35.6875 56
Q 41.65625 56 45.828125 52.96875
Q 50 49.953125 52 44.1875
z
" id="DejaVuSans-6d"/>
      <path d="M 48.6875 27.296875
Q 48.6875 37.203125 44.609375 42.84375
Q 40.53125 48.484375 33.40625 48.484375
Q 26.265625 48.484375 22.1875 42.84375
Q 18.109375 37.203125 18.109375 27.296875
Q 18.109375 17.390625 22.1875 11.75
Q 26.265625 6.109375 33.40625 6.109375
Q 40.53125 6.109375 44.609375 11.75
Q 48.6875 17.390625 48.6875 27.296875
z
M 18.109375 46.390625
Q 20.953125 51.265625 25.265625 53.625
Q 29.59375 56 35.59375 56
Q 45.5625 56 51.78125 48.09375
Q 58.015625 40.1875 58.015625 27.296875
Q 58.015625 14.40625 51.78125 6.484375
Q 45.5625 -1.421875 35.59375 -1.421875
Q 29.59375 -1.421875 25.265625 0.953125
Q 20.953125 3.328125 18.109375 8.203125
L 18.109375 0
L 9.078125 0
L 9.078125 75.984375
L 18.109375 75.984375
z
" id="DejaVuSans-62"/>
      <path d="M 56.203125 29.59375
L 56.203125 25.203125
L 14.890625 25.203125
Q 15.484375 15.921875 20.484375 11.0625
Q 25.484375 6.203125 34.421875 6.203125
Q 39.59375 6.203125 44.453125 7.46875
Q 49.3125 8.734375 54.109375 11.28125
L 54.109375 2.78125
Q 49.265625 0.734375 44.1875 -0.34375
Q 39.109375 -1.421875 33.890625 -1.421875
Q 20.796875 -1.421875 13.15625 6.1875
Q 5.515625 13.8125 5.515625 26.8125
Q 5.515625 40.234375 12.765625 48.109375
Q 20.015625 56 32.328125 56
Q 43.359375 56 49.78125 48.890625
Q 56.203125 41.796875 56.203125 29.59375
z
M 47.21875 32.234375
Q 47.125 39.59375 43.09375 43.984375
Q 39.0625 48.390625 32.421875 48.390625
Q 24.90625 48.390625 20.390625 44.140625
Q 15.875 39.890625 15.1875 32.171875
z
" id="DejaVuSans-65"/>
     </defs>
     <g transform="translate(167.54125 346.316563)scale(0.1 -0.1)">
      <use xlink:href="#DejaVuSans-54"/>
      <use x="60.865234" xlink:href="#DejaVuSans-72"/>
      <use x="101.978516" xlink:href="#DejaVuSans-69"/>
      <use x="129.761719" xlink:href="#DejaVuSans-61"/>
      <use x="191.041016" xlink:href="#DejaVuSans-6c"/>
      <use x="218.824219" xlink:href="#DejaVuSans-20"/>
      <use x="250.611328" xlink:href="#DejaVuSans-6e"/>
      <use x="313.990234" xlink:href="#DejaVuSans-75"/>
      <use x="377.369141" xlink:href="#DejaVuSans-6d"/>
      <use x="474.78125" xlink:href="#DejaVuSans-62"/>
      <use x="538.257812" xlink:href="#DejaVuSans-65"/>
      <use x="599.78125" xlink:href="#DejaVuSans-72"/>
     </g>
    </g>
   </g>
   <g id="matplotlib.axis_2">
    <g id="ytick_1">
     <g id="line2d_11">
      <path clip-path="url(#p39f98adb5b)" d="M 54.02 305.811429
L 345.15 305.811429
" style="fill:none;stroke:#b0b0b0;stroke-linecap:square;stroke-width:0.8;"/>
     </g>
     <g id="line2d_12">
      <defs>
       <path d="M 0 0
L -3.5 0
" id="m521de0b118" style="stroke:#000000;stroke-width:0.8;"/>
      </defs>
      <g>
       <use style="stroke:#000000;stroke-width:0.8;" x="54.02" xlink:href="#m521de0b118" y="305.811429"/>
      </g>
     </g>
     <g id="text_7">
      <!-- 0.10 -->
      <defs>
       <path d="M 10.6875 12.40625
L 21 12.40625
L 21 0
L 10.6875 0
z
" id="DejaVuSans-2e"/>
      </defs>
      <g transform="translate(24.754375 309.610647)scale(0.1 -0.1)">
       <use xlink:href="#DejaVuSans-30"/>
       <use x="63.623047" xlink:href="#DejaVuSans-2e"/>
       <use x="95.410156" xlink:href="#DejaVuSans-31"/>
       <use x="159.033203" xlink:href="#DejaVuSans-30"/>
      </g>
     </g>
    </g>
    <g id="ytick_2">
     <g id="line2d_13">
      <path clip-path="url(#p39f98adb5b)" d="M 54.02 275.24
L 345.15 275.24
" style="fill:none;stroke:#b0b0b0;stroke-linecap:square;stroke-width:0.8;"/>
     </g>
     <g id="line2d_14">
      <g>
       <use style="stroke:#000000;stroke-width:0.8;" x="54.02" xlink:href="#m521de0b118" y="275.24"/>
      </g>
     </g>
     <g id="text_8">
      <!-- 0.15 -->
      <g transform="translate(24.754375 279.039219)scale(0.1 -0.1)">
       <use xlink:href="#DejaVuSans-30"/>
       <use x="63.623047" xlink:href="#DejaVuSans-2e"/>
       <use x="95.410156" xlink:href="#DejaVuSans-31"/>
       <use x="159.033203" xlink:href="#DejaVuSans-35"/>
      </g>
     </g>
    </g>
    <g id="ytick_3">
     <g id="line2d_15">
      <path clip-path="url(#p39f98adb5b)" d="M 54.02 244.668571
L 345.15 244.668571
" style="fill:none;stroke:#b0b0b0;stroke-linecap:square;stroke-width:0.8;"/>
     </g>
     <g id="line2d_16">
      <g>
       <use style="stroke:#000000;stroke-width:0.8;" x="54.02" xlink:href="#m521de0b118" y="244.668571"/>
      </g>
     </g>
     <g id="text_9">
      <!-- 0.20 -->
      <g transform="translate(24.754375 248.46779)scale(0.1 -0.1)">
       <use xlink:href="#DejaVuSans-30"/>
       <use x="63.623047" xlink:href="#DejaVuSans-2e"/>
       <use x="95.410156" xlink:href="#DejaVuSans-32"/>
       <use x="159.033203" xlink:href="#DejaVuSans-30"/>
      </g>
     </g>
    </g>
    <g id="ytick_4">
     <g id="line2d_17">
      <path clip-path="url(#p39f98adb5b)" d="M 54.02 214.097143
L 345.15 214.097143
" style="fill:none;stroke:#b0b0b0;stroke-linecap:square;stroke-width:0.8;"/>
     </g>
     <g id="line2d_18">
      <g>
       <use style="stroke:#000000;stroke-width:0.8;" x="54.02" xlink:href="#m521de0b118" y="214.097143"/>
      </g>
     </g>
     <g id="text_10">
      <!-- 0.25 -->
      <g transform="translate(24.754375 217.896362)scale(0.1 -0.1)">
       <use xlink:href="#DejaVuSans-30"/>
       <use x="63.623047" xlink:href="#DejaVuSans-2e"/>
       <use x="95.410156" xlink:href="#DejaVuSans-32"/>
       <use x="159.033203" xlink:href="#DejaVuSans-35"/>
      </g>
     </g>
    </g>
    <g id="ytick_5">
     <g id="line2d_19">
      <path clip-path="url(#p39f98adb5b)" d="M 54.02 183.525714
L 345.15 183.525714
" style="fill:none;stroke:#b0b0b0;stroke-linecap:square;stroke-width:0.8;"/>
     </g>
     <g id="line2d_20">
      <g>
       <use style="stroke:#000000;stroke-width:0.8;" x="54.02" xlink:href="#m521de0b118" y="183.525714"/>
      </g>
     </g>
     <g id="text_11">
      <!-- 0.30 -->
      <defs>
       <path d="M 40.578125 39.3125
Q 47.65625 37.796875 51.625 33
Q 55.609375 28.21875 55.609375 21.1875
Q 55.609375 10.40625 48.1875 4.484375
Q 40.765625 -1.421875 27.09375 -1.421875
Q 22.515625 -1.421875 17.65625 -0.515625
Q 12.796875 0.390625 7.625 2.203125
L 7.625 11.71875
Q 11.71875 9.328125 16.59375 8.109375
Q 21.484375 6.890625 26.8125 6.890625
Q 36.078125 6.890625 40.9375 10.546875
Q 45.796875 14.203125 45.796875 21.1875
Q 45.796875 27.640625 41.28125 31.265625
Q 36.765625 34.90625 28.71875 34.90625
L 20.21875 34.90625
L 20.21875 43.015625
L 29.109375 43.015625
Q 36.375 43.015625 40.234375 45.921875
Q 44.09375 48.828125 44.09375 54.296875
Q 44.09375 59.90625 40.109375 62.90625
Q 36.140625 65.921875 28.71875 65.921875
Q 24.65625 65.921875 20.015625 65.03125
Q 15.375 64.15625 9.8125 62.3125
L 9.8125 71.09375
Q 15.4375 72.65625 20.34375 73.4375
Q 25.25 74.21875 29.59375 74.21875
Q 40.828125 74.21875 47.359375 69.109375
Q 53.90625 64.015625 53.90625 55.328125
Q 53.90625 49.265625 50.4375 45.09375
Q 46.96875 40.921875 40.578125 39.3125
z
" id="DejaVuSans-33"/>
      </defs>
      <g transform="translate(24.754375 187.324933)scale(0.1 -0.1)">
       <use xlink:href="#DejaVuSans-30"/>
       <use x="63.623047" xlink:href="#DejaVuSans-2e"/>
       <use x="95.410156" xlink:href="#DejaVuSans-33"/>
       <use x="159.033203" xlink:href="#DejaVuSans-30"/>
      </g>
     </g>
    </g>
    <g id="ytick_6">
     <g id="line2d_21">
      <path clip-path="url(#p39f98adb5b)" d="M 54.02 152.954286
L 345.15 152.954286
" style="fill:none;stroke:#b0b0b0;stroke-linecap:square;stroke-width:0.8;"/>
     </g>
     <g id="line2d_22">
      <g>
       <use style="stroke:#000000;stroke-width:0.8;" x="54.02" xlink:href="#m521de0b118" y="152.954286"/>
      </g>
     </g>
     <g id="text_12">
      <!-- 0.35 -->
      <g transform="translate(24.754375 156.753504)scale(0.1 -0.1)">
       <use xlink:href="#DejaVuSans-30"/>
       <use x="63.623047" xlink:href="#DejaVuSans-2e"/>
       <use x="95.410156" xlink:href="#DejaVuSans-33"/>
       <use x="159.033203" xlink:href="#DejaVuSans-35"/>
      </g>
     </g>
    </g>
    <g id="ytick_7">
     <g id="line2d_23">
      <path clip-path="url(#p39f98adb5b)" d="M 54.02 122.382857
L 345.15 122.382857
" style="fill:none;stroke:#b0b0b0;stroke-linecap:square;stroke-width:0.8;"/>
     </g>
     <g id="line2d_24">
      <g>
       <use style="stroke:#000000;stroke-width:0.8;" x="54.02" xlink:href="#m521de0b118" y="122.382857"/>
      </g>
     </g>
     <g id="text_13">
      <!-- 0.40 -->
      <defs>
       <path d="M 37.796875 64.3125
L 12.890625 25.390625
L 37.796875 25.390625
z
M 35.203125 72.90625
L 47.609375 72.90625
L 47.609375 25.390625
L 58.015625 25.390625
L 58.015625 17.1875
L 47.609375 17.1875
L 47.609375 0
L 37.796875 0
L 37.796875 17.1875
L 4.890625 17.1875
L 4.890625 26.703125
z
" id="DejaVuSans-34"/>
      </defs>
      <g transform="translate(24.754375 126.182076)scale(0.1 -0.1)">
       <use xlink:href="#DejaVuSans-30"/>
       <use x="63.623047" xlink:href="#DejaVuSans-2e"/>
       <use x="95.410156" xlink:href="#DejaVuSans-34"/>
       <use x="159.033203" xlink:href="#DejaVuSans-30"/>
      </g>
     </g>
    </g>
    <g id="ytick_8">
     <g id="line2d_25">
      <path clip-path="url(#p39f98adb5b)" d="M 54.02 91.811429
L 345.15 91.811429
" style="fill:none;stroke:#b0b0b0;stroke-linecap:square;stroke-width:0.8;"/>
     </g>
     <g id="line2d_26">
      <g>
       <use style="stroke:#000000;stroke-width:0.8;" x="54.02" xlink:href="#m521de0b118" y="91.811429"/>
      </g>
     </g>
     <g id="text_14">
      <!-- 0.45 -->
      <g transform="translate(24.754375 95.610647)scale(0.1 -0.1)">
       <use xlink:href="#DejaVuSans-30"/>
       <use x="63.623047" xlink:href="#DejaVuSans-2e"/>
       <use x="95.410156" xlink:href="#DejaVuSans-34"/>
       <use x="159.033203" xlink:href="#DejaVuSans-35"/>
      </g>
     </g>
    </g>
    <g id="ytick_9">
     <g id="line2d_27">
      <path clip-path="url(#p39f98adb5b)" d="M 54.02 61.24
L 345.15 61.24
" style="fill:none;stroke:#b0b0b0;stroke-linecap:square;stroke-width:0.8;"/>
     </g>
     <g id="line2d_28">
      <g>
       <use style="stroke:#000000;stroke-width:0.8;" x="54.02" xlink:href="#m521de0b118" y="61.24"/>
      </g>
     </g>
     <g id="text_15">
      <!-- 0.50 -->
      <g transform="translate(24.754375 65.039219)scale(0.1 -0.1)">
       <use xlink:href="#DejaVuSans-30"/>
       <use x="63.623047" xlink:href="#DejaVuSans-2e"/>
       <use x="95.410156" xlink:href="#DejaVuSans-35"/>
       <use x="159.033203" xlink:href="#DejaVuSans-30"/>
      </g>
     </g>
    </g>
    <g id="text_16">
     <!-- Proportion of task selection -->
     <defs>
      <path d="M 19.671875 64.796875
L 19.671875 37.40625
L 32.078125 37.40625
Q 38.96875 37.40625 42.71875 40.96875
Q 46.484375 44.53125 46.484375 51.125
Q 46.484375 57.671875 42.71875 61.234375
Q 38.96875 64.796875 32.078125 64.796875
z
M 9.8125 72.90625
L 32.078125 72.90625
Q 44.34375 72.90625 50.609375 67.359375
Q 56.890625 61.8125 56.890625 51.125
Q 56.890625 40.328125 50.609375 34.8125
Q 44.34375 29.296875 32.078125 29.296875
L 19.671875 29.296875
L 19.671875 0
L 9.8125 0
z
" id="DejaVuSans-50"/>
      <path d="M 30.609375 48.390625
Q 23.390625 48.390625 19.1875 42.75
Q 14.984375 37.109375 14.984375 27.296875
Q 14.984375 17.484375 19.15625 11.84375
Q 23.34375 6.203125 30.609375 6.203125
Q 37.796875 6.203125 41.984375 11.859375
Q 46.1875 17.53125 46.1875 27.296875
Q 46.1875 37.015625 41.984375 42.703125
Q 37.796875 48.390625 30.609375 48.390625
z
M 30.609375 56
Q 42.328125 56 49.015625 48.375
Q 55.71875 40.765625 55.71875 27.296875
Q 55.71875 13.875 49.015625 6.21875
Q 42.328125 -1.421875 30.609375 -1.421875
Q 18.84375 -1.421875 12.171875 6.21875
Q 5.515625 13.875 5.515625 27.296875
Q 5.515625 40.765625 12.171875 48.375
Q 18.84375 56 30.609375 56
z
" id="DejaVuSans-6f"/>
      <path d="M 18.109375 8.203125
L 18.109375 -20.796875
L 9.078125 -20.796875
L 9.078125 54.6875
L 18.109375 54.6875
L 18.109375 46.390625
Q 20.953125 51.265625 25.265625 53.625
Q 29.59375 56 35.59375 56
Q 45.5625 56 51.78125 48.09375
Q 58.015625 40.1875 58.015625 27.296875
Q 58.015625 14.40625 51.78125 6.484375
Q 45.5625 -1.421875 35.59375 -1.421875
Q 29.59375 -1.421875 25.265625 0.953125
Q 20.953125 3.328125 18.109375 8.203125
z
M 48.6875 27.296875
Q 48.6875 37.203125 44.609375 42.84375
Q 40.53125 48.484375 33.40625 48.484375
Q 26.265625 48.484375 22.1875 42.84375
Q 18.109375 37.203125 18.109375 27.296875
Q 18.109375 17.390625 22.1875 11.75
Q 26.265625 6.109375 33.40625 6.109375
Q 40.53125 6.109375 44.609375 11.75
Q 48.6875 17.390625 48.6875 27.296875
z
" id="DejaVuSans-70"/>
      <path d="M 18.3125 70.21875
L 18.3125 54.6875
L 36.8125 54.6875
L 36.8125 47.703125
L 18.3125 47.703125
L 18.3125 18.015625
Q 18.3125 11.328125 20.140625 9.421875
Q 21.96875 7.515625 27.59375 7.515625
L 36.8125 7.515625
L 36.8125 0
L 27.59375 0
Q 17.1875 0 13.234375 3.875
Q 9.28125 7.765625 9.28125 18.015625
L 9.28125 47.703125
L 2.6875 47.703125
L 2.6875 54.6875
L 9.28125 54.6875
L 9.28125 70.21875
z
" id="DejaVuSans-74"/>
      <path d="M 37.109375 75.984375
L 37.109375 68.5
L 28.515625 68.5
Q 23.6875 68.5 21.796875 66.546875
Q 19.921875 64.59375 19.921875 59.515625
L 19.921875 54.6875
L 34.71875 54.6875
L 34.71875 47.703125
L 19.921875 47.703125
L 19.921875 0
L 10.890625 0
L 10.890625 47.703125
L 2.296875 47.703125
L 2.296875 54.6875
L 10.890625 54.6875
L 10.890625 58.5
Q 10.890625 67.625 15.140625 71.796875
Q 19.390625 75.984375 28.609375 75.984375
z
" id="DejaVuSans-66"/>
      <path d="M 44.28125 53.078125
L 44.28125 44.578125
Q 40.484375 46.53125 36.375 47.5
Q 32.28125 48.484375 27.875 48.484375
Q 21.1875 48.484375 17.84375 46.4375
Q 14.5 44.390625 14.5 40.28125
Q 14.5 37.15625 16.890625 35.375
Q 19.28125 33.59375 26.515625 31.984375
L 29.59375 31.296875
Q 39.15625 29.25 43.1875 25.515625
Q 47.21875 21.78125 47.21875 15.09375
Q 47.21875 7.46875 41.1875 3.015625
Q 35.15625 -1.421875 24.609375 -1.421875
Q 20.21875 -1.421875 15.453125 -0.5625
Q 10.6875 0.296875 5.421875 2
L 5.421875 11.28125
Q 10.40625 8.6875 15.234375 7.390625
Q 20.0625 6.109375 24.8125 6.109375
Q 31.15625 6.109375 34.5625 8.28125
Q 37.984375 10.453125 37.984375 14.40625
Q 37.984375 18.0625 35.515625 20.015625
Q 33.0625 21.96875 24.703125 23.78125
L 21.578125 24.515625
Q 13.234375 26.265625 9.515625 29.90625
Q 5.8125 33.546875 5.8125 39.890625
Q 5.8125 47.609375 11.28125 51.796875
Q 16.75 56 26.8125 56
Q 31.78125 56 36.171875 55.265625
Q 40.578125 54.546875 44.28125 53.078125
z
" id="DejaVuSans-73"/>
      <path d="M 9.078125 75.984375
L 18.109375 75.984375
L 18.109375 31.109375
L 44.921875 54.6875
L 56.390625 54.6875
L 27.390625 29.109375
L 57.625 0
L 45.90625 0
L 18.109375 26.703125
L 18.109375 0
L 9.078125 0
z
" id="DejaVuSans-6b"/>
      <path d="M 48.78125 52.59375
L 48.78125 44.1875
Q 44.96875 46.296875 41.140625 47.34375
Q 37.3125 48.390625 33.40625 48.390625
Q 24.65625 48.390625 19.8125 42.84375
Q 14.984375 37.3125 14.984375 27.296875
Q 14.984375 17.28125 19.8125 11.734375
Q 24.65625 6.203125 33.40625 6.203125
Q 37.3125 6.203125 41.140625 7.25
Q 44.96875 8.296875 48.78125 10.40625
L 48.78125 2.09375
Q 45.015625 0.34375 40.984375 -0.53125
Q 36.96875 -1.421875 32.421875 -1.421875
Q 20.0625 -1.421875 12.78125 6.34375
Q 5.515625 14.109375 5.515625 27.296875
Q 5.515625 40.671875 12.859375 48.328125
Q 20.21875 56 33.015625 56
Q 37.15625 56 41.109375 55.140625
Q 45.0625 54.296875 48.78125 52.59375
z
" id="DejaVuSans-63"/>
     </defs>
     <g transform="translate(18.674688 258.218125)rotate(-90)scale(0.1 -0.1)">
      <use xlink:href="#DejaVuSans-50"/>
      <use x="60.287109" xlink:href="#DejaVuSans-72"/>
      <use x="101.369141" xlink:href="#DejaVuSans-6f"/>
      <use x="162.550781" xlink:href="#DejaVuSans-70"/>
      <use x="226.027344" xlink:href="#DejaVuSans-6f"/>
      <use x="287.208984" xlink:href="#DejaVuSans-72"/>
      <use x="328.322266" xlink:href="#DejaVuSans-74"/>
      <use x="367.53125" xlink:href="#DejaVuSans-69"/>
      <use x="395.314453" xlink:href="#DejaVuSans-6f"/>
      <use x="456.496094" xlink:href="#DejaVuSans-6e"/>
      <use x="519.875" xlink:href="#DejaVuSans-20"/>
      <use x="551.662109" xlink:href="#DejaVuSans-6f"/>
      <use x="612.84375" xlink:href="#DejaVuSans-66"/>
      <use x="648.048828" xlink:href="#DejaVuSans-20"/>
      <use x="679.835938" xlink:href="#DejaVuSans-74"/>
      <use x="719.044922" xlink:href="#DejaVuSans-61"/>
      <use x="780.324219" xlink:href="#DejaVuSans-73"/>
      <use x="832.423828" xlink:href="#DejaVuSans-6b"/>
      <use x="890.333984" xlink:href="#DejaVuSans-20"/>
      <use x="922.121094" xlink:href="#DejaVuSans-73"/>
      <use x="974.220703" xlink:href="#DejaVuSans-65"/>
      <use x="1035.744141" xlink:href="#DejaVuSans-6c"/>
      <use x="1063.527344" xlink:href="#DejaVuSans-65"/>
      <use x="1125.050781" xlink:href="#DejaVuSans-63"/>
      <use x="1180.03125" xlink:href="#DejaVuSans-74"/>
      <use x="1219.240234" xlink:href="#DejaVuSans-69"/>
      <use x="1247.023438" xlink:href="#DejaVuSans-6f"/>
      <use x="1308.205078" xlink:href="#DejaVuSans-6e"/>
     </g>
    </g>
   </g>
   <g id="line2d_29">
    <path clip-path="url(#p39f98adb5b)" d="M 52.850803 156.52757
L 54.02 152.557254
L 61.035181 152.557254
L 62.204378 148.586939
L 63.373574 136.675993
L 64.542771 136.675993
L 65.711968 128.735362
L 66.881165 128.735362
L 68.050361 148.586939
L 69.219558 164.4682
L 70.388755 164.4682
L 71.557952 172.408831
L 72.727149 184.319777
L 73.896345 180.349462
L 75.065542 180.349462
L 77.403936 204.171354
L 80.911526 192.260408
L 82.080723 204.171354
L 83.24992 208.14167
L 84.419116 200.201039
L 86.75751 200.201039
L 87.926707 208.14167
L 90.2651 200.201039
L 91.434297 192.260408
L 92.603494 200.201039
L 94.941888 200.201039
L 96.111084 192.260408
L 98.449478 184.319777
L 101.957068 184.319777
L 103.126265 192.260408
L 106.633855 192.260408
L 107.803052 196.230724
L 108.972249 196.230724
L 110.141446 192.260408
L 112.479839 216.082301
L 113.649036 231.963562
L 114.818233 231.963562
L 115.98743 235.933878
L 117.156627 227.993247
L 118.325823 235.933878
L 120.664217 235.933878
L 121.833414 231.963562
L 125.341004 231.963562
L 126.510201 243.874508
L 130.017791 243.874508
L 131.186988 247.844824
L 132.356185 247.844824
L 133.525382 251.815139
L 135.863775 235.933878
L 139.371365 235.933878
L 140.540562 224.022931
L 141.709759 224.022931
L 142.878956 227.993247
L 144.048153 235.933878
L 145.217349 251.815139
L 146.386546 243.874508
L 147.555743 247.844824
L 149.894137 247.844824
L 151.063333 251.815139
L 152.23253 251.815139
L 153.401727 247.844824
L 154.570924 235.933878
L 155.74012 231.963562
L 156.909317 216.082301
L 158.078514 208.14167
L 160.416908 208.14167
L 161.586104 192.260408
L 162.755301 192.260408
L 163.924498 180.349462
L 165.093695 172.408831
L 166.262892 172.408831
L 167.432088 180.349462
L 168.601285 180.349462
L 169.770482 176.379147
L 170.939679 188.290093
L 172.108876 180.349462
L 173.278072 188.290093
L 174.447269 192.260408
L 175.616466 184.319777
L 176.785663 184.319777
L 177.954859 188.290093
L 179.124056 188.290093
L 180.293253 184.319777
L 184.97004 200.201039
L 186.139237 208.14167
L 187.308434 212.111985
L 188.477631 208.14167
L 189.646827 212.111985
L 190.816024 200.201039
L 193.154418 200.201039
L 194.323614 188.290093
L 195.492811 180.349462
L 196.662008 188.290093
L 197.831205 176.379147
L 199.000402 180.349462
L 200.169598 176.379147
L 202.507992 192.260408
L 206.015582 180.349462
L 207.184779 168.438516
L 208.353976 172.408831
L 209.523173 172.408831
L 210.692369 168.438516
L 211.861566 168.438516
L 213.030763 164.4682
L 214.19996 168.438516
L 215.369157 164.4682
L 216.538353 164.4682
L 218.876747 180.349462
L 220.045944 184.319777
L 221.215141 176.379147
L 223.553534 184.319777
L 224.722731 192.260408
L 225.891928 192.260408
L 227.061124 196.230724
L 228.230321 204.171354
L 230.568715 212.111985
L 232.907108 212.111985
L 234.076305 220.052616
L 236.414699 220.052616
L 238.753092 204.171354
L 239.922289 200.201039
L 241.091486 208.14167
L 242.260683 204.171354
L 243.42988 204.171354
L 244.599076 200.201039
L 246.93747 216.082301
L 248.106667 212.111985
L 249.275863 216.082301
L 250.44506 216.082301
L 251.614257 212.111985
L 252.783454 224.022931
L 253.952651 227.993247
L 255.121847 227.993247
L 256.291044 224.022931
L 257.460241 224.022931
L 258.629438 216.082301
L 259.798635 216.082301
L 260.967831 212.111985
L 263.306225 212.111985
L 264.475422 216.082301
L 265.644618 200.201039
L 266.813815 196.230724
L 267.983012 196.230724
L 269.152209 192.260408
L 273.828996 192.260408
L 274.998193 196.230724
L 276.16739 208.14167
L 277.336586 204.171354
L 278.505783 196.230724
L 279.67498 196.230724
L 280.844177 188.290093
L 282.013373 188.290093
L 283.18257 184.319777
L 284.351767 176.379147
L 285.520964 176.379147
L 286.690161 172.408831
L 287.859357 180.349462
L 289.028554 180.349462
L 291.366948 188.290093
L 293.705341 172.408831
L 294.874538 172.408831
L 296.043735 176.379147
L 297.212932 172.408831
L 298.382129 160.497885
L 301.889719 160.497885
L 303.058916 152.557254
L 306.566506 152.557254
L 307.735703 160.497885
L 308.9049 156.52757
L 310.074096 148.586939
L 312.41249 148.586939
L 313.581687 152.557254
L 314.750884 148.586939
L 317.089277 148.586939
L 318.258474 156.52757
L 319.427671 156.52757
L 320.596867 160.497885
L 322.935261 152.557254
L 324.104458 160.497885
L 325.273655 156.52757
L 326.442851 148.586939
L 327.612048 148.586939
L 328.781245 140.646308
L 329.950442 140.646308
L 331.119639 136.675993
L 332.288835 136.675993
L 333.458032 140.646308
L 335.796426 140.646308
L 336.965622 148.586939
L 338.134819 148.586939
L 339.304016 144.616623
L 343.980803 144.616623
L 343.980803 144.616623
" style="fill:none;stroke:#43799d;stroke-linecap:square;stroke-width:1.5;"/>
   </g>
   <g id="line2d_30">
    <path clip-path="url(#p39f98adb5b)" d="M 52.850803 220.052616
L 55.189197 220.052616
L 56.358394 216.082301
L 58.696787 216.082301
L 59.865984 208.14167
L 65.711968 227.993247
L 68.050361 220.052616
L 69.219558 220.052616
L 70.388755 224.022931
L 71.557952 235.933878
L 72.727149 243.874508
L 73.896345 239.904193
L 75.065542 251.815139
L 76.234739 247.844824
L 77.403936 247.844824
L 78.573133 255.785455
L 80.911526 255.785455
L 83.24992 247.844824
L 84.419116 251.815139
L 85.588313 259.75577
L 86.75751 251.815139
L 87.926707 247.844824
L 91.434297 247.844824
L 92.603494 235.933878
L 93.772691 235.933878
L 94.941888 231.963562
L 96.111084 231.963562
L 97.280281 243.874508
L 99.618675 243.874508
L 100.787871 247.844824
L 103.126265 224.022931
L 104.295462 227.993247
L 105.464659 227.993247
L 106.633855 212.111985
L 110.141446 212.111985
L 111.310643 216.082301
L 112.479839 212.111985
L 113.649036 196.230724
L 114.818233 196.230724
L 115.98743 200.201039
L 118.325823 200.201039
L 120.664217 192.260408
L 121.833414 196.230724
L 124.171807 196.230724
L 125.341004 200.201039
L 128.848594 188.290093
L 130.017791 196.230724
L 132.356185 188.290093
L 134.694578 188.290093
L 135.863775 196.230724
L 138.202169 188.290093
L 139.371365 192.260408
L 140.540562 204.171354
L 141.709759 204.171354
L 144.048153 196.230724
L 145.217349 180.349462
L 146.386546 188.290093
L 147.555743 184.319777
L 148.72494 184.319777
L 149.894137 192.260408
L 151.063333 184.319777
L 152.23253 184.319777
L 153.401727 196.230724
L 155.74012 196.230724
L 156.909317 204.171354
L 158.078514 204.171354
L 159.247711 216.082301
L 160.416908 216.082301
L 161.586104 227.993247
L 162.755301 220.052616
L 163.924498 220.052616
L 165.093695 231.963562
L 166.262892 235.933878
L 167.432088 231.963562
L 169.770482 231.963562
L 170.939679 227.993247
L 172.108876 231.963562
L 173.278072 227.993247
L 174.447269 220.052616
L 175.616466 224.022931
L 176.785663 224.022931
L 177.954859 216.082301
L 179.124056 216.082301
L 180.293253 208.14167
L 181.46245 212.111985
L 183.800843 212.111985
L 187.308434 200.201039
L 189.646827 208.14167
L 190.816024 204.171354
L 191.985221 204.171354
L 193.154418 208.14167
L 194.323614 208.14167
L 195.492811 220.052616
L 197.831205 220.052616
L 200.169598 212.111985
L 201.338795 200.201039
L 202.507992 200.201039
L 207.184779 231.963562
L 211.861566 231.963562
L 215.369157 243.874508
L 216.538353 239.904193
L 218.876747 239.904193
L 223.553534 224.022931
L 224.722731 216.082301
L 225.891928 212.111985
L 227.061124 220.052616
L 229.399518 212.111985
L 235.245502 212.111985
L 236.414699 220.052616
L 237.583896 235.933878
L 238.753092 235.933878
L 239.922289 239.904193
L 241.091486 239.904193
L 242.260683 247.844824
L 244.599076 247.844824
L 245.768273 239.904193
L 246.93747 235.933878
L 248.106667 227.993247
L 249.275863 235.933878
L 250.44506 227.993247
L 253.952651 216.082301
L 255.121847 220.052616
L 256.291044 220.052616
L 257.460241 224.022931
L 259.798635 224.022931
L 260.967831 227.993247
L 263.306225 227.993247
L 265.644618 220.052616
L 266.813815 212.111985
L 269.152209 212.111985
L 270.321406 216.082301
L 271.490602 227.993247
L 272.659799 227.993247
L 273.828996 231.963562
L 274.998193 227.993247
L 276.16739 220.052616
L 278.505783 235.933878
L 279.67498 235.933878
L 280.844177 239.904193
L 282.013373 235.933878
L 283.18257 235.933878
L 284.351767 227.993247
L 285.520964 231.963562
L 286.690161 227.993247
L 287.859357 227.993247
L 289.028554 235.933878
L 290.197751 231.963562
L 291.366948 224.022931
L 293.705341 231.963562
L 296.043735 224.022931
L 297.212932 227.993247
L 298.382129 243.874508
L 299.551325 247.844824
L 303.058916 247.844824
L 305.397309 255.785455
L 307.735703 255.785455
L 308.9049 251.815139
L 310.074096 259.75577
L 311.243293 263.726085
L 312.41249 263.726085
L 314.750884 255.785455
L 317.089277 239.904193
L 318.258474 235.933878
L 319.427671 243.874508
L 320.596867 239.904193
L 321.766064 247.844824
L 322.935261 247.844824
L 324.104458 239.904193
L 326.442851 247.844824
L 327.612048 247.844824
L 329.950442 239.904193
L 332.288835 239.904193
L 333.458032 235.933878
L 334.627229 235.933878
L 338.134819 224.022931
L 339.304016 231.963562
L 340.473213 235.933878
L 341.64241 235.933878
L 342.811606 231.963562
L 343.980803 231.963562
L 343.980803 231.963562
" style="fill:none;stroke:#cc5b46;stroke-linecap:square;stroke-width:1.5;"/>
   </g>
   <g id="line2d_31">
    <path clip-path="url(#p39f98adb5b)" d="M 52.850803 216.082301
L 54.02 220.052616
L 55.189197 220.052616
L 56.358394 224.022931
L 59.865984 224.022931
L 61.035181 216.082301
L 62.204378 216.082301
L 64.542771 224.022931
L 65.711968 231.963562
L 66.881165 235.933878
L 68.050361 224.022931
L 69.219558 224.022931
L 70.388755 220.052616
L 71.557952 208.14167
L 72.727149 204.171354
L 73.896345 212.111985
L 75.065542 200.201039
L 78.573133 188.290093
L 80.911526 196.230724
L 82.080723 196.230724
L 83.24992 204.171354
L 84.419116 200.201039
L 89.095904 200.201039
L 91.434297 216.082301
L 92.603494 220.052616
L 93.772691 212.111985
L 94.941888 212.111985
L 96.111084 216.082301
L 97.280281 216.082301
L 98.449478 224.022931
L 99.618675 227.993247
L 100.787871 224.022931
L 103.126265 231.963562
L 104.295462 224.022931
L 105.464659 220.052616
L 107.803052 227.993247
L 111.310643 216.082301
L 112.479839 208.14167
L 113.649036 212.111985
L 114.818233 208.14167
L 115.98743 200.201039
L 117.156627 204.171354
L 118.325823 196.230724
L 119.49502 204.171354
L 120.664217 192.260408
L 121.833414 196.230724
L 126.510201 196.230724
L 128.848594 212.111985
L 130.017791 208.14167
L 131.186988 212.111985
L 132.356185 212.111985
L 133.525382 200.201039
L 134.694578 200.201039
L 135.863775 192.260408
L 137.032972 196.230724
L 138.202169 192.260408
L 139.371365 192.260408
L 140.540562 196.230724
L 141.709759 196.230724
L 142.878956 192.260408
L 144.048153 192.260408
L 146.386546 200.201039
L 147.555743 208.14167
L 148.72494 208.14167
L 149.894137 196.230724
L 151.063333 196.230724
L 152.23253 192.260408
L 153.401727 192.260408
L 155.74012 200.201039
L 156.909317 200.201039
L 158.078514 208.14167
L 159.247711 200.201039
L 161.586104 200.201039
L 162.755301 212.111985
L 163.924498 220.052616
L 165.093695 208.14167
L 167.432088 208.14167
L 168.601285 204.171354
L 169.770482 212.111985
L 170.939679 216.082301
L 172.108876 224.022931
L 173.278072 227.993247
L 174.447269 224.022931
L 175.616466 227.993247
L 177.954859 227.993247
L 179.124056 231.963562
L 181.46245 231.963562
L 182.631647 227.993247
L 183.800843 220.052616
L 184.97004 220.052616
L 187.308434 204.171354
L 189.646827 196.230724
L 190.816024 208.14167
L 191.985221 204.171354
L 194.323614 220.052616
L 195.492811 212.111985
L 196.662008 212.111985
L 197.831205 220.052616
L 199.000402 224.022931
L 200.169598 224.022931
L 201.338795 227.993247
L 204.846386 216.082301
L 206.015582 220.052616
L 207.184779 227.993247
L 211.861566 227.993247
L 213.030763 224.022931
L 214.19996 227.993247
L 215.369157 227.993247
L 217.70755 220.052616
L 218.876747 220.052616
L 221.215141 235.933878
L 222.384337 235.933878
L 223.553534 243.874508
L 224.722731 235.933878
L 227.061124 235.933878
L 228.230321 243.874508
L 229.399518 243.874508
L 230.568715 251.815139
L 231.737912 255.785455
L 234.076305 247.844824
L 236.414699 247.844824
L 237.583896 243.874508
L 238.753092 251.815139
L 239.922289 251.815139
L 242.260683 259.75577
L 243.42988 255.785455
L 244.599076 255.785455
L 245.768273 247.844824
L 246.93747 243.874508
L 248.106667 251.815139
L 249.275863 239.904193
L 251.614257 247.844824
L 252.783454 231.963562
L 253.952651 243.874508
L 255.121847 247.844824
L 256.291044 247.844824
L 257.460241 235.933878
L 258.629438 239.904193
L 260.967831 231.963562
L 264.475422 231.963562
L 265.644618 243.874508
L 267.983012 243.874508
L 269.152209 247.844824
L 270.321406 239.904193
L 271.490602 239.904193
L 272.659799 243.874508
L 273.828996 235.933878
L 274.998193 224.022931
L 277.336586 216.082301
L 280.844177 227.993247
L 282.013373 235.933878
L 283.18257 231.963562
L 284.351767 235.933878
L 285.520964 235.933878
L 286.690161 243.874508
L 287.859357 243.874508
L 289.028554 251.815139
L 290.197751 251.815139
L 291.366948 247.844824
L 292.536145 251.815139
L 293.705341 247.844824
L 294.874538 251.815139
L 297.212932 251.815139
L 298.382129 255.785455
L 299.551325 251.815139
L 301.889719 259.75577
L 303.058916 255.785455
L 304.228112 247.844824
L 307.735703 235.933878
L 308.9049 247.844824
L 310.074096 251.815139
L 313.581687 251.815139
L 314.750884 263.726085
L 317.089277 271.666716
L 318.258474 263.726085
L 319.427671 259.75577
L 322.935261 259.75577
L 325.273655 251.815139
L 326.442851 251.815139
L 327.612048 243.874508
L 328.781245 255.785455
L 332.288835 255.785455
L 333.458032 259.75577
L 336.965622 259.75577
L 338.134819 263.726085
L 339.304016 263.726085
L 340.473213 259.75577
L 341.64241 259.75577
L 342.811606 255.785455
L 343.980803 255.785455
L 343.980803 255.785455
" style="fill:none;stroke:#ffbb00;stroke-linecap:square;stroke-width:1.5;"/>
   </g>
   <g id="line2d_32">
    <path clip-path="url(#p39f98adb5b)" d="M 52.850803 263.726085
L 58.696787 263.726085
L 59.865984 271.666716
L 61.035181 275.637032
L 62.204378 275.637032
L 63.373574 279.607347
L 64.542771 271.666716
L 65.711968 267.696401
L 66.881165 267.696401
L 68.050361 263.726085
L 69.219558 247.844824
L 70.388755 247.844824
L 71.557952 239.904193
L 72.727149 224.022931
L 75.065542 224.022931
L 76.234739 220.052616
L 77.403936 212.111985
L 80.911526 212.111985
L 83.24992 196.230724
L 84.419116 204.171354
L 85.588313 196.230724
L 86.75751 204.171354
L 87.926707 200.201039
L 89.095904 204.171354
L 90.2651 200.201039
L 92.603494 200.201039
L 93.772691 208.14167
L 96.111084 216.082301
L 97.280281 208.14167
L 99.618675 200.201039
L 100.787871 200.201039
L 101.957068 208.14167
L 103.126265 208.14167
L 105.464659 216.082301
L 106.633855 227.993247
L 107.803052 220.052616
L 108.972249 224.022931
L 110.141446 231.963562
L 111.310643 220.052616
L 112.479839 220.052616
L 113.649036 216.082301
L 114.818233 220.052616
L 115.98743 220.052616
L 117.156627 224.022931
L 118.325823 224.022931
L 119.49502 220.052616
L 120.664217 235.933878
L 121.833414 231.963562
L 124.171807 231.963562
L 125.341004 227.993247
L 126.510201 220.052616
L 131.186988 204.171354
L 132.356185 208.14167
L 135.863775 231.963562
L 137.032972 231.963562
L 138.202169 239.904193
L 140.540562 231.963562
L 141.709759 231.963562
L 142.878956 235.933878
L 146.386546 224.022931
L 147.555743 216.082301
L 148.72494 216.082301
L 152.23253 227.993247
L 153.401727 220.052616
L 154.570924 227.993247
L 155.74012 227.993247
L 156.909317 235.933878
L 158.078514 235.933878
L 159.247711 231.963562
L 160.416908 231.963562
L 161.586104 235.933878
L 162.755301 231.963562
L 163.924498 235.933878
L 165.093695 243.874508
L 167.432088 235.933878
L 168.601285 239.904193
L 169.770482 235.933878
L 170.939679 224.022931
L 172.108876 220.052616
L 173.278072 212.111985
L 174.447269 220.052616
L 176.785663 220.052616
L 177.954859 224.022931
L 179.124056 220.052616
L 180.293253 231.963562
L 181.46245 224.022931
L 182.631647 224.022931
L 183.800843 227.993247
L 184.97004 227.993247
L 186.139237 231.963562
L 187.308434 239.904193
L 188.477631 243.874508
L 189.646827 239.904193
L 191.985221 247.844824
L 193.154418 235.933878
L 195.492811 243.874508
L 196.662008 235.933878
L 197.831205 239.904193
L 199.000402 235.933878
L 200.169598 243.874508
L 201.338795 243.874508
L 202.507992 239.904193
L 204.846386 239.904193
L 206.015582 231.963562
L 208.353976 224.022931
L 209.523173 224.022931
L 210.692369 227.993247
L 211.861566 227.993247
L 213.030763 231.963562
L 214.19996 220.052616
L 215.369157 220.052616
L 216.538353 227.993247
L 217.70755 224.022931
L 220.045944 208.14167
L 221.215141 212.111985
L 222.384337 212.111985
L 223.553534 204.171354
L 224.722731 212.111985
L 225.891928 216.082301
L 228.230321 192.260408
L 229.399518 192.260408
L 230.568715 180.349462
L 231.737912 176.379147
L 232.907108 180.349462
L 234.076305 176.379147
L 235.245502 176.379147
L 236.414699 168.438516
L 237.583896 164.4682
L 239.922289 164.4682
L 241.091486 152.557254
L 242.260683 144.616623
L 244.599076 152.557254
L 245.768273 160.497885
L 246.93747 160.497885
L 248.106667 164.4682
L 249.275863 164.4682
L 251.614257 172.408831
L 252.783454 180.349462
L 253.952651 168.438516
L 255.121847 160.497885
L 256.291044 164.4682
L 257.460241 172.408831
L 260.967831 184.319777
L 264.475422 184.319777
L 265.644618 192.260408
L 266.813815 204.171354
L 269.152209 204.171354
L 270.321406 208.14167
L 271.490602 196.230724
L 272.659799 192.260408
L 273.828996 196.230724
L 274.998193 208.14167
L 277.336586 208.14167
L 279.67498 200.201039
L 280.844177 200.201039
L 282.013373 196.230724
L 283.18257 204.171354
L 284.351767 216.082301
L 285.520964 212.111985
L 286.690161 212.111985
L 287.859357 204.171354
L 289.028554 188.290093
L 290.197751 188.290093
L 291.366948 196.230724
L 292.536145 196.230724
L 293.705341 204.171354
L 297.212932 204.171354
L 298.382129 196.230724
L 299.551325 196.230724
L 301.889719 188.290093
L 303.058916 200.201039
L 304.228112 204.171354
L 305.397309 204.171354
L 306.566506 208.14167
L 311.243293 192.260408
L 313.581687 192.260408
L 314.750884 188.290093
L 318.258474 200.201039
L 319.427671 196.230724
L 320.596867 196.230724
L 321.766064 192.260408
L 326.442851 208.14167
L 327.612048 216.082301
L 328.781245 216.082301
L 331.119639 224.022931
L 332.288835 224.022931
L 333.458032 220.052616
L 334.627229 220.052616
L 335.796426 224.022931
L 336.965622 220.052616
L 338.134819 220.052616
L 339.304016 216.082301
L 341.64241 216.082301
L 342.811606 224.022931
L 343.980803 224.022931
L 343.980803 224.022931
" style="fill:none;stroke:#71bc78;stroke-linecap:square;stroke-width:1.5;"/>
   </g>
   <g id="patch_3">
    <path d="M 54.02 318.04
L 54.02 61.24
" style="fill:none;stroke:#000000;stroke-linecap:square;stroke-linejoin:miter;stroke-width:0.8;"/>
   </g>
   <g id="patch_4">
    <path d="M 54.02 318.04
L 345.15 318.04
" style="fill:none;stroke:#000000;stroke-linecap:square;stroke-linejoin:miter;stroke-width:0.8;"/>
   </g>
   <g id="text_17">
    <!-- Free -->
    <defs>
     <path d="M 9.8125 72.90625
L 51.703125 72.90625
L 51.703125 64.59375
L 19.671875 64.59375
L 19.671875 43.109375
L 48.578125 43.109375
L 48.578125 34.8125
L 19.671875 34.8125
L 19.671875 0
L 9.8125 0
z
" id="DejaVuSans-46"/>
    </defs>
    <g transform="translate(186.292188 55.24)scale(0.12 -0.12)">
     <use xlink:href="#DejaVuSans-46"/>
     <use x="57.410156" xlink:href="#DejaVuSans-72"/>
     <use x="98.492188" xlink:href="#DejaVuSans-65"/>
     <use x="160.015625" xlink:href="#DejaVuSans-65"/>
    </g>
   </g>
   <g id="legend_1">
    <g id="patch_5">
     <path d="M 61.02 32.558125
L 338.15 32.558125
Q 340.15 32.558125 340.15 30.558125
L 340.15 16.88
Q 340.15 14.88 338.15 14.88
L 61.02 14.88
Q 59.02 14.88 59.02 16.88
L 59.02 30.558125
Q 59.02 32.558125 61.02 32.558125
z
" style="fill:#ffffff;opacity:0.8;stroke:#cccccc;stroke-linejoin:miter;"/>
    </g>
    <g id="line2d_33">
     <path d="M 63.02 22.978438
L 83.02 22.978438
" style="fill:none;stroke:#43799d;stroke-linecap:square;stroke-width:1.5;"/>
    </g>
    <g id="line2d_34"/>
    <g id="text_18">
     <!-- 1D -->
     <defs>
      <path d="M 19.671875 64.796875
L 19.671875 8.109375
L 31.59375 8.109375
Q 46.6875 8.109375 53.6875 14.9375
Q 60.6875 21.78125 60.6875 36.53125
Q 60.6875 51.171875 53.6875 57.984375
Q 46.6875 64.796875 31.59375 64.796875
z
M 9.8125 72.90625
L 30.078125 72.90625
Q 51.265625 72.90625 61.171875 64.09375
Q 71.09375 55.28125 71.09375 36.53125
Q 71.09375 17.671875 61.125 8.828125
Q 51.171875 0 30.078125 0
L 9.8125 0
z
" id="DejaVuSans-44"/>
     </defs>
     <g transform="translate(91.02 26.478438)scale(0.1 -0.1)">
      <use xlink:href="#DejaVuSans-31"/>
      <use x="63.623047" xlink:href="#DejaVuSans-44"/>
     </g>
    </g>
    <g id="line2d_35">
     <path d="M 141.430521 22.978438
L 161.430521 22.978438
" style="fill:none;stroke:#cc5b46;stroke-linecap:square;stroke-width:1.5;"/>
    </g>
    <g id="line2d_36"/>
    <g id="text_19">
     <!-- I1D -->
     <defs>
      <path d="M 9.8125 72.90625
L 19.671875 72.90625
L 19.671875 0
L 9.8125 0
z
" id="DejaVuSans-49"/>
     </defs>
     <g transform="translate(169.430521 26.478438)scale(0.1 -0.1)">
      <use xlink:href="#DejaVuSans-49"/>
      <use x="29.492188" xlink:href="#DejaVuSans-31"/>
      <use x="93.115234" xlink:href="#DejaVuSans-44"/>
     </g>
    </g>
    <g id="line2d_37">
     <path d="M 222.791042 22.978438
L 242.791042 22.978438
" style="fill:none;stroke:#ffbb00;stroke-linecap:square;stroke-width:1.5;"/>
    </g>
    <g id="line2d_38"/>
    <g id="text_20">
     <!-- 2D -->
     <g transform="translate(250.791042 26.478438)scale(0.1 -0.1)">
      <use xlink:href="#DejaVuSans-32"/>
      <use x="63.623047" xlink:href="#DejaVuSans-44"/>
     </g>
    </g>
    <g id="line2d_39">
     <path d="M 301.201563 22.978438
L 321.201563 22.978438
" style="fill:none;stroke:#71bc78;stroke-linecap:square;stroke-width:1.5;"/>
    </g>
    <g id="line2d_40"/>
    <g id="text_21">
     <!-- R -->
     <defs>
      <path d="M 44.390625 34.1875
Q 47.5625 33.109375 50.5625 29.59375
Q 53.5625 26.078125 56.59375 19.921875
L 66.609375 0
L 56 0
L 46.6875 18.703125
Q 43.0625 26.03125 39.671875 28.421875
Q 36.28125 30.8125 30.421875 30.8125
L 19.671875 30.8125
L 19.671875 0
L 9.8125 0
L 9.8125 72.90625
L 32.078125 72.90625
Q 44.578125 72.90625 50.734375 67.671875
Q 56.890625 62.453125 56.890625 51.90625
Q 56.890625 45.015625 53.6875 40.46875
Q 50.484375 35.9375 44.390625 34.1875
z
M 19.671875 64.796875
L 19.671875 38.921875
L 32.078125 38.921875
Q 39.203125 38.921875 42.84375 42.21875
Q 46.484375 45.515625 46.484375 51.90625
Q 46.484375 58.296875 42.84375 61.546875
Q 39.203125 64.796875 32.078125 64.796875
z
" id="DejaVuSans-52"/>
     </defs>
     <g transform="translate(329.201563 26.478438)scale(0.1 -0.1)">
      <use xlink:href="#DejaVuSans-52"/>
     </g>
    </g>
   </g>
  </g>
  <g id="axes_2">
   <g id="patch_6">
    <path d="M 408.62 318.04
L 699.75 318.04
L 699.75 61.24
L 408.62 61.24
z
" style="fill:#ffffff;"/>
   </g>
   <g id="matplotlib.axis_3">
    <g id="xtick_6">
     <g id="line2d_41">
      <path clip-path="url(#pd8fc77e166)" d="M 465.910643 318.04
L 465.910643 61.24
" style="fill:none;stroke:#b0b0b0;stroke-linecap:square;stroke-width:0.8;"/>
     </g>
     <g id="line2d_42">
      <g>
       <use style="stroke:#000000;stroke-width:0.8;" x="465.910643" xlink:href="#m159b2b4fb5" y="318.04"/>
      </g>
     </g>
     <g id="text_22">
      <!-- 50 -->
      <g transform="translate(459.548143 332.638438)scale(0.1 -0.1)">
       <use xlink:href="#DejaVuSans-35"/>
       <use x="63.623047" xlink:href="#DejaVuSans-30"/>
      </g>
     </g>
    </g>
    <g id="xtick_7">
     <g id="line2d_43">
      <path clip-path="url(#pd8fc77e166)" d="M 524.370482 318.04
L 524.370482 61.24
" style="fill:none;stroke:#b0b0b0;stroke-linecap:square;stroke-width:0.8;"/>
     </g>
     <g id="line2d_44">
      <g>
       <use style="stroke:#000000;stroke-width:0.8;" x="524.370482" xlink:href="#m159b2b4fb5" y="318.04"/>
      </g>
     </g>
     <g id="text_23">
      <!-- 100 -->
      <g transform="translate(514.826732 332.638438)scale(0.1 -0.1)">
       <use xlink:href="#DejaVuSans-31"/>
       <use x="63.623047" xlink:href="#DejaVuSans-30"/>
       <use x="127.246094" xlink:href="#DejaVuSans-30"/>
      </g>
     </g>
    </g>
    <g id="xtick_8">
     <g id="line2d_45">
      <path clip-path="url(#pd8fc77e166)" d="M 582.830321 318.04
L 582.830321 61.24
" style="fill:none;stroke:#b0b0b0;stroke-linecap:square;stroke-width:0.8;"/>
     </g>
     <g id="line2d_46">
      <g>
       <use style="stroke:#000000;stroke-width:0.8;" x="582.830321" xlink:href="#m159b2b4fb5" y="318.04"/>
      </g>
     </g>
     <g id="text_24">
      <!-- 150 -->
      <g transform="translate(573.286571 332.638438)scale(0.1 -0.1)">
       <use xlink:href="#DejaVuSans-31"/>
       <use x="63.623047" xlink:href="#DejaVuSans-35"/>
       <use x="127.246094" xlink:href="#DejaVuSans-30"/>
      </g>
     </g>
    </g>
    <g id="xtick_9">
     <g id="line2d_47">
      <path clip-path="url(#pd8fc77e166)" d="M 641.290161 318.04
L 641.290161 61.24
" style="fill:none;stroke:#b0b0b0;stroke-linecap:square;stroke-width:0.8;"/>
     </g>
     <g id="line2d_48">
      <g>
       <use style="stroke:#000000;stroke-width:0.8;" x="641.290161" xlink:href="#m159b2b4fb5" y="318.04"/>
      </g>
     </g>
     <g id="text_25">
      <!-- 200 -->
      <g transform="translate(631.746411 332.638438)scale(0.1 -0.1)">
       <use xlink:href="#DejaVuSans-32"/>
       <use x="63.623047" xlink:href="#DejaVuSans-30"/>
       <use x="127.246094" xlink:href="#DejaVuSans-30"/>
      </g>
     </g>
    </g>
    <g id="xtick_10">
     <g id="line2d_49">
      <path clip-path="url(#pd8fc77e166)" d="M 699.75 318.04
L 699.75 61.24
" style="fill:none;stroke:#b0b0b0;stroke-linecap:square;stroke-width:0.8;"/>
     </g>
     <g id="line2d_50">
      <g>
       <use style="stroke:#000000;stroke-width:0.8;" x="699.75" xlink:href="#m159b2b4fb5" y="318.04"/>
      </g>
     </g>
     <g id="text_26">
      <!-- 250 -->
      <g transform="translate(690.20625 332.638438)scale(0.1 -0.1)">
       <use xlink:href="#DejaVuSans-32"/>
       <use x="63.623047" xlink:href="#DejaVuSans-35"/>
       <use x="127.246094" xlink:href="#DejaVuSans-30"/>
      </g>
     </g>
    </g>
    <g id="text_27">
     <!-- Trial number -->
     <g transform="translate(522.14125 346.316563)scale(0.1 -0.1)">
      <use xlink:href="#DejaVuSans-54"/>
      <use x="60.865234" xlink:href="#DejaVuSans-72"/>
      <use x="101.978516" xlink:href="#DejaVuSans-69"/>
      <use x="129.761719" xlink:href="#DejaVuSans-61"/>
      <use x="191.041016" xlink:href="#DejaVuSans-6c"/>
      <use x="218.824219" xlink:href="#DejaVuSans-20"/>
      <use x="250.611328" xlink:href="#DejaVuSans-6e"/>
      <use x="313.990234" xlink:href="#DejaVuSans-75"/>
      <use x="377.369141" xlink:href="#DejaVuSans-6d"/>
      <use x="474.78125" xlink:href="#DejaVuSans-62"/>
      <use x="538.257812" xlink:href="#DejaVuSans-65"/>
      <use x="599.78125" xlink:href="#DejaVuSans-72"/>
     </g>
    </g>
   </g>
   <g id="matplotlib.axis_4">
    <g id="ytick_10">
     <g id="line2d_51">
      <path clip-path="url(#pd8fc77e166)" d="M 408.62 305.811429
L 699.75 305.811429
" style="fill:none;stroke:#b0b0b0;stroke-linecap:square;stroke-width:0.8;"/>
     </g>
     <g id="line2d_52">
      <g>
       <use style="stroke:#000000;stroke-width:0.8;" x="408.62" xlink:href="#m521de0b118" y="305.811429"/>
      </g>
     </g>
     <g id="text_28">
      <!-- 0.10 -->
      <g transform="translate(379.354375 309.610647)scale(0.1 -0.1)">
       <use xlink:href="#DejaVuSans-30"/>
       <use x="63.623047" xlink:href="#DejaVuSans-2e"/>
       <use x="95.410156" xlink:href="#DejaVuSans-31"/>
       <use x="159.033203" xlink:href="#DejaVuSans-30"/>
      </g>
     </g>
    </g>
    <g id="ytick_11">
     <g id="line2d_53">
      <path clip-path="url(#pd8fc77e166)" d="M 408.62 275.24
L 699.75 275.24
" style="fill:none;stroke:#b0b0b0;stroke-linecap:square;stroke-width:0.8;"/>
     </g>
     <g id="line2d_54">
      <g>
       <use style="stroke:#000000;stroke-width:0.8;" x="408.62" xlink:href="#m521de0b118" y="275.24"/>
      </g>
     </g>
     <g id="text_29">
      <!-- 0.15 -->
      <g transform="translate(379.354375 279.039219)scale(0.1 -0.1)">
       <use xlink:href="#DejaVuSans-30"/>
       <use x="63.623047" xlink:href="#DejaVuSans-2e"/>
       <use x="95.410156" xlink:href="#DejaVuSans-31"/>
       <use x="159.033203" xlink:href="#DejaVuSans-35"/>
      </g>
     </g>
    </g>
    <g id="ytick_12">
     <g id="line2d_55">
      <path clip-path="url(#pd8fc77e166)" d="M 408.62 244.668571
L 699.75 244.668571
" style="fill:none;stroke:#b0b0b0;stroke-linecap:square;stroke-width:0.8;"/>
     </g>
     <g id="line2d_56">
      <g>
       <use style="stroke:#000000;stroke-width:0.8;" x="408.62" xlink:href="#m521de0b118" y="244.668571"/>
      </g>
     </g>
     <g id="text_30">
      <!-- 0.20 -->
      <g transform="translate(379.354375 248.46779)scale(0.1 -0.1)">
       <use xlink:href="#DejaVuSans-30"/>
       <use x="63.623047" xlink:href="#DejaVuSans-2e"/>
       <use x="95.410156" xlink:href="#DejaVuSans-32"/>
       <use x="159.033203" xlink:href="#DejaVuSans-30"/>
      </g>
     </g>
    </g>
    <g id="ytick_13">
     <g id="line2d_57">
      <path clip-path="url(#pd8fc77e166)" d="M 408.62 214.097143
L 699.75 214.097143
" style="fill:none;stroke:#b0b0b0;stroke-linecap:square;stroke-width:0.8;"/>
     </g>
     <g id="line2d_58">
      <g>
       <use style="stroke:#000000;stroke-width:0.8;" x="408.62" xlink:href="#m521de0b118" y="214.097143"/>
      </g>
     </g>
     <g id="text_31">
      <!-- 0.25 -->
      <g transform="translate(379.354375 217.896362)scale(0.1 -0.1)">
       <use xlink:href="#DejaVuSans-30"/>
       <use x="63.623047" xlink:href="#DejaVuSans-2e"/>
       <use x="95.410156" xlink:href="#DejaVuSans-32"/>
       <use x="159.033203" xlink:href="#DejaVuSans-35"/>
      </g>
     </g>
    </g>
    <g id="ytick_14">
     <g id="line2d_59">
      <path clip-path="url(#pd8fc77e166)" d="M 408.62 183.525714
L 699.75 183.525714
" style="fill:none;stroke:#b0b0b0;stroke-linecap:square;stroke-width:0.8;"/>
     </g>
     <g id="line2d_60">
      <g>
       <use style="stroke:#000000;stroke-width:0.8;" x="408.62" xlink:href="#m521de0b118" y="183.525714"/>
      </g>
     </g>
     <g id="text_32">
      <!-- 0.30 -->
      <g transform="translate(379.354375 187.324933)scale(0.1 -0.1)">
       <use xlink:href="#DejaVuSans-30"/>
       <use x="63.623047" xlink:href="#DejaVuSans-2e"/>
       <use x="95.410156" xlink:href="#DejaVuSans-33"/>
       <use x="159.033203" xlink:href="#DejaVuSans-30"/>
      </g>
     </g>
    </g>
    <g id="ytick_15">
     <g id="line2d_61">
      <path clip-path="url(#pd8fc77e166)" d="M 408.62 152.954286
L 699.75 152.954286
" style="fill:none;stroke:#b0b0b0;stroke-linecap:square;stroke-width:0.8;"/>
     </g>
     <g id="line2d_62">
      <g>
       <use style="stroke:#000000;stroke-width:0.8;" x="408.62" xlink:href="#m521de0b118" y="152.954286"/>
      </g>
     </g>
     <g id="text_33">
      <!-- 0.35 -->
      <g transform="translate(379.354375 156.753504)scale(0.1 -0.1)">
       <use xlink:href="#DejaVuSans-30"/>
       <use x="63.623047" xlink:href="#DejaVuSans-2e"/>
       <use x="95.410156" xlink:href="#DejaVuSans-33"/>
       <use x="159.033203" xlink:href="#DejaVuSans-35"/>
      </g>
     </g>
    </g>
    <g id="ytick_16">
     <g id="line2d_63">
      <path clip-path="url(#pd8fc77e166)" d="M 408.62 122.382857
L 699.75 122.382857
" style="fill:none;stroke:#b0b0b0;stroke-linecap:square;stroke-width:0.8;"/>
     </g>
     <g id="line2d_64">
      <g>
       <use style="stroke:#000000;stroke-width:0.8;" x="408.62" xlink:href="#m521de0b118" y="122.382857"/>
      </g>
     </g>
     <g id="text_34">
      <!-- 0.40 -->
      <g transform="translate(379.354375 126.182076)scale(0.1 -0.1)">
       <use xlink:href="#DejaVuSans-30"/>
       <use x="63.623047" xlink:href="#DejaVuSans-2e"/>
       <use x="95.410156" xlink:href="#DejaVuSans-34"/>
       <use x="159.033203" xlink:href="#DejaVuSans-30"/>
      </g>
     </g>
    </g>
    <g id="ytick_17">
     <g id="line2d_65">
      <path clip-path="url(#pd8fc77e166)" d="M 408.62 91.811429
L 699.75 91.811429
" style="fill:none;stroke:#b0b0b0;stroke-linecap:square;stroke-width:0.8;"/>
     </g>
     <g id="line2d_66">
      <g>
       <use style="stroke:#000000;stroke-width:0.8;" x="408.62" xlink:href="#m521de0b118" y="91.811429"/>
      </g>
     </g>
     <g id="text_35">
      <!-- 0.45 -->
      <g transform="translate(379.354375 95.610647)scale(0.1 -0.1)">
       <use xlink:href="#DejaVuSans-30"/>
       <use x="63.623047" xlink:href="#DejaVuSans-2e"/>
       <use x="95.410156" xlink:href="#DejaVuSans-34"/>
       <use x="159.033203" xlink:href="#DejaVuSans-35"/>
      </g>
     </g>
    </g>
    <g id="ytick_18">
     <g id="line2d_67">
      <path clip-path="url(#pd8fc77e166)" d="M 408.62 61.24
L 699.75 61.24
" style="fill:none;stroke:#b0b0b0;stroke-linecap:square;stroke-width:0.8;"/>
     </g>
     <g id="line2d_68">
      <g>
       <use style="stroke:#000000;stroke-width:0.8;" x="408.62" xlink:href="#m521de0b118" y="61.24"/>
      </g>
     </g>
     <g id="text_36">
      <!-- 0.50 -->
      <g transform="translate(379.354375 65.039219)scale(0.1 -0.1)">
       <use xlink:href="#DejaVuSans-30"/>
       <use x="63.623047" xlink:href="#DejaVuSans-2e"/>
       <use x="95.410156" xlink:href="#DejaVuSans-35"/>
       <use x="159.033203" xlink:href="#DejaVuSans-30"/>
      </g>
     </g>
    </g>
    <g id="text_37">
     <!-- Proportion of task selection -->
     <g transform="translate(373.274688 258.218125)rotate(-90)scale(0.1 -0.1)">
      <use xlink:href="#DejaVuSans-50"/>
      <use x="60.287109" xlink:href="#DejaVuSans-72"/>
      <use x="101.369141" xlink:href="#DejaVuSans-6f"/>
      <use x="162.550781" xlink:href="#DejaVuSans-70"/>
      <use x="226.027344" xlink:href="#DejaVuSans-6f"/>
      <use x="287.208984" xlink:href="#DejaVuSans-72"/>
      <use x="328.322266" xlink:href="#DejaVuSans-74"/>
      <use x="367.53125" xlink:href="#DejaVuSans-69"/>
      <use x="395.314453" xlink:href="#DejaVuSans-6f"/>
      <use x="456.496094" xlink:href="#DejaVuSans-6e"/>
      <use x="519.875" xlink:href="#DejaVuSans-20"/>
      <use x="551.662109" xlink:href="#DejaVuSans-6f"/>
      <use x="612.84375" xlink:href="#DejaVuSans-66"/>
      <use x="648.048828" xlink:href="#DejaVuSans-20"/>
      <use x="679.835938" xlink:href="#DejaVuSans-74"/>
      <use x="719.044922" xlink:href="#DejaVuSans-61"/>
      <use x="780.324219" xlink:href="#DejaVuSans-73"/>
      <use x="832.423828" xlink:href="#DejaVuSans-6b"/>
      <use x="890.333984" xlink:href="#DejaVuSans-20"/>
      <use x="922.121094" xlink:href="#DejaVuSans-73"/>
      <use x="974.220703" xlink:href="#DejaVuSans-65"/>
      <use x="1035.744141" xlink:href="#DejaVuSans-6c"/>
      <use x="1063.527344" xlink:href="#DejaVuSans-65"/>
      <use x="1125.050781" xlink:href="#DejaVuSans-63"/>
      <use x="1180.03125" xlink:href="#DejaVuSans-74"/>
      <use x="1219.240234" xlink:href="#DejaVuSans-69"/>
      <use x="1247.023438" xlink:href="#DejaVuSans-6f"/>
      <use x="1308.205078" xlink:href="#DejaVuSans-6e"/>
     </g>
    </g>
   </g>
   <g id="line2d_69">
    <path clip-path="url(#pd8fc77e166)" d="M 407.450803 203.675065
L 408.62 203.675065
L 409.789197 207.149091
L 410.958394 207.149091
L 412.12759 210.623117
L 414.465984 224.519221
L 415.635181 227.993247
L 416.804378 238.415325
L 417.973574 234.941299
L 419.142771 245.363377
L 420.311968 252.311429
L 421.481165 255.785455
L 422.650361 252.311429
L 423.819558 252.311429
L 424.988755 259.259481
L 427.327149 259.259481
L 429.665542 252.311429
L 430.834739 255.785455
L 432.003936 252.311429
L 433.173133 255.785455
L 434.342329 255.785455
L 435.511526 241.889351
L 436.680723 252.311429
L 437.84992 259.259481
L 439.019116 248.837403
L 440.188313 252.311429
L 442.526707 252.311429
L 443.695904 248.837403
L 446.034297 255.785455
L 447.203494 255.785455
L 448.372691 252.311429
L 449.541888 252.311429
L 450.711084 248.837403
L 453.049478 262.733506
L 455.387871 262.733506
L 456.557068 266.207532
L 457.726265 266.207532
L 458.895462 273.155584
L 460.064659 262.733506
L 461.233855 255.785455
L 462.403052 252.311429
L 463.572249 252.311429
L 464.741446 248.837403
L 465.910643 269.681558
L 467.079839 276.62961
L 468.249036 276.62961
L 469.418233 280.103636
L 472.925823 269.681558
L 475.264217 276.62961
L 476.433414 276.62961
L 477.60261 269.681558
L 478.771807 266.207532
L 479.941004 269.681558
L 481.110201 266.207532
L 482.279398 276.62961
L 483.448594 276.62961
L 485.786988 262.733506
L 486.956185 269.681558
L 488.125382 266.207532
L 489.294578 273.155584
L 490.463775 269.681558
L 491.632972 273.155584
L 492.802169 262.733506
L 493.971365 266.207532
L 495.140562 276.62961
L 496.309759 273.155584
L 497.478956 266.207532
L 498.648153 266.207532
L 499.817349 269.681558
L 500.986546 276.62961
L 502.155743 276.62961
L 508.001727 293.99974
L 511.509317 293.99974
L 512.678514 283.577662
L 513.847711 283.577662
L 516.186104 276.62961
L 517.355301 276.62961
L 520.862892 266.207532
L 522.032088 255.785455
L 523.201285 259.259481
L 524.370482 259.259481
L 526.708876 266.207532
L 527.878072 262.733506
L 529.047269 266.207532
L 530.216466 273.155584
L 531.385663 273.155584
L 532.554859 276.62961
L 533.724056 283.577662
L 534.893253 283.577662
L 536.06245 280.103636
L 537.231647 280.103636
L 539.57004 287.051688
L 540.739237 293.99974
L 541.908434 293.99974
L 543.077631 290.525714
L 544.246827 290.525714
L 545.416024 287.051688
L 546.585221 287.051688
L 547.754418 290.525714
L 548.923614 287.051688
L 550.092811 280.103636
L 551.262008 269.681558
L 555.938795 255.785455
L 559.446386 255.785455
L 560.615582 259.259481
L 561.784779 266.207532
L 562.953976 266.207532
L 564.123173 262.733506
L 565.292369 266.207532
L 566.461566 266.207532
L 567.630763 280.103636
L 568.79996 280.103636
L 569.969157 283.577662
L 571.138353 290.525714
L 572.30755 300.947792
L 573.476747 307.895844
L 574.645944 307.895844
L 575.815141 304.421818
L 578.153534 304.421818
L 579.322731 290.525714
L 582.830321 280.103636
L 583.999518 283.577662
L 585.168715 297.473766
L 586.337912 297.473766
L 587.507108 293.99974
L 589.845502 280.103636
L 591.014699 280.103636
L 592.183896 283.577662
L 593.353092 280.103636
L 594.522289 280.103636
L 596.860683 287.051688
L 598.02988 283.577662
L 599.199076 276.62961
L 600.368273 273.155584
L 601.53747 276.62961
L 603.875863 269.681558
L 605.04506 273.155584
L 606.214257 266.207532
L 608.552651 266.207532
L 609.721847 259.259481
L 610.891044 255.785455
L 612.060241 248.837403
L 615.567831 248.837403
L 616.737028 252.311429
L 617.906225 245.363377
L 619.075422 245.363377
L 620.244618 252.311429
L 621.413815 262.733506
L 622.583012 259.259481
L 630.76739 259.259481
L 633.105783 266.207532
L 635.444177 266.207532
L 636.613373 269.681558
L 637.78257 266.207532
L 638.951767 276.62961
L 640.120964 283.577662
L 641.290161 280.103636
L 642.459357 287.051688
L 643.628554 283.577662
L 644.797751 283.577662
L 645.966948 280.103636
L 647.136145 280.103636
L 648.305341 273.155584
L 652.982129 273.155584
L 654.151325 266.207532
L 655.320522 266.207532
L 657.658916 273.155584
L 658.828112 262.733506
L 659.997309 262.733506
L 661.166506 269.681558
L 663.5049 269.681558
L 667.01249 280.103636
L 668.181687 269.681558
L 670.52008 269.681558
L 671.689277 266.207532
L 672.858474 273.155584
L 675.196867 273.155584
L 676.366064 259.259481
L 679.873655 269.681558
L 681.042851 266.207532
L 682.212048 266.207532
L 683.381245 262.733506
L 684.550442 266.207532
L 685.719639 273.155584
L 690.396426 273.155584
L 691.565622 269.681558
L 692.734819 273.155584
L 693.904016 269.681558
L 695.073213 269.681558
L 696.24241 262.733506
L 697.411606 259.259481
L 698.580803 259.259481
L 698.580803 259.259481
" style="fill:none;stroke:#43799d;stroke-linecap:square;stroke-width:1.5;"/>
   </g>
   <g id="line2d_70">
    <path clip-path="url(#pd8fc77e166)" d="M 407.450803 252.311429
L 408.62 252.311429
L 409.789197 248.837403
L 412.12759 248.837403
L 413.296787 252.311429
L 415.635181 252.311429
L 416.804378 245.363377
L 417.973574 241.889351
L 419.142771 231.467273
L 422.650361 241.889351
L 423.819558 238.415325
L 424.988755 241.889351
L 426.157952 241.889351
L 428.496345 248.837403
L 429.665542 245.363377
L 430.834739 248.837403
L 432.003936 241.889351
L 433.173133 241.889351
L 435.511526 248.837403
L 436.680723 248.837403
L 437.84992 245.363377
L 439.019116 248.837403
L 440.188313 238.415325
L 441.35751 241.889351
L 443.695904 234.941299
L 444.8651 238.415325
L 446.034297 227.993247
L 447.203494 234.941299
L 448.372691 234.941299
L 449.541888 227.993247
L 450.711084 224.519221
L 451.880281 214.097143
L 453.049478 214.097143
L 454.218675 217.571169
L 455.387871 210.623117
L 456.557068 207.149091
L 458.895462 193.252987
L 460.064659 203.675065
L 461.233855 207.149091
L 463.572249 221.045195
L 464.741446 217.571169
L 465.910643 221.045195
L 467.079839 207.149091
L 469.418233 186.304935
L 470.58743 196.727013
L 471.756627 196.727013
L 475.264217 207.149091
L 476.433414 214.097143
L 477.60261 214.097143
L 478.771807 221.045195
L 479.941004 224.519221
L 481.110201 217.571169
L 482.279398 214.097143
L 483.448594 214.097143
L 484.617791 224.519221
L 485.786988 207.149091
L 486.956185 196.727013
L 488.125382 200.201039
L 489.294578 200.201039
L 490.463775 196.727013
L 491.632972 207.149091
L 492.802169 221.045195
L 495.140562 214.097143
L 496.309759 224.519221
L 497.478956 224.519221
L 498.648153 231.467273
L 499.817349 231.467273
L 500.986546 234.941299
L 502.155743 224.519221
L 503.32494 221.045195
L 504.494137 224.519221
L 505.663333 224.519221
L 506.83253 217.571169
L 508.001727 221.045195
L 509.170924 221.045195
L 511.509317 214.097143
L 512.678514 221.045195
L 513.847711 221.045195
L 515.016908 224.519221
L 516.186104 231.467273
L 517.355301 224.519221
L 518.524498 224.519221
L 519.693695 231.467273
L 520.862892 231.467273
L 522.032088 234.941299
L 523.201285 231.467273
L 524.370482 241.889351
L 525.539679 238.415325
L 529.047269 248.837403
L 530.216466 241.889351
L 531.385663 248.837403
L 532.554859 252.311429
L 533.724056 245.363377
L 536.06245 252.311429
L 537.231647 252.311429
L 539.57004 245.363377
L 540.739237 248.837403
L 541.908434 245.363377
L 544.246827 259.259481
L 545.416024 259.259481
L 546.585221 262.733506
L 550.092811 262.733506
L 552.431205 269.681558
L 555.938795 269.681558
L 558.277189 255.785455
L 559.446386 255.785455
L 561.784779 262.733506
L 562.953976 262.733506
L 564.123173 266.207532
L 565.292369 266.207532
L 566.461566 262.733506
L 567.630763 262.733506
L 568.79996 259.259481
L 569.969157 266.207532
L 571.138353 269.681558
L 572.30755 262.733506
L 573.476747 269.681558
L 574.645944 273.155584
L 575.815141 269.681558
L 576.984337 259.259481
L 579.322731 259.259481
L 580.491928 262.733506
L 581.661124 259.259481
L 582.830321 273.155584
L 585.168715 266.207532
L 586.337912 259.259481
L 587.507108 255.785455
L 588.676305 259.259481
L 589.845502 259.259481
L 592.183896 252.311429
L 593.353092 255.785455
L 594.522289 255.785455
L 595.691486 252.311429
L 598.02988 259.259481
L 600.368273 259.259481
L 601.53747 266.207532
L 602.706667 266.207532
L 603.875863 273.155584
L 605.04506 276.62961
L 606.214257 269.681558
L 607.383454 269.681558
L 608.552651 266.207532
L 609.721847 266.207532
L 610.891044 269.681558
L 613.229438 269.681558
L 616.737028 259.259481
L 619.075422 259.259481
L 620.244618 266.207532
L 621.413815 266.207532
L 622.583012 276.62961
L 623.752209 273.155584
L 624.921406 276.62961
L 626.090602 269.681558
L 628.428996 269.681558
L 629.598193 276.62961
L 630.76739 273.155584
L 631.936586 266.207532
L 633.105783 266.207532
L 634.27498 269.681558
L 635.444177 262.733506
L 636.613373 266.207532
L 637.78257 273.155584
L 638.951767 269.681558
L 641.290161 269.681558
L 642.459357 262.733506
L 643.628554 252.311429
L 644.797751 252.311429
L 645.966948 255.785455
L 647.136145 252.311429
L 648.305341 245.363377
L 650.643735 252.311429
L 654.151325 252.311429
L 655.320522 248.837403
L 656.489719 252.311429
L 662.335703 252.311429
L 663.5049 248.837403
L 664.674096 252.311429
L 665.843293 252.311429
L 667.01249 248.837403
L 668.181687 259.259481
L 669.350884 255.785455
L 670.52008 262.733506
L 671.689277 266.207532
L 675.196867 266.207532
L 676.366064 269.681558
L 677.535261 262.733506
L 678.704458 262.733506
L 679.873655 252.311429
L 681.042851 248.837403
L 682.212048 255.785455
L 683.381245 259.259481
L 684.550442 259.259481
L 685.719639 255.785455
L 688.058032 255.785455
L 690.396426 248.837403
L 691.565622 252.311429
L 692.734819 252.311429
L 693.904016 245.363377
L 695.073213 248.837403
L 696.24241 259.259481
L 697.411606 262.733506
L 698.580803 262.733506
L 698.580803 262.733506
" style="fill:none;stroke:#cc5b46;stroke-linecap:square;stroke-width:1.5;"/>
   </g>
   <g id="line2d_71">
    <path clip-path="url(#pd8fc77e166)" d="M 407.450803 224.519221
L 409.789197 224.519221
L 410.958394 227.993247
L 412.12759 224.519221
L 413.296787 217.571169
L 414.465984 214.097143
L 419.142771 214.097143
L 420.311968 203.675065
L 421.481165 196.727013
L 422.650361 193.252987
L 423.819558 196.727013
L 424.988755 189.778961
L 427.327149 189.778961
L 429.665542 196.727013
L 430.834739 193.252987
L 432.003936 203.675065
L 433.173133 203.675065
L 434.342329 196.727013
L 435.511526 207.149091
L 436.680723 210.623117
L 437.84992 210.623117
L 439.019116 217.571169
L 440.188313 221.045195
L 441.35751 214.097143
L 443.695904 221.045195
L 444.8651 217.571169
L 446.034297 227.993247
L 447.203494 227.993247
L 448.372691 238.415325
L 449.541888 238.415325
L 450.711084 231.467273
L 451.880281 231.467273
L 453.049478 224.519221
L 456.557068 214.097143
L 457.726265 221.045195
L 458.895462 217.571169
L 461.233855 224.519221
L 463.572249 210.623117
L 464.741446 217.571169
L 465.910643 203.675065
L 468.249036 210.623117
L 469.418233 217.571169
L 470.58743 214.097143
L 471.756627 203.675065
L 472.925823 196.727013
L 474.09502 196.727013
L 476.433414 182.830909
L 477.60261 189.778961
L 478.771807 182.830909
L 481.110201 189.778961
L 482.279398 179.356883
L 483.448594 175.882857
L 484.617791 165.460779
L 485.786988 182.830909
L 486.956185 189.778961
L 488.125382 189.778961
L 489.294578 193.252987
L 490.463775 200.201039
L 491.632972 189.778961
L 492.802169 186.304935
L 493.971365 189.778961
L 495.140562 182.830909
L 496.309759 179.356883
L 497.478956 189.778961
L 498.648153 193.252987
L 499.817349 193.252987
L 500.986546 186.304935
L 502.155743 196.727013
L 504.494137 196.727013
L 505.663333 193.252987
L 506.83253 203.675065
L 508.001727 203.675065
L 509.170924 207.149091
L 510.34012 214.097143
L 515.016908 214.097143
L 516.186104 203.675065
L 517.355301 214.097143
L 519.693695 227.993247
L 520.862892 227.993247
L 522.032088 238.415325
L 523.201285 241.889351
L 526.708876 231.467273
L 527.878072 231.467273
L 529.047269 224.519221
L 530.216466 224.519221
L 531.385663 221.045195
L 533.724056 227.993247
L 534.893253 221.045195
L 536.06245 227.993247
L 537.231647 231.467273
L 538.400843 227.993247
L 539.57004 234.941299
L 540.739237 221.045195
L 546.585221 203.675065
L 547.754418 207.149091
L 548.923614 203.675065
L 550.092811 217.571169
L 551.262008 221.045195
L 552.431205 217.571169
L 553.600402 221.045195
L 554.769598 221.045195
L 557.107992 234.941299
L 558.277189 231.467273
L 559.446386 234.941299
L 560.615582 234.941299
L 561.784779 224.519221
L 562.953976 224.519221
L 564.123173 217.571169
L 565.292369 224.519221
L 566.461566 227.993247
L 568.79996 221.045195
L 569.969157 214.097143
L 572.30755 207.149091
L 573.476747 196.727013
L 574.645944 196.727013
L 575.815141 203.675065
L 576.984337 214.097143
L 579.322731 221.045195
L 580.491928 207.149091
L 581.661124 210.623117
L 582.830321 193.252987
L 583.999518 203.675065
L 585.168715 189.778961
L 586.337912 189.778961
L 587.507108 193.252987
L 588.676305 189.778961
L 589.845502 193.252987
L 591.014699 193.252987
L 592.183896 189.778961
L 594.522289 189.778961
L 595.691486 182.830909
L 598.02988 182.830909
L 599.199076 186.304935
L 600.368273 186.304935
L 601.53747 182.830909
L 602.706667 186.304935
L 605.04506 179.356883
L 606.214257 189.778961
L 607.383454 186.304935
L 608.552651 189.778961
L 609.721847 196.727013
L 610.891044 200.201039
L 612.060241 214.097143
L 616.737028 214.097143
L 619.075422 221.045195
L 620.244618 221.045195
L 621.413815 217.571169
L 622.583012 224.519221
L 623.752209 214.097143
L 624.921406 224.519221
L 626.090602 224.519221
L 627.259799 227.993247
L 629.598193 214.097143
L 630.76739 214.097143
L 631.936586 217.571169
L 634.27498 210.623117
L 637.78257 221.045195
L 638.951767 221.045195
L 640.120964 210.623117
L 641.290161 217.571169
L 642.459357 210.623117
L 643.628554 221.045195
L 644.797751 217.571169
L 645.966948 217.571169
L 647.136145 221.045195
L 648.305341 234.941299
L 649.474538 238.415325
L 650.643735 238.415325
L 655.320522 224.519221
L 656.489719 224.519221
L 657.658916 221.045195
L 658.828112 227.993247
L 659.997309 227.993247
L 661.166506 214.097143
L 662.335703 210.623117
L 663.5049 214.097143
L 664.674096 203.675065
L 665.843293 200.201039
L 668.181687 200.201039
L 669.350884 207.149091
L 670.52008 210.623117
L 671.689277 210.623117
L 672.858474 221.045195
L 674.027671 214.097143
L 675.196867 214.097143
L 676.366064 231.467273
L 677.535261 231.467273
L 678.704458 238.415325
L 679.873655 241.889351
L 681.042851 238.415325
L 683.381245 238.415325
L 684.550442 234.941299
L 685.719639 227.993247
L 686.888835 227.993247
L 688.058032 238.415325
L 690.396426 238.415325
L 691.565622 234.941299
L 692.734819 234.941299
L 693.904016 238.415325
L 698.580803 238.415325
L 698.580803 238.415325
" style="fill:none;stroke:#ffbb00;stroke-linecap:square;stroke-width:1.5;"/>
   </g>
   <g id="line2d_72">
    <path clip-path="url(#pd8fc77e166)" d="M 407.450803 175.882857
L 409.789197 175.882857
L 410.958394 172.408831
L 412.12759 172.408831
L 416.804378 158.512727
L 417.973574 165.460779
L 421.481165 165.460779
L 422.650361 168.934805
L 423.819558 168.934805
L 424.988755 165.460779
L 426.157952 165.460779
L 428.496345 158.512727
L 429.665542 161.986753
L 430.834739 158.512727
L 432.003936 158.512727
L 433.173133 155.038701
L 434.342329 158.512727
L 435.511526 158.512727
L 436.680723 144.616623
L 437.84992 141.142597
L 439.019116 141.142597
L 441.35751 148.090649
L 442.526707 148.090649
L 443.695904 151.564675
L 446.034297 144.616623
L 448.372691 130.720519
L 449.541888 137.668571
L 450.711084 151.564675
L 451.880281 155.038701
L 454.218675 155.038701
L 455.387871 165.460779
L 456.557068 168.934805
L 457.726265 168.934805
L 458.895462 172.408831
L 460.064659 168.934805
L 461.233855 168.934805
L 462.403052 172.408831
L 464.741446 172.408831
L 465.910643 161.986753
L 467.079839 165.460779
L 468.249036 172.408831
L 469.418233 172.408831
L 470.58743 168.934805
L 471.756627 182.830909
L 472.925823 189.778961
L 474.09502 182.830909
L 477.60261 182.830909
L 478.771807 186.304935
L 479.941004 175.882857
L 481.110201 182.830909
L 483.448594 189.778961
L 485.786988 203.675065
L 486.956185 200.201039
L 488.125382 200.201039
L 489.294578 189.778961
L 490.463775 189.778961
L 491.632972 186.304935
L 492.802169 186.304935
L 493.971365 182.830909
L 495.140562 182.830909
L 497.478956 175.882857
L 498.648153 165.460779
L 500.986546 158.512727
L 503.32494 158.512727
L 504.494137 151.564675
L 505.663333 151.564675
L 508.001727 137.668571
L 510.34012 130.720519
L 512.678514 137.668571
L 515.016908 137.668571
L 516.186104 144.616623
L 518.524498 137.668571
L 519.693695 127.246494
L 520.862892 130.720519
L 523.201285 123.772468
L 524.370482 116.824416
L 525.539679 120.298442
L 526.708876 116.824416
L 530.216466 116.824416
L 531.385663 113.35039
L 532.554859 102.928312
L 533.724056 99.454286
L 534.893253 102.928312
L 536.06245 95.98026
L 537.231647 92.506234
L 538.400843 95.98026
L 539.57004 89.032208
L 540.739237 92.506234
L 541.908434 99.454286
L 543.077631 99.454286
L 544.246827 95.98026
L 545.416024 102.928312
L 546.585221 102.928312
L 547.754418 95.98026
L 548.923614 102.928312
L 550.092811 95.98026
L 552.431205 102.928312
L 553.600402 102.928312
L 554.769598 106.402338
L 555.938795 102.928312
L 557.107992 102.928312
L 558.277189 113.35039
L 559.446386 109.876364
L 560.615582 102.928312
L 562.953976 102.928312
L 564.123173 109.876364
L 565.292369 99.454286
L 566.461566 99.454286
L 567.630763 89.032208
L 568.79996 95.98026
L 569.969157 92.506234
L 571.138353 85.558182
L 572.30755 85.558182
L 574.645944 78.61013
L 576.984337 78.61013
L 578.153534 75.136104
L 579.322731 85.558182
L 580.491928 99.454286
L 581.661124 102.928312
L 582.830321 109.876364
L 583.999518 99.454286
L 585.168715 102.928312
L 586.337912 109.876364
L 587.507108 113.35039
L 588.676305 120.298442
L 592.183896 130.720519
L 594.522289 130.720519
L 595.691486 137.668571
L 596.860683 130.720519
L 598.02988 130.720519
L 600.368273 137.668571
L 601.53747 130.720519
L 603.875863 130.720519
L 605.04506 127.246494
L 607.383454 134.194545
L 609.721847 134.194545
L 610.891044 130.720519
L 612.060241 123.772468
L 613.229438 123.772468
L 615.567831 130.720519
L 616.737028 130.720519
L 617.906225 134.194545
L 619.075422 130.720519
L 620.244618 116.824416
L 621.413815 109.876364
L 622.583012 95.98026
L 623.752209 109.876364
L 624.921406 95.98026
L 626.090602 102.928312
L 627.259799 99.454286
L 628.428996 106.402338
L 629.598193 106.402338
L 630.76739 109.876364
L 634.27498 109.876364
L 635.444177 113.35039
L 636.613373 102.928312
L 638.951767 89.032208
L 640.120964 92.506234
L 641.290161 89.032208
L 642.459357 95.98026
L 644.797751 102.928312
L 648.305341 102.928312
L 649.474538 95.98026
L 650.643735 92.506234
L 652.982129 99.454286
L 654.151325 109.876364
L 655.320522 116.824416
L 656.489719 109.876364
L 657.658916 109.876364
L 658.828112 113.35039
L 659.997309 113.35039
L 661.166506 120.298442
L 662.335703 123.772468
L 663.5049 123.772468
L 664.674096 127.246494
L 668.181687 127.246494
L 669.350884 123.772468
L 670.52008 113.35039
L 671.689277 113.35039
L 672.858474 95.98026
L 674.027671 102.928312
L 675.196867 102.928312
L 676.366064 95.98026
L 677.535261 99.454286
L 678.704458 89.032208
L 679.873655 92.506234
L 681.042851 102.928312
L 682.212048 95.98026
L 684.550442 95.98026
L 685.719639 99.454286
L 686.888835 99.454286
L 688.058032 89.032208
L 691.565622 99.454286
L 692.734819 95.98026
L 693.904016 102.928312
L 696.24241 95.98026
L 698.580803 95.98026
L 698.580803 95.98026
" style="fill:none;stroke:#71bc78;stroke-linecap:square;stroke-width:1.5;"/>
   </g>
   <g id="patch_7">
    <path d="M 408.62 318.04
L 408.62 61.24
" style="fill:none;stroke:#000000;stroke-linecap:square;stroke-linejoin:miter;stroke-width:0.8;"/>
   </g>
   <g id="patch_8">
    <path d="M 408.62 318.04
L 699.75 318.04
" style="fill:none;stroke:#000000;stroke-linecap:square;stroke-linejoin:miter;stroke-width:0.8;"/>
   </g>
   <g id="text_38">
    <!-- Strategic -->
    <defs>
     <path d="M 53.515625 70.515625
L 53.515625 60.890625
Q 47.90625 63.578125 42.921875 64.890625
Q 37.9375 66.21875 33.296875 66.21875
Q 25.25 66.21875 20.875 63.09375
Q 16.5 59.96875 16.5 54.203125
Q 16.5 49.359375 19.40625 46.890625
Q 22.3125 44.4375 30.421875 42.921875
L 36.375 41.703125
Q 47.40625 39.59375 52.65625 34.296875
Q 57.90625 29 57.90625 20.125
Q 57.90625 9.515625 50.796875 4.046875
Q 43.703125 -1.421875 29.984375 -1.421875
Q 24.8125 -1.421875 18.96875 -0.25
Q 13.140625 0.921875 6.890625 3.21875
L 6.890625 13.375
Q 12.890625 10.015625 18.65625 8.296875
Q 24.421875 6.59375 29.984375 6.59375
Q 38.421875 6.59375 43.015625 9.90625
Q 47.609375 13.234375 47.609375 19.390625
Q 47.609375 24.75 44.3125 27.78125
Q 41.015625 30.8125 33.5 32.328125
L 27.484375 33.5
Q 16.453125 35.6875 11.515625 40.375
Q 6.59375 45.0625 6.59375 53.421875
Q 6.59375 63.09375 13.40625 68.65625
Q 20.21875 74.21875 32.171875 74.21875
Q 37.3125 74.21875 42.625 73.28125
Q 47.953125 72.359375 53.515625 70.515625
z
" id="DejaVuSans-53"/>
     <path d="M 45.40625 27.984375
Q 45.40625 37.75 41.375 43.109375
Q 37.359375 48.484375 30.078125 48.484375
Q 22.859375 48.484375 18.828125 43.109375
Q 14.796875 37.75 14.796875 27.984375
Q 14.796875 18.265625 18.828125 12.890625
Q 22.859375 7.515625 30.078125 7.515625
Q 37.359375 7.515625 41.375 12.890625
Q 45.40625 18.265625 45.40625 27.984375
z
M 54.390625 6.78125
Q 54.390625 -7.171875 48.1875 -13.984375
Q 42 -20.796875 29.203125 -20.796875
Q 24.46875 -20.796875 20.265625 -20.09375
Q 16.0625 -19.390625 12.109375 -17.921875
L 12.109375 -9.1875
Q 16.0625 -11.328125 19.921875 -12.34375
Q 23.78125 -13.375 27.78125 -13.375
Q 36.625 -13.375 41.015625 -8.765625
Q 45.40625 -4.15625 45.40625 5.171875
L 45.40625 9.625
Q 42.625 4.78125 38.28125 2.390625
Q 33.9375 0 27.875 0
Q 17.828125 0 11.671875 7.65625
Q 5.515625 15.328125 5.515625 27.984375
Q 5.515625 40.671875 11.671875 48.328125
Q 17.828125 56 27.875 56
Q 33.9375 56 38.28125 53.609375
Q 42.625 51.21875 45.40625 46.390625
L 45.40625 54.6875
L 54.390625 54.6875
z
" id="DejaVuSans-67"/>
    </defs>
    <g transform="translate(527.06125 55.24)scale(0.12 -0.12)">
     <use xlink:href="#DejaVuSans-53"/>
     <use x="63.476562" xlink:href="#DejaVuSans-74"/>
     <use x="102.685547" xlink:href="#DejaVuSans-72"/>
     <use x="143.798828" xlink:href="#DejaVuSans-61"/>
     <use x="205.078125" xlink:href="#DejaVuSans-74"/>
     <use x="244.287109" xlink:href="#DejaVuSans-65"/>
     <use x="305.810547" xlink:href="#DejaVuSans-67"/>
     <use x="369.287109" xlink:href="#DejaVuSans-69"/>
     <use x="397.070312" xlink:href="#DejaVuSans-63"/>
    </g>
   </g>
   <g id="legend_2">
    <g id="patch_9">
     <path d="M 415.62 32.558125
L 692.75 32.558125
Q 694.75 32.558125 694.75 30.558125
L 694.75 16.88
Q 694.75 14.88 692.75 14.88
L 415.62 14.88
Q 413.62 14.88 413.62 16.88
L 413.62 30.558125
Q 413.62 32.558125 415.62 32.558125
z
" style="fill:#ffffff;opacity:0.8;stroke:#cccccc;stroke-linejoin:miter;"/>
    </g>
    <g id="line2d_73">
     <path d="M 417.62 22.978438
L 437.62 22.978438
" style="fill:none;stroke:#43799d;stroke-linecap:square;stroke-width:1.5;"/>
    </g>
    <g id="line2d_74"/>
    <g id="text_39">
     <!-- 1D -->
     <g transform="translate(445.62 26.478438)scale(0.1 -0.1)">
      <use xlink:href="#DejaVuSans-31"/>
      <use x="63.623047" xlink:href="#DejaVuSans-44"/>
     </g>
    </g>
    <g id="line2d_75">
     <path d="M 496.030521 22.978438
L 516.030521 22.978438
" style="fill:none;stroke:#cc5b46;stroke-linecap:square;stroke-width:1.5;"/>
    </g>
    <g id="line2d_76"/>
    <g id="text_40">
     <!-- I1D -->
     <g transform="translate(524.030521 26.478438)scale(0.1 -0.1)">
      <use xlink:href="#DejaVuSans-49"/>
      <use x="29.492188" xlink:href="#DejaVuSans-31"/>
      <use x="93.115234" xlink:href="#DejaVuSans-44"/>
     </g>
    </g>
    <g id="line2d_77">
     <path d="M 577.391042 22.978438
L 597.391042 22.978438
" style="fill:none;stroke:#ffbb00;stroke-linecap:square;stroke-width:1.5;"/>
    </g>
    <g id="line2d_78"/>
    <g id="text_41">
     <!-- 2D -->
     <g transform="translate(605.391042 26.478438)scale(0.1 -0.1)">
      <use xlink:href="#DejaVuSans-32"/>
      <use x="63.623047" xlink:href="#DejaVuSans-44"/>
     </g>
    </g>
    <g id="line2d_79">
     <path d="M 655.801563 22.978438
L 675.801563 22.978438
" style="fill:none;stroke:#71bc78;stroke-linecap:square;stroke-width:1.5;"/>
    </g>
    <g id="line2d_80"/>
    <g id="text_42">
     <!-- R -->
     <g transform="translate(683.801563 26.478438)scale(0.1 -0.1)">
      <use xlink:href="#DejaVuSans-52"/>
     </g>
    </g>
   </g>
  </g>
 </g>
 <defs>
  <clipPath id="p39f98adb5b">
   <rect height="256.8" width="291.13" x="54.02" y="61.24"/>
  </clipPath>
  <clipPath id="pd8fc77e166">
   <rect height="256.8" width="291.13" x="408.62" y="61.24"/>
  </clipPath>
 </defs>
</svg>
