<?xml version="1.0" encoding="utf-8" standalone="no"?>
<!DOCTYPE svg PUBLIC "-//W3C//DTD SVG 1.1//EN"
  "http://www.w3.org/Graphics/SVG/1.1/DTD/svg11.dtd">
<!-- Created with matplotlib (http://matplotlib.org/) -->
<svg height="648pt" version="1.1" viewBox="0 0 504 648" width="504pt" xmlns="http://www.w3.org/2000/svg" xmlns:xlink="http://www.w3.org/1999/xlink">
 <defs>
  <style type="text/css">
*{stroke-linecap:butt;stroke-linejoin:round;}
  </style>
 </defs>
 <g id="figure_1">
  <g id="patch_1">
   <path d="M 0 648
L 504 648
L 504 0
L 0 0
z
" style="fill:#ffffff;"/>
  </g>
  <g id="patch_2">
   <path d="M 13.32 316.08
L 490.68 316.08
L 490.68 13.32
L 13.32 13.32
z
" style="fill:#ffffff;"/>
  </g>
  <g id="pane3d_1">
   <g id="patch_3">
    <path d="M 116.103125 275.299601
L 137.405091 197.955978
L 132.215465 49.090332
L 109.382702 115.022725
" style="fill:#f2f2f2;opacity:0.5;stroke:#f2f2f2;stroke-linejoin:miter;"/>
   </g>
  </g>
  <g id="pane3d_2">
   <g id="patch_4">
    <path d="M 137.405091 197.955978
L 388.657074 200.426506
L 394.257412 51.187913
L 132.215465 49.090332
" style="fill:#e6e6e6;opacity:0.5;stroke:#e6e6e6;stroke-linejoin:miter;"/>
   </g>
  </g>
  <g id="pane3d_3">
   <g id="patch_5">
    <path d="M 116.103125 275.299601
L 391.641575 278.271492
L 388.657074 200.426506
L 137.405091 197.955978
" style="fill:#ececec;opacity:0.5;stroke:#ececec;stroke-linejoin:miter;"/>
   </g>
  </g>
  <g id="axis3d_1">
   <g id="line2d_1">
    <path d="M 116.103125 275.299601
L 391.641575 278.271492
" style="fill:none;stroke:#000000;stroke-linecap:square;stroke-width:0.8;"/>
   </g>
   <g id="text_1">
    <!-- Self-challenge score -->
    <defs>
     <path d="M 53.515625 70.515625
L 53.515625 60.890625
Q 47.90625 63.578125 42.921875 64.890625
Q 37.9375 66.21875 33.296875 66.21875
Q 25.25 66.21875 20.875 63.09375
Q 16.5 59.96875 16.5 54.203125
Q 16.5 49.359375 19.40625 46.890625
Q 22.3125 44.4375 30.421875 42.921875
L 36.375 41.703125
Q 47.40625 39.59375 52.65625 34.296875
Q 57.90625 29 57.90625 20.125
Q 57.90625 9.515625 50.796875 4.046875
Q 43.703125 -1.421875 29.984375 -1.421875
Q 24.8125 -1.421875 18.96875 -0.25
Q 13.140625 0.921875 6.890625 3.21875
L 6.890625 13.375
Q 12.890625 10.015625 18.65625 8.296875
Q 24.421875 6.59375 29.984375 6.59375
Q 38.421875 6.59375 43.015625 9.90625
Q 47.609375 13.234375 47.609375 19.390625
Q 47.609375 24.75 44.3125 27.78125
Q 41.015625 30.8125 33.5 32.328125
L 27.484375 33.5
Q 16.453125 35.6875 11.515625 40.375
Q 6.59375 45.0625 6.59375 53.421875
Q 6.59375 63.09375 13.40625 68.65625
Q 20.21875 74.21875 32.171875 74.21875
Q 37.3125 74.21875 42.625 73.28125
Q 47.953125 72.359375 53.515625 70.515625
z
" id="DejaVuSans-53"/>
     <path d="M 56.203125 29.59375
L 56.203125 25.203125
L 14.890625 25.203125
Q 15.484375 15.921875 20.484375 11.0625
Q 25.484375 6.203125 34.421875 6.203125
Q 39.59375 6.203125 44.453125 7.46875
Q 49.3125 8.734375 54.109375 11.28125
L 54.109375 2.78125
Q 49.265625 0.734375 44.1875 -0.34375
Q 39.109375 -1.421875 33.890625 -1.421875
Q 20.796875 -1.421875 13.15625 6.1875
Q 5.515625 13.8125 5.515625 26.8125
Q 5.515625 40.234375 12.765625 48.109375
Q 20.015625 56 32.328125 56
Q 43.359375 56 49.78125 48.890625
Q 56.203125 41.796875 56.203125 29.59375
z
M 47.21875 32.234375
Q 47.125 39.59375 43.09375 43.984375
Q 39.0625 48.390625 32.421875 48.390625
Q 24.90625 48.390625 20.390625 44.140625
Q 15.875 39.890625 15.1875 32.171875
z
" id="DejaVuSans-65"/>
     <path d="M 9.421875 75.984375
L 18.40625 75.984375
L 18.40625 0
L 9.421875 0
z
" id="DejaVuSans-6c"/>
     <path d="M 37.109375 75.984375
L 37.109375 68.5
L 28.515625 68.5
Q 23.6875 68.5 21.796875 66.546875
Q 19.921875 64.59375 19.921875 59.515625
L 19.921875 54.6875
L 34.71875 54.6875
L 34.71875 47.703125
L 19.921875 47.703125
L 19.921875 0
L 10.890625 0
L 10.890625 47.703125
L 2.296875 47.703125
L 2.296875 54.6875
L 10.890625 54.6875
L 10.890625 58.5
Q 10.890625 67.625 15.140625 71.796875
Q 19.390625 75.984375 28.609375 75.984375
z
" id="DejaVuSans-66"/>
     <path d="M 4.890625 31.390625
L 31.203125 31.390625
L 31.203125 23.390625
L 4.890625 23.390625
z
" id="DejaVuSans-2d"/>
     <path d="M 48.78125 52.59375
L 48.78125 44.1875
Q 44.96875 46.296875 41.140625 47.34375
Q 37.3125 48.390625 33.40625 48.390625
Q 24.65625 48.390625 19.8125 42.84375
Q 14.984375 37.3125 14.984375 27.296875
Q 14.984375 17.28125 19.8125 11.734375
Q 24.65625 6.203125 33.40625 6.203125
Q 37.3125 6.203125 41.140625 7.25
Q 44.96875 8.296875 48.78125 10.40625
L 48.78125 2.09375
Q 45.015625 0.34375 40.984375 -0.53125
Q 36.96875 -1.421875 32.421875 -1.421875
Q 20.0625 -1.421875 12.78125 6.34375
Q 5.515625 14.109375 5.515625 27.296875
Q 5.515625 40.671875 12.859375 48.328125
Q 20.21875 56 33.015625 56
Q 37.15625 56 41.109375 55.140625
Q 45.0625 54.296875 48.78125 52.59375
z
" id="DejaVuSans-63"/>
     <path d="M 54.890625 33.015625
L 54.890625 0
L 45.90625 0
L 45.90625 32.71875
Q 45.90625 40.484375 42.875 44.328125
Q 39.84375 48.1875 33.796875 48.1875
Q 26.515625 48.1875 22.3125 43.546875
Q 18.109375 38.921875 18.109375 30.90625
L 18.109375 0
L 9.078125 0
L 9.078125 75.984375
L 18.109375 75.984375
L 18.109375 46.1875
Q 21.34375 51.125 25.703125 53.5625
Q 30.078125 56 35.796875 56
Q 45.21875 56 50.046875 50.171875
Q 54.890625 44.34375 54.890625 33.015625
z
" id="DejaVuSans-68"/>
     <path d="M 34.28125 27.484375
Q 23.390625 27.484375 19.1875 25
Q 14.984375 22.515625 14.984375 16.5
Q 14.984375 11.71875 18.140625 8.90625
Q 21.296875 6.109375 26.703125 6.109375
Q 34.1875 6.109375 38.703125 11.40625
Q 43.21875 16.703125 43.21875 25.484375
L 43.21875 27.484375
z
M 52.203125 31.203125
L 52.203125 0
L 43.21875 0
L 43.21875 8.296875
Q 40.140625 3.328125 35.546875 0.953125
Q 30.953125 -1.421875 24.3125 -1.421875
Q 15.921875 -1.421875 10.953125 3.296875
Q 6 8.015625 6 15.921875
Q 6 25.140625 12.171875 29.828125
Q 18.359375 34.515625 30.609375 34.515625
L 43.21875 34.515625
L 43.21875 35.40625
Q 43.21875 41.609375 39.140625 45
Q 35.0625 48.390625 27.6875 48.390625
Q 23 48.390625 18.546875 47.265625
Q 14.109375 46.140625 10.015625 43.890625
L 10.015625 52.203125
Q 14.9375 54.109375 19.578125 55.046875
Q 24.21875 56 28.609375 56
Q 40.484375 56 46.34375 49.84375
Q 52.203125 43.703125 52.203125 31.203125
z
" id="DejaVuSans-61"/>
     <path d="M 54.890625 33.015625
L 54.890625 0
L 45.90625 0
L 45.90625 32.71875
Q 45.90625 40.484375 42.875 44.328125
Q 39.84375 48.1875 33.796875 48.1875
Q 26.515625 48.1875 22.3125 43.546875
Q 18.109375 38.921875 18.109375 30.90625
L 18.109375 0
L 9.078125 0
L 9.078125 54.6875
L 18.109375 54.6875
L 18.109375 46.1875
Q 21.34375 51.125 25.703125 53.5625
Q 30.078125 56 35.796875 56
Q 45.21875 56 50.046875 50.171875
Q 54.890625 44.34375 54.890625 33.015625
z
" id="DejaVuSans-6e"/>
     <path d="M 45.40625 27.984375
Q 45.40625 37.75 41.375 43.109375
Q 37.359375 48.484375 30.078125 48.484375
Q 22.859375 48.484375 18.828125 43.109375
Q 14.796875 37.75 14.796875 27.984375
Q 14.796875 18.265625 18.828125 12.890625
Q 22.859375 7.515625 30.078125 7.515625
Q 37.359375 7.515625 41.375 12.890625
Q 45.40625 18.265625 45.40625 27.984375
z
M 54.390625 6.78125
Q 54.390625 -7.171875 48.1875 -13.984375
Q 42 -20.796875 29.203125 -20.796875
Q 24.46875 -20.796875 20.265625 -20.09375
Q 16.0625 -19.390625 12.109375 -17.921875
L 12.109375 -9.1875
Q 16.0625 -11.328125 19.921875 -12.34375
Q 23.78125 -13.375 27.78125 -13.375
Q 36.625 -13.375 41.015625 -8.765625
Q 45.40625 -4.15625 45.40625 5.171875
L 45.40625 9.625
Q 42.625 4.78125 38.28125 2.390625
Q 33.9375 0 27.875 0
Q 17.828125 0 11.671875 7.65625
Q 5.515625 15.328125 5.515625 27.984375
Q 5.515625 40.671875 11.671875 48.328125
Q 17.828125 56 27.875 56
Q 33.9375 56 38.28125 53.609375
Q 42.625 51.21875 45.40625 46.390625
L 45.40625 54.6875
L 54.390625 54.6875
z
" id="DejaVuSans-67"/>
     <path id="DejaVuSans-20"/>
     <path d="M 44.28125 53.078125
L 44.28125 44.578125
Q 40.484375 46.53125 36.375 47.5
Q 32.28125 48.484375 27.875 48.484375
Q 21.1875 48.484375 17.84375 46.4375
Q 14.5 44.390625 14.5 40.28125
Q 14.5 37.15625 16.890625 35.375
Q 19.28125 33.59375 26.515625 31.984375
L 29.59375 31.296875
Q 39.15625 29.25 43.1875 25.515625
Q 47.21875 21.78125 47.21875 15.09375
Q 47.21875 7.46875 41.1875 3.015625
Q 35.15625 -1.421875 24.609375 -1.421875
Q 20.21875 -1.421875 15.453125 -0.5625
Q 10.6875 0.296875 5.421875 2
L 5.421875 11.28125
Q 10.40625 8.6875 15.234375 7.390625
Q 20.0625 6.109375 24.8125 6.109375
Q 31.15625 6.109375 34.5625 8.28125
Q 37.984375 10.453125 37.984375 14.40625
Q 37.984375 18.0625 35.515625 20.015625
Q 33.0625 21.96875 24.703125 23.78125
L 21.578125 24.515625
Q 13.234375 26.265625 9.515625 29.90625
Q 5.8125 33.546875 5.8125 39.890625
Q 5.8125 47.609375 11.28125 51.796875
Q 16.75 56 26.8125 56
Q 31.78125 56 36.171875 55.265625
Q 40.578125 54.546875 44.28125 53.078125
z
" id="DejaVuSans-73"/>
     <path d="M 30.609375 48.390625
Q 23.390625 48.390625 19.1875 42.75
Q 14.984375 37.109375 14.984375 27.296875
Q 14.984375 17.484375 19.15625 11.84375
Q 23.34375 6.203125 30.609375 6.203125
Q 37.796875 6.203125 41.984375 11.859375
Q 46.1875 17.53125 46.1875 27.296875
Q 46.1875 37.015625 41.984375 42.703125
Q 37.796875 48.390625 30.609375 48.390625
z
M 30.609375 56
Q 42.328125 56 49.015625 48.375
Q 55.71875 40.765625 55.71875 27.296875
Q 55.71875 13.875 49.015625 6.21875
Q 42.328125 -1.421875 30.609375 -1.421875
Q 18.84375 -1.421875 12.171875 6.21875
Q 5.515625 13.875 5.515625 27.296875
Q 5.515625 40.765625 12.171875 48.375
Q 18.84375 56 30.609375 56
z
" id="DejaVuSans-6f"/>
     <path d="M 41.109375 46.296875
Q 39.59375 47.171875 37.8125 47.578125
Q 36.03125 48 33.890625 48
Q 26.265625 48 22.1875 43.046875
Q 18.109375 38.09375 18.109375 28.8125
L 18.109375 0
L 9.078125 0
L 9.078125 54.6875
L 18.109375 54.6875
L 18.109375 46.1875
Q 20.953125 51.171875 25.484375 53.578125
Q 30.03125 56 36.53125 56
Q 37.453125 56 38.578125 55.875
Q 39.703125 55.765625 41.0625 55.515625
z
" id="DejaVuSans-72"/>
    </defs>
    <g transform="translate(201.801188 308.514594)rotate(-359.382045)scale(0.1 -0.1)">
     <use xlink:href="#DejaVuSans-53"/>
     <use x="63.476562" xlink:href="#DejaVuSans-65"/>
     <use x="125" xlink:href="#DejaVuSans-6c"/>
     <use x="152.783203" xlink:href="#DejaVuSans-66"/>
     <use x="187.910156" xlink:href="#DejaVuSans-2d"/>
     <use x="223.994141" xlink:href="#DejaVuSans-63"/>
     <use x="278.974609" xlink:href="#DejaVuSans-68"/>
     <use x="342.353516" xlink:href="#DejaVuSans-61"/>
     <use x="403.632812" xlink:href="#DejaVuSans-6c"/>
     <use x="431.416016" xlink:href="#DejaVuSans-6c"/>
     <use x="459.199219" xlink:href="#DejaVuSans-65"/>
     <use x="520.722656" xlink:href="#DejaVuSans-6e"/>
     <use x="584.101562" xlink:href="#DejaVuSans-67"/>
     <use x="647.578125" xlink:href="#DejaVuSans-65"/>
     <use x="709.101562" xlink:href="#DejaVuSans-20"/>
     <use x="740.888672" xlink:href="#DejaVuSans-73"/>
     <use x="792.988281" xlink:href="#DejaVuSans-63"/>
     <use x="847.96875" xlink:href="#DejaVuSans-6f"/>
     <use x="909.150391" xlink:href="#DejaVuSans-72"/>
     <use x="950.232422" xlink:href="#DejaVuSans-65"/>
    </g>
   </g>
   <g id="Line3DCollection_1">
    <path d="M 121.595671 275.358842
L 142.414978 198.00524
L 137.439823 49.132152
" style="fill:none;stroke:#b0b0b0;stroke-width:0.8;"/>
    <path d="M 154.56652 275.714458
L 172.487253 198.300937
L 168.800057 49.383183
" style="fill:none;stroke:#b0b0b0;stroke-width:0.8;"/>
    <path d="M 187.564092 276.070361
L 202.581751 198.596852
L 200.184462 49.634407
" style="fill:none;stroke:#b0b0b0;stroke-width:0.8;"/>
    <path d="M 220.588419 276.426554
L 232.698499 198.892986
L 231.593066 49.885825
" style="fill:none;stroke:#b0b0b0;stroke-width:0.8;"/>
    <path d="M 253.639533 276.783035
L 262.837521 199.189339
L 263.025895 50.137438
" style="fill:none;stroke:#b0b0b0;stroke-width:0.8;"/>
    <path d="M 286.717468 277.139806
L 292.99884 199.485911
L 294.48298 50.389244
" style="fill:none;stroke:#b0b0b0;stroke-width:0.8;"/>
    <path d="M 319.822257 277.496866
L 323.182483 199.782703
L 325.964347 50.641244
" style="fill:none;stroke:#b0b0b0;stroke-width:0.8;"/>
    <path d="M 352.953931 277.854217
L 353.388474 200.079715
L 357.470025 50.893439
" style="fill:none;stroke:#b0b0b0;stroke-width:0.8;"/>
    <path d="M 386.112523 278.211857
L 383.616837 200.376946
L 389.000041 51.145829
" style="fill:none;stroke:#b0b0b0;stroke-width:0.8;"/>
   </g>
   <g id="xtick_1">
    <g id="line2d_2">
     <path d="M 121.778178 274.680741
L 121.229809 276.718194
" style="fill:none;stroke:#000000;stroke-linecap:square;stroke-width:0.8;"/>
    </g>
    <g id="text_2">
     <!-- −1.00 -->
     <defs>
      <path d="M 10.59375 35.5
L 73.1875 35.5
L 73.1875 27.203125
L 10.59375 27.203125
z
" id="DejaVuSans-2212"/>
      <path d="M 12.40625 8.296875
L 28.515625 8.296875
L 28.515625 63.921875
L 10.984375 60.40625
L 10.984375 69.390625
L 28.421875 72.90625
L 38.28125 72.90625
L 38.28125 8.296875
L 54.390625 8.296875
L 54.390625 0
L 12.40625 0
z
" id="DejaVuSans-31"/>
      <path d="M 10.6875 12.40625
L 21 12.40625
L 21 0
L 10.6875 0
z
" id="DejaVuSans-2e"/>
      <path d="M 31.78125 66.40625
Q 24.171875 66.40625 20.328125 58.90625
Q 16.5 51.421875 16.5 36.375
Q 16.5 21.390625 20.328125 13.890625
Q 24.171875 6.390625 31.78125 6.390625
Q 39.453125 6.390625 43.28125 13.890625
Q 47.125 21.390625 47.125 36.375
Q 47.125 51.421875 43.28125 58.90625
Q 39.453125 66.40625 31.78125 66.40625
z
M 31.78125 74.21875
Q 44.046875 74.21875 50.515625 64.515625
Q 56.984375 54.828125 56.984375 36.375
Q 56.984375 17.96875 50.515625 8.265625
Q 44.046875 -1.421875 31.78125 -1.421875
Q 19.53125 -1.421875 13.0625 8.265625
Q 6.59375 17.96875 6.59375 36.375
Q 6.59375 54.828125 13.0625 64.515625
Q 19.53125 74.21875 31.78125 74.21875
z
" id="DejaVuSans-30"/>
     </defs>
     <g transform="translate(105.327143 296.462672)scale(0.1 -0.1)">
      <use xlink:href="#DejaVuSans-2212"/>
      <use x="83.789062" xlink:href="#DejaVuSans-31"/>
      <use x="147.412109" xlink:href="#DejaVuSans-2e"/>
      <use x="179.199219" xlink:href="#DejaVuSans-30"/>
      <use x="242.822266" xlink:href="#DejaVuSans-30"/>
     </g>
    </g>
   </g>
   <g id="xtick_2">
    <g id="line2d_3">
     <path d="M 154.723623 275.035807
L 154.251583 277.074912
" style="fill:none;stroke:#000000;stroke-linecap:square;stroke-width:0.8;"/>
    </g>
    <g id="text_3">
     <!-- −0.75 -->
     <defs>
      <path d="M 8.203125 72.90625
L 55.078125 72.90625
L 55.078125 68.703125
L 28.609375 0
L 18.3125 0
L 43.21875 64.59375
L 8.203125 64.59375
z
" id="DejaVuSans-37"/>
      <path d="M 10.796875 72.90625
L 49.515625 72.90625
L 49.515625 64.59375
L 19.828125 64.59375
L 19.828125 46.734375
Q 21.96875 47.46875 24.109375 47.828125
Q 26.265625 48.1875 28.421875 48.1875
Q 40.625 48.1875 47.75 41.5
Q 54.890625 34.8125 54.890625 23.390625
Q 54.890625 11.625 47.5625 5.09375
Q 40.234375 -1.421875 26.90625 -1.421875
Q 22.3125 -1.421875 17.546875 -0.640625
Q 12.796875 0.140625 7.71875 1.703125
L 7.71875 11.625
Q 12.109375 9.234375 16.796875 8.0625
Q 21.484375 6.890625 26.703125 6.890625
Q 35.15625 6.890625 40.078125 11.328125
Q 45.015625 15.765625 45.015625 23.390625
Q 45.015625 31 40.078125 35.4375
Q 35.15625 39.890625 26.703125 39.890625
Q 22.75 39.890625 18.8125 39.015625
Q 14.890625 38.140625 10.796875 36.28125
z
" id="DejaVuSans-35"/>
     </defs>
     <g transform="translate(138.394125 296.824815)scale(0.1 -0.1)">
      <use xlink:href="#DejaVuSans-2212"/>
      <use x="83.789062" xlink:href="#DejaVuSans-30"/>
      <use x="147.412109" xlink:href="#DejaVuSans-2e"/>
      <use x="179.199219" xlink:href="#DejaVuSans-37"/>
      <use x="242.822266" xlink:href="#DejaVuSans-35"/>
     </g>
    </g>
   </g>
   <g id="xtick_3">
    <g id="line2d_4">
     <path d="M 187.695749 275.391161
L 187.300164 277.43192
" style="fill:none;stroke:#000000;stroke-linecap:square;stroke-width:0.8;"/>
    </g>
    <g id="text_4">
     <!-- −0.50 -->
     <g transform="translate(171.487987 297.187253)scale(0.1 -0.1)">
      <use xlink:href="#DejaVuSans-2212"/>
      <use x="83.789062" xlink:href="#DejaVuSans-30"/>
      <use x="147.412109" xlink:href="#DejaVuSans-2e"/>
      <use x="179.199219" xlink:href="#DejaVuSans-35"/>
      <use x="242.822266" xlink:href="#DejaVuSans-30"/>
     </g>
    </g>
   </g>
   <g id="xtick_4">
    <g id="line2d_5">
     <path d="M 220.69459 275.746803
L 220.375582 277.789217
" style="fill:none;stroke:#000000;stroke-linecap:square;stroke-width:0.8;"/>
    </g>
    <g id="text_5">
     <!-- −0.25 -->
     <defs>
      <path d="M 19.1875 8.296875
L 53.609375 8.296875
L 53.609375 0
L 7.328125 0
L 7.328125 8.296875
Q 12.9375 14.109375 22.625 23.890625
Q 32.328125 33.6875 34.8125 36.53125
Q 39.546875 41.84375 41.421875 45.53125
Q 43.3125 49.21875 43.3125 52.78125
Q 43.3125 58.59375 39.234375 62.25
Q 35.15625 65.921875 28.609375 65.921875
Q 23.96875 65.921875 18.8125 64.3125
Q 13.671875 62.703125 7.8125 59.421875
L 7.8125 69.390625
Q 13.765625 71.78125 18.9375 73
Q 24.125 74.21875 28.421875 74.21875
Q 39.75 74.21875 46.484375 68.546875
Q 53.21875 62.890625 53.21875 53.421875
Q 53.21875 48.921875 51.53125 44.890625
Q 49.859375 40.875 45.40625 35.40625
Q 44.1875 33.984375 37.640625 27.21875
Q 31.109375 20.453125 19.1875 8.296875
z
" id="DejaVuSans-32"/>
     </defs>
     <g transform="translate(204.60876 297.549986)scale(0.1 -0.1)">
      <use xlink:href="#DejaVuSans-2212"/>
      <use x="83.789062" xlink:href="#DejaVuSans-30"/>
      <use x="147.412109" xlink:href="#DejaVuSans-2e"/>
      <use x="179.199219" xlink:href="#DejaVuSans-32"/>
      <use x="242.822266" xlink:href="#DejaVuSans-35"/>
     </g>
    </g>
   </g>
   <g id="xtick_5">
    <g id="line2d_6">
     <path d="M 253.720177 276.102733
L 253.477872 278.146805
" style="fill:none;stroke:#000000;stroke-linecap:square;stroke-width:0.8;"/>
    </g>
    <g id="text_6">
     <!-- 0.00 -->
     <g transform="translate(241.946322 297.913013)scale(0.1 -0.1)">
      <use xlink:href="#DejaVuSans-30"/>
      <use x="63.623047" xlink:href="#DejaVuSans-2e"/>
      <use x="95.410156" xlink:href="#DejaVuSans-30"/>
      <use x="159.033203" xlink:href="#DejaVuSans-30"/>
     </g>
    </g>
   </g>
   <g id="xtick_6">
    <g id="line2d_7">
     <path d="M 286.772542 276.458952
L 286.607064 278.504683
" style="fill:none;stroke:#000000;stroke-linecap:square;stroke-width:0.8;"/>
    </g>
    <g id="text_7">
     <!-- 0.25 -->
     <g transform="translate(275.121018 298.276337)scale(0.1 -0.1)">
      <use xlink:href="#DejaVuSans-30"/>
      <use x="63.623047" xlink:href="#DejaVuSans-2e"/>
      <use x="95.410156" xlink:href="#DejaVuSans-32"/>
      <use x="159.033203" xlink:href="#DejaVuSans-35"/>
     </g>
    </g>
   </g>
   <g id="xtick_7">
    <g id="line2d_8">
     <path d="M 319.851719 276.81546
L 319.763194 278.862853
" style="fill:none;stroke:#000000;stroke-linecap:square;stroke-width:0.8;"/>
    </g>
    <g id="text_8">
     <!-- 0.50 -->
     <g transform="translate(308.322724 298.639956)scale(0.1 -0.1)">
      <use xlink:href="#DejaVuSans-30"/>
      <use x="63.623047" xlink:href="#DejaVuSans-2e"/>
      <use x="95.410156" xlink:href="#DejaVuSans-35"/>
      <use x="159.033203" xlink:href="#DejaVuSans-30"/>
     </g>
    </g>
   </g>
   <g id="xtick_8">
    <g id="line2d_9">
     <path d="M 352.957741 277.172257
L 352.946292 279.221314
" style="fill:none;stroke:#000000;stroke-linecap:square;stroke-width:0.8;"/>
    </g>
    <g id="text_9">
     <!-- 0.75 -->
     <g transform="translate(341.551474 299.003871)scale(0.1 -0.1)">
      <use xlink:href="#DejaVuSans-30"/>
      <use x="63.623047" xlink:href="#DejaVuSans-2e"/>
      <use x="95.410156" xlink:href="#DejaVuSans-37"/>
      <use x="159.033203" xlink:href="#DejaVuSans-35"/>
     </g>
    </g>
   </g>
   <g id="xtick_9">
    <g id="line2d_10">
     <path d="M 386.090639 277.529343
L 386.156393 279.580066
" style="fill:none;stroke:#000000;stroke-linecap:square;stroke-width:0.8;"/>
    </g>
    <g id="text_10">
     <!-- 1.00 -->
     <g transform="translate(374.807301 299.368082)scale(0.1 -0.1)">
      <use xlink:href="#DejaVuSans-31"/>
      <use x="63.623047" xlink:href="#DejaVuSans-2e"/>
      <use x="95.410156" xlink:href="#DejaVuSans-30"/>
      <use x="159.033203" xlink:href="#DejaVuSans-30"/>
     </g>
    </g>
   </g>
  </g>
  <g id="axis3d_2">
   <g id="line2d_11">
    <path d="M 388.657074 200.426506
L 391.641575 278.271492
" style="fill:none;stroke:#000000;stroke-linecap:square;stroke-width:0.8;"/>
   </g>
   <g id="text_11">
    <!-- Trial number -->
    <defs>
     <path d="M -0.296875 72.90625
L 61.375 72.90625
L 61.375 64.59375
L 35.5 64.59375
L 35.5 0
L 25.59375 0
L 25.59375 64.59375
L -0.296875 64.59375
z
" id="DejaVuSans-54"/>
     <path d="M 9.421875 54.6875
L 18.40625 54.6875
L 18.40625 0
L 9.421875 0
z
M 9.421875 75.984375
L 18.40625 75.984375
L 18.40625 64.59375
L 9.421875 64.59375
z
" id="DejaVuSans-69"/>
     <path d="M 8.5 21.578125
L 8.5 54.6875
L 17.484375 54.6875
L 17.484375 21.921875
Q 17.484375 14.15625 20.5 10.265625
Q 23.53125 6.390625 29.59375 6.390625
Q 36.859375 6.390625 41.078125 11.03125
Q 45.3125 15.671875 45.3125 23.6875
L 45.3125 54.6875
L 54.296875 54.6875
L 54.296875 0
L 45.3125 0
L 45.3125 8.40625
Q 42.046875 3.421875 37.71875 1
Q 33.40625 -1.421875 27.6875 -1.421875
Q 18.265625 -1.421875 13.375 4.4375
Q 8.5 10.296875 8.5 21.578125
z
M 31.109375 56
z
" id="DejaVuSans-75"/>
     <path d="M 52 44.1875
Q 55.375 50.25 60.0625 53.125
Q 64.75 56 71.09375 56
Q 79.640625 56 84.28125 50.015625
Q 88.921875 44.046875 88.921875 33.015625
L 88.921875 0
L 79.890625 0
L 79.890625 32.71875
Q 79.890625 40.578125 77.09375 44.375
Q 74.3125 48.1875 68.609375 48.1875
Q 61.625 48.1875 57.5625 43.546875
Q 53.515625 38.921875 53.515625 30.90625
L 53.515625 0
L 44.484375 0
L 44.484375 32.71875
Q 44.484375 40.625 41.703125 44.40625
Q 38.921875 48.1875 33.109375 48.1875
Q 26.21875 48.1875 22.15625 43.53125
Q 18.109375 38.875 18.109375 30.90625
L 18.109375 0
L 9.078125 0
L 9.078125 54.6875
L 18.109375 54.6875
L 18.109375 46.1875
Q 21.1875 51.21875 25.484375 53.609375
Q 29.78125 56 35.6875 56
Q 41.65625 56 45.828125 52.96875
Q 50 49.953125 52 44.1875
z
" id="DejaVuSans-6d"/>
     <path d="M 48.6875 27.296875
Q 48.6875 37.203125 44.609375 42.84375
Q 40.53125 48.484375 33.40625 48.484375
Q 26.265625 48.484375 22.1875 42.84375
Q 18.109375 37.203125 18.109375 27.296875
Q 18.109375 17.390625 22.1875 11.75
Q 26.265625 6.109375 33.40625 6.109375
Q 40.53125 6.109375 44.609375 11.75
Q 48.6875 17.390625 48.6875 27.296875
z
M 18.109375 46.390625
Q 20.953125 51.265625 25.265625 53.625
Q 29.59375 56 35.59375 56
Q 45.5625 56 51.78125 48.09375
Q 58.015625 40.1875 58.015625 27.296875
Q 58.015625 14.40625 51.78125 6.484375
Q 45.5625 -1.421875 35.59375 -1.421875
Q 29.59375 -1.421875 25.265625 0.953125
Q 20.953125 3.328125 18.109375 8.203125
L 18.109375 0
L 9.078125 0
L 9.078125 75.984375
L 18.109375 75.984375
z
" id="DejaVuSans-62"/>
    </defs>
    <g transform="translate(417.689753 224.102707)rotate(-272.195589)scale(0.1 -0.1)">
     <use xlink:href="#DejaVuSans-54"/>
     <use x="60.865234" xlink:href="#DejaVuSans-72"/>
     <use x="101.978516" xlink:href="#DejaVuSans-69"/>
     <use x="129.761719" xlink:href="#DejaVuSans-61"/>
     <use x="191.041016" xlink:href="#DejaVuSans-6c"/>
     <use x="218.824219" xlink:href="#DejaVuSans-20"/>
     <use x="250.611328" xlink:href="#DejaVuSans-6e"/>
     <use x="313.990234" xlink:href="#DejaVuSans-75"/>
     <use x="377.369141" xlink:href="#DejaVuSans-6d"/>
     <use x="474.78125" xlink:href="#DejaVuSans-62"/>
     <use x="538.257812" xlink:href="#DejaVuSans-65"/>
     <use x="599.78125" xlink:href="#DejaVuSans-72"/>
    </g>
   </g>
   <g id="Line3DCollection_2">
    <path d="M 109.884547 113.573585
L 116.569428 273.606538
L 391.576224 276.566958
" style="fill:none;stroke:#b0b0b0;stroke-width:0.8;"/>
    <path d="M 114.601091 99.953988
L 120.95608 257.67939
L 390.961497 260.532978
" style="fill:none;stroke:#b0b0b0;stroke-width:0.8;"/>
    <path d="M 119.141574 86.842791
L 125.18609 242.320982
L 390.368793 245.073418
" style="fill:none;stroke:#b0b0b0;stroke-width:0.8;"/>
    <path d="M 123.515672 74.212047
L 129.267701 227.501384
L 389.796949 230.157953
" style="fill:none;stroke:#b0b0b0;stroke-width:0.8;"/>
    <path d="M 127.732368 62.035823
L 133.208587 213.192732
L 389.244882 215.758356
" style="fill:none;stroke:#b0b0b0;stroke-width:0.8;"/>
    <path d="M 131.800007 50.29002
L 137.015904 199.369048
L 388.711585 201.84832
" style="fill:none;stroke:#b0b0b0;stroke-width:0.8;"/>
   </g>
   <g id="xtick_10">
    <g id="line2d_12">
     <path d="M 389.368796 276.543195
L 395.99144 276.614487
" style="fill:none;stroke:#000000;stroke-linecap:square;stroke-width:0.8;"/>
    </g>
    <g id="text_12">
     <!-- 0 -->
     <g transform="translate(403.638529 292.985672)scale(0.1 -0.1)">
      <use xlink:href="#DejaVuSans-30"/>
     </g>
    </g>
   </g>
   <g id="xtick_11">
    <g id="line2d_13">
     <path d="M 388.794346 260.510074
L 395.296145 260.578789
" style="fill:none;stroke:#000000;stroke-linecap:square;stroke-width:0.8;"/>
    </g>
    <g id="text_13">
     <!-- 50 -->
     <g transform="translate(399.566587 276.828321)scale(0.1 -0.1)">
      <use xlink:href="#DejaVuSans-35"/>
      <use x="63.623047" xlink:href="#DejaVuSans-30"/>
     </g>
    </g>
   </g>
   <g id="xtick_12">
    <g id="line2d_14">
     <path d="M 388.240475 245.051327
L 394.625761 245.117603
" style="fill:none;stroke:#000000;stroke-linecap:square;stroke-width:0.8;"/>
    </g>
    <g id="text_14">
     <!-- 100 -->
     <g transform="translate(395.526483 261.248495)scale(0.1 -0.1)">
      <use xlink:href="#DejaVuSans-31"/>
      <use x="63.623047" xlink:href="#DejaVuSans-30"/>
      <use x="127.246094" xlink:href="#DejaVuSans-30"/>
     </g>
    </g>
   </g>
   <g id="xtick_13">
    <g id="line2d_15">
     <path d="M 387.706097 230.136633
L 393.978972 230.200596
" style="fill:none;stroke:#000000;stroke-linecap:square;stroke-width:0.8;"/>
    </g>
    <g id="text_15">
     <!-- 150 -->
     <g transform="translate(394.697788 246.215771)scale(0.1 -0.1)">
      <use xlink:href="#DejaVuSans-31"/>
      <use x="63.623047" xlink:href="#DejaVuSans-35"/>
      <use x="127.246094" xlink:href="#DejaVuSans-30"/>
     </g>
    </g>
   </g>
   <g id="xtick_14">
    <g id="line2d_16">
     <path d="M 387.190201 215.737767
L 393.354555 215.799538
" style="fill:none;stroke:#000000;stroke-linecap:square;stroke-width:0.8;"/>
    </g>
    <g id="text_16">
     <!-- 200 -->
     <g transform="translate(393.897691 231.701828)scale(0.1 -0.1)">
      <use xlink:href="#DejaVuSans-32"/>
      <use x="63.623047" xlink:href="#DejaVuSans-30"/>
      <use x="127.246094" xlink:href="#DejaVuSans-30"/>
     </g>
    </g>
   </g>
   <g id="xtick_15">
    <g id="line2d_17">
     <path d="M 386.691844 201.828425
L 392.751367 201.888113
" style="fill:none;stroke:#000000;stroke-linecap:square;stroke-width:0.8;"/>
    </g>
    <g id="text_17">
     <!-- 250 -->
     <g transform="translate(393.124737 217.680269)scale(0.1 -0.1)">
      <use xlink:href="#DejaVuSans-32"/>
      <use x="63.623047" xlink:href="#DejaVuSans-35"/>
      <use x="127.246094" xlink:href="#DejaVuSans-30"/>
     </g>
    </g>
   </g>
  </g>
  <g id="axis3d_3">
   <g id="line2d_18">
    <path d="M 388.657074 200.426506
L 394.257412 51.187913
" style="fill:none;stroke:#000000;stroke-linecap:square;stroke-width:0.8;"/>
   </g>
   <g id="text_18">
    <!-- Relative frequency -->
    <defs>
     <path d="M 44.390625 34.1875
Q 47.5625 33.109375 50.5625 29.59375
Q 53.5625 26.078125 56.59375 19.921875
L 66.609375 0
L 56 0
L 46.6875 18.703125
Q 43.0625 26.03125 39.671875 28.421875
Q 36.28125 30.8125 30.421875 30.8125
L 19.671875 30.8125
L 19.671875 0
L 9.8125 0
L 9.8125 72.90625
L 32.078125 72.90625
Q 44.578125 72.90625 50.734375 67.671875
Q 56.890625 62.453125 56.890625 51.90625
Q 56.890625 45.015625 53.6875 40.46875
Q 50.484375 35.9375 44.390625 34.1875
z
M 19.671875 64.796875
L 19.671875 38.921875
L 32.078125 38.921875
Q 39.203125 38.921875 42.84375 42.21875
Q 46.484375 45.515625 46.484375 51.90625
Q 46.484375 58.296875 42.84375 61.546875
Q 39.203125 64.796875 32.078125 64.796875
z
" id="DejaVuSans-52"/>
     <path d="M 18.3125 70.21875
L 18.3125 54.6875
L 36.8125 54.6875
L 36.8125 47.703125
L 18.3125 47.703125
L 18.3125 18.015625
Q 18.3125 11.328125 20.140625 9.421875
Q 21.96875 7.515625 27.59375 7.515625
L 36.8125 7.515625
L 36.8125 0
L 27.59375 0
Q 17.1875 0 13.234375 3.875
Q 9.28125 7.765625 9.28125 18.015625
L 9.28125 47.703125
L 2.6875 47.703125
L 2.6875 54.6875
L 9.28125 54.6875
L 9.28125 70.21875
z
" id="DejaVuSans-74"/>
     <path d="M 2.984375 54.6875
L 12.5 54.6875
L 29.59375 8.796875
L 46.6875 54.6875
L 56.203125 54.6875
L 35.6875 0
L 23.484375 0
z
" id="DejaVuSans-76"/>
     <path d="M 14.796875 27.296875
Q 14.796875 17.390625 18.875 11.75
Q 22.953125 6.109375 30.078125 6.109375
Q 37.203125 6.109375 41.296875 11.75
Q 45.40625 17.390625 45.40625 27.296875
Q 45.40625 37.203125 41.296875 42.84375
Q 37.203125 48.484375 30.078125 48.484375
Q 22.953125 48.484375 18.875 42.84375
Q 14.796875 37.203125 14.796875 27.296875
z
M 45.40625 8.203125
Q 42.578125 3.328125 38.25 0.953125
Q 33.9375 -1.421875 27.875 -1.421875
Q 17.96875 -1.421875 11.734375 6.484375
Q 5.515625 14.40625 5.515625 27.296875
Q 5.515625 40.1875 11.734375 48.09375
Q 17.96875 56 27.875 56
Q 33.9375 56 38.25 53.625
Q 42.578125 51.265625 45.40625 46.390625
L 45.40625 54.6875
L 54.390625 54.6875
L 54.390625 -20.796875
L 45.40625 -20.796875
z
" id="DejaVuSans-71"/>
     <path d="M 32.171875 -5.078125
Q 28.375 -14.84375 24.75 -17.8125
Q 21.140625 -20.796875 15.09375 -20.796875
L 7.90625 -20.796875
L 7.90625 -13.28125
L 13.1875 -13.28125
Q 16.890625 -13.28125 18.9375 -11.515625
Q 21 -9.765625 23.484375 -3.21875
L 25.09375 0.875
L 2.984375 54.6875
L 12.5 54.6875
L 29.59375 11.921875
L 46.6875 54.6875
L 56.203125 54.6875
z
" id="DejaVuSans-79"/>
    </defs>
    <g transform="translate(423.350993 166.87149)rotate(-87.850923)scale(0.1 -0.1)">
     <use xlink:href="#DejaVuSans-52"/>
     <use x="69.419922" xlink:href="#DejaVuSans-65"/>
     <use x="130.943359" xlink:href="#DejaVuSans-6c"/>
     <use x="158.726562" xlink:href="#DejaVuSans-61"/>
     <use x="220.005859" xlink:href="#DejaVuSans-74"/>
     <use x="259.214844" xlink:href="#DejaVuSans-69"/>
     <use x="286.998047" xlink:href="#DejaVuSans-76"/>
     <use x="346.177734" xlink:href="#DejaVuSans-65"/>
     <use x="407.701172" xlink:href="#DejaVuSans-20"/>
     <use x="439.488281" xlink:href="#DejaVuSans-66"/>
     <use x="474.693359" xlink:href="#DejaVuSans-72"/>
     <use x="515.775391" xlink:href="#DejaVuSans-65"/>
     <use x="577.298828" xlink:href="#DejaVuSans-71"/>
     <use x="640.775391" xlink:href="#DejaVuSans-75"/>
     <use x="704.154297" xlink:href="#DejaVuSans-65"/>
     <use x="765.677734" xlink:href="#DejaVuSans-6e"/>
     <use x="829.056641" xlink:href="#DejaVuSans-63"/>
     <use x="884.037109" xlink:href="#DejaVuSans-79"/>
    </g>
   </g>
   <g id="Line3DCollection_3">
    <path d="M 388.764551 197.562457
L 137.305484 195.098716
L 115.97466 272.235816
" style="fill:none;stroke:#b0b0b0;stroke-width:0.8;"/>
    <path d="M 389.413154 180.278377
L 136.704379 177.855898
L 115.198976 253.736344
" style="fill:none;stroke:#b0b0b0;stroke-width:0.8;"/>
    <path d="M 390.068247 162.821381
L 136.09728 160.441115
L 114.414799 235.034336
" style="fill:none;stroke:#b0b0b0;stroke-width:0.8;"/>
    <path d="M 390.729926 145.188863
L 135.484096 142.851781
L 113.62199 216.126447
" style="fill:none;stroke:#b0b0b0;stroke-width:0.8;"/>
    <path d="M 391.398292 127.378161
L 134.864735 125.085258
L 112.820404 197.009258
" style="fill:none;stroke:#b0b0b0;stroke-width:0.8;"/>
    <path d="M 392.073446 109.386562
L 134.239103 107.138856
L 112.009896 177.679276
" style="fill:none;stroke:#b0b0b0;stroke-width:0.8;"/>
    <path d="M 392.755492 91.211294
L 133.607104 89.009828
L 111.190316 158.132927
" style="fill:none;stroke:#b0b0b0;stroke-width:0.8;"/>
    <path d="M 393.444537 72.849531
L 132.968642 70.695374
L 110.361511 138.366558
" style="fill:none;stroke:#b0b0b0;stroke-width:0.8;"/>
    <path d="M 394.140688 54.298388
L 132.323615 52.192632
L 109.523323 118.376434
" style="fill:none;stroke:#b0b0b0;stroke-width:0.8;"/>
   </g>
   <g id="xtick_16">
    <g id="line2d_19">
     <path d="M 386.746714 197.542687
L 392.800523 197.602001
" style="fill:none;stroke:#000000;stroke-linecap:square;stroke-width:0.8;"/>
    </g>
    <g id="text_19">
     <!-- 0.00 -->
     <g transform="translate(391.687371 201.313313)scale(0.1 -0.1)">
      <use xlink:href="#DejaVuSans-30"/>
      <use x="63.623047" xlink:href="#DejaVuSans-2e"/>
      <use x="95.410156" xlink:href="#DejaVuSans-30"/>
      <use x="159.033203" xlink:href="#DejaVuSans-30"/>
     </g>
    </g>
   </g>
   <g id="xtick_17">
    <g id="line2d_20">
     <path d="M 387.385259 180.258937
L 393.469248 180.317259
" style="fill:none;stroke:#000000;stroke-linecap:square;stroke-width:0.8;"/>
    </g>
    <g id="text_20">
     <!-- 0.05 -->
     <g transform="translate(392.402461 184.093705)scale(0.1 -0.1)">
      <use xlink:href="#DejaVuSans-30"/>
      <use x="63.623047" xlink:href="#DejaVuSans-2e"/>
      <use x="95.410156" xlink:href="#DejaVuSans-30"/>
      <use x="159.033203" xlink:href="#DejaVuSans-35"/>
     </g>
    </g>
   </g>
   <g id="xtick_18">
    <g id="line2d_21">
     <path d="M 388.030191 162.80228
L 394.144663 162.859586
" style="fill:none;stroke:#000000;stroke-linecap:square;stroke-width:0.8;"/>
    </g>
    <g id="text_21">
     <!-- 0.10 -->
     <g transform="translate(393.124669 166.702664)scale(0.1 -0.1)">
      <use xlink:href="#DejaVuSans-30"/>
      <use x="63.623047" xlink:href="#DejaVuSans-2e"/>
      <use x="95.410156" xlink:href="#DejaVuSans-31"/>
      <use x="159.033203" xlink:href="#DejaVuSans-30"/>
     </g>
    </g>
   </g>
   <g id="xtick_19">
    <g id="line2d_22">
     <path d="M 388.681608 145.170108
L 394.82687 145.226375
" style="fill:none;stroke:#000000;stroke-linecap:square;stroke-width:0.8;"/>
    </g>
    <g id="text_22">
     <!-- 0.15 -->
     <g transform="translate(393.854104 149.137616)scale(0.1 -0.1)">
      <use xlink:href="#DejaVuSans-30"/>
      <use x="63.623047" xlink:href="#DejaVuSans-2e"/>
      <use x="95.410156" xlink:href="#DejaVuSans-31"/>
      <use x="159.033203" xlink:href="#DejaVuSans-35"/>
     </g>
    </g>
   </g>
   <g id="xtick_20">
    <g id="line2d_23">
     <path d="M 389.339608 127.359761
L 395.515971 127.414965
" style="fill:none;stroke:#000000;stroke-linecap:square;stroke-width:0.8;"/>
    </g>
    <g id="text_23">
     <!-- 0.20 -->
     <g transform="translate(394.590874 131.395938)scale(0.1 -0.1)">
      <use xlink:href="#DejaVuSans-30"/>
      <use x="63.623047" xlink:href="#DejaVuSans-2e"/>
      <use x="95.410156" xlink:href="#DejaVuSans-32"/>
      <use x="159.033203" xlink:href="#DejaVuSans-30"/>
     </g>
    </g>
   </g>
   <g id="xtick_21">
    <g id="line2d_24">
     <path d="M 390.00429 109.368524
L 396.212071 109.422641
" style="fill:none;stroke:#000000;stroke-linecap:square;stroke-width:0.8;"/>
    </g>
    <g id="text_24">
     <!-- 0.25 -->
     <g transform="translate(395.33509 113.474951)scale(0.1 -0.1)">
      <use xlink:href="#DejaVuSans-30"/>
      <use x="63.623047" xlink:href="#DejaVuSans-2e"/>
      <use x="95.410156" xlink:href="#DejaVuSans-32"/>
      <use x="159.033203" xlink:href="#DejaVuSans-35"/>
     </g>
    </g>
   </g>
   <g id="xtick_22">
    <g id="line2d_25">
     <path d="M 390.675758 91.193627
L 396.915278 91.246631
" style="fill:none;stroke:#000000;stroke-linecap:square;stroke-width:0.8;"/>
    </g>
    <g id="text_25">
     <!-- 0.30 -->
     <defs>
      <path d="M 40.578125 39.3125
Q 47.65625 37.796875 51.625 33
Q 55.609375 28.21875 55.609375 21.1875
Q 55.609375 10.40625 48.1875 4.484375
Q 40.765625 -1.421875 27.09375 -1.421875
Q 22.515625 -1.421875 17.65625 -0.515625
Q 12.796875 0.390625 7.625 2.203125
L 7.625 11.71875
Q 11.71875 9.328125 16.59375 8.109375
Q 21.484375 6.890625 26.8125 6.890625
Q 36.078125 6.890625 40.9375 10.546875
Q 45.796875 14.203125 45.796875 21.1875
Q 45.796875 27.640625 41.28125 31.265625
Q 36.765625 34.90625 28.71875 34.90625
L 20.21875 34.90625
L 20.21875 43.015625
L 29.109375 43.015625
Q 36.375 43.015625 40.234375 45.921875
Q 44.09375 48.828125 44.09375 54.296875
Q 44.09375 59.90625 40.109375 62.90625
Q 36.140625 65.921875 28.71875 65.921875
Q 24.65625 65.921875 20.015625 65.03125
Q 15.375 64.15625 9.8125 62.3125
L 9.8125 71.09375
Q 15.4375 72.65625 20.34375 73.4375
Q 25.25 74.21875 29.59375 74.21875
Q 40.828125 74.21875 47.359375 69.109375
Q 53.90625 64.015625 53.90625 55.328125
Q 53.90625 49.265625 50.4375 45.09375
Q 46.96875 40.921875 40.578125 39.3125
z
" id="DejaVuSans-33"/>
     </defs>
     <g transform="translate(396.086865 95.371924)scale(0.1 -0.1)">
      <use xlink:href="#DejaVuSans-30"/>
      <use x="63.623047" xlink:href="#DejaVuSans-2e"/>
      <use x="95.410156" xlink:href="#DejaVuSans-33"/>
      <use x="159.033203" xlink:href="#DejaVuSans-30"/>
     </g>
    </g>
   </g>
   <g id="xtick_23">
    <g id="line2d_26">
     <path d="M 391.354115 72.832243
L 397.625701 72.88411
" style="fill:none;stroke:#000000;stroke-linecap:square;stroke-width:0.8;"/>
    </g>
    <g id="text_26">
     <!-- 0.35 -->
     <g transform="translate(396.846316 77.084068)scale(0.1 -0.1)">
      <use xlink:href="#DejaVuSans-30"/>
      <use x="63.623047" xlink:href="#DejaVuSans-2e"/>
      <use x="95.410156" xlink:href="#DejaVuSans-33"/>
      <use x="159.033203" xlink:href="#DejaVuSans-35"/>
     </g>
    </g>
   </g>
   <g id="xtick_24">
    <g id="line2d_27">
     <path d="M 392.039469 54.281489
L 398.343451 54.332191
" style="fill:none;stroke:#000000;stroke-linecap:square;stroke-width:0.8;"/>
    </g>
    <g id="text_27">
     <!-- 0.40 -->
     <defs>
      <path d="M 37.796875 64.3125
L 12.890625 25.390625
L 37.796875 25.390625
z
M 35.203125 72.90625
L 47.609375 72.90625
L 47.609375 25.390625
L 58.015625 25.390625
L 58.015625 17.1875
L 47.609375 17.1875
L 47.609375 0
L 37.796875 0
L 37.796875 17.1875
L 4.890625 17.1875
L 4.890625 26.703125
z
" id="DejaVuSans-34"/>
     </defs>
     <g transform="translate(397.613561 58.608538)scale(0.1 -0.1)">
      <use xlink:href="#DejaVuSans-30"/>
      <use x="63.623047" xlink:href="#DejaVuSans-2e"/>
      <use x="95.410156" xlink:href="#DejaVuSans-34"/>
      <use x="159.033203" xlink:href="#DejaVuSans-30"/>
     </g>
    </g>
   </g>
  </g>
  <g id="axes_1">
   <g id="Poly3DCollection_1">
    <path clip-path="url(#p8b6d319f29)" d="M 145.740055 199.32186
L 154.81444 199.41123
L 163.890847 199.500621
L 172.969278 199.590031
L 182.049734 199.679461
L 191.088768 197.529161
L 199.990465 186.375215
L 209.048292 181.945449
L 217.841604 152.375108
L 226.850297 129.298876
L 236.375575 168.580935
L 245.578274 175.495864
L 254.756798 191.413834
L 264.001195 113.230849
L 273.060097 178.028965
L 282.099084 196.178265
L 291.321934 185.000041
L 300.307212 198.601812
L 309.389048 200.93358
L 318.49995 201.02331
L 327.612888 201.11306
L 336.727861 201.20283
L 345.844872 201.29262
L 354.963919 201.382431
L 364.085004 201.472261
L 373.208128 201.562111
z
" style="fill:#008fd5;fill-opacity:0.6;stroke:#ffffff;stroke-opacity:0.6;"/>
    <path clip-path="url(#p8b6d319f29)" d="M 145.015472 202.060726
L 154.120774 202.150708
L 163.228113 202.24071
L 172.33749 202.330733
L 181.448905 202.420775
L 190.518395 200.265204
L 199.448719 189.08218
L 208.634149 191.43175
L 217.490685 166.489079
L 226.414303 134.188648
L 235.882574 159.772337
L 245.217375 184.995386
L 254.400565 191.877708
L 263.692875 101.521345
L 272.758726 182.990512
L 281.8851 192.145522
L 291.029552 194.494295
L 300.137115 199.094338
L 309.223108 203.683487
L 318.365178 203.773832
L 327.509297 203.864197
L 336.655467 203.954583
L 345.803686 204.044989
L 354.953957 204.135416
L 364.106281 204.225862
L 373.260656 204.316329
z
" style="fill:#008fd5;fill-opacity:0.6;stroke:#ffffff;stroke-opacity:0.6;"/>
    <path clip-path="url(#p8b6d319f29)" d="M 144.285922 204.818367
L 153.422354 204.908967
L 162.560836 204.999587
L 171.70137 205.090228
L 180.843956 205.180888
L 189.944107 203.020024
L 198.864392 189.538389
L 208.087758 191.897336
L 217.085508 176.035898
L 225.889595 129.728769
L 235.519106 171.627158
L 244.810941 183.156369
L 254.044287 194.613006
L 263.353532 108.775022
L 272.464827 185.702896
L 281.623369 194.882669
L 290.820544 194.972597
L 299.965625 199.590895
L 309.056028 206.452281
L 318.22948 206.543248
L 327.404995 206.634236
L 336.582574 206.725244
L 345.762218 206.816272
L 354.943928 206.907321
L 364.127703 206.99839
L 373.313545 207.08948
z
" style="fill:#008fd5;fill-opacity:0.6;stroke:#ffffff;stroke-opacity:0.6;"/>
    <path clip-path="url(#p8b6d319f29)" d="M 143.551354 207.594976
L 152.719128 207.6862
L 161.888967 207.777445
L 171.060872 207.86871
L 180.234843 207.959996
L 189.365864 205.793816
L 198.353997 194.552228
L 207.636685 199.184766
L 216.5692 176.441991
L 225.447216 134.660663
L 235.093672 174.318942
L 244.372861 174.407382
L 253.691774 201.905612
L 263.009644 118.439123
L 272.186916 183.859048
L 281.32988 202.178325
L 290.694293 186.327151
L 299.684823 209.148585
L 308.920732 206.980136
L 318.092846 209.331755
L 327.299974 209.42337
L 336.509179 209.515007
L 345.720464 209.606664
L 354.933828 209.698342
L 364.149273 209.79004
L 373.366799 209.881759
z
" style="fill:#008fd5;fill-opacity:0.6;stroke:#ffffff;stroke-opacity:0.6;"/>
    <path clip-path="url(#p8b6d319f29)" d="M 142.811715 210.390749
L 152.011048 210.482604
L 161.212461 210.57448
L 170.415953 210.666376
L 179.621525 210.758293
L 188.783625 208.586776
L 197.800943 197.315699
L 207.183674 206.503511
L 216.132472 183.760628
L 224.97996 137.261775
L 234.665269 177.02951
L 243.957636 172.495987
L 253.324319 200.140505
L 262.678875 116.222385
L 271.862066 193.473387
L 281.09446 200.413921
L 290.439425 191.364988
L 299.483626 211.955111
L 308.75134 209.781315
L 317.955267 212.139549
L 327.194226 212.2318
L 336.435277 212.324071
L 345.678421 212.416363
L 354.923659 212.508677
L 364.170993 212.601011
L 373.420421 212.693366
z
" style="fill:#008fd5;fill-opacity:0.6;stroke:#ffffff;stroke-opacity:0.6;"/>
    <path clip-path="url(#p8b6d319f29)" d="M 142.066954 213.205886
L 151.298064 213.298378
L 160.531267 213.390892
L 169.766565 213.483426
L 179.003957 213.575981
L 188.197349 211.399104
L 197.324582 204.664636
L 206.694745 211.583926
L 215.580552 181.892114
L 224.66796 156.37398
L 234.217799 177.443222
L 243.548299 172.891376
L 252.946071 193.771695
L 262.339594 118.784066
L 271.579497 191.655288
L 280.842002 200.922001
L 290.162171 198.723976
L 299.307877 212.509295
L 308.580771 212.601948
L 317.816734 214.966833
L 327.087744 215.059725
L 336.360861 215.152638
L 345.636086 215.245572
L 354.91342 215.338527
L 364.192863 215.431504
L 373.474416 215.524501
z
" style="fill:#008fd5;fill-opacity:0.6;stroke:#ffffff;stroke-opacity:0.6;"/>
    <path clip-path="url(#p8b6d319f29)" d="M 141.317017 216.040589
L 150.580123 216.133725
L 159.845338 216.226882
L 169.112662 216.320061
L 178.382095 216.413261
L 187.606993 214.231003
L 196.764813 207.478987
L 206.134151 212.138237
L 215.138608 189.273939
L 224.288354 168.439303
L 233.848541 189.455743
L 243.196599 187.233565
L 252.586543 201.158268
L 262.026953 92.283273
L 271.285667 192.130255
L 280.602112 199.135679
L 289.946211 199.227532
L 299.13067 213.068075
L 308.376071 217.72029
L 317.677235 217.813808
L 326.98052 217.907349
L 336.285927 218.00091
L 345.593456 218.094493
L 354.903109 218.188097
L 364.214886 218.281723
L 373.528787 218.37537
z
" style="fill:#008fd5;fill-opacity:0.6;stroke:#ffffff;stroke-opacity:0.6;"/>
    <path clip-path="url(#p8b6d319f29)" d="M 140.561849 218.895061
L 149.857175 218.988848
L 159.154624 219.082657
L 168.454197 219.176487
L 177.755894 219.270338
L 187.012515 217.082676
L 196.159855 208.019183
L 205.638836 217.270088
L 214.665602 194.375383
L 223.675614 157.038682
L 233.428764 194.558879
L 242.834388 199.274032
L 252.225449 208.576997
L 261.671238 104.572637
L 271.014505 185.639849
L 280.359897 197.332036
L 289.728445 199.735297
L 298.89836 218.208436
L 308.203112 220.58651
L 317.536762 220.680683
L 326.872547 220.774878
L 336.210469 220.869095
L 345.550528 220.963333
L 354.892726 221.057593
L 364.237063 221.151875
L 373.583539 221.246178
z
" style="fill:#008fd5;fill-opacity:0.6;stroke:#ffffff;stroke-opacity:0.6;"/>
    <path clip-path="url(#p8b6d319f29)" d="M 139.801396 221.769512
L 149.129167 221.863956
L 158.459075 221.958423
L 167.791122 222.05291
L 177.125308 222.14742
L 186.413871 219.954332
L 195.591688 210.866968
L 205.034433 215.557901
L 214.219425 201.821781
L 223.149262 154.999382
L 232.921339 188.063617
L 242.471559 211.335032
L 251.854008 211.428709
L 261.322759 107.134013
L 270.690595 193.092172
L 280.115321 195.510818
L 289.446706 207.19036
L 298.691446 221.088
L 308.02894 223.472831
L 317.395303 223.567666
L 326.763816 223.662523
L 336.134481 223.757402
L 345.507299 223.852303
L 354.88227 223.947225
L 364.259395 224.04217
L 373.638675 224.137136
z
" style="fill:#008fd5;fill-opacity:0.6;stroke:#ffffff;stroke-opacity:0.6;"/>
    <path clip-path="url(#p8b6d319f29)" d="M 139.035603 224.664151
L 148.396045 224.75926
L 157.75864 224.854391
L 167.123388 224.949543
L 176.490291 225.044718
L 185.811017 222.846182
L 195.019514 213.734834
L 204.460206 216.135466
L 213.711455 204.666008
L 222.763241 167.225576
L 232.460137 188.529844
L 242.053486 211.895906
L 251.465946 207.359755
L 260.976962 102.34526
L 270.349291 205.227063
L 279.839587 198.340707
L 289.184275 212.366802
L 298.483075 223.987842
L 307.853542 226.379466
L 317.252848 226.47497
L 326.65432 226.570496
L 336.057959 226.666044
L 345.463765 226.761614
L 354.87174 226.857206
L 364.281885 226.95282
L 373.694199 227.048456
z
" style="fill:#008fd5;fill-opacity:0.6;stroke:#ffffff;stroke-opacity:0.6;"/>
    <path clip-path="url(#p8b6d319f29)" d="M 138.264411 227.579191
L 147.657755 227.674972
L 157.053267 227.770774
L 166.450947 227.866599
L 175.850797 227.962446
L 185.203909 225.758439
L 194.486148 218.935414
L 203.917687 219.030517
L 213.169452 205.202021
L 222.327601 174.736501
L 231.869279 172.454394
L 241.620588 210.138739
L 251.088425 210.233131
L 260.601821 139.150451
L 270.077578 196.415802
L 279.533476 205.859864
L 288.96127 212.934721
L 298.299894 224.602794
L 307.709846 227.00413
L 317.109387 229.40281
L 326.54405 229.499012
L 335.980896 229.595236
L 345.419924 229.691482
L 354.861137 229.787751
L 364.304533 229.884042
L 373.750115 229.980355
z
" style="fill:#008fd5;fill-opacity:0.6;stroke:#ffffff;stroke-opacity:0.6;"/>
    <path clip-path="url(#p8b6d319f29)" d="M 137.487766 230.51485
L 146.914243 230.611309
L 156.342903 230.70779
L 165.773748 230.804294
L 175.206777 230.900821
L 184.592502 228.69132
L 193.993 226.478342
L 203.445249 226.574529
L 212.653777 208.080485
L 221.740248 167.992933
L 231.525939 189.474223
L 241.148395 201.339212
L 250.702993 210.794534
L 260.248294 141.846035
L 269.771303 196.920814
L 279.240032 211.079239
L 288.695572 218.164558
L 298.088515 227.537634
L 307.564936 227.634068
L 316.96491 232.351404
L 326.432999 232.448289
L 335.903286 232.545197
L 345.375772 232.642127
L 354.850457 232.739079
L 364.327343 232.836054
L 373.806429 232.933052
z
" style="fill:#008fd5;fill-opacity:0.6;stroke:#ffffff;stroke-opacity:0.6;"/>
    <path clip-path="url(#p8b6d319f29)" d="M 136.705607 233.471346
L 146.165452 233.568491
L 155.627496 233.665659
L 165.09174 233.762849
L 174.558184 233.860062
L 183.976749 231.645046
L 193.453964 231.7421
L 202.895992 229.523403
L 212.16576 213.320672
L 221.298567 175.570141
L 231.108746 197.053874
L 240.693779 197.147908
L 250.336273 220.709612
L 259.89919 127.431313
L 269.410206 213.893827
L 279.014483 204.599935
L 288.489218 216.424697
L 297.902233 228.172428
L 307.319863 235.223421
L 316.819404 235.320974
L 326.321158 235.418549
L 335.825125 235.516148
L 345.331306 235.613769
L 354.839702 235.711412
L 364.350314 235.809079
L 373.863143 235.906768
z
" style="fill:#008fd5;fill-opacity:0.6;stroke:#ffffff;stroke-opacity:0.6;"/>
    <path clip-path="url(#p8b6d319f29)" d="M 135.917877 236.448902
L 145.411327 236.54674
L 154.906992 236.644602
L 164.404872 236.742486
L 173.904969 236.840393
L 183.305858 232.29822
L 192.823224 232.395763
L 202.266863 227.839841
L 211.674907 218.591312
L 221.136396 209.290243
L 230.460722 176.084866
L 240.320832 209.481356
L 249.945395 221.318929
L 259.537994 132.58125
L 269.143558 200.315174
L 278.620642 226.284757
L 288.301127 212.315168
L 297.714365 228.812626
L 307.17236 235.892347
L 316.67286 238.311744
L 326.208518 238.410017
L 335.746405 238.508314
L 345.286522 238.606633
L 354.82887 238.704976
L 364.37345 238.803341
L 373.920262 238.901729
z
" style="fill:#008fd5;fill-opacity:0.6;stroke:#ffffff;stroke-opacity:0.6;"/>
    <path clip-path="url(#p8b6d319f29)" d="M 135.124515 239.447744
L 144.651811 239.546284
L 154.181336 239.644846
L 163.713093 239.743431
L 173.247081 239.84204
L 182.68067 235.288023
L 192.232051 235.386265
L 201.747209 233.153057
L 211.181193 223.892669
L 220.513535 200.367135
L 230.074882 188.527937
L 239.909329 214.772442
L 249.551171 221.933463
L 259.170619 157.384492
L 268.850911 193.689774
L 278.458409 208.063098
L 288.0299 217.614046
L 297.445281 236.46846
L 306.990629 238.897564
L 316.525265 241.323942
L 326.095071 241.422921
L 335.667121 241.521923
L 345.241417 241.620949
L 354.817961 241.719997
L 364.396751 241.819069
L 373.977791 241.918164
z
" style="fill:#008fd5;fill-opacity:0.6;stroke:#ffffff;stroke-opacity:0.6;"/>
    <path clip-path="url(#p8b6d319f29)" d="M 134.325462 242.468102
L 143.886844 242.56735
L 153.450473 242.66662
L 163.016348 242.765915
L 172.584471 242.865232
L 182.050987 238.299318
L 191.727465 243.063937
L 201.146503 233.818435
L 210.749726 233.917016
L 220.067316 208.047729
L 229.708152 203.379922
L 239.443346 210.617684
L 249.159917 224.911372
L 258.810113 133.064962
L 268.519683 198.984591
L 278.143224 215.750674
L 287.737029 225.302931
L 297.25423 237.148372
L 306.840554 239.587492
L 316.37661 244.3578
L 325.980808 244.457492
L 335.587267 244.557207
L 345.195988 244.656946
L 354.806973 244.756708
L 364.420221 244.856494
L 374.035734 244.956304
z
" style="fill:#008fd5;fill-opacity:0.6;stroke:#ffffff;stroke-opacity:0.6;"/>
    <path clip-path="url(#p8b6d319f29)" d="M 133.520655 245.510207
L 143.116369 245.610171
L 152.714345 245.710158
L 162.314585 245.810168
L 171.917089 245.910203
L 181.416761 241.332337
L 191.036909 241.432003
L 200.698788 243.872667
L 210.218108 236.939428
L 219.672484 220.513721
L 229.220585 203.92518
L 239.025696 215.957897
L 248.792347 237.336839
L 258.441328 130.813278
L 268.186495 204.310749
L 277.920333 206.801943
L 287.522593 223.571145
L 297.061536 237.834134
L 306.656187 242.629829
L 316.226882 247.413551
L 325.86572 247.513964
L 335.506836 247.6144
L 345.150231 247.714861
L 354.795905 247.815345
L 364.443859 247.915852
L 374.094095 248.016384
z
" style="fill:#008fd5;fill-opacity:0.6;stroke:#ffffff;stroke-opacity:0.6;"/>
    <path clip-path="url(#p8b6d319f29)" d="M 132.710032 248.574296
L 142.340325 248.674983
L 151.972897 248.775694
L 161.607749 248.876429
L 171.244881 248.977188
L 180.777943 244.387318
L 190.525989 249.178776
L 200.130031 246.93547
L 209.64912 237.626514
L 219.168816 223.513262
L 228.872469 221.231317
L 238.564365 214.167725
L 248.382741 235.664632
L 258.068733 128.538329
L 267.857851 207.267285
L 277.614235 212.164041
L 287.306 221.821929
L 296.867176 238.525822
L 306.437535 248.043884
L 316.076069 250.491434
L 325.749799 250.592576
L 335.425823 250.693741
L 345.104142 250.79493
L 354.784757 250.896144
L 364.467669 250.997381
L 374.152879 251.098642
z
" style="fill:#008fd5;fill-opacity:0.6;stroke:#ffffff;stroke-opacity:0.6;"/>
    <path clip-path="url(#p8b6d319f29)" d="M 131.89353 251.660607
L 141.558653 251.762026
L 151.22607 251.863468
L 160.895784 251.964935
L 170.567795 252.066426
L 180.134483 247.464498
L 189.777139 245.208828
L 199.597618 252.371044
L 209.109254 240.686538
L 218.689004 228.918358
L 228.400227 224.246903
L 238.196996 229.117399
L 247.983486 238.721076
L 257.694425 136.321903
L 267.514166 215.058209
L 277.280141 222.351096
L 287.16701 210.441339
L 296.724018 234.475881
L 306.283428 248.780931
L 315.963742 251.238649
L 325.633035 253.693568
L 335.344221 253.795471
L 345.057718 253.897397
L 354.773529 253.999348
L 364.491653 254.101323
L 374.212091 254.203322
z
" style="fill:#008fd5;fill-opacity:0.6;stroke:#ffffff;stroke-opacity:0.6;"/>
    <path clip-path="url(#p8b6d319f29)" d="M 131.071085 254.769383
L 140.77129 254.871541
L 150.473806 254.973724
L 160.178636 255.075931
L 169.885779 255.178163
L 179.48633 250.564122
L 189.211505 250.66598
L 198.939002 250.767863
L 208.565441 243.768934
L 218.20634 234.355582
L 227.966933 232.068897
L 237.772206 234.556519
L 247.558663 234.657024
L 257.31675 139.107367
L 267.150715 230.078766
L 277.074462 208.504282
L 286.905942 213.443059
L 296.447007 242.306015
L 306.062077 254.252705
L 315.85044 251.992356
L 325.515419 256.817187
L 335.262023 256.919834
L 345.010956 257.022506
L 354.762218 257.125202
L 364.515811 257.227922
L 374.271735 257.330668
z
" style="fill:#008fd5;fill-opacity:0.6;stroke:#ffffff;stroke-opacity:0.6;"/>
    <path clip-path="url(#p8b6d319f29)" d="M 130.242632 257.90087
L 139.978174 258.003776
L 149.716045 258.106707
L 159.456246 258.209662
L 169.198778 258.312642
L 178.888575 256.052679
L 188.594127 253.78904
L 198.440365 258.62173
L 207.947462 242.110519
L 217.720799 239.825219
L 227.445293 230.344802
L 237.300692 232.84606
L 247.152601 237.738652
L 256.945922 164.523536
L 266.845529 221.108158
L 276.774639 211.513806
L 286.544361 228.543411
L 296.273888 240.637221
L 305.938166 252.649928
L 315.775974 250.376831
L 325.443391 257.597534
L 335.179223 260.06708
L 344.963851 260.170505
L 354.750825 260.273955
L 364.540146 260.377429
L 374.331816 260.480929
z
" style="fill:#008fd5;fill-opacity:0.6;stroke:#ffffff;stroke-opacity:0.6;"/>
    <path clip-path="url(#p8b6d319f29)" d="M 129.408104 261.055319
L 139.179242 261.158981
L 148.952727 261.262668
L 158.728558 261.366379
L 168.506737 261.470116
L 178.175738 256.831687
L 188.070142 261.677665
L 197.813237 259.411604
L 207.430222 247.615184
L 217.289847 250.104622
L 227.028597 240.639084
L 236.899951 243.138378
L 246.727134 236.037889
L 256.556879 152.333258
L 266.507485 224.166833
L 276.447197 219.413398
L 286.358321 221.942403
L 296.072646 241.353399
L 305.779952 253.416334
L 315.580992 255.901956
L 325.277594 263.133299
L 335.095815 263.237461
L 344.916399 263.341648
L 354.739347 263.445859
L 364.56466 263.550096
L 374.392339 263.654358
z
" style="fill:#008fd5;fill-opacity:0.6;stroke:#ffffff;stroke-opacity:0.6;"/>
    <path clip-path="url(#p8b6d319f29)" d="M 128.567434 264.232981
L 138.37443 264.337408
L 148.183789 264.441859
L 157.995512 264.546336
L 167.809601 264.650838
L 177.569664 262.379408
L 187.39533 262.483746
L 197.266065 264.964495
L 206.873784 250.759569
L 216.740981 250.862903
L 226.453657 234.115976
L 236.420807 241.460329
L 246.28874 231.89849
L 256.187687 180.350061
L 266.172372 224.816396
L 276.130719 224.917441
L 286.013603 234.727407
L 295.869628 242.075902
L 305.653422 251.794044
L 315.46459 256.685594
L 325.20399 263.947135
L 335.011791 266.431233
L 344.868597 266.53619
L 354.727785 266.641172
L 364.589355 266.746179
L 374.453309 266.851212
z
" style="fill:#008fd5;fill-opacity:0.6;stroke:#ffffff;stroke-opacity:0.6;"/>
    <path clip-path="url(#p8b6d319f29)" d="M 127.720555 267.434116
L 137.563672 267.539315
L 147.409171 267.64454
L 157.25705 267.74979
L 167.107313 267.855066
L 176.959958 267.960367
L 186.714576 263.296925
L 196.672404 268.171045
L 206.313214 253.927299
L 216.097869 244.397001
L 226.123152 254.135531
L 235.984335 247.017656
L 245.889717 239.867878
L 255.781007 155.557519
L 265.834273 225.471749
L 275.787752 235.322611
L 285.706703 242.701613
L 295.638544 245.22369
L 305.426263 257.37158
L 315.227343 264.662895
L 325.176583 262.375717
L 334.927145 269.648656
L 344.820442 269.754391
L 354.716138 269.860152
L 364.614234 269.965939
L 374.51473 270.071752
z
" style="fill:#008fd5;fill-opacity:0.6;stroke:#ffffff;stroke-opacity:0.6;"/>
    <path clip-path="url(#p8b6d319f29)" d="M 126.867398 270.658983
L 136.746903 270.764964
L 146.628808 270.87097
L 156.513111 270.977003
L 166.399815 271.08306
L 176.28892 271.189144
L 186.180428 271.295253
L 196.030484 269.011883
L 205.711253 254.708631
L 215.689071 257.223518
L 225.678362 262.139123
L 235.641959 267.042085
L 245.56184 267.147916
L 255.357833 122.378284
L 265.498169 223.676737
L 275.491986 236.026007
L 285.571139 228.790409
L 295.379572 250.817277
L 305.131867 267.783447
L 315.068671 267.889459
L 325.148893 260.788141
L 334.895668 270.497463
L 344.771928 272.996516
L 354.704403 273.103065
L 364.639297 273.209639
L 374.576608 273.31624
z
" style="fill:#008fd5;fill-opacity:0.6;stroke:#ffffff;stroke-opacity:0.6;"/>
   </g>
   <g id="text_28">
    <!-- Group F -->
    <defs>
     <path d="M 59.515625 10.40625
L 59.515625 29.984375
L 43.40625 29.984375
L 43.40625 38.09375
L 69.28125 38.09375
L 69.28125 6.78125
Q 63.578125 2.734375 56.6875 0.65625
Q 49.8125 -1.421875 42 -1.421875
Q 24.90625 -1.421875 15.25 8.5625
Q 5.609375 18.5625 5.609375 36.375
Q 5.609375 54.25 15.25 64.234375
Q 24.90625 74.21875 42 74.21875
Q 49.125 74.21875 55.546875 72.453125
Q 61.96875 70.703125 67.390625 67.28125
L 67.390625 56.78125
Q 61.921875 61.421875 55.765625 63.765625
Q 49.609375 66.109375 42.828125 66.109375
Q 29.4375 66.109375 22.71875 58.640625
Q 16.015625 51.171875 16.015625 36.375
Q 16.015625 21.625 22.71875 14.15625
Q 29.4375 6.6875 42.828125 6.6875
Q 48.046875 6.6875 52.140625 7.59375
Q 56.25 8.5 59.515625 10.40625
z
" id="DejaVuSans-47"/>
     <path d="M 18.109375 8.203125
L 18.109375 -20.796875
L 9.078125 -20.796875
L 9.078125 54.6875
L 18.109375 54.6875
L 18.109375 46.390625
Q 20.953125 51.265625 25.265625 53.625
Q 29.59375 56 35.59375 56
Q 45.5625 56 51.78125 48.09375
Q 58.015625 40.1875 58.015625 27.296875
Q 58.015625 14.40625 51.78125 6.484375
Q 45.5625 -1.421875 35.59375 -1.421875
Q 29.59375 -1.421875 25.265625 0.953125
Q 20.953125 3.328125 18.109375 8.203125
z
M 48.6875 27.296875
Q 48.6875 37.203125 44.609375 42.84375
Q 40.53125 48.484375 33.40625 48.484375
Q 26.265625 48.484375 22.1875 42.84375
Q 18.109375 37.203125 18.109375 27.296875
Q 18.109375 17.390625 22.1875 11.75
Q 26.265625 6.109375 33.40625 6.109375
Q 40.53125 6.109375 44.609375 11.75
Q 48.6875 17.390625 48.6875 27.296875
z
" id="DejaVuSans-70"/>
     <path d="M 9.8125 72.90625
L 51.703125 72.90625
L 51.703125 64.59375
L 19.671875 64.59375
L 19.671875 43.109375
L 48.578125 43.109375
L 48.578125 34.8125
L 19.671875 34.8125
L 19.671875 0
L 9.8125 0
z
" id="DejaVuSans-46"/>
    </defs>
    <g transform="translate(228.245625 31.5408)scale(0.12 -0.12)">
     <use xlink:href="#DejaVuSans-47"/>
     <use x="77.490234" xlink:href="#DejaVuSans-72"/>
     <use x="118.572266" xlink:href="#DejaVuSans-6f"/>
     <use x="179.753906" xlink:href="#DejaVuSans-75"/>
     <use x="243.132812" xlink:href="#DejaVuSans-70"/>
     <use x="306.609375" xlink:href="#DejaVuSans-20"/>
     <use x="338.396484" xlink:href="#DejaVuSans-46"/>
    </g>
   </g>
  </g>
  <g id="patch_6">
   <path d="M 13.32 634.68
L 490.68 634.68
L 490.68 331.92
L 13.32 331.92
z
" style="fill:#ffffff;"/>
  </g>
  <g id="pane3d_4">
   <g id="patch_7">
    <path d="M 116.103125 593.899601
L 137.405091 516.555978
L 132.215465 367.690332
L 109.382702 433.622725
" style="fill:#f2f2f2;opacity:0.5;stroke:#f2f2f2;stroke-linejoin:miter;"/>
   </g>
  </g>
  <g id="pane3d_5">
   <g id="patch_8">
    <path d="M 137.405091 516.555978
L 388.657074 519.026506
L 394.257412 369.787913
L 132.215465 367.690332
" style="fill:#e6e6e6;opacity:0.5;stroke:#e6e6e6;stroke-linejoin:miter;"/>
   </g>
  </g>
  <g id="pane3d_6">
   <g id="patch_9">
    <path d="M 116.103125 593.899601
L 391.641575 596.871492
L 388.657074 519.026506
L 137.405091 516.555978
" style="fill:#ececec;opacity:0.5;stroke:#ececec;stroke-linejoin:miter;"/>
   </g>
  </g>
  <g id="axis3d_4">
   <g id="line2d_28">
    <path d="M 116.103125 593.899601
L 391.641575 596.871492
" style="fill:none;stroke:#000000;stroke-linecap:square;stroke-width:0.8;"/>
   </g>
   <g id="text_29">
    <!-- Self-challenge score -->
    <g transform="translate(201.801188 627.114594)rotate(-359.382045)scale(0.1 -0.1)">
     <use xlink:href="#DejaVuSans-53"/>
     <use x="63.476562" xlink:href="#DejaVuSans-65"/>
     <use x="125" xlink:href="#DejaVuSans-6c"/>
     <use x="152.783203" xlink:href="#DejaVuSans-66"/>
     <use x="187.910156" xlink:href="#DejaVuSans-2d"/>
     <use x="223.994141" xlink:href="#DejaVuSans-63"/>
     <use x="278.974609" xlink:href="#DejaVuSans-68"/>
     <use x="342.353516" xlink:href="#DejaVuSans-61"/>
     <use x="403.632812" xlink:href="#DejaVuSans-6c"/>
     <use x="431.416016" xlink:href="#DejaVuSans-6c"/>
     <use x="459.199219" xlink:href="#DejaVuSans-65"/>
     <use x="520.722656" xlink:href="#DejaVuSans-6e"/>
     <use x="584.101562" xlink:href="#DejaVuSans-67"/>
     <use x="647.578125" xlink:href="#DejaVuSans-65"/>
     <use x="709.101562" xlink:href="#DejaVuSans-20"/>
     <use x="740.888672" xlink:href="#DejaVuSans-73"/>
     <use x="792.988281" xlink:href="#DejaVuSans-63"/>
     <use x="847.96875" xlink:href="#DejaVuSans-6f"/>
     <use x="909.150391" xlink:href="#DejaVuSans-72"/>
     <use x="950.232422" xlink:href="#DejaVuSans-65"/>
    </g>
   </g>
   <g id="Line3DCollection_4">
    <path d="M 121.595671 593.958842
L 142.414978 516.60524
L 137.439823 367.732152
" style="fill:none;stroke:#b0b0b0;stroke-width:0.8;"/>
    <path d="M 154.56652 594.314458
L 172.487253 516.900937
L 168.800057 367.983183
" style="fill:none;stroke:#b0b0b0;stroke-width:0.8;"/>
    <path d="M 187.564092 594.670361
L 202.581751 517.196852
L 200.184462 368.234407
" style="fill:none;stroke:#b0b0b0;stroke-width:0.8;"/>
    <path d="M 220.588419 595.026554
L 232.698499 517.492986
L 231.593066 368.485825
" style="fill:none;stroke:#b0b0b0;stroke-width:0.8;"/>
    <path d="M 253.639533 595.383035
L 262.837521 517.789339
L 263.025895 368.737438
" style="fill:none;stroke:#b0b0b0;stroke-width:0.8;"/>
    <path d="M 286.717468 595.739806
L 292.99884 518.085911
L 294.48298 368.989244
" style="fill:none;stroke:#b0b0b0;stroke-width:0.8;"/>
    <path d="M 319.822257 596.096866
L 323.182483 518.382703
L 325.964347 369.241244
" style="fill:none;stroke:#b0b0b0;stroke-width:0.8;"/>
    <path d="M 352.953931 596.454217
L 353.388474 518.679715
L 357.470025 369.493439
" style="fill:none;stroke:#b0b0b0;stroke-width:0.8;"/>
    <path d="M 386.112523 596.811857
L 383.616837 518.976946
L 389.000041 369.745829
" style="fill:none;stroke:#b0b0b0;stroke-width:0.8;"/>
   </g>
   <g id="xtick_25">
    <g id="line2d_29">
     <path d="M 121.778178 593.280741
L 121.229809 595.318194
" style="fill:none;stroke:#000000;stroke-linecap:square;stroke-width:0.8;"/>
    </g>
    <g id="text_30">
     <!-- −1.00 -->
     <g transform="translate(105.327143 615.062672)scale(0.1 -0.1)">
      <use xlink:href="#DejaVuSans-2212"/>
      <use x="83.789062" xlink:href="#DejaVuSans-31"/>
      <use x="147.412109" xlink:href="#DejaVuSans-2e"/>
      <use x="179.199219" xlink:href="#DejaVuSans-30"/>
      <use x="242.822266" xlink:href="#DejaVuSans-30"/>
     </g>
    </g>
   </g>
   <g id="xtick_26">
    <g id="line2d_30">
     <path d="M 154.723623 593.635807
L 154.251583 595.674912
" style="fill:none;stroke:#000000;stroke-linecap:square;stroke-width:0.8;"/>
    </g>
    <g id="text_31">
     <!-- −0.75 -->
     <g transform="translate(138.394125 615.424815)scale(0.1 -0.1)">
      <use xlink:href="#DejaVuSans-2212"/>
      <use x="83.789062" xlink:href="#DejaVuSans-30"/>
      <use x="147.412109" xlink:href="#DejaVuSans-2e"/>
      <use x="179.199219" xlink:href="#DejaVuSans-37"/>
      <use x="242.822266" xlink:href="#DejaVuSans-35"/>
     </g>
    </g>
   </g>
   <g id="xtick_27">
    <g id="line2d_31">
     <path d="M 187.695749 593.991161
L 187.300164 596.03192
" style="fill:none;stroke:#000000;stroke-linecap:square;stroke-width:0.8;"/>
    </g>
    <g id="text_32">
     <!-- −0.50 -->
     <g transform="translate(171.487987 615.787253)scale(0.1 -0.1)">
      <use xlink:href="#DejaVuSans-2212"/>
      <use x="83.789062" xlink:href="#DejaVuSans-30"/>
      <use x="147.412109" xlink:href="#DejaVuSans-2e"/>
      <use x="179.199219" xlink:href="#DejaVuSans-35"/>
      <use x="242.822266" xlink:href="#DejaVuSans-30"/>
     </g>
    </g>
   </g>
   <g id="xtick_28">
    <g id="line2d_32">
     <path d="M 220.69459 594.346803
L 220.375582 596.389217
" style="fill:none;stroke:#000000;stroke-linecap:square;stroke-width:0.8;"/>
    </g>
    <g id="text_33">
     <!-- −0.25 -->
     <g transform="translate(204.60876 616.149986)scale(0.1 -0.1)">
      <use xlink:href="#DejaVuSans-2212"/>
      <use x="83.789062" xlink:href="#DejaVuSans-30"/>
      <use x="147.412109" xlink:href="#DejaVuSans-2e"/>
      <use x="179.199219" xlink:href="#DejaVuSans-32"/>
      <use x="242.822266" xlink:href="#DejaVuSans-35"/>
     </g>
    </g>
   </g>
   <g id="xtick_29">
    <g id="line2d_33">
     <path d="M 253.720177 594.702733
L 253.477872 596.746805
" style="fill:none;stroke:#000000;stroke-linecap:square;stroke-width:0.8;"/>
    </g>
    <g id="text_34">
     <!-- 0.00 -->
     <g transform="translate(241.946322 616.513013)scale(0.1 -0.1)">
      <use xlink:href="#DejaVuSans-30"/>
      <use x="63.623047" xlink:href="#DejaVuSans-2e"/>
      <use x="95.410156" xlink:href="#DejaVuSans-30"/>
      <use x="159.033203" xlink:href="#DejaVuSans-30"/>
     </g>
    </g>
   </g>
   <g id="xtick_30">
    <g id="line2d_34">
     <path d="M 286.772542 595.058952
L 286.607064 597.104683
" style="fill:none;stroke:#000000;stroke-linecap:square;stroke-width:0.8;"/>
    </g>
    <g id="text_35">
     <!-- 0.25 -->
     <g transform="translate(275.121018 616.876337)scale(0.1 -0.1)">
      <use xlink:href="#DejaVuSans-30"/>
      <use x="63.623047" xlink:href="#DejaVuSans-2e"/>
      <use x="95.410156" xlink:href="#DejaVuSans-32"/>
      <use x="159.033203" xlink:href="#DejaVuSans-35"/>
     </g>
    </g>
   </g>
   <g id="xtick_31">
    <g id="line2d_35">
     <path d="M 319.851719 595.41546
L 319.763194 597.462853
" style="fill:none;stroke:#000000;stroke-linecap:square;stroke-width:0.8;"/>
    </g>
    <g id="text_36">
     <!-- 0.50 -->
     <g transform="translate(308.322724 617.239956)scale(0.1 -0.1)">
      <use xlink:href="#DejaVuSans-30"/>
      <use x="63.623047" xlink:href="#DejaVuSans-2e"/>
      <use x="95.410156" xlink:href="#DejaVuSans-35"/>
      <use x="159.033203" xlink:href="#DejaVuSans-30"/>
     </g>
    </g>
   </g>
   <g id="xtick_32">
    <g id="line2d_36">
     <path d="M 352.957741 595.772257
L 352.946292 597.821314
" style="fill:none;stroke:#000000;stroke-linecap:square;stroke-width:0.8;"/>
    </g>
    <g id="text_37">
     <!-- 0.75 -->
     <g transform="translate(341.551474 617.603871)scale(0.1 -0.1)">
      <use xlink:href="#DejaVuSans-30"/>
      <use x="63.623047" xlink:href="#DejaVuSans-2e"/>
      <use x="95.410156" xlink:href="#DejaVuSans-37"/>
      <use x="159.033203" xlink:href="#DejaVuSans-35"/>
     </g>
    </g>
   </g>
   <g id="xtick_33">
    <g id="line2d_37">
     <path d="M 386.090639 596.129343
L 386.156393 598.180066
" style="fill:none;stroke:#000000;stroke-linecap:square;stroke-width:0.8;"/>
    </g>
    <g id="text_38">
     <!-- 1.00 -->
     <g transform="translate(374.807301 617.968082)scale(0.1 -0.1)">
      <use xlink:href="#DejaVuSans-31"/>
      <use x="63.623047" xlink:href="#DejaVuSans-2e"/>
      <use x="95.410156" xlink:href="#DejaVuSans-30"/>
      <use x="159.033203" xlink:href="#DejaVuSans-30"/>
     </g>
    </g>
   </g>
  </g>
  <g id="axis3d_5">
   <g id="line2d_38">
    <path d="M 388.657074 519.026506
L 391.641575 596.871492
" style="fill:none;stroke:#000000;stroke-linecap:square;stroke-width:0.8;"/>
   </g>
   <g id="text_39">
    <!-- Trial number -->
    <g transform="translate(417.689753 542.702707)rotate(-272.195589)scale(0.1 -0.1)">
     <use xlink:href="#DejaVuSans-54"/>
     <use x="60.865234" xlink:href="#DejaVuSans-72"/>
     <use x="101.978516" xlink:href="#DejaVuSans-69"/>
     <use x="129.761719" xlink:href="#DejaVuSans-61"/>
     <use x="191.041016" xlink:href="#DejaVuSans-6c"/>
     <use x="218.824219" xlink:href="#DejaVuSans-20"/>
     <use x="250.611328" xlink:href="#DejaVuSans-6e"/>
     <use x="313.990234" xlink:href="#DejaVuSans-75"/>
     <use x="377.369141" xlink:href="#DejaVuSans-6d"/>
     <use x="474.78125" xlink:href="#DejaVuSans-62"/>
     <use x="538.257812" xlink:href="#DejaVuSans-65"/>
     <use x="599.78125" xlink:href="#DejaVuSans-72"/>
    </g>
   </g>
   <g id="Line3DCollection_5">
    <path d="M 109.884547 432.173585
L 116.569428 592.206538
L 391.576224 595.166958
" style="fill:none;stroke:#b0b0b0;stroke-width:0.8;"/>
    <path d="M 114.601091 418.553988
L 120.95608 576.27939
L 390.961497 579.132978
" style="fill:none;stroke:#b0b0b0;stroke-width:0.8;"/>
    <path d="M 119.141574 405.442791
L 125.18609 560.920982
L 390.368793 563.673418
" style="fill:none;stroke:#b0b0b0;stroke-width:0.8;"/>
    <path d="M 123.515672 392.812047
L 129.267701 546.101384
L 389.796949 548.757953
" style="fill:none;stroke:#b0b0b0;stroke-width:0.8;"/>
    <path d="M 127.732368 380.635823
L 133.208587 531.792732
L 389.244882 534.358356
" style="fill:none;stroke:#b0b0b0;stroke-width:0.8;"/>
    <path d="M 131.800007 368.89002
L 137.015904 517.969048
L 388.711585 520.44832
" style="fill:none;stroke:#b0b0b0;stroke-width:0.8;"/>
   </g>
   <g id="xtick_34">
    <g id="line2d_39">
     <path d="M 389.368796 595.143195
L 395.99144 595.214487
" style="fill:none;stroke:#000000;stroke-linecap:square;stroke-width:0.8;"/>
    </g>
    <g id="text_40">
     <!-- 0 -->
     <g transform="translate(403.638529 611.585672)scale(0.1 -0.1)">
      <use xlink:href="#DejaVuSans-30"/>
     </g>
    </g>
   </g>
   <g id="xtick_35">
    <g id="line2d_40">
     <path d="M 388.794346 579.110074
L 395.296145 579.178789
" style="fill:none;stroke:#000000;stroke-linecap:square;stroke-width:0.8;"/>
    </g>
    <g id="text_41">
     <!-- 50 -->
     <g transform="translate(399.566587 595.428321)scale(0.1 -0.1)">
      <use xlink:href="#DejaVuSans-35"/>
      <use x="63.623047" xlink:href="#DejaVuSans-30"/>
     </g>
    </g>
   </g>
   <g id="xtick_36">
    <g id="line2d_41">
     <path d="M 388.240475 563.651327
L 394.625761 563.717603
" style="fill:none;stroke:#000000;stroke-linecap:square;stroke-width:0.8;"/>
    </g>
    <g id="text_42">
     <!-- 100 -->
     <g transform="translate(395.526483 579.848495)scale(0.1 -0.1)">
      <use xlink:href="#DejaVuSans-31"/>
      <use x="63.623047" xlink:href="#DejaVuSans-30"/>
      <use x="127.246094" xlink:href="#DejaVuSans-30"/>
     </g>
    </g>
   </g>
   <g id="xtick_37">
    <g id="line2d_42">
     <path d="M 387.706097 548.736633
L 393.978972 548.800596
" style="fill:none;stroke:#000000;stroke-linecap:square;stroke-width:0.8;"/>
    </g>
    <g id="text_43">
     <!-- 150 -->
     <g transform="translate(394.697788 564.815771)scale(0.1 -0.1)">
      <use xlink:href="#DejaVuSans-31"/>
      <use x="63.623047" xlink:href="#DejaVuSans-35"/>
      <use x="127.246094" xlink:href="#DejaVuSans-30"/>
     </g>
    </g>
   </g>
   <g id="xtick_38">
    <g id="line2d_43">
     <path d="M 387.190201 534.337767
L 393.354555 534.399538
" style="fill:none;stroke:#000000;stroke-linecap:square;stroke-width:0.8;"/>
    </g>
    <g id="text_44">
     <!-- 200 -->
     <g transform="translate(393.897691 550.301828)scale(0.1 -0.1)">
      <use xlink:href="#DejaVuSans-32"/>
      <use x="63.623047" xlink:href="#DejaVuSans-30"/>
      <use x="127.246094" xlink:href="#DejaVuSans-30"/>
     </g>
    </g>
   </g>
   <g id="xtick_39">
    <g id="line2d_44">
     <path d="M 386.691844 520.428425
L 392.751367 520.488113
" style="fill:none;stroke:#000000;stroke-linecap:square;stroke-width:0.8;"/>
    </g>
    <g id="text_45">
     <!-- 250 -->
     <g transform="translate(393.124737 536.280269)scale(0.1 -0.1)">
      <use xlink:href="#DejaVuSans-32"/>
      <use x="63.623047" xlink:href="#DejaVuSans-35"/>
      <use x="127.246094" xlink:href="#DejaVuSans-30"/>
     </g>
    </g>
   </g>
  </g>
  <g id="axis3d_6">
   <g id="line2d_45">
    <path d="M 388.657074 519.026506
L 394.257412 369.787913
" style="fill:none;stroke:#000000;stroke-linecap:square;stroke-width:0.8;"/>
   </g>
   <g id="text_46">
    <!-- Relative frequency -->
    <g transform="translate(423.350993 485.47149)rotate(-87.850923)scale(0.1 -0.1)">
     <use xlink:href="#DejaVuSans-52"/>
     <use x="69.419922" xlink:href="#DejaVuSans-65"/>
     <use x="130.943359" xlink:href="#DejaVuSans-6c"/>
     <use x="158.726562" xlink:href="#DejaVuSans-61"/>
     <use x="220.005859" xlink:href="#DejaVuSans-74"/>
     <use x="259.214844" xlink:href="#DejaVuSans-69"/>
     <use x="286.998047" xlink:href="#DejaVuSans-76"/>
     <use x="346.177734" xlink:href="#DejaVuSans-65"/>
     <use x="407.701172" xlink:href="#DejaVuSans-20"/>
     <use x="439.488281" xlink:href="#DejaVuSans-66"/>
     <use x="474.693359" xlink:href="#DejaVuSans-72"/>
     <use x="515.775391" xlink:href="#DejaVuSans-65"/>
     <use x="577.298828" xlink:href="#DejaVuSans-71"/>
     <use x="640.775391" xlink:href="#DejaVuSans-75"/>
     <use x="704.154297" xlink:href="#DejaVuSans-65"/>
     <use x="765.677734" xlink:href="#DejaVuSans-6e"/>
     <use x="829.056641" xlink:href="#DejaVuSans-63"/>
     <use x="884.037109" xlink:href="#DejaVuSans-79"/>
    </g>
   </g>
   <g id="Line3DCollection_6">
    <path d="M 388.764551 516.162457
L 137.305484 513.698716
L 115.97466 590.835816
" style="fill:none;stroke:#b0b0b0;stroke-width:0.8;"/>
    <path d="M 389.413154 498.878377
L 136.704379 496.455898
L 115.198976 572.336344
" style="fill:none;stroke:#b0b0b0;stroke-width:0.8;"/>
    <path d="M 390.068247 481.421381
L 136.09728 479.041115
L 114.414799 553.634336
" style="fill:none;stroke:#b0b0b0;stroke-width:0.8;"/>
    <path d="M 390.729926 463.788863
L 135.484096 461.451781
L 113.62199 534.726447
" style="fill:none;stroke:#b0b0b0;stroke-width:0.8;"/>
    <path d="M 391.398292 445.978161
L 134.864735 443.685258
L 112.820404 515.609258
" style="fill:none;stroke:#b0b0b0;stroke-width:0.8;"/>
    <path d="M 392.073446 427.986562
L 134.239103 425.738856
L 112.009896 496.279276
" style="fill:none;stroke:#b0b0b0;stroke-width:0.8;"/>
    <path d="M 392.755492 409.811294
L 133.607104 407.609828
L 111.190316 476.732927
" style="fill:none;stroke:#b0b0b0;stroke-width:0.8;"/>
    <path d="M 393.444537 391.449531
L 132.968642 389.295374
L 110.361511 456.966558
" style="fill:none;stroke:#b0b0b0;stroke-width:0.8;"/>
    <path d="M 394.140688 372.898388
L 132.323615 370.792632
L 109.523323 436.976434
" style="fill:none;stroke:#b0b0b0;stroke-width:0.8;"/>
   </g>
   <g id="xtick_40">
    <g id="line2d_46">
     <path d="M 386.746714 516.142687
L 392.800523 516.202001
" style="fill:none;stroke:#000000;stroke-linecap:square;stroke-width:0.8;"/>
    </g>
    <g id="text_47">
     <!-- 0.00 -->
     <g transform="translate(391.687371 519.913313)scale(0.1 -0.1)">
      <use xlink:href="#DejaVuSans-30"/>
      <use x="63.623047" xlink:href="#DejaVuSans-2e"/>
      <use x="95.410156" xlink:href="#DejaVuSans-30"/>
      <use x="159.033203" xlink:href="#DejaVuSans-30"/>
     </g>
    </g>
   </g>
   <g id="xtick_41">
    <g id="line2d_47">
     <path d="M 387.385259 498.858937
L 393.469248 498.917259
" style="fill:none;stroke:#000000;stroke-linecap:square;stroke-width:0.8;"/>
    </g>
    <g id="text_48">
     <!-- 0.05 -->
     <g transform="translate(392.402461 502.693705)scale(0.1 -0.1)">
      <use xlink:href="#DejaVuSans-30"/>
      <use x="63.623047" xlink:href="#DejaVuSans-2e"/>
      <use x="95.410156" xlink:href="#DejaVuSans-30"/>
      <use x="159.033203" xlink:href="#DejaVuSans-35"/>
     </g>
    </g>
   </g>
   <g id="xtick_42">
    <g id="line2d_48">
     <path d="M 388.030191 481.40228
L 394.144663 481.459586
" style="fill:none;stroke:#000000;stroke-linecap:square;stroke-width:0.8;"/>
    </g>
    <g id="text_49">
     <!-- 0.10 -->
     <g transform="translate(393.124669 485.302664)scale(0.1 -0.1)">
      <use xlink:href="#DejaVuSans-30"/>
      <use x="63.623047" xlink:href="#DejaVuSans-2e"/>
      <use x="95.410156" xlink:href="#DejaVuSans-31"/>
      <use x="159.033203" xlink:href="#DejaVuSans-30"/>
     </g>
    </g>
   </g>
   <g id="xtick_43">
    <g id="line2d_49">
     <path d="M 388.681608 463.770108
L 394.82687 463.826375
" style="fill:none;stroke:#000000;stroke-linecap:square;stroke-width:0.8;"/>
    </g>
    <g id="text_50">
     <!-- 0.15 -->
     <g transform="translate(393.854104 467.737616)scale(0.1 -0.1)">
      <use xlink:href="#DejaVuSans-30"/>
      <use x="63.623047" xlink:href="#DejaVuSans-2e"/>
      <use x="95.410156" xlink:href="#DejaVuSans-31"/>
      <use x="159.033203" xlink:href="#DejaVuSans-35"/>
     </g>
    </g>
   </g>
   <g id="xtick_44">
    <g id="line2d_50">
     <path d="M 389.339608 445.959761
L 395.515971 446.014965
" style="fill:none;stroke:#000000;stroke-linecap:square;stroke-width:0.8;"/>
    </g>
    <g id="text_51">
     <!-- 0.20 -->
     <g transform="translate(394.590874 449.995938)scale(0.1 -0.1)">
      <use xlink:href="#DejaVuSans-30"/>
      <use x="63.623047" xlink:href="#DejaVuSans-2e"/>
      <use x="95.410156" xlink:href="#DejaVuSans-32"/>
      <use x="159.033203" xlink:href="#DejaVuSans-30"/>
     </g>
    </g>
   </g>
   <g id="xtick_45">
    <g id="line2d_51">
     <path d="M 390.00429 427.968524
L 396.212071 428.022641
" style="fill:none;stroke:#000000;stroke-linecap:square;stroke-width:0.8;"/>
    </g>
    <g id="text_52">
     <!-- 0.25 -->
     <g transform="translate(395.33509 432.074951)scale(0.1 -0.1)">
      <use xlink:href="#DejaVuSans-30"/>
      <use x="63.623047" xlink:href="#DejaVuSans-2e"/>
      <use x="95.410156" xlink:href="#DejaVuSans-32"/>
      <use x="159.033203" xlink:href="#DejaVuSans-35"/>
     </g>
    </g>
   </g>
   <g id="xtick_46">
    <g id="line2d_52">
     <path d="M 390.675758 409.793627
L 396.915278 409.846631
" style="fill:none;stroke:#000000;stroke-linecap:square;stroke-width:0.8;"/>
    </g>
    <g id="text_53">
     <!-- 0.30 -->
     <g transform="translate(396.086865 413.971924)scale(0.1 -0.1)">
      <use xlink:href="#DejaVuSans-30"/>
      <use x="63.623047" xlink:href="#DejaVuSans-2e"/>
      <use x="95.410156" xlink:href="#DejaVuSans-33"/>
      <use x="159.033203" xlink:href="#DejaVuSans-30"/>
     </g>
    </g>
   </g>
   <g id="xtick_47">
    <g id="line2d_53">
     <path d="M 391.354115 391.432243
L 397.625701 391.48411
" style="fill:none;stroke:#000000;stroke-linecap:square;stroke-width:0.8;"/>
    </g>
    <g id="text_54">
     <!-- 0.35 -->
     <g transform="translate(396.846316 395.684068)scale(0.1 -0.1)">
      <use xlink:href="#DejaVuSans-30"/>
      <use x="63.623047" xlink:href="#DejaVuSans-2e"/>
      <use x="95.410156" xlink:href="#DejaVuSans-33"/>
      <use x="159.033203" xlink:href="#DejaVuSans-35"/>
     </g>
    </g>
   </g>
   <g id="xtick_48">
    <g id="line2d_54">
     <path d="M 392.039469 372.881489
L 398.343451 372.932191
" style="fill:none;stroke:#000000;stroke-linecap:square;stroke-width:0.8;"/>
    </g>
    <g id="text_55">
     <!-- 0.40 -->
     <g transform="translate(397.613561 377.208538)scale(0.1 -0.1)">
      <use xlink:href="#DejaVuSans-30"/>
      <use x="63.623047" xlink:href="#DejaVuSans-2e"/>
      <use x="95.410156" xlink:href="#DejaVuSans-34"/>
      <use x="159.033203" xlink:href="#DejaVuSans-30"/>
     </g>
    </g>
   </g>
  </g>
  <g id="axes_2">
   <g id="Poly3DCollection_2">
    <path clip-path="url(#pa8cd8751aa)" d="M 145.740055 517.92186
L 154.81444 518.01123
L 163.890847 518.100621
L 172.969278 518.190031
L 182.049734 518.279461
L 191.094202 516.409288
L 200.183834 516.49859
L 209.164148 508.725885
L 218.278419 508.814549
L 227.128712 479.095616
L 236.400704 491.166886
L 245.582456 495.231294
L 254.760082 513.106563
L 264.084617 378.37049
L 273.131645 479.526313
L 282.243294 493.593396
L 291.378003 497.65529
L 300.327509 515.518366
L 309.389048 519.53358
L 318.49995 519.62331
L 327.612888 519.71306
L 336.727861 519.80283
L 345.844872 519.89262
L 354.963919 519.982431
L 364.085004 520.072261
L 373.208128 520.162111
z
" style="fill:#fc4f30;fill-opacity:0.6;stroke:#ffffff;stroke-opacity:0.6;"/>
    <path clip-path="url(#pa8cd8751aa)" d="M 145.015472 520.660726
L 154.120774 520.750708
L 163.228113 520.84071
L 172.33749 520.930733
L 181.448905 521.020775
L 190.523893 519.146067
L 199.611205 517.268813
L 208.68263 513.417202
L 217.822903 513.506647
L 226.603558 473.677459
L 235.956311 489.84187
L 245.210911 501.892966
L 254.404508 513.864625
L 263.741378 387.101551
L 272.821937 486.184474
L 281.982611 496.273377
L 291.149041 500.346501
L 300.154028 516.28606
L 309.223108 522.283487
L 318.365178 522.373832
L 327.509297 522.464197
L 336.655467 522.554583
L 345.803686 522.644989
L 354.953957 522.735416
L 364.106281 522.825862
L 373.260656 522.916329
z
" style="fill:#fc4f30;fill-opacity:0.6;stroke:#ffffff;stroke-opacity:0.6;"/>
    <path clip-path="url(#pa8cd8751aa)" d="M 144.285922 523.418367
L 153.422354 523.508967
L 162.560836 523.599587
L 171.70137 523.690228
L 180.843956 523.780888
L 189.949671 521.901627
L 199.033991 518.045205
L 208.141067 514.179122
L 217.317934 514.269011
L 226.128331 474.287116
L 235.520987 490.514082
L 244.798663 498.617456
L 254.0511 518.586778
L 263.393995 397.981958
L 272.494671 496.882294
L 281.706796 500.970741
L 290.955716 499.060556
L 299.955485 519.038647
L 309.056028 525.052281
L 318.22948 525.143248
L 327.404995 525.234236
L 336.582574 525.325244
L 345.762218 525.416272
L 354.943928 525.507321
L 364.127703 525.59839
L 373.313545 525.68948
z
" style="fill:#fc4f30;fill-opacity:0.6;stroke:#ffffff;stroke-opacity:0.6;"/>
    <path clip-path="url(#pa8cd8751aa)" d="M 143.551354 526.194976
L 152.719128 526.2862
L 161.888967 526.377445
L 171.060872 526.46871
L 180.234843 526.559996
L 189.371495 524.676162
L 198.486406 520.809929
L 207.711288 522.880759
L 216.832718 517.024487
L 225.838066 495.130594
L 235.095594 493.206642
L 244.390222 497.318301
L 253.682036 513.40913
L 263.056651 400.416753
L 272.221976 493.560628
L 281.469053 499.682624
L 290.723435 501.778424
L 299.779208 519.826256
L 308.887796 527.84016
L 318.092846 527.931755
L 327.299974 528.02337
L 336.509179 528.115007
L 345.720464 528.206664
L 354.933828 528.298342
L 364.149273 528.39004
L 373.366799 528.481759
z
" style="fill:#fc4f30;fill-opacity:0.6;stroke:#ffffff;stroke-opacity:0.6;"/>
    <path clip-path="url(#pa8cd8751aa)" d="M 142.811715 528.990749
L 152.011048 529.082604
L 161.212461 529.17448
L 170.415953 529.266376
L 179.621525 529.358293
L 188.789323 527.46987
L 197.935033 523.593781
L 207.192066 525.670492
L 216.27151 513.815385
L 225.339469 493.808743
L 234.6947 499.951715
L 244.044618 512.087686
L 253.323477 518.170854
L 262.721961 398.605732
L 271.938611 492.22995
L 281.189665 504.425326
L 290.471056 506.525019
L 299.625163 518.626402
L 308.718401 530.647319
L 317.955267 530.739549
L 327.194226 530.8318
L 336.435277 530.924071
L 345.678421 531.016363
L 354.923659 531.108677
L 364.170993 531.201011
L 373.420421 531.293366
z
" style="fill:#fc4f30;fill-opacity:0.6;stroke:#ffffff;stroke-opacity:0.6;"/>
    <path clip-path="url(#pa8cd8751aa)" d="M 142.066954 531.805886
L 151.298064 531.898378
L 160.531267 531.990892
L 169.766565 532.083426
L 179.003957 532.175981
L 188.243445 532.268557
L 197.379831 526.39696
L 206.669241 528.479584
L 215.704441 510.572767
L 224.875235 496.532961
L 234.277942 504.711812
L 243.699 526.85767
L 252.956506 518.96134
L 262.379366 401.063211
L 271.652597 490.886833
L 280.947711 503.143541
L 290.217207 511.299266
L 299.422361 521.420653
L 308.576651 531.486113
L 317.816734 533.566833
L 327.087744 533.659725
L 336.360861 533.752638
L 345.636086 533.845572
L 354.91342 533.938527
L 364.192863 534.031504
L 373.474416 534.124501
z
" style="fill:#fc4f30;fill-opacity:0.6;stroke:#ffffff;stroke-opacity:0.6;"/>
    <path clip-path="url(#pa8cd8751aa)" d="M 141.317017 534.640589
L 150.580123 534.733725
L 159.845338 534.826882
L 169.112662 534.920061
L 178.382095 535.013261
L 187.653639 535.106482
L 196.856313 531.21532
L 206.112579 529.312412
L 215.156572 509.31769
L 224.447346 503.336355
L 233.815823 503.426856
L 243.265977 521.674395
L 252.596716 525.776125
L 262.025732 412.104485
L 271.341295 495.655918
L 280.716462 499.817476
L 289.998481 512.0671
L 299.147463 530.241006
L 308.404894 534.327158
L 317.677235 536.413808
L 326.98052 536.507349
L 336.285927 536.60091
L 345.593456 536.694493
L 354.903109 536.788097
L 364.214886 536.881723
L 373.528787 536.97537
z
" style="fill:#fc4f30;fill-opacity:0.6;stroke:#ffffff;stroke-opacity:0.6;"/>
    <path clip-path="url(#pa8cd8751aa)" d="M 140.561849 537.495061
L 149.857175 537.588848
L 159.154624 537.682657
L 168.454197 537.776487
L 177.755894 537.870338
L 187.059716 537.96421
L 196.293785 534.06309
L 205.612629 534.156658
L 214.731095 518.174431
L 223.997353 508.142147
L 233.305267 496.004746
L 242.855134 522.485121
L 252.22803 528.611763
L 261.67896 414.622692
L 271.050277 494.318647
L 280.367194 514.775398
L 289.796243 510.81272
L 298.965418 531.08538
L 308.231935 537.18807
L 317.536762 539.280683
L 326.872547 539.374878
L 336.210469 539.469095
L 345.550528 539.563333
L 354.892726 539.657593
L 364.237063 539.751875
L 373.583539 539.846178
z
" style="fill:#fc4f30;fill-opacity:0.6;stroke:#ffffff;stroke-opacity:0.6;"/>
    <path clip-path="url(#pa8cd8751aa)" d="M 139.801396 540.369512
L 149.129167 540.463956
L 158.459075 540.558423
L 167.791122 540.65291
L 177.125308 540.74742
L 186.461634 540.841951
L 195.763728 538.934829
L 204.985582 530.998527
L 214.278373 525.044107
L 223.442277 502.776623
L 232.938434 508.995361
L 242.459583 527.342721
L 251.864423 535.489115
L 261.341846 402.053508
L 270.691619 511.401161
L 280.182574 503.324361
L 289.501069 519.716727
L 298.758395 533.949622
L 308.057763 540.069057
L 317.395303 542.167666
L 326.763816 542.262523
L 336.134481 542.357402
L 345.507299 542.452303
L 354.88227 542.547225
L 364.259395 542.64217
L 373.638675 542.737136
z
" style="fill:#fc4f30;fill-opacity:0.6;stroke:#ffffff;stroke-opacity:0.6;"/>
    <path clip-path="url(#pa8cd8751aa)" d="M 139.035603 543.264151
L 148.396045 543.35926
L 157.75864 543.454391
L 167.123388 543.549543
L 176.490291 543.644718
L 185.817062 541.733065
L 195.156855 539.818744
L 204.478214 535.887513
L 213.901624 537.996481
L 223.047832 513.759925
L 232.510322 513.852546
L 242.071279 534.248576
L 251.49099 538.375636
L 260.994732 395.848954
L 270.417448 503.979031
L 279.893582 508.176135
L 289.258976 522.562287
L 298.620333 530.771889
L 307.853542 544.979466
L 317.287157 543.065661
L 326.65432 545.170496
L 336.057959 545.266044
L 345.463765 545.361614
L 354.87174 545.457206
L 364.281885 545.55282
L 373.694199 545.648456
z
" style="fill:#fc4f30;fill-opacity:0.6;stroke:#ffffff;stroke-opacity:0.6;"/>
    <path clip-path="url(#pa8cd8751aa)" d="M 138.264411 546.179191
L 147.657755 546.274972
L 157.053267 546.370774
L 166.450947 546.466599
L 175.850797 546.562446
L 185.210026 544.646092
L 194.582369 542.727052
L 204.031569 544.837543
L 213.313623 534.834123
L 222.54683 514.550096
L 232.11072 522.824284
L 241.651622 535.118864
L 251.1235 545.31656
L 260.63268 407.093039
L 270.146628 494.385638
L 279.615375 511.002116
L 289.051195 521.34497
L 298.410255 533.660378
L 307.676906 547.90663
L 317.109387 548.00281
L 326.54405 548.099012
L 335.980896 548.195236
L 345.419924 548.291482
L 354.861137 548.387751
L 364.304533 548.484042
L 373.750115 548.580355
z
" style="fill:#fc4f30;fill-opacity:0.6;stroke:#ffffff;stroke-opacity:0.6;"/>
    <path clip-path="url(#pa8cd8751aa)" d="M 137.487766 549.11485
L 146.914243 549.211309
L 156.342903 549.30779
L 165.773748 549.404294
L 175.206777 549.500821
L 184.598691 547.579746
L 194.041625 547.676139
L 203.422167 543.729486
L 212.719357 531.638071
L 222.063211 517.403625
L 231.630598 521.604
L 241.218335 533.96099
L 250.736175 544.210121
L 260.263105 431.37207
L 269.824286 499.265145
L 279.298072 520.021985
L 288.877479 516.002369
L 298.198681 536.569421
L 307.499017 550.854541
L 316.96491 550.951404
L 326.432999 551.048289
L 335.903286 551.145197
L 345.375772 551.242127
L 354.850457 551.339079
L 364.327343 551.436054
L 373.806429 551.533052
z
" style="fill:#fc4f30;fill-opacity:0.6;stroke:#ffffff;stroke-opacity:0.6;"/>
    <path clip-path="url(#pa8cd8751aa)" d="M 136.705607 552.071346
L 146.165452 552.168491
L 155.627496 552.265659
L 165.09174 552.362849
L 174.558184 552.460062
L 184.026829 552.557298
L 193.459431 550.631327
L 202.872597 546.674459
L 212.228325 536.593446
L 221.641746 526.450268
L 231.226791 530.648536
L 240.812265 538.922088
L 250.354736 547.158523
L 259.906769 427.492085
L 269.519844 497.917077
L 279.065236 514.646529
L 288.611724 520.939156
L 297.985596 539.49924
L 307.348678 551.798053
L 316.819404 553.920974
L 326.321158 554.018549
L 335.825125 554.116148
L 345.331306 554.213769
L 354.839702 554.311412
L 364.350314 554.409079
L 373.863143 554.506768
z
" style="fill:#fc4f30;fill-opacity:0.6;stroke:#ffffff;stroke-opacity:0.6;"/>
    <path clip-path="url(#pa8cd8751aa)" d="M 135.917877 555.048902
L 145.411327 555.14674
L 154.906992 555.244602
L 164.404872 555.342486
L 173.904969 555.440393
L 183.407281 555.538323
L 192.873084 553.607594
L 202.319101 549.640466
L 211.734361 541.578422
L 221.196622 533.476132
L 230.772236 533.572179
L 240.425149 547.993648
L 249.950442 541.965588
L 259.539795 445.322479
L 269.180196 507.026022
L 278.903145 496.648736
L 288.30875 530.03218
L 297.841152 536.300031
L 307.225966 550.71378
L 316.67286 556.911744
L 326.208518 557.010017
L 335.746405 557.108314
L 345.286522 557.206633
L 354.82887 557.304976
L 364.37345 557.403341
L 373.920262 557.501729
z
" style="fill:#fc4f30;fill-opacity:0.6;stroke:#ffffff;stroke-opacity:0.6;"/>
    <path clip-path="url(#pa8cd8751aa)" d="M 135.124515 558.047744
L 144.651811 558.146284
L 154.181336 558.244846
L 163.713093 558.343431
L 173.247081 558.44204
L 182.783302 558.540671
L 192.282541 556.605164
L 201.795281 554.666906
L 211.237437 546.593263
L 220.72687 538.479196
L 230.314406 536.516885
L 239.992828 548.933431
L 249.551929 540.827191
L 259.177685 441.500616
L 268.845553 514.080886
L 278.506462 518.348143
L 288.217897 514.270476
L 297.624862 539.255238
L 307.015352 555.749923
L 316.525265 559.923942
L 326.095071 560.022921
L 335.667121 560.121923
L 345.241417 560.220949
L 354.817961 560.319997
L 364.396751 560.419069
L 373.977791 560.518164
z
" style="fill:#fc4f30;fill-opacity:0.6;stroke:#ffffff;stroke-opacity:0.6;"/>
    <path clip-path="url(#pa8cd8751aa)" d="M 134.325462 561.068102
L 143.886844 561.16735
L 153.450473 561.26662
L 163.016348 561.365915
L 172.584471 561.465232
L 182.154844 561.564573
L 191.727465 561.663937
L 201.234264 557.681197
L 210.680516 547.531339
L 220.277125 545.57218
L 229.93866 549.782723
L 239.50028 539.580345
L 249.188426 554.08299
L 258.811761 435.443876
L 268.509283 521.170055
L 278.20591 523.354206
L 288.017756 510.881502
L 297.360383 546.356805
L 306.947994 550.570482
L 316.37661 562.9578
L 325.980808 563.057492
L 335.587267 563.157207
L 345.195988 563.256946
L 354.806973 563.356708
L 364.420221 563.456494
L 374.035734 563.556304
z
" style="fill:#fc4f30;fill-opacity:0.6;stroke:#ffffff;stroke-opacity:0.6;"/>
    <path clip-path="url(#pa8cd8751aa)" d="M 133.520655 564.110207
L 143.116369 564.210171
L 152.714345 564.310158
L 162.314585 564.410168
L 171.917089 564.510203
L 181.521857 564.61026
L 191.128892 564.710342
L 200.634641 558.666958
L 210.205728 554.658252
L 219.848338 554.757491
L 229.42368 546.609101
L 239.059085 540.495301
L 248.784075 552.996774
L 258.441286 433.728346
L 268.165506 530.38267
L 277.927061 524.204985
L 287.76197 513.791817
L 297.234214 541.083702
L 306.59032 565.913162
L 316.226882 566.013551
L 325.86572 566.113964
L 335.506836 566.2144
L 345.150231 566.314861
L 354.795905 566.415345
L 364.443859 566.515852
L 374.094095 566.616384
z
" style="fill:#fc4f30;fill-opacity:0.6;stroke:#ffffff;stroke-opacity:0.6;"/>
    <path clip-path="url(#pa8cd8751aa)" d="M 132.710032 567.174296
L 142.340325 567.274983
L 151.972897 567.375694
L 161.607749 567.476429
L 171.244881 567.577188
L 180.884294 567.67797
L 190.485271 565.728015
L 200.065018 561.719389
L 209.699373 559.761171
L 219.300533 553.670326
L 228.92091 545.479678
L 238.650029 547.655069
L 248.393984 558.100156
L 258.067577 436.425607
L 267.866018 522.861041
L 277.634177 527.165591
L 287.433707 525.160133
L 296.920106 552.397771
L 306.462242 564.881945
L 316.076069 569.091434
L 325.749799 569.192576
L 335.425823 569.293741
L 345.104142 569.39493
L 354.784757 569.496144
L 364.467669 569.597381
L 374.152879 569.698642
z
" style="fill:#fc4f30;fill-opacity:0.6;stroke:#ffffff;stroke-opacity:0.6;"/>
    <path clip-path="url(#pa8cd8751aa)" d="M 131.89353 570.260607
L 141.558653 570.362026
L 151.22607 570.463468
L 160.895784 570.564935
L 170.567795 570.666426
L 180.242104 570.767942
L 189.87748 568.813133
L 199.491253 564.794016
L 209.189946 564.895052
L 218.795367 556.723773
L 228.431442 546.426365
L 238.202253 548.610565
L 247.957219 548.710202
L 257.695768 461.194169
L 267.523631 530.049985
L 277.385283 521.698619
L 287.087215 538.655018
L 296.767097 549.208745
L 306.332921 563.840725
L 315.958792 570.132956
L 325.633035 572.293568
L 335.344221 572.395471
L 345.057718 572.497397
L 354.773529 572.599348
L 364.491653 572.701323
L 374.212091 572.803322
z
" style="fill:#fc4f30;fill-opacity:0.6;stroke:#ffffff;stroke-opacity:0.6;"/>
    <path clip-path="url(#pa8cd8751aa)" d="M 131.071085 573.369383
L 140.77129 573.471541
L 150.473806 573.573724
L 160.178636 573.675931
L 169.885779 573.778163
L 179.547627 571.81864
L 189.30701 573.982699
L 198.949277 569.958218
L 208.587015 563.850706
L 218.262141 557.719501
L 228.030342 557.820389
L 237.750645 549.574238
L 247.573771 558.022239
L 257.318064 461.799009
L 267.243994 511.794322
L 277.019214 537.373458
L 286.792 545.884682
L 296.542762 552.267388
L 306.173395 564.866066
L 315.771143 575.314564
L 325.555982 573.352643
L 335.262023 575.519834
L 345.010956 575.622506
L 354.762218 575.725202
L 364.515811 575.827922
L 374.271735 575.930668
z
" style="fill:#fc4f30;fill-opacity:0.6;stroke:#ffffff;stroke-opacity:0.6;"/>
    <path clip-path="url(#pa8cd8751aa)" d="M 130.242632 576.50087
L 139.978174 576.603776
L 149.716045 576.706707
L 159.456246 576.809662
L 169.198778 576.912642
L 178.943641 577.015647
L 188.648559 575.051073
L 198.440365 577.22173
L 208.039528 566.959807
L 217.699518 556.632857
L 227.477737 552.544256
L 237.38523 565.18527
L 247.113086 544.334058
L 256.943642 477.811325
L 266.859521 533.959365
L 276.720079 540.412014
L 286.564021 544.734895
L 296.4793 540.611752
L 305.925799 572.139926
L 315.721228 572.242718
L 325.396942 578.56368
L 335.179223 578.66708
L 344.963851 578.770505
L 354.750825 578.873955
L 364.540146 578.977429
L 374.331816 579.080929
z
" style="fill:#fc4f30;fill-opacity:0.6;stroke:#ffffff;stroke-opacity:0.6;"/>
    <path clip-path="url(#pa8cd8751aa)" d="M 129.408104 579.655319
L 139.179242 579.758981
L 148.952727 579.862668
L 158.728558 579.966379
L 168.506737 580.070116
L 178.287265 580.173878
L 188.070142 580.277665
L 197.85537 580.381476
L 207.581087 576.335499
L 217.207151 561.833399
L 227.072492 564.029944
L 236.862222 555.738775
L 246.759896 564.234783
L 256.562132 480.690661
L 266.530924 532.741475
L 276.440861 539.228168
L 286.333788 543.573737
L 296.228014 545.793322
L 305.937322 560.655571
L 315.531241 577.475246
L 325.277594 581.733299
L 335.095815 581.837461
L 344.916399 581.941648
L 354.739347 582.045859
L 364.56466 582.150096
L 374.392339 582.254358
z
" style="fill:#fc4f30;fill-opacity:0.6;stroke:#ffffff;stroke-opacity:0.6;"/>
    <path clip-path="url(#pa8cd8751aa)" d="M 128.567434 582.832981
L 138.37443 582.937408
L 148.183789 583.041859
L 157.995512 583.146336
L 167.809601 583.250838
L 177.626055 583.355365
L 187.444876 583.459918
L 197.266065 583.564495
L 207.058258 581.589755
L 216.839356 577.527508
L 226.509874 558.752967
L 236.480624 569.370172
L 246.341008 565.274996
L 256.180582 487.993685
L 266.189454 535.794472
L 276.180819 533.754422
L 286.221485 527.416871
L 295.92892 555.243896
L 305.686546 567.99524
L 315.40974 578.569546
L 325.157365 584.926301
L 335.011791 585.031233
L 344.868597 585.13619
L 354.727785 585.241172
L 364.589355 585.346179
L 374.453309 585.451212
z
" style="fill:#fc4f30;fill-opacity:0.6;stroke:#ffffff;stroke-opacity:0.6;"/>
    <path clip-path="url(#pa8cd8751aa)" d="M 127.720555 586.034116
L 137.563672 586.139315
L 147.409171 586.24454
L 157.25705 586.34979
L 167.107313 586.455066
L 176.959958 586.560367
L 186.814989 586.665693
L 196.596637 582.598727
L 206.500384 584.791354
L 216.265176 576.529917
L 226.12031 572.435249
L 236.015956 570.435731
L 245.926208 568.433261
L 255.80043 499.726516
L 265.896343 515.113194
L 275.820013 547.530878
L 285.849393 543.358006
L 295.813236 547.734729
L 305.434525 575.371371
L 315.252263 581.768155
L 325.077117 586.05562
L 334.927145 588.248656
L 344.820442 588.354391
L 354.716138 588.460152
L 364.614234 588.565939
L 374.51473 588.671752
z
" style="fill:#fc4f30;fill-opacity:0.6;stroke:#ffffff;stroke-opacity:0.6;"/>
    <path clip-path="url(#pa8cd8751aa)" d="M 126.867398 589.258983
L 136.746903 589.364964
L 146.628808 589.47097
L 156.513111 589.577003
L 166.399815 589.68306
L 176.28892 589.789144
L 186.180428 589.895253
L 196.074338 590.001389
L 205.711253 573.308631
L 215.81694 586.02914
L 225.710091 584.038619
L 235.603765 579.943439
L 245.540254 580.048753
L 255.398166 487.242549
L 265.490011 546.266336
L 275.522319 548.513213
L 285.714369 529.21553
L 295.510744 557.271624
L 305.296879 574.356389
L 315.268832 574.461306
L 324.955175 589.290406
L 334.936066 587.300853
L 344.771928 591.596516
L 354.704403 591.703065
L 364.639297 591.809639
L 374.576608 591.91624
z
" style="fill:#fc4f30;fill-opacity:0.6;stroke:#ffffff;stroke-opacity:0.6;"/>
   </g>
   <g id="text_56">
    <!-- Group S -->
    <g transform="translate(227.8875 350.1408)scale(0.12 -0.12)">
     <use xlink:href="#DejaVuSans-47"/>
     <use x="77.490234" xlink:href="#DejaVuSans-72"/>
     <use x="118.572266" xlink:href="#DejaVuSans-6f"/>
     <use x="179.753906" xlink:href="#DejaVuSans-75"/>
     <use x="243.132812" xlink:href="#DejaVuSans-70"/>
     <use x="306.609375" xlink:href="#DejaVuSans-20"/>
     <use x="338.396484" xlink:href="#DejaVuSans-53"/>
    </g>
   </g>
  </g>
 </g>
 <defs>
  <clipPath id="p8b6d319f29">
   <rect height="302.76" width="477.36" x="13.32" y="13.32"/>
  </clipPath>
  <clipPath id="pa8cd8751aa">
   <rect height="302.76" width="477.36" x="13.32" y="331.92"/>
  </clipPath>
 </defs>
</svg>
