<?xml version="1.0" encoding="utf-8" standalone="no"?>
<!DOCTYPE svg PUBLIC "-//W3C//DTD SVG 1.1//EN"
  "http://www.w3.org/Graphics/SVG/1.1/DTD/svg11.dtd">
<!-- Created with matplotlib (http://matplotlib.org/) -->
<svg height="360pt" version="1.1" viewBox="0 0 504 360" width="504pt" xmlns="http://www.w3.org/2000/svg" xmlns:xlink="http://www.w3.org/1999/xlink">
 <defs>
  <style type="text/css">
*{stroke-linecap:butt;stroke-linejoin:round;}
  </style>
 </defs>
 <g id="figure_1">
  <g id="patch_1">
   <path d="M 0 360
L 504 360
L 504 0
L 0 0
z
" style="fill:#ffffff;"/>
  </g>
  <g id="axes_1">
   <g id="patch_2">
    <path d="M 63 320.4
L 453.6 320.4
L 453.6 43.2
L 63 43.2
z
" style="fill:#ffffff;"/>
   </g>
   <g id="matplotlib.axis_1">
    <g id="xtick_1">
     <g id="line2d_1">
      <path clip-path="url(#p0386d6a12c)" d="M 80.754545 320.4
L 80.754545 43.2
" style="fill:none;stroke:#b0b0b0;stroke-linecap:square;stroke-width:0.8;"/>
     </g>
     <g id="line2d_2">
      <defs>
       <path d="M 0 0
L 0 3.5
" id="mca6277724c" style="stroke:#000000;stroke-width:0.8;"/>
      </defs>
      <g>
       <use style="stroke:#000000;stroke-width:0.8;" x="80.754545" xlink:href="#mca6277724c" y="320.4"/>
      </g>
     </g>
     <g id="text_1">
      <!-- 0 -->
      <defs>
       <path d="M 31.78125 66.40625
Q 24.171875 66.40625 20.328125 58.90625
Q 16.5 51.421875 16.5 36.375
Q 16.5 21.390625 20.328125 13.890625
Q 24.171875 6.390625 31.78125 6.390625
Q 39.453125 6.390625 43.28125 13.890625
Q 47.125 21.390625 47.125 36.375
Q 47.125 51.421875 43.28125 58.90625
Q 39.453125 66.40625 31.78125 66.40625
z
M 31.78125 74.21875
Q 44.046875 74.21875 50.515625 64.515625
Q 56.984375 54.828125 56.984375 36.375
Q 56.984375 17.96875 50.515625 8.265625
Q 44.046875 -1.421875 31.78125 -1.421875
Q 19.53125 -1.421875 13.0625 8.265625
Q 6.59375 17.96875 6.59375 36.375
Q 6.59375 54.828125 13.0625 64.515625
Q 19.53125 74.21875 31.78125 74.21875
z
" id="DejaVuSans-30"/>
      </defs>
      <g transform="translate(77.573295 334.998438)scale(0.1 -0.1)">
       <use xlink:href="#DejaVuSans-30"/>
      </g>
     </g>
    </g>
    <g id="xtick_2">
     <g id="line2d_3">
      <path clip-path="url(#p0386d6a12c)" d="M 149.570613 320.4
L 149.570613 43.2
" style="fill:none;stroke:#b0b0b0;stroke-linecap:square;stroke-width:0.8;"/>
     </g>
     <g id="line2d_4">
      <g>
       <use style="stroke:#000000;stroke-width:0.8;" x="149.570613" xlink:href="#mca6277724c" y="320.4"/>
      </g>
     </g>
     <g id="text_2">
      <!-- 50 -->
      <defs>
       <path d="M 10.796875 72.90625
L 49.515625 72.90625
L 49.515625 64.59375
L 19.828125 64.59375
L 19.828125 46.734375
Q 21.96875 47.46875 24.109375 47.828125
Q 26.265625 48.1875 28.421875 48.1875
Q 40.625 48.1875 47.75 41.5
Q 54.890625 34.8125 54.890625 23.390625
Q 54.890625 11.625 47.5625 5.09375
Q 40.234375 -1.421875 26.90625 -1.421875
Q 22.3125 -1.421875 17.546875 -0.640625
Q 12.796875 0.140625 7.71875 1.703125
L 7.71875 11.625
Q 12.109375 9.234375 16.796875 8.0625
Q 21.484375 6.890625 26.703125 6.890625
Q 35.15625 6.890625 40.078125 11.328125
Q 45.015625 15.765625 45.015625 23.390625
Q 45.015625 31 40.078125 35.4375
Q 35.15625 39.890625 26.703125 39.890625
Q 22.75 39.890625 18.8125 39.015625
Q 14.890625 38.140625 10.796875 36.28125
z
" id="DejaVuSans-35"/>
      </defs>
      <g transform="translate(143.208113 334.998438)scale(0.1 -0.1)">
       <use xlink:href="#DejaVuSans-35"/>
       <use x="63.623047" xlink:href="#DejaVuSans-30"/>
      </g>
     </g>
    </g>
    <g id="xtick_3">
     <g id="line2d_5">
      <path clip-path="url(#p0386d6a12c)" d="M 218.386681 320.4
L 218.386681 43.2
" style="fill:none;stroke:#b0b0b0;stroke-linecap:square;stroke-width:0.8;"/>
     </g>
     <g id="line2d_6">
      <g>
       <use style="stroke:#000000;stroke-width:0.8;" x="218.386681" xlink:href="#mca6277724c" y="320.4"/>
      </g>
     </g>
     <g id="text_3">
      <!-- 100 -->
      <defs>
       <path d="M 12.40625 8.296875
L 28.515625 8.296875
L 28.515625 63.921875
L 10.984375 60.40625
L 10.984375 69.390625
L 28.421875 72.90625
L 38.28125 72.90625
L 38.28125 8.296875
L 54.390625 8.296875
L 54.390625 0
L 12.40625 0
z
" id="DejaVuSans-31"/>
      </defs>
      <g transform="translate(208.842931 334.998438)scale(0.1 -0.1)">
       <use xlink:href="#DejaVuSans-31"/>
       <use x="63.623047" xlink:href="#DejaVuSans-30"/>
       <use x="127.246094" xlink:href="#DejaVuSans-30"/>
      </g>
     </g>
    </g>
    <g id="xtick_4">
     <g id="line2d_7">
      <path clip-path="url(#p0386d6a12c)" d="M 287.202748 320.4
L 287.202748 43.2
" style="fill:none;stroke:#b0b0b0;stroke-linecap:square;stroke-width:0.8;"/>
     </g>
     <g id="line2d_8">
      <g>
       <use style="stroke:#000000;stroke-width:0.8;" x="287.202748" xlink:href="#mca6277724c" y="320.4"/>
      </g>
     </g>
     <g id="text_4">
      <!-- 150 -->
      <g transform="translate(277.658998 334.998438)scale(0.1 -0.1)">
       <use xlink:href="#DejaVuSans-31"/>
       <use x="63.623047" xlink:href="#DejaVuSans-35"/>
       <use x="127.246094" xlink:href="#DejaVuSans-30"/>
      </g>
     </g>
    </g>
    <g id="xtick_5">
     <g id="line2d_9">
      <path clip-path="url(#p0386d6a12c)" d="M 356.018816 320.4
L 356.018816 43.2
" style="fill:none;stroke:#b0b0b0;stroke-linecap:square;stroke-width:0.8;"/>
     </g>
     <g id="line2d_10">
      <g>
       <use style="stroke:#000000;stroke-width:0.8;" x="356.018816" xlink:href="#mca6277724c" y="320.4"/>
      </g>
     </g>
     <g id="text_5">
      <!-- 200 -->
      <defs>
       <path d="M 19.1875 8.296875
L 53.609375 8.296875
L 53.609375 0
L 7.328125 0
L 7.328125 8.296875
Q 12.9375 14.109375 22.625 23.890625
Q 32.328125 33.6875 34.8125 36.53125
Q 39.546875 41.84375 41.421875 45.53125
Q 43.3125 49.21875 43.3125 52.78125
Q 43.3125 58.59375 39.234375 62.25
Q 35.15625 65.921875 28.609375 65.921875
Q 23.96875 65.921875 18.8125 64.3125
Q 13.671875 62.703125 7.8125 59.421875
L 7.8125 69.390625
Q 13.765625 71.78125 18.9375 73
Q 24.125 74.21875 28.421875 74.21875
Q 39.75 74.21875 46.484375 68.546875
Q 53.21875 62.890625 53.21875 53.421875
Q 53.21875 48.921875 51.53125 44.890625
Q 49.859375 40.875 45.40625 35.40625
Q 44.1875 33.984375 37.640625 27.21875
Q 31.109375 20.453125 19.1875 8.296875
z
" id="DejaVuSans-32"/>
      </defs>
      <g transform="translate(346.475066 334.998438)scale(0.1 -0.1)">
       <use xlink:href="#DejaVuSans-32"/>
       <use x="63.623047" xlink:href="#DejaVuSans-30"/>
       <use x="127.246094" xlink:href="#DejaVuSans-30"/>
      </g>
     </g>
    </g>
    <g id="xtick_6">
     <g id="line2d_11">
      <path clip-path="url(#p0386d6a12c)" d="M 424.834884 320.4
L 424.834884 43.2
" style="fill:none;stroke:#b0b0b0;stroke-linecap:square;stroke-width:0.8;"/>
     </g>
     <g id="line2d_12">
      <g>
       <use style="stroke:#000000;stroke-width:0.8;" x="424.834884" xlink:href="#mca6277724c" y="320.4"/>
      </g>
     </g>
     <g id="text_6">
      <!-- 250 -->
      <g transform="translate(415.291134 334.998438)scale(0.1 -0.1)">
       <use xlink:href="#DejaVuSans-32"/>
       <use x="63.623047" xlink:href="#DejaVuSans-35"/>
       <use x="127.246094" xlink:href="#DejaVuSans-30"/>
      </g>
     </g>
    </g>
    <g id="text_7">
     <!-- Trial number -->
     <defs>
      <path d="M -0.296875 72.90625
L 61.375 72.90625
L 61.375 64.59375
L 35.5 64.59375
L 35.5 0
L 25.59375 0
L 25.59375 64.59375
L -0.296875 64.59375
z
" id="DejaVuSans-54"/>
      <path d="M 41.109375 46.296875
Q 39.59375 47.171875 37.8125 47.578125
Q 36.03125 48 33.890625 48
Q 26.265625 48 22.1875 43.046875
Q 18.109375 38.09375 18.109375 28.8125
L 18.109375 0
L 9.078125 0
L 9.078125 54.6875
L 18.109375 54.6875
L 18.109375 46.1875
Q 20.953125 51.171875 25.484375 53.578125
Q 30.03125 56 36.53125 56
Q 37.453125 56 38.578125 55.875
Q 39.703125 55.765625 41.0625 55.515625
z
" id="DejaVuSans-72"/>
      <path d="M 9.421875 54.6875
L 18.40625 54.6875
L 18.40625 0
L 9.421875 0
z
M 9.421875 75.984375
L 18.40625 75.984375
L 18.40625 64.59375
L 9.421875 64.59375
z
" id="DejaVuSans-69"/>
      <path d="M 34.28125 27.484375
Q 23.390625 27.484375 19.1875 25
Q 14.984375 22.515625 14.984375 16.5
Q 14.984375 11.71875 18.140625 8.90625
Q 21.296875 6.109375 26.703125 6.109375
Q 34.1875 6.109375 38.703125 11.40625
Q 43.21875 16.703125 43.21875 25.484375
L 43.21875 27.484375
z
M 52.203125 31.203125
L 52.203125 0
L 43.21875 0
L 43.21875 8.296875
Q 40.140625 3.328125 35.546875 0.953125
Q 30.953125 -1.421875 24.3125 -1.421875
Q 15.921875 -1.421875 10.953125 3.296875
Q 6 8.015625 6 15.921875
Q 6 25.140625 12.171875 29.828125
Q 18.359375 34.515625 30.609375 34.515625
L 43.21875 34.515625
L 43.21875 35.40625
Q 43.21875 41.609375 39.140625 45
Q 35.0625 48.390625 27.6875 48.390625
Q 23 48.390625 18.546875 47.265625
Q 14.109375 46.140625 10.015625 43.890625
L 10.015625 52.203125
Q 14.9375 54.109375 19.578125 55.046875
Q 24.21875 56 28.609375 56
Q 40.484375 56 46.34375 49.84375
Q 52.203125 43.703125 52.203125 31.203125
z
" id="DejaVuSans-61"/>
      <path d="M 9.421875 75.984375
L 18.40625 75.984375
L 18.40625 0
L 9.421875 0
z
" id="DejaVuSans-6c"/>
      <path id="DejaVuSans-20"/>
      <path d="M 54.890625 33.015625
L 54.890625 0
L 45.90625 0
L 45.90625 32.71875
Q 45.90625 40.484375 42.875 44.328125
Q 39.84375 48.1875 33.796875 48.1875
Q 26.515625 48.1875 22.3125 43.546875
Q 18.109375 38.921875 18.109375 30.90625
L 18.109375 0
L 9.078125 0
L 9.078125 54.6875
L 18.109375 54.6875
L 18.109375 46.1875
Q 21.34375 51.125 25.703125 53.5625
Q 30.078125 56 35.796875 56
Q 45.21875 56 50.046875 50.171875
Q 54.890625 44.34375 54.890625 33.015625
z
" id="DejaVuSans-6e"/>
      <path d="M 8.5 21.578125
L 8.5 54.6875
L 17.484375 54.6875
L 17.484375 21.921875
Q 17.484375 14.15625 20.5 10.265625
Q 23.53125 6.390625 29.59375 6.390625
Q 36.859375 6.390625 41.078125 11.03125
Q 45.3125 15.671875 45.3125 23.6875
L 45.3125 54.6875
L 54.296875 54.6875
L 54.296875 0
L 45.3125 0
L 45.3125 8.40625
Q 42.046875 3.421875 37.71875 1
Q 33.40625 -1.421875 27.6875 -1.421875
Q 18.265625 -1.421875 13.375 4.4375
Q 8.5 10.296875 8.5 21.578125
z
M 31.109375 56
z
" id="DejaVuSans-75"/>
      <path d="M 52 44.1875
Q 55.375 50.25 60.0625 53.125
Q 64.75 56 71.09375 56
Q 79.640625 56 84.28125 50.015625
Q 88.921875 44.046875 88.921875 33.015625
L 88.921875 0
L 79.890625 0
L 79.890625 32.71875
Q 79.890625 40.578125 77.09375 44.375
Q 74.3125 48.1875 68.609375 48.1875
Q 61.625 48.1875 57.5625 43.546875
Q 53.515625 38.921875 53.515625 30.90625
L 53.515625 0
L 44.484375 0
L 44.484375 32.71875
Q 44.484375 40.625 41.703125 44.40625
Q 38.921875 48.1875 33.109375 48.1875
Q 26.21875 48.1875 22.15625 43.53125
Q 18.109375 38.875 18.109375 30.90625
L 18.109375 0
L 9.078125 0
L 9.078125 54.6875
L 18.109375 54.6875
L 18.109375 46.1875
Q 21.1875 51.21875 25.484375 53.609375
Q 29.78125 56 35.6875 56
Q 41.65625 56 45.828125 52.96875
Q 50 49.953125 52 44.1875
z
" id="DejaVuSans-6d"/>
      <path d="M 48.6875 27.296875
Q 48.6875 37.203125 44.609375 42.84375
Q 40.53125 48.484375 33.40625 48.484375
Q 26.265625 48.484375 22.1875 42.84375
Q 18.109375 37.203125 18.109375 27.296875
Q 18.109375 17.390625 22.1875 11.75
Q 26.265625 6.109375 33.40625 6.109375
Q 40.53125 6.109375 44.609375 11.75
Q 48.6875 17.390625 48.6875 27.296875
z
M 18.109375 46.390625
Q 20.953125 51.265625 25.265625 53.625
Q 29.59375 56 35.59375 56
Q 45.5625 56 51.78125 48.09375
Q 58.015625 40.1875 58.015625 27.296875
Q 58.015625 14.40625 51.78125 6.484375
Q 45.5625 -1.421875 35.59375 -1.421875
Q 29.59375 -1.421875 25.265625 0.953125
Q 20.953125 3.328125 18.109375 8.203125
L 18.109375 0
L 9.078125 0
L 9.078125 75.984375
L 18.109375 75.984375
z
" id="DejaVuSans-62"/>
      <path d="M 56.203125 29.59375
L 56.203125 25.203125
L 14.890625 25.203125
Q 15.484375 15.921875 20.484375 11.0625
Q 25.484375 6.203125 34.421875 6.203125
Q 39.59375 6.203125 44.453125 7.46875
Q 49.3125 8.734375 54.109375 11.28125
L 54.109375 2.78125
Q 49.265625 0.734375 44.1875 -0.34375
Q 39.109375 -1.421875 33.890625 -1.421875
Q 20.796875 -1.421875 13.15625 6.1875
Q 5.515625 13.8125 5.515625 26.8125
Q 5.515625 40.234375 12.765625 48.109375
Q 20.015625 56 32.328125 56
Q 43.359375 56 49.78125 48.890625
Q 56.203125 41.796875 56.203125 29.59375
z
M 47.21875 32.234375
Q 47.125 39.59375 43.09375 43.984375
Q 39.0625 48.390625 32.421875 48.390625
Q 24.90625 48.390625 20.390625 44.140625
Q 15.875 39.890625 15.1875 32.171875
z
" id="DejaVuSans-65"/>
     </defs>
     <g transform="translate(226.25625 348.676562)scale(0.1 -0.1)">
      <use xlink:href="#DejaVuSans-54"/>
      <use x="60.865234" xlink:href="#DejaVuSans-72"/>
      <use x="101.978516" xlink:href="#DejaVuSans-69"/>
      <use x="129.761719" xlink:href="#DejaVuSans-61"/>
      <use x="191.041016" xlink:href="#DejaVuSans-6c"/>
      <use x="218.824219" xlink:href="#DejaVuSans-20"/>
      <use x="250.611328" xlink:href="#DejaVuSans-6e"/>
      <use x="313.990234" xlink:href="#DejaVuSans-75"/>
      <use x="377.369141" xlink:href="#DejaVuSans-6d"/>
      <use x="474.78125" xlink:href="#DejaVuSans-62"/>
      <use x="538.257812" xlink:href="#DejaVuSans-65"/>
      <use x="599.78125" xlink:href="#DejaVuSans-72"/>
     </g>
    </g>
   </g>
   <g id="matplotlib.axis_2">
    <g id="ytick_1">
     <g id="line2d_13">
      <path clip-path="url(#p0386d6a12c)" d="M 63 271.989474
L 453.6 271.989474
" style="fill:none;stroke:#b0b0b0;stroke-linecap:square;stroke-width:0.8;"/>
     </g>
     <g id="line2d_14">
      <defs>
       <path d="M 0 0
L -3.5 0
" id="m4f411bdfab" style="stroke:#000000;stroke-width:0.8;"/>
      </defs>
      <g>
       <use style="stroke:#000000;stroke-width:0.8;" x="63" xlink:href="#m4f411bdfab" y="271.989474"/>
      </g>
     </g>
     <g id="text_8">
      <!-- 0.60 -->
      <defs>
       <path d="M 10.6875 12.40625
L 21 12.40625
L 21 0
L 10.6875 0
z
" id="DejaVuSans-2e"/>
       <path d="M 33.015625 40.375
Q 26.375 40.375 22.484375 35.828125
Q 18.609375 31.296875 18.609375 23.390625
Q 18.609375 15.53125 22.484375 10.953125
Q 26.375 6.390625 33.015625 6.390625
Q 39.65625 6.390625 43.53125 10.953125
Q 47.40625 15.53125 47.40625 23.390625
Q 47.40625 31.296875 43.53125 35.828125
Q 39.65625 40.375 33.015625 40.375
z
M 52.59375 71.296875
L 52.59375 62.3125
Q 48.875 64.0625 45.09375 64.984375
Q 41.3125 65.921875 37.59375 65.921875
Q 27.828125 65.921875 22.671875 59.328125
Q 17.53125 52.734375 16.796875 39.40625
Q 19.671875 43.65625 24.015625 45.921875
Q 28.375 48.1875 33.59375 48.1875
Q 44.578125 48.1875 50.953125 41.515625
Q 57.328125 34.859375 57.328125 23.390625
Q 57.328125 12.15625 50.6875 5.359375
Q 44.046875 -1.421875 33.015625 -1.421875
Q 20.359375 -1.421875 13.671875 8.265625
Q 6.984375 17.96875 6.984375 36.375
Q 6.984375 53.65625 15.1875 63.9375
Q 23.390625 74.21875 37.203125 74.21875
Q 40.921875 74.21875 44.703125 73.484375
Q 48.484375 72.75 52.59375 71.296875
z
" id="DejaVuSans-36"/>
      </defs>
      <g transform="translate(33.734375 275.788692)scale(0.1 -0.1)">
       <use xlink:href="#DejaVuSans-30"/>
       <use x="63.623047" xlink:href="#DejaVuSans-2e"/>
       <use x="95.410156" xlink:href="#DejaVuSans-36"/>
       <use x="159.033203" xlink:href="#DejaVuSans-30"/>
      </g>
     </g>
    </g>
    <g id="ytick_2">
     <g id="line2d_15">
      <path clip-path="url(#p0386d6a12c)" d="M 63 220.926316
L 453.6 220.926316
" style="fill:none;stroke:#b0b0b0;stroke-linecap:square;stroke-width:0.8;"/>
     </g>
     <g id="line2d_16">
      <g>
       <use style="stroke:#000000;stroke-width:0.8;" x="63" xlink:href="#m4f411bdfab" y="220.926316"/>
      </g>
     </g>
     <g id="text_9">
      <!-- 0.65 -->
      <g transform="translate(33.734375 224.725535)scale(0.1 -0.1)">
       <use xlink:href="#DejaVuSans-30"/>
       <use x="63.623047" xlink:href="#DejaVuSans-2e"/>
       <use x="95.410156" xlink:href="#DejaVuSans-36"/>
       <use x="159.033203" xlink:href="#DejaVuSans-35"/>
      </g>
     </g>
    </g>
    <g id="ytick_3">
     <g id="line2d_17">
      <path clip-path="url(#p0386d6a12c)" d="M 63 169.863158
L 453.6 169.863158
" style="fill:none;stroke:#b0b0b0;stroke-linecap:square;stroke-width:0.8;"/>
     </g>
     <g id="line2d_18">
      <g>
       <use style="stroke:#000000;stroke-width:0.8;" x="63" xlink:href="#m4f411bdfab" y="169.863158"/>
      </g>
     </g>
     <g id="text_10">
      <!-- 0.70 -->
      <defs>
       <path d="M 8.203125 72.90625
L 55.078125 72.90625
L 55.078125 68.703125
L 28.609375 0
L 18.3125 0
L 43.21875 64.59375
L 8.203125 64.59375
z
" id="DejaVuSans-37"/>
      </defs>
      <g transform="translate(33.734375 173.662377)scale(0.1 -0.1)">
       <use xlink:href="#DejaVuSans-30"/>
       <use x="63.623047" xlink:href="#DejaVuSans-2e"/>
       <use x="95.410156" xlink:href="#DejaVuSans-37"/>
       <use x="159.033203" xlink:href="#DejaVuSans-30"/>
      </g>
     </g>
    </g>
    <g id="ytick_4">
     <g id="line2d_19">
      <path clip-path="url(#p0386d6a12c)" d="M 63 118.8
L 453.6 118.8
" style="fill:none;stroke:#b0b0b0;stroke-linecap:square;stroke-width:0.8;"/>
     </g>
     <g id="line2d_20">
      <g>
       <use style="stroke:#000000;stroke-width:0.8;" x="63" xlink:href="#m4f411bdfab" y="118.8"/>
      </g>
     </g>
     <g id="text_11">
      <!-- 0.75 -->
      <g transform="translate(33.734375 122.599219)scale(0.1 -0.1)">
       <use xlink:href="#DejaVuSans-30"/>
       <use x="63.623047" xlink:href="#DejaVuSans-2e"/>
       <use x="95.410156" xlink:href="#DejaVuSans-37"/>
       <use x="159.033203" xlink:href="#DejaVuSans-35"/>
      </g>
     </g>
    </g>
    <g id="ytick_5">
     <g id="line2d_21">
      <path clip-path="url(#p0386d6a12c)" d="M 63 67.736842
L 453.6 67.736842
" style="fill:none;stroke:#b0b0b0;stroke-linecap:square;stroke-width:0.8;"/>
     </g>
     <g id="line2d_22">
      <g>
       <use style="stroke:#000000;stroke-width:0.8;" x="63" xlink:href="#m4f411bdfab" y="67.736842"/>
      </g>
     </g>
     <g id="text_12">
      <!-- 0.80 -->
      <defs>
       <path d="M 31.78125 34.625
Q 24.75 34.625 20.71875 30.859375
Q 16.703125 27.09375 16.703125 20.515625
Q 16.703125 13.921875 20.71875 10.15625
Q 24.75 6.390625 31.78125 6.390625
Q 38.8125 6.390625 42.859375 10.171875
Q 46.921875 13.96875 46.921875 20.515625
Q 46.921875 27.09375 42.890625 30.859375
Q 38.875 34.625 31.78125 34.625
z
M 21.921875 38.8125
Q 15.578125 40.375 12.03125 44.71875
Q 8.5 49.078125 8.5 55.328125
Q 8.5 64.0625 14.71875 69.140625
Q 20.953125 74.21875 31.78125 74.21875
Q 42.671875 74.21875 48.875 69.140625
Q 55.078125 64.0625 55.078125 55.328125
Q 55.078125 49.078125 51.53125 44.71875
Q 48 40.375 41.703125 38.8125
Q 48.828125 37.15625 52.796875 32.3125
Q 56.78125 27.484375 56.78125 20.515625
Q 56.78125 9.90625 50.3125 4.234375
Q 43.84375 -1.421875 31.78125 -1.421875
Q 19.734375 -1.421875 13.25 4.234375
Q 6.78125 9.90625 6.78125 20.515625
Q 6.78125 27.484375 10.78125 32.3125
Q 14.796875 37.15625 21.921875 38.8125
z
M 18.3125 54.390625
Q 18.3125 48.734375 21.84375 45.5625
Q 25.390625 42.390625 31.78125 42.390625
Q 38.140625 42.390625 41.71875 45.5625
Q 45.3125 48.734375 45.3125 54.390625
Q 45.3125 60.0625 41.71875 63.234375
Q 38.140625 66.40625 31.78125 66.40625
Q 25.390625 66.40625 21.84375 63.234375
Q 18.3125 60.0625 18.3125 54.390625
z
" id="DejaVuSans-38"/>
      </defs>
      <g transform="translate(33.734375 71.536061)scale(0.1 -0.1)">
       <use xlink:href="#DejaVuSans-30"/>
       <use x="63.623047" xlink:href="#DejaVuSans-2e"/>
       <use x="95.410156" xlink:href="#DejaVuSans-38"/>
       <use x="159.033203" xlink:href="#DejaVuSans-30"/>
      </g>
     </g>
    </g>
    <g id="text_13">
     <!-- PC -->
     <defs>
      <path d="M 19.671875 64.796875
L 19.671875 37.40625
L 32.078125 37.40625
Q 38.96875 37.40625 42.71875 40.96875
Q 46.484375 44.53125 46.484375 51.125
Q 46.484375 57.671875 42.71875 61.234375
Q 38.96875 64.796875 32.078125 64.796875
z
M 9.8125 72.90625
L 32.078125 72.90625
Q 44.34375 72.90625 50.609375 67.359375
Q 56.890625 61.8125 56.890625 51.125
Q 56.890625 40.328125 50.609375 34.8125
Q 44.34375 29.296875 32.078125 29.296875
L 19.671875 29.296875
L 19.671875 0
L 9.8125 0
z
" id="DejaVuSans-50"/>
      <path d="M 64.40625 67.28125
L 64.40625 56.890625
Q 59.421875 61.53125 53.78125 63.8125
Q 48.140625 66.109375 41.796875 66.109375
Q 29.296875 66.109375 22.65625 58.46875
Q 16.015625 50.828125 16.015625 36.375
Q 16.015625 21.96875 22.65625 14.328125
Q 29.296875 6.6875 41.796875 6.6875
Q 48.140625 6.6875 53.78125 8.984375
Q 59.421875 11.28125 64.40625 15.921875
L 64.40625 5.609375
Q 59.234375 2.09375 53.4375 0.328125
Q 47.65625 -1.421875 41.21875 -1.421875
Q 24.65625 -1.421875 15.125 8.703125
Q 5.609375 18.84375 5.609375 36.375
Q 5.609375 53.953125 15.125 64.078125
Q 24.65625 74.21875 41.21875 74.21875
Q 47.75 74.21875 53.53125 72.484375
Q 59.328125 70.75 64.40625 67.28125
z
" id="DejaVuSans-43"/>
     </defs>
     <g transform="translate(27.654688 188.30625)rotate(-90)scale(0.1 -0.1)">
      <use xlink:href="#DejaVuSans-50"/>
      <use x="60.302734" xlink:href="#DejaVuSans-43"/>
     </g>
    </g>
   </g>
   <g id="line2d_23">
    <path clip-path="url(#p0386d6a12c)" d="M 80.754545 195.726316
L 82.130867 210.978947
L 83.507188 210.978947
L 84.88351 217.610526
L 86.259831 214.957895
L 87.636152 214.957895
L 89.012474 217.610526
L 90.388795 210.978947
L 91.765116 210.978947
L 93.141438 195.726316
L 94.517759 177.821053
L 95.89408 163.231579
L 97.270402 159.915789
L 98.646723 152.621053
L 100.023044 149.305263
L 101.399366 145.326316
L 102.775687 140.021053
L 104.152008 148.642105
L 105.52833 147.978947
L 106.904651 153.284211
L 108.280973 163.231579
L 109.657294 167.873684
L 111.033615 173.842105
L 112.409937 182.463158
L 113.786258 188.431579
L 115.162579 197.052632
L 116.538901 198.378947
L 117.915222 189.757895
L 119.291543 197.052632
L 120.667865 195.726316
L 122.044186 193.736842
L 123.420507 188.431579
L 124.796829 189.757895
L 127.549471 181.8
L 128.925793 177.157895
L 130.302114 184.452632
L 131.678436 185.115789
L 133.054757 179.810526
L 134.431078 173.842105
L 135.8074 173.842105
L 137.183721 176.494737
L 138.560042 172.515789
L 139.936364 175.831579
L 141.312685 184.452632
L 142.689006 188.431579
L 144.065328 185.115789
L 145.441649 185.115789
L 146.81797 177.821053
L 148.194292 181.8
L 149.570613 184.452632
L 150.946934 185.778947
L 152.323256 185.778947
L 153.699577 183.126316
L 155.075899 179.810526
L 156.45222 186.442105
L 157.828541 181.136842
L 159.204863 185.778947
L 161.957505 192.410526
L 163.333827 183.126316
L 164.710148 183.126316
L 166.086469 179.810526
L 167.462791 174.505263
L 168.839112 166.547368
L 170.215433 155.936842
L 171.591755 161.242105
L 172.968076 156.6
L 175.720719 161.905263
L 177.09704 169.2
L 178.473362 166.547368
L 179.849683 169.863158
L 181.226004 173.842105
L 182.602326 176.494737
L 183.978647 177.157895
L 185.354968 181.8
L 186.73129 185.778947
L 188.107611 181.136842
L 190.860254 169.2
L 192.236575 168.536842
L 193.612896 165.221053
L 194.989218 159.915789
L 197.74186 174.505263
L 200.494503 161.242105
L 201.870825 164.557895
L 203.247146 166.547368
L 204.623467 162.568421
L 207.37611 169.2
L 208.752431 173.842105
L 210.128753 163.894737
L 211.505074 151.294737
L 214.257717 148.642105
L 218.386681 148.642105
L 219.763002 154.610526
L 221.139323 153.284211
L 222.515645 154.610526
L 223.891966 161.242105
L 225.268288 167.210526
L 226.644609 170.526316
L 228.02093 175.168421
L 229.397252 171.852632
L 232.149894 162.568421
L 233.526216 157.263158
L 234.902537 159.252632
L 236.278858 157.263158
L 237.65518 151.294737
L 240.407822 144.663158
L 243.160465 142.010526
L 244.536786 145.989474
L 245.913108 153.947368
L 247.289429 155.936842
L 248.665751 150.631579
L 250.042072 145.989474
L 251.418393 144.663158
L 252.794715 147.978947
L 254.171036 145.326316
L 255.547357 146.652632
L 256.923679 144
L 258.3 144
L 259.676321 148.642105
L 261.052643 145.326316
L 262.428964 142.673684
L 263.805285 138.031579
L 265.181607 138.031579
L 266.557928 130.736842
L 267.934249 130.736842
L 269.310571 124.768421
L 270.686892 129.410526
L 272.063214 130.736842
L 273.439535 117.473684
L 274.815856 112.168421
L 276.192178 115.484211
L 277.568499 124.768421
L 278.94482 128.747368
L 281.697463 131.4
L 283.073784 138.694737
L 284.450106 135.378947
L 285.826427 133.389474
L 287.202748 142.673684
L 288.57907 148.642105
L 289.955391 148.642105
L 291.331712 151.957895
L 292.708034 153.284211
L 294.084355 153.947368
L 295.460677 155.273684
L 296.836998 151.294737
L 298.213319 153.947368
L 299.589641 161.905263
L 300.965962 159.252632
L 302.342283 157.926316
L 303.718605 160.578947
L 305.094926 157.263158
L 306.471247 155.273684
L 307.847569 156.6
L 309.22389 158.589474
L 310.600211 162.568421
L 311.976533 165.884211
L 313.352854 155.936842
L 314.729175 155.273684
L 316.105497 149.968421
L 317.481818 150.631579
L 318.85814 150.631579
L 320.234461 153.284211
L 321.610782 155.273684
L 322.987104 153.947368
L 324.363425 153.947368
L 325.739746 157.263158
L 327.116068 158.589474
L 328.492389 162.568421
L 329.86871 167.210526
L 331.245032 165.884211
L 332.621353 155.273684
L 333.997674 150.631579
L 335.373996 146.652632
L 336.750317 146.652632
L 338.126638 149.968421
L 339.50296 145.326316
L 340.879281 142.673684
L 342.255603 139.357895
L 343.631924 135.378947
L 345.008245 134.052632
L 346.384567 143.336842
L 347.760888 138.031579
L 349.137209 133.389474
L 350.513531 132.063158
L 351.889852 122.778947
L 353.266173 126.094737
L 354.642495 131.4
L 356.018816 129.410526
L 357.395137 135.378947
L 358.771459 137.368421
L 360.14778 137.368421
L 361.524101 146.652632
L 362.900423 153.284211
L 364.276744 161.242105
L 365.653066 161.905263
L 367.029387 155.273684
L 368.405708 150.631579
L 369.78203 153.284211
L 371.158351 145.326316
L 372.534672 141.347368
L 373.910994 132.063158
L 375.287315 130.073684
L 376.663636 134.715789
L 378.039958 126.757895
L 379.416279 122.778947
L 380.7926 121.452632
L 382.168922 123.442105
L 384.921564 126.094737
L 386.297886 123.442105
L 387.674207 130.073684
L 389.050529 128.747368
L 390.42685 125.431579
L 391.803171 118.136842
L 393.179493 122.115789
L 394.555814 122.115789
L 395.932135 117.473684
L 397.308457 114.821053
L 398.684778 117.473684
L 401.437421 125.431579
L 402.813742 126.094737
L 404.190063 121.452632
L 406.942706 130.736842
L 408.319027 128.747368
L 409.695349 132.726316
L 411.07167 127.421053
L 412.447992 126.757895
L 413.824313 121.452632
L 415.200634 114.821053
L 416.576956 116.147368
L 417.953277 122.778947
L 419.329598 118.8
L 420.70592 112.831579
L 422.082241 115.484211
L 423.458562 106.863158
L 424.834884 111.505263
L 426.211205 110.178947
L 427.587526 109.515789
L 428.963848 116.147368
L 430.340169 116.147368
L 431.71649 109.515789
L 433.092812 110.178947
L 434.469133 111.505263
L 435.845455 106.863158
L 435.845455 106.863158
" style="fill:none;stroke:#008fd5;stroke-linecap:square;stroke-width:1.5;"/>
   </g>
   <g id="line2d_24">
    <path clip-path="url(#p0386d6a12c)" d="M 80.754545 307.8
L 82.130867 281.273684
L 83.507188 181.8
L 84.88351 214.957895
L 86.259831 161.905263
L 87.636152 161.905263
L 89.012474 188.431579
L 90.388795 148.642105
L 91.765116 181.8
L 93.141438 128.747368
L 94.517759 128.747368
L 95.89408 135.378947
L 97.270402 148.642105
L 98.646723 142.010526
L 100.023044 128.747368
L 101.399366 122.115789
L 102.775687 135.378947
L 104.152008 234.852632
L 105.52833 175.168421
L 106.904651 181.8
L 108.280973 228.221053
L 109.657294 181.8
L 111.033615 208.326316
L 112.409937 228.221053
L 113.786258 188.431579
L 115.162579 208.326316
L 116.538901 148.642105
L 117.915222 148.642105
L 119.291543 248.115789
L 120.667865 168.536842
L 122.044186 208.326316
L 123.420507 128.747368
L 124.796829 221.589474
L 126.17315 188.431579
L 127.549471 148.642105
L 128.925793 161.905263
L 130.302114 221.589474
L 131.678436 155.273684
L 133.054757 195.063158
L 134.431078 108.852632
L 135.8074 208.326316
L 137.183721 155.273684
L 138.560042 181.8
L 139.936364 221.589474
L 141.312685 234.852632
L 142.689006 201.694737
L 144.065328 188.431579
L 146.81797 122.115789
L 148.194292 148.642105
L 149.570613 234.852632
L 150.946934 168.536842
L 153.699577 195.063158
L 155.075899 201.694737
L 156.45222 268.010526
L 157.828541 135.378947
L 159.204863 201.694737
L 160.581184 155.273684
L 161.957505 181.8
L 163.333827 142.010526
L 164.710148 168.536842
L 166.086469 148.642105
L 167.462791 142.010526
L 168.839112 122.115789
L 170.215433 161.905263
L 171.591755 188.431579
L 172.968076 155.273684
L 175.720719 208.326316
L 177.09704 214.957895
L 178.473362 142.010526
L 179.849683 181.8
L 181.226004 181.8
L 182.602326 148.642105
L 183.978647 168.536842
L 185.354968 234.852632
L 186.73129 195.063158
L 188.107611 135.378947
L 189.483932 148.642105
L 190.860254 155.273684
L 192.236575 135.378947
L 193.612896 148.642105
L 194.989218 128.747368
L 196.365539 221.589474
L 197.74186 241.484211
L 199.118182 168.536842
L 200.494503 128.747368
L 201.870825 168.536842
L 203.247146 168.536842
L 204.623467 115.484211
L 205.999789 168.536842
L 207.37611 181.8
L 208.752431 175.168421
L 210.128753 122.115789
L 211.505074 115.484211
L 212.881395 155.273684
L 214.257717 115.484211
L 215.634038 168.536842
L 217.010359 168.536842
L 218.386681 115.484211
L 219.763002 228.221053
L 221.139323 168.536842
L 222.515645 188.431579
L 223.891966 188.431579
L 225.268288 175.168421
L 226.644609 188.431579
L 229.397252 135.378947
L 230.773573 122.115789
L 232.149894 69.063158
L 233.526216 175.168421
L 234.902537 188.431579
L 236.278858 168.536842
L 237.65518 128.747368
L 240.407822 155.273684
L 241.784144 148.642105
L 243.160465 122.115789
L 244.536786 161.905263
L 245.913108 148.642105
L 247.289429 195.063158
L 248.665751 135.378947
L 250.042072 122.115789
L 251.418393 115.484211
L 252.794715 175.168421
L 254.171036 128.747368
L 255.547357 161.905263
L 256.923679 95.589474
L 258.3 161.905263
L 259.676321 195.063158
L 261.052643 161.905263
L 262.428964 108.852632
L 263.805285 75.694737
L 265.181607 115.484211
L 266.557928 102.221053
L 267.934249 128.747368
L 269.310571 102.221053
L 270.686892 142.010526
L 272.063214 175.168421
L 273.439535 62.431579
L 274.815856 108.852632
L 276.192178 142.010526
L 277.568499 168.536842
L 278.94482 155.273684
L 280.321142 115.484211
L 281.697463 142.010526
L 283.073784 175.168421
L 284.450106 108.852632
L 285.826427 155.273684
L 287.202748 155.273684
L 288.57907 168.536842
L 289.955391 142.010526
L 291.331712 201.694737
L 292.708034 168.536842
L 294.084355 122.115789
L 295.460677 155.273684
L 296.836998 135.378947
L 298.213319 135.378947
L 299.589641 234.852632
L 300.965962 128.747368
L 302.342283 155.273684
L 303.718605 168.536842
L 305.094926 168.536842
L 306.471247 148.642105
L 307.847569 135.378947
L 309.22389 175.168421
L 310.600211 175.168421
L 311.976533 168.536842
L 313.352854 135.378947
L 314.729175 122.115789
L 316.105497 102.221053
L 317.481818 175.168421
L 318.85814 168.536842
L 320.234461 175.168421
L 321.610782 155.273684
L 322.987104 161.905263
L 324.363425 175.168421
L 325.739746 201.694737
L 327.116068 148.642105
L 328.492389 161.905263
L 329.86871 148.642105
L 331.245032 161.905263
L 332.621353 62.431579
L 333.997674 128.747368
L 335.373996 115.484211
L 338.126638 208.326316
L 339.50296 155.273684
L 340.879281 122.115789
L 342.255603 128.747368
L 343.631924 108.852632
L 345.008245 148.642105
L 346.384567 155.273684
L 347.760888 75.694737
L 349.137209 69.063158
L 350.513531 148.642105
L 351.889852 115.484211
L 353.266173 188.431579
L 354.642495 175.168421
L 356.018816 108.852632
L 357.395137 168.536842
L 358.771459 168.536842
L 360.14778 155.273684
L 361.524101 168.536842
L 362.900423 135.378947
L 364.276744 228.221053
L 365.653066 122.115789
L 367.029387 122.115789
L 369.78203 135.378947
L 371.158351 88.957895
L 372.534672 128.747368
L 373.910994 62.431579
L 375.287315 148.642105
L 376.663636 181.8
L 378.039958 148.642105
L 379.416279 82.326316
L 380.7926 108.852632
L 382.168922 148.642105
L 383.545243 148.642105
L 384.921564 102.221053
L 386.297886 102.221053
L 387.674207 128.747368
L 389.050529 135.378947
L 390.42685 148.642105
L 391.803171 75.694737
L 393.179493 122.115789
L 394.555814 108.852632
L 395.932135 102.221053
L 397.308457 122.115789
L 398.684778 128.747368
L 400.061099 142.010526
L 401.437421 168.536842
L 402.813742 142.010526
L 404.190063 102.221053
L 405.566385 122.115789
L 406.942706 168.536842
L 408.319027 88.957895
L 409.695349 142.010526
L 411.07167 69.063158
L 412.447992 122.115789
L 413.824313 88.957895
L 415.200634 102.221053
L 416.576956 155.273684
L 417.953277 168.536842
L 419.329598 82.326316
L 420.70592 108.852632
L 422.082241 115.484211
L 423.458562 55.8
L 423.458562 55.8
" style="fill:none;opacity:0.5;stroke:#008fd5;stroke-linecap:square;"/>
   </g>
   <g id="line2d_25">
    <path clip-path="url(#p0386d6a12c)" d="M 80.754545 211.061842
L 82.130867 219.765789
L 83.507188 218.605263
L 84.88351 224.407895
L 86.259831 233.692105
L 87.636152 233.692105
L 89.012474 224.407895
L 90.388795 218.605263
L 91.765116 219.765789
L 93.141438 211.061842
L 94.517759 207.580263
L 95.89408 202.357895
L 97.270402 205.259211
L 98.646723 208.740789
L 100.023044 211.642105
L 101.399366 207.580263
L 102.775687 215.703947
L 104.152008 222.086842
L 105.52833 219.765789
L 106.904651 226.728947
L 108.280973 227.309211
L 109.657294 226.728947
L 112.409937 215.123684
L 113.786258 213.382895
L 115.162579 215.123684
L 116.538901 216.284211
L 117.915222 205.259211
L 119.291543 209.901316
L 120.667865 202.938158
L 122.044186 197.135526
L 123.420507 193.653947
L 124.796829 190.752632
L 126.17315 186.690789
L 127.549471 186.110526
L 128.925793 187.271053
L 130.302114 183.209211
L 131.678436 194.234211
L 133.054757 190.752632
L 135.8074 200.036842
L 137.183721 205.259211
L 138.560042 209.321053
L 139.936364 207.580263
L 141.312685 210.481579
L 142.689006 208.160526
L 144.065328 212.222368
L 145.441649 215.123684
L 146.81797 215.703947
L 148.194292 208.160526
L 149.570613 211.061842
L 150.946934 203.518421
L 152.323256 209.321053
L 153.699577 213.963158
L 155.075899 215.123684
L 156.45222 218.025
L 157.828541 226.148684
L 159.204863 221.506579
L 160.581184 226.148684
L 161.957505 235.432895
L 163.333827 230.210526
L 164.710148 231.371053
L 166.086469 229.05
L 167.462791 234.272368
L 168.839112 228.469737
L 170.215433 223.247368
L 171.591755 216.864474
L 172.968076 212.222368
L 174.344397 212.802632
L 175.720719 211.061842
L 177.09704 214.543421
L 178.473362 219.765789
L 179.849683 213.963158
L 181.226004 204.678947
L 182.602326 211.642105
L 183.978647 211.061842
L 185.354968 208.740789
L 186.73129 211.061842
L 188.107611 206.419737
L 189.483932 205.839474
L 190.860254 208.740789
L 192.236575 205.839474
L 193.612896 211.642105
L 194.989218 222.667105
L 196.365539 221.506579
L 197.74186 226.728947
L 199.118182 227.889474
L 200.494503 232.531579
L 201.870825 235.432895
L 203.247146 242.396053
L 204.623467 238.914474
L 207.37611 254.581579
L 208.752431 246.457895
L 210.128753 242.396053
L 211.505074 234.272368
L 212.881395 231.951316
L 214.257717 234.852632
L 215.634038 230.790789
L 217.010359 222.086842
L 218.386681 229.630263
L 219.763002 219.765789
L 221.139323 213.382895
L 222.515645 217.444737
L 223.891966 224.407895
L 225.268288 229.05
L 226.644609 230.790789
L 228.02093 226.728947
L 229.397252 229.630263
L 230.773573 231.951316
L 232.149894 224.407895
L 233.526216 230.790789
L 234.902537 222.086842
L 236.278858 218.025
L 237.65518 215.703947
L 239.031501 220.346053
L 240.407822 226.148684
L 241.784144 226.148684
L 243.160465 230.210526
L 245.913108 237.173684
L 247.289429 234.852632
L 248.665751 244.136842
L 250.042072 244.717105
L 251.418393 239.494737
L 252.794715 238.334211
L 254.171036 234.852632
L 255.547357 231.951316
L 256.923679 227.889474
L 258.3 226.148684
L 259.676321 217.444737
L 261.052643 220.346053
L 262.428964 217.444737
L 263.805285 216.864474
L 265.181607 223.247368
L 266.557928 221.506579
L 267.934249 222.086842
L 269.310571 226.148684
L 270.686892 228.469737
L 272.063214 227.889474
L 273.439535 237.753947
L 274.815856 238.334211
L 276.192178 246.457895
L 277.568499 255.742105
L 278.94482 254.001316
L 280.321142 253.421053
L 281.697463 259.223684
L 283.073784 256.322368
L 284.450106 248.778947
L 285.826427 246.457895
L 287.202748 241.815789
L 288.57907 231.371053
L 289.955391 227.309211
L 291.331712 226.728947
L 292.708034 229.630263
L 294.084355 225.568421
L 295.460677 224.988158
L 296.836998 223.247368
L 298.213319 231.951316
L 299.589641 230.790789
L 300.965962 229.05
L 302.342283 236.593421
L 303.718605 242.976316
L 305.094926 236.013158
L 306.471247 236.013158
L 307.847569 235.432895
L 309.22389 228.469737
L 310.600211 229.630263
L 311.976533 219.185526
L 313.352854 222.667105
L 314.729175 224.407895
L 316.105497 221.506579
L 317.481818 215.703947
L 318.85814 208.740789
L 320.234461 202.938158
L 321.610782 206.419737
L 322.987104 207
L 324.363425 208.740789
L 325.739746 213.963158
L 327.116068 208.740789
L 328.492389 205.839474
L 329.86871 208.160526
L 331.245032 204.678947
L 332.621353 209.901316
L 333.997674 213.382895
L 335.373996 220.346053
L 336.750317 220.346053
L 338.126638 216.864474
L 339.50296 223.827632
L 340.879281 219.185526
L 342.255603 217.444737
L 343.631924 213.963158
L 345.008245 208.160526
L 346.384567 207.580263
L 347.760888 207.580263
L 349.137209 210.481579
L 350.513531 212.222368
L 351.889852 212.222368
L 353.266173 198.296053
L 354.642495 197.715789
L 356.018816 202.357895
L 357.395137 202.938158
L 360.14778 217.444737
L 361.524101 213.963158
L 362.900423 207.580263
L 364.276744 207.580263
L 365.653066 218.025
L 367.029387 224.988158
L 368.405708 230.210526
L 369.78203 237.173684
L 371.158351 242.396053
L 372.534672 245.877632
L 373.910994 244.136842
L 375.287315 245.877632
L 376.663636 243.556579
L 378.039958 238.334211
L 379.416279 226.148684
L 380.7926 225.568421
L 382.168922 221.506579
L 383.545243 218.605263
L 384.921564 207.580263
L 386.297886 199.456579
L 387.674207 194.814474
L 389.050529 187.851316
L 390.42685 186.690789
L 391.803171 192.493421
L 393.179493 195.394737
L 394.555814 200.617105
L 395.932135 208.160526
L 397.308457 205.259211
L 398.684778 212.222368
L 400.061099 220.926316
L 401.437421 221.506579
L 402.813742 223.247368
L 404.190063 226.148684
L 405.566385 224.407895
L 406.942706 224.988158
L 408.319027 228.469737
L 409.695349 226.728947
L 411.07167 218.605263
L 412.447992 218.025
L 413.824313 208.740789
L 415.200634 209.901316
L 416.576956 210.481579
L 417.953277 213.963158
L 419.329598 219.185526
L 420.70592 218.605263
L 422.082241 212.222368
L 423.458562 213.963158
L 424.834884 220.926316
L 426.211205 222.086842
L 427.587526 231.951316
L 428.963848 237.173684
L 430.340169 237.173684
L 431.71649 231.951316
L 433.092812 222.086842
L 434.469133 220.926316
L 435.845455 213.963158
L 435.845455 213.963158
" style="fill:none;stroke:#fc4f30;stroke-linecap:square;stroke-width:1.5;"/>
   </g>
   <g id="line2d_26">
    <path clip-path="url(#p0386d6a12c)" d="M 80.754545 258.063158
L 82.130867 281.273684
L 83.507188 194.234211
L 84.88351 240.655263
L 86.259831 200.036842
L 87.636152 246.457895
L 89.012474 107.194737
L 90.388795 182.628947
L 91.765116 205.839474
L 93.141438 194.234211
L 94.517759 223.247368
L 95.89408 229.05
L 97.270402 223.247368
L 98.646723 275.471053
L 100.023044 229.05
L 101.399366 205.839474
L 102.775687 188.431579
L 104.152008 246.457895
L 105.52833 182.628947
L 106.904651 263.865789
L 108.280973 229.05
L 109.657294 223.247368
L 111.033615 165.221053
L 112.409937 217.444737
L 113.786258 211.642105
L 115.162579 223.247368
L 116.538901 200.036842
L 117.915222 136.207895
L 119.291543 229.05
L 120.667865 194.234211
L 122.044186 171.023684
L 123.420507 188.431579
L 124.796829 136.207895
L 126.17315 176.826316
L 128.925793 234.852632
L 130.302114 159.418421
L 131.678436 246.457895
L 133.054757 194.234211
L 134.431078 240.655263
L 135.8074 217.444737
L 137.183721 240.655263
L 138.560042 176.826316
L 139.936364 159.418421
L 141.312685 234.852632
L 142.689006 211.642105
L 144.065328 200.036842
L 145.441649 275.471053
L 146.81797 200.036842
L 148.194292 165.221053
L 149.570613 246.457895
L 150.946934 165.221053
L 152.323256 234.852632
L 153.699577 205.839474
L 155.075899 246.457895
L 156.45222 240.655263
L 157.828541 281.273684
L 159.204863 229.05
L 160.581184 246.457895
L 161.957505 258.063158
L 163.333827 194.234211
L 164.710148 176.826316
L 166.086469 211.642105
L 167.462791 258.063158
L 168.839112 188.431579
L 170.215433 188.431579
L 171.591755 217.444737
L 172.968076 182.628947
L 174.344397 252.260526
L 177.09704 229.05
L 178.473362 229.05
L 179.849683 153.615789
L 181.226004 165.221053
L 182.602326 258.063158
L 183.978647 182.628947
L 186.73129 205.839474
L 188.107611 205.839474
L 189.483932 234.852632
L 190.860254 258.063158
L 192.236575 200.036842
L 193.612896 211.642105
L 194.989218 275.471053
L 196.365539 246.457895
L 197.74186 234.852632
L 199.118182 205.839474
L 200.494503 252.260526
L 201.870825 234.852632
L 203.247146 304.484211
L 204.623467 223.247368
L 205.999789 281.273684
L 207.37611 287.076316
L 208.752431 194.234211
L 210.128753 205.839474
L 211.505074 153.615789
L 212.881395 182.628947
L 214.257717 281.273684
L 215.634038 194.234211
L 217.010359 217.444737
L 218.386681 298.681579
L 219.763002 182.628947
L 221.139323 223.247368
L 222.515645 234.852632
L 223.891966 275.471053
L 225.268288 200.036842
L 226.644609 200.036842
L 228.02093 240.655263
L 229.397252 223.247368
L 230.773573 240.655263
L 232.149894 223.247368
L 233.526216 246.457895
L 234.902537 136.207895
L 237.65518 252.260526
L 239.031501 246.457895
L 240.407822 258.063158
L 241.784144 240.655263
L 243.160465 263.865789
L 244.536786 275.471053
L 245.913108 258.063158
L 247.289429 223.247368
L 248.665751 229.05
L 250.042072 200.036842
L 251.418393 200.036842
L 252.794715 234.852632
L 255.547357 211.642105
L 256.923679 223.247368
L 258.3 258.063158
L 259.676321 171.023684
L 261.052643 252.260526
L 262.428964 200.036842
L 263.805285 194.234211
L 265.181607 263.865789
L 266.557928 217.444737
L 267.934249 229.05
L 269.310571 252.260526
L 270.686892 246.457895
L 272.063214 252.260526
L 273.439535 269.668421
L 274.815856 258.063158
L 276.192178 281.273684
L 277.568499 287.076316
L 278.94482 246.457895
L 280.321142 211.642105
L 281.697463 287.076316
L 283.073784 223.247368
L 284.450106 171.023684
L 285.826427 229.05
L 287.202748 223.247368
L 288.57907 153.615789
L 289.955391 240.655263
L 291.331712 281.273684
L 292.708034 275.471053
L 294.084355 171.023684
L 295.460677 281.273684
L 296.836998 205.839474
L 298.213319 258.063158
L 299.589641 217.444737
L 300.965962 205.839474
L 302.342283 229.05
L 303.718605 304.484211
L 305.094926 211.642105
L 306.471247 275.471053
L 307.847569 165.221053
L 309.22389 211.642105
L 310.600211 217.444737
L 311.976533 153.615789
L 313.352854 252.260526
L 314.729175 223.247368
L 316.105497 200.036842
L 317.481818 246.457895
L 318.85814 142.010526
L 320.234461 217.444737
L 321.610782 200.036842
L 324.363425 234.852632
L 325.739746 205.839474
L 328.492389 194.234211
L 329.86871 223.247368
L 331.245032 211.642105
L 332.621353 194.234211
L 333.997674 252.260526
L 335.373996 269.668421
L 336.750317 217.444737
L 338.126638 200.036842
L 339.50296 275.471053
L 340.879281 153.615789
L 342.255603 176.826316
L 343.631924 188.431579
L 345.008245 153.615789
L 346.384567 188.431579
L 347.760888 252.260526
L 349.137209 298.681579
L 350.513531 234.852632
L 351.889852 200.036842
L 353.266173 136.207895
L 354.642495 147.813158
L 356.018816 223.247368
L 357.395137 194.234211
L 358.771459 229.05
L 360.14778 258.063158
L 361.524101 217.444737
L 362.900423 234.852632
L 364.276744 234.852632
L 365.653066 304.484211
L 367.029387 205.839474
L 368.405708 200.036842
L 369.78203 292.878947
L 371.158351 246.457895
L 372.534672 263.865789
L 373.910994 240.655263
L 375.287315 234.852632
L 376.663636 211.642105
L 378.039958 182.628947
L 379.416279 182.628947
L 380.7926 200.036842
L 382.168922 159.418421
L 383.545243 263.865789
L 384.921564 136.207895
L 386.297886 182.628947
L 387.674207 194.234211
L 389.050529 165.221053
L 390.42685 200.036842
L 391.803171 240.655263
L 393.179493 211.642105
L 394.555814 252.260526
L 395.932135 234.852632
L 397.308457 234.852632
L 398.684778 205.839474
L 400.061099 269.668421
L 401.437421 200.036842
L 402.813742 182.628947
L 404.190063 229.05
L 406.942706 217.444737
L 408.319027 287.076316
L 409.695349 217.444737
L 411.07167 153.615789
L 412.447992 200.036842
L 413.824313 176.826316
L 415.200634 211.642105
L 416.576956 188.431579
L 417.953277 263.865789
L 419.329598 275.471053
L 420.70592 211.642105
L 423.458562 234.852632
L 423.458562 234.852632
" style="fill:none;opacity:0.5;stroke:#fc4f30;stroke-linecap:square;"/>
   </g>
   <g id="patch_3">
    <path d="M 63 320.4
L 63 43.2
" style="fill:none;stroke:#000000;stroke-linecap:square;stroke-linejoin:miter;stroke-width:0.8;"/>
   </g>
   <g id="patch_4">
    <path d="M 63 320.4
L 453.6 320.4
" style="fill:none;stroke:#000000;stroke-linecap:square;stroke-linejoin:miter;stroke-width:0.8;"/>
   </g>
   <g id="legend_1">
    <g id="patch_5">
     <path d="M 70 80.55625
L 108.348438 80.55625
Q 110.348438 80.55625 110.348438 78.55625
L 110.348438 50.2
Q 110.348438 48.2 108.348438 48.2
L 70 48.2
Q 68 48.2 68 50.2
L 68 78.55625
Q 68 80.55625 70 80.55625
z
" style="fill:#ffffff;opacity:0.8;stroke:#cccccc;stroke-linejoin:miter;"/>
    </g>
    <g id="line2d_27">
     <path d="M 72 56.298437
L 92 56.298437
" style="fill:none;stroke:#008fd5;stroke-linecap:square;stroke-width:1.5;"/>
    </g>
    <g id="line2d_28"/>
    <g id="text_14">
     <!-- F -->
     <defs>
      <path d="M 9.8125 72.90625
L 51.703125 72.90625
L 51.703125 64.59375
L 19.671875 64.59375
L 19.671875 43.109375
L 48.578125 43.109375
L 48.578125 34.8125
L 19.671875 34.8125
L 19.671875 0
L 9.8125 0
z
" id="DejaVuSans-46"/>
     </defs>
     <g transform="translate(100 59.798437)scale(0.1 -0.1)">
      <use xlink:href="#DejaVuSans-46"/>
     </g>
    </g>
    <g id="line2d_29">
     <path d="M 72 70.976562
L 92 70.976562
" style="fill:none;stroke:#fc4f30;stroke-linecap:square;stroke-width:1.5;"/>
    </g>
    <g id="line2d_30"/>
    <g id="text_15">
     <!-- S -->
     <defs>
      <path d="M 53.515625 70.515625
L 53.515625 60.890625
Q 47.90625 63.578125 42.921875 64.890625
Q 37.9375 66.21875 33.296875 66.21875
Q 25.25 66.21875 20.875 63.09375
Q 16.5 59.96875 16.5 54.203125
Q 16.5 49.359375 19.40625 46.890625
Q 22.3125 44.4375 30.421875 42.921875
L 36.375 41.703125
Q 47.40625 39.59375 52.65625 34.296875
Q 57.90625 29 57.90625 20.125
Q 57.90625 9.515625 50.796875 4.046875
Q 43.703125 -1.421875 29.984375 -1.421875
Q 24.8125 -1.421875 18.96875 -0.25
Q 13.140625 0.921875 6.890625 3.21875
L 6.890625 13.375
Q 12.890625 10.015625 18.65625 8.296875
Q 24.421875 6.59375 29.984375 6.59375
Q 38.421875 6.59375 43.015625 9.90625
Q 47.609375 13.234375 47.609375 19.390625
Q 47.609375 24.75 44.3125 27.78125
Q 41.015625 30.8125 33.5 32.328125
L 27.484375 33.5
Q 16.453125 35.6875 11.515625 40.375
Q 6.59375 45.0625 6.59375 53.421875
Q 6.59375 63.09375 13.40625 68.65625
Q 20.21875 74.21875 32.171875 74.21875
Q 37.3125 74.21875 42.625 73.28125
Q 47.953125 72.359375 53.515625 70.515625
z
" id="DejaVuSans-53"/>
     </defs>
     <g transform="translate(100 74.476562)scale(0.1 -0.1)">
      <use xlink:href="#DejaVuSans-53"/>
     </g>
    </g>
   </g>
  </g>
 </g>
 <defs>
  <clipPath id="p0386d6a12c">
   <rect height="277.2" width="390.6" x="63" y="43.2"/>
  </clipPath>
 </defs>
</svg>
