<?xml version="1.0" encoding="utf-8" standalone="no"?>
<!DOCTYPE svg PUBLIC "-//W3C//DTD SVG 1.1//EN"
  "http://www.w3.org/Graphics/SVG/1.1/DTD/svg11.dtd">
<!-- Created with matplotlib (http://matplotlib.org/) -->
<svg height="288pt" version="1.1" viewBox="0 0 720 288" width="720pt" xmlns="http://www.w3.org/2000/svg" xmlns:xlink="http://www.w3.org/1999/xlink">
 <defs>
  <style type="text/css">
*{stroke-linecap:butt;stroke-linejoin:round;}
  </style>
 </defs>
 <g id="figure_1">
  <g id="patch_1">
   <path d="M 0 288
L 720 288
L 720 0
L 0 0
z
" style="fill:#ffffff;"/>
  </g>
  <g id="axes_1">
   <g id="patch_2">
    <path d="M 50.87 246.04
L 352.08 246.04
L 352.08 26.88
L 50.87 26.88
z
" style="fill:#ffffff;"/>
   </g>
   <g id="PolyCollection_1">
    <defs>
     <path d="M 89.394482 -6.753414
L 87.648018 -6.753414
L 87.326014 -9.350435
L 86.916495 -11.947455
L 86.407229 -14.544475
L 85.787976 -17.141496
L 85.051699 -19.738516
L 84.195719 -22.335537
L 83.222673 -24.932557
L 82.141109 -27.529578
L 80.965627 -30.126598
L 79.716476 -32.723619
L 78.418624 -35.320639
L 77.10039 -37.917659
L 75.791772 -40.51468
L 74.522684 -43.1117
L 73.321296 -45.708721
L 72.212666 -48.305741
L 71.217784 -50.902762
L 70.353084 -53.499782
L 69.630381 -56.096803
L 69.057127 -58.693823
L 68.636861 -61.290843
L 68.369671 -63.887864
L 68.252574 -66.484884
L 68.27973 -69.081905
L 68.442502 -71.678925
L 68.729419 -74.275946
L 69.126151 -76.872966
L 69.615633 -79.469986
L 70.178427 -82.067007
L 70.793395 -84.664027
L 71.438664 -87.261048
L 72.092834 -89.858068
L 72.736273 -92.455089
L 73.352363 -95.052109
L 73.928523 -97.64913
L 74.456859 -100.24615
L 74.934379 -102.84317
L 75.362715 -105.440191
L 75.747408 -108.037211
L 76.096851 -110.634232
L 76.421019 -113.231252
L 76.730139 -115.828273
L 77.033468 -118.425293
L 77.338303 -121.022314
L 77.649316 -123.619334
L 77.968278 -126.216354
L 78.294166 -128.813375
L 78.623601 -131.410395
L 78.951549 -134.007416
L 79.272161 -136.604436
L 79.579639 -139.201457
L 79.869012 -141.798477
L 80.136738 -144.395497
L 80.381065 -146.992518
L 80.60214 -149.589538
L 80.801878 -152.186559
L 80.983646 -154.783579
L 81.151821 -157.3806
L 81.311303 -159.97762
L 81.467051 -162.574641
L 81.623695 -165.171661
L 81.785258 -167.768681
L 81.954999 -170.365702
L 82.135351 -172.962722
L 82.32795 -175.559743
L 82.5337 -178.156763
L 82.752838 -180.753784
L 82.984997 -183.350804
L 83.229222 -185.947825
L 83.483981 -188.544845
L 83.747153 -191.141865
L 84.016062 -193.738886
L 84.287542 -196.335906
L 84.558091 -198.932927
L 84.82409 -201.529947
L 85.082083 -204.126968
L 85.329078 -206.723988
L 85.562837 -209.321008
L 85.782077 -211.918029
L 85.986578 -214.515049
L 86.177142 -217.11207
L 86.355422 -219.70909
L 86.523634 -222.306111
L 86.684199 -224.903131
L 86.83938 -227.500152
L 86.990947 -230.097172
L 87.139952 -232.694192
L 87.28661 -235.291213
L 87.430327 -237.888233
L 87.569831 -240.485254
L 87.703404 -243.082274
L 87.829147 -245.679295
L 87.945247 -248.276315
L 88.05021 -250.873335
L 88.14302 -253.470356
L 88.22322 -256.067376
L 88.290918 -258.664397
L 88.346722 -261.261417
L 88.391638 -263.858438
L 88.650862 -263.858438
L 88.650862 -263.858438
L 88.695778 -261.261417
L 88.751582 -258.664397
L 88.81928 -256.067376
L 88.89948 -253.470356
L 88.99229 -250.873335
L 89.097253 -248.276315
L 89.213353 -245.679295
L 89.339096 -243.082274
L 89.472669 -240.485254
L 89.612173 -237.888233
L 89.75589 -235.291213
L 89.902548 -232.694192
L 90.051553 -230.097172
L 90.20312 -227.500152
L 90.358301 -224.903131
L 90.518866 -222.306111
L 90.687078 -219.70909
L 90.865358 -217.11207
L 91.055922 -214.515049
L 91.260423 -211.918029
L 91.479663 -209.321008
L 91.713422 -206.723988
L 91.960417 -204.126968
L 92.21841 -201.529947
L 92.484409 -198.932927
L 92.754958 -196.335906
L 93.026438 -193.738886
L 93.295347 -191.141865
L 93.558519 -188.544845
L 93.813278 -185.947825
L 94.057503 -183.350804
L 94.289662 -180.753784
L 94.5088 -178.156763
L 94.71455 -175.559743
L 94.907149 -172.962722
L 95.087501 -170.365702
L 95.257242 -167.768681
L 95.418805 -165.171661
L 95.575449 -162.574641
L 95.731197 -159.97762
L 95.890679 -157.3806
L 96.058854 -154.783579
L 96.240622 -152.186559
L 96.44036 -149.589538
L 96.661435 -146.992518
L 96.905762 -144.395497
L 97.173488 -141.798477
L 97.462861 -139.201457
L 97.770339 -136.604436
L 98.090951 -134.007416
L 98.418899 -131.410395
L 98.748334 -128.813375
L 99.074222 -126.216354
L 99.393184 -123.619334
L 99.704197 -121.022314
L 100.009032 -118.425293
L 100.312361 -115.828273
L 100.621481 -113.231252
L 100.945649 -110.634232
L 101.295092 -108.037211
L 101.679785 -105.440191
L 102.108121 -102.84317
L 102.585641 -100.24615
L 103.113977 -97.64913
L 103.690137 -95.052109
L 104.306227 -92.455089
L 104.949666 -89.858068
L 105.603836 -87.261048
L 106.249105 -84.664027
L 106.864073 -82.067007
L 107.426867 -79.469986
L 107.916349 -76.872966
L 108.313081 -74.275946
L 108.599998 -71.678925
L 108.76277 -69.081905
L 108.789926 -66.484884
L 108.672829 -63.887864
L 108.405639 -61.290843
L 107.985373 -58.693823
L 107.412119 -56.096803
L 106.689416 -53.499782
L 105.824716 -50.902762
L 104.829834 -48.305741
L 103.721204 -45.708721
L 102.519816 -43.1117
L 101.250728 -40.51468
L 99.94211 -37.917659
L 98.623876 -35.320639
L 97.326024 -32.723619
L 96.076873 -30.126598
L 94.901391 -27.529578
L 93.819827 -24.932557
L 92.846781 -22.335537
L 91.990801 -19.738516
L 91.254524 -17.141496
L 90.635271 -14.544475
L 90.126005 -11.947455
L 89.716486 -9.350435
L 89.394482 -6.753414
z
" id="m4171626a55" style="stroke:#404040;stroke-width:1.5;"/>
    </defs>
    <g clip-path="url(#pb8ffdb7cc1)">
     <use style="fill:#1b86ba;stroke:#404040;stroke-width:1.5;" x="0" xlink:href="#m4171626a55" y="288"/>
    </g>
   </g>
   <g id="PolyCollection_2">
    <defs>
     <path d="M 164.498558 -13.988121
L 163.148942 -13.988121
L 162.84723 -16.39799
L 162.445704 -18.80786
L 161.926267 -21.21773
L 161.272794 -23.627599
L 160.472921 -26.037469
L 159.519711 -28.447338
L 158.412918 -30.857208
L 157.159578 -33.267078
L 155.773772 -35.676947
L 154.275548 -38.086817
L 152.689135 -40.496687
L 151.040767 -42.906556
L 149.356498 -45.316426
L 147.660449 -47.726295
L 145.973821 -50.136165
L 144.314867 -52.546035
L 142.69983 -54.955904
L 141.144599 -57.365774
L 139.666695 -59.775643
L 138.287053 -62.185513
L 137.031109 -64.595383
L 135.928762 -67.005252
L 135.013033 -69.415122
L 134.317488 -71.824992
L 133.87276 -74.234861
L 133.70275 -76.644731
L 133.821166 -79.0546
L 134.229055 -81.46447
L 134.913815 -83.87434
L 135.849892 -86.284209
L 137.001061 -88.694079
L 138.323908 -91.103948
L 139.771887 -93.513818
L 141.299299 -95.923688
L 142.864575 -98.333557
L 144.432443 -100.743427
L 145.974814 -103.153296
L 147.470494 -105.563166
L 148.904022 -107.973036
L 150.264089 -110.382905
L 151.541984 -112.792775
L 152.730451 -115.202645
L 153.823155 -117.612514
L 154.814802 -120.022384
L 155.701749 -122.432253
L 156.482839 -124.842123
L 157.160152 -127.251993
L 157.739381 -129.661862
L 158.229685 -132.071732
L 158.642975 -134.481601
L 158.992765 -136.891471
L 159.292818 -139.301341
L 159.555842 -141.71121
L 159.79249 -144.12108
L 160.010806 -146.53095
L 160.216155 -148.940819
L 160.411558 -151.350689
L 160.598259 -153.760558
L 160.776338 -156.170428
L 160.945214 -158.580298
L 161.103932 -160.990167
L 161.25125 -163.400037
L 161.385588 -165.809906
L 161.504967 -168.219776
L 161.607043 -170.629646
L 161.689319 -173.039515
L 161.749531 -175.449385
L 161.78615 -177.859255
L 161.79889 -180.269124
L 161.789088 -182.678994
L 161.759855 -185.088863
L 161.715944 -187.498733
L 161.663341 -189.908603
L 161.608663 -192.318472
L 161.558469 -194.728342
L 161.518629 -197.138211
L 161.493854 -199.548081
L 161.487463 -201.957951
L 161.501386 -204.36782
L 161.536367 -206.77769
L 161.592272 -209.18756
L 161.668386 -211.597429
L 161.76364 -214.007299
L 161.87669 -216.417168
L 162.005866 -218.827038
L 162.149037 -221.236908
L 162.303465 -223.646777
L 162.465733 -226.056647
L 162.6318 -228.466516
L 162.797206 -230.876386
L 162.957398 -233.286256
L 163.108121 -235.696125
L 163.245798 -238.105995
L 163.367821 -240.515864
L 163.472717 -242.925734
L 163.560154 -245.335604
L 163.630817 -247.745473
L 163.686177 -250.155343
L 163.728224 -252.565213
L 163.919276 -252.565213
L 163.919276 -252.565213
L 163.961323 -250.155343
L 164.016683 -247.745473
L 164.087346 -245.335604
L 164.174783 -242.925734
L 164.279679 -240.515864
L 164.401702 -238.105995
L 164.539379 -235.696125
L 164.690102 -233.286256
L 164.850294 -230.876386
L 165.0157 -228.466516
L 165.181767 -226.056647
L 165.344035 -223.646777
L 165.498463 -221.236908
L 165.641634 -218.827038
L 165.77081 -216.417168
L 165.88386 -214.007299
L 165.979114 -211.597429
L 166.055228 -209.18756
L 166.111133 -206.77769
L 166.146114 -204.36782
L 166.160037 -201.957951
L 166.153646 -199.548081
L 166.128871 -197.138211
L 166.089031 -194.728342
L 166.038837 -192.318472
L 165.984159 -189.908603
L 165.931556 -187.498733
L 165.887645 -185.088863
L 165.858412 -182.678994
L 165.84861 -180.269124
L 165.86135 -177.859255
L 165.897969 -175.449385
L 165.958181 -173.039515
L 166.040457 -170.629646
L 166.142533 -168.219776
L 166.261912 -165.809906
L 166.39625 -163.400037
L 166.543568 -160.990167
L 166.702286 -158.580298
L 166.871162 -156.170428
L 167.049241 -153.760558
L 167.235942 -151.350689
L 167.431345 -148.940819
L 167.636694 -146.53095
L 167.85501 -144.12108
L 168.091658 -141.71121
L 168.354682 -139.301341
L 168.654735 -136.891471
L 169.004525 -134.481601
L 169.417815 -132.071732
L 169.908119 -129.661862
L 170.487348 -127.251993
L 171.164661 -124.842123
L 171.945751 -122.432253
L 172.832698 -120.022384
L 173.824345 -117.612514
L 174.917049 -115.202645
L 176.105516 -112.792775
L 177.383411 -110.382905
L 178.743478 -107.973036
L 180.177006 -105.563166
L 181.672686 -103.153296
L 183.215057 -100.743427
L 184.782925 -98.333557
L 186.348201 -95.923688
L 187.875613 -93.513818
L 189.323592 -91.103948
L 190.646439 -88.694079
L 191.797608 -86.284209
L 192.733685 -83.87434
L 193.418445 -81.46447
L 193.826334 -79.0546
L 193.94475 -76.644731
L 193.77474 -74.234861
L 193.330012 -71.824992
L 192.634467 -69.415122
L 191.718738 -67.005252
L 190.616391 -64.595383
L 189.360447 -62.185513
L 187.980805 -59.775643
L 186.502901 -57.365774
L 184.94767 -54.955904
L 183.332633 -52.546035
L 181.673679 -50.136165
L 179.987051 -47.726295
L 178.291002 -45.316426
L 176.606733 -42.906556
L 174.958365 -40.496687
L 173.371952 -38.086817
L 171.873728 -35.676947
L 170.487922 -33.267078
L 169.234582 -30.857208
L 168.127789 -28.447338
L 167.174579 -26.037469
L 166.374706 -23.627599
L 165.721233 -21.21773
L 165.201796 -18.80786
L 164.80027 -16.39799
L 164.498558 -13.988121
z
" id="m201face6f2" style="stroke:#404040;stroke-width:1.5;"/>
    </defs>
    <g clip-path="url(#pb8ffdb7cc1)">
     <use style="fill:#e36149;stroke:#404040;stroke-width:1.5;" x="0" xlink:href="#m201face6f2" y="288"/>
    </g>
   </g>
   <g id="PolyCollection_3">
    <defs>
     <path d="M 239.806668 -17.993362
L 238.445832 -17.993362
L 238.156079 -19.953362
L 237.774426 -21.913361
L 237.284722 -23.873361
L 236.672489 -25.83336
L 235.926508 -27.79336
L 235.040373 -29.753359
L 234.013796 -31.713358
L 232.853443 -33.673358
L 231.573117 -35.633357
L 230.193218 -37.593357
L 228.739473 -39.553356
L 227.241079 -41.513355
L 225.728471 -43.473355
L 224.230974 -45.433354
L 222.774632 -47.393354
L 221.380429 -49.353353
L 220.063131 -51.313352
L 218.830826 -53.273352
L 217.685261 -55.233351
L 216.622933 -57.193351
L 215.636886 -59.15335
L 214.719045 -61.11335
L 213.862875 -63.073349
L 213.066015 -65.033348
L 212.332502 -66.993348
L 211.674154 -68.953347
L 211.11072 -70.913347
L 210.668565 -72.873346
L 210.377852 -74.833345
L 210.268495 -76.793345
L 210.365385 -78.753344
L 210.683656 -80.713344
L 211.224791 -82.673343
L 211.974339 -84.633342
L 212.901763 -86.593342
L 213.962628 -88.553341
L 215.102891 -90.513341
L 216.264753 -92.47334
L 217.393182 -94.43334
L 218.442145 -96.393339
L 219.379591 -98.353338
L 220.190469 -100.313338
L 220.877339 -102.273337
L 221.458582 -104.233337
L 221.964552 -106.193336
L 222.432342 -108.153335
L 222.900004 -110.113335
L 223.401108 -112.073334
L 223.960417 -114.033334
L 224.59118 -115.993333
L 225.29431 -117.953332
L 226.05934 -119.913332
L 226.866851 -121.873331
L 227.691829 -123.833331
L 228.507411 -125.79333
L 229.288444 -127.75333
L 230.014416 -129.713329
L 230.671468 -131.673328
L 231.253339 -133.633328
L 231.761249 -135.593327
L 232.202859 -137.553327
L 232.590527 -139.513326
L 232.939147 -141.473325
L 233.263871 -143.433325
L 233.578023 -145.393324
L 233.891444 -147.353324
L 234.209473 -149.313323
L 234.532624 -151.273322
L 234.856969 -153.233322
L 235.175105 -155.193321
L 235.477524 -157.153321
L 235.754173 -159.11332
L 235.995987 -161.073319
L 236.196194 -163.033319
L 236.351266 -164.993318
L 236.461424 -166.953318
L 236.530692 -168.913317
L 236.566511 -170.873317
L 236.578997 -172.833316
L 236.579923 -174.793315
L 236.581551 -176.753315
L 236.59544 -178.713314
L 236.631344 -180.673314
L 236.696339 -182.633313
L 236.794252 -184.593312
L 236.925463 -186.553312
L 237.087085 -188.513311
L 237.273486 -190.473311
L 237.477072 -192.43331
L 237.689213 -194.393309
L 237.901184 -196.353309
L 238.105011 -198.313308
L 238.29412 -200.273308
L 238.463733 -202.233307
L 238.611008 -204.193307
L 238.734946 -206.153306
L 238.836114 -208.113305
L 238.916271 -210.073305
L 238.977947 -212.033304
L 239.274553 -212.033304
L 239.274553 -212.033304
L 239.336229 -210.073305
L 239.416386 -208.113305
L 239.517554 -206.153306
L 239.641492 -204.193307
L 239.788767 -202.233307
L 239.95838 -200.273308
L 240.147489 -198.313308
L 240.351316 -196.353309
L 240.563287 -194.393309
L 240.775428 -192.43331
L 240.979014 -190.473311
L 241.165415 -188.513311
L 241.327037 -186.553312
L 241.458248 -184.593312
L 241.556161 -182.633313
L 241.621156 -180.673314
L 241.65706 -178.713314
L 241.670949 -176.753315
L 241.672577 -174.793315
L 241.673503 -172.833316
L 241.685989 -170.873317
L 241.721808 -168.913317
L 241.791076 -166.953318
L 241.901234 -164.993318
L 242.056306 -163.033319
L 242.256513 -161.073319
L 242.498327 -159.11332
L 242.774976 -157.153321
L 243.077395 -155.193321
L 243.395531 -153.233322
L 243.719876 -151.273322
L 244.043027 -149.313323
L 244.361056 -147.353324
L 244.674477 -145.393324
L 244.988629 -143.433325
L 245.313353 -141.473325
L 245.661973 -139.513326
L 246.049641 -137.553327
L 246.491251 -135.593327
L 246.999161 -133.633328
L 247.581032 -131.673328
L 248.238084 -129.713329
L 248.964056 -127.75333
L 249.745089 -125.79333
L 250.560671 -123.833331
L 251.385649 -121.873331
L 252.19316 -119.913332
L 252.95819 -117.953332
L 253.66132 -115.993333
L 254.292083 -114.033334
L 254.851392 -112.073334
L 255.352496 -110.113335
L 255.820158 -108.153335
L 256.287948 -106.193336
L 256.793918 -104.233337
L 257.375161 -102.273337
L 258.062031 -100.313338
L 258.872909 -98.353338
L 259.810355 -96.393339
L 260.859318 -94.43334
L 261.987747 -92.47334
L 263.149609 -90.513341
L 264.289872 -88.553341
L 265.350737 -86.593342
L 266.278161 -84.633342
L 267.027709 -82.673343
L 267.568844 -80.713344
L 267.887115 -78.753344
L 267.984005 -76.793345
L 267.874648 -74.833345
L 267.583935 -72.873346
L 267.14178 -70.913347
L 266.578346 -68.953347
L 265.919998 -66.993348
L 265.186485 -65.033348
L 264.389625 -63.073349
L 263.533455 -61.11335
L 262.615614 -59.15335
L 261.629567 -57.193351
L 260.567239 -55.233351
L 259.421674 -53.273352
L 258.189369 -51.313352
L 256.872071 -49.353353
L 255.477868 -47.393354
L 254.021526 -45.433354
L 252.524029 -43.473355
L 251.011421 -41.513355
L 249.513027 -39.553356
L 248.059282 -37.593357
L 246.679383 -35.633357
L 245.399057 -33.673358
L 244.238704 -31.713358
L 243.212127 -29.753359
L 242.325992 -27.79336
L 241.580011 -25.83336
L 240.967778 -23.873361
L 240.478074 -21.913361
L 240.096421 -19.953362
L 239.806668 -17.993362
z
" id="m3c172a26b2" style="stroke:#404040;stroke-width:1.5;"/>
    </defs>
    <g clip-path="url(#pb8ffdb7cc1)">
     <use style="fill:#cfa64e;stroke:#404040;stroke-width:1.5;" x="0" xlink:href="#m3c172a26b2" y="288"/>
    </g>
   </g>
   <g id="PolyCollection_4">
    <defs>
     <path d="M 315.282985 -12.152098
L 313.574515 -12.152098
L 313.230005 -14.533467
L 312.783834 -16.914836
L 312.220733 -19.296204
L 311.528059 -21.677573
L 310.697393 -24.058942
L 309.725978 -26.440311
L 308.617759 -28.821679
L 307.383832 -31.203048
L 306.042171 -33.584417
L 304.616633 -35.965786
L 303.13537 -38.347154
L 301.628874 -40.728523
L 300.127965 -43.109892
L 298.662017 -45.491261
L 297.25767 -47.872629
L 295.938134 -50.253998
L 294.723078 -52.635367
L 293.628939 -55.016736
L 292.669436 -57.398105
L 291.856043 -59.779473
L 291.198213 -62.160842
L 290.703263 -64.542211
L 290.375919 -66.92358
L 290.217648 -69.304948
L 290.22595 -71.686317
L 290.393809 -74.067686
L 290.709489 -76.449055
L 291.156778 -78.830423
L 291.715715 -81.211792
L 292.363746 -83.593161
L 293.077185 -85.97453
L 293.832813 -88.355898
L 294.609405 -90.737267
L 295.389016 -93.118636
L 296.157855 -95.500005
L 296.906659 -97.881374
L 297.630534 -100.262742
L 298.32833 -102.644111
L 299.001657 -105.02548
L 299.653725 -107.406849
L 300.288195 -109.788217
L 300.908216 -112.169586
L 301.515782 -114.550955
L 302.111465 -116.932324
L 302.694511 -119.313692
L 303.263206 -121.695061
L 303.815392 -124.07643
L 304.348961 -126.457799
L 304.862215 -128.839167
L 305.35399 -131.220536
L 305.823549 -133.601905
L 306.270263 -135.983274
L 306.693229 -138.364643
L 307.090928 -140.746011
L 307.461072 -143.12738
L 307.800723 -145.508749
L 308.106719 -147.890118
L 308.376337 -150.271486
L 308.608093 -152.652855
L 308.802496 -155.034224
L 308.9626 -157.415593
L 309.09419 -159.796961
L 309.20553 -162.17833
L 309.306667 -164.559699
L 309.408377 -166.941068
L 309.520911 -169.322436
L 309.652742 -171.703805
L 309.809528 -174.085174
L 309.993458 -176.466543
L 310.203105 -178.847912
L 310.433791 -181.22928
L 310.678413 -183.610649
L 310.928568 -185.992018
L 311.175798 -188.373387
L 311.412739 -190.754755
L 311.634001 -193.136124
L 311.836668 -195.517493
L 312.02036 -197.898862
L 312.18691 -200.28023
L 312.339743 -202.661599
L 312.483095 -205.042968
L 312.621223 -207.424337
L 312.757732 -209.805705
L 312.895105 -212.187074
L 313.034467 -214.568443
L 313.175604 -216.949812
L 313.317156 -219.331181
L 313.456951 -221.712549
L 313.592389 -224.093918
L 313.720823 -226.475287
L 313.839878 -228.856656
L 313.947685 -231.238024
L 314.043016 -233.619393
L 314.125328 -236.000762
L 314.194717 -238.382131
L 314.251827 -240.763499
L 314.297715 -243.144868
L 314.333711 -245.526237
L 314.361271 -247.907606
L 314.496229 -247.907606
L 314.496229 -247.907606
L 314.523789 -245.526237
L 314.559785 -243.144868
L 314.605673 -240.763499
L 314.662783 -238.382131
L 314.732172 -236.000762
L 314.814484 -233.619393
L 314.909815 -231.238024
L 315.017622 -228.856656
L 315.136677 -226.475287
L 315.265111 -224.093918
L 315.400549 -221.712549
L 315.540344 -219.331181
L 315.681896 -216.949812
L 315.823033 -214.568443
L 315.962395 -212.187074
L 316.099768 -209.805705
L 316.236277 -207.424337
L 316.374405 -205.042968
L 316.517757 -202.661599
L 316.67059 -200.28023
L 316.83714 -197.898862
L 317.020832 -195.517493
L 317.223499 -193.136124
L 317.444761 -190.754755
L 317.681702 -188.373387
L 317.928932 -185.992018
L 318.179087 -183.610649
L 318.423709 -181.22928
L 318.654395 -178.847912
L 318.864042 -176.466543
L 319.047972 -174.085174
L 319.204758 -171.703805
L 319.336589 -169.322436
L 319.449123 -166.941068
L 319.550833 -164.559699
L 319.65197 -162.17833
L 319.76331 -159.796961
L 319.8949 -157.415593
L 320.055004 -155.034224
L 320.249407 -152.652855
L 320.481163 -150.271486
L 320.750781 -147.890118
L 321.056777 -145.508749
L 321.396428 -143.12738
L 321.766572 -140.746011
L 322.164271 -138.364643
L 322.587237 -135.983274
L 323.033951 -133.601905
L 323.50351 -131.220536
L 323.995285 -128.839167
L 324.508539 -126.457799
L 325.042108 -124.07643
L 325.594294 -121.695061
L 326.162989 -119.313692
L 326.746035 -116.932324
L 327.341718 -114.550955
L 327.949284 -112.169586
L 328.569305 -109.788217
L 329.203775 -107.406849
L 329.855843 -105.02548
L 330.52917 -102.644111
L 331.226966 -100.262742
L 331.950841 -97.881374
L 332.699645 -95.500005
L 333.468484 -93.118636
L 334.248095 -90.737267
L 335.024687 -88.355898
L 335.780315 -85.97453
L 336.493754 -83.593161
L 337.141785 -81.211792
L 337.700722 -78.830423
L 338.148011 -76.449055
L 338.463691 -74.067686
L 338.63155 -71.686317
L 338.639852 -69.304948
L 338.481581 -66.92358
L 338.154237 -64.542211
L 337.659287 -62.160842
L 337.001457 -59.779473
L 336.188064 -57.398105
L 335.228561 -55.016736
L 334.134422 -52.635367
L 332.919366 -50.253998
L 331.59983 -47.872629
L 330.195483 -45.491261
L 328.729535 -43.109892
L 327.228626 -40.728523
L 325.72213 -38.347154
L 324.240867 -35.965786
L 322.815329 -33.584417
L 321.473668 -31.203048
L 320.239741 -28.821679
L 319.131522 -26.440311
L 318.160107 -24.058942
L 317.329441 -21.677573
L 316.636767 -19.296204
L 316.073666 -16.914836
L 315.627495 -14.533467
L 315.282985 -12.152098
z
" id="me5f591a89c" style="stroke:#404040;stroke-width:1.5;"/>
    </defs>
    <g clip-path="url(#pb8ffdb7cc1)">
     <use style="fill:#6e8857;stroke:#404040;stroke-width:1.5;" x="0" xlink:href="#me5f591a89c" y="288"/>
    </g>
   </g>
   <g id="matplotlib.axis_1">
    <g id="xtick_1">
     <g id="line2d_1">
      <defs>
       <path d="M 0 0
L 0 3.5
" id="mf5dca4b5ab" style="stroke:#000000;stroke-width:0.8;"/>
      </defs>
      <g>
       <use style="stroke:#000000;stroke-width:0.8;" x="88.52125" xlink:href="#mf5dca4b5ab" y="246.04"/>
      </g>
     </g>
     <g id="text_1">
      <!-- 1D -->
      <defs>
       <path d="M 12.40625 8.296875
L 28.515625 8.296875
L 28.515625 63.921875
L 10.984375 60.40625
L 10.984375 69.390625
L 28.421875 72.90625
L 38.28125 72.90625
L 38.28125 8.296875
L 54.390625 8.296875
L 54.390625 0
L 12.40625 0
z
" id="DejaVuSans-31"/>
       <path d="M 19.671875 64.796875
L 19.671875 8.109375
L 31.59375 8.109375
Q 46.6875 8.109375 53.6875 14.9375
Q 60.6875 21.78125 60.6875 36.53125
Q 60.6875 51.171875 53.6875 57.984375
Q 46.6875 64.796875 31.59375 64.796875
z
M 9.8125 72.90625
L 30.078125 72.90625
Q 51.265625 72.90625 61.171875 64.09375
Q 71.09375 55.28125 71.09375 36.53125
Q 71.09375 17.671875 61.125 8.828125
Q 51.171875 0 30.078125 0
L 9.8125 0
z
" id="DejaVuSans-44"/>
      </defs>
      <g transform="translate(81.49 260.638438)scale(0.1 -0.1)">
       <use xlink:href="#DejaVuSans-31"/>
       <use x="63.623047" xlink:href="#DejaVuSans-44"/>
      </g>
     </g>
    </g>
    <g id="xtick_2">
     <g id="line2d_2">
      <g>
       <use style="stroke:#000000;stroke-width:0.8;" x="163.82375" xlink:href="#mf5dca4b5ab" y="246.04"/>
      </g>
     </g>
     <g id="text_2">
      <!-- I1D -->
      <defs>
       <path d="M 9.8125 72.90625
L 19.671875 72.90625
L 19.671875 0
L 9.8125 0
z
" id="DejaVuSans-49"/>
      </defs>
      <g transform="translate(155.3175 260.638438)scale(0.1 -0.1)">
       <use xlink:href="#DejaVuSans-49"/>
       <use x="29.492188" xlink:href="#DejaVuSans-31"/>
       <use x="93.115234" xlink:href="#DejaVuSans-44"/>
      </g>
     </g>
    </g>
    <g id="xtick_3">
     <g id="line2d_3">
      <g>
       <use style="stroke:#000000;stroke-width:0.8;" x="239.12625" xlink:href="#mf5dca4b5ab" y="246.04"/>
      </g>
     </g>
     <g id="text_3">
      <!-- 2D -->
      <defs>
       <path d="M 19.1875 8.296875
L 53.609375 8.296875
L 53.609375 0
L 7.328125 0
L 7.328125 8.296875
Q 12.9375 14.109375 22.625 23.890625
Q 32.328125 33.6875 34.8125 36.53125
Q 39.546875 41.84375 41.421875 45.53125
Q 43.3125 49.21875 43.3125 52.78125
Q 43.3125 58.59375 39.234375 62.25
Q 35.15625 65.921875 28.609375 65.921875
Q 23.96875 65.921875 18.8125 64.3125
Q 13.671875 62.703125 7.8125 59.421875
L 7.8125 69.390625
Q 13.765625 71.78125 18.9375 73
Q 24.125 74.21875 28.421875 74.21875
Q 39.75 74.21875 46.484375 68.546875
Q 53.21875 62.890625 53.21875 53.421875
Q 53.21875 48.921875 51.53125 44.890625
Q 49.859375 40.875 45.40625 35.40625
Q 44.1875 33.984375 37.640625 27.21875
Q 31.109375 20.453125 19.1875 8.296875
z
" id="DejaVuSans-32"/>
      </defs>
      <g transform="translate(232.095 260.638438)scale(0.1 -0.1)">
       <use xlink:href="#DejaVuSans-32"/>
       <use x="63.623047" xlink:href="#DejaVuSans-44"/>
      </g>
     </g>
    </g>
    <g id="xtick_4">
     <g id="line2d_4">
      <g>
       <use style="stroke:#000000;stroke-width:0.8;" x="314.42875" xlink:href="#mf5dca4b5ab" y="246.04"/>
      </g>
     </g>
     <g id="text_4">
      <!-- R -->
      <defs>
       <path d="M 44.390625 34.1875
Q 47.5625 33.109375 50.5625 29.59375
Q 53.5625 26.078125 56.59375 19.921875
L 66.609375 0
L 56 0
L 46.6875 18.703125
Q 43.0625 26.03125 39.671875 28.421875
Q 36.28125 30.8125 30.421875 30.8125
L 19.671875 30.8125
L 19.671875 0
L 9.8125 0
L 9.8125 72.90625
L 32.078125 72.90625
Q 44.578125 72.90625 50.734375 67.671875
Q 56.890625 62.453125 56.890625 51.90625
Q 56.890625 45.015625 53.6875 40.46875
Q 50.484375 35.9375 44.390625 34.1875
z
M 19.671875 64.796875
L 19.671875 38.921875
L 32.078125 38.921875
Q 39.203125 38.921875 42.84375 42.21875
Q 46.484375 45.515625 46.484375 51.90625
Q 46.484375 58.296875 42.84375 61.546875
Q 39.203125 64.796875 32.078125 64.796875
z
" id="DejaVuSans-52"/>
      </defs>
      <g transform="translate(310.954531 260.638438)scale(0.1 -0.1)">
       <use xlink:href="#DejaVuSans-52"/>
      </g>
     </g>
    </g>
    <g id="text_5">
     <!-- Task -->
     <defs>
      <path d="M -0.296875 72.90625
L 61.375 72.90625
L 61.375 64.59375
L 35.5 64.59375
L 35.5 0
L 25.59375 0
L 25.59375 64.59375
L -0.296875 64.59375
z
" id="DejaVuSans-54"/>
      <path d="M 34.28125 27.484375
Q 23.390625 27.484375 19.1875 25
Q 14.984375 22.515625 14.984375 16.5
Q 14.984375 11.71875 18.140625 8.90625
Q 21.296875 6.109375 26.703125 6.109375
Q 34.1875 6.109375 38.703125 11.40625
Q 43.21875 16.703125 43.21875 25.484375
L 43.21875 27.484375
z
M 52.203125 31.203125
L 52.203125 0
L 43.21875 0
L 43.21875 8.296875
Q 40.140625 3.328125 35.546875 0.953125
Q 30.953125 -1.421875 24.3125 -1.421875
Q 15.921875 -1.421875 10.953125 3.296875
Q 6 8.015625 6 15.921875
Q 6 25.140625 12.171875 29.828125
Q 18.359375 34.515625 30.609375 34.515625
L 43.21875 34.515625
L 43.21875 35.40625
Q 43.21875 41.609375 39.140625 45
Q 35.0625 48.390625 27.6875 48.390625
Q 23 48.390625 18.546875 47.265625
Q 14.109375 46.140625 10.015625 43.890625
L 10.015625 52.203125
Q 14.9375 54.109375 19.578125 55.046875
Q 24.21875 56 28.609375 56
Q 40.484375 56 46.34375 49.84375
Q 52.203125 43.703125 52.203125 31.203125
z
" id="DejaVuSans-61"/>
      <path d="M 44.28125 53.078125
L 44.28125 44.578125
Q 40.484375 46.53125 36.375 47.5
Q 32.28125 48.484375 27.875 48.484375
Q 21.1875 48.484375 17.84375 46.4375
Q 14.5 44.390625 14.5 40.28125
Q 14.5 37.15625 16.890625 35.375
Q 19.28125 33.59375 26.515625 31.984375
L 29.59375 31.296875
Q 39.15625 29.25 43.1875 25.515625
Q 47.21875 21.78125 47.21875 15.09375
Q 47.21875 7.46875 41.1875 3.015625
Q 35.15625 -1.421875 24.609375 -1.421875
Q 20.21875 -1.421875 15.453125 -0.5625
Q 10.6875 0.296875 5.421875 2
L 5.421875 11.28125
Q 10.40625 8.6875 15.234375 7.390625
Q 20.0625 6.109375 24.8125 6.109375
Q 31.15625 6.109375 34.5625 8.28125
Q 37.984375 10.453125 37.984375 14.40625
Q 37.984375 18.0625 35.515625 20.015625
Q 33.0625 21.96875 24.703125 23.78125
L 21.578125 24.515625
Q 13.234375 26.265625 9.515625 29.90625
Q 5.8125 33.546875 5.8125 39.890625
Q 5.8125 47.609375 11.28125 51.796875
Q 16.75 56 26.8125 56
Q 31.78125 56 36.171875 55.265625
Q 40.578125 54.546875 44.28125 53.078125
z
" id="DejaVuSans-73"/>
      <path d="M 9.078125 75.984375
L 18.109375 75.984375
L 18.109375 31.109375
L 44.921875 54.6875
L 56.390625 54.6875
L 27.390625 29.109375
L 57.625 0
L 45.90625 0
L 18.109375 26.703125
L 18.109375 0
L 9.078125 0
z
" id="DejaVuSans-6b"/>
     </defs>
     <g transform="translate(189.869531 274.316562)scale(0.1 -0.1)">
      <use xlink:href="#DejaVuSans-54"/>
      <use x="60.833984" xlink:href="#DejaVuSans-61"/>
      <use x="122.113281" xlink:href="#DejaVuSans-73"/>
      <use x="174.212891" xlink:href="#DejaVuSans-6b"/>
     </g>
    </g>
   </g>
   <g id="matplotlib.axis_2">
    <g id="ytick_1">
     <g id="line2d_5">
      <path clip-path="url(#pb8ffdb7cc1)" d="M 50.87 246.04
L 352.08 246.04
" style="fill:none;stroke:#b0b0b0;stroke-linecap:square;stroke-width:0.8;"/>
     </g>
     <g id="line2d_6">
      <defs>
       <path d="M 0 0
L -3.5 0
" id="m88d2200ba4" style="stroke:#000000;stroke-width:0.8;"/>
      </defs>
      <g>
       <use style="stroke:#000000;stroke-width:0.8;" x="50.87" xlink:href="#m88d2200ba4" y="246.04"/>
      </g>
     </g>
     <g id="text_6">
      <!-- 0 -->
      <defs>
       <path d="M 31.78125 66.40625
Q 24.171875 66.40625 20.328125 58.90625
Q 16.5 51.421875 16.5 36.375
Q 16.5 21.390625 20.328125 13.890625
Q 24.171875 6.390625 31.78125 6.390625
Q 39.453125 6.390625 43.28125 13.890625
Q 47.125 21.390625 47.125 36.375
Q 47.125 51.421875 43.28125 58.90625
Q 39.453125 66.40625 31.78125 66.40625
z
M 31.78125 74.21875
Q 44.046875 74.21875 50.515625 64.515625
Q 56.984375 54.828125 56.984375 36.375
Q 56.984375 17.96875 50.515625 8.265625
Q 44.046875 -1.421875 31.78125 -1.421875
Q 19.53125 -1.421875 13.0625 8.265625
Q 6.59375 17.96875 6.59375 36.375
Q 6.59375 54.828125 13.0625 64.515625
Q 19.53125 74.21875 31.78125 74.21875
z
" id="DejaVuSans-30"/>
      </defs>
      <g transform="translate(37.5075 249.839219)scale(0.1 -0.1)">
       <use xlink:href="#DejaVuSans-30"/>
      </g>
     </g>
    </g>
    <g id="ytick_2">
     <g id="line2d_7">
      <path clip-path="url(#pb8ffdb7cc1)" d="M 50.87 205.454815
L 352.08 205.454815
" style="fill:none;stroke:#b0b0b0;stroke-linecap:square;stroke-width:0.8;"/>
     </g>
     <g id="line2d_8">
      <g>
       <use style="stroke:#000000;stroke-width:0.8;" x="50.87" xlink:href="#m88d2200ba4" y="205.454815"/>
      </g>
     </g>
     <g id="text_7">
      <!-- 50 -->
      <defs>
       <path d="M 10.796875 72.90625
L 49.515625 72.90625
L 49.515625 64.59375
L 19.828125 64.59375
L 19.828125 46.734375
Q 21.96875 47.46875 24.109375 47.828125
Q 26.265625 48.1875 28.421875 48.1875
Q 40.625 48.1875 47.75 41.5
Q 54.890625 34.8125 54.890625 23.390625
Q 54.890625 11.625 47.5625 5.09375
Q 40.234375 -1.421875 26.90625 -1.421875
Q 22.3125 -1.421875 17.546875 -0.640625
Q 12.796875 0.140625 7.71875 1.703125
L 7.71875 11.625
Q 12.109375 9.234375 16.796875 8.0625
Q 21.484375 6.890625 26.703125 6.890625
Q 35.15625 6.890625 40.078125 11.328125
Q 45.015625 15.765625 45.015625 23.390625
Q 45.015625 31 40.078125 35.4375
Q 35.15625 39.890625 26.703125 39.890625
Q 22.75 39.890625 18.8125 39.015625
Q 14.890625 38.140625 10.796875 36.28125
z
" id="DejaVuSans-35"/>
      </defs>
      <g transform="translate(31.145 209.254034)scale(0.1 -0.1)">
       <use xlink:href="#DejaVuSans-35"/>
       <use x="63.623047" xlink:href="#DejaVuSans-30"/>
      </g>
     </g>
    </g>
    <g id="ytick_3">
     <g id="line2d_9">
      <path clip-path="url(#pb8ffdb7cc1)" d="M 50.87 164.86963
L 352.08 164.86963
" style="fill:none;stroke:#b0b0b0;stroke-linecap:square;stroke-width:0.8;"/>
     </g>
     <g id="line2d_10">
      <g>
       <use style="stroke:#000000;stroke-width:0.8;" x="50.87" xlink:href="#m88d2200ba4" y="164.86963"/>
      </g>
     </g>
     <g id="text_8">
      <!-- 100 -->
      <g transform="translate(24.7825 168.668848)scale(0.1 -0.1)">
       <use xlink:href="#DejaVuSans-31"/>
       <use x="63.623047" xlink:href="#DejaVuSans-30"/>
       <use x="127.246094" xlink:href="#DejaVuSans-30"/>
      </g>
     </g>
    </g>
    <g id="ytick_4">
     <g id="line2d_11">
      <path clip-path="url(#pb8ffdb7cc1)" d="M 50.87 124.284444
L 352.08 124.284444
" style="fill:none;stroke:#b0b0b0;stroke-linecap:square;stroke-width:0.8;"/>
     </g>
     <g id="line2d_12">
      <g>
       <use style="stroke:#000000;stroke-width:0.8;" x="50.87" xlink:href="#m88d2200ba4" y="124.284444"/>
      </g>
     </g>
     <g id="text_9">
      <!-- 150 -->
      <g transform="translate(24.7825 128.083663)scale(0.1 -0.1)">
       <use xlink:href="#DejaVuSans-31"/>
       <use x="63.623047" xlink:href="#DejaVuSans-35"/>
       <use x="127.246094" xlink:href="#DejaVuSans-30"/>
      </g>
     </g>
    </g>
    <g id="ytick_5">
     <g id="line2d_13">
      <path clip-path="url(#pb8ffdb7cc1)" d="M 50.87 83.699259
L 352.08 83.699259
" style="fill:none;stroke:#b0b0b0;stroke-linecap:square;stroke-width:0.8;"/>
     </g>
     <g id="line2d_14">
      <g>
       <use style="stroke:#000000;stroke-width:0.8;" x="50.87" xlink:href="#m88d2200ba4" y="83.699259"/>
      </g>
     </g>
     <g id="text_10">
      <!-- 200 -->
      <g transform="translate(24.7825 87.498478)scale(0.1 -0.1)">
       <use xlink:href="#DejaVuSans-32"/>
       <use x="63.623047" xlink:href="#DejaVuSans-30"/>
       <use x="127.246094" xlink:href="#DejaVuSans-30"/>
      </g>
     </g>
    </g>
    <g id="ytick_6">
     <g id="line2d_15">
      <path clip-path="url(#pb8ffdb7cc1)" d="M 50.87 43.114074
L 352.08 43.114074
" style="fill:none;stroke:#b0b0b0;stroke-linecap:square;stroke-width:0.8;"/>
     </g>
     <g id="line2d_16">
      <g>
       <use style="stroke:#000000;stroke-width:0.8;" x="50.87" xlink:href="#m88d2200ba4" y="43.114074"/>
      </g>
     </g>
     <g id="text_11">
      <!-- 250 -->
      <g transform="translate(24.7825 46.913293)scale(0.1 -0.1)">
       <use xlink:href="#DejaVuSans-32"/>
       <use x="63.623047" xlink:href="#DejaVuSans-35"/>
       <use x="127.246094" xlink:href="#DejaVuSans-30"/>
      </g>
     </g>
    </g>
    <g id="text_12">
     <!-- Number of trials on task -->
     <defs>
      <path d="M 9.8125 72.90625
L 23.09375 72.90625
L 55.421875 11.921875
L 55.421875 72.90625
L 64.984375 72.90625
L 64.984375 0
L 51.703125 0
L 19.390625 60.984375
L 19.390625 0
L 9.8125 0
z
" id="DejaVuSans-4e"/>
      <path d="M 8.5 21.578125
L 8.5 54.6875
L 17.484375 54.6875
L 17.484375 21.921875
Q 17.484375 14.15625 20.5 10.265625
Q 23.53125 6.390625 29.59375 6.390625
Q 36.859375 6.390625 41.078125 11.03125
Q 45.3125 15.671875 45.3125 23.6875
L 45.3125 54.6875
L 54.296875 54.6875
L 54.296875 0
L 45.3125 0
L 45.3125 8.40625
Q 42.046875 3.421875 37.71875 1
Q 33.40625 -1.421875 27.6875 -1.421875
Q 18.265625 -1.421875 13.375 4.4375
Q 8.5 10.296875 8.5 21.578125
z
M 31.109375 56
z
" id="DejaVuSans-75"/>
      <path d="M 52 44.1875
Q 55.375 50.25 60.0625 53.125
Q 64.75 56 71.09375 56
Q 79.640625 56 84.28125 50.015625
Q 88.921875 44.046875 88.921875 33.015625
L 88.921875 0
L 79.890625 0
L 79.890625 32.71875
Q 79.890625 40.578125 77.09375 44.375
Q 74.3125 48.1875 68.609375 48.1875
Q 61.625 48.1875 57.5625 43.546875
Q 53.515625 38.921875 53.515625 30.90625
L 53.515625 0
L 44.484375 0
L 44.484375 32.71875
Q 44.484375 40.625 41.703125 44.40625
Q 38.921875 48.1875 33.109375 48.1875
Q 26.21875 48.1875 22.15625 43.53125
Q 18.109375 38.875 18.109375 30.90625
L 18.109375 0
L 9.078125 0
L 9.078125 54.6875
L 18.109375 54.6875
L 18.109375 46.1875
Q 21.1875 51.21875 25.484375 53.609375
Q 29.78125 56 35.6875 56
Q 41.65625 56 45.828125 52.96875
Q 50 49.953125 52 44.1875
z
" id="DejaVuSans-6d"/>
      <path d="M 48.6875 27.296875
Q 48.6875 37.203125 44.609375 42.84375
Q 40.53125 48.484375 33.40625 48.484375
Q 26.265625 48.484375 22.1875 42.84375
Q 18.109375 37.203125 18.109375 27.296875
Q 18.109375 17.390625 22.1875 11.75
Q 26.265625 6.109375 33.40625 6.109375
Q 40.53125 6.109375 44.609375 11.75
Q 48.6875 17.390625 48.6875 27.296875
z
M 18.109375 46.390625
Q 20.953125 51.265625 25.265625 53.625
Q 29.59375 56 35.59375 56
Q 45.5625 56 51.78125 48.09375
Q 58.015625 40.1875 58.015625 27.296875
Q 58.015625 14.40625 51.78125 6.484375
Q 45.5625 -1.421875 35.59375 -1.421875
Q 29.59375 -1.421875 25.265625 0.953125
Q 20.953125 3.328125 18.109375 8.203125
L 18.109375 0
L 9.078125 0
L 9.078125 75.984375
L 18.109375 75.984375
z
" id="DejaVuSans-62"/>
      <path d="M 56.203125 29.59375
L 56.203125 25.203125
L 14.890625 25.203125
Q 15.484375 15.921875 20.484375 11.0625
Q 25.484375 6.203125 34.421875 6.203125
Q 39.59375 6.203125 44.453125 7.46875
Q 49.3125 8.734375 54.109375 11.28125
L 54.109375 2.78125
Q 49.265625 0.734375 44.1875 -0.34375
Q 39.109375 -1.421875 33.890625 -1.421875
Q 20.796875 -1.421875 13.15625 6.1875
Q 5.515625 13.8125 5.515625 26.8125
Q 5.515625 40.234375 12.765625 48.109375
Q 20.015625 56 32.328125 56
Q 43.359375 56 49.78125 48.890625
Q 56.203125 41.796875 56.203125 29.59375
z
M 47.21875 32.234375
Q 47.125 39.59375 43.09375 43.984375
Q 39.0625 48.390625 32.421875 48.390625
Q 24.90625 48.390625 20.390625 44.140625
Q 15.875 39.890625 15.1875 32.171875
z
" id="DejaVuSans-65"/>
      <path d="M 41.109375 46.296875
Q 39.59375 47.171875 37.8125 47.578125
Q 36.03125 48 33.890625 48
Q 26.265625 48 22.1875 43.046875
Q 18.109375 38.09375 18.109375 28.8125
L 18.109375 0
L 9.078125 0
L 9.078125 54.6875
L 18.109375 54.6875
L 18.109375 46.1875
Q 20.953125 51.171875 25.484375 53.578125
Q 30.03125 56 36.53125 56
Q 37.453125 56 38.578125 55.875
Q 39.703125 55.765625 41.0625 55.515625
z
" id="DejaVuSans-72"/>
      <path id="DejaVuSans-20"/>
      <path d="M 30.609375 48.390625
Q 23.390625 48.390625 19.1875 42.75
Q 14.984375 37.109375 14.984375 27.296875
Q 14.984375 17.484375 19.15625 11.84375
Q 23.34375 6.203125 30.609375 6.203125
Q 37.796875 6.203125 41.984375 11.859375
Q 46.1875 17.53125 46.1875 27.296875
Q 46.1875 37.015625 41.984375 42.703125
Q 37.796875 48.390625 30.609375 48.390625
z
M 30.609375 56
Q 42.328125 56 49.015625 48.375
Q 55.71875 40.765625 55.71875 27.296875
Q 55.71875 13.875 49.015625 6.21875
Q 42.328125 -1.421875 30.609375 -1.421875
Q 18.84375 -1.421875 12.171875 6.21875
Q 5.515625 13.875 5.515625 27.296875
Q 5.515625 40.765625 12.171875 48.375
Q 18.84375 56 30.609375 56
z
" id="DejaVuSans-6f"/>
      <path d="M 37.109375 75.984375
L 37.109375 68.5
L 28.515625 68.5
Q 23.6875 68.5 21.796875 66.546875
Q 19.921875 64.59375 19.921875 59.515625
L 19.921875 54.6875
L 34.71875 54.6875
L 34.71875 47.703125
L 19.921875 47.703125
L 19.921875 0
L 10.890625 0
L 10.890625 47.703125
L 2.296875 47.703125
L 2.296875 54.6875
L 10.890625 54.6875
L 10.890625 58.5
Q 10.890625 67.625 15.140625 71.796875
Q 19.390625 75.984375 28.609375 75.984375
z
" id="DejaVuSans-66"/>
      <path d="M 18.3125 70.21875
L 18.3125 54.6875
L 36.8125 54.6875
L 36.8125 47.703125
L 18.3125 47.703125
L 18.3125 18.015625
Q 18.3125 11.328125 20.140625 9.421875
Q 21.96875 7.515625 27.59375 7.515625
L 36.8125 7.515625
L 36.8125 0
L 27.59375 0
Q 17.1875 0 13.234375 3.875
Q 9.28125 7.765625 9.28125 18.015625
L 9.28125 47.703125
L 2.6875 47.703125
L 2.6875 54.6875
L 9.28125 54.6875
L 9.28125 70.21875
z
" id="DejaVuSans-74"/>
      <path d="M 9.421875 54.6875
L 18.40625 54.6875
L 18.40625 0
L 9.421875 0
z
M 9.421875 75.984375
L 18.40625 75.984375
L 18.40625 64.59375
L 9.421875 64.59375
z
" id="DejaVuSans-69"/>
      <path d="M 9.421875 75.984375
L 18.40625 75.984375
L 18.40625 0
L 9.421875 0
z
" id="DejaVuSans-6c"/>
      <path d="M 54.890625 33.015625
L 54.890625 0
L 45.90625 0
L 45.90625 32.71875
Q 45.90625 40.484375 42.875 44.328125
Q 39.84375 48.1875 33.796875 48.1875
Q 26.515625 48.1875 22.3125 43.546875
Q 18.109375 38.921875 18.109375 30.90625
L 18.109375 0
L 9.078125 0
L 9.078125 54.6875
L 18.109375 54.6875
L 18.109375 46.1875
Q 21.34375 51.125 25.703125 53.5625
Q 30.078125 56 35.796875 56
Q 45.21875 56 50.046875 50.171875
Q 54.890625 44.34375 54.890625 33.015625
z
" id="DejaVuSans-6e"/>
     </defs>
     <g transform="translate(18.702813 196.936562)rotate(-90)scale(0.1 -0.1)">
      <use xlink:href="#DejaVuSans-4e"/>
      <use x="74.804688" xlink:href="#DejaVuSans-75"/>
      <use x="138.183594" xlink:href="#DejaVuSans-6d"/>
      <use x="235.595703" xlink:href="#DejaVuSans-62"/>
      <use x="299.072266" xlink:href="#DejaVuSans-65"/>
      <use x="360.595703" xlink:href="#DejaVuSans-72"/>
      <use x="401.708984" xlink:href="#DejaVuSans-20"/>
      <use x="433.496094" xlink:href="#DejaVuSans-6f"/>
      <use x="494.677734" xlink:href="#DejaVuSans-66"/>
      <use x="529.882812" xlink:href="#DejaVuSans-20"/>
      <use x="561.669922" xlink:href="#DejaVuSans-74"/>
      <use x="600.878906" xlink:href="#DejaVuSans-72"/>
      <use x="641.992188" xlink:href="#DejaVuSans-69"/>
      <use x="669.775391" xlink:href="#DejaVuSans-61"/>
      <use x="731.054688" xlink:href="#DejaVuSans-6c"/>
      <use x="758.837891" xlink:href="#DejaVuSans-73"/>
      <use x="810.9375" xlink:href="#DejaVuSans-20"/>
      <use x="842.724609" xlink:href="#DejaVuSans-6f"/>
      <use x="903.90625" xlink:href="#DejaVuSans-6e"/>
      <use x="967.285156" xlink:href="#DejaVuSans-20"/>
      <use x="999.072266" xlink:href="#DejaVuSans-74"/>
      <use x="1038.28125" xlink:href="#DejaVuSans-61"/>
      <use x="1099.560547" xlink:href="#DejaVuSans-73"/>
      <use x="1151.660156" xlink:href="#DejaVuSans-6b"/>
     </g>
    </g>
   </g>
   <g id="line2d_17">
    <path clip-path="url(#pb8ffdb7cc1)" d="M 88.52125 246.04
L 88.52125 59.348148
" style="fill:none;stroke:#404040;stroke-linecap:square;stroke-width:1.5;"/>
   </g>
   <g id="line2d_18">
    <path clip-path="url(#pb8ffdb7cc1)" d="M 88.52125 225.544481
L 88.52125 158.781852
" style="fill:none;stroke:#404040;stroke-linecap:square;stroke-width:4.5;"/>
   </g>
   <g id="line2d_19">
    <path clip-path="url(#pb8ffdb7cc1)" d="M 163.82375 246.04
L 163.82375 140.518519
" style="fill:none;stroke:#404040;stroke-linecap:square;stroke-width:1.5;"/>
   </g>
   <g id="line2d_20">
    <path clip-path="url(#pb8ffdb7cc1)" d="M 163.82375 222.297667
L 163.82375 185.771
" style="fill:none;stroke:#404040;stroke-linecap:square;stroke-width:4.5;"/>
   </g>
   <g id="line2d_21">
    <path clip-path="url(#pb8ffdb7cc1)" d="M 239.12625 246.04
L 239.12625 123.472741
" style="fill:none;stroke:#404040;stroke-linecap:square;stroke-width:1.5;"/>
   </g>
   <g id="line2d_22">
    <path clip-path="url(#pb8ffdb7cc1)" d="M 239.12625 222.500593
L 239.12625 178.668593
" style="fill:none;stroke:#404040;stroke-linecap:square;stroke-width:4.5;"/>
   </g>
   <g id="line2d_23">
    <path clip-path="url(#pb8ffdb7cc1)" d="M 314.42875 246.04
L 314.42875 101.556741
" style="fill:none;stroke:#404040;stroke-linecap:square;stroke-width:1.5;"/>
   </g>
   <g id="line2d_24">
    <path clip-path="url(#pb8ffdb7cc1)" d="M 314.42875 224.124
L 314.42875 173.595444
" style="fill:none;stroke:#404040;stroke-linecap:square;stroke-width:4.5;"/>
   </g>
   <g id="patch_3">
    <path d="M 50.87 246.04
L 50.87 26.88
" style="fill:none;stroke:#000000;stroke-linecap:square;stroke-linejoin:miter;stroke-width:0.8;"/>
   </g>
   <g id="patch_4">
    <path d="M 50.87 246.04
L 352.08 246.04
" style="fill:none;stroke:#000000;stroke-linecap:square;stroke-linejoin:miter;stroke-width:0.8;"/>
   </g>
   <g id="PathCollection_1">
    <defs>
     <path d="M 0 1.5
C 0.397805 1.5 0.77937 1.341951 1.06066 1.06066
C 1.341951 0.77937 1.5 0.397805 1.5 0
C 1.5 -0.397805 1.341951 -0.77937 1.06066 -1.06066
C 0.77937 -1.341951 0.397805 -1.5 0 -1.5
C -0.397805 -1.5 -0.77937 -1.341951 -1.06066 -1.06066
C -1.341951 -0.77937 -1.5 -0.397805 -1.5 0
C -1.5 0.397805 -1.341951 0.77937 -1.06066 1.06066
C -0.77937 1.341951 -0.397805 1.5 0 1.5
z
" id="mbeff64346b" style="stroke:#404040;"/>
    </defs>
    <g clip-path="url(#pb8ffdb7cc1)">
     <use style="fill:#ffffff;stroke:#404040;" x="88.52125" xlink:href="#mbeff64346b" y="203.425556"/>
    </g>
   </g>
   <g id="PathCollection_2">
    <g clip-path="url(#pb8ffdb7cc1)">
     <use style="fill:#ffffff;stroke:#404040;" x="163.82375" xlink:href="#mbeff64346b" y="206.67237"/>
    </g>
   </g>
   <g id="PathCollection_3">
    <g clip-path="url(#pb8ffdb7cc1)">
     <use style="fill:#ffffff;stroke:#404040;" x="239.12625" xlink:href="#mbeff64346b" y="206.266519"/>
    </g>
   </g>
   <g id="PathCollection_4">
    <g clip-path="url(#pb8ffdb7cc1)">
     <use style="fill:#ffffff;stroke:#404040;" x="314.42875" xlink:href="#mbeff64346b" y="205.048963"/>
    </g>
   </g>
   <g id="text_13">
    <!-- Group F -->
    <defs>
     <path d="M 59.515625 10.40625
L 59.515625 29.984375
L 43.40625 29.984375
L 43.40625 38.09375
L 69.28125 38.09375
L 69.28125 6.78125
Q 63.578125 2.734375 56.6875 0.65625
Q 49.8125 -1.421875 42 -1.421875
Q 24.90625 -1.421875 15.25 8.5625
Q 5.609375 18.5625 5.609375 36.375
Q 5.609375 54.25 15.25 64.234375
Q 24.90625 74.21875 42 74.21875
Q 49.125 74.21875 55.546875 72.453125
Q 61.96875 70.703125 67.390625 67.28125
L 67.390625 56.78125
Q 61.921875 61.421875 55.765625 63.765625
Q 49.609375 66.109375 42.828125 66.109375
Q 29.4375 66.109375 22.71875 58.640625
Q 16.015625 51.171875 16.015625 36.375
Q 16.015625 21.625 22.71875 14.15625
Q 29.4375 6.6875 42.828125 6.6875
Q 48.046875 6.6875 52.140625 7.59375
Q 56.25 8.5 59.515625 10.40625
z
" id="DejaVuSans-47"/>
     <path d="M 18.109375 8.203125
L 18.109375 -20.796875
L 9.078125 -20.796875
L 9.078125 54.6875
L 18.109375 54.6875
L 18.109375 46.390625
Q 20.953125 51.265625 25.265625 53.625
Q 29.59375 56 35.59375 56
Q 45.5625 56 51.78125 48.09375
Q 58.015625 40.1875 58.015625 27.296875
Q 58.015625 14.40625 51.78125 6.484375
Q 45.5625 -1.421875 35.59375 -1.421875
Q 29.59375 -1.421875 25.265625 0.953125
Q 20.953125 3.328125 18.109375 8.203125
z
M 48.6875 27.296875
Q 48.6875 37.203125 44.609375 42.84375
Q 40.53125 48.484375 33.40625 48.484375
Q 26.265625 48.484375 22.1875 42.84375
Q 18.109375 37.203125 18.109375 27.296875
Q 18.109375 17.390625 22.1875 11.75
Q 26.265625 6.109375 33.40625 6.109375
Q 40.53125 6.109375 44.609375 11.75
Q 48.6875 17.390625 48.6875 27.296875
z
" id="DejaVuSans-70"/>
     <path d="M 9.8125 72.90625
L 51.703125 72.90625
L 51.703125 64.59375
L 19.671875 64.59375
L 19.671875 43.109375
L 48.578125 43.109375
L 48.578125 34.8125
L 19.671875 34.8125
L 19.671875 0
L 9.8125 0
z
" id="DejaVuSans-46"/>
    </defs>
    <g transform="translate(177.720625 20.88)scale(0.12 -0.12)">
     <use xlink:href="#DejaVuSans-47"/>
     <use x="77.490234" xlink:href="#DejaVuSans-72"/>
     <use x="118.572266" xlink:href="#DejaVuSans-6f"/>
     <use x="179.753906" xlink:href="#DejaVuSans-75"/>
     <use x="243.132812" xlink:href="#DejaVuSans-70"/>
     <use x="306.609375" xlink:href="#DejaVuSans-20"/>
     <use x="338.396484" xlink:href="#DejaVuSans-46"/>
    </g>
   </g>
  </g>
  <g id="axes_2">
   <g id="patch_5">
    <path d="M 405.47 246.04
L 706.68 246.04
L 706.68 26.88
L 405.47 26.88
z
" style="fill:#ffffff;"/>
   </g>
   <g id="PolyCollection_5">
    <defs>
     <path d="M 443.895311 -18.65359
L 442.347189 -18.65359
L 441.912637 -20.920013
L 441.293044 -23.186437
L 440.440853 -25.45286
L 439.310333 -27.719284
L 437.86414 -29.985707
L 436.080934 -32.252131
L 433.962947 -34.518554
L 431.542101 -36.784978
L 428.883178 -39.051402
L 426.082818 -41.317825
L 423.263696 -43.584249
L 420.564081 -45.850672
L 418.12393 -48.117096
L 416.06948 -50.383519
L 414.498828 -52.649943
L 413.470967 -54.916366
L 413.00025 -57.18279
L 413.057239 -59.449214
L 413.575712 -61.715637
L 414.464358 -63.982061
L 415.620895 -66.248484
L 416.945954 -68.514908
L 418.354375 -70.781331
L 419.782274 -73.047755
L 421.189267 -75.314178
L 422.556274 -77.580602
L 423.880128 -79.847026
L 425.166667 -82.113449
L 426.424025 -84.379873
L 427.657455 -86.646296
L 428.866482 -88.91272
L 430.044473 -91.179143
L 431.180171 -93.445567
L 432.260354 -95.71199
L 433.272695 -97.978414
L 434.208065 -100.244838
L 435.061824 -102.511261
L 435.834033 -104.777685
L 436.528779 -107.044108
L 437.153005 -109.310532
L 437.715212 -111.576955
L 438.224315 -113.843379
L 438.688775 -116.109802
L 439.116021 -118.376226
L 439.512064 -120.64265
L 439.881252 -122.909073
L 440.226112 -125.175497
L 440.547312 -127.44192
L 440.84379 -129.708344
L 441.113095 -131.974767
L 441.351939 -134.241191
L 441.556913 -136.507614
L 441.725263 -138.774038
L 441.85559 -141.040462
L 441.948367 -143.306885
L 442.006179 -145.573309
L 442.03366 -147.839732
L 442.03715 -150.106156
L 442.024116 -152.372579
L 442.002437 -154.639003
L 441.979642 -156.905426
L 441.962187 -159.17185
L 441.954849 -161.438274
L 441.960303 -163.704697
L 441.978929 -165.971121
L 442.008885 -168.237544
L 442.046444 -170.503968
L 442.086582 -172.770391
L 442.12373 -175.036815
L 442.152617 -177.303238
L 442.169058 -179.569662
L 442.170588 -181.836086
L 442.156842 -184.102509
L 442.12962 -186.368933
L 442.092655 -188.635356
L 442.051095 -190.90178
L 442.010804 -193.168203
L 441.977575 -195.434627
L 441.956393 -197.70105
L 441.950843 -199.967474
L 441.962784 -202.233898
L 441.992317 -204.500321
L 442.038031 -206.766745
L 442.097462 -209.033168
L 442.167616 -211.299592
L 442.245454 -213.566015
L 442.328213 -215.832439
L 442.413541 -218.098862
L 442.499452 -220.365286
L 442.5842 -222.63171
L 442.66614 -224.898133
L 442.743663 -227.164557
L 442.815231 -229.43098
L 442.879496 -231.697404
L 442.935459 -233.963827
L 442.982598 -236.230251
L 443.020923 -238.496674
L 443.050954 -240.763098
L 443.073607 -243.029522
L 443.168893 -243.029522
L 443.168893 -243.029522
L 443.191546 -240.763098
L 443.221577 -238.496674
L 443.259902 -236.230251
L 443.307041 -233.963827
L 443.363004 -231.697404
L 443.427269 -229.43098
L 443.498837 -227.164557
L 443.57636 -224.898133
L 443.6583 -222.63171
L 443.743048 -220.365286
L 443.828959 -218.098862
L 443.914287 -215.832439
L 443.997046 -213.566015
L 444.074884 -211.299592
L 444.145038 -209.033168
L 444.204469 -206.766745
L 444.250183 -204.500321
L 444.279716 -202.233898
L 444.291657 -199.967474
L 444.286107 -197.70105
L 444.264925 -195.434627
L 444.231696 -193.168203
L 444.191405 -190.90178
L 444.149845 -188.635356
L 444.11288 -186.368933
L 444.085658 -184.102509
L 444.071912 -181.836086
L 444.073442 -179.569662
L 444.089883 -177.303238
L 444.11877 -175.036815
L 444.155918 -172.770391
L 444.196056 -170.503968
L 444.233615 -168.237544
L 444.263571 -165.971121
L 444.282197 -163.704697
L 444.287651 -161.438274
L 444.280313 -159.17185
L 444.262858 -156.905426
L 444.240063 -154.639003
L 444.218384 -152.372579
L 444.20535 -150.106156
L 444.20884 -147.839732
L 444.236321 -145.573309
L 444.294133 -143.306885
L 444.38691 -141.040462
L 444.517237 -138.774038
L 444.685587 -136.507614
L 444.890561 -134.241191
L 445.129405 -131.974767
L 445.39871 -129.708344
L 445.695188 -127.44192
L 446.016388 -125.175497
L 446.361248 -122.909073
L 446.730436 -120.64265
L 447.126479 -118.376226
L 447.553725 -116.109802
L 448.018185 -113.843379
L 448.527288 -111.576955
L 449.089495 -109.310532
L 449.713721 -107.044108
L 450.408467 -104.777685
L 451.180676 -102.511261
L 452.034435 -100.244838
L 452.969805 -97.978414
L 453.982146 -95.71199
L 455.062329 -93.445567
L 456.198027 -91.179143
L 457.376018 -88.91272
L 458.585045 -86.646296
L 459.818475 -84.379873
L 461.075833 -82.113449
L 462.362372 -79.847026
L 463.686226 -77.580602
L 465.053233 -75.314178
L 466.460226 -73.047755
L 467.888125 -70.781331
L 469.296546 -68.514908
L 470.621605 -66.248484
L 471.778142 -63.982061
L 472.666788 -61.715637
L 473.185261 -59.449214
L 473.24225 -57.18279
L 472.771533 -54.916366
L 471.743672 -52.649943
L 470.17302 -50.383519
L 468.11857 -48.117096
L 465.678419 -45.850672
L 462.978804 -43.584249
L 460.159682 -41.317825
L 457.359322 -39.051402
L 454.700399 -36.784978
L 452.279553 -34.518554
L 450.161566 -32.252131
L 448.37836 -29.985707
L 446.932167 -27.719284
L 445.801647 -25.45286
L 444.949456 -23.186437
L 444.329863 -20.920013
L 443.895311 -18.65359
z
" id="m6edf853149" style="stroke:#404040;stroke-width:1.5;"/>
    </defs>
    <g clip-path="url(#p378e85a190)">
     <use style="fill:#1b86ba;stroke:#404040;stroke-width:1.5;" x="0" xlink:href="#m6edf853149" y="288"/>
    </g>
   </g>
   <g id="PolyCollection_6">
    <defs>
     <path d="M 518.920237 -18.814476
L 517.927263 -18.814476
L 517.655539 -21.085848
L 517.271093 -23.35722
L 516.745044 -25.628593
L 516.048342 -27.899965
L 515.154498 -30.171337
L 514.042714 -32.44271
L 512.701044 -34.714082
L 511.129244 -36.985454
L 509.34094 -39.256827
L 507.364857 -41.528199
L 505.244882 -43.799572
L 503.038846 -46.070944
L 500.815977 -48.342316
L 498.653095 -50.613689
L 496.629756 -52.885061
L 494.82273 -55.156433
L 493.300352 -57.427806
L 492.117402 -59.699178
L 491.311141 -61.97055
L 490.899024 -64.241923
L 490.878346 -66.513295
L 491.227795 -68.784667
L 491.91057 -71.05604
L 492.878529 -73.327412
L 494.076707 -75.598785
L 495.447609 -77.870157
L 496.934757 -80.141529
L 498.485242 -82.412902
L 500.051192 -84.684274
L 501.590333 -86.955646
L 503.065922 -89.227019
L 504.446486 -91.498391
L 505.705756 -93.769763
L 506.823097 -96.041136
L 507.784554 -98.312508
L 508.584295 -100.583881
L 509.226011 -102.855253
L 509.723626 -105.126625
L 510.100694 -107.397998
L 510.388169 -109.66937
L 510.62064 -111.940742
L 510.831654 -114.212115
L 511.049111 -116.483487
L 511.291777 -118.754859
L 511.567728 -121.026232
L 511.875056 -123.297604
L 512.204514 -125.568977
L 512.543338 -127.840349
L 512.879188 -130.111721
L 513.203217 -132.383094
L 513.511626 -134.654466
L 513.805512 -136.925838
L 514.089331 -139.197211
L 514.368636 -141.468583
L 514.647846 -143.739955
L 514.928726 -146.011328
L 515.209896 -148.2827
L 515.487362 -150.554072
L 515.755722 -152.825445
L 516.00956 -155.096817
L 516.244556 -157.36819
L 516.458053 -159.639562
L 516.64903 -161.910934
L 516.817667 -164.182307
L 516.964781 -166.453679
L 517.091377 -168.725051
L 517.198466 -170.996424
L 517.287145 -173.267796
L 517.358833 -175.539168
L 517.415521 -177.810541
L 517.459893 -180.081913
L 517.495269 -182.353286
L 517.525349 -184.624658
L 517.553832 -186.89603
L 517.583962 -189.167403
L 517.618112 -191.438775
L 517.657459 -193.710147
L 517.701839 -195.98152
L 517.749805 -198.252892
L 517.798928 -200.524264
L 517.84629 -202.795637
L 517.889106 -205.067009
L 517.925344 -207.338381
L 517.954198 -209.609754
L 517.976308 -211.881126
L 517.993639 -214.152499
L 518.009056 -216.423871
L 518.025686 -218.695243
L 518.046236 -220.966616
L 518.07243 -223.237988
L 518.104697 -225.50936
L 518.142181 -227.780733
L 518.183011 -230.052105
L 518.22477 -232.323477
L 518.264997 -234.59485
L 518.301614 -236.866222
L 518.333204 -239.137595
L 518.359097 -241.408967
L 518.3793 -243.680339
L 518.4682 -243.680339
L 518.4682 -243.680339
L 518.488403 -241.408967
L 518.514296 -239.137595
L 518.545886 -236.866222
L 518.582503 -234.59485
L 518.62273 -232.323477
L 518.664489 -230.052105
L 518.705319 -227.780733
L 518.742803 -225.50936
L 518.77507 -223.237988
L 518.801264 -220.966616
L 518.821814 -218.695243
L 518.838444 -216.423871
L 518.853861 -214.152499
L 518.871192 -211.881126
L 518.893302 -209.609754
L 518.922156 -207.338381
L 518.958394 -205.067009
L 519.00121 -202.795637
L 519.048572 -200.524264
L 519.097695 -198.252892
L 519.145661 -195.98152
L 519.190041 -193.710147
L 519.229388 -191.438775
L 519.263538 -189.167403
L 519.293668 -186.89603
L 519.322151 -184.624658
L 519.352231 -182.353286
L 519.387607 -180.081913
L 519.431979 -177.810541
L 519.488667 -175.539168
L 519.560355 -173.267796
L 519.649034 -170.996424
L 519.756123 -168.725051
L 519.882719 -166.453679
L 520.029833 -164.182307
L 520.19847 -161.910934
L 520.389447 -159.639562
L 520.602944 -157.36819
L 520.83794 -155.096817
L 521.091778 -152.825445
L 521.360138 -150.554072
L 521.637604 -148.2827
L 521.918774 -146.011328
L 522.199654 -143.739955
L 522.478864 -141.468583
L 522.758169 -139.197211
L 523.041988 -136.925838
L 523.335874 -134.654466
L 523.644283 -132.383094
L 523.968312 -130.111721
L 524.304162 -127.840349
L 524.642986 -125.568977
L 524.972444 -123.297604
L 525.279772 -121.026232
L 525.555723 -118.754859
L 525.798389 -116.483487
L 526.015846 -114.212115
L 526.22686 -111.940742
L 526.459331 -109.66937
L 526.746806 -107.397998
L 527.123874 -105.126625
L 527.621489 -102.855253
L 528.263205 -100.583881
L 529.062946 -98.312508
L 530.024403 -96.041136
L 531.141744 -93.769763
L 532.401014 -91.498391
L 533.781578 -89.227019
L 535.257167 -86.955646
L 536.796308 -84.684274
L 538.362258 -82.412902
L 539.912743 -80.141529
L 541.399891 -77.870157
L 542.770793 -75.598785
L 543.968971 -73.327412
L 544.93693 -71.05604
L 545.619705 -68.784667
L 545.969154 -66.513295
L 545.948476 -64.241923
L 545.536359 -61.97055
L 544.730098 -59.699178
L 543.547148 -57.427806
L 542.02477 -55.156433
L 540.217744 -52.885061
L 538.194405 -50.613689
L 536.031523 -48.342316
L 533.808654 -46.070944
L 531.602618 -43.799572
L 529.482643 -41.528199
L 527.50656 -39.256827
L 525.718256 -36.985454
L 524.146456 -34.714082
L 522.804786 -32.44271
L 521.693002 -30.171337
L 520.799158 -27.899965
L 520.102456 -25.628593
L 519.576407 -23.35722
L 519.191961 -21.085848
L 518.920237 -18.814476
z
" id="m292eb8d823" style="stroke:#404040;stroke-width:1.5;"/>
    </defs>
    <g clip-path="url(#p378e85a190)">
     <use style="fill:#e36149;stroke:#404040;stroke-width:1.5;" x="0" xlink:href="#m292eb8d823" y="288"/>
    </g>
   </g>
   <g id="PolyCollection_7">
    <defs>
     <path d="M 593.965654 -19.824254
L 593.486846 -19.824254
L 593.375664 -21.681673
L 593.223846 -23.539093
L 593.021305 -25.396512
L 592.757187 -27.253932
L 592.420383 -29.111351
L 592.000211 -30.968771
L 591.487216 -32.82619
L 590.874062 -34.68361
L 590.156415 -36.541029
L 589.333761 -38.398449
L 588.410026 -40.255868
L 587.393939 -42.113288
L 586.299023 -43.970707
L 585.143188 -45.828127
L 583.947914 -47.685546
L 582.737066 -49.542966
L 581.535452 -51.400385
L 580.367282 -53.257805
L 579.254676 -55.115224
L 578.216415 -56.972644
L 577.267069 -58.830063
L 576.416573 -60.687483
L 575.670296 -62.544902
L 575.02952 -64.402322
L 574.492253 -66.259741
L 574.054207 -68.117161
L 573.709791 -69.97458
L 573.452981 -71.832
L 573.277966 -73.689419
L 573.179517 -75.546839
L 573.153095 -77.404258
L 573.194769 -79.261678
L 573.301004 -81.119097
L 573.468432 -82.976516
L 573.693661 -84.833936
L 573.973123 -86.691355
L 574.302974 -88.548775
L 574.678976 -90.406194
L 575.09633 -92.263614
L 575.549448 -94.121033
L 576.031694 -95.978453
L 576.535178 -97.835872
L 577.050697 -99.693292
L 577.567934 -101.550711
L 578.075975 -103.408131
L 578.564147 -105.26555
L 579.023097 -107.12297
L 579.44597 -108.980389
L 579.829494 -110.837809
L 580.174772 -112.695228
L 580.487595 -114.552648
L 580.778169 -116.410067
L 581.060222 -118.267487
L 581.349569 -120.124906
L 581.662294 -121.982326
L 582.012819 -123.839745
L 582.412106 -125.697165
L 582.866285 -127.554584
L 583.375903 -129.412004
L 583.935884 -131.269423
L 584.536196 -133.126843
L 585.163079 -134.984262
L 585.800615 -136.841682
L 586.432402 -138.699101
L 587.043075 -140.556521
L 587.619507 -142.41394
L 588.151602 -144.27136
L 588.632642 -146.128779
L 589.059285 -147.986199
L 589.431264 -149.843618
L 589.750924 -151.701037
L 590.022673 -153.558457
L 590.252397 -155.415876
L 590.446905 -157.273296
L 590.613403 -159.130715
L 590.759028 -160.988135
L 590.89046 -162.845554
L 591.013631 -164.702974
L 591.133537 -166.560393
L 591.254167 -168.417813
L 591.378513 -170.275232
L 591.508643 -172.132652
L 591.645784 -173.990071
L 591.790397 -175.847491
L 591.942211 -177.70491
L 592.100237 -179.56233
L 592.262776 -181.419749
L 592.427474 -183.277169
L 592.59143 -185.134588
L 592.751396 -186.992008
L 592.904039 -188.849427
L 593.046244 -190.706847
L 593.175398 -192.564266
L 593.289626 -194.421686
L 593.387917 -196.279105
L 593.470151 -198.136525
L 593.537013 -199.993944
L 593.589825 -201.851364
L 593.630342 -203.708783
L 593.822158 -203.708783
L 593.822158 -203.708783
L 593.862675 -201.851364
L 593.915487 -199.993944
L 593.982349 -198.136525
L 594.064583 -196.279105
L 594.162874 -194.421686
L 594.277102 -192.564266
L 594.406256 -190.706847
L 594.548461 -188.849427
L 594.701104 -186.992008
L 594.86107 -185.134588
L 595.025026 -183.277169
L 595.189724 -181.419749
L 595.352263 -179.56233
L 595.510289 -177.70491
L 595.662103 -175.847491
L 595.806716 -173.990071
L 595.943857 -172.132652
L 596.073987 -170.275232
L 596.198333 -168.417813
L 596.318963 -166.560393
L 596.438869 -164.702974
L 596.56204 -162.845554
L 596.693472 -160.988135
L 596.839097 -159.130715
L 597.005595 -157.273296
L 597.200103 -155.415876
L 597.429827 -153.558457
L 597.701576 -151.701037
L 598.021236 -149.843618
L 598.393215 -147.986199
L 598.819858 -146.128779
L 599.300898 -144.27136
L 599.832993 -142.41394
L 600.409425 -140.556521
L 601.020098 -138.699101
L 601.651885 -136.841682
L 602.289421 -134.984262
L 602.916304 -133.126843
L 603.516616 -131.269423
L 604.076597 -129.412004
L 604.586215 -127.554584
L 605.040394 -125.697165
L 605.439681 -123.839745
L 605.790206 -121.982326
L 606.102931 -120.124906
L 606.392278 -118.267487
L 606.674331 -116.410067
L 606.964905 -114.552648
L 607.277728 -112.695228
L 607.623006 -110.837809
L 608.00653 -108.980389
L 608.429403 -107.12297
L 608.888353 -105.26555
L 609.376525 -103.408131
L 609.884566 -101.550711
L 610.401803 -99.693292
L 610.917322 -97.835872
L 611.420806 -95.978453
L 611.903052 -94.121033
L 612.35617 -92.263614
L 612.773524 -90.406194
L 613.149526 -88.548775
L 613.479377 -86.691355
L 613.758839 -84.833936
L 613.984068 -82.976516
L 614.151496 -81.119097
L 614.257731 -79.261678
L 614.299405 -77.404258
L 614.272983 -75.546839
L 614.174534 -73.689419
L 613.999519 -71.832
L 613.742709 -69.97458
L 613.398293 -68.117161
L 612.960247 -66.259741
L 612.42298 -64.402322
L 611.782204 -62.544902
L 611.035927 -60.687483
L 610.185431 -58.830063
L 609.236085 -56.972644
L 608.197824 -55.115224
L 607.085218 -53.257805
L 605.917048 -51.400385
L 604.715434 -49.542966
L 603.504586 -47.685546
L 602.309312 -45.828127
L 601.153477 -43.970707
L 600.058561 -42.113288
L 599.042474 -40.255868
L 598.118739 -38.398449
L 597.296085 -36.541029
L 596.578438 -34.68361
L 595.965284 -32.82619
L 595.452289 -30.968771
L 595.032117 -29.111351
L 594.695313 -27.253932
L 594.431195 -25.396512
L 594.228654 -23.539093
L 594.076836 -21.681673
L 593.965654 -19.824254
z
" id="maaf23ac223" style="stroke:#404040;stroke-width:1.5;"/>
    </defs>
    <g clip-path="url(#p378e85a190)">
     <use style="fill:#cfa64e;stroke:#404040;stroke-width:1.5;" x="0" xlink:href="#maaf23ac223" y="288"/>
    </g>
   </g>
   <g id="PolyCollection_8">
    <defs>
     <path d="M 669.260692 -9.649092
L 668.796808 -9.649092
L 668.706801 -12.13842
L 668.59081 -14.627748
L 668.444679 -17.117075
L 668.264625 -19.606403
L 668.047538 -22.095731
L 667.791276 -24.585059
L 667.494892 -27.074386
L 667.158781 -29.563714
L 666.784721 -32.053042
L 666.375796 -34.542369
L 665.936229 -37.031697
L 665.471129 -39.521025
L 664.986196 -42.010353
L 664.487396 -44.49968
L 663.980637 -46.989008
L 663.471448 -49.478336
L 662.964667 -51.967664
L 662.464146 -54.456991
L 661.972492 -56.946319
L 661.49087 -59.435647
L 661.018916 -61.924974
L 660.554811 -64.414302
L 660.095545 -66.90363
L 659.637403 -69.392958
L 659.176628 -71.882285
L 658.710204 -74.371613
L 658.236642 -76.860941
L 657.756668 -79.350269
L 657.273659 -81.839596
L 656.793793 -84.328924
L 656.325835 -86.818252
L 655.880617 -89.30758
L 655.47028 -91.796907
L 655.107389 -94.286235
L 654.80403 -96.775563
L 654.570994 -99.26489
L 654.417104 -101.754218
L 654.348699 -104.243546
L 654.36927 -106.732874
L 654.47921 -109.222201
L 654.675669 -111.711529
L 654.952511 -114.200857
L 655.300393 -116.690185
L 655.707022 -119.179512
L 656.157638 -121.66884
L 656.635743 -124.158168
L 657.12408 -126.647495
L 657.605776 -129.136823
L 658.06555 -131.626151
L 658.490847 -134.115479
L 658.872731 -136.604806
L 659.206434 -139.094134
L 659.491462 -141.583462
L 659.731286 -144.07279
L 659.932636 -146.562117
L 660.104541 -149.051445
L 660.257239 -151.540773
L 660.401109 -154.030101
L 660.545743 -156.519428
L 660.699243 -159.008756
L 660.867782 -161.498084
L 661.055416 -163.987411
L 661.264112 -166.476739
L 661.493932 -168.966067
L 661.743306 -171.455395
L 662.009356 -173.944722
L 662.288222 -176.43405
L 662.575378 -178.923378
L 662.865933 -181.412706
L 663.154931 -183.902033
L 663.43764 -186.391361
L 663.709855 -188.880689
L 663.968186 -191.370016
L 664.210336 -193.859344
L 664.435321 -196.348672
L 664.643614 -198.838
L 664.837165 -201.327327
L 665.019284 -203.816655
L 665.194366 -206.305983
L 665.367465 -208.795311
L 665.543766 -211.284638
L 665.727993 -213.773966
L 665.923841 -216.263294
L 666.133505 -218.752622
L 666.357363 -221.241949
L 666.593893 -223.731277
L 666.839801 -226.220605
L 667.090371 -228.709932
L 667.339977 -231.19926
L 667.582668 -233.688588
L 667.812774 -236.177916
L 668.025416 -238.667243
L 668.21689 -241.156571
L 668.384878 -243.645899
L 668.52848 -246.135227
L 668.648098 -248.624554
L 668.7452 -251.113882
L 668.822027 -253.60321
L 668.881281 -256.092537
L 669.176219 -256.092537
L 669.176219 -256.092537
L 669.235473 -253.60321
L 669.3123 -251.113882
L 669.409402 -248.624554
L 669.52902 -246.135227
L 669.672622 -243.645899
L 669.84061 -241.156571
L 670.032084 -238.667243
L 670.244726 -236.177916
L 670.474832 -233.688588
L 670.717523 -231.19926
L 670.967129 -228.709932
L 671.217699 -226.220605
L 671.463607 -223.731277
L 671.700137 -221.241949
L 671.923995 -218.752622
L 672.133659 -216.263294
L 672.329507 -213.773966
L 672.513734 -211.284638
L 672.690035 -208.795311
L 672.863134 -206.305983
L 673.038216 -203.816655
L 673.220335 -201.327327
L 673.413886 -198.838
L 673.622179 -196.348672
L 673.847164 -193.859344
L 674.089314 -191.370016
L 674.347645 -188.880689
L 674.61986 -186.391361
L 674.902569 -183.902033
L 675.191567 -181.412706
L 675.482122 -178.923378
L 675.769278 -176.43405
L 676.048144 -173.944722
L 676.314194 -171.455395
L 676.563568 -168.966067
L 676.793388 -166.476739
L 677.002084 -163.987411
L 677.189718 -161.498084
L 677.358257 -159.008756
L 677.511757 -156.519428
L 677.656391 -154.030101
L 677.800261 -151.540773
L 677.952959 -149.051445
L 678.124864 -146.562117
L 678.326214 -144.07279
L 678.566038 -141.583462
L 678.851066 -139.094134
L 679.184769 -136.604806
L 679.566653 -134.115479
L 679.99195 -131.626151
L 680.451724 -129.136823
L 680.93342 -126.647495
L 681.421757 -124.158168
L 681.899862 -121.66884
L 682.350478 -119.179512
L 682.757107 -116.690185
L 683.104989 -114.200857
L 683.381831 -111.711529
L 683.57829 -109.222201
L 683.68823 -106.732874
L 683.708801 -104.243546
L 683.640396 -101.754218
L 683.486506 -99.26489
L 683.25347 -96.775563
L 682.950111 -94.286235
L 682.58722 -91.796907
L 682.176883 -89.30758
L 681.731665 -86.818252
L 681.263707 -84.328924
L 680.783841 -81.839596
L 680.300832 -79.350269
L 679.820858 -76.860941
L 679.347296 -74.371613
L 678.880872 -71.882285
L 678.420097 -69.392958
L 677.961955 -66.90363
L 677.502689 -64.414302
L 677.038584 -61.924974
L 676.56663 -59.435647
L 676.085008 -56.946319
L 675.593354 -54.456991
L 675.092833 -51.967664
L 674.586052 -49.478336
L 674.076863 -46.989008
L 673.570104 -44.49968
L 673.071304 -42.010353
L 672.586371 -39.521025
L 672.121271 -37.031697
L 671.681704 -34.542369
L 671.272779 -32.053042
L 670.898719 -29.563714
L 670.562608 -27.074386
L 670.266224 -24.585059
L 670.009962 -22.095731
L 669.792875 -19.606403
L 669.612821 -17.117075
L 669.46669 -14.627748
L 669.350699 -12.13842
L 669.260692 -9.649092
z
" id="me95036014d" style="stroke:#404040;stroke-width:1.5;"/>
    </defs>
    <g clip-path="url(#p378e85a190)">
     <use style="fill:#6e8857;stroke:#404040;stroke-width:1.5;" x="0" xlink:href="#me95036014d" y="288"/>
    </g>
   </g>
   <g id="matplotlib.axis_3">
    <g id="xtick_5">
     <g id="line2d_25">
      <g>
       <use style="stroke:#000000;stroke-width:0.8;" x="443.12125" xlink:href="#mf5dca4b5ab" y="246.04"/>
      </g>
     </g>
     <g id="text_14">
      <!-- 1D -->
      <g transform="translate(436.09 260.638438)scale(0.1 -0.1)">
       <use xlink:href="#DejaVuSans-31"/>
       <use x="63.623047" xlink:href="#DejaVuSans-44"/>
      </g>
     </g>
    </g>
    <g id="xtick_6">
     <g id="line2d_26">
      <g>
       <use style="stroke:#000000;stroke-width:0.8;" x="518.42375" xlink:href="#mf5dca4b5ab" y="246.04"/>
      </g>
     </g>
     <g id="text_15">
      <!-- I1D -->
      <g transform="translate(509.9175 260.638438)scale(0.1 -0.1)">
       <use xlink:href="#DejaVuSans-49"/>
       <use x="29.492188" xlink:href="#DejaVuSans-31"/>
       <use x="93.115234" xlink:href="#DejaVuSans-44"/>
      </g>
     </g>
    </g>
    <g id="xtick_7">
     <g id="line2d_27">
      <g>
       <use style="stroke:#000000;stroke-width:0.8;" x="593.72625" xlink:href="#mf5dca4b5ab" y="246.04"/>
      </g>
     </g>
     <g id="text_16">
      <!-- 2D -->
      <g transform="translate(586.695 260.638438)scale(0.1 -0.1)">
       <use xlink:href="#DejaVuSans-32"/>
       <use x="63.623047" xlink:href="#DejaVuSans-44"/>
      </g>
     </g>
    </g>
    <g id="xtick_8">
     <g id="line2d_28">
      <g>
       <use style="stroke:#000000;stroke-width:0.8;" x="669.02875" xlink:href="#mf5dca4b5ab" y="246.04"/>
      </g>
     </g>
     <g id="text_17">
      <!-- R -->
      <g transform="translate(665.554531 260.638438)scale(0.1 -0.1)">
       <use xlink:href="#DejaVuSans-52"/>
      </g>
     </g>
    </g>
    <g id="text_18">
     <!-- Task -->
     <g transform="translate(544.469531 274.316562)scale(0.1 -0.1)">
      <use xlink:href="#DejaVuSans-54"/>
      <use x="60.833984" xlink:href="#DejaVuSans-61"/>
      <use x="122.113281" xlink:href="#DejaVuSans-73"/>
      <use x="174.212891" xlink:href="#DejaVuSans-6b"/>
     </g>
    </g>
   </g>
   <g id="matplotlib.axis_4">
    <g id="ytick_7">
     <g id="line2d_29">
      <path clip-path="url(#p378e85a190)" d="M 405.47 246.04
L 706.68 246.04
" style="fill:none;stroke:#b0b0b0;stroke-linecap:square;stroke-width:0.8;"/>
     </g>
     <g id="line2d_30">
      <g>
       <use style="stroke:#000000;stroke-width:0.8;" x="405.47" xlink:href="#m88d2200ba4" y="246.04"/>
      </g>
     </g>
     <g id="text_19">
      <!-- 0 -->
      <g transform="translate(392.1075 249.839219)scale(0.1 -0.1)">
       <use xlink:href="#DejaVuSans-30"/>
      </g>
     </g>
    </g>
    <g id="ytick_8">
     <g id="line2d_31">
      <path clip-path="url(#p378e85a190)" d="M 405.47 205.454815
L 706.68 205.454815
" style="fill:none;stroke:#b0b0b0;stroke-linecap:square;stroke-width:0.8;"/>
     </g>
     <g id="line2d_32">
      <g>
       <use style="stroke:#000000;stroke-width:0.8;" x="405.47" xlink:href="#m88d2200ba4" y="205.454815"/>
      </g>
     </g>
     <g id="text_20">
      <!-- 50 -->
      <g transform="translate(385.745 209.254034)scale(0.1 -0.1)">
       <use xlink:href="#DejaVuSans-35"/>
       <use x="63.623047" xlink:href="#DejaVuSans-30"/>
      </g>
     </g>
    </g>
    <g id="ytick_9">
     <g id="line2d_33">
      <path clip-path="url(#p378e85a190)" d="M 405.47 164.86963
L 706.68 164.86963
" style="fill:none;stroke:#b0b0b0;stroke-linecap:square;stroke-width:0.8;"/>
     </g>
     <g id="line2d_34">
      <g>
       <use style="stroke:#000000;stroke-width:0.8;" x="405.47" xlink:href="#m88d2200ba4" y="164.86963"/>
      </g>
     </g>
     <g id="text_21">
      <!-- 100 -->
      <g transform="translate(379.3825 168.668848)scale(0.1 -0.1)">
       <use xlink:href="#DejaVuSans-31"/>
       <use x="63.623047" xlink:href="#DejaVuSans-30"/>
       <use x="127.246094" xlink:href="#DejaVuSans-30"/>
      </g>
     </g>
    </g>
    <g id="ytick_10">
     <g id="line2d_35">
      <path clip-path="url(#p378e85a190)" d="M 405.47 124.284444
L 706.68 124.284444
" style="fill:none;stroke:#b0b0b0;stroke-linecap:square;stroke-width:0.8;"/>
     </g>
     <g id="line2d_36">
      <g>
       <use style="stroke:#000000;stroke-width:0.8;" x="405.47" xlink:href="#m88d2200ba4" y="124.284444"/>
      </g>
     </g>
     <g id="text_22">
      <!-- 150 -->
      <g transform="translate(379.3825 128.083663)scale(0.1 -0.1)">
       <use xlink:href="#DejaVuSans-31"/>
       <use x="63.623047" xlink:href="#DejaVuSans-35"/>
       <use x="127.246094" xlink:href="#DejaVuSans-30"/>
      </g>
     </g>
    </g>
    <g id="ytick_11">
     <g id="line2d_37">
      <path clip-path="url(#p378e85a190)" d="M 405.47 83.699259
L 706.68 83.699259
" style="fill:none;stroke:#b0b0b0;stroke-linecap:square;stroke-width:0.8;"/>
     </g>
     <g id="line2d_38">
      <g>
       <use style="stroke:#000000;stroke-width:0.8;" x="405.47" xlink:href="#m88d2200ba4" y="83.699259"/>
      </g>
     </g>
     <g id="text_23">
      <!-- 200 -->
      <g transform="translate(379.3825 87.498478)scale(0.1 -0.1)">
       <use xlink:href="#DejaVuSans-32"/>
       <use x="63.623047" xlink:href="#DejaVuSans-30"/>
       <use x="127.246094" xlink:href="#DejaVuSans-30"/>
      </g>
     </g>
    </g>
    <g id="ytick_12">
     <g id="line2d_39">
      <path clip-path="url(#p378e85a190)" d="M 405.47 43.114074
L 706.68 43.114074
" style="fill:none;stroke:#b0b0b0;stroke-linecap:square;stroke-width:0.8;"/>
     </g>
     <g id="line2d_40">
      <g>
       <use style="stroke:#000000;stroke-width:0.8;" x="405.47" xlink:href="#m88d2200ba4" y="43.114074"/>
      </g>
     </g>
     <g id="text_24">
      <!-- 250 -->
      <g transform="translate(379.3825 46.913293)scale(0.1 -0.1)">
       <use xlink:href="#DejaVuSans-32"/>
       <use x="63.623047" xlink:href="#DejaVuSans-35"/>
       <use x="127.246094" xlink:href="#DejaVuSans-30"/>
      </g>
     </g>
    </g>
    <g id="text_25">
     <!-- Number of trials on task -->
     <g transform="translate(373.302813 196.936562)rotate(-90)scale(0.1 -0.1)">
      <use xlink:href="#DejaVuSans-4e"/>
      <use x="74.804688" xlink:href="#DejaVuSans-75"/>
      <use x="138.183594" xlink:href="#DejaVuSans-6d"/>
      <use x="235.595703" xlink:href="#DejaVuSans-62"/>
      <use x="299.072266" xlink:href="#DejaVuSans-65"/>
      <use x="360.595703" xlink:href="#DejaVuSans-72"/>
      <use x="401.708984" xlink:href="#DejaVuSans-20"/>
      <use x="433.496094" xlink:href="#DejaVuSans-6f"/>
      <use x="494.677734" xlink:href="#DejaVuSans-66"/>
      <use x="529.882812" xlink:href="#DejaVuSans-20"/>
      <use x="561.669922" xlink:href="#DejaVuSans-74"/>
      <use x="600.878906" xlink:href="#DejaVuSans-72"/>
      <use x="641.992188" xlink:href="#DejaVuSans-69"/>
      <use x="669.775391" xlink:href="#DejaVuSans-61"/>
      <use x="731.054688" xlink:href="#DejaVuSans-6c"/>
      <use x="758.837891" xlink:href="#DejaVuSans-73"/>
      <use x="810.9375" xlink:href="#DejaVuSans-20"/>
      <use x="842.724609" xlink:href="#DejaVuSans-6f"/>
      <use x="903.90625" xlink:href="#DejaVuSans-6e"/>
      <use x="967.285156" xlink:href="#DejaVuSans-20"/>
      <use x="999.072266" xlink:href="#DejaVuSans-74"/>
      <use x="1038.28125" xlink:href="#DejaVuSans-61"/>
      <use x="1099.560547" xlink:href="#DejaVuSans-73"/>
      <use x="1151.660156" xlink:href="#DejaVuSans-6b"/>
     </g>
    </g>
   </g>
   <g id="line2d_41">
    <path clip-path="url(#p378e85a190)" d="M 443.12125 246.04
L 443.12125 160.811111
" style="fill:none;stroke:#404040;stroke-linecap:square;stroke-width:1.5;"/>
   </g>
   <g id="line2d_42">
    <path clip-path="url(#p378e85a190)" d="M 443.12125 233.864444
L 443.12125 203.831407
" style="fill:none;stroke:#404040;stroke-linecap:square;stroke-width:4.5;"/>
   </g>
   <g id="line2d_43">
    <path clip-path="url(#p378e85a190)" d="M 518.42375 246.04
L 518.42375 142.95363
" style="fill:none;stroke:#404040;stroke-linecap:square;stroke-width:1.5;"/>
   </g>
   <g id="line2d_44">
    <path clip-path="url(#p378e85a190)" d="M 518.42375 228.182519
L 518.42375 193.279259
" style="fill:none;stroke:#404040;stroke-linecap:square;stroke-width:4.5;"/>
   </g>
   <g id="line2d_45">
    <path clip-path="url(#p378e85a190)" d="M 593.72625 246.04
L 593.72625 106.426963
" style="fill:none;stroke:#404040;stroke-linecap:square;stroke-width:1.5;"/>
   </g>
   <g id="line2d_46">
    <path clip-path="url(#p378e85a190)" d="M 593.72625 220.065481
L 593.72625 173.79837
" style="fill:none;stroke:#404040;stroke-linecap:square;stroke-width:4.5;"/>
   </g>
   <g id="line2d_47">
    <path clip-path="url(#p378e85a190)" d="M 669.02875 246.04
L 669.02875 64.21837
" style="fill:none;stroke:#404040;stroke-linecap:square;stroke-width:1.5;"/>
   </g>
   <g id="line2d_48">
    <path clip-path="url(#p378e85a190)" d="M 669.02875 199.772889
L 669.02875 134.633667
" style="fill:none;stroke:#404040;stroke-linecap:square;stroke-width:4.5;"/>
   </g>
   <g id="patch_6">
    <path d="M 405.47 246.04
L 405.47 26.88
" style="fill:none;stroke:#000000;stroke-linecap:square;stroke-linejoin:miter;stroke-width:0.8;"/>
   </g>
   <g id="patch_7">
    <path d="M 405.47 246.04
L 706.68 246.04
" style="fill:none;stroke:#000000;stroke-linecap:square;stroke-linejoin:miter;stroke-width:0.8;"/>
   </g>
   <g id="PathCollection_5">
    <g clip-path="url(#p378e85a190)">
     <use style="fill:#ffffff;stroke:#404040;" x="443.12125" xlink:href="#mbeff64346b" y="223.718148"/>
    </g>
   </g>
   <g id="PathCollection_6">
    <g clip-path="url(#p378e85a190)">
     <use style="fill:#ffffff;stroke:#404040;" x="518.42375" xlink:href="#mbeff64346b" y="216.006963"/>
    </g>
   </g>
   <g id="PathCollection_7">
    <g clip-path="url(#p378e85a190)">
     <use style="fill:#ffffff;stroke:#404040;" x="593.72625" xlink:href="#mbeff64346b" y="200.178741"/>
    </g>
   </g>
   <g id="PathCollection_8">
    <g clip-path="url(#p378e85a190)">
     <use style="fill:#ffffff;stroke:#404040;" x="669.02875" xlink:href="#mbeff64346b" y="174.204222"/>
    </g>
   </g>
   <g id="text_26">
    <!-- Group S -->
    <defs>
     <path d="M 53.515625 70.515625
L 53.515625 60.890625
Q 47.90625 63.578125 42.921875 64.890625
Q 37.9375 66.21875 33.296875 66.21875
Q 25.25 66.21875 20.875 63.09375
Q 16.5 59.96875 16.5 54.203125
Q 16.5 49.359375 19.40625 46.890625
Q 22.3125 44.4375 30.421875 42.921875
L 36.375 41.703125
Q 47.40625 39.59375 52.65625 34.296875
Q 57.90625 29 57.90625 20.125
Q 57.90625 9.515625 50.796875 4.046875
Q 43.703125 -1.421875 29.984375 -1.421875
Q 24.8125 -1.421875 18.96875 -0.25
Q 13.140625 0.921875 6.890625 3.21875
L 6.890625 13.375
Q 12.890625 10.015625 18.65625 8.296875
Q 24.421875 6.59375 29.984375 6.59375
Q 38.421875 6.59375 43.015625 9.90625
Q 47.609375 13.234375 47.609375 19.390625
Q 47.609375 24.75 44.3125 27.78125
Q 41.015625 30.8125 33.5 32.328125
L 27.484375 33.5
Q 16.453125 35.6875 11.515625 40.375
Q 6.59375 45.0625 6.59375 53.421875
Q 6.59375 63.09375 13.40625 68.65625
Q 20.21875 74.21875 32.171875 74.21875
Q 37.3125 74.21875 42.625 73.28125
Q 47.953125 72.359375 53.515625 70.515625
z
" id="DejaVuSans-53"/>
    </defs>
    <g transform="translate(531.9625 20.88)scale(0.12 -0.12)">
     <use xlink:href="#DejaVuSans-47"/>
     <use x="77.490234" xlink:href="#DejaVuSans-72"/>
     <use x="118.572266" xlink:href="#DejaVuSans-6f"/>
     <use x="179.753906" xlink:href="#DejaVuSans-75"/>
     <use x="243.132812" xlink:href="#DejaVuSans-70"/>
     <use x="306.609375" xlink:href="#DejaVuSans-20"/>
     <use x="338.396484" xlink:href="#DejaVuSans-53"/>
    </g>
   </g>
  </g>
 </g>
 <defs>
  <clipPath id="pb8ffdb7cc1">
   <rect height="219.16" width="301.21" x="50.87" y="26.88"/>
  </clipPath>
  <clipPath id="p378e85a190">
   <rect height="219.16" width="301.21" x="405.47" y="26.88"/>
  </clipPath>
 </defs>
</svg>
